<svg xmlns="http://www.w3.org/2000/svg" viewBox="0 0 96 96">
<defs>
<style>
.cls-1{fill:#fff;}
.cls-1,.cls-2{stroke:#424242;stroke-miterlimit:10;stroke-width:2px;}
.cls-2,.cls-4{fill:none;}
.cls-3{fill:#e0e0e0;}
</style>
</defs>
<title>ProxAdv_Asset 76</title>
<g id="Layer_2" data-name="Layer 2">
<g id="ProxInter_ic">
<path class="cls-1" d="M48.09,8A54.9,54.9,0,0,0,9.24,24a4,4,0,0,0-1.15,2.83v59.7A1.46,1.46,0,0,0,9.55,88H86.62a1.47,1.47,0,0,0,1.47-1.46V26.84A4,4,0,0,0,86.93,24,54.88,54.88,0,0,0,48.09,8Z"/>
<circle class="cls-2" cx="48.1" cy="67.57" r="4"/>
<path class="cls-3" d="M49.38,64.87a3,3,0,0,1,.33,1.34A3,3,0,0,1,45.45,69a3,3,0,1,0,3.93-4.09Z"/>
</g>
</g>
</svg>
