<svg xmlns="http://www.w3.org/2000/svg" xmlns:xlink="http://www.w3.org/1999/xlink" viewBox="0 0 97 97">
  <defs>
    <style>
      .cls-1 {
        fill: #fbe9e7;
      }

      .cls-18, .cls-2 {
        fill: #ffccbc;
      }

      .cls-3 {
        fill: #dce7ff;
        stroke: #a4c6ff;
      }

      .cls-10, .cls-11, .cls-13, .cls-14, .cls-16, .cls-20, .cls-22, .cls-3, .cls-30, .cls-4, .cls-41, .cls-50 {
        stroke-miterlimit: 10;
      }

      .cls-16, .cls-20, .cls-21, .cls-22, .cls-24, .cls-27, .cls-30, .cls-32, .cls-4, .cls-45, .cls-50, .cls-51, .cls-53, .cls-55, .cls-7 {
        fill: none;
      }

      .cls-4 {
        stroke: #ffc0ac;
      }

      .cls-10, .cls-11, .cls-13, .cls-14, .cls-16, .cls-17, .cls-18, .cls-20, .cls-21, .cls-22, .cls-27, .cls-28, .cls-29, .cls-30, .cls-32, .cls-33, .cls-4, .cls-41, .cls-45, .cls-47, .cls-5, .cls-50, .cls-51, .cls-52, .cls-53, .cls-54, .cls-55, .cls-56, .cls-58, .cls-59, .cls-60, .cls-7 {
        stroke-width: 2px;
      }

      .cls-28, .cls-29, .cls-33, .cls-5, .cls-6 {
        fill: #90a4ae;
      }

      .cls-5, .cls-7 {
        stroke: #607d8b;
      }

      .cls-13, .cls-16, .cls-20, .cls-21, .cls-32, .cls-33, .cls-5, .cls-50, .cls-51, .cls-53, .cls-55, .cls-7 {
        stroke-linecap: round;
      }

      .cls-17, .cls-18, .cls-21, .cls-27, .cls-28, .cls-29, .cls-32, .cls-33, .cls-45, .cls-47, .cls-5, .cls-51, .cls-52, .cls-53, .cls-54, .cls-55, .cls-56, .cls-58, .cls-59, .cls-60, .cls-7 {
        stroke-linejoin: round;
      }

      .cls-8 {
        fill: #ff6738;
      }

      .cls-9 {
        fill: #ffc0ac;
      }

      .cls-10, .cls-12 {
        fill: #eceff1;
      }

      .cls-10, .cls-11, .cls-13, .cls-14, .cls-17, .cls-18, .cls-20, .cls-21, .cls-27, .cls-28, .cls-30, .cls-41, .cls-47, .cls-52, .cls-54, .cls-56, .cls-58, .cls-59, .cls-60 {
        stroke: #263238;
      }

      .cls-11, .cls-13, .cls-23, .cls-59 {
        fill: #fff;
      }

      .cls-14, .cls-47, .cls-48 {
        fill: #1de9b6;
      }

      .cls-15 {
        fill: #263238;
      }

      .cls-16 {
        stroke: #ff6738;
      }

      .cls-17, .cls-19 {
        fill: #ffab91;
      }

      .cls-22, .cls-45, .cls-50 {
        stroke: #405359;
      }

      .cls-25 {
        fill: #37474f;
      }

      .cls-26, .cls-41 {
        fill: #cfd8dc;
      }

      .cls-29, .cls-32, .cls-33 {
        stroke: #5a7280;
      }

      .cls-31, .cls-40, .cls-56 {
        fill: #ff3d00;
      }

      .cls-31 {
        opacity: 0.2;
      }

      .cls-34 {
        fill: #00ff50;
      }

      .cls-35 {
        fill: #1919ff;
      }

      .cls-36 {
        fill: red;
      }

      .cls-37 {
        fill: #00e5ff;
      }

      .cls-38 {
        fill: #ffea00;
      }

      .cls-39 {
        fill: #ff00fb;
      }

      .cls-42 {
        fill: url(#radial-gradient);
      }

      .cls-43 {
        fill: #00eaff;
      }

      .cls-44 {
        fill: url(#radial-gradient-2);
      }

      .cls-46 {
        fill: #405359;
      }

      .cls-49 {
        fill: url(#radial-gradient-3);
      }

      .cls-51 {
        stroke: blue;
      }

      .cls-52 {
        fill: blue;
      }

      .cls-53 {
        stroke: #00e676;
      }

      .cls-54 {
        fill: #00e676;
      }

      .cls-55 {
        stroke: #ff3d00;
      }

      .cls-57 {
        fill: #448aff;
      }

      .cls-60 {
        fill: #84edcf;
      }
    </style>
    <radialGradient id="radial-gradient" cx="162.42" cy="129.38" r="49.88" gradientTransform="translate(-140.75 -197.04) scale(1.17 2)" gradientUnits="userSpaceOnUse">
      <stop offset="0" stop-color="#fff"/>
      <stop offset="0.17" stop-color="#fff" stop-opacity="0.99"/>
      <stop offset="0.3" stop-color="#fff" stop-opacity="0.95"/>
      <stop offset="0.42" stop-color="#fff" stop-opacity="0.88"/>
      <stop offset="0.53" stop-color="#fff" stop-opacity="0.79"/>
      <stop offset="0.64" stop-color="#fff" stop-opacity="0.68"/>
      <stop offset="0.74" stop-color="#fff" stop-opacity="0.53"/>
      <stop offset="0.84" stop-color="#fff" stop-opacity="0.36"/>
      <stop offset="0.93" stop-color="#fff" stop-opacity="0.16"/>
      <stop offset="1" stop-color="#fff" stop-opacity="0"/>
    </radialGradient>
    <radialGradient id="radial-gradient-2" cx="162.42" cy="113.72" r="49.88" gradientTransform="translate(-140.86 -229.66) scale(1.17 2.3)" xlink:href="#radial-gradient"/>
    <radialGradient id="radial-gradient-3" cx="48.49" cy="68.38" r="34.09" gradientTransform="matrix(1, 0, 0, 1, 0, 0)" xlink:href="#radial-gradient"/>
  </defs>
  <title>colorAsset 490</title>
  <g id="Layer_2" data-name="Layer 2">
    <g id="Event_bg">
      <g id="Events_bg">
        <rect class="cls-1" x="0.99" y="0.99" width="95" height="95" rx="3.5"/>
        <path class="cls-2" d="M92.49,1.49a3,3,0,0,1,3,3v88a3,3,0,0,1-3,3h-88a3,3,0,0,1-3-3v-88a3,3,0,0,1,3-3h88m0-1h-88a4,4,0,0,0-4,4v88a4,4,0,0,0,4,4h88a4,4,0,0,0,4-4v-88a4,4,0,0,0-4-4Z"/>
      </g>
    </g>
    <g id="Act_bg">
      <rect id="Actions_bg" class="cls-3" x="0.5" y="0.5" width="96" height="96" rx="4" transform="translate(97) rotate(90)"/>
    </g>
    <g id="Ev_Buttons">
      <path id="Bg_Thymio" class="cls-4" d="M48.58,7.24A56.88,56.88,0,0,0,8.36,23.77a4.15,4.15,0,0,0-1.2,2.93L7.1,86.53A3.45,3.45,0,0,0,10.55,90l75.88.08a3.45,3.45,0,0,0,3.45-3.45L90,26.78a4.17,4.17,0,0,0-1.19-2.93A56.84,56.84,0,0,0,48.58,7.24Z"/>
      <g id="ButtonsOff">
        <circle id="Btn2_Center" class="cls-5" cx="48.53" cy="48.65" r="8.75"/>
        <g id="Btn2_Forward">
          <path class="cls-6" d="M40.74,31.84c-.55,0-.78-.39-.5-.87L48,17.56a.53.53,0,0,1,1,0L56.73,31c.28.48.05.87-.51.87Z"/>
          <path class="cls-7" d="M40.74,31.84c-.55,0-.78-.39-.5-.87L48,17.56a.53.53,0,0,1,1,0L56.73,31c.28.48.05.87-.51.87Z"/>
        </g>
        <g id="Btn2_Backward">
          <path class="cls-6" d="M40.74,65.45c-.55,0-.78.39-.5.87L48,79.73a.53.53,0,0,0,1,0l7.74-13.41c.28-.48.05-.87-.51-.87Z"/>
          <path class="cls-7" d="M40.74,65.45c-.55,0-.78.39-.5.87L48,79.73a.53.53,0,0,0,1,0l7.74-13.41c.28-.48.05-.87-.51-.87Z"/>
        </g>
        <g id="Btn2_Right">
          <path class="cls-6" d="M65.47,41c0-.55.39-.78.87-.5L79.48,48.1a.53.53,0,0,1,0,1L66.34,56.69c-.48.28-.87.05-.87-.5Z"/>
          <path class="cls-7" d="M65.47,41c0-.55.39-.78.87-.5L79.48,48.1a.53.53,0,0,1,0,1L66.34,56.69c-.48.28-.87.05-.87-.5Z"/>
        </g>
        <g id="Btn2_Left">
          <path class="cls-6" d="M31.59,41c0-.55-.39-.78-.87-.5L17.57,48.1a.53.53,0,0,0,0,1l13.15,7.58c.48.28.87.05.87-.5Z"/>
          <path class="cls-7" d="M31.59,41c0-.55-.39-.78-.87-.5L17.57,48.1a.53.53,0,0,0,0,1l13.15,7.58c.48.28.87.05.87-.5Z"/>
        </g>
      </g>
    </g>
    <g id="Ev_Remote1">
      <g id="RemoteSignal">
        <path class="cls-8" d="M52.15,12.55a1,1,0,0,1-.71-.29,4.15,4.15,0,0,0-5.88,0,1,1,0,1,1-1.42-1.42,6.18,6.18,0,0,1,8.72,0,1,1,0,0,1,0,1.42A1,1,0,0,1,52.15,12.55Z"/>
        <path class="cls-8" d="M54.5,10.2a1,1,0,0,1-.71-.29,7.48,7.48,0,0,0-10.58,0,1,1,0,0,1-1.42,0,1,1,0,0,1,0-1.41,9.49,9.49,0,0,1,13.42,0,1,1,0,0,1,0,1.41A1,1,0,0,1,54.5,10.2Z"/>
      </g>
      <g id="Remote1_buttons">
        <path id="Btn2_Remote1_85" class="cls-5" d="M30.5,52.21a17.87,17.87,0,0,1,3-9.9,2,2,0,0,0-.24-2.53l-7.17-7.17a2,2,0,0,0-3,.19,32,32,0,0,0,0,38.82,2,2,0,0,0,3,.19l7.17-7.17a2,2,0,0,0,.24-2.53A17.87,17.87,0,0,1,30.5,52.21Z"/>
        <path id="Btn2_Remote1_81" class="cls-5" d="M48.5,70.21a17.87,17.87,0,0,1-9.9-3,2,2,0,0,0-2.53.24L28.9,74.64a2,2,0,0,0,.19,3,32,32,0,0,0,38.82,0,2,2,0,0,0,.19-3l-7.17-7.17a2,2,0,0,0-2.53-.24A17.87,17.87,0,0,1,48.5,70.21Z"/>
        <path id="Btn2_Remote1_86" class="cls-5" d="M66.5,52.21a17.87,17.87,0,0,1-3,9.9,2,2,0,0,0,.24,2.53l7.17,7.17a2,2,0,0,0,3-.19,32,32,0,0,0,0-38.82,2,2,0,0,0-3-.19l-7.17,7.17a2,2,0,0,0-.24,2.53A17.87,17.87,0,0,1,66.5,52.21Z"/>
        <path id="Btn2_Remote1_80" class="cls-5" d="M48.5,34.21a17.87,17.87,0,0,1,9.9,3A2,2,0,0,0,60.93,37l7.17-7.17a2,2,0,0,0-.19-3,32,32,0,0,0-38.82,0,2,2,0,0,0-.19,3L36.07,37a2,2,0,0,0,2.53.24A17.87,17.87,0,0,1,48.5,34.21Z"/>
        <circle id="Btn2_Remote1_87" class="cls-5" cx="48.5" cy="52.21" r="12"/>
      </g>
    </g>
    <g id="Ev_Remote2">
      <g id="Remote2_Buttons">
        <rect id="Btn2_Remote2_0" class="cls-5" x="40.5" y="72.42" width="16" height="12"/>
        <path id="Btn2_Remote2_17" class="cls-5" d="M22.5,72.42h10a0,0,0,0,1,0,0v12a0,0,0,0,1,0,0h-10a6,6,0,0,1-6-6v0A6,6,0,0,1,22.5,72.42Z"/>
        <path id="Btn2_Remote2_16" class="cls-5" d="M64.5,72.42h10a6,6,0,0,1,6,6v0a6,6,0,0,1-6,6h-10a0,0,0,0,1,0,0v-12A0,0,0,0,1,64.5,72.42Z"/>
        <path id="Btn2_Remote2_9" class="cls-5" d="M64.5,54.42h10a6,6,0,0,1,6,6v0a6,6,0,0,1-6,6h-10a0,0,0,0,1,0,0v-12A0,0,0,0,1,64.5,54.42Z"/>
        <rect id="Btn2_Remote2_8" class="cls-5" x="40.5" y="54.42" width="16" height="12"/>
        <path id="Btn2_Remote2_7" class="cls-5" d="M22.5,54.42h10a0,0,0,0,1,0,0v12a0,0,0,0,1,0,0h-10a6,6,0,0,1-6-6v0a6,6,0,0,1,6-6Z"/>
        <path id="Btn2_Remote2_6" class="cls-5" d="M64.5,36.42h10a6,6,0,0,1,6,6v0a6,6,0,0,1-6,6h-10a0,0,0,0,1,0,0v-12A0,0,0,0,1,64.5,36.42Z"/>
        <rect id="Btn2_Remote2_5" class="cls-5" x="40.5" y="36.42" width="16" height="12"/>
        <path id="Btn2_Remote2_4" class="cls-5" d="M22.5,36.42h10a0,0,0,0,1,0,0v12a0,0,0,0,1,0,0h-10a6,6,0,0,1-6-6v0a6,6,0,0,1,6-6Z"/>
        <path id="Btn2_Remote2_3" class="cls-5" d="M64.5,18.42h10a6,6,0,0,1,6,6v0a6,6,0,0,1-6,6h-10a0,0,0,0,1,0,0v-12A0,0,0,0,1,64.5,18.42Z"/>
        <rect id="Btn2_Remote2_2" class="cls-5" x="40.5" y="18.42" width="16" height="12"/>
        <path id="Btn2_Remote2_1" class="cls-5" d="M22.5,18.42h10a0,0,0,0,1,0,0v12a0,0,0,0,1,0,0h-10a6,6,0,0,1-6-6v0A6,6,0,0,1,22.5,18.42Z"/>
      </g>
      <g id="RemoteSignal-2" data-name="RemoteSignal">
        <path class="cls-8" d="M52.15,12.75a1,1,0,0,1-.71-.29,4.16,4.16,0,0,0-5.89,0,1,1,0,0,1-1.41-1.41,6.16,6.16,0,0,1,8.72,0,1,1,0,0,1,0,1.41A1,1,0,0,1,52.15,12.75Z"/>
        <path class="cls-8" d="M54.5,10.4a1,1,0,0,1-.71-.29,7.48,7.48,0,0,0-10.58,0,1,1,0,0,1-1.42,0,1,1,0,0,1,0-1.41,9.49,9.49,0,0,1,13.42,0,1,1,0,0,1,0,1.41A1,1,0,0,1,54.5,10.4Z"/>
      </g>
    </g>
    <g id="CircleLeds">
      <path id="Bg_Thymio-2" data-name="Bg_Thymio" class="cls-9" d="M48.54,4.68A60.06,60.06,0,0,0,6,22.16a4.34,4.34,0,0,0-1.27,3.1l-.07,63.3a3.64,3.64,0,0,0,3.65,3.65l80.28.09a3.65,3.65,0,0,0,3.65-3.65l.07-63.3a4.37,4.37,0,0,0-1.26-3.1A60.07,60.07,0,0,0,48.54,4.68Z"/>
      <g id="StatesOff">
        <path id="Btn2_State0" class="cls-5" d="M39.14,17.13a2.7,2.7,0,0,1-.68-5.3,38.21,38.21,0,0,1,20.06,0,2.71,2.71,0,0,1,1.67,1.33,2.69,2.69,0,0,1-2.36,4,2.74,2.74,0,0,1-.7-.09,32.79,32.79,0,0,0-17.29,0A2.74,2.74,0,0,1,39.14,17.13Z"/>
        <path id="Btn2_State1" class="cls-5" d="M79.16,33.71a2.68,2.68,0,0,1-2.33-1.35A32.8,32.8,0,0,0,64.61,20.14a2.69,2.69,0,0,1,2.7-4.66A38.28,38.28,0,0,1,81.49,29.66a2.71,2.71,0,0,1,.25,2.12,2.65,2.65,0,0,1-1.37,1.63A2.55,2.55,0,0,1,79.16,33.71Z"/>
        <path id="Btn2_State2" class="cls-5" d="M82.53,60.51a2.68,2.68,0,0,1-2.6-3.39,32.49,32.49,0,0,0,0-17.28,2.7,2.7,0,0,1,5.21-1.39,37.93,37.93,0,0,1,0,20.06A2.72,2.72,0,0,1,82.53,60.51Z"/>
        <path id="Btn2_State3" class="cls-5" d="M66,81.85a2.69,2.69,0,0,1-1.35-5A32.9,32.9,0,0,0,76.83,64.6a2.7,2.7,0,0,1,4.91.58,2.74,2.74,0,0,1-.25,2.13A38.36,38.36,0,0,1,67.31,81.49,2.78,2.78,0,0,1,66,81.85Z"/>
        <path id="Btn2_State4" class="cls-5" d="M48.49,86.48a37.85,37.85,0,0,1-10-1.35,2.7,2.7,0,0,1,.69-5.3,2.83,2.83,0,0,1,.71.1,32.76,32.76,0,0,0,17.28,0,2.75,2.75,0,0,1,.7-.1,2.7,2.7,0,0,1,.69,5.3A37.77,37.77,0,0,1,48.49,86.48Z"/>
        <path id="Btn2_State5" class="cls-5" d="M31,81.85a2.78,2.78,0,0,1-1.35-.36A38.28,38.28,0,0,1,15.48,67.31a2.71,2.71,0,0,1,1.12-3.76,2.74,2.74,0,0,1,1.22-.29,2.66,2.66,0,0,1,2.32,1.34A32.92,32.92,0,0,0,32.37,76.83a2.69,2.69,0,0,1-1.36,5Z"/>
        <path id="Btn2_State6" class="cls-5" d="M14.44,60.51a2.72,2.72,0,0,1-2.61-2,38.21,38.21,0,0,1,0-20.06,2.72,2.72,0,0,1,2.61-2,2.64,2.64,0,0,1,.84.14A2.67,2.67,0,0,1,17,39.84a32.49,32.49,0,0,0,0,17.28,2.68,2.68,0,0,1-1.76,3.26A2.63,2.63,0,0,1,14.44,60.51Z"/>
        <path id="Btn2_State7" class="cls-5" d="M17.82,33.71a2.75,2.75,0,0,1-1.22-.3,2.63,2.63,0,0,1-1.36-1.63,2.67,2.67,0,0,1,.24-2.12A38.28,38.28,0,0,1,29.66,15.48a2.7,2.7,0,0,1,2.71,4.66A32.9,32.9,0,0,0,20.14,32.36,2.67,2.67,0,0,1,17.82,33.71Z"/>
      </g>
      <g>
        <g id="center">
          <circle class="cls-1" cx="48.49" cy="48.49" r="8.34"/>
        </g>
        <g id="up">
          <path class="cls-1" d="M41.15,33c-.55,0-.78-.39-.51-.87l7.27-12.75a.53.53,0,0,1,1,0L56.32,32c.28.48.06.87-.5.88Z"/>
        </g>
        <g id="down">
          <path class="cls-1" d="M41.15,64c-.55,0-.78.39-.51.87l7.27,12.74a.53.53,0,0,0,1,0L56.32,65c.28-.48.06-.87-.5-.87Z"/>
        </g>
        <g id="right">
          <path class="cls-1" d="M64,41.15c0-.55.38-.78.87-.51l12.74,7.27a.54.54,0,0,1,0,1L65,56.32c-.48.28-.87.06-.87-.5Z"/>
        </g>
        <g id="left">
          <path class="cls-1" d="M33,41.15c0-.55-.39-.78-.87-.51L19.36,47.91a.53.53,0,0,0,0,1L32,56.32c.48.28.87.06.88-.5Z"/>
        </g>
      </g>
    </g>
    <g id="Ev_Start">
      <g id="Bg_Th_Profile-2" data-name="Bg_Th_Profile">
        <path class="cls-10" d="M65.15,80.4c.55.67.6,2.72,1.56,3.72a3.88,3.88,0,0,0,4.82,0c.94-1,1-3.05,1.54-3.72Z"/>
        <rect class="cls-11" x="16.6" y="56.22" width="64" height="24" rx="2"/>
        <path class="cls-12" d="M79.6,75.39v2.77a1,1,0,0,1-1,1h-60a1,1,0,0,1-1-1V75.39Z"/>
        <line class="cls-13" x1="68.6" y1="65.18" x2="73.68" y2="65.18"/>
        <line class="cls-13" x1="78.05" y1="65.18" x2="80.59" y2="65.18"/>
        <circle class="cls-11" cx="34.23" cy="72.43" r="12.83"/>
        <path class="cls-12" d="M42.53,64a11.71,11.71,0,0,1,1.82,6.28,11.85,11.85,0,0,1-20.09,8.53A11.85,11.85,0,1,0,42.53,64Z"/>
      </g>
      <g id="StartIndicator">
        <circle class="cls-14" cx="48.6" cy="30.5" r="18"/>
        <path class="cls-15" d="M45.21,36.86V24.26a.9.9,0,0,1,1.44-.72l8.41,6.3a.9.9,0,0,1,0,1.44l-8.41,6.3A.9.9,0,0,1,45.21,36.86Z"/>
      </g>
    </g>
    <g id="Ev_Clap">
      <g id="Bg_Th_Profile-3" data-name="Bg_Th_Profile">
        <path class="cls-10" d="M65.15,80.4c.55.67.6,2.72,1.56,3.72a3.88,3.88,0,0,0,4.82,0c.94-1,1-3.05,1.54-3.72Z"/>
        <rect class="cls-11" x="16.6" y="56.22" width="64" height="24" rx="2"/>
        <path class="cls-12" d="M79.6,75.39v2.77a1,1,0,0,1-1,1h-60a1,1,0,0,1-1-1V75.39Z"/>
        <line class="cls-13" x1="68.6" y1="65.18" x2="73.68" y2="65.18"/>
        <line class="cls-13" x1="78.05" y1="65.18" x2="80.59" y2="65.18"/>
        <circle class="cls-11" cx="34.23" cy="72.43" r="12.83"/>
        <path class="cls-12" d="M42.53,64a11.71,11.71,0,0,1,1.82,6.28,11.85,11.85,0,0,1-20.09,8.53A11.85,11.85,0,1,0,42.53,64Z"/>
      </g>
      <g id="Bg_ClapHands">
        <g id="fx">
          <line class="cls-16" x1="22.06" y1="31.66" x2="16.06" y2="31.66"/>
          <line class="cls-16" x1="18.87" y1="24.66" x2="24.06" y2="27.66"/>
          <line class="cls-16" x1="18.87" y1="38.66" x2="24.06" y2="35.66"/>
        </g>
        <g id="fx-2" data-name="fx">
          <line class="cls-16" x1="58.88" y1="14.58" x2="58.88" y2="8.58"/>
          <line class="cls-16" x1="65.88" y1="11.39" x2="62.88" y2="16.59"/>
          <line class="cls-16" x1="51.87" y1="11.39" x2="54.87" y2="16.59"/>
        </g>
        <path id="HandBack" class="cls-17" d="M42,48.13,29.39,35.56a2.24,2.24,0,0,1,0-3.44A2.53,2.53,0,0,1,31,31.39a2.35,2.35,0,0,1,1.79.72L42,41.23a.53.53,0,1,0,.75-.76l-9.16-9.11h0l-4.52-4.49a2.32,2.32,0,0,1,.11-3.44,2.22,2.22,0,0,1,3.33,0L46,36.89a.54.54,0,0,0,.76,0,.55.55,0,0,0,0-.76L33.24,22.66l-1.4-1.39a2.37,2.37,0,0,1,0-3.44,2.53,2.53,0,0,1,1.64-.73,2.32,2.32,0,0,1,1.79.73l2.64,2.62h0L50.33,32.8a.54.54,0,1,0,.76-.76L38.67,19.69a2.3,2.3,0,0,1,.11-3.42,2.22,2.22,0,0,1,3.33,0L57.76,31.83s.36.64.89.51.36-.75.36-.75L55.2,24.32a3.29,3.29,0,0,1,1.42-4.52s1-.47,1.36.27l6.16,11.78h0A14.08,14.08,0,0,1,62,48.07s0,0,0,0A14.12,14.12,0,0,1,42,48.13Z"/>
        <g id="HandFront">
          <path id="HandFront-2" data-name="HandFront" class="cls-18" d="M45.58,47.66,32.94,35.08a2.23,2.23,0,0,1,0-3.43,2.44,2.44,0,0,1,1.64-.73,2.35,2.35,0,0,1,1.79.72l9.17,9.11a.53.53,0,0,0,.75,0,.54.54,0,0,0,0-.76l-9.16-9.1h0l-4.52-4.5A2.32,2.32,0,0,1,32.7,23a2.22,2.22,0,0,1,3.33,0L49.59,36.42a.53.53,0,0,0,.75-.76L36.79,22.18l-1.4-1.39a2.35,2.35,0,0,1,0-3.43A2.48,2.48,0,0,1,37,16.63a2.34,2.34,0,0,1,1.79.73L41.45,20h0L53.88,32.32a.53.53,0,1,0,.75-.75L42.21,19.22a2.32,2.32,0,0,1,.11-3.43,2.22,2.22,0,0,1,3.33,0L61.31,31.35s.35.65.88.51.37-.74.36-.75l-3.8-7.27a3.28,3.28,0,0,1,1.42-4.52s1-.47,1.35.28l6.17,11.77h0A14.13,14.13,0,0,1,65.51,47.6s0,0,0,0A14.14,14.14,0,0,1,45.58,47.66Z"/>
          <path id="shadow1" class="cls-19" d="M58.78,50.34a21.28,21.28,0,0,0,4.1-4.67C66.74,40.26,61.23,33.6,61,33.31l-.57-.54L43.94,16.06a1.39,1.39,0,0,1,1,.43L60.52,32a1.73,1.73,0,0,0,1.93.85,1.51,1.51,0,0,0,.93-.7,1.73,1.73,0,0,0,.15-1.26l0-.09,0-.09-3.83-7.31a2.3,2.3,0,0,1,1-3.17l.07,0,6.1,11.65a13.1,13.1,0,0,1-2,15.07l-.09.1A12.87,12.87,0,0,1,58.78,50.34Z"/>
          <path id="shadow2" class="cls-19" d="M52.94,33.66l-15.88-16a1.36,1.36,0,0,1,1,.43L53.3,33.19a2,2,0,0,0,1.08.28C54.42,34,53.54,34,52.94,33.66Z"/>
        </g>
      </g>
    </g>
    <g id="Ev_Acc_Hit">
      <line id="Ground" class="cls-20" x1="8.5" y1="80.5" x2="88.5" y2="80.5"/>
      <g id="Bg_Th_Profile-4" data-name="Bg_Th_Profile">
        <path class="cls-10" d="M65.15,74.56c.55.67.6,2.72,1.56,3.72a3.88,3.88,0,0,0,4.82,0c.94-1,1-3,1.54-3.72Z"/>
        <rect class="cls-11" x="16.6" y="50.38" width="64" height="24" rx="2"/>
        <path class="cls-12" d="M79.6,69.56v2.76a1,1,0,0,1-1,1h-60a1,1,0,0,1-1-1V69.56Z"/>
        <line class="cls-13" x1="68.6" y1="59.35" x2="73.68" y2="59.35"/>
        <line class="cls-13" x1="78.05" y1="59.35" x2="80.59" y2="59.35"/>
        <circle class="cls-11" cx="34.23" cy="66.59" r="12.83"/>
        <path class="cls-12" d="M42.53,58.2a11.71,11.71,0,0,1,1.82,6.28A11.85,11.85,0,0,1,24.26,73,11.85,11.85,0,1,0,42.53,58.2Z"/>
      </g>
      <g id="fx-3" data-name="fx">
        <g id="MotionLinesL">
          <path class="cls-8" d="M14.76,48.34h-6a1,1,0,1,1,0-2h6a1,1,0,0,1,0,2Z"/>
          <path class="cls-8" d="M16.77,44.34a1,1,0,0,1-.5-.13l-5.2-3a1,1,0,1,1,1-1.74l5.2,3a1,1,0,0,1-.5,1.87Z"/>
        </g>
        <g id="MotionLinesR">
          <path class="cls-8" d="M89.81,48.66h-6a1,1,0,0,1,0-2h6a1,1,0,0,1,0,2Z"/>
          <path class="cls-8" d="M81.8,44.66a1,1,0,0,1-.5-1.87l5.2-3a1,1,0,0,1,1.36.37,1,1,0,0,1-.36,1.36l-5.2,3A.9.9,0,0,1,81.8,44.66Z"/>
        </g>
        <path class="cls-8" d="M13.06,76.79a1,1,0,0,1-.75-.35,9,9,0,0,1-1.62-9.74,1,1,0,0,1,1.85.77,7.1,7.1,0,0,0,1.28,7.66,1,1,0,0,1-.1,1.41A1,1,0,0,1,13.06,76.79Z"/>
        <path class="cls-8" d="M82.88,77.94a1,1,0,0,1-.62-1.78,7.11,7.11,0,0,0,2.58-7.32,1,1,0,1,1,2-.43,9,9,0,0,1-3.29,9.32A1,1,0,0,1,82.88,77.94Z"/>
        <path class="cls-8" d="M52.33,45.34a1,1,0,0,1-.93-.63L43,23.42a1,1,0,0,1,1.86-.74L53.26,44a1,1,0,0,1-.56,1.3A1,1,0,0,1,52.33,45.34Z"/>
        <path class="cls-8" d="M47.5,45.66a1,1,0,0,1-.73-.32l-7.49-8A1,1,0,0,1,40.73,36L48.23,44a1,1,0,0,1,0,1.42A1,1,0,0,1,47.5,45.66Z"/>
      </g>
    </g>
    <g id="Ev_Acc_Fall">
      <g id="Hand">
        <path class="cls-18" d="M53,96.5v-.81s-.29-4.82,6.78-9.35c4-2.57,3.86-4.75,2.54-6.07-1.61-1.6-4.42.22-4.42.22s-3,1.77-6.51,4-7.18-1.4-7.18-1.4L31,71.72s-2.59-2.41-4.56-.59a2.69,2.69,0,0,0-.32,3.78s-2.37-2.41-3.86-.52A1.68,1.68,0,0,0,22,76.33l-.13.15a2.9,2.9,0,0,0,.27,4l2.6,2.26c-2.12.9-.75,2.85-.75,2.85S29.27,90,31.59,92a20.33,20.33,0,0,1,3.57,3.52s.14.11.14.19v.84"/>
        <path class="cls-19" d="M24.61,84a1,1,0,0,0,.15,1l7.32,6.13s.12-.25-.22-.82Z"/>
        <path class="cls-19" d="M33.28,88.8c-.12-.09-6.75-5.83-6.75-5.83l-3.71-3.22a2.21,2.21,0,0,1-.65-1.32L33,87.92A1.24,1.24,0,0,1,33.28,88.8Z"/>
        <path class="cls-19" d="M27,74.27a1.61,1.61,0,0,1-.3-1.74l12,10.94s.64,1,.27,1.32C38.83,84.88,27,74.27,27,74.27Z"/>
        <path class="cls-19" d="M35.3,86.84c-.12-.08-12.11-10.55-12.11-10.55a.83.83,0,0,1-.14-1.24,3.13,3.13,0,0,0,.25-.26L35,85.15a1.61,1.61,0,0,1,.53,1.14C35.55,86.74,35.3,86.84,35.3,86.84Z"/>
        <path class="cls-19" d="M48.54,96.5c.53-5.67,5.74-9.08,8.55-10.92,5.08-3.3,4.54-4.6,4.54-4.6a1.58,1.58,0,0,1,.54,1.3c-.06.54-.52,1.69-2.91,3.22-6.57,4.21-7.16,8.8-7.2,10l0,1Z"/>
        <path class="cls-21" d="M34.52,87.48,22.68,77.19a1.92,1.92,0,0,1-.38-2.8c1.52-1.87,3.86.52,3.86.52l12,10.48"/>
        <line class="cls-21" x1="22.13" y1="80.46" x2="32.51" y2="89.46"/>
      </g>
      <g id="fx-4" data-name="fx">
        <path class="cls-8" d="M42,17.33a1,1,0,0,1-1-1V5.22a1,1,0,1,1,2,0V16.33A1,1,0,0,1,42,17.33Z"/>
        <path class="cls-8" d="M21.17,27.77a1,1,0,0,1-1-1V14.68a1,1,0,0,1,2,0V26.77A1,1,0,0,1,21.17,27.77Z"/>
        <path class="cls-8" d="M36,14.51a1,1,0,0,1-1-1V7.87a1,1,0,1,1,2,0v5.64A1,1,0,0,1,36,14.51Z"/>
      </g>
      <g id="Bg_Th_Profile-5" data-name="Bg_Th_Profile">
        <path class="cls-10" d="M51.24,61.5c-.07.76-1.31,2.06-1.33,3.27a2.77,2.77,0,0,0,1,2,2.85,2.85,0,0,0,2,1c1.21,0,2.5-1.27,3.25-1.35Z"/>
        <rect class="cls-11" x="20.54" y="33.23" width="56" height="21" rx="2" transform="translate(45.14 -21.52) rotate(45)"/>
        <path class="cls-12" d="M63.17,67.25,61.47,69a.87.87,0,0,1-1.23,0L23.32,32a.87.87,0,0,1,0-1.23L25,29.1Z"/>
        <line class="cls-13" x1="62.79" y1="54.23" x2="65.94" y2="57.37"/>
        <line class="cls-13" x1="68.64" y1="60.07" x2="70.21" y2="61.64"/>
        <circle class="cls-11" cx="37.04" cy="37.44" r="11.22" transform="translate(-15.63 37.16) rotate(-45)"/>
        <path class="cls-12" d="M47.24,37.27a10.21,10.21,0,0,1-20.17-2.1,10.22,10.22,0,1,0,20.17,2.1Z"/>
      </g>
    </g>
    <g id="Ev_Accel">
      <g id="Rot360Rail">
        <circle id="Rot360_Center" class="cls-22" cx="48.5" cy="48.48" r="39.86"/>
        <g id="Angles">
          <g>
            <circle class="cls-23" cx="88.36" cy="48.57" r="2"/>
            <circle class="cls-23" cx="8.64" cy="48.57" r="2"/>
          </g>
          <g>
            <circle class="cls-23" cx="83.02" cy="28.63" r="2"/>
            <circle class="cls-23" cx="13.98" cy="68.5" r="2"/>
          </g>
          <g>
            <circle class="cls-23" cx="68.43" cy="14.04" r="2"/>
            <circle class="cls-23" cx="28.57" cy="83.09" r="2"/>
          </g>
          <g>
            <circle class="cls-23" cx="48.5" cy="8.7" r="2"/>
            <circle class="cls-23" cx="48.5" cy="88.43" r="2"/>
          </g>
          <g>
            <circle class="cls-23" cx="28.57" cy="14.04" r="2"/>
            <circle class="cls-23" cx="68.43" cy="83.09" r="2"/>
          </g>
          <g>
            <circle class="cls-23" cx="13.98" cy="28.63" r="2"/>
            <circle class="cls-23" cx="83.02" cy="68.5" r="2"/>
          </g>
        </g>
      </g>
      <g id="Rot360">
        <circle id="RotationPivot" class="cls-24" cx="48.5" cy="48.48" r="3"/>
        <g id="ThymioAcc0">
          <path class="cls-10" d="M65.05,60.67c.55.67.6,2.72,1.55,3.72a3.25,3.25,0,0,0,2.42.85,3.3,3.3,0,0,0,2.41-.85c.94-1,1-3,1.54-3.72Z"/>
          <rect class="cls-11" x="16.5" y="36.49" width="64" height="24" rx="2"/>
          <path class="cls-12" d="M79.5,55.67v2.76a1,1,0,0,1-1,1h-60a1,1,0,0,1-1-1V55.67Z"/>
          <line class="cls-13" x1="68.5" y1="45.46" x2="73.58" y2="45.46"/>
          <line class="cls-13" x1="77.95" y1="45.46" x2="80.49" y2="45.46"/>
          <circle class="cls-11" cx="34.13" cy="52.7" r="12.83"/>
          <path class="cls-12" d="M42.43,44.31a11.72,11.72,0,0,1,1.82,6.29,11.85,11.85,0,0,1-20.09,8.53A11.85,11.85,0,1,0,42.43,44.31Z"/>
        </g>
        <g id="ThymioAcc1">
          <path class="cls-10" d="M78.83,60.48V63a1,1,0,0,1-1,1H71.27a1,1,0,0,1-1-1V60.48Z"/>
          <path class="cls-10" d="M26.87,60.48V63a1,1,0,0,1-1,1H19.31a1,1,0,0,1-1-1V60.48Z"/>
          <rect class="cls-11" x="16.5" y="36.48" width="64" height="24" rx="2"/>
          <line class="cls-20" x1="59.77" y1="47.8" x2="65.77" y2="47.8"/>
          <line class="cls-20" x1="72.78" y1="47.8" x2="77.56" y2="47.8"/>
          <line class="cls-20" x1="37.23" y1="47.8" x2="31.23" y2="47.8"/>
          <line class="cls-20" x1="24.22" y1="47.8" x2="19.44" y2="47.8"/>
          <path class="cls-10" d="M44.54,60.48c.55.53.6,2.12,1.56,2.89a3.87,3.87,0,0,0,2.41.66,3.93,3.93,0,0,0,2.41-.66c.94-.78,1-2.37,1.54-2.89Z"/>
          <line class="cls-20" x1="44.86" y1="47.8" x2="52.01" y2="47.8"/>
          <path class="cls-12" d="M79.5,55.58v3.18a.9.9,0,0,1-.9.9H18.4a.9.9,0,0,1-.9-.9V55.58Z"/>
        </g>
        <g id="ThymioAcc2">
          <path class="cls-11" d="M48.21,72.51a32.94,32.94,0,0,0,23.32-9.58,2.39,2.39,0,0,0,.69-1.7l0-34.69a2,2,0,0,0-2-2l-44,0a2,2,0,0,0-2,2l0,34.69a2.39,2.39,0,0,0,.69,1.7A33,33,0,0,0,48.21,72.51Z"/>
          <path class="cls-25" d="M28.23,49.45h-2a1,1,0,0,1,0-2h2a1,1,0,0,0,.28,0,1,1,0,0,1,1.25.68,1,1,0,0,1-.68,1.24A3,3,0,0,1,28.23,49.45Zm2-3.42a1,1,0,0,1-1-1V43a1,1,0,0,1,2,0v2A1,1,0,0,1,30.22,46Zm0-6a1,1,0,0,1-1-1V37a1,1,0,0,1,2,0v2A1,1,0,0,1,30.22,40Zm0-6a1,1,0,0,1-1-1V31a1,1,0,0,1,2,0v2A1,1,0,0,1,30.22,34Zm-4.28-4.56a1,1,0,0,1-.14-2,3,3,0,0,1,.42,0h1.72a1,1,0,0,1,0,2h-2Z"/>
          <path class="cls-12" d="M70.4,25.56H68.94v34a2.3,2.3,0,0,1-.66,1.63A31.74,31.74,0,0,1,31.68,67a31.75,31.75,0,0,0,38.9-4.58,2.3,2.3,0,0,0,.66-1.63V26.4A.84.84,0,0,0,70.4,25.56Z"/>
          <path class="cls-25" d="M70.26,49.45h-2a1,1,0,0,1,0-2h2a1,1,0,0,0,.28,0,1,1,0,1,1,.56,1.92A2.94,2.94,0,0,1,70.26,49.45Zm-4-2.85a1,1,0,0,1-1-1v-2a1,1,0,0,1,2,0v2A1,1,0,0,1,66.26,46.6Zm0-6a1,1,0,0,1-1-1v-2a1,1,0,0,1,2,0v2A1,1,0,0,1,66.26,40.6Zm0-6a1,1,0,0,1-1-1v-2a1,1,0,0,1,2,0v2A1,1,0,0,1,66.26,34.6ZM68,29.47a1,1,0,0,1-1-.85,1,1,0,0,1,.85-1.14,3.11,3.11,0,0,1,.43,0H70a1,1,0,0,1,0,2H68Z"/>
          <g>
            <circle id="center-2" data-name="center" class="cls-26" cx="48.24" cy="59.43" r="2.54"/>
            <path id="up-2" data-name="up" class="cls-26" d="M46.48,54.7c-.43,0-.61-.3-.4-.67L47.83,51a.41.41,0,0,1,.78,0l1.78,3c.22.37,0,.67-.38.67Z"/>
            <path id="down-2" data-name="down" class="cls-26" d="M46.48,64.16c-.43,0-.61.3-.4.67l1.75,3.07c.21.37.56.37.78,0l1.78-3.05c.22-.37,0-.67-.38-.67Z"/>
            <path id="right-2" data-name="right" class="cls-26" d="M53,57.67c0-.43.3-.61.67-.4L56.71,59c.37.21.37.56,0,.78l-3.05,1.78c-.37.22-.67,0-.67-.38Z"/>
            <path id="left-2" data-name="left" class="cls-26" d="M43.51,57.67c0-.43-.3-.61-.67-.4L39.77,59c-.37.21-.37.56,0,.78l3,1.78c.37.22.67,0,.67-.38Z"/>
          </g>
        </g>
        <g id="Rot360_Handle">
          <line class="cls-27" x1="48.5" y1="45.48" x2="48.5" y2="8.62"/>
          <circle id="RotationCenter" class="cls-28" cx="48.5" cy="48.48" r="3"/>
          <circle id="Btn2_HandleAcc0" class="cls-28" cx="48.5" cy="8.62" r="5"/>
        </g>
      </g>
    </g>
    <g id="Ev_ProxH_bas">
      <g id="ProxZones">
        <path id="Btn3_ProxLeft" class="cls-29" d="M12,21.55a1.26,1.26,0,0,1-.39-.88,1.21,1.21,0,0,1,.38-.89A45.89,45.89,0,0,1,31.53,8.52a1.41,1.41,0,0,1,.35,0,1.2,1.2,0,0,1,1.17.88l4.7,16.23a34.38,34.38,0,0,0-12.57,8.14Z"/>
        <path id="Btn3_ProxFront" class="cls-29" d="M36,8.58a1.13,1.13,0,0,1,.13-.93A1.21,1.21,0,0,1,37,7.1a60.13,60.13,0,0,1,22.69,0,1.17,1.17,0,0,1,.81.55,1.13,1.13,0,0,1,.14.93L55.82,24.77a33.4,33.4,0,0,0-15.06,0Z"/>
        <path id="Btn3_ProxRight" class="cls-29" d="M84.56,21.55a1.18,1.18,0,0,0,.39-.88,1.2,1.2,0,0,0-.37-.89A45.86,45.86,0,0,0,65.05,8.52a1.33,1.33,0,0,0-.34,0,1.22,1.22,0,0,0-1.18.88l-4.7,16.23a34.33,34.33,0,0,1,12.58,8.14Z"/>
        <path id="Btn3_ProxBack" class="cls-29" d="M59.81,72.6l4.76,16.74a1.16,1.16,0,0,1-.13,1,1.25,1.25,0,0,1-.81.57A106.84,106.84,0,0,1,48.29,92a107.85,107.85,0,0,1-15.42-1.11,1.27,1.27,0,0,1-.82-.57,1.16,1.16,0,0,1-.13-1L36.68,72.6Z"/>
      </g>
      <g id="Bg_Thymio_top">
        <path class="cls-11" d="M48.32,27.26a29,29,0,0,0-20.48,8.42,2.1,2.1,0,0,0-.6,1.49l0,30.46A1.76,1.76,0,0,0,29,69.39l38.63,0a1.75,1.75,0,0,0,1.76-1.75l0-30.47a2.12,2.12,0,0,0-.6-1.49A28.93,28.93,0,0,0,48.32,27.26Z"/>
        <g>
          <circle class="cls-30" cx="48.29" cy="59.04" r="2.63"/>
          <path class="cls-12" d="M49,57.57a1.72,1.72,0,0,1,.18.74A1.66,1.66,0,0,1,47.54,60a1.54,1.54,0,0,1-.68-.15A1.66,1.66,0,1,0,49,57.57Z"/>
        </g>
      </g>
    </g>
    <g id="Ev_ProxH_Front_med">
      <g id="ProxSignals">
        <g id="Prox2_signal">
          <path id="IR_signal" class="cls-31" d="M50.43,42.71l1.74-18.6a24.34,24.34,0,0,0-7.23,0l1.74,18.6A21.35,21.35,0,0,1,50.43,42.71Z"/>
          <path id="reflection" class="cls-31" d="M45.05,24.84,42.93,45.65a52,52,0,0,0,11.15,0L52,24.84Z"/>
        </g>
        <g id="Prox1_signal">
          <path id="IR_signal-2" data-name="IR_signal" class="cls-31" d="M40,43.87l-4.4-18.15a24.32,24.32,0,0,0-6.84,2.35l7.71,17A23,23,0,0,1,40,43.87Z"/>
          <path id="reflection-2" data-name="reflection" class="cls-31" d="M29.09,28.73l4.77,20.36a51.6,51.6,0,0,0,10.55-3.63l-8.73-19Z"/>
        </g>
        <g id="Prox0_signal">
          <path id="IR_signal-3" data-name="IR_signal" class="cls-31" d="M30.6,48.58,20.53,32.86a24.14,24.14,0,0,0-5.7,4.45L27.66,50.89A21.82,21.82,0,0,1,30.6,48.58Z"/>
          <path id="reflection-3" data-name="reflection" class="cls-31" d="M15.37,37.82l11.14,17.7a51.73,51.73,0,0,0,8.79-6.87L20.86,33.53Z"/>
        </g>
        <g id="Prox3_signal">
          <path id="IR_signal-4" data-name="IR_signal" class="cls-31" d="M57,43.87l4.4-18.15a24.32,24.32,0,0,1,6.84,2.35l-7.7,17A23.5,23.5,0,0,0,57,43.87Z"/>
          <path id="reflection-4" data-name="reflection" class="cls-31" d="M67.92,28.73,63.15,49.09A51.81,51.81,0,0,1,52.6,45.46l8.73-19Z"/>
        </g>
        <g id="Prox4_signal">
          <path id="IR_signal-5" data-name="IR_signal" class="cls-31" d="M66.41,48.58,76.48,32.86a24.14,24.14,0,0,1,5.7,4.45L69.36,50.89A22.56,22.56,0,0,0,66.41,48.58Z"/>
          <path id="reflection-5" data-name="reflection" class="cls-31" d="M81.65,37.82,70.51,55.52a51.81,51.81,0,0,1-8.8-6.87L76.15,33.53Z"/>
        </g>
      </g>
      <g id="Bg_Thymio_top-2" data-name="Bg_Thymio_top">
        <path class="cls-10" d="M48.55,42.66a30.8,30.8,0,0,0-21.8,9,2.26,2.26,0,0,0-.65,1.59l0,32.44a1.87,1.87,0,0,0,1.87,1.87l41.14,0a1.87,1.87,0,0,0,1.87-1.87l0-32.43a2.22,2.22,0,0,0-.65-1.59A30.78,30.78,0,0,0,48.55,42.66Z"/>
        <g>
          <circle class="cls-30" cx="48.52" cy="76.5" r="2.8"/>
          <path class="cls-12" d="M49.29,74.94a1.7,1.7,0,0,1,.2.78A1.77,1.77,0,0,1,47,77.33a1.76,1.76,0,0,0,3.35-.78A1.75,1.75,0,0,0,49.29,74.94Z"/>
        </g>
      </g>
      <g id="ProxLed">
        <line id="Btn3_LedProx4" class="cls-32" x1="63.91" y1="50.7" x2="68.09" y2="53.96"/>
        <line id="Btn3_LedProx3" class="cls-32" x1="55.14" y1="46.7" x2="60.18" y2="48.34"/>
        <line id="Btn3_LedProx2" class="cls-32" x1="45.87" y1="45.95" x2="51.17" y2="45.95"/>
        <line id="Btn3_LedProx1" class="cls-32" x1="41.9" y1="46.7" x2="36.86" y2="48.34"/>
        <line id="Btn3_LedProx0" class="cls-32" x1="33.14" y1="50.7" x2="28.96" y2="53.96"/>
      </g>
      <g id="ProxOff-2" data-name="ProxOff">
        <rect id="Btn3_Prox2" class="cls-33" x="42.93" y="12.69" width="11.15" height="11.15"/>
        <rect id="Btn3_Prox0" class="cls-33" x="8.54" y="24.72" width="11.25" height="11.25" transform="translate(-15.68 15.16) rotate(-38)"/>
        <rect id="Btn3_Prox1" class="cls-33" x="24.64" y="16.04" width="10.96" height="10.95" transform="translate(-5.36 10.98) rotate(-19)"/>
        <rect id="Btn3_Prox4" class="cls-33" x="77.22" y="24.72" width="11.25" height="11.25" transform="translate(7.93 76.95) rotate(-52)"/>
        <rect id="Btn3_Prox3" class="cls-33" x="61.41" y="16.04" width="10.95" height="10.96" transform="translate(24.77 77.76) rotate(-71)"/>
      </g>
    </g>
    <g id="ColorTop_basic">
      <g id="ColorPalette">
        <rect id="Btn2_Green" class="cls-34" x="12.5" y="8.56" width="17.96" height="17.96"/>
        <rect id="Btn2_Blue" class="cls-35" x="30.46" y="8.56" width="17.96" height="17.96"/>
        <rect id="Btn2_Red" class="cls-36" x="48.43" y="8.56" width="17.96" height="17.96"/>
        <rect id="Btn2_Yellow" class="cls-37" x="12.5" y="26.53" width="17.96" height="17.96"/>
        <rect id="Btn2_Cyan" class="cls-38" x="48.43" y="26.53" width="17.96" height="17.96"/>
        <rect id="Btn2_Magenta" class="cls-39" x="30.46" y="26.53" width="17.96" height="17.96"/>
        <g id="Btn2_NoColor">
          <rect class="cls-26" x="66.39" y="26.53" width="17.96" height="17.96"/>
          <polygon class="cls-40" points="67.8 44.49 66.39 44.49 66.39 43.08 82.94 26.53 84.35 26.52 84.35 27.94 67.8 44.49"/>
        </g>
        <rect id="Btn2_White_Select" class="cls-23" x="66.39" y="8.56" width="17.96" height="17.96"/>
      </g>
      <g id="Bg_Thymio_front_color">
        <path class="cls-41" d="M86.41,84.44v3.17a1.28,1.28,0,0,1-1.28,1.28H77a1.28,1.28,0,0,1-1.28-1.28V84.45Z"/>
        <path class="cls-41" d="M21.46,84.44v3.17a1.27,1.27,0,0,1-1.27,1.28H12a1.28,1.28,0,0,1-1.28-1.28V84.45Z"/>
        <rect class="cls-10" x="8.5" y="54.45" width="80" height="30" rx="2"/>
        <line class="cls-20" x1="62.58" y1="68.59" x2="70.09" y2="68.59"/>
        <line class="cls-20" x1="78.85" y1="68.59" x2="84.82" y2="68.59"/>
        <line class="cls-20" x1="34.42" y1="68.59" x2="26.91" y2="68.59"/>
        <line class="cls-20" x1="18.15" y1="68.59" x2="12.18" y2="68.59"/>
        <path class="cls-41" d="M43.55,84.45c.69.65.75,2.64,2,3.61a4.82,4.82,0,0,0,3,.82,5,5,0,0,0,3-.82c1.17-1,1.23-3,1.92-3.61Z"/>
        <line class="cls-20" x1="43.95" y1="68.59" x2="52.88" y2="68.59"/>
      </g>
      <rect id="Gradient_Top" class="cls-42" x="9.49" y="55.45" width="77.99" height="12.09" rx="0.75"/>
      <g id="SelectedColors">
        <rect id="Btn2_SelectedWhite" class="cls-24" x="66.39" y="8.56" width="17.96" height="17.97"/>
        <rect id="Btn2_SelectedRed" class="cls-24" x="48.43" y="8.56" width="17.96" height="17.97"/>
        <rect id="Btn2_SelectedBlue" class="cls-24" x="30.46" y="8.56" width="17.96" height="17.97"/>
        <rect id="Btn2_SelectedGreen" class="cls-24" x="12.5" y="8.56" width="17.96" height="17.97"/>
        <rect id="Btn2_SelectedNone" class="cls-24" x="66.39" y="26.53" width="17.96" height="17.97"/>
        <rect id="Btn2_SelectedYel" class="cls-24" x="48.43" y="26.53" width="17.96" height="17.97"/>
        <rect id="Btn2_SelectedMagenta" class="cls-24" x="30.46" y="26.53" width="17.96" height="17.97"/>
        <rect id="Btn2_SelectedCyan" class="cls-24" x="12.5" y="26.53" width="17.96" height="17.97"/>
      </g>
    </g>
    <g id="ColorBottom_basic">
      <g id="ColorPalette-2" data-name="ColorPalette">
        <rect id="Btn2_Green-2" data-name="Btn2_Green" class="cls-34" x="12.5" y="52.57" width="17.96" height="17.96"/>
        <rect id="Btn2_Blue-2" data-name="Btn2_Blue" class="cls-35" x="30.46" y="52.57" width="17.96" height="17.96"/>
        <rect id="Btn2_Red-2" data-name="Btn2_Red" class="cls-36" x="48.43" y="52.57" width="17.96" height="17.96"/>
        <rect id="Btn2_Yellow-2" data-name="Btn2_Yellow" class="cls-43" x="12.5" y="70.53" width="17.96" height="17.96"/>
        <rect id="Btn2_Cyan-2" data-name="Btn2_Cyan" class="cls-38" x="48.43" y="70.53" width="17.96" height="17.96"/>
        <rect id="Btn2_Magenta-2" data-name="Btn2_Magenta" class="cls-39" x="30.46" y="70.53" width="17.96" height="17.96"/>
        <g id="Btn2_NoColor-2" data-name="Btn2_NoColor">
          <rect class="cls-26" x="66.39" y="70.53" width="17.96" height="17.96"/>
          <polygon class="cls-40" points="67.8 88.5 66.39 88.5 66.39 87.08 82.94 70.53 84.35 70.53 84.35 71.95 67.8 88.5"/>
        </g>
        <rect id="Btn2_White_Select-2" data-name="Btn2_White_Select" class="cls-23" x="66.39" y="52.57" width="17.96" height="17.96"/>
      </g>
      <g id="Bg_Thymio_front_color-2" data-name="Bg_Thymio_front_color">
        <path class="cls-41" d="M86.41,39.41v3.18a1.27,1.27,0,0,1-1.28,1.27H77a1.28,1.28,0,0,1-1.28-1.27V39.42Z"/>
        <path class="cls-41" d="M21.46,39.41v3.18a1.27,1.27,0,0,1-1.27,1.27H12a1.27,1.27,0,0,1-1.28-1.27V39.42Z"/>
        <rect class="cls-10" x="8.5" y="9.42" width="80" height="30" rx="2"/>
        <line class="cls-20" x1="62.58" y1="23.57" x2="70.09" y2="23.57"/>
        <line class="cls-20" x1="78.85" y1="23.57" x2="84.82" y2="23.57"/>
        <line class="cls-20" x1="34.42" y1="23.57" x2="26.91" y2="23.57"/>
        <line class="cls-20" x1="18.15" y1="23.57" x2="12.18" y2="23.57"/>
        <path class="cls-41" d="M43.55,39.42c.69.65.75,2.65,2,3.61a4.86,4.86,0,0,0,3,.83,5,5,0,0,0,3-.83c1.17-1,1.23-3,1.92-3.61Z"/>
        <line class="cls-20" x1="43.95" y1="23.57" x2="52.88" y2="23.57"/>
      </g>
      <rect id="Gradient_Bottom" class="cls-44" x="9.48" y="24.59" width="78.04" height="13.9" rx="1"/>
      <g id="SelectedColors-2" data-name="SelectedColors">
        <rect id="Btn2_SelectedWhite-2" data-name="Btn2_SelectedWhite" class="cls-24" x="66.46" y="52.56" width="17.96" height="17.97"/>
        <rect id="Btn2_SelectedRed-2" data-name="Btn2_SelectedRed" class="cls-24" x="48.5" y="52.56" width="17.96" height="17.97"/>
        <rect id="Btn2_SelectedBlue-2" data-name="Btn2_SelectedBlue" class="cls-24" x="30.54" y="52.56" width="17.96" height="17.97"/>
        <rect id="Btn2_SelectedGreen-2" data-name="Btn2_SelectedGreen" class="cls-24" x="12.57" y="52.56" width="17.96" height="17.97"/>
        <rect id="Btn2_SelectedNone-2" data-name="Btn2_SelectedNone" class="cls-24" x="66.46" y="70.53" width="17.96" height="17.97"/>
        <rect id="Btn2_SelectedYel-2" data-name="Btn2_SelectedYel" class="cls-24" x="48.5" y="70.53" width="17.96" height="17.97"/>
        <rect id="Btn2_SelectedMagenta-2" data-name="Btn2_SelectedMagenta" class="cls-24" x="30.54" y="70.53" width="17.96" height="17.97"/>
        <rect id="Btn2_SelectedCyan-2" data-name="Btn2_SelectedCyan" class="cls-24" x="12.57" y="70.53" width="17.96" height="17.97"/>
      </g>
    </g>
    <g id="Ac_Directions">
      <g id="DirectionArrows">
        <polygon id="Btn2_FwdDir" class="cls-5" points="44.55 25.92 44.55 16.28 40.84 16.28 48.55 2.92 56.27 16.28 52.55 16.28 52.55 25.92 44.55 25.92"/>
        <path id="Btn2_FwdRightDir" class="cls-5" d="M60.49,27.61l.45-.68a28.22,28.22,0,0,1,6.87-7.21l-2-3.31,15.43-.14L73.69,29.7l-1.78-3A20.2,20.2,0,0,0,67,32.34l-.65,1.12Z"/>
        <path id="Btn2_BwdRightDir" class="cls-5" d="M65.86,80.22l2-3.32a28.34,28.34,0,0,1-6.87-7.2L60.49,69l5.85-5.86L67,64.29A20.3,20.3,0,0,0,71.91,70l1.78-3,7.6,13.44Z"/>
        <polygon id="Btn2_BwdDir" class="cls-5" points="40.84 80.34 44.55 80.34 44.55 70.71 52.55 70.71 52.55 80.34 56.27 80.34 48.55 93.71 40.84 80.34"/>
        <path id="Btn2_BwdLeftDir" class="cls-5" d="M23.41,66.92l1.78,3a20.3,20.3,0,0,0,4.92-5.66l.65-1.13L36.61,69l-.45.68a28,28,0,0,1-6.87,7.2l1.95,3.32-15.43.14Z"/>
        <path id="Btn2_FwdLeftDir" class="cls-5" d="M30.11,32.34a20.2,20.2,0,0,0-4.92-5.67l-1.78,3-7.6-13.43,15.43.14-1.95,3.31a27.89,27.89,0,0,1,6.87,7.21l.45.68-5.85,5.85Z"/>
        <g id="Stop">
          <circle id="Btn2_StopDir" class="cls-5" cx="48.56" cy="48.33" r="9"/>
          <rect id="StopSign" class="cls-40" x="44.49" y="44.49" width="8" height="8"/>
        </g>
        <path id="Btn2_LeftDir" class="cls-5" d="M30.56,54.86l-13.82-8v4h-.57a4.16,4.16,0,1,1,2.73-7.28l5.26-6a12.15,12.15,0,1,0-8,21.31h.57v4Z"/>
        <path id="Btn2_RightDir" class="cls-5" d="M66.3,54.86l13.82-8v4h.57A4.16,4.16,0,1,0,78,43.58l-5.26-6a12.15,12.15,0,1,1,8,21.31h-.57v4Z"/>
      </g>
    </g>
    <g id="Ac_Wheels">
      <g id="Sliders">
        <g id="Slid_right">
          <g id="sliderBg_R">
            <line id="SliderR_range" class="cls-24" x1="80.55" y1="19.51" x2="80.55" y2="77.51"/>
            <line class="cls-45" x1="80.55" y1="13.53" x2="80.55" y2="83.49"/>
            <polygon class="cls-46" points="77.06 13.53 80.55 7.48 84.04 13.53 77.06 13.53"/>
            <polygon class="cls-46" points="77.06 83.49 80.55 89.53 84.04 83.49 77.06 83.49"/>
          </g>
          <g id="Cursor_right">
            <circle id="CursorRight" class="cls-47" cx="80.55" cy="48.51" r="6"/>
            <circle id="SameSpeed_R" class="cls-15" cx="80.55" cy="48.51" r="2"/>
          </g>
          <rect id="StopIndicator_R" class="cls-40" x="78.47" y="46.37" width="4.27" height="4.27"/>
        </g>
        <g id="Slid_left">
          <g id="sliderBg_L">
            <line id="SliderL_range" class="cls-24" x1="16.7" y1="19.51" x2="16.7" y2="77.51"/>
            <line class="cls-45" x1="16.7" y1="13.53" x2="16.7" y2="83.49"/>
            <polygon class="cls-46" points="13.23 13.53 16.72 7.48 20.21 13.53 13.23 13.53"/>
            <polygon class="cls-46" points="13.21 83.49 16.7 89.53 20.19 83.49 13.21 83.49"/>
          </g>
          <g id="Cursor_left">
            <circle id="CursorLeft" class="cls-47" cx="16.7" cy="48.51" r="6"/>
            <circle id="SameSpeed_L" class="cls-15" cx="16.7" cy="48.51" r="2"/>
          </g>
          <rect id="StopIndicator_L" class="cls-40" x="14.62" y="46.37" width="4.27" height="4.27"/>
        </g>
      </g>
      <g id="ThymioTop_wheels_mini">
        <path class="cls-11" d="M48.51,35.73a12.38,12.38,0,0,0-8.74,3.59.9.9,0,0,0-.26.64V53a.76.76,0,0,0,.75.75H56.74a.74.74,0,0,0,.75-.74V40a.9.9,0,0,0-.26-.64A12.31,12.31,0,0,0,48.51,35.73Z"/>
        <g>
          <rect class="cls-48" x="54.57" y="44.74" width="2.93" height="7.49" rx="1.12"/>
          <path class="cls-15" d="M56.38,52.74H55.7a1.5,1.5,0,0,1-.52-.09.5.5,0,1,1,.32-.94.64.64,0,0,0,.2,0h.68a.5.5,0,0,1,.5.5A.5.5,0,0,1,56.38,52.74Zm1.12-1.47a.5.5,0,0,1-.5-.5V49.72a.5.5,0,0,1,1,0v1.05A.5.5,0,0,1,57.5,51.27Zm-2.93-.35a.51.51,0,0,1-.5-.5V49.37a.5.5,0,0,1,.5-.5.5.5,0,0,1,.5.5v1.05A.5.5,0,0,1,54.57,50.92Zm2.93-2.8a.5.5,0,0,1-.5-.5v-1a.5.5,0,1,1,1,0v1A.5.5,0,0,1,57.5,48.12Zm-2.93-.35a.51.51,0,0,1-.5-.5V46.22a.5.5,0,0,1,.5-.5.5.5,0,0,1,.5.5v1.05A.5.5,0,0,1,54.57,47.77Zm2.17-2.47a.44.44,0,0,1-.16,0,.71.71,0,0,0-.2,0H55.7a.5.5,0,0,1,0-1h.7a1.54,1.54,0,0,1,.52.09.51.51,0,0,1,.31.64A.5.5,0,0,1,56.74,45.3Z"/>
        </g>
        <g>
          <rect class="cls-48" x="39.5" y="44.74" width="2.93" height="7.49" rx="1.12"/>
          <path class="cls-15" d="M41.31,52.74h-.69a1.48,1.48,0,0,1-.51-.09.49.49,0,0,1-.32-.63.51.51,0,0,1,.64-.31.63.63,0,0,0,.19,0h.68a.5.5,0,0,1,.51.5A.5.5,0,0,1,41.31,52.74Zm1.12-1.47a.5.5,0,0,1-.5-.5V49.72a.5.5,0,0,1,.5-.5.51.51,0,0,1,.5.5v1.05A.5.5,0,0,1,42.43,51.27Zm-2.93-.35a.5.5,0,0,1-.5-.5V49.37a.5.5,0,0,1,1,0v1.05A.5.5,0,0,1,39.5,50.92Zm2.93-2.8a.5.5,0,0,1-.5-.5v-1a.5.5,0,0,1,.5-.5.51.51,0,0,1,.5.5v1A.5.5,0,0,1,42.43,48.12Zm-2.93-.35a.5.5,0,0,1-.5-.5V46.22a.5.5,0,0,1,1,0v1.05A.5.5,0,0,1,39.5,47.77Zm2.17-2.47a.41.41,0,0,1-.16,0,.78.78,0,0,0-.21,0h-.68a.5.5,0,1,1,.06-1h.62a1.6,1.6,0,0,1,.53.09.51.51,0,0,1,.31.64A.5.5,0,0,1,41.67,45.3Z"/>
        </g>
      </g>
    </g>
    <g id="Color_top_adv">
      <g id="Bg_Thymio_front_color-3" data-name="Bg_Thymio_front_color">
        <path class="cls-41" d="M78.83,86.8v2.53a1,1,0,0,1-1,1H71.27a1,1,0,0,1-1-1V86.8Z"/>
        <path class="cls-41" d="M26.87,86.8v2.53a1,1,0,0,1-1,1H19.31a1,1,0,0,1-1-1V86.8Z"/>
        <rect class="cls-10" x="16.5" y="62.8" width="64" height="24" rx="2"/>
        <line class="cls-20" x1="59.77" y1="74.12" x2="65.77" y2="74.12"/>
        <line class="cls-20" x1="72.78" y1="74.12" x2="77.56" y2="74.12"/>
        <line class="cls-20" x1="37.23" y1="74.12" x2="31.23" y2="74.12"/>
        <line class="cls-20" x1="24.22" y1="74.12" x2="19.44" y2="74.12"/>
        <path class="cls-41" d="M44.54,86.8c.55.52.6,2.12,1.56,2.89a3.87,3.87,0,0,0,2.41.66,3.93,3.93,0,0,0,2.41-.66c.94-.78,1-2.37,1.54-2.89Z"/>
        <line class="cls-20" x1="44.86" y1="74.12" x2="52.01" y2="74.12"/>
      </g>
      <rect id="Gradient_top" data-name="gradient_top" class="cls-49" x="17.61" y="63.86" width="61.76" height="9.03" rx="0.75"/>
      <g id="Sliders_rgb">
        <g id="Slid_blue">
          <line id="Bg_slid_blue" class="cls-50" x1="20.5" y1="48.54" x2="76.5" y2="48.54"/>
          <line id="Slid_blue_value" class="cls-51" x1="20.5" y1="48.54" x2="76.5" y2="48.54"/>
          <circle id="Cursor_blue" class="cls-52" cx="48.5" cy="48.5" r="5"/>
        </g>
        <g id="Slid_green">
          <line id="Bg_slid_green" class="cls-50" x1="20.5" y1="30.5" x2="76.5" y2="30.5"/>
          <line id="Slid_green_value" class="cls-53" x1="20.5" y1="30.54" x2="76.5" y2="30.54"/>
          <circle id="Cursor_green" class="cls-54" cx="48.5" cy="30.54" r="5"/>
        </g>
        <g id="Slid_red">
          <line id="Bg_slid_red" class="cls-50" x1="20.5" y1="12.54" x2="76.5" y2="12.54"/>
          <line id="Slid_red_value" class="cls-55" x1="20.5" y1="12.54" x2="76.5" y2="12.54"/>
          <circle id="Cursor_red" class="cls-56" cx="48.5" cy="12.54" r="5"/>
        </g>
      </g>
    </g>
    <g id="Ac_Music_med">
      <g id="zones_Bg">
        <rect class="cls-57" x="11.78" y="74.95" width="72" height="10"/>
        <rect class="cls-57" x="11.78" y="62.93" width="72" height="10"/>
        <rect class="cls-57" x="11.78" y="50.91" width="72" height="10"/>
        <rect class="cls-57" x="11.78" y="38.89" width="72" height="10"/>
        <rect class="cls-57" x="11.78" y="26.87" width="72" height="10"/>
      </g>
      <circle id="Btn3_note1" class="cls-27" cx="18.09" cy="79.95" r="5"/>
      <circle id="Btn3_note2" class="cls-58" cx="29.7" cy="67.93" r="5"/>
      <circle id="Btn3_note3" class="cls-59" cx="41.31" cy="55.91" r="5"/>
      <circle id="Btn3_note4" class="cls-59" cx="52.92" cy="43.89" r="5"/>
      <circle id="Btn3_note5" class="cls-59" cx="64.53" cy="31.87" r="5"/>
      <circle id="Btn3_note6" class="cls-59" cx="76.14" cy="43.89" r="5"/>
      <g id="Slider">
        <line id="slid_off" class="cls-21" x1="84.52" y1="13.33" x2="26.39" y2="13.33"/>
        <circle id="cursor" class="cls-60" cx="55.45" cy="13.33" r="5"/>
      </g>
      <g id="beat">
        <path class="cls-15" d="M23.61,11.36a.28.28,0,0,1,.08.2v.82a.3.3,0,0,1-.08.2.28.28,0,0,1-.21.08H19.71a.28.28,0,0,1-.21-.07.32.32,0,0,1-.08-.21v-.82a.28.28,0,0,1,.08-.2.29.29,0,0,1,.21-.09H23.4A.29.29,0,0,1,23.61,11.36Z"/>
        <path class="cls-15" d="M23.61,14.08a.3.3,0,0,1,.08.2v.82a.28.28,0,0,1-.08.2.29.29,0,0,1-.21.09H19.71a.27.27,0,0,1-.29-.29v-.82a.3.3,0,0,1,.08-.2.28.28,0,0,1,.21-.08H23.4A.28.28,0,0,1,23.61,14.08Z"/>
        <path id="note_Bg" class="cls-15" d="M16.45,8.06h0a.65.65,0,0,0-.66.66V15a2.65,2.65,0,0,0-2.22-.22,2.67,2.67,0,0,0,1.32,5.15,2.74,2.74,0,0,0,2.23-2.73V8.72A.66.66,0,0,0,16.45,8.06Z"/>
      </g>
    </g>
  </g>
</svg>
