<svg xmlns="http://www.w3.org/2000/svg" xmlns:xlink="http://www.w3.org/1999/xlink" viewBox="0 0 96.01 96.21">
  <defs>
    <style>
      .cls-1 {
        fill: #ffa799;
      }

      .cls-2 {
        fill: #80b6ff;
      }

      .cls-3 {
        fill: #fbebe7;
      }

      .cls-4 {
        fill: #ffc5bc;
      }

      .cls-5 {
        fill: #e5f0ff;
      }

      .cls-6 {
        fill: #93c1ff;
      }

      .cls-10, .cls-19, .cls-23, .cls-24, .cls-26, .cls-30, .cls-33, .cls-49, .cls-53, .cls-54, .cls-56, .cls-58, .cls-61, .cls-7 {
        fill: none;
      }

      .cls-7 {
        stroke: #ffc0ac;
      }

      .cls-14, .cls-15, .cls-18, .cls-19, .cls-23, .cls-30, .cls-43, .cls-44, .cls-53, .cls-7 {
        stroke-miterlimit: 10;
      }

      .cls-10, .cls-14, .cls-15, .cls-18, .cls-19, .cls-20, .cls-21, .cls-23, .cls-24, .cls-28, .cls-29, .cls-30, .cls-33, .cls-34, .cls-43, .cls-44, .cls-49, .cls-53, .cls-54, .cls-55, .cls-56, .cls-57, .cls-58, .cls-59, .cls-61, .cls-62, .cls-63, .cls-64, .cls-7, .cls-8 {
        stroke-width: 2px;
      }

      .cls-29, .cls-34, .cls-8, .cls-9 {
        fill: #90a4ae;
      }

      .cls-10, .cls-8 {
        stroke: #607d8b;
      }

      .cls-10, .cls-19, .cls-23, .cls-24, .cls-33, .cls-34, .cls-53, .cls-54, .cls-56, .cls-58, .cls-8 {
        stroke-linecap: round;
      }

      .cls-10, .cls-20, .cls-21, .cls-24, .cls-28, .cls-29, .cls-33, .cls-34, .cls-49, .cls-54, .cls-55, .cls-56, .cls-57, .cls-58, .cls-59, .cls-61, .cls-62, .cls-63, .cls-64, .cls-8 {
        stroke-linejoin: round;
      }

      .cls-11 {
        fill: #ff6738;
      }

      .cls-12 {
        fill: #ffc0ac;
      }

      .cls-13 {
        fill: #fbe9e7;
      }

      .cls-14, .cls-16 {
        fill: #eceff1;
      }

      .cls-14, .cls-15, .cls-18, .cls-20, .cls-21, .cls-23, .cls-24, .cls-28, .cls-30, .cls-43, .cls-44, .cls-55, .cls-57, .cls-59, .cls-61, .cls-62, .cls-63, .cls-64 {
        stroke: #263238;
      }

      .cls-15, .cls-42, .cls-63 {
        fill: #fff;
      }

      .cls-17 {
        fill: #263238;
      }

      .cls-18, .cls-28, .cls-50 {
        fill: #1de9b6;
      }

      .cls-19 {
        stroke: #ff6738;
      }

      .cls-20, .cls-22 {
        fill: #ffab91;
      }

      .cls-21 {
        fill: #ffccbc;
      }

      .cls-25 {
        fill: #405359;
      }

      .cls-27 {
        fill: #b0bec5;
      }

      .cls-29, .cls-33, .cls-34 {
        stroke: #5a7280;
      }

      .cls-31, .cls-32, .cls-41, .cls-59 {
        fill: #ff3d00;
      }

      .cls-31 {
        opacity: 0.4;
      }

      .cls-32 {
        opacity: 0.2;
      }

      .cls-35 {
        fill: #00ff50;
      }

      .cls-36 {
        fill: #1919ff;
      }

      .cls-37 {
        fill: red;
      }

      .cls-38 {
        fill: #00e5ff;
      }

      .cls-39 {
        fill: #ffea00;
      }

      .cls-40 {
        fill: #ff00fb;
      }

      .cls-43, .cls-47 {
        fill: #cfd8dc;
      }

      .cls-44 {
        fill: #e7ebed;
      }

      .cls-45 {
        fill: url(#radial-gradient);
      }

      .cls-46 {
        fill: #00eaff;
      }

      .cls-48 {
        fill: url(#radial-gradient-2);
      }

      .cls-49, .cls-53 {
        stroke: #405359;
      }

      .cls-51 {
        fill: url(#radial-gradient-3);
      }

      .cls-52 {
        fill: url(#radial-gradient-4);
      }

      .cls-54 {
        stroke: blue;
      }

      .cls-55 {
        fill: blue;
      }

      .cls-56 {
        stroke: #00e676;
      }

      .cls-57 {
        fill: #00e676;
      }

      .cls-58 {
        stroke: #ff3d00;
      }

      .cls-60 {
        fill: #448aff;
      }

      .cls-64 {
        fill: #84edcf;
      }
    </style>
    <radialGradient id="radial-gradient" cx="161.93" cy="128.89" r="49.88" gradientTransform="translate(-140.67 -196.55) scale(1.17 2)" gradientUnits="userSpaceOnUse">
      <stop offset="0" stop-color="#cfd8dc"/>
      <stop offset="0.1" stop-color="#cfd8dc" stop-opacity="0.97"/>
      <stop offset="0.24" stop-color="#cfd8dc" stop-opacity="0.88"/>
      <stop offset="0.4" stop-color="#cfd8dc" stop-opacity="0.74"/>
      <stop offset="0.59" stop-color="#cfd8dc" stop-opacity="0.55"/>
      <stop offset="0.79" stop-color="#cfd8dc" stop-opacity="0.3"/>
      <stop offset="1" stop-color="#cfd8dc" stop-opacity="0"/>
    </radialGradient>
    <radialGradient id="radial-gradient-2" cx="161.93" cy="113.23" r="49.88" gradientTransform="translate(-140.78 -229.03) scale(1.17 2.3)" xlink:href="#radial-gradient"/>
    <radialGradient id="radial-gradient-3" cx="48.01" cy="30.06" r="28" gradientTransform="matrix(1, 0, 0, 1, 0, 0)" xlink:href="#radial-gradient"/>
    <radialGradient id="radial-gradient-4" cx="48.01" cy="65.16" r="34.09" gradientTransform="translate(-6.36 -11.12) scale(1.13 1.18)" xlink:href="#radial-gradient"/>
  </defs>
  <title>Blocks_Asset 506</title>
  <g id="Layer_2" data-name="Layer 2">
    <g id="Ev_Empty">
      <g id="Event_empty">
        <path class="cls-1" d="M86.12,96a1,1,0,0,1,0-2H92a1,1,0,0,1,1,1,1,1,0,0,1-1,1V95l0,1ZM76.3,96H70.41a1,1,0,0,1,0-2H76.3a1,1,0,0,1,0,2ZM60.59,96H54.7a1,1,0,0,1,0-2h5.89a1,1,0,1,1,0,2ZM44.88,96H39a1,1,0,0,1,0-2h5.9a1,1,0,1,1,0,2ZM29.16,96H23.27a1,1,0,1,1,0-2h5.89a1,1,0,0,1,0,2ZM13.45,96H7.56a1,1,0,0,1,0-2h5.89a1,1,0,1,1,0,2ZM1,93a1,1,0,0,1-1-1V86.13a1,1,0,0,1,2,0V92A1,1,0,0,1,1,93Zm94-3.59a1,1,0,0,1-1-1V82.54a1,1,0,0,1,2,0v5.89A1,1,0,0,1,95,89.43ZM1,77.31a1,1,0,0,1-1-1V70.42a1,1,0,0,1,2,0v5.89A1,1,0,0,1,1,77.31Zm94-3.59a1,1,0,0,1-1-1V66.83a1,1,0,0,1,2,0v5.89A1,1,0,0,1,95,73.72ZM1,61.6a1,1,0,0,1-1-1V54.71a1,1,0,0,1,2,0V60.6A1,1,0,0,1,1,61.6ZM95,58a1,1,0,0,1-1-1V51.12a1,1,0,1,1,2,0V57A1,1,0,0,1,95,58ZM1,45.89a1,1,0,0,1-1-1V39a1,1,0,0,1,1-1,1,1,0,0,1,1,1v5.89A1,1,0,0,1,1,45.89Zm94-3.6a1,1,0,0,1-1-1V35.4a1,1,0,1,1,2,0v5.89A1,1,0,0,1,95,42.29ZM1,30.18a1,1,0,0,1-1-1v-5.9a1,1,0,0,1,2,0v5.9A1,1,0,0,1,1,30.18Zm94-3.6a1,1,0,0,1-1-1V19.69a1,1,0,1,1,2,0v5.89A1,1,0,0,1,95,26.58ZM1,14.46a1,1,0,0,1-1-1V7.57a1,1,0,0,1,2,0v5.89A1,1,0,0,1,1,14.46Zm94-3.59a1,1,0,0,1-1-1V4a1,1,0,0,1,1-1,1,1,0,0,1,1,1h0V9.87A1,1,0,0,1,95,10.87ZM88.44,2H82.55a1,1,0,0,1,0-2h5.89a1,1,0,0,1,1,1A1,1,0,0,1,88.44,2ZM72.73,2H66.84a1,1,0,0,1,0-2h5.89a1,1,0,1,1,0,2ZM57,2H51.13a1,1,0,0,1,0-2H57a1,1,0,1,1,0,2ZM41.31,2H35.42a1,1,0,0,1-1-1,1,1,0,0,1,1-1h5.89a1,1,0,0,1,0,2ZM25.59,2H19.7a1,1,0,0,1,0-2h5.89a1,1,0,0,1,1,1A1,1,0,0,1,25.59,2ZM9.88,2H4A1,1,0,0,1,3,1,1,1,0,0,1,4,0H9.88a1,1,0,1,1,0,2Z"/>
      </g>
    </g>
    <g id="Ac_Empty">
      <g id="Action_empty">
        <path class="cls-2" d="M86.12,96a1,1,0,0,1,0-2H92a1,1,0,0,1,1,1,1,1,0,0,1-1,1V95l0,1ZM76.3,96H70.41a1,1,0,0,1,0-2H76.3a1,1,0,0,1,0,2ZM60.59,96H54.7a1,1,0,0,1,0-2h5.89a1,1,0,1,1,0,2ZM44.88,96H39a1,1,0,0,1,0-2h5.9a1,1,0,1,1,0,2ZM29.16,96H23.27a1,1,0,1,1,0-2h5.89a1,1,0,0,1,0,2ZM13.45,96H7.56a1,1,0,0,1,0-2h5.89a1,1,0,1,1,0,2ZM1,93a1,1,0,0,1-1-1V86.13a1,1,0,0,1,2,0V92A1,1,0,0,1,1,93Zm94-3.59a1,1,0,0,1-1-1V82.54a1,1,0,0,1,2,0v5.89A1,1,0,0,1,95,89.43ZM1,77.31a1,1,0,0,1-1-1V70.42a1,1,0,0,1,2,0v5.89A1,1,0,0,1,1,77.31Zm94-3.59a1,1,0,0,1-1-1V66.83a1,1,0,0,1,2,0v5.89A1,1,0,0,1,95,73.72ZM1,61.6a1,1,0,0,1-1-1V54.71a1,1,0,0,1,2,0V60.6A1,1,0,0,1,1,61.6ZM95,58a1,1,0,0,1-1-1V51.12a1,1,0,1,1,2,0V57A1,1,0,0,1,95,58ZM1,45.89a1,1,0,0,1-1-1V39a1,1,0,0,1,1-1,1,1,0,0,1,1,1v5.89A1,1,0,0,1,1,45.89Zm94-3.6a1,1,0,0,1-1-1V35.4a1,1,0,1,1,2,0v5.89A1,1,0,0,1,95,42.29ZM1,30.18a1,1,0,0,1-1-1v-5.9a1,1,0,0,1,2,0v5.9A1,1,0,0,1,1,30.18Zm94-3.6a1,1,0,0,1-1-1V19.69a1,1,0,1,1,2,0v5.89A1,1,0,0,1,95,26.58ZM1,14.46a1,1,0,0,1-1-1V7.57a1,1,0,0,1,2,0v5.89A1,1,0,0,1,1,14.46Zm94-3.59a1,1,0,0,1-1-1V4a1,1,0,0,1,1-1,1,1,0,0,1,1,1h0V9.87A1,1,0,0,1,95,10.87ZM88.44,2H82.55a1,1,0,0,1,0-2h5.89a1,1,0,0,1,1,1A1,1,0,0,1,88.44,2ZM72.73,2H66.84a1,1,0,0,1,0-2h5.89a1,1,0,1,1,0,2ZM57,2H51.13a1,1,0,0,1,0-2H57a1,1,0,1,1,0,2ZM41.31,2H35.42a1,1,0,0,1-1-1,1,1,0,0,1,1-1h5.89a1,1,0,0,1,0,2ZM25.59,2H19.7a1,1,0,0,1,0-2h5.89a1,1,0,0,1,1,1A1,1,0,0,1,25.59,2ZM9.88,2H4A1,1,0,0,1,3,1,1,1,0,0,1,4,0H9.88a1,1,0,1,1,0,2Z"/>
      </g>
    </g>
    <g id="Event_bg">
      <g id="Events_bg">
        <rect class="cls-3" x="0.5" y="0.5" width="95" height="95" rx="3.5"/>
        <path class="cls-4" d="M92,1a3,3,0,0,1,3,3V92a3,3,0,0,1-3,3H4a3,3,0,0,1-3-3V4A3,3,0,0,1,4,1H92m0-1H4A4,4,0,0,0,0,4V92a4,4,0,0,0,4,4H92a4,4,0,0,0,4-4V4a4,4,0,0,0-4-4Z"/>
      </g>
    </g>
    <g id="Act_bg">
      <g id="Actions_bg">
        <rect class="cls-5" x="0.51" y="0.51" width="95" height="95" rx="3.5"/>
        <path class="cls-6" d="M92,1a3,3,0,0,1,3,3V92a3,3,0,0,1-3,3H4a3,3,0,0,1-3-3V4A3,3,0,0,1,4,1H92m0-1H4A4,4,0,0,0,0,4V92a4,4,0,0,0,4,4H92a4,4,0,0,0,4-4V4a4,4,0,0,0-4-4Z"/>
      </g>
    </g>
    <g id="Ev_Buttons">
      <path id="Bg_Thymio" class="cls-7" d="M48.09,6.76A56.83,56.83,0,0,0,7.87,23.28a4.15,4.15,0,0,0-1.19,2.93L6.62,86.05a3.44,3.44,0,0,0,3.44,3.45L86,89.58a3.45,3.45,0,0,0,3.45-3.45l.06-59.83a4.1,4.1,0,0,0-1.19-2.93A56.76,56.76,0,0,0,48.09,6.76Z"/>
      <g id="ButtonsOff">
        <circle id="Btn2_Center" class="cls-8" cx="48.04" cy="48.16" r="8.75"/>
        <g id="Btn2_Forward">
          <path class="cls-9" d="M40.25,31.35c-.55,0-.78-.39-.5-.87l7.74-13.41a.53.53,0,0,1,1,0l7.74,13.41c.28.48,0,.87-.5.87Z"/>
          <path class="cls-10" d="M40.25,31.35c-.55,0-.78-.39-.5-.87l7.74-13.41a.53.53,0,0,1,1,0l7.74,13.41c.28.48,0,.87-.5.87Z"/>
        </g>
        <g id="Btn2_Backward">
          <path class="cls-9" d="M40.25,65c-.55,0-.78.4-.5.88l7.74,13.41a.53.53,0,0,0,1,0l7.74-13.41c.28-.48,0-.88-.5-.88Z"/>
          <path class="cls-10" d="M40.25,65c-.55,0-.78.4-.5.88l7.74,13.41a.53.53,0,0,0,1,0l7.74-13.41c.28-.48,0-.88-.5-.88Z"/>
        </g>
        <g id="Btn2_Right">
          <path class="cls-9" d="M65,40.52c0-.55.39-.78.87-.5L79,47.61a.53.53,0,0,1,0,1L65.85,56.21c-.48.27-.87,0-.87-.51Z"/>
          <path class="cls-10" d="M65,40.52c0-.55.39-.78.87-.5L79,47.61a.53.53,0,0,1,0,1L65.85,56.21c-.48.27-.87,0-.87-.51Z"/>
        </g>
        <g id="Btn2_Left">
          <path class="cls-9" d="M31.1,40.52c0-.55-.39-.78-.87-.5L17.09,47.61a.53.53,0,0,0,0,1l13.14,7.59c.48.27.87,0,.87-.51Z"/>
          <path class="cls-10" d="M31.1,40.52c0-.55-.39-.78-.87-.5L17.09,47.61a.53.53,0,0,0,0,1l13.14,7.59c.48.27.87,0,.87-.51Z"/>
        </g>
      </g>
    </g>
    <g id="Ev_Remote1">
      <g id="RemoteSignal">
        <path class="cls-11" d="M51.67,12.06a1,1,0,0,1-.71-.29,4.16,4.16,0,0,0-5.89,0,1,1,0,0,1-1.42,0,1,1,0,0,1,0-1.41,6.16,6.16,0,0,1,8.72,0,1,1,0,0,1,0,1.41A1,1,0,0,1,51.67,12.06Z"/>
        <path class="cls-11" d="M54,9.72a1,1,0,0,1-.7-.3,7.5,7.5,0,0,0-10.59,0A1,1,0,0,1,41.31,8,9.48,9.48,0,0,1,54.72,8a1,1,0,0,1,0,1.41A1,1,0,0,1,54,9.72Z"/>
      </g>
      <g id="Remote1_buttons">
        <path id="Btn2_Remote1_85" class="cls-8" d="M30,51.72a17.87,17.87,0,0,1,3-9.9,2,2,0,0,0-.24-2.53l-7.16-7.17a2,2,0,0,0-3,.19,32,32,0,0,0,0,38.83,2,2,0,0,0,3,.18l7.16-7.17A2,2,0,0,0,33,61.63,17.93,17.93,0,0,1,30,51.72Z"/>
        <path id="Btn2_Remote1_81" class="cls-8" d="M48,69.72a17.87,17.87,0,0,1-9.9-3,2,2,0,0,0-2.53.24l-7.17,7.17a2,2,0,0,0,.19,3,32,32,0,0,0,38.83,0,2,2,0,0,0,.18-3L60.45,67a2,2,0,0,0-2.53-.24A17.9,17.9,0,0,1,48,69.72Z"/>
        <path id="Btn2_Remote1_86" class="cls-8" d="M66,51.72a17.93,17.93,0,0,1-3,9.91,2,2,0,0,0,.24,2.52l7.17,7.17a2,2,0,0,0,3-.18,32,32,0,0,0,0-38.83,2,2,0,0,0-3-.19l-7.17,7.17A2,2,0,0,0,63,41.82,17.87,17.87,0,0,1,66,51.72Z"/>
        <path id="Btn2_Remote1_80" class="cls-8" d="M48,33.72a17.9,17.9,0,0,1,9.91,3,2,2,0,0,0,2.53-.24l7.16-7.17a2,2,0,0,0-.18-3,32,32,0,0,0-38.83,0,2,2,0,0,0-.19,3l7.17,7.17a2,2,0,0,0,2.53.24A17.87,17.87,0,0,1,48,33.72Z"/>
        <circle id="Btn2_Remote1_87" class="cls-8" cx="48.01" cy="51.72" r="12"/>
      </g>
    </g>
    <g id="Ev_Remote2">
      <g id="Remote2_Buttons">
        <rect id="Btn2_Remote2_0" class="cls-8" x="40.01" y="71.93" width="16" height="12"/>
        <path id="Btn2_Remote2_17" class="cls-8" d="M22,71.93H32a0,0,0,0,1,0,0v12a0,0,0,0,1,0,0H22a6,6,0,0,1-6-6v0A6,6,0,0,1,22,71.93Z"/>
        <path id="Btn2_Remote2_16" class="cls-8" d="M64,71.93H74a6,6,0,0,1,6,6v0a6,6,0,0,1-6,6H64a0,0,0,0,1,0,0v-12A0,0,0,0,1,64,71.93Z"/>
        <path id="Btn2_Remote2_9" class="cls-8" d="M64,53.93H74a6,6,0,0,1,6,6v0a6,6,0,0,1-6,6H64a0,0,0,0,1,0,0v-12A0,0,0,0,1,64,53.93Z"/>
        <rect id="Btn2_Remote2_8" class="cls-8" x="40.01" y="53.93" width="16" height="12"/>
        <path id="Btn2_Remote2_7" class="cls-8" d="M22,53.93H32a0,0,0,0,1,0,0v12a0,0,0,0,1,0,0H22a6,6,0,0,1-6-6v0a6,6,0,0,1,6-6Z"/>
        <path id="Btn2_Remote2_6" class="cls-8" d="M64,35.93H74a6,6,0,0,1,6,6v0a6,6,0,0,1-6,6H64a0,0,0,0,1,0,0v-12A0,0,0,0,1,64,35.93Z"/>
        <rect id="Btn2_Remote2_5" class="cls-8" x="40.01" y="35.93" width="16" height="12"/>
        <path id="Btn2_Remote2_4" class="cls-8" d="M22,35.93H32a0,0,0,0,1,0,0v12a0,0,0,0,1,0,0H22a6,6,0,0,1-6-6v0a6,6,0,0,1,6-6Z"/>
        <path id="Btn2_Remote2_3" class="cls-8" d="M64,17.93H74a6,6,0,0,1,6,6v0a6,6,0,0,1-6,6H64a0,0,0,0,1,0,0v-12A0,0,0,0,1,64,17.93Z"/>
        <rect id="Btn2_Remote2_2" class="cls-8" x="40.01" y="17.93" width="16" height="12"/>
        <path id="Btn2_Remote2_1" class="cls-8" d="M22,17.93H32a0,0,0,0,1,0,0v12a0,0,0,0,1,0,0H22a6,6,0,0,1-6-6v0A6,6,0,0,1,22,17.93Z"/>
      </g>
      <g id="RemoteSignal-2" data-name="RemoteSignal">
        <path class="cls-11" d="M51.67,12.27A1,1,0,0,1,51,12a4.16,4.16,0,0,0-5.89,0,1,1,0,0,1-1.42,0,1,1,0,0,1,0-1.41,6.16,6.16,0,0,1,8.72,0,1,1,0,0,1,0,1.41A1,1,0,0,1,51.67,12.27Z"/>
        <path class="cls-11" d="M54,9.92a1,1,0,0,1-.7-.29,7.47,7.47,0,0,0-10.59,0,1,1,0,0,1-1.41,0,1,1,0,0,1,0-1.42,9.48,9.48,0,0,1,13.41,0A1,1,0,0,1,54,9.92Z"/>
      </g>
    </g>
    <g id="CircleLeds">
      <path id="Bg_Thymio-2" data-name="Bg_Thymio" class="cls-12" d="M48.05,4.19A60.1,60.1,0,0,0,5.51,21.67a4.42,4.42,0,0,0-1.27,3.1l-.06,63.3a3.66,3.66,0,0,0,3.64,3.66l80.28.08a3.66,3.66,0,0,0,3.66-3.65l.06-63.3a4.37,4.37,0,0,0-1.26-3.1A60.1,60.1,0,0,0,48.05,4.19Z"/>
      <g id="StatesOff">
        <path id="Btn2_State0" class="cls-8" d="M38.65,16.64a2.66,2.66,0,0,1-2.54-1.85,2.63,2.63,0,0,1,.18-2.11A2.74,2.74,0,0,1,38,11.34a38.21,38.21,0,0,1,20.06,0,2.74,2.74,0,0,1,1.68,1.34,2.63,2.63,0,0,1,.18,2.11,2.67,2.67,0,0,1-2.55,1.85,2.8,2.8,0,0,1-.7-.09,32.76,32.76,0,0,0-17.28,0A2.82,2.82,0,0,1,38.65,16.64Z"/>
        <path id="Btn2_State1" class="cls-8" d="M78.67,33.22a2.7,2.7,0,0,1-2.33-1.35A32.8,32.8,0,0,0,64.12,19.65a2.69,2.69,0,0,1,1.36-5,2.81,2.81,0,0,1,1.35.36A38.26,38.26,0,0,1,81,29.17a2.73,2.73,0,0,1,.25,2.13,2.69,2.69,0,0,1-1.36,1.63A2.74,2.74,0,0,1,78.67,33.22Z"/>
        <path id="Btn2_State2" class="cls-8" d="M82,60a2.72,2.72,0,0,1-.84-.13,2.68,2.68,0,0,1-1.75-3.26,32.72,32.72,0,0,0,0-17.27A2.68,2.68,0,0,1,81.2,36.1,2.72,2.72,0,0,1,84.65,38a38,38,0,0,1,0,20.07A2.71,2.71,0,0,1,82,60Z"/>
        <path id="Btn2_State3" class="cls-8" d="M65.48,81.36a2.69,2.69,0,0,1-1.36-5A32.8,32.8,0,0,0,76.34,64.12a2.7,2.7,0,0,1,2.33-1.35,2.7,2.7,0,0,1,2.33,4A38.26,38.26,0,0,1,66.83,81,2.81,2.81,0,0,1,65.48,81.36Z"/>
        <path id="Btn2_State4" class="cls-8" d="M48,86a38.19,38.19,0,0,1-10-1.35,2.72,2.72,0,0,1-1.68-1.34,2.63,2.63,0,0,1-.18-2.11,2.66,2.66,0,0,1,2.54-1.85,2.82,2.82,0,0,1,.71.09,32.76,32.76,0,0,0,17.28,0,2.82,2.82,0,0,1,.71-.09,2.66,2.66,0,0,1,2.54,1.85,2.63,2.63,0,0,1-.18,2.11A2.72,2.72,0,0,1,58,84.65,38.19,38.19,0,0,1,48,86Z"/>
        <path id="Btn2_State5" class="cls-8" d="M30.52,81.36A2.81,2.81,0,0,1,29.17,81,38.26,38.26,0,0,1,15,66.82a2.73,2.73,0,0,1-.25-2.13,2.69,2.69,0,0,1,1.36-1.63,2.74,2.74,0,0,1,1.22-.29,2.7,2.7,0,0,1,2.33,1.35A32.8,32.8,0,0,0,31.88,76.34a2.69,2.69,0,0,1-1.36,5Z"/>
        <path id="Btn2_State6" class="cls-8" d="M14,60a2.71,2.71,0,0,1-2.61-2,38,38,0,0,1,0-20.07,2.69,2.69,0,1,1,5.2,1.4,32.72,32.72,0,0,0,0,17.27,2.68,2.68,0,0,1-1.75,3.26A2.72,2.72,0,0,1,14,60Z"/>
        <path id="Btn2_State7" class="cls-8" d="M17.33,33.22a2.74,2.74,0,0,1-1.22-.29,2.69,2.69,0,0,1-1.36-1.63A2.73,2.73,0,0,1,15,29.17,38.26,38.26,0,0,1,29.17,15a2.81,2.81,0,0,1,1.35-.36,2.69,2.69,0,0,1,1.36,5A32.87,32.87,0,0,0,19.66,31.87,2.7,2.7,0,0,1,17.33,33.22Z"/>
      </g>
      <g>
        <g id="center">
          <circle class="cls-13" cx="48" cy="48" r="8.34"/>
        </g>
        <g id="up">
          <path class="cls-13" d="M40.67,32.49c-.56,0-.79-.39-.51-.87l7.26-12.74c.28-.49.73-.49,1,0l7.4,12.66c.28.48.06.88-.49.88Z"/>
        </g>
        <g id="down">
          <path class="cls-13" d="M40.67,63.51c-.56,0-.79.39-.51.87l7.26,12.74c.28.49.73.49,1,0l7.4-12.66c.28-.48.06-.88-.49-.88Z"/>
        </g>
        <g id="right">
          <path class="cls-13" d="M63.51,40.67c0-.56.39-.79.87-.51l12.74,7.26c.49.28.49.73,0,1l-12.66,7.4c-.48.28-.88.06-.88-.5Z"/>
        </g>
        <g id="left">
          <path class="cls-13" d="M32.49,40.67c0-.56-.39-.79-.87-.51L18.88,47.42c-.49.28-.49.73,0,1l12.66,7.4c.48.28.88.06.88-.5Z"/>
        </g>
      </g>
    </g>
    <g id="Ev_Start">
      <g id="Bg_Th_Profile-2" data-name="Bg_Th_Profile">
        <path class="cls-14" d="M64.66,79.91c.56.68.6,2.72,1.56,3.72a3.22,3.22,0,0,0,2.41.85,3.32,3.32,0,0,0,2.42-.85c.93-1,1-3,1.53-3.72Z"/>
        <rect class="cls-15" x="16.12" y="55.73" width="64" height="24" rx="2"/>
        <path class="cls-16" d="M79.12,74.91v2.76a1,1,0,0,1-1,1h-60a1,1,0,0,1-1-1V74.91Z"/>
        <path class="cls-17" d="M73.2,65.7H68.12a1,1,0,0,1,0-2H73.2a1,1,0,0,1,0,2Z"/>
        <path class="cls-17" d="M80.1,65.7H77.56a1,1,0,0,1,0-2H80.1a1,1,0,0,1,0,2Z"/>
        <circle class="cls-15" cx="33.74" cy="71.95" r="12.83"/>
        <path class="cls-16" d="M42.05,63.55A11.85,11.85,0,0,1,23.78,78.37,11.85,11.85,0,1,0,42.05,63.55Z"/>
      </g>
      <g id="StartIndicator">
        <circle class="cls-18" cx="48.12" cy="30.01" r="18"/>
        <path class="cls-17" d="M44.73,36.38V23.78a.9.9,0,0,1,1.44-.72l8.4,6.3a.89.89,0,0,1,0,1.44l-8.4,6.3A.9.9,0,0,1,44.73,36.38Z"/>
      </g>
    </g>
    <g id="Ev_Clap">
      <g id="Bg_Th_Profile-3" data-name="Bg_Th_Profile">
        <path class="cls-14" d="M64.66,79.91c.56.68.6,2.72,1.56,3.72a3.22,3.22,0,0,0,2.41.85,3.32,3.32,0,0,0,2.42-.85c.93-1,1-3,1.53-3.72Z"/>
        <rect class="cls-15" x="16.12" y="55.73" width="64" height="24" rx="2"/>
        <path class="cls-16" d="M79.12,74.91v2.76a1,1,0,0,1-1,1h-60a1,1,0,0,1-1-1V74.91Z"/>
        <path class="cls-17" d="M73.2,65.7H68.12a1,1,0,0,1,0-2H73.2a1,1,0,0,1,0,2Z"/>
        <path class="cls-17" d="M80.1,65.7H77.56a1,1,0,0,1,0-2H80.1a1,1,0,0,1,0,2Z"/>
        <circle class="cls-15" cx="33.74" cy="71.95" r="12.83"/>
        <path class="cls-16" d="M42.05,63.55A11.85,11.85,0,0,1,23.78,78.37,11.85,11.85,0,1,0,42.05,63.55Z"/>
      </g>
      <g id="Bg_ClapHands">
        <g id="fx">
          <line class="cls-19" x1="21.57" y1="31.17" x2="15.57" y2="31.17"/>
          <line class="cls-19" x1="18.38" y1="24.17" x2="23.58" y2="27.17"/>
          <line class="cls-19" x1="18.38" y1="38.17" x2="23.58" y2="35.17"/>
        </g>
        <g id="fx-2" data-name="fx">
          <line class="cls-19" x1="58.39" y1="14.1" x2="58.39" y2="8.1"/>
          <line class="cls-19" x1="65.39" y1="10.91" x2="62.39" y2="16.1"/>
          <line class="cls-19" x1="51.39" y1="10.91" x2="54.39" y2="16.1"/>
        </g>
        <path id="HandBack" class="cls-20" d="M41.55,47.65,28.91,35.07a2.23,2.23,0,0,1,0-3.44,2.53,2.53,0,0,1,1.64-.73,2.33,2.33,0,0,1,1.78.72l9.17,9.12a.54.54,0,0,0,.76-.76L33.1,30.87h0l-4.52-4.5a2.32,2.32,0,0,1,.1-3.44,2.22,2.22,0,0,1,3.33,0L45.55,36.4a.54.54,0,0,0,.76,0,.53.53,0,0,0,0-.75L32.75,22.17l-1.39-1.39a2.36,2.36,0,0,1,0-3.43A2.48,2.48,0,0,1,33,16.62a2.33,2.33,0,0,1,1.8.72L37.42,20h0L49.85,32.31a.53.53,0,0,0,.75,0,.54.54,0,0,0,0-.76L38.18,19.21a2.31,2.31,0,0,1,.11-3.43,2.22,2.22,0,0,1,3.33,0L57.28,31.34s.35.65.88.51.37-.74.36-.75l-3.81-7.27a3.29,3.29,0,0,1,1.43-4.52s1-.47,1.35.28l6.17,11.77h0a14.13,14.13,0,0,1-2.18,16.23h0A14.13,14.13,0,0,1,41.55,47.65Z"/>
        <g id="HandFront">
          <path id="HandFront-2" data-name="HandFront" class="cls-21" d="M45.1,47.17,32.45,34.6a2.24,2.24,0,0,1,0-3.44,2.53,2.53,0,0,1,1.64-.73,2.35,2.35,0,0,1,1.79.72l9.17,9.12a.54.54,0,0,0,.76,0,.53.53,0,0,0,0-.75L36.64,30.4h0L32.11,25.9a2.32,2.32,0,0,1,.11-3.44,2.22,2.22,0,0,1,3.33,0L49.1,35.93a.54.54,0,0,0,.76,0,.55.55,0,0,0,0-.76L36.3,21.7l-1.4-1.39a2.37,2.37,0,0,1,0-3.44,2.55,2.55,0,0,1,1.64-.73,2.35,2.35,0,0,1,1.8.73L41,19.49h0L53.39,31.84a.54.54,0,0,0,.76-.76L41.73,18.73a2.3,2.3,0,0,1,.11-3.42,2.22,2.22,0,0,1,3.33,0L60.82,30.86s.36.65.89.51.36-.74.36-.75l-3.81-7.26a3.29,3.29,0,0,1,1.42-4.52s1-.47,1.36.27L67.2,30.88h0A14.1,14.1,0,0,1,65,47.11v0A14.13,14.13,0,0,1,45.1,47.17Z"/>
          <path id="shadow1" class="cls-22" d="M58.29,49.85a21.28,21.28,0,0,0,4.1-4.67c3.86-5.41-1.65-12.07-1.83-12.35L60,32.28,43.45,15.57a1.39,1.39,0,0,1,1,.44L60,31.49a1.92,1.92,0,0,0,1.53.9,1.37,1.37,0,0,0,.4,0,1.47,1.47,0,0,0,.94-.7A1.66,1.66,0,0,0,63,30.38l0-.09L63,30.2l-3.82-7.31a2.28,2.28,0,0,1,1-3.17l.07,0,6.1,11.65a13.12,13.12,0,0,1-2,15.08l-.08.09A12.82,12.82,0,0,1,58.29,49.85Z"/>
          <path id="shadow2" class="cls-22" d="M52.45,33.17l-15.87-16a1.4,1.4,0,0,1,1,.44L52.82,32.7a2,2,0,0,0,1.07.28C53.93,33.46,53.06,33.48,52.45,33.17Z"/>
        </g>
      </g>
    </g>
    <g id="Ev_Acc_Hit">
      <line id="Ground" class="cls-23" x1="8.01" y1="80.01" x2="88.01" y2="80.01"/>
      <g id="Bg_Th_Profile-4" data-name="Bg_Th_Profile">
        <path class="cls-14" d="M64.66,74.07c.56.68.6,2.73,1.56,3.72a3.22,3.22,0,0,0,2.41.85,3.32,3.32,0,0,0,2.42-.85c.93-1,1-3.05,1.53-3.72Z"/>
        <rect class="cls-15" x="16.12" y="49.89" width="64" height="24" rx="2"/>
        <path class="cls-16" d="M79.12,69.07v2.76a1,1,0,0,1-1,1h-60a1,1,0,0,1-1-1V69.07Z"/>
        <path class="cls-17" d="M73.2,59.86H68.12a1,1,0,0,1,0-2H73.2a1,1,0,0,1,0,2Z"/>
        <path class="cls-17" d="M80.1,59.86H77.56a1,1,0,0,1,0-2H80.1a1,1,0,0,1,0,2Z"/>
        <circle class="cls-15" cx="33.74" cy="66.11" r="12.83"/>
        <path class="cls-16" d="M42.05,57.71A11.85,11.85,0,0,1,23.78,72.53,11.85,11.85,0,1,0,42.05,57.71Z"/>
      </g>
      <g id="fx-3" data-name="fx">
        <g id="MotionLinesL">
          <path class="cls-11" d="M14.28,47.85h-6a1,1,0,1,1,0-2h6a1,1,0,1,1,0,2Z"/>
          <path class="cls-11" d="M16.28,43.85a1,1,0,0,1-.5-.13l-5.2-3a1,1,0,0,1-.36-1.37A1,1,0,0,1,11.58,39l5.2,3a1,1,0,0,1,.37,1.36A1,1,0,0,1,16.28,43.85Z"/>
        </g>
        <g id="MotionLinesR">
          <path class="cls-11" d="M89.32,48.17h-6a1,1,0,0,1,0-2h6a1,1,0,0,1,0,2Z"/>
          <path class="cls-11" d="M81.32,44.17a1,1,0,0,1-.5-1.87l5.19-3A1,1,0,0,1,87,41l-5.19,3A1,1,0,0,1,81.32,44.17Z"/>
        </g>
        <path class="cls-11" d="M12.58,76.3a1,1,0,0,1-.76-.34,9,9,0,0,1-1.61-9.75,1,1,0,0,1,1.3-.53A1,1,0,0,1,12.05,67a7.09,7.09,0,0,0,1.28,7.65,1,1,0,0,1-.1,1.41A1,1,0,0,1,12.58,76.3Z"/>
        <path class="cls-11" d="M82.39,77.46a1,1,0,0,1-.78-.38,1,1,0,0,1,.16-1.41,7.1,7.1,0,0,0,2.58-7.32,1,1,0,1,1,2-.42A9,9,0,0,1,83,77.24,1,1,0,0,1,82.39,77.46Z"/>
        <path class="cls-11" d="M51.84,44.85a1,1,0,0,1-.93-.63L42.5,22.93a1,1,0,0,1,1.86-.74l8.41,21.29a1,1,0,0,1-.56,1.3A1,1,0,0,1,51.84,44.85Z"/>
        <path class="cls-11" d="M47,45.17a1,1,0,0,1-.73-.31l-7.49-8a1,1,0,0,1,0-1.41,1,1,0,0,1,1.42,0l7.49,8a1,1,0,0,1,0,1.41A1,1,0,0,1,47,45.17Z"/>
      </g>
    </g>
    <g id="Ev_Acc_Fall">
      <g id="Hand">
        <path class="cls-21" d="M52.53,96v-.8s-.29-4.83,6.78-9.35c4-2.58,3.86-4.75,2.54-6.08-1.6-1.6-4.42.22-4.42.22s-3,1.77-6.51,4-7.18-1.41-7.18-1.41L30.55,71.23S28,68.82,26,70.64a2.69,2.69,0,0,0-.32,3.78S23.31,72,21.82,73.9a1.68,1.68,0,0,0-.31,1.95l-.14.14a2.91,2.91,0,0,0,.27,4l2.6,2.25c-2.11.9-.74,2.86-.74,2.86s5.29,4.39,7.61,6.37A20.69,20.69,0,0,1,34.67,95s.14.12.14.2V96"/>
        <path class="cls-22" d="M24.13,83.48a1,1,0,0,0,.15,1l7.31,6.12s.13-.25-.22-.81Z"/>
        <path class="cls-22" d="M32.79,88.31c-.11-.08-6.74-5.83-6.74-5.83l-3.72-3.21a2.29,2.29,0,0,1-.64-1.33l10.87,9.5A1.19,1.19,0,0,1,32.79,88.31Z"/>
        <path class="cls-22" d="M26.46,73.78a1.63,1.63,0,0,1-.3-1.74L38.19,83s.65,1,.27,1.31C38.35,84.39,26.46,73.78,26.46,73.78Z"/>
        <path class="cls-22" d="M34.81,86.35C34.7,86.27,22.7,75.8,22.7,75.8a.81.81,0,0,1-.14-1.23c.05-.06.2-.2.25-.27L34.52,84.66a1.7,1.7,0,0,1,.54,1.14C35.06,86.25,34.81,86.35,34.81,86.35Z"/>
        <path class="cls-22" d="M48.05,96c.54-5.66,5.74-9.08,8.56-10.91,5.07-3.31,4.53-4.61,4.53-4.61a1.56,1.56,0,0,1,.54,1.3c-.06.55-.52,1.69-2.91,3.22-6.57,4.21-7.16,8.8-7.19,10l0,1Z"/>
        <path class="cls-24" d="M34,87,22.19,76.71a1.92,1.92,0,0,1-.37-2.81c1.51-1.87,3.85.52,3.85.52l12,10.48"/>
        <line class="cls-24" x1="21.64" y1="79.98" x2="32.02" y2="88.98"/>
      </g>
      <g id="fx-4" data-name="fx">
        <path class="cls-11" d="M41.53,16.84a1,1,0,0,1-1-1V4.73a1,1,0,1,1,2,0V15.84A1,1,0,0,1,41.53,16.84Z"/>
        <path class="cls-11" d="M20.68,27.28a1,1,0,0,1-1-1V14.19a1,1,0,1,1,2,0V26.28A1,1,0,0,1,20.68,27.28Z"/>
        <path class="cls-11" d="M35.53,14a1,1,0,0,1-1-1V7.39a1,1,0,0,1,2,0V13A1,1,0,0,1,35.53,14Z"/>
      </g>
      <g id="Bg_Th_Profile-5" data-name="Bg_Th_Profile">
        <path class="cls-14" d="M50.76,61c-.08.75-1.32,2-1.34,3.26a2.84,2.84,0,0,0,1,2,2.9,2.9,0,0,0,2,1c1.2,0,2.49-1.28,3.25-1.35Z"/>
        <rect class="cls-15" x="20.05" y="32.74" width="56" height="21" rx="2" transform="translate(44.65 -21.31) rotate(45)"/>
        <path class="cls-16" d="M62.68,66.76,61,68.46a.87.87,0,0,1-1.23,0L22.84,31.55a.87.87,0,0,1,0-1.23l1.7-1.71Z"/>
        <path class="cls-17" d="M65.45,57.88a1,1,0,0,1-.71-.29L61.6,54.45a1,1,0,0,1,0-1.42A1,1,0,0,1,63,53l3.15,3.15a1,1,0,0,1,0,1.41A1,1,0,0,1,65.45,57.88Z"/>
        <path class="cls-17" d="M69.72,62.16a1,1,0,0,1-.7-.3l-1.57-1.57a1,1,0,0,1,0-1.41,1,1,0,0,1,1.41,0l1.57,1.57a1,1,0,0,1,0,1.41A1,1,0,0,1,69.72,62.16Z"/>
        <circle class="cls-15" cx="36.55" cy="36.95" r="11.22" transform="translate(-15.42 36.67) rotate(-45)"/>
        <path class="cls-16" d="M46.76,36.79a10.22,10.22,0,0,1-20.18-2.11,10.22,10.22,0,1,0,20.18,2.11Z"/>
      </g>
    </g>
    <g id="Ev_Accel">
      <g id="Rot360Rail">
        <g id="_360Rot_rail" data-name="360Rot_rail">
          <path class="cls-25" d="M46.5,88.94h0a40.37,40.37,0,0,1-17.55-4.7,1,1,0,0,1,.94-1.76,38.49,38.49,0,0,0,16.69,4.46,1,1,0,0,1,0,2Z"/>
          <path class="cls-25" d="M8.18,47.61h0a1,1,0,0,1-1-1A40.32,40.32,0,0,1,11.87,29a1,1,0,1,1,1.77.93A38.37,38.37,0,0,0,9.17,46.65,1,1,0,0,1,8.18,47.61Z"/>
          <path class="cls-25" d="M26.79,82.86a1,1,0,0,1-.54-.16A41.3,41.3,0,0,1,13.41,69.86a1,1,0,0,1,1.69-1.07A39.27,39.27,0,0,0,27.32,81a1,1,0,0,1-.53,1.85Z"/>
          <path class="cls-25" d="M12.75,67.73a1,1,0,0,1-.88-.53A40.32,40.32,0,0,1,7.18,49.65a1,1,0,0,1,1-1,1,1,0,0,1,1,1,38.32,38.32,0,0,0,4.47,16.68,1,1,0,0,1-.42,1.36A1.12,1.12,0,0,1,12.75,67.73Z"/>
          <path class="cls-25" d="M14.26,27.9a1,1,0,0,1-.54-.15,1,1,0,0,1-.31-1.38A41.33,41.33,0,0,1,26.25,13.52a1,1,0,0,1,1.07,1.7A39.34,39.34,0,0,0,15.1,27.43,1,1,0,0,1,14.26,27.9Z"/>
          <path class="cls-25" d="M29.38,13.87A1,1,0,0,1,28.91,12,40.5,40.5,0,0,1,46.46,7.29a1,1,0,0,1,1,1,1,1,0,0,1-1,1,38.46,38.46,0,0,0-16.69,4.46A1,1,0,0,1,29.38,13.87Z"/>
          <path class="cls-25" d="M69.21,82.86A1,1,0,0,1,68.68,81,39.27,39.27,0,0,0,80.9,68.79a1,1,0,1,1,1.69,1.07A41.3,41.3,0,0,1,69.75,82.7,1,1,0,0,1,69.21,82.86Z"/>
          <path class="cls-25" d="M87.82,47.61a1,1,0,0,1-1-1A38.37,38.37,0,0,0,82.36,30,1,1,0,0,1,84.13,29a40.32,40.32,0,0,1,4.69,17.55,1,1,0,0,1-1,1Z"/>
          <path class="cls-25" d="M66.62,13.87a1,1,0,0,1-.47-.12A38.46,38.46,0,0,0,49.46,9.29a1,1,0,0,1-1-1,1,1,0,0,1,1-1A40.5,40.5,0,0,1,67.09,12a1,1,0,0,1-.47,1.89Z"/>
          <path class="cls-25" d="M83.25,67.73a1.12,1.12,0,0,1-.47-.11,1,1,0,0,1-.42-1.36,38.32,38.32,0,0,0,4.47-16.68,1,1,0,0,1,1-1,1,1,0,0,1,1,1A40.32,40.32,0,0,1,84.13,67.2,1,1,0,0,1,83.25,67.73Z"/>
          <path class="cls-25" d="M49.5,88.94a1,1,0,0,1,0-2,38.46,38.46,0,0,0,16.69-4.46,1,1,0,0,1,.94,1.76,40.37,40.37,0,0,1-17.55,4.7Z"/>
          <path class="cls-25" d="M81.74,27.9a1,1,0,0,1-.84-.47A39.34,39.34,0,0,0,68.68,15.22a1,1,0,0,1,1.07-1.7A41.33,41.33,0,0,1,82.59,26.37a1,1,0,0,1-.31,1.38A1,1,0,0,1,81.74,27.9Z"/>
        </g>
      </g>
      <g id="Rot360">
        <circle id="RotationPivot" class="cls-26" cx="48.01" cy="47.99" r="3"/>
        <g id="ThymioAcc0">
          <path class="cls-14" d="M64.56,60.18c.55.68.6,2.73,1.56,3.72a3.22,3.22,0,0,0,2.41.85A3.32,3.32,0,0,0,71,63.9c.93-1,1-3,1.53-3.72Z"/>
          <rect class="cls-15" x="16.01" y="36" width="64" height="24" rx="2"/>
          <path class="cls-16" d="M79,55.18v2.76a1,1,0,0,1-1,1H18a1,1,0,0,1-1-1V55.18Z"/>
          <path class="cls-17" d="M73.1,46H68a1,1,0,0,1,0-2H73.1a1,1,0,0,1,0,2Z"/>
          <path class="cls-17" d="M80,46H77.46a1,1,0,0,1,0-2H80a1,1,0,0,1,0,2Z"/>
          <circle class="cls-15" cx="33.64" cy="52.22" r="12.83"/>
          <path class="cls-16" d="M42,43.82A11.85,11.85,0,0,1,23.67,58.64,11.86,11.86,0,1,0,42,43.82Z"/>
        </g>
        <g id="ThymioAcc1">
          <path class="cls-14" d="M78.34,60v2.54a1,1,0,0,1-1,1H70.78a1,1,0,0,1-1-1V60Z"/>
          <path class="cls-14" d="M26.39,60v2.54a1,1,0,0,1-1,1H18.83a1,1,0,0,1-1-1V60Z"/>
          <rect class="cls-15" x="16.01" y="35.99" width="64" height="24" rx="2"/>
          <path class="cls-17" d="M65.29,48.31h-6a1,1,0,0,1,0-2h6a1,1,0,0,1,0,2Z"/>
          <path class="cls-17" d="M77.07,48.31H72.29a1,1,0,0,1,0-2h4.78a1,1,0,0,1,0,2Z"/>
          <path class="cls-17" d="M36.75,48.31h-6a1,1,0,1,1,0-2h6a1,1,0,0,1,0,2Z"/>
          <path class="cls-17" d="M23.74,48.31H19a1,1,0,0,1,0-2h4.78a1,1,0,0,1,0,2Z"/>
          <path class="cls-14" d="M44.05,60c.56.53.6,2.12,1.56,2.9a3.9,3.9,0,0,0,2.41.65,4,4,0,0,0,2.42-.65c.93-.79,1-2.38,1.53-2.9Z"/>
          <path class="cls-17" d="M51.52,48.31H44.38a1,1,0,1,1,0-2h7.14a1,1,0,1,1,0,2Z"/>
          <path class="cls-16" d="M79,55.1v3.18a.9.9,0,0,1-.89.9H17.91a.91.91,0,0,1-.9-.9V55.1Z"/>
        </g>
        <g id="ThymioAcc2">
          <path class="cls-15" d="M47.72,72A32.92,32.92,0,0,0,71,62.44a2.38,2.38,0,0,0,.7-1.7l0-34.69a2,2,0,0,0-2-2l-44-.05a2,2,0,0,0-2,2l0,34.69a2.37,2.37,0,0,0,.69,1.7A32.84,32.84,0,0,0,47.72,72Z"/>
          <path class="cls-27" d="M30.07,45.63a1,1,0,0,1-1-1v-2a1,1,0,0,1,2,0v2A1,1,0,0,1,30.07,45.63Zm0-6a1,1,0,0,1-1-1v-2a1,1,0,1,1,2,0v2A1,1,0,0,1,30.07,39.6Zm0-6a1,1,0,0,1-1-1v-2a1,1,0,1,1,2,0v2A1,1,0,0,1,30.07,33.56ZM24.75,28a1,1,0,0,1,1-1h2a1,1,0,0,1,0,2h-2A1,1,0,0,1,24.75,28Zm0,20.14a1,1,0,0,1,1-1h2a1,1,0,0,1,0,2h-2A1,1,0,0,1,24.75,48.11Z"/>
          <path class="cls-27" d="M64.44,44.62v-2a1,1,0,0,1,2,0v2a1,1,0,1,1-2,0Zm0-6v-2a1,1,0,1,1,2,0v2a1,1,0,1,1-2,0Zm0-6v-2a1,1,0,1,1,2,0v2a1,1,0,0,1-2,0ZM69.75,29h-2a1,1,0,0,1,0-2h2a1,1,0,1,1,0,2Zm0,20.14h-2a1,1,0,0,1,0-2h2a1,1,0,1,1,0,2Z"/>
          <g>
            <circle id="center-2" data-name="center" class="cls-27" cx="47.75" cy="58.94" r="2.54"/>
            <path id="up-2" data-name="up" class="cls-27" d="M46,54.22c-.43,0-.6-.3-.39-.67l1.75-3.07a.41.41,0,0,1,.77,0l1.78,3.05c.22.37.05.67-.38.68Z"/>
            <path id="down-2" data-name="down" class="cls-27" d="M46,63.67c-.43,0-.6.3-.39.67l1.75,3.07a.41.41,0,0,0,.77,0l1.78-3c.22-.37.05-.68-.38-.68Z"/>
            <path id="right-2" data-name="right" class="cls-27" d="M52.48,57.18c0-.43.3-.6.67-.39l3.07,1.75a.41.41,0,0,1,0,.77l-3,1.78c-.37.22-.68,0-.68-.38Z"/>
            <path id="left-2" data-name="left" class="cls-27" d="M43,57.18c0-.43-.3-.6-.67-.39l-3.07,1.75a.41.41,0,0,0,0,.77l3,1.78c.37.22.67,0,.68-.38Z"/>
          </g>
        </g>
        <g id="Rot360_Handle">
          <line class="cls-24" x1="48.01" y1="44.99" x2="48.01" y2="8.13"/>
          <circle id="RotationCenter" class="cls-17" cx="48.01" cy="47.99" r="3"/>
          <circle id="Btn2_HandleAcc0" class="cls-28" cx="48.01" cy="8.13" r="5"/>
        </g>
      </g>
    </g>
    <g id="Ev_ProxH_bas">
      <g id="ProxZones">
        <path id="Btn3_ProxLeft" class="cls-29" d="M11.54,21.06a1.18,1.18,0,0,1-.39-.87,1.22,1.22,0,0,1,.37-.9A45.86,45.86,0,0,1,31.05,8a1.33,1.33,0,0,1,.34,0,1.23,1.23,0,0,1,1.18.88l4.7,16.23a34.46,34.46,0,0,0-12.58,8.14Z"/>
        <path id="Btn3_ProxFront" class="cls-29" d="M35.51,8.09a1.13,1.13,0,0,1,.14-.93,1.24,1.24,0,0,1,.81-.55,60.68,60.68,0,0,1,22.69,0,1.28,1.28,0,0,1,.82.55,1.13,1.13,0,0,1,.13.93L55.34,24.28a33.4,33.4,0,0,0-15.06,0Z"/>
        <path id="Btn3_ProxRight" class="cls-29" d="M84.08,21.06a1.26,1.26,0,0,0,.39-.87,1.23,1.23,0,0,0-.38-.9A45.89,45.89,0,0,0,64.57,8a1.41,1.41,0,0,0-.35,0,1.21,1.21,0,0,0-1.17.88l-4.7,16.23a34.5,34.5,0,0,1,12.57,8.14Z"/>
        <path id="Btn3_ProxBack" class="cls-29" d="M59.33,72.11l4.76,16.74a1.2,1.2,0,0,1-.13,1,1.24,1.24,0,0,1-.82.57,105.29,105.29,0,0,1-15.33,1.11,106.66,106.66,0,0,1-15.43-1.11,1.24,1.24,0,0,1-.82-.57,1.2,1.2,0,0,1-.13-1l4.76-16.74Z"/>
      </g>
      <g id="Bg_Thymio_top">
        <path class="cls-15" d="M47.78,26.55a29.25,29.25,0,0,0-20.7,8.5,2.13,2.13,0,0,0-.61,1.51l0,30.8a1.78,1.78,0,0,0,1.77,1.78l39.06,0a1.78,1.78,0,0,0,1.78-1.78l0-30.8a2.13,2.13,0,0,0-.61-1.51A29.22,29.22,0,0,0,47.78,26.55Z"/>
        <g>
          <circle class="cls-30" cx="47.76" cy="58.67" r="2.66"/>
          <path class="cls-16" d="M48.49,57.19A1.67,1.67,0,0,1,47,59.61a1.57,1.57,0,0,1-.68-.15,1.67,1.67,0,1,0,2.18-2.27Z"/>
        </g>
        <path class="cls-27" d="M63.38,50.06a.87.87,0,0,1,.88.88v1.78a.89.89,0,1,1-1.77,0V50.94A.88.88,0,0,1,63.38,50.06Zm0,5.32a.88.88,0,0,1,.88.89v1.78a.89.89,0,0,1-1.77,0V56.27A.89.89,0,0,1,63.38,55.38Zm0,5.33a.88.88,0,0,1,.88.89v1.77a.89.89,0,1,1-1.77,0V61.6A.89.89,0,0,1,63.38,60.71Zm4.69,4.94a.88.88,0,0,1-.89.88H65.4a.89.89,0,0,1,0-1.77h1.78A.89.89,0,0,1,68.07,65.65Zm0-17.79a.89.89,0,0,1-.89.89H65.4a.89.89,0,0,1,0-1.78h1.78A.89.89,0,0,1,68.07,47.86Z"/>
        <path class="cls-27" d="M33,50.94v1.78a.89.89,0,1,1-1.77,0V50.94a.89.89,0,0,1,1.77,0Zm0,5.33v1.78a.89.89,0,0,1-1.77,0V56.27a.89.89,0,1,1,1.77,0Zm0,5.33v1.77a.89.89,0,1,1-1.77,0V61.6a.89.89,0,1,1,1.77,0Zm-4.69,3.16h1.78a.89.89,0,0,1,0,1.77H28.33a.89.89,0,1,1,0-1.77Zm0-17.79h1.78a.89.89,0,0,1,0,1.78H28.33a.89.89,0,1,1,0-1.78Z"/>
      </g>
    </g>
    <g id="Ev_ProxH_Front_med">
      <g id="ProxSignals">
        <g id="Prox2_signal">
          <path id="p2-signal" class="cls-31" d="M49.94,42.22l1.74-18.59a24.34,24.34,0,0,0-7.23,0l1.75,18.6A23.35,23.35,0,0,1,49.94,42.22Z"/>
          <path id="p2-reflection" class="cls-32" d="M44.56,24.35,42.44,45.16a51.41,51.41,0,0,0,11.16,0L51.53,24.35Z"/>
        </g>
        <g id="Prox1_signal">
          <path id="p1-signal" class="cls-31" d="M39.51,43.38,35.1,25.23a24.57,24.57,0,0,0-6.83,2.35l7.7,17A23.5,23.5,0,0,1,39.51,43.38Z"/>
          <path id="p1-reflection" class="cls-32" d="M28.61,28.24,33.38,48.6c1.4-.05,9.41-2.81,10.55-3.62L35.2,26Z"/>
        </g>
        <g id="Prox0_signal">
          <path id="p0-signal" class="cls-31" d="M30.12,48.1,20,32.37a24.29,24.29,0,0,0-5.69,4.45L27.17,50.4A22.67,22.67,0,0,1,30.12,48.1Z"/>
          <path id="p0-reflection" class="cls-32" d="M14.88,37.33,26,55a51.68,51.68,0,0,0,8.79-6.86L20.37,33Z"/>
        </g>
        <g id="Prox3_signal">
          <path id="p3-signal" class="cls-31" d="M56.53,43.38l4.41-18.15a24.57,24.57,0,0,1,6.83,2.35l-7.7,17A22.76,22.76,0,0,0,56.53,43.38Z"/>
          <path id="p3-reflection" class="cls-32" d="M67.43,28.24,62.66,48.6c-1.4-.05-9.41-2.81-10.55-3.62l8.73-19Z"/>
        </g>
        <g id="Prox4_signal">
          <path id="p4-signal" class="cls-31" d="M65.92,48.1,76,32.37a24.55,24.55,0,0,1,5.7,4.45L68.87,50.4A22.67,22.67,0,0,0,65.92,48.1Z"/>
          <path id="p4-reflection" class="cls-32" d="M81.16,37.33,70,55a51.68,51.68,0,0,1-8.79-6.86L75.67,33Z"/>
        </g>
      </g>
      <g id="Bg_Thymio_top-2" data-name="Bg_Thymio_top">
        <path class="cls-14" d="M48.06,42.18a30.79,30.79,0,0,0-21.8,9,2.26,2.26,0,0,0-.65,1.59l0,32.44A1.87,1.87,0,0,0,27.45,87l41.14,0a1.87,1.87,0,0,0,1.87-1.87l0-32.44a2.25,2.25,0,0,0-.64-1.59A30.75,30.75,0,0,0,48.06,42.18Z"/>
        <g>
          <circle class="cls-30" cx="48.03" cy="76.01" r="2.8"/>
          <path class="cls-16" d="M48.81,74.45a1.73,1.73,0,0,1,.19.78A1.77,1.77,0,0,1,47.23,77a1.8,1.8,0,0,1-.73-.15,1.77,1.77,0,1,0,2.31-2.4Z"/>
        </g>
      </g>
      <g id="ProxLed">
        <line id="Btn3_LedProx4" class="cls-33" x1="63.42" y1="50.21" x2="67.6" y2="53.48"/>
        <line id="Btn3_LedProx3" class="cls-33" x1="54.65" y1="46.21" x2="59.69" y2="47.85"/>
        <line id="Btn3_LedProx2" class="cls-33" x1="45.38" y1="45.47" x2="50.69" y2="45.47"/>
        <line id="Btn3_LedProx1" class="cls-33" x1="41.42" y1="46.21" x2="36.37" y2="47.85"/>
        <line id="Btn3_LedProx0" class="cls-33" x1="32.65" y1="50.21" x2="28.47" y2="53.48"/>
      </g>
      <g id="ProxOff-2" data-name="ProxOff">
        <rect id="Btn3_Prox2" class="cls-34" x="42.44" y="12.2" width="11.15" height="11.15"/>
        <rect id="Btn3_Prox0" class="cls-34" x="8.06" y="24.23" width="11.25" height="11.25" transform="translate(-15.48 14.75) rotate(-38)"/>
        <rect id="Btn3_Prox1" class="cls-34" x="24.16" y="15.55" width="10.96" height="10.95" transform="translate(-5.23 10.79) rotate(-19)"/>
        <rect id="Btn3_Prox4" class="cls-34" x="76.73" y="24.23" width="11.25" height="11.25" transform="translate(8.12 76.38) rotate(-52)"/>
        <rect id="Btn3_Prox3" class="cls-34" x="60.93" y="15.55" width="10.95" height="10.96" transform="translate(24.9 76.97) rotate(-71)"/>
      </g>
    </g>
    <g id="ColorTop_basic">
      <g id="ColorPalette">
        <rect id="Btn2_Green" class="cls-35" x="12.01" y="8.08" width="17.96" height="17.96"/>
        <rect id="Btn2_Blue" class="cls-36" x="29.98" y="8.08" width="17.96" height="17.96"/>
        <rect id="Btn2_Red" class="cls-37" x="47.94" y="8.08" width="17.96" height="17.96"/>
        <rect id="Btn2_Yellow" class="cls-38" x="12.01" y="26.04" width="17.96" height="17.96"/>
        <rect id="Btn2_Cyan" class="cls-39" x="47.94" y="26.04" width="17.96" height="17.96"/>
        <rect id="Btn2_Magenta" class="cls-40" x="29.98" y="26.04" width="17.96" height="17.96"/>
        <g id="Btn2_NoColor">
          <rect class="cls-9" x="65.9" y="26.04" width="17.96" height="17.96"/>
          <polygon class="cls-41" points="67.32 44.01 65.9 44.01 65.9 42.59 82.45 26.04 83.86 26.04 83.86 27.46 67.32 44.01"/>
        </g>
        <rect id="Btn2_White_Select" class="cls-42" x="65.9" y="8.08" width="17.96" height="17.96"/>
      </g>
      <g id="Bg_Thymio_front_color">
        <path class="cls-43" d="M85.92,84v3.18a1.27,1.27,0,0,1-1.27,1.27H76.47a1.27,1.27,0,0,1-1.27-1.27V84Z"/>
        <path class="cls-43" d="M21,84v3.18A1.27,1.27,0,0,1,19.7,88.4H11.53a1.27,1.27,0,0,1-1.27-1.27V84Z"/>
        <rect class="cls-44" x="8.01" y="53.96" width="80" height="30" rx="2"/>
        <path class="cls-17" d="M69.6,69.11H62.1a1,1,0,0,1,0-2h7.5a1,1,0,0,1,0,2Z"/>
        <path class="cls-17" d="M84.34,69.11h-6a1,1,0,0,1,0-2h6a1,1,0,0,1,0,2Z"/>
        <path class="cls-17" d="M33.93,69.11H26.42a1,1,0,0,1,0-2h7.51a1,1,0,0,1,0,2Z"/>
        <path class="cls-17" d="M17.67,69.11h-6a1,1,0,1,1,0-2h6a1,1,0,0,1,0,2Z"/>
        <path class="cls-43" d="M43.06,84c.69.65.75,2.65,1.95,3.61a4.9,4.9,0,0,0,3,.83,4.92,4.92,0,0,0,3-.83c1.17-1,1.23-3,1.92-3.61Z"/>
        <path class="cls-17" d="M52.4,69.11H43.47a1,1,0,0,1,0-2H52.4a1,1,0,0,1,0,2Z"/>
      </g>
      <rect id="Gradient_Top_basic" class="cls-45" x="9.01" y="54.96" width="77.99" height="12.09" rx="0.75"/>
      <g id="SelectedColors">
        <rect id="Btn2_SelectedWhite" class="cls-26" x="65.41" y="7.58" width="18.94" height="18.95"/>
        <rect id="Btn2_SelectedRed" class="cls-26" x="47.42" y="7.55" width="19" height="19"/>
        <rect id="Btn2_SelectedBlue" class="cls-26" x="29.49" y="7.58" width="18.94" height="18.95"/>
        <rect id="Btn2_SelectedGreen" class="cls-26" x="11.49" y="7.55" width="19" height="19"/>
        <rect id="Btn2_SelectedNone" class="cls-26" x="65.38" y="25.52" width="19" height="19"/>
        <rect id="Btn2_SelectedYel" class="cls-26" x="47.42" y="25.52" width="19" height="19"/>
        <rect id="Btn2_SelectedMagenta" class="cls-26" x="29.46" y="25.52" width="19" height="19"/>
        <rect id="Btn2_SelectedCyan" class="cls-26" x="11.49" y="25.52" width="19" height="19"/>
      </g>
    </g>
    <g id="ColorBottom_basic">
      <g id="ColorPalette-2" data-name="ColorPalette">
        <rect id="Btn2_Green-2" data-name="Btn2_Green" class="cls-35" x="12.01" y="52.08" width="17.96" height="17.96"/>
        <rect id="Btn2_Blue-2" data-name="Btn2_Blue" class="cls-36" x="29.98" y="52.08" width="17.96" height="17.96"/>
        <rect id="Btn2_Red-2" data-name="Btn2_Red" class="cls-37" x="47.94" y="52.08" width="17.96" height="17.96"/>
        <rect id="Btn2_Yellow-2" data-name="Btn2_Yellow" class="cls-46" x="12.01" y="70.05" width="17.96" height="17.96"/>
        <rect id="Btn2_Cyan-2" data-name="Btn2_Cyan" class="cls-39" x="47.94" y="70.05" width="17.96" height="17.96"/>
        <rect id="Btn2_Magenta-2" data-name="Btn2_Magenta" class="cls-40" x="29.98" y="70.05" width="17.96" height="17.96"/>
        <g id="Btn2_NoColor-2" data-name="Btn2_NoColor">
          <rect class="cls-47" x="65.9" y="70.05" width="17.96" height="17.96"/>
          <polygon class="cls-41" points="67.32 88.01 65.9 88.01 65.9 86.6 82.45 70.05 83.86 70.04 83.86 71.46 67.32 88.01"/>
        </g>
        <rect id="Btn2_White_Select-2" data-name="Btn2_White_Select" class="cls-42" x="65.9" y="52.08" width="17.96" height="17.96"/>
      </g>
      <g id="Bg_Thymio_front_color-2" data-name="Bg_Thymio_front_color">
        <path class="cls-43" d="M85.92,38.93V42.1a1.28,1.28,0,0,1-1.27,1.28H76.47A1.28,1.28,0,0,1,75.2,42.1V38.93Z"/>
        <path class="cls-43" d="M21,38.93V42.1a1.28,1.28,0,0,1-1.28,1.28H11.53a1.28,1.28,0,0,1-1.27-1.28V38.93Z"/>
        <rect class="cls-14" x="8.01" y="8.93" width="80" height="30" rx="2"/>
        <line class="cls-23" x1="62.1" y1="23.08" x2="69.6" y2="23.08"/>
        <line class="cls-23" x1="78.36" y1="23.08" x2="84.34" y2="23.08"/>
        <line class="cls-23" x1="33.93" y1="23.08" x2="26.42" y2="23.08"/>
        <line class="cls-23" x1="17.67" y1="23.08" x2="11.69" y2="23.08"/>
        <path class="cls-43" d="M43.06,38.93c.69.66.75,2.65,1.95,3.62a4.86,4.86,0,0,0,3,.82,5,5,0,0,0,3-.82c1.17-1,1.23-3,1.92-3.62Z"/>
        <line class="cls-23" x1="43.47" y1="23.08" x2="52.4" y2="23.08"/>
      </g>
      <rect id="Gradient_Bottom_basic" class="cls-48" x="8.99" y="24.1" width="78.04" height="13.9" rx="1"/>
      <g id="SelectedColors_bottom">
        <rect id="Btn2_SelectedWhite-2" data-name="Btn2_SelectedWhite" class="cls-26" x="65.98" y="52.08" width="17.96" height="17.97"/>
        <rect id="Btn2_SelectedRed-2" data-name="Btn2_SelectedRed" class="cls-26" x="48.01" y="52.08" width="17.96" height="17.97"/>
        <rect id="Btn2_SelectedBlue-2" data-name="Btn2_SelectedBlue" class="cls-26" x="30.05" y="52.08" width="17.96" height="17.97"/>
        <rect id="Btn2_SelectedGreen-2" data-name="Btn2_SelectedGreen" class="cls-26" x="12.09" y="52.08" width="17.96" height="17.97"/>
        <rect id="Btn2_SelectedNone-2" data-name="Btn2_SelectedNone" class="cls-26" x="65.98" y="70.04" width="17.96" height="17.97"/>
        <rect id="Btn2_SelectedYel-2" data-name="Btn2_SelectedYel" class="cls-26" x="48.01" y="70.04" width="17.96" height="17.97"/>
        <rect id="Btn2_SelectedMagenta-2" data-name="Btn2_SelectedMagenta" class="cls-26" x="30.05" y="70.04" width="17.96" height="17.97"/>
        <rect id="Btn2_SelectedCyan-2" data-name="Btn2_SelectedCyan" class="cls-26" x="12.09" y="70.04" width="17.96" height="17.97"/>
      </g>
    </g>
    <g id="Ac_Directions">
      <g id="DirectionArrows">
        <polygon id="Btn2_FwdDir" class="cls-8" points="44.06 25.43 44.06 15.79 40.35 15.79 48.06 2.43 55.78 15.79 52.06 15.79 52.06 25.43 44.06 25.43"/>
        <path id="Btn2_FwdRightDir" class="cls-8" d="M60,27.12l.45-.68a27.89,27.89,0,0,1,6.88-7.2l-2-3.32,15.43-.14L73.21,29.21l-1.79-3a20.36,20.36,0,0,0-4.92,5.67L65.85,33Z"/>
        <path id="Btn2_BwdRightDir" class="cls-8" d="M65.37,79.73l2-3.32a27.89,27.89,0,0,1-6.88-7.2L60,68.53l5.85-5.85.65,1.12a20.2,20.2,0,0,0,4.92,5.67l1.79-3L80.8,79.87Z"/>
        <polygon id="Btn2_BwdDir" class="cls-8" points="40.35 79.86 44.06 79.86 44.06 70.22 52.06 70.22 52.06 79.86 55.78 79.86 48.06 93.22 40.35 79.86"/>
        <path id="Btn2_BwdLeftDir" class="cls-8" d="M22.92,66.44l1.79,3a20.17,20.17,0,0,0,4.91-5.67l.66-1.12,5.85,5.85-.45.68a27.89,27.89,0,0,1-6.88,7.2l2,3.32-15.43.14Z"/>
        <path id="Btn2_FwdLeftDir" class="cls-8" d="M29.62,31.85a20.17,20.17,0,0,0-4.91-5.67l-1.79,3L15.33,15.78l15.43.14-2,3.32a27.89,27.89,0,0,1,6.88,7.2l.45.68L30.28,33Z"/>
        <g id="Stop">
          <circle id="Btn2_StopDir" class="cls-8" cx="48.07" cy="47.84" r="9"/>
          <rect id="StopSign" class="cls-41" x="44" y="44" width="8" height="8"/>
        </g>
        <path id="Btn2_LeftDir" class="cls-8" d="M30.07,54.38l-13.81-8v4h-.57a4.16,4.16,0,1,1,2.73-7.29l5.26-6a12.16,12.16,0,1,0-8,21.32h.57v4Z"/>
        <path id="Btn2_RightDir" class="cls-8" d="M65.82,54.38l13.81-8v4h.58a4.16,4.16,0,1,0-2.73-7.29l-5.27-6a12.16,12.16,0,1,1,8,21.32h-.58v4Z"/>
      </g>
    </g>
    <g id="Ac_Wheels">
      <g id="Sliders">
        <g id="Slid_right">
          <g id="sliderBg_R">
            <line id="SliderR_range" class="cls-26" x1="80.06" y1="19.02" x2="80.06" y2="77.02"/>
            <line class="cls-49" x1="80.06" y1="13.04" x2="80.06" y2="83"/>
            <polygon class="cls-25" points="76.58 13.04 80.06 7 83.56 13.04 76.58 13.04"/>
            <polygon class="cls-25" points="76.58 83 80.06 89.04 83.56 83 76.58 83"/>
          </g>
          <g id="Cursor_right">
            <circle id="CursorRight" class="cls-28" cx="80.06" cy="48.02" r="6"/>
            <circle id="SameSpeed_R" class="cls-17" cx="80.06" cy="48.02" r="2"/>
          </g>
          <rect id="StopIndicator_R" class="cls-41" x="77.98" y="45.89" width="4.27" height="4.27"/>
        </g>
        <g id="Slid_left">
          <g id="sliderBg_L">
            <line id="SliderL_range" class="cls-26" x1="16.21" y1="19.02" x2="16.21" y2="77.02"/>
            <line class="cls-49" x1="16.21" y1="13.04" x2="16.21" y2="83"/>
            <polygon class="cls-25" points="12.75 13.04 16.24 7 19.73 13.04 12.75 13.04"/>
            <polygon class="cls-25" points="12.72 83 16.21 89.04 19.7 83 12.72 83"/>
          </g>
          <g id="Cursor_left">
            <circle id="CursorLeft" class="cls-28" cx="16.21" cy="48.02" r="6"/>
            <circle id="SameSpeed_L" class="cls-17" cx="16.21" cy="48.02" r="2"/>
          </g>
          <rect id="StopIndicator_L" class="cls-41" x="14.13" y="45.89" width="4.27" height="4.27"/>
        </g>
      </g>
      <g id="ThymioTop_wheels_mini">
        <path class="cls-15" d="M48,35.24a12.34,12.34,0,0,0-8.73,3.59.9.9,0,0,0-.26.64l0,13a.76.76,0,0,0,.75.75l16.49,0a.76.76,0,0,0,.75-.75v-13a.93.93,0,0,0-.25-.64A12.42,12.42,0,0,0,48,35.24Z"/>
        <g>
          <rect class="cls-50" x="54.09" y="44.26" width="2.93" height="7.49" rx="1.12"/>
          <path class="cls-17" d="M55.9,52.25h-.69a1.82,1.82,0,0,1-.52-.08.51.51,0,0,1-.31-.64.5.5,0,0,1,.63-.31.69.69,0,0,0,.2,0h.68a.5.5,0,0,1,.5.5A.49.49,0,0,1,55.9,52.25ZM57,50.79a.51.51,0,0,1-.5-.5v-1a.5.5,0,0,1,.5-.5.5.5,0,0,1,.5.5v1A.5.5,0,0,1,57,50.79Zm-2.92-.36a.5.5,0,0,1-.5-.5v-1a.5.5,0,0,1,.5-.5.5.5,0,0,1,.5.5v1A.5.5,0,0,1,54.09,50.43ZM57,47.64a.51.51,0,0,1-.5-.5v-1a.5.5,0,0,1,.5-.5.5.5,0,0,1,.5.5v1A.5.5,0,0,1,57,47.64Zm-2.92-.36a.5.5,0,0,1-.5-.5V45.73a.5.5,0,0,1,.5-.5.5.5,0,0,1,.5.5v1.05A.5.5,0,0,1,54.09,47.28Zm2.16-2.46-.16,0a.64.64,0,0,0-.2,0h-.68a.51.51,0,0,1-.51-.5.5.5,0,0,1,.5-.5h.69a1.6,1.6,0,0,1,.53.09.49.49,0,0,1,.31.63A.5.5,0,0,1,56.25,44.82Z"/>
        </g>
        <g>
          <rect class="cls-50" x="39.01" y="44.26" width="2.93" height="7.49" rx="1.12"/>
          <path class="cls-17" d="M40.82,52.25h-.68a1.82,1.82,0,0,1-.52-.08.51.51,0,0,1-.31-.64.5.5,0,0,1,.63-.31.64.64,0,0,0,.2,0h.68a.51.51,0,0,1,.5.5A.5.5,0,0,1,40.82,52.25Zm1.12-1.46a.51.51,0,0,1-.5-.5v-1a.5.5,0,0,1,.5-.5.5.5,0,0,1,.5.5v1A.5.5,0,0,1,41.94,50.79ZM39,50.43a.5.5,0,0,1-.5-.5v-1a.5.5,0,0,1,.5-.5.5.5,0,0,1,.5.5v1A.5.5,0,0,1,39,50.43Zm2.93-2.79a.51.51,0,0,1-.5-.5v-1a.5.5,0,0,1,.5-.5.5.5,0,0,1,.5.5v1A.5.5,0,0,1,41.94,47.64ZM39,47.28a.5.5,0,0,1-.5-.5V45.73a.5.5,0,0,1,.5-.5.5.5,0,0,1,.5.5v1.05A.5.5,0,0,1,39,47.28Zm2.17-2.46a.45.45,0,0,1-.16,0,.64.64,0,0,0-.2,0h-.68a.51.51,0,0,1-.51-.5.5.5,0,0,1,.56-.5h.63a1.77,1.77,0,0,1,.52.08.51.51,0,0,1,.31.64A.49.49,0,0,1,41.18,44.82Z"/>
        </g>
      </g>
    </g>
    <g id="Color_top_adv">
      <circle id="Bg_gradient_top" class="cls-51" cx="48.01" cy="30.06" r="28"/>
      <g id="Bg_Thymio_front_color-3" data-name="Bg_Thymio_front_color">
        <path class="cls-43" d="M82.13,86.61v2.85A1.14,1.14,0,0,1,81,90.61H73.63a1.14,1.14,0,0,1-1.15-1.15V86.61Z"/>
        <path class="cls-43" d="M23.68,86.61v2.85a1.14,1.14,0,0,1-1.15,1.15H15.18A1.15,1.15,0,0,1,14,89.46V86.61Z"/>
        <rect class="cls-44" x="12.01" y="59.61" width="72" height="27" rx="2"/>
        <path class="cls-17" d="M67.44,73.35H60.69a1,1,0,0,1,0-2h6.75a1,1,0,0,1,0,2Z"/>
        <path class="cls-17" d="M80.7,73.35H75.33a1,1,0,0,1,0-2H80.7a1,1,0,1,1,0,2Z"/>
        <path class="cls-17" d="M35.34,73.35H28.58a1,1,0,0,1,0-2h6.76a1,1,0,0,1,0,2Z"/>
        <path class="cls-17" d="M20.7,73.35H15.32a1,1,0,1,1,0-2H20.7a1,1,0,1,1,0,2Z"/>
        <path class="cls-43" d="M43.56,86.61c.62.59.67,2.39,1.75,3.26a4.39,4.39,0,0,0,2.71.74,4.56,4.56,0,0,0,2.72-.74c1-.89,1.11-2.67,1.73-3.26Z"/>
        <path class="cls-17" d="M52,73.35h-8a1,1,0,0,1,0-2h8a1,1,0,1,1,0,2Z"/>
      </g>
      <rect id="Gradient_top" class="cls-52" x="13.03" y="60.65" width="69.95" height="10.68" rx="0.75"/>
      <g id="Sliders_rgb">
        <g id="Slid_blue">
          <line id="Bg_slid_blue" class="cls-53" x1="20.01" y1="48.06" x2="76.01" y2="48.06"/>
          <line id="Slid_blue_value" class="cls-54" x1="20.01" y1="48.06" x2="76.01" y2="48.06"/>
          <circle id="Cursor_blue" class="cls-55" cx="48.01" cy="48.01" r="5"/>
        </g>
        <g id="Slid_green">
          <line id="Bg_slid_green" class="cls-53" x1="20.01" y1="30.02" x2="76.01" y2="30.02"/>
          <line id="Slid_green_value" class="cls-56" x1="20.01" y1="30.06" x2="76.01" y2="30.06"/>
          <circle id="Cursor_green" class="cls-57" cx="48.01" cy="30.06" r="5"/>
        </g>
        <g id="Slid_red">
          <line id="Bg_slid_red" class="cls-53" x1="20.01" y1="12.06" x2="76.01" y2="12.06"/>
          <line id="Slid_red_value" class="cls-58" x1="20.01" y1="12.06" x2="76.01" y2="12.06"/>
          <circle id="Cursor_red" class="cls-59" cx="48.01" cy="12.06" r="5"/>
        </g>
      </g>
    </g>
    <g id="Ac_Music_med">
      <g id="zones_Bg">
        <rect class="cls-60" x="11.29" y="74.47" width="72" height="10"/>
        <rect class="cls-60" x="11.29" y="62.45" width="72" height="10"/>
        <rect class="cls-60" x="11.29" y="50.43" width="72" height="10"/>
        <rect class="cls-60" x="11.29" y="38.41" width="72" height="10"/>
        <rect class="cls-60" x="11.29" y="26.38" width="72" height="10"/>
      </g>
      <g id="notes">
        <circle id="Btn3_note1" class="cls-61" cx="17.61" cy="79.47" r="5"/>
        <circle id="Btn3_note2" class="cls-62" cx="29.22" cy="67.45" r="5"/>
        <circle id="Btn3_note3" class="cls-63" cx="40.83" cy="55.43" r="5"/>
        <circle id="Btn3_note4" class="cls-63" cx="52.44" cy="43.41" r="5"/>
        <circle id="Btn3_note5" class="cls-63" cx="64.05" cy="31.38" r="5"/>
        <circle id="Btn3_note6" class="cls-63" cx="75.65" cy="43.41" r="5"/>
      </g>
      <g id="Slider">
        <line id="slid_off" class="cls-24" x1="84.03" y1="12.84" x2="25.9" y2="12.84"/>
        <circle id="cursor" class="cls-64" cx="54.97" cy="12.84" r="5"/>
      </g>
      <g id="beat">
        <path class="cls-17" d="M23.12,10.87a.25.25,0,0,1,.09.2v.82a.31.31,0,0,1-.29.29h-3.7a.27.27,0,0,1-.29-.29v-.82a.31.31,0,0,1,.29-.29h3.7A.25.25,0,0,1,23.12,10.87Z"/>
        <path class="cls-17" d="M23.12,13.59a.29.29,0,0,1,.09.21v.81a.29.29,0,0,1-.09.21.28.28,0,0,1-.2.08h-3.7a.25.25,0,0,1-.21-.08.29.29,0,0,1-.08-.21V13.8a.29.29,0,0,1,.09-.21.28.28,0,0,1,.2-.08h3.7A.28.28,0,0,1,23.12,13.59Z"/>
        <path id="note_Bg" class="cls-17" d="M16,7.57h0a.67.67,0,0,0-.66.66v6.25a2.61,2.61,0,0,0-2.22-.21,2.7,2.7,0,0,0-1.74,2,2.67,2.67,0,0,0,3.06,3.1,2.72,2.72,0,0,0,2.23-2.73V8.23A.66.66,0,0,0,16,7.57Z"/>
      </g>
    </g>
  </g>
</svg>
