<svg xmlns="http://www.w3.org/2000/svg" xmlns:xlink="http://www.w3.org/1999/xlink" viewBox="0 0 48 48">
  <defs>
    <style>
      .cls-1 {
        opacity: 0.1;
        fill: url(#radial-gradient);
      }

      .cls-2 {
        fill: #fff;
      }

      .cls-3, .cls-4, .cls-5 {
        fill: none;
      }

      .cls-10, .cls-12, .cls-4, .cls-9 {
        stroke: #90a4ae;
      }

      .cls-4 {
        stroke-linejoin: round;
      }

      .cls-5 {
        stroke: #84edcf;
        stroke-linecap: round;
      }

      .cls-10, .cls-11, .cls-12, .cls-5, .cls-8, .cls-9 {
        stroke-miterlimit: 10;
      }

      .cls-6 {
        fill: #263238;
      }

      .cls-7 {
        fill: #455a64;
      }

      .cls-8, .cls-9 {
        fill: #84edcf;
      }

      .cls-11, .cls-8 {
        stroke: #263238;
      }

      .cls-10 {
        fill: #ff5252;
      }

      .cls-11, .cls-12, .cls-13 {
        fill: #ffeb3b;
      }

      .cls-14 {
        fill: #ff1744;
      }
    </style>
    <radialGradient id="radial-gradient" cx="24" cy="24" r="22" gradientUnits="userSpaceOnUse">
      <stop offset="0"/>
      <stop offset="0.86" stop-opacity="0.56"/>
      <stop offset="1" stop-opacity="0.05"/>
    </radialGradient>
  </defs>
  <title>Asset 74UI_icons</title>
  <g id="Layer_2" data-name="Layer 2">
    <g id="Pressed_bg">
      <circle id="shadow" class="cls-1" cx="24" cy="24" r="22"/>
      <circle id="whiteCircle" class="cls-2" cx="24" cy="24" r="21"/>
      <rect id="frame" class="cls-3" width="48" height="48"/>
    </g>
    <g id="Circle_bg">
      <circle id="Circle" class="cls-4" cx="24" cy="24" r="21"/>
      <rect id="frame-2" data-name="frame" class="cls-3" width="48" height="48"/>
    </g>
    <g id="Selected_bg">
      <circle class="cls-5" cx="24" cy="24" r="21"/>
      <rect id="frame-3" data-name="frame" class="cls-3" width="48" height="48"/>
    </g>
    <g id="ic_new">
      <g id="new_highlight">
        <path id="new_Path" class="cls-6" d="M33,23H25V15a1,1,0,0,0-2,0v8H15a1,1,0,0,0,0,2h8v8a1,1,0,0,0,2,0V25h8a1,1,0,0,0,0-2Z"/>
        <rect id="frame-4" data-name="frame" class="cls-3" width="48" height="48"/>
      </g>
      <g id="new_default">
        <path id="new_Path-2" data-name="new_Path" class="cls-7" d="M33,23H25V15a1,1,0,0,0-2,0v8H15a1,1,0,0,0,0,2h8v8a1,1,0,0,0,2,0V25h8a1,1,0,0,0,0-2Z"/>
        <rect id="frame-5" data-name="frame" class="cls-3" width="48" height="48"/>
      </g>
    </g>
    <g id="ic_download">
      <g id="download_highlight">
        <path class="cls-6" d="M31.78,23.22a1,1,0,0,0-1.41,0L25,28.59V11a1,1,0,0,0-2,0V28.58l-5.36-5.36a1,1,0,0,0-1.42,0,1,1,0,0,0,0,1.41l7.07,7.08a1,1,0,0,0,1.42,0l7.07-7.08A1,1,0,0,0,31.78,23.22Z"/>
        <rect class="cls-6" x="14" y="34" width="20" height="2" rx="1"/>
        <rect id="frame-6" data-name="frame" class="cls-3" width="48" height="48"/>
      </g>
      <g id="download_default">
        <path class="cls-7" d="M31.78,23.22a1,1,0,0,0-1.41,0L25,28.59V11a1,1,0,0,0-2,0V28.58l-5.36-5.36a1,1,0,0,0-1.42,0,1,1,0,0,0,0,1.41l7.07,7.08a1,1,0,0,0,1.42,0l7.07-7.08A1,1,0,0,0,31.78,23.22Z"/>
        <rect class="cls-7" x="14" y="34" width="20" height="2" rx="1"/>
        <rect id="frame-7" data-name="frame" class="cls-3" width="48" height="48"/>
      </g>
    </g>
    <g id="ic_open">
      <g id="open_highlight">
        <path class="cls-6" d="M16.22,24.78a1,1,0,0,0,1.41,0L23,19.41V37a1,1,0,0,0,2,0V19.41l5.36,5.37a1,1,0,0,0,1.42-1.42l-7.07-7.07a1,1,0,0,0-1.42,0l-7.07,7.07A1,1,0,0,0,16.22,24.78Z"/>
        <rect class="cls-6" x="14" y="12" width="20" height="2" rx="1" transform="translate(48 26) rotate(180)"/>
        <rect id="frame-8" data-name="frame" class="cls-3" width="48" height="48"/>
      </g>
      <g id="open_default">
        <path class="cls-7" d="M16.22,24.78a1,1,0,0,0,1.41,0L23,19.41V37a1,1,0,0,0,2,0V19.41l5.36,5.37a1,1,0,0,0,1.42-1.42l-7.07-7.07a1,1,0,0,0-1.42,0l-7.07,7.07A1,1,0,0,0,16.22,24.78Z"/>
        <rect class="cls-7" x="14" y="12" width="20" height="2" rx="1" transform="translate(48 26) rotate(180)"/>
        <rect id="frame-9" data-name="frame" class="cls-3" width="48" height="48"/>
      </g>
    </g>
    <g id="ic_TextMode">
      <g id="textMode_highlight">
        <path class="cls-6" d="M19.58,30,14.29,24.7a1,1,0,0,1,0-1.42L19.58,18A1,1,0,0,1,21,18h0a1,1,0,0,1,0,1.41L16.41,24,21,28.57A1,1,0,0,1,21,30h0A1,1,0,0,1,19.58,30Z"/>
        <path class="cls-6" d="M27,30h0a1,1,0,0,1,0-1.42L31.59,24,27,19.41A1,1,0,0,1,27,18h0a1,1,0,0,1,1.42,0l5.29,5.29A1,1,0,0,1,34,24a1.05,1.05,0,0,1-.29.71L28.42,30A1,1,0,0,1,27,30Z"/>
        <rect id="frame-10" data-name="frame" class="cls-3" width="48" height="48"/>
      </g>
      <g id="textMode_default">
        <path class="cls-7" d="M19.58,30,14.29,24.7a1,1,0,0,1,0-1.42L19.58,18A1,1,0,0,1,21,18h0a1,1,0,0,1,0,1.41L16.41,24,21,28.57A1,1,0,0,1,21,30h0A1,1,0,0,1,19.58,30Z"/>
        <path class="cls-7" d="M27,30h0a1,1,0,0,1,0-1.42L31.59,24,27,19.41A1,1,0,0,1,27,18h0a1,1,0,0,1,1.42,0l5.29,5.29A1,1,0,0,1,34,24a1.05,1.05,0,0,1-.29.71L28.42,30A1,1,0,0,1,27,30Z"/>
        <rect id="frame-11" data-name="frame" class="cls-3" width="48" height="48"/>
      </g>
    </g>
    <g id="ic_play">
      <g id="play_highlight">
        <circle class="cls-8" cx="24" cy="24" r="21"/>
        <g>
          <polygon class="cls-2" points="30.1 23.99 20 17.78 20 30.21 30.1 23.99"/>
          <path class="cls-6" d="M19,33a1,1,0,0,1-.49-.13A1,1,0,0,1,18,32V16a1,1,0,0,1,.51-.87,1,1,0,0,1,1,0l13,8A1,1,0,0,1,33,24a1,1,0,0,1-.48.85l-13,8A1,1,0,0,1,19,33Zm1-15.22V30.21L30.1,24Z"/>
        </g>
        <rect id="frame-12" data-name="frame" class="cls-3" width="48" height="48"/>
      </g>
      <g id="play_default">
        <circle class="cls-9" cx="24" cy="24" r="21"/>
        <g>
          <polygon class="cls-2" points="30.1 23.99 20 17.78 20 30.21 30.1 23.99"/>
          <path class="cls-7" d="M19,33a1,1,0,0,1-.49-.13A1,1,0,0,1,18,32V16a1,1,0,0,1,.51-.87,1,1,0,0,1,1,0l13,8A1,1,0,0,1,33,24a1,1,0,0,1-.48.85l-13,8A1,1,0,0,1,19,33Zm1-15.22V30.21L30.1,24Z"/>
        </g>
        <rect id="frame-13" data-name="frame" class="cls-3" width="48" height="48"/>
      </g>
    </g>
    <g id="ic_Stop">
      <g id="stop_default">
        <circle class="cls-10" cx="24" cy="24" r="21"/>
        <rect id="frame-14" data-name="frame" class="cls-3" width="48" height="48"/>
        <g>
          <rect class="cls-2" x="17.5" y="17.5" width="13" height="13"/>
          <path class="cls-7" d="M30.5,32.5h-13a2,2,0,0,1-2-2v-13a2,2,0,0,1,2-2h13a2,2,0,0,1,2,2v13A2,2,0,0,1,30.5,32.5Zm-13-15h0v13h13v-13Z"/>
        </g>
      </g>
    </g>
    <g id="ic_reloadProgram">
      <g id="reload_highlight">
        <circle class="cls-11" cx="24" cy="24" r="21"/>
        <rect id="frame-15" data-name="frame" class="cls-3" width="48" height="48"/>
        <path id="arrow" class="cls-6" d="M34,23a1,1,0,0,0-1,1,9,9,0,1,1-9-9,8.88,8.88,0,0,1,5.65,2H28a1,1,0,0,0,0,2h4a1,1,0,0,0,1-1V14a1,1,0,0,0-2,0v1.52A11,11,0,1,0,24,35,11,11,0,0,0,35,24,1,1,0,0,0,34,23Z"/>
      </g>
      <g id="reload_default">
        <circle class="cls-12" cx="24" cy="24" r="21"/>
        <rect id="frame-16" data-name="frame" class="cls-3" width="48" height="48"/>
        <path id="arrow-2" data-name="arrow" class="cls-7" d="M34,23a1,1,0,0,0-1,1,9,9,0,1,1-9-9,8.88,8.88,0,0,1,5.65,2H28a1,1,0,0,0,0,2h4a1,1,0,0,0,1-1V14a1,1,0,0,0-2,0v1.52A11,11,0,1,0,24,35,11,11,0,0,0,35,24,1,1,0,0,0,34,23Z"/>
      </g>
    </g>
    <g id="ic_connect">
      <g id="robotConnect_highlight">
        <path class="cls-6" d="M36,21H12a2,2,0,0,0-2,2v9a2,2,0,0,0,2,2h2a6.18,6.18,0,0,0,1.54,1.72l.06.05c.19.13.38.26.58.38l.06,0a6.6,6.6,0,0,0,1.37.57l.19.05a4.86,4.86,0,0,0,.55.11l.21,0a5.73,5.73,0,0,0,1.51,0l.21,0a5.35,5.35,0,0,0,.55-.11l.19-.05a6.6,6.6,0,0,0,1.37-.57l.06,0c.2-.12.39-.25.58-.38l.06-.05A6.18,6.18,0,0,0,24.65,34H36a2,2,0,0,0,2-2V23A2,2,0,0,0,36,21ZM22.89,33a2,2,0,0,1-.16.24l-.32.39-.13.13a3.31,3.31,0,0,1-.54.45l-.12.08a4,4,0,0,1-.61.33l-.05,0a4.91,4.91,0,0,1-.71.22l-.15,0a4.22,4.22,0,0,1-1.53,0l-.16,0a5.19,5.19,0,0,1-.7-.22l-.05,0a3.6,3.6,0,0,1-.61-.33l-.12-.08a2.93,2.93,0,0,1-.54-.45,1.59,1.59,0,0,1-.13-.13l-.32-.39L15.78,33a4.22,4.22,0,1,1,7.78-2.26A4.13,4.13,0,0,1,22.89,33ZM36,32H25.44a6.91,6.91,0,0,0,.12-1.22,6.23,6.23,0,0,0-12.45,0A6.91,6.91,0,0,0,13.23,32H12V23H36Z"/>
        <path class="cls-6" d="M34,11a2,2,0,0,0-1.72,1H15.72A2,2,0,0,0,14,11a2,2,0,1,0,1.72,3H32.28A2,2,0,1,0,34,11Z"/>
        <rect id="frame-17" data-name="frame" class="cls-3" width="48" height="48"/>
      </g>
      <g id="robotConnect_default">
        <path class="cls-7" d="M36,21H12a2,2,0,0,0-2,2v9a2,2,0,0,0,2,2h2a6.18,6.18,0,0,0,1.54,1.72l.06.05c.19.13.38.26.58.38l.06,0a6.6,6.6,0,0,0,1.37.57l.19.05a4.86,4.86,0,0,0,.55.11l.21,0a5.73,5.73,0,0,0,1.51,0l.21,0a5.35,5.35,0,0,0,.55-.11l.19-.05a6.6,6.6,0,0,0,1.37-.57l.06,0c.2-.12.39-.25.58-.38l.06-.05A6.18,6.18,0,0,0,24.65,34H36a2,2,0,0,0,2-2V23A2,2,0,0,0,36,21ZM22.89,33a2,2,0,0,1-.16.24l-.32.39-.13.13a3.31,3.31,0,0,1-.54.45l-.12.08a4,4,0,0,1-.61.33l-.05,0a4.91,4.91,0,0,1-.71.22l-.15,0a4.22,4.22,0,0,1-1.53,0l-.16,0a5.19,5.19,0,0,1-.7-.22l-.05,0a3.6,3.6,0,0,1-.61-.33l-.12-.08a2.93,2.93,0,0,1-.54-.45,1.59,1.59,0,0,1-.13-.13l-.32-.39L15.78,33a4.22,4.22,0,1,1,7.78-2.26A4.13,4.13,0,0,1,22.89,33ZM36,32H25.44a6.91,6.91,0,0,0,.12-1.22,6.23,6.23,0,0,0-12.45,0A6.91,6.91,0,0,0,13.23,32H12V23H36Z"/>
        <path class="cls-7" d="M34,11a2,2,0,0,0-1.72,1H15.72A2,2,0,0,0,14,11a2,2,0,1,0,1.72,3H32.28A2,2,0,1,0,34,11Z"/>
        <rect id="frame-18" data-name="frame" class="cls-3" width="48" height="48"/>
      </g>
    </g>
    <g id="ic_disconnect">
      <g id="disconnect_highlight">
        <path class="cls-6" d="M20.11,17.07a1,1,0,0,0,1.42,0L24,14.59l2.48,2.48a1,1,0,1,0,1.41-1.41l-2.47-2.48,2.47-2.47a1,1,0,0,0,0-1.42,1,1,0,0,0-1.41,0L24,11.77,21.53,9.29a1,1,0,0,0-1.42,1.42l2.48,2.47-2.48,2.48A1,1,0,0,0,20.11,17.07Z"/>
        <path class="cls-6" d="M36,21H12a2,2,0,0,0-2,2v9a2,2,0,0,0,2,2h2a6.29,6.29,0,0,0,1.54,1.71l.06,0a5.25,5.25,0,0,0,.58.38l.06,0a6.13,6.13,0,0,0,1.37.58l.19.05.55.11.21,0a5.73,5.73,0,0,0,1.51,0l.21,0,.55-.11.19-.05a6.13,6.13,0,0,0,1.37-.58l.06,0a5.25,5.25,0,0,0,.58-.38l.06,0A6.29,6.29,0,0,0,24.65,34H36a2,2,0,0,0,2-2V23A2,2,0,0,0,36,21ZM22.89,33a1.88,1.88,0,0,1-.16.23,4.16,4.16,0,0,1-.32.39.86.86,0,0,1-.13.14,4.77,4.77,0,0,1-.54.45l-.12.08c-.2.12-.4.23-.61.33l-.05,0a3.92,3.92,0,0,1-.71.22l-.15,0a3.7,3.7,0,0,1-1.53,0l-.16,0a4.07,4.07,0,0,1-.7-.22l-.05,0a5.92,5.92,0,0,1-.61-.33l-.12-.08a4,4,0,0,1-.54-.45.86.86,0,0,1-.13-.14,4.16,4.16,0,0,1-.32-.39,1.88,1.88,0,0,1-.16-.23,4.13,4.13,0,0,1-.67-2.25,4.23,4.23,0,1,1,8.45,0A4.13,4.13,0,0,1,22.89,33ZM36,32H25.44a7.1,7.1,0,0,0,.12-1.22,6.23,6.23,0,1,0-12.45,0A7.1,7.1,0,0,0,13.23,32H12V23H36Z"/>
        <rect id="frame-19" data-name="frame" class="cls-3" width="48" height="48"/>
      </g>
    </g>
    <g id="ic_UI_disable">
      <g id="disable_highlight">
        <path class="cls-6" d="M13.27,30.48l1.41-1.41a14.59,14.59,0,0,1-3.49-4.32,1.63,1.63,0,0,1,0-1.52A14.44,14.44,0,0,1,27.74,16l1.6-1.6a16.26,16.26,0,0,0-5.34-.9A16.51,16.51,0,0,0,9.42,22.29a3.65,3.65,0,0,0,0,3.4A16.56,16.56,0,0,0,13.27,30.48Z"/>
        <path class="cls-6" d="M38.58,22.29a16.49,16.49,0,0,0-5.46-6l2.9-2.9A1,1,0,1,0,34.6,12l-3.26,3.27h0l-1.49,1.5h0L28.18,18.4h0l-1.43,1.44h0l-6.91,6.91h0L18.4,28.17h0l-2.08,2.09h0L14.88,31.7h0L12,34.59A1,1,0,0,0,12,36a1,1,0,0,0,.7.29A1,1,0,0,0,13.4,36l3.27-3.28A16.26,16.26,0,0,0,24,34.47a16.51,16.51,0,0,0,14.58-8.78A3.65,3.65,0,0,0,38.58,22.29ZM29,24a5,5,0,0,1-5,5,4.92,4.92,0,0,1-2.74-.83l6.9-6.9A5,5,0,0,1,29,24Zm7.82.76a14.47,14.47,0,0,1-18.64,6.49l1.66-1.66A6.86,6.86,0,0,0,24,31a7,7,0,0,0,7-7,6.86,6.86,0,0,0-1.4-4.17l2.09-2.09a14.46,14.46,0,0,1,5.13,5.5A1.63,1.63,0,0,1,36.81,24.75Z"/>
        <path class="cls-6" d="M24,19a5.05,5.05,0,0,1,.68.06l1.66-1.65A7,7,0,0,0,17,24a6.73,6.73,0,0,0,.41,2.34l1.65-1.66A5.05,5.05,0,0,1,19,24,5,5,0,0,1,24,19Z"/>
        <rect id="frame-20" data-name="frame" class="cls-3" width="48" height="48"/>
      </g>
    </g>
    <g id="ic_duplicate">
      <g id="duplicate_active">
        <path id="duplicate_path" class="cls-6" d="M35,17H31V13a2,2,0,0,0-2-2H13a2,2,0,0,0-2,2V29a2,2,0,0,0,2,2h4v4a2,2,0,0,0,2,2H35a2,2,0,0,0,2-2V19A2,2,0,0,0,35,17ZM13,29V13H29V29H13Zm22,6H19V31H29a2,2,0,0,0,2-2V19h4ZM25,20H22V17a1,1,0,0,0-2,0v3H17a1,1,0,0,0,0,2h3v3a1,1,0,0,0,2,0V22h3a1,1,0,0,0,0-2Z"/>
        <rect id="frame-21" data-name="frame" class="cls-3" width="48" height="48"/>
      </g>
    </g>
    <g id="ic_delete">
      <g id="delete_default">
        <path id="trash_path" class="cls-6" d="M32.17,15H16a2,2,0,0,0-1.45.63A2,2,0,0,0,14,17.17L15.4,37.11a2,2,0,0,0,2,1.89H30.77a2,2,0,0,0,2-1.89l1.39-19.94a2.09,2.09,0,0,0-.54-1.54A2,2,0,0,0,32.17,15Zm0,2-1.4,20L17.39,37,16,17H32.17Z"/>
        <path id="clap_path" class="cls-6" d="M15,12H33a1,1,0,0,0,0-2H15a1,1,0,0,0,0,2Z"/>
        <rect id="frame-22" data-name="frame" class="cls-3" width="48" height="48"/>
      </g>
      <g id="delete_active">
        <path id="trash_path-2" data-name="trash_path" class="cls-6" d="M32.17,15H16a2,2,0,0,0-1.45.63A2,2,0,0,0,14,17.17L15.4,37.11a2,2,0,0,0,2,1.89H30.77a2,2,0,0,0,2-1.89l1.39-19.94a2.09,2.09,0,0,0-.54-1.54A2,2,0,0,0,32.17,15Zm0,2-1.4,20L17.39,37,16,17H32.17Z"/>
        <path id="clap_path-2" data-name="clap_path" class="cls-6" d="M15.27,11.8,33.05,9a1,1,0,0,0,.83-1.14A1,1,0,0,0,32.73,7L15,9.82a1,1,0,1,0,.32,2Z"/>
        <rect id="frame-23" data-name="frame" class="cls-3" width="48" height="48"/>
      </g>
    </g>
    <g id="ic_undo">
      <g id="undo_highlight">
        <path id="undo_arrow" class="cls-6" d="M24,22H13.41l5.37-5.37a1,1,0,0,0,0-1.41,1,1,0,0,0-1.42,0l-7.07,7.07A1,1,0,0,0,10,23a1,1,0,0,0,.29.71l7.07,7.07a1,1,0,0,0,1.42-1.42L13.41,24H24c8,0,12,3,12,9a1,1,0,0,0,2,0C38,28,35.57,22,24,22Z"/>
        <rect id="frame-24" data-name="frame" class="cls-3" width="48" height="48"/>
      </g>
      <g id="undo_default">
        <path id="undo_arrow-2" data-name="undo_arrow" class="cls-7" d="M24,22H13.41l5.37-5.37a1,1,0,0,0,0-1.41,1,1,0,0,0-1.42,0l-7.07,7.07A1,1,0,0,0,10,23a1,1,0,0,0,.29.71l7.07,7.07a1,1,0,0,0,1.42-1.42L13.41,24H24c8,0,12,3,12,9a1,1,0,0,0,2,0C38,28,35.57,22,24,22Z"/>
        <rect id="frame-25" data-name="frame" class="cls-3" width="48" height="48"/>
      </g>
    </g>
    <g id="ic_redo">
      <g id="redo_highlight">
        <path id="arrow-3" data-name="arrow" class="cls-6" d="M24,22H34.59l-5.37-5.37a1,1,0,0,1,0-1.41,1,1,0,0,1,1.42,0l7.07,7.07A1,1,0,0,1,38,23a1,1,0,0,1-.29.71l-7.07,7.07a1,1,0,0,1-1.42-1.42L34.59,24H24c-8,0-12,3-12,9a1,1,0,0,1-2,0C10,28,12.43,22,24,22Z"/>
        <rect id="frame-26" data-name="frame" class="cls-3" width="48" height="48"/>
      </g>
      <g id="redo_default">
        <path id="arrow-4" data-name="arrow" class="cls-7" d="M24,22H34.59l-5.37-5.37a1,1,0,0,1,0-1.41,1,1,0,0,1,1.42,0l7.07,7.07A1,1,0,0,1,38,23a1,1,0,0,1-.29.71l-7.07,7.07a1,1,0,0,1-1.42-1.42L34.59,24H24c-8,0-12,3-12,9a1,1,0,0,1-2,0C10,28,12.43,22,24,22Z"/>
        <rect id="frame-27" data-name="frame" class="cls-3" width="48" height="48"/>
      </g>
    </g>
    <g id="Warning">
      <g>
        <path class="cls-13" d="M24,13.11,35.6,34H12.4L24,13.11m0-3.06a1,1,0,0,0-.87.51L9.82,34.51A1,1,0,0,0,10.7,36H37.3a1,1,0,0,0,.88-1.49L24.88,10.56a1,1,0,0,0-.88-.51Z"/>
        <circle class="cls-13" cx="24" cy="30.98" r="1"/>
        <rect class="cls-13" x="22.99" y="18.02" width="2" height="10" rx="1"/>
        <rect id="frame-28" data-name="frame" class="cls-3" width="48" height="48"/>
      </g>
    </g>
    <g id="Error">
      <g>
        <circle class="cls-14" cx="24" cy="29.46" r="1"/>
        <rect class="cls-14" x="22.99" y="16.5" width="2" height="10" rx="1"/>
        <path class="cls-14" d="M24,11A12,12,0,1,1,12,23,12,12,0,0,1,24,11m0-2A14,14,0,1,0,38,23,14,14,0,0,0,24,9Z"/>
        <rect id="frame-29" data-name="frame" class="cls-3" width="48" height="48"/>
      </g>
    </g>
  </g>
</svg>
