<svg xmlns="http://www.w3.org/2000/svg" xmlns:xlink="http://www.w3.org/1999/xlink" width="96" height="96" viewBox="0 0 96 96">
  <defs>
    <style>
      .cls-1 {
        fill: #fbebe7;
      }

      .cls-2 {
        fill: #ff6040;
      }

      .cls-3 {
        fill: #e5f0ff;
      }

      .cls-18, .cls-21, .cls-23, .cls-26, .cls-27, .cls-28, .cls-29, .cls-31, .cls-32, .cls-34, .cls-38, .cls-4, .cls-42, .cls-43, .cls-44, .cls-48, .cls-53, .cls-56, .cls-58, .cls-7, .cls-71, .cls-74, .cls-75, .cls-77, .cls-79, .cls-8, .cls-82, .cls-86, .cls-87, .cls-88, .cls-91 {
        fill: none;
      }

      .cls-4 {
        stroke: #ffae9e;
      }

      .cls-13, .cls-18, .cls-23, .cls-27, .cls-28, .cls-32, .cls-34, .cls-38, .cls-4, .cls-48, .cls-53, .cls-70, .cls-71, .cls-74, .cls-8, .cls-86, .cls-87, .cls-88, .cls-91 {
        stroke-miterlimit: 10;
      }

      .cls-12, .cls-13, .cls-16, .cls-17, .cls-21, .cls-23, .cls-34, .cls-4, .cls-48, .cls-53, .cls-60, .cls-70, .cls-71, .cls-8 {
        stroke-width: 1.5px;
      }

      .cls-39, .cls-40, .cls-41, .cls-5, .cls-6 {
        fill: #b0bec5;
      }

      .cls-39, .cls-40, .cls-41, .cls-5, .cls-7 {
        stroke: #78909c;
      }

      .cls-11, .cls-12, .cls-18, .cls-21, .cls-23, .cls-26, .cls-27, .cls-28, .cls-31, .cls-32, .cls-35, .cls-36, .cls-37, .cls-38, .cls-39, .cls-40, .cls-41, .cls-42, .cls-43, .cls-44, .cls-45, .cls-47, .cls-48, .cls-5, .cls-53, .cls-56, .cls-58, .cls-59, .cls-61, .cls-62, .cls-63, .cls-64, .cls-65, .cls-66, .cls-67, .cls-68, .cls-7, .cls-71, .cls-72, .cls-74, .cls-75, .cls-77, .cls-79, .cls-86, .cls-89, .cls-91 {
        stroke-linecap: round;
      }

      .cls-11, .cls-12, .cls-16, .cls-17, .cls-21, .cls-26, .cls-30, .cls-35, .cls-36, .cls-37, .cls-39, .cls-40, .cls-41, .cls-42, .cls-43, .cls-44, .cls-45, .cls-47, .cls-49, .cls-5, .cls-56, .cls-58, .cls-59, .cls-60, .cls-61, .cls-62, .cls-63, .cls-64, .cls-65, .cls-66, .cls-67, .cls-68, .cls-7, .cls-72, .cls-75, .cls-76, .cls-77, .cls-78, .cls-79, .cls-80, .cls-82, .cls-84, .cls-85, .cls-89 {
        stroke-linejoin: round;
      }

      .cls-11, .cls-18, .cls-26, .cls-27, .cls-28, .cls-30, .cls-37, .cls-38, .cls-42, .cls-43, .cls-44, .cls-45, .cls-47, .cls-5, .cls-58, .cls-59, .cls-61, .cls-62, .cls-63, .cls-64, .cls-65, .cls-66, .cls-67, .cls-68, .cls-7, .cls-72, .cls-74, .cls-75, .cls-76, .cls-77, .cls-78, .cls-79, .cls-80, .cls-82, .cls-84, .cls-85, .cls-86, .cls-87, .cls-89 {
        stroke-width: 2px;
      }

      .cls-8 {
        stroke: #80c0ff;
      }

      .cls-9 {
        fill: #9cf;
      }

      .cls-10, .cls-16 {
        fill: #ffbfb2;
      }

      .cls-11 {
        fill: #546e7a;
      }

      .cls-11, .cls-30, .cls-43, .cls-45, .cls-76, .cls-78, .cls-80, .cls-82, .cls-84, .cls-85, .cls-86, .cls-89 {
        stroke: #263238;
      }

      .cls-12, .cls-25 {
        fill: #eceff1;
      }

      .cls-12, .cls-13, .cls-22, .cls-23, .cls-34, .cls-70, .cls-91 {
        stroke: #455a64;
      }

      .cls-13, .cls-22, .cls-33, .cls-47, .cls-59, .cls-60, .cls-67, .cls-85, .cls-89 {
        fill: #fff;
      }

      .cls-14 {
        fill: #455a64;
      }

      .cls-15 {
        fill: #ff6738;
      }

      .cls-16, .cls-17, .cls-18, .cls-21, .cls-60 {
        stroke: #37474f;
      }

      .cls-17, .cls-19 {
        fill: #ffd0c7;
      }

      .cls-20 {
        fill: #37474f;
      }

      .cls-22 {
        stroke-miterlimit: 10;
        stroke-width: 1.5px;
      }

      .cls-24 {
        fill: #d1d1d1;
      }

      .cls-26, .cls-27, .cls-56 {
        stroke: #ff6040;
      }

      .cls-28, .cls-35, .cls-36, .cls-37, .cls-44, .cls-49 {
        stroke: #607d8b;
      }

      .cls-30, .cls-45, .cls-54 {
        fill: #befaea;
      }

      .cls-31, .cls-32 {
        stroke: #d1d1d1;
      }

      .cls-31 {
        stroke-linejoin: bevel;
      }

      .cls-35, .cls-36, .cls-37, .cls-46, .cls-49, .cls-68 {
        fill: #90a4ae;
      }

      .cls-35 {
        stroke-width: 2px;
      }

      .cls-36 {
        stroke-width: 2px;
      }

      .cls-38 {
        stroke: #6215e6;
      }

      .cls-39 {
        stroke-width: 2px;
      }

      .cls-40 {
        stroke-width: 2px;
      }

      .cls-41 {
        stroke-width: 2px;
      }

      .cls-42, .cls-48, .cls-53, .cls-71 {
        stroke: #90a4ae;
      }

      .cls-47, .cls-79 {
        stroke: #ff3d00;
      }

      .cls-48 {
        stroke-dasharray: 1.99 2.98;
      }

      .cls-49 {
        stroke-width: 2px;
      }

      .cls-50 {
        fill: #ffae9e;
      }

      .cls-51 {
        fill: url(#linear-gradient);
      }

      .cls-52 {
        fill: url(#linear-gradient-2);
      }

      .cls-53 {
        stroke-dasharray: 2.08 3.12;
      }

      .cls-55 {
        fill: #263238;
      }

      .cls-57 {
        fill: #6215e6;
      }

      .cls-58, .cls-59 {
        stroke: #b0bec5;
      }

      .cls-61 {
        fill: #00ff50;
      }

      .cls-61, .cls-62, .cls-63, .cls-64, .cls-65, .cls-66, .cls-67, .cls-68, .cls-72 {
        stroke: #546e7a;
      }

      .cls-62 {
        fill: #1919ff;
      }

      .cls-63 {
        fill: red;
      }

      .cls-64 {
        fill: #00e5ff;
      }

      .cls-65 {
        fill: #ffea00;
      }

      .cls-66 {
        fill: #ff00fb;
      }

      .cls-69, .cls-80 {
        fill: #ff3d00;
      }

      .cls-70 {
        fill: #e7ebed;
      }

      .cls-72 {
        fill: #00eaff;
      }

      .cls-73 {
        fill: url(#radial-gradient);
      }

      .cls-74 {
        stroke: #fff;
      }

      .cls-75 {
        stroke: #2543f2;
      }

      .cls-76 {
        fill: #2543f2;
      }

      .cls-77 {
        stroke: #00e676;
      }

      .cls-78 {
        fill: #00e676;
      }

      .cls-81 {
        fill: url(#radial-gradient-2);
      }

      .cls-83 {
        fill: #338bff;
      }

      .cls-87, .cls-88 {
        stroke: #338bff;
      }

      .cls-90 {
        fill-rule: evenodd;
      }

      .cls-91 {
        stroke-width: 1.5px;
      }
    </style>
    <linearGradient id="linear-gradient" x1="20.12" y1="47.54" x2="19.91" y2="90.56" gradientTransform="matrix(1, 0, 0, -1, 0, 95.82)" gradientUnits="userSpaceOnUse">
      <stop offset="0"/>
      <stop offset="0.06" stop-color="#252525"/>
      <stop offset="0.16" stop-color="#585858"/>
      <stop offset="0.26" stop-color="#848484"/>
      <stop offset="0.37" stop-color="#aaa"/>
      <stop offset="0.48" stop-color="#c9c9c9"/>
      <stop offset="0.59" stop-color="#e1e1e1"/>
      <stop offset="0.71" stop-color="#f2f2f2"/>
      <stop offset="0.84" stop-color="#fcfcfc"/>
      <stop offset="1" stop-color="#fff"/>
    </linearGradient>
    <linearGradient id="linear-gradient-2" x1="52.09" y1="47.54" x2="51.88" y2="90.56" xlink:href="#linear-gradient"/>
    <radialGradient id="radial-gradient" cx="47.99" cy="30.99" r="95.84" gradientTransform="matrix(0.41, 0, 0, -0.41, 28.49, 78.27)" gradientUnits="userSpaceOnUse">
      <stop offset="0" stop-color="#fff"/>
      <stop offset="0.09" stop-color="#fefefe" stop-opacity="0.97"/>
      <stop offset="0.22" stop-color="#fafbfc" stop-opacity="0.9"/>
      <stop offset="0.37" stop-color="#f4f6f7" stop-opacity="0.78"/>
      <stop offset="0.53" stop-color="#ecf0f1" stop-opacity="0.61"/>
      <stop offset="0.72" stop-color="#e2e7ea" stop-opacity="0.4"/>
      <stop offset="0.91" stop-color="#d6dde1" stop-opacity="0.14"/>
      <stop offset="1" stop-color="#cfd8dc" stop-opacity="0"/>
    </radialGradient>
    <radialGradient id="radial-gradient-2" cx="48.06" cy="67.07" r="34.04" gradientTransform="matrix(1.14, 0, 0, -1.44, -6.79, 120.42)" xlink:href="#radial-gradient"/>
  </defs>
  <g id="Layer_2" data-name="Layer 2">
    <g id="Layer_2-2" data-name="Layer_2">
      <g id="Event_bg" data-name="Event bg">
        <rect id="Events_bg" data-name="Events bg" class="cls-1" width="96" height="96" rx="4"/>
      </g>
      <polygon id="Corner" class="cls-2" points="96 12 96 0 84 0 96 12"/>
      <g id="Act_bg" data-name="Act bg">
        <rect id="Actions_bg" data-name="Actions bg" class="cls-3" width="96" height="96" rx="4"/>
      </g>
      <g id="Ev_Buttons" data-name="Ev Buttons">
        <path id="Bg_Thymio" data-name="Bg Thymio" class="cls-4" d="M48.05,6.64A56.77,56.77,0,0,0,7.78,23.22,3.91,3.91,0,0,0,6.64,26L6.58,87.38a2,2,0,0,0,2,2l78.79.08a2,2,0,0,0,2-2l.06-61.36a3.94,3.94,0,0,0-1.13-2.8A56.75,56.75,0,0,0,48.05,6.64Z"/>
        <g id="ButtonsOff">
          <circle id="Btn2_Center" data-name="Btn2 Center" class="cls-5" cx="48" cy="48.05" r="8.75"/>
          <g id="Btn2_Forward" data-name="Btn2 Forward">
            <path class="cls-6" d="M40.21,31.24c-.55,0-.78-.39-.5-.87L47.45,17a.53.53,0,0,1,.68-.33.5.5,0,0,1,.32.33L56.2,30.37a.54.54,0,0,1-.5.87Z"/>
            <path class="cls-7" d="M40.21,31.24c-.55,0-.78-.39-.5-.87L47.45,17a.53.53,0,0,1,.68-.33.5.5,0,0,1,.32.33L56.2,30.37a.54.54,0,0,1-.5.87Z"/>
          </g>
          <g id="Btn2_Backward" data-name="Btn2 Backward">
            <path class="cls-6" d="M40.21,64.85c-.55,0-.78.4-.5.87l7.74,13.41a.53.53,0,0,0,.68.33.5.5,0,0,0,.32-.33L56.2,65.72a.54.54,0,0,0-.5-.87Z"/>
            <path class="cls-7" d="M40.21,64.85c-.55,0-.78.4-.5.87l7.74,13.41a.53.53,0,0,0,.68.33.5.5,0,0,0,.32-.33L56.2,65.72a.54.54,0,0,0-.5-.87Z"/>
          </g>
          <g id="Btn2_Right" data-name="Btn2 Right">
            <path class="cls-6" d="M64.94,40.41c0-.55.39-.78.87-.5L79,47.5a.51.51,0,0,1,.32.67.55.55,0,0,1-.32.33L65.81,56.1a.54.54,0,0,1-.87-.51Z"/>
            <path class="cls-7" d="M64.94,40.41c0-.55.39-.78.87-.5L79,47.5a.51.51,0,0,1,.32.67.55.55,0,0,1-.32.33L65.81,56.1a.54.54,0,0,1-.87-.51Z"/>
          </g>
          <g id="Btn2_Left" data-name="Btn2 Left">
            <path class="cls-6" d="M31.06,40.41c0-.55-.39-.78-.87-.5L17,47.5a.51.51,0,0,0-.32.67.55.55,0,0,0,.32.33l13.15,7.59a.54.54,0,0,0,.87-.51Z"/>
            <path class="cls-7" d="M31.06,40.41c0-.55-.39-.78-.87-.5L17,47.5a.51.51,0,0,0-.32.67.55.55,0,0,0,.32.33l13.15,7.59a.54.54,0,0,0,.87-.51Z"/>
          </g>
        </g>
      </g>
      <g id="Ev_Remote1" data-name="Ev Remote1">
        <g id="RemoteSignal">
          <path class="cls-2" d="M51.65,12.1a1,1,0,0,1-.71-.29,4.15,4.15,0,0,0-5.87,0v0a1,1,0,1,1-1.42-1.42h0a6.16,6.16,0,0,1,8.72,0,1,1,0,0,1,0,1.41h0A1,1,0,0,1,51.65,12.1Z"/>
          <path class="cls-2" d="M54,9.75a1,1,0,0,1-.71-.29,7.48,7.48,0,0,0-10.58,0h0A1,1,0,0,1,41.29,8h0A9.5,9.5,0,0,1,54.71,8a1,1,0,0,1,0,1.41h0A1,1,0,0,1,54,9.75Z"/>
        </g>
        <g id="Remote1_buttons" data-name="Remote1 buttons">
          <path id="Btn2_Remote1_85" data-name="Btn2 Remote1 85" class="cls-5" d="M30,51.76a17.9,17.9,0,0,1,3-9.91,2,2,0,0,0-.24-2.52l-7.19-7.17a2,2,0,0,0-2.83,0,1.63,1.63,0,0,0-.17.2,32,32,0,0,0,0,38.83,2,2,0,0,0,2.81.36l.19-.17,7.17-7.17A2,2,0,0,0,33,61.66,17.91,17.91,0,0,1,30,51.76Z"/>
          <path id="Btn2_Remote1_81" data-name="Btn2 Remote1 81" class="cls-5" d="M48,69.76a18,18,0,0,1-9.9-3,2,2,0,0,0-2.53.24L28.4,74.19a2,2,0,0,0,0,2.82l.19.18a32,32,0,0,0,38.82,0,2,2,0,0,0,.36-2.81,1.54,1.54,0,0,0-.17-.19L60.43,67a2,2,0,0,0-2.53-.24A18,18,0,0,1,48,69.76Z"/>
          <path id="Btn2_Remote1_86" data-name="Btn2 Remote1 86" class="cls-5" d="M66,51.76a17.86,17.86,0,0,1-3,9.89,2,2,0,0,0,.24,2.53l7.17,7.17a2,2,0,0,0,2.83,0,1.63,1.63,0,0,0,.17-.2,32,32,0,0,0,0-38.83A2,2,0,0,0,70.6,32l-.19.17-7.17,7.17A2,2,0,0,0,63,41.85,17.9,17.9,0,0,1,66,51.76Z"/>
          <path id="Btn2_Remote1_80" data-name="Btn2 Remote1 80" class="cls-5" d="M48,33.76a17.81,17.81,0,0,1,9.9,3,2,2,0,0,0,2.53-.25l7.17-7.17a2,2,0,0,0,0-2.82l-.19-.18a32,32,0,0,0-38.82,0,2,2,0,0,0-.36,2.81,1.54,1.54,0,0,0,.17.19l7.17,7.17a2,2,0,0,0,2.53.25A17.81,17.81,0,0,1,48,33.76Z"/>
          <circle id="Btn2_Remote1_87" data-name="Btn2 Remote1 87" class="cls-5" cx="48" cy="51.76" r="12"/>
        </g>
      </g>
      <g id="Ev_Remote2" data-name="Ev Remote2">
        <g id="Remote2_Buttons" data-name="Remote2 Buttons">
          <rect id="Btn2_Remote2_0" data-name="Btn2 Remote2 0" class="cls-5" x="40" y="71.96" width="16" height="12"/>
          <path id="Btn2_Remote2_17" data-name="Btn2 Remote2 17" class="cls-5" d="M22,72H32V84H22a6,6,0,0,1-6-6h0A6,6,0,0,1,22,72Z"/>
          <path id="Btn2_Remote2_16" data-name="Btn2 Remote2 16" class="cls-5" d="M64,72H74a6,6,0,0,1,6,6h0a6,6,0,0,1-6,6H64V72Z"/>
          <path id="Btn2_Remote2_9" data-name="Btn2 Remote2 9" class="cls-5" d="M64,54H74a6,6,0,0,1,6,6h0a6,6,0,0,1-6,6H64V54Z"/>
          <rect id="Btn2_Remote2_8" data-name="Btn2 Remote2 8" class="cls-5" x="40" y="53.96" width="16" height="12"/>
          <path id="Btn2_Remote2_7" data-name="Btn2 Remote2 7" class="cls-5" d="M22,54H32V66H22a6,6,0,0,1-6-6h0A6,6,0,0,1,22,54Z"/>
          <path id="Btn2_Remote2_6" data-name="Btn2 Remote2 6" class="cls-5" d="M64,36H74a6,6,0,0,1,6,6h0a6,6,0,0,1-6,6H64V36Z"/>
          <rect id="Btn2_Remote2_5" data-name="Btn2 Remote2 5" class="cls-5" x="40" y="35.96" width="16" height="12"/>
          <path id="Btn2_Remote2_4" data-name="Btn2 Remote2 4" class="cls-5" d="M22,36H32V48H22a6,6,0,0,1-6-6h0A6,6,0,0,1,22,36Z"/>
          <path id="Btn2_Remote2_3" data-name="Btn2 Remote2 3" class="cls-5" d="M64,18H74a6,6,0,0,1,6,6h0a6,6,0,0,1-6,6H64V18Z"/>
          <rect id="Btn2_Remote2_2" data-name="Btn2 Remote2 2" class="cls-5" x="40" y="17.96" width="16" height="12"/>
          <path id="Btn2_Remote2_1" data-name="Btn2 Remote2 1" class="cls-5" d="M22,18H32V30H22a6,6,0,0,1-6-6h0A6,6,0,0,1,22,18Z"/>
        </g>
        <g id="RemoteSignal-2">
          <path class="cls-2" d="M51.65,12.1a1,1,0,0,1-.71-.29,4.16,4.16,0,0,0-5.88,0h0a1,1,0,0,1-1.42-1.42h0a6.16,6.16,0,0,1,8.72,0,1,1,0,0,1,0,1.41h0A1,1,0,0,1,51.65,12.1Z"/>
          <path class="cls-2" d="M54,9.75a1,1,0,0,1-.71-.29,7.48,7.48,0,0,0-10.58,0h0A1,1,0,0,1,41.29,8h0A9.5,9.5,0,0,1,54.71,8a1,1,0,0,1,0,1.41h0A1,1,0,0,1,54,9.75Z"/>
        </g>
      </g>
      <g id="CircleLeds_bas" data-name="CircleLeds bas">
        <g id="statesAct_Bg" data-name="statesAct Bg">
          <path id="Ev_Bg_Thymio" data-name="Ev Bg Thymio" class="cls-8" d="M48.05,6.05A57.51,57.51,0,0,0,7.28,22.81a4.19,4.19,0,0,0-1.22,3L6,86.47A3.51,3.51,0,0,0,9.49,90l77,.08a3.5,3.5,0,0,0,3.5-3.5V25.87a4.18,4.18,0,0,0-1.21-3A57.48,57.48,0,0,0,48.05,6.05Z"/>
          <g>
            <circle id="center" class="cls-9" cx="48" cy="48.04" r="7.51"/>
            <g id="up">
              <path class="cls-9" d="M41.5,34.08c-.56,0-.78-.39-.51-.87L47.43,22c.28-.48.73-.49,1,0L55,33.14c.28.48.06.87-.5.87Z"/>
            </g>
            <g id="down">
              <path class="cls-9" d="M41.5,62c-.56,0-.78.39-.51.87l6.44,11.29a.53.53,0,0,0,.68.33.5.5,0,0,0,.32-.33L55,63c.28-.48.06-.87-.5-.88Z"/>
            </g>
            <g id="right">
              <path class="cls-9" d="M62,41.54c0-.55.39-.78.87-.51l11.29,6.44c.49.28.49.73,0,1L62.91,55c-.48.28-.88.06-.88-.5Z"/>
            </g>
            <g id="left">
              <path class="cls-9" d="M34,41.54c0-.55-.39-.78-.87-.51L21.88,47.47c-.49.27-.49.72,0,1L33.1,55c.48.28.88.06.88-.5Z"/>
            </g>
          </g>
        </g>
        <g id="statesEv_Bg" data-name="statesEv Bg">
          <path id="Ev_Bg_Thymio-2" data-name="Ev Bg Thymio-2" class="cls-4" d="M48.05,6.05A57.51,57.51,0,0,0,7.28,22.81a4.19,4.19,0,0,0-1.22,3L6,86.47A3.51,3.51,0,0,0,9.49,90l77,.08a3.5,3.5,0,0,0,3.5-3.5V25.87a4.18,4.18,0,0,0-1.21-3A57.48,57.48,0,0,0,48.05,6.05Z"/>
          <g>
            <circle id="center-2" class="cls-10" cx="48" cy="48.05" r="7.51"/>
            <g id="up-2">
              <path class="cls-10" d="M41.5,34.09c-.56,0-.78-.39-.51-.87L47.43,22a.53.53,0,0,1,.68-.33.5.5,0,0,1,.32.33L55,33.14c.28.48.06.88-.5.88Z"/>
            </g>
            <g id="down-2">
              <path class="cls-10" d="M41.5,62c-.56,0-.78.39-.51.87l6.44,11.29c.28.48.73.48,1,0L55,63c.28-.48.06-.87-.5-.87Z"/>
            </g>
            <g id="right-2">
              <path class="cls-10" d="M62,41.55c0-.56.39-.79.87-.51l11.29,6.44a.51.51,0,0,1,.32.67.55.55,0,0,1-.32.33L62.91,55.05a.54.54,0,0,1-.88-.5Z"/>
            </g>
            <g id="left-2">
              <path class="cls-10" d="M34,41.55c0-.56-.39-.79-.87-.51L21.88,47.48a.51.51,0,0,0-.32.67.55.55,0,0,0,.32.33L33.1,55a.54.54,0,0,0,.88-.5Z"/>
            </g>
          </g>
        </g>
        <g id="StatesOff_bas" data-name="StatesOff bas">
          <path id="Btn2_State7" data-name="Btn2 State7" class="cls-11" d="M33.09,18.07h0a4,4,0,0,0-5.23-2.17,3.7,3.7,0,0,0-.59.31A38,38,0,0,0,15.89,27.73a4,4,0,0,0,1.33,5.49,3.6,3.6,0,0,0,.55.29h0A4,4,0,0,0,22.66,32a30.09,30.09,0,0,1,8.94-9A4,4,0,0,0,33.09,18.07Z"/>
          <path id="Btn2_State6" data-name="Btn2 State6" class="cls-11" d="M18,48a29.47,29.47,0,0,1,.67-6.29,4,4,0,0,0-2.38-4.52h0a4,4,0,0,0-5.24,2.14,3.7,3.7,0,0,0-.19.59,38.18,38.18,0,0,0,0,16.14,4,4,0,0,0,4.82,3,4.62,4.62,0,0,0,.6-.19h0a4,4,0,0,0,2.37-4.52A29.78,29.78,0,0,1,18,48Z"/>
          <path id="Btn2_State5" data-name="Btn2 State5" class="cls-11" d="M17.8,62.6h0a4,4,0,0,0-2.16,5.22,4.18,4.18,0,0,0,.28.56,38.13,38.13,0,0,0,11.37,11.5,4,4,0,0,0,5.51-1.27,4.25,4.25,0,0,0,.31-.6h0a4,4,0,0,0-1.49-4.84,30.4,30.4,0,0,1-8.93-9A4,4,0,0,0,17.8,62.6Z"/>
          <path id="Btn2_State4" data-name="Btn2 State4" class="cls-11" d="M48,78a30.69,30.69,0,0,1-6.69-.75,4,4,0,0,0-4.56,2.37h0a4,4,0,0,0,2.15,5.23,5.05,5.05,0,0,0,.69.22,38.26,38.26,0,0,0,16.12.14,4,4,0,0,0,3.17-4.69,4.25,4.25,0,0,0-.23-.77h0a4,4,0,0,0-4.51-2.38A30.9,30.9,0,0,1,48,78Z"/>
          <path id="Btn2_State3" data-name="Btn2 State3" class="cls-11" d="M62.39,78.36h0a4,4,0,0,0,5.23,2.16,5.44,5.44,0,0,0,.54-.27A38.11,38.11,0,0,0,79.94,68.62a4,4,0,0,0-1.28-5.51,5.28,5.28,0,0,0-.58-.3h0a4,4,0,0,0-4.86,1.5A30.17,30.17,0,0,1,64,73.46,4,4,0,0,0,62.39,78.36Z"/>
          <path id="Btn2_State2" data-name="Btn2 State2" class="cls-11" d="M78,48a30.24,30.24,0,0,1-.72,6.56,4,4,0,0,0,2.37,4.54h0A4,4,0,0,0,84.88,57a3.93,3.93,0,0,0,.19-.58,38.07,38.07,0,0,0,0-16.66,4,4,0,0,0-4.82-3,4.1,4.1,0,0,0-.59.2h0a4,4,0,0,0-2.37,4.54A29.32,29.32,0,0,1,78,48Z"/>
          <path id="Btn2_State1" data-name="Btn2 State1" class="cls-11" d="M78.08,33.3h0a4,4,0,0,0,2.23-5.21,4.25,4.25,0,0,0-.31-.6A38,38,0,0,0,68.18,15.84a4,4,0,0,0-5.5,1.33,3.77,3.77,0,0,0-.28.57h0A4,4,0,0,0,64,22.63a30,30,0,0,1,9.27,9.17A4,4,0,0,0,78.08,33.3Z"/>
          <path id="Btn2_State0" data-name="Btn2 State0" class="cls-11" d="M48,18a29,29,0,0,1,6.16.64,4,4,0,0,0,4.51-2.38h0a4,4,0,0,0-2.16-5.23,3.5,3.5,0,0,0-.78-.23A37.15,37.15,0,0,0,48,10a37.87,37.87,0,0,0-8.42.94,4,4,0,0,0-3.06,4.75,4.54,4.54,0,0,0,.21.69h0a4,4,0,0,0,4.56,2.36A29.68,29.68,0,0,1,48,18Z"/>
        </g>
      </g>
      <g id="CircleLeds_adv" data-name="CircleLeds adv">
        <g id="statesAct_Bg_adv" data-name="statesAct Bg adv">
          <path id="Ev_Bg_Thymio-3" data-name="Ev Bg Thymio-3" class="cls-8" d="M48.05,6.05A57.51,57.51,0,0,0,7.28,22.81a4.19,4.19,0,0,0-1.22,3L6,86.47A3.51,3.51,0,0,0,9.49,90l77,.08a3.5,3.5,0,0,0,3.5-3.5V25.87a4.18,4.18,0,0,0-1.21-3A57.48,57.48,0,0,0,48.05,6.05Z"/>
          <g>
            <circle id="center-3" class="cls-9" cx="48" cy="48.04" r="7.51"/>
            <g id="up-3">
              <path class="cls-9" d="M41.5,34.08c-.56,0-.78-.39-.51-.87L47.43,22c.28-.48.73-.49,1,0L55,33.14c.28.48.06.87-.5.87Z"/>
            </g>
            <g id="down-3">
              <path class="cls-9" d="M41.5,62c-.56,0-.78.39-.51.87l6.44,11.29a.53.53,0,0,0,.68.33.5.5,0,0,0,.32-.33L55,63c.28-.48.06-.87-.5-.88Z"/>
            </g>
            <g id="right-3">
              <path class="cls-9" d="M62,41.54c0-.55.39-.78.87-.51l11.29,6.44c.49.28.49.73,0,1L62.91,55c-.48.28-.88.06-.88-.5Z"/>
            </g>
            <g id="left-3">
              <path class="cls-9" d="M34,41.54c0-.55-.39-.78-.87-.51L21.88,47.47c-.49.27-.49.72,0,1L33.1,55c.48.28.88.06.88-.5Z"/>
            </g>
          </g>
        </g>
        <g id="statesEv_Bg_adv" data-name="statesEv Bg adv">
          <path id="Ev_Bg_Thymio-4" data-name="Ev Bg Thymio-4" class="cls-4" d="M48.05,6.05A57.51,57.51,0,0,0,7.28,22.81a4.19,4.19,0,0,0-1.22,3L6,86.47A3.51,3.51,0,0,0,9.49,90l77,.08a3.5,3.5,0,0,0,3.5-3.5V25.87a4.18,4.18,0,0,0-1.21-3A57.48,57.48,0,0,0,48.05,6.05Z"/>
          <g>
            <circle id="center-4" class="cls-10" cx="48" cy="48.05" r="7.51"/>
            <g id="up-4">
              <path class="cls-10" d="M41.5,34.09c-.56,0-.78-.39-.51-.87L47.43,22a.53.53,0,0,1,.68-.33.5.5,0,0,1,.32.33L55,33.14c.28.48.06.88-.5.88Z"/>
            </g>
            <g id="down-4">
              <path class="cls-10" d="M41.5,62c-.56,0-.78.39-.51.87l6.44,11.29c.28.48.73.48,1,0L55,63c.28-.48.06-.87-.5-.87Z"/>
            </g>
            <g id="right-4">
              <path class="cls-10" d="M62,41.55c0-.56.39-.79.87-.51l11.29,6.44a.51.51,0,0,1,.32.67.55.55,0,0,1-.32.33L62.91,55.05a.54.54,0,0,1-.88-.5Z"/>
            </g>
            <g id="left-4">
              <path class="cls-10" d="M34,41.55c0-.56-.39-.79-.87-.51L21.88,47.48a.51.51,0,0,0-.32.67.55.55,0,0,0,.32.33L33.1,55a.54.54,0,0,0,.88-.5Z"/>
            </g>
          </g>
        </g>
        <g id="StatesOff_adv" data-name="StatesOff adv">
          <path id="Btn3_State7_adv" data-name="Btn3 State7 adv" class="cls-5" d="M33.09,18.07h0a4,4,0,0,0-5.23-2.17,3.7,3.7,0,0,0-.59.31A38,38,0,0,0,15.89,27.73a4,4,0,0,0,1.33,5.49,3.6,3.6,0,0,0,.55.29h0A4,4,0,0,0,22.66,32a30.09,30.09,0,0,1,8.94-9A4,4,0,0,0,33.09,18.07Z"/>
          <path id="Btn3_State6_adv" data-name="Btn3 State6 adv" class="cls-5" d="M18,48a29.47,29.47,0,0,1,.67-6.29,4,4,0,0,0-2.38-4.52h0a4,4,0,0,0-5.24,2.14,3.7,3.7,0,0,0-.19.59,38.18,38.18,0,0,0,0,16.14,4,4,0,0,0,4.82,3,4.62,4.62,0,0,0,.6-.19h0a4,4,0,0,0,2.37-4.52A29.78,29.78,0,0,1,18,48Z"/>
          <path id="Btn3_State5_adv" data-name="Btn3 State5 adv" class="cls-5" d="M17.8,62.6h0a4,4,0,0,0-2.16,5.22,4.18,4.18,0,0,0,.28.56,38.13,38.13,0,0,0,11.37,11.5,4,4,0,0,0,5.51-1.27,4.25,4.25,0,0,0,.31-.6h0a4,4,0,0,0-1.49-4.84,30.4,30.4,0,0,1-8.93-9A4,4,0,0,0,17.8,62.6Z"/>
          <path id="Btn3_State4_adv" data-name="Btn3 State4 adv" class="cls-5" d="M48,78a30.69,30.69,0,0,1-6.69-.75,4,4,0,0,0-4.56,2.37h0a4,4,0,0,0,2.15,5.23,5.05,5.05,0,0,0,.69.22,38.26,38.26,0,0,0,16.12.14,4,4,0,0,0,3.17-4.69,4.25,4.25,0,0,0-.23-.77h0a4,4,0,0,0-4.51-2.38A30.9,30.9,0,0,1,48,78Z"/>
          <path id="Btn3_State3_adv" data-name="Btn3 State3 adv" class="cls-5" d="M62.39,78.36h0a4,4,0,0,0,5.23,2.16,5.44,5.44,0,0,0,.54-.27A38.11,38.11,0,0,0,79.94,68.62a4,4,0,0,0-1.28-5.51,5.28,5.28,0,0,0-.58-.3h0a4,4,0,0,0-4.86,1.5A30.17,30.17,0,0,1,64,73.46,4,4,0,0,0,62.39,78.36Z"/>
          <path id="Btn3_State2_adv" data-name="Btn3 State2 adv" class="cls-5" d="M78,48a30.24,30.24,0,0,1-.72,6.56,4,4,0,0,0,2.37,4.54h0A4,4,0,0,0,84.88,57a3.93,3.93,0,0,0,.19-.58,38.07,38.07,0,0,0,0-16.66,4,4,0,0,0-4.82-3,4.1,4.1,0,0,0-.59.2h0a4,4,0,0,0-2.37,4.54A29.32,29.32,0,0,1,78,48Z"/>
          <path id="Btn3_State1_adv" data-name="Btn3 State1 adv" class="cls-5" d="M78.08,33.3h0a4,4,0,0,0,2.23-5.21,4.25,4.25,0,0,0-.31-.6A38,38,0,0,0,68.18,15.84a4,4,0,0,0-5.5,1.33,3.77,3.77,0,0,0-.28.57h0A4,4,0,0,0,64,22.63a30,30,0,0,1,9.27,9.17A4,4,0,0,0,78.08,33.3Z"/>
          <path id="Btn3_State0_adv" data-name="Btn3 State0 adv" class="cls-5" d="M48,18a29,29,0,0,1,6.16.64,4,4,0,0,0,4.51-2.38h0a4,4,0,0,0-2.16-5.23,3.5,3.5,0,0,0-.78-.23A37.15,37.15,0,0,0,48,10a37.87,37.87,0,0,0-8.42.94,4,4,0,0,0-3.06,4.75,4.54,4.54,0,0,0,.21.69h0a4,4,0,0,0,4.56,2.36A29.68,29.68,0,0,1,48,18Z"/>
        </g>
      </g>
      <g id="Ev_Start" data-name="Ev Start">
        <g id="Bg_Th_Profile-3" data-name="Bg Th Profile-3">
          <path class="cls-12" d="M68.51,83.18H63.85c1.53,1,1.8,3,2.32,3.8A2.38,2.38,0,0,0,68,88h1a2.41,2.41,0,0,0,1.86-1c.53-.79.8-2.81,2.32-3.81Z"/>
          <rect class="cls-13" x="16" y="59.18" width="64" height="24" rx="2"/>
          <circle class="cls-13" cx="33.96" cy="75.68" r="12.5"/>
          <path class="cls-14" d="M73,68.89H67.9a.75.75,0,0,1,0-1.5H73a.75.75,0,0,1,0,1.5Z"/>
          <path class="cls-14" d="M79.25,68.89h-1.9a.75.75,0,0,1,0-1.5h1.9Z"/>
        </g>
        <g id="Play">
          <path class="cls-15" d="M60.8,29,37.85,14.81A2.52,2.52,0,0,0,34,17V45.2a2.53,2.53,0,0,0,3.85,2.15L60.8,33.23a2.54,2.54,0,0,0,.78-3.5A2.49,2.49,0,0,0,60.8,29Z"/>
        </g>
      </g>
      <g id="Ev_Clap" data-name="Ev Clap">
        <g id="Bg_ClapHands" data-name="Bg ClapHands">
          <g id="fx">
            <path class="cls-2" d="M23,34.21H17a1,1,0,0,1,0-2h6a1,1,0,0,1,0,2Z"/>
            <path class="cls-2" d="M17.8,41.21a1,1,0,0,1-1-1,1,1,0,0,1,.51-.87l5.2-3A1,1,0,1,1,23.57,38l-.07,0-5.2,3A1.2,1.2,0,0,1,17.8,41.21Z"/>
          </g>
          <g id="fx-2">
            <path class="cls-2" d="M57.15,13.9a1,1,0,0,1-1-1v-6a1,1,0,1,1,2,0v6A1,1,0,0,1,57.15,13.9Z"/>
            <path class="cls-2" d="M61.15,14.05a1,1,0,0,1-1-1,1,1,0,0,1,.13-.5l3-5.2a1,1,0,0,1,1.73,1l-3,5.2A1,1,0,0,1,61.15,14.05Z"/>
          </g>
          <path id="HandBack" class="cls-16" d="M41.54,47.68,28.89,35.1A2.24,2.24,0,0,1,28.6,32a1.92,1.92,0,0,1,.29-.28A2.48,2.48,0,0,1,30.53,31a2.33,2.33,0,0,1,1.79.72l9.17,9.1a.53.53,0,0,0,.75-.75h0L33.08,31h0l-4.52-4.5a2.32,2.32,0,0,1-.15-3.27,2.73,2.73,0,0,1,.25-.23,2.21,2.21,0,0,1,3.13-.21A1,1,0,0,1,32,23L45.54,36.44a.54.54,0,1,0,.76-.76L32.74,22.21l-1.4-1.39a2.38,2.38,0,0,1-.09-3.36l.09-.08A2.42,2.42,0,0,1,33,16.65a2.29,2.29,0,0,1,1.79.73L37.41,20h0L49.83,32.35a.56.56,0,0,0,.76,0,.53.53,0,0,0,0-.75h0L38.17,19.24A2.31,2.31,0,0,1,38.1,16l.18-.16a2.22,2.22,0,0,1,3.13-.2l.2.2L57.26,31.37s.36.65.89.51.36-.74.36-.75L54.7,23.87A3.3,3.3,0,0,1,56,19.39l.1-.05s1-.47,1.36.28l6.16,11.77h0a14.08,14.08,0,0,1-2.18,16.22h0A14.14,14.14,0,0,1,41.54,47.68Z"/>
          <g id="HandFront">
            <path id="HandFront-2" class="cls-17" d="M45.08,47.21,32.44,34.62a2.24,2.24,0,0,1-.29-3.15l.29-.29a2.58,2.58,0,0,1,1.64-.73,2.41,2.41,0,0,1,1.79.72L45,40.3a.54.54,0,0,0,.75,0h0a.54.54,0,0,0,0-.76l-9.16-9.11h0L32.1,26a2.34,2.34,0,0,1-.05-3.3l.15-.14a2.22,2.22,0,0,1,3.13-.2,1.89,1.89,0,0,1,.2.2L49.09,36a.54.54,0,0,0,.75,0,.53.53,0,0,0,0-.75h0L36.29,21.73l-1.4-1.39A2.36,2.36,0,0,1,34.78,17l.11-.1a2.37,2.37,0,0,1,1.64-.73,2.28,2.28,0,0,1,1.79.72L41,19.52h0L53.38,31.87a.54.54,0,1,0,.76-.76L41.71,18.77a2.33,2.33,0,0,1-.05-3.29,1.07,1.07,0,0,1,.16-.14,2.22,2.22,0,0,1,3.13-.2,1.89,1.89,0,0,1,.2.2L60.81,30.9s.56.61,1,.47.28-.7.27-.71l-3.8-7.27a3.29,3.29,0,0,1,1.29-4.46l.13-.06s1-.47,1.35.28L67.19,31h0A14.14,14.14,0,0,1,65,47.15h0A14.14,14.14,0,0,1,45.08,47.21Z"/>
            <path class="cls-10" d="M62.4,45.24c2.63-4.82-.39-10-2-12.12L60.33,33l-.54-.5L43,15.48h0a1.28,1.28,0,0,1,1.66.38L60.19,31.35c.24.24,1,.93,1.62.79a1.12,1.12,0,0,0,.85-.62,1.4,1.4,0,0,0,.13-1l-.06-.15-3.82-7.3a2.53,2.53,0,0,1,.93-3.46l.16-.08h.32l6.19,11.82a13.37,13.37,0,0,1-2.07,15.36,13.08,13.08,0,0,1-5.15,3.16A28.18,28.18,0,0,0,62.4,45.24Z"/>
            <path id="shadow2" class="cls-10" d="M52.62,33,36.75,17a1.36,1.36,0,0,1,1,.44L53,32.55a2.1,2.1,0,0,0,1.07.29C54.1,33.31,53.23,33.33,52.62,33Z"/>
          </g>
        </g>
        <g id="Bg_Th_Profile-4" data-name="Bg Th Profile-4">
          <path class="cls-12" d="M68.51,83.18H63.85c1.53,1,1.8,3,2.32,3.8A2.38,2.38,0,0,0,68,88h1a2.41,2.41,0,0,0,1.86-1c.53-.79.8-2.81,2.32-3.81Z"/>
          <rect class="cls-13" x="16" y="59.18" width="64" height="24" rx="2"/>
          <circle class="cls-13" cx="33.96" cy="75.68" r="12.5"/>
          <path class="cls-14" d="M73,68.89H67.9a.75.75,0,0,1,0-1.5H73a.75.75,0,0,1,0,1.5Z"/>
          <path class="cls-14" d="M79.25,68.89h-1.9a.75.75,0,0,1,0-1.5h1.9Z"/>
        </g>
      </g>
      <g id="Ev_Acc_Hit" data-name="Ev Acc Hit">
        <g id="Bg_Th_Profile-5" data-name="Bg Th Profile-5">
          <path class="cls-12" d="M68.51,65H63.85c1.53,1,1.8,3,2.32,3.81a2.42,2.42,0,0,0,1.87,1h1a2.42,2.42,0,0,0,1.87-1c.52-.79.79-2.81,2.31-3.81Z"/>
          <rect class="cls-13" x="16" y="41.05" width="64" height="24" rx="2"/>
          <circle class="cls-13" cx="33.96" cy="57.55" r="12.5"/>
          <path class="cls-14" d="M73,50.76H67.9a.75.75,0,0,1,0-1.5H73a.75.75,0,0,1,0,1.5Z"/>
          <path class="cls-14" d="M79.25,50.76h-1.9a.75.75,0,0,1,0-1.5h1.9Z"/>
        </g>
        <path class="cls-10" d="M41,25.58c.93.49,1.59,1.48,3.2,2.17,8.16,3.48,17.06,4.67,18.65,5,2.89.68,4.91-.68,5.14-2.61,0,0-1.25,1.47-5.6.6s-15.47-3.38-16.23-3.55a2.87,2.87,0,0,1-1.27-.46C44.5,26.56,41.71,25.05,41,25.58Z"/>
        <line id="Ground" class="cls-18" x1="8.07" y1="72.04" x2="88.07" y2="72.04"/>
        <g id="HandTap">
          <path class="cls-19" d="M66.29,27.32c-.43-.89-1.53-1.71-3.42-2-5-.87-14.81-4-20.28-6-4.12-1.55-11-18.95-11-18.95H11.94s8.74,13.57,11,16.46,3.8,7.5,8.88,11.13c4,2.88,9,4.37,15,7.63,4.34,2.33,8,1.2,8.09-1,0-1.72-1.07-3-5.09-4.4a31.85,31.85,0,0,1-6.56-3.26c7.21,1.84,17.69,4.5,19.55,4.94,2.89.68,5.77-.14,6-2.07S66.29,27.32,66.29,27.32Z"/>
          <path class="cls-10" d="M19.13.31H11.94s8.74,13.57,11,16.46,3.8,7.56,8.88,11.19c4,2.88,9,4.37,15,7.63,2.71,1.46,5.17,1.56,6.65.89L39.23,29.63a21,21,0,0,1-7.17-6C29.46,19.83,19.13.31,19.13.31Z"/>
          <path class="cls-20" d="M66.93,26.45A5.54,5.54,0,0,0,63,24.3a110.53,110.53,0,0,1-20-5.95C39.07,16.6,33.91,4,32.69.31h-2c0,.1,5.84,17.34,11.53,19.87,1.37.61,3,1.25,4.85,1.87a1,1,0,0,0-.52.65,1,1,0,0,0,.74,1.2l18.8,4.39h0s1.83.39,1.72,1.35a1.22,1.22,0,0,1-.55.81,5.82,5.82,0,0,1-4.22.4C60.33,30.21,46.87,27.3,45.32,27q-1.95-1.14-3.77-2.46a1,1,0,0,0-1.4.23,1,1,0,0,0,.23,1.4,36.15,36.15,0,0,0,9.1,4.94c4.14,1.48,4.46,2.51,4.43,3.43a1.15,1.15,0,0,1-.65.94c-1.09.63-3.36.64-6-.76s-4.9-2.44-7-3.38a47.2,47.2,0,0,1-7.92-4.19,23,23,0,0,1-6.51-7.74,24.07,24.07,0,0,0-2.12-3.24C21.77,13.7,14.71,2.47,13.12.3H11c0,.2,9,14.21,11.25,17.09a24.07,24.07,0,0,1,2,3,25,25,0,0,0,7.07,8.35,48.25,48.25,0,0,0,8.25,4.38c2.17,1,4.4,2,6.87,3.32a11,11,0,0,0,5.07,1.41,5.73,5.73,0,0,0,2.84-.68A3.16,3.16,0,0,0,56,34.55a4.14,4.14,0,0,0-2.25-3.74c3.78.83,7.62,1.67,8.92,2a11,11,0,0,0,2.22.26,6.48,6.48,0,0,0,3.61-1,3.15,3.15,0,0,0,1.39-2.21C70,27.88,68.23,26.83,66.93,26.45Z"/>
        </g>
        <g id="MotionLinesL">
          <path class="cls-2" d="M23,36.05H17a1,1,0,0,1,0-2h6a1,1,0,0,1,0,2Z"/>
          <path class="cls-2" d="M23,32.05a1.2,1.2,0,0,1-.5-.14l-5.2-3a1,1,0,0,1-.36-1.36,1,1,0,0,1,1.36-.37l5.2,3a1,1,0,0,1,.38,1.36A1,1,0,0,1,23,32.05Z"/>
        </g>
        <g id="MotionLinesR">
          <path class="cls-2" d="M79,36.05H73a1,1,0,0,1,0-2h6a1,1,0,0,1,0,2Z"/>
          <path class="cls-2" d="M73,32.05a1,1,0,0,1-1-1,1,1,0,0,1,.51-.87l5.2-3a1,1,0,0,1,1,1.73l-5.2,3A1.2,1.2,0,0,1,73,32.05Z"/>
        </g>
      </g>
      <g id="Ev_Acc_Fall" data-name="Ev Acc Fall">
        <g id="Hand">
          <path class="cls-17" d="M52.52,95.07v-.81s-.29-4.82,6.78-9.3c4-2.58,3.86-4.75,2.54-6.08-1.61-1.6-4.42.22-4.42.22s-3,1.76-6.51,4-7.18-1.42-7.18-1.42L30.54,70.29S28,67.88,26,69.69a2.69,2.69,0,0,0-.32,3.78s-2.39-2.4-3.88-.51a1.7,1.7,0,0,0-.31,2l-.13.14a2.91,2.91,0,0,0,.27,4l2.6,2.25c-2.12.9-.75,2.86-.75,2.86s5.29,4.39,7.61,6.37a20.16,20.16,0,0,1,3.57,3.52s.14.12.14.19v.83"/>
          <path class="cls-10" d="M24.11,82.19c-.54.32-.25,1.25-.05,1.46l7.31,6.12a1.62,1.62,0,0,0,0-1.33Z"/>
          <path class="cls-10" d="M32.54,87.47c-.12-.08-6.75-5.82-6.75-5.82l-3.72-3.22a2.35,2.35,0,0,1-.64-1.33L32.3,86.6A1.16,1.16,0,0,1,32.54,87.47Z"/>
          <path class="cls-10" d="M26.27,73a2,2,0,0,1-.44-1.87L38,82.22s.65,1,.27,1.32C38.15,83.64,26.27,73,26.27,73Z"/>
          <path class="cls-10" d="M34.6,85.58C34.48,85.49,22.49,75,22.49,75a1,1,0,0,1-.26-1.38c.05-.05.13-.22.18-.29L34.3,83.88A1.64,1.64,0,0,1,34.84,85C34.84,85.47,34.6,85.58,34.6,85.58Z"/>
          <path class="cls-10" d="M47.79,95.07c.55-5.81,5.83-9.28,8.67-11.13,4.68-3,4.85-4.58,4.85-4.58a1.83,1.83,0,0,1,.6,1.52c-.07.72-.66,1.88-3,3.4-6.42,4.12-7,8.54-7.08,9.8v1Z"/>
          <path class="cls-21" d="M34,86,22.18,75.76a1.92,1.92,0,0,1-.47-2.68A1.25,1.25,0,0,1,21.8,73c1.52-1.88,3.86.51,3.86.51L37.63,84"/>
          <line class="cls-21" x1="21.63" y1="79.04" x2="32.01" y2="88.04"/>
        </g>
        <g id="fx-3">
          <path class="cls-2" d="M41.51,16.88a1,1,0,0,1-1-1V4.76a1,1,0,1,1,2,0V15.88A1,1,0,0,1,41.51,16.88Z"/>
          <path class="cls-2" d="M20.67,27.32a1,1,0,0,1-1-1V14.23a1,1,0,0,1,2,0V26.32A1,1,0,0,1,20.67,27.32Z"/>
          <path class="cls-2" d="M35.52,14.06a1,1,0,0,1-1-1V7.42a1,1,0,0,1,2,0v5.64A1,1,0,0,1,35.52,14.06Z"/>
        </g>
        <g id="Bg_Th_Profile-6" data-name="Bg Th Profile-6">
          <path class="cls-12" d="M53.26,68.15l-2.88-2.87c.33,1.55-.75,3-.92,3.79A2.09,2.09,0,0,0,50,70.82l.59.58a2.13,2.13,0,0,0,1.75.56c.81-.17,2.23-1.24,3.78-.92Z"/>
          <rect class="cls-22" x="37.5" y="20.04" width="21" height="56" rx="2" transform="translate(-19.91 48.01) rotate(-45)"/>
          <circle class="cls-22" cx="36.53" cy="42.15" r="10.94"/>
          <line class="cls-23" x1="61.66" y1="57.99" x2="64.81" y2="61.13"/>
          <line class="cls-23" x1="67.51" y1="63.83" x2="69.08" y2="65.4"/>
        </g>
      </g>
      <g id="Ev_Accel_bas" data-name="Ev Accel bas">
        <g id="Ground_accel" data-name="Ground accel">
          <path class="cls-2" d="M88,76H8a1,1,0,0,1,0-2H88a1,1,0,0,1,0,2Z"/>
        </g>
        <g id="ThymioUpsideDown">
          <path class="cls-12" d="M30.06,52.23h4.07c-1.33-.87-1.57-2.63-2-3.33a2.07,2.07,0,0,0-1.63-.84h-.83A2.07,2.07,0,0,0,28,49c-.46.69-.7,2.45-2,3.33h4.08Z"/>
          <rect class="cls-13" x="20" y="52.23" width="56" height="21" rx="2"/>
          <circle class="cls-13" cx="60.28" cy="58.8" r="10.94"/>
          <line class="cls-23" x1="31.31" y1="65.37" x2="26.87" y2="65.37"/>
          <line class="cls-23" x1="23.05" y1="65.37" x2="20.82" y2="65.37"/>
        </g>
        <g id="ThymioSideDown">
          <rect class="cls-13" x="35.41" y="18.78" width="20.5" height="54.5" rx="2"/>
          <path class="cls-12" d="M55.91,50.14c.87-1.33,2.52-1.56,3.22-2A2.08,2.08,0,0,0,60,46.49v-.83A2.09,2.09,0,0,0,59.15,44c-.69-.45-2.34-.69-3.21-2Z"/>
          <g>
            <path class="cls-14" d="M45,37.2a.75.75,0,0,1-.74-.75V32a.74.74,0,1,1,1.48,0h0v4.5a.74.74,0,0,1-.72.75h0Z"/>
            <path class="cls-14" d="M45,61.2a.73.73,0,0,1-.74-.69V55.89a.74.74,0,0,1,1.48,0V60.5a.7.7,0,0,1-.7.7h0Z"/>
          </g>
          <path class="cls-24" d="M45.27,51.22a.5.5,0,0,1-.5-.5v-3a.49.49,0,0,1,.49-.5h0a.51.51,0,0,1,.5.5v3A.5.5,0,0,1,45.27,51.22Z"/>
          <path class="cls-24" d="M45.27,44a.5.5,0,0,1-.5-.48v-3a.49.49,0,0,1,.49-.49h0a.51.51,0,0,1,.5.49v3A.51.51,0,0,1,45.27,44Z"/>
          <g>
            <path class="cls-25" d="M55.84,31.3V22.8h2.75a1.24,1.24,0,0,1,1.25,1.25v6a1.25,1.25,0,0,1-1.25,1.25Z"/>
            <path class="cls-14" d="M58.59,23.55a.5.5,0,0,1,.5.5v6a.5.5,0,0,1-.5.5h-2v-7h2m0-1.5h-3.5v10h3.5a2,2,0,0,0,2-2v-6A2,2,0,0,0,58.59,22.05Z"/>
          </g>
          <g>
            <path class="cls-25" d="M55.84,69.29v-8.5h2.75A1.25,1.25,0,0,1,59.84,62v6a1.24,1.24,0,0,1-1.25,1.25Z"/>
            <path class="cls-14" d="M58.59,61.55a.5.5,0,0,1,.5.5v6a.5.5,0,0,1-.5.5h-2v-7h2m0-1.5h-3.5V70h3.5a2,2,0,0,0,2-2V62A2,2,0,0,0,58.59,60Z"/>
          </g>
        </g>
      </g>
      <g id="Ev_Accel" data-name="Ev Accel">
        <g id="Rot360Rail">
          <g id="Gravity_arrow" data-name="Gravity arrow">
            <polyline class="cls-26" points="13.03 83 8.99 87.05 4.95 83"/>
            <line class="cls-27" x1="8.99" y1="87.04" x2="8.99" y2="75.01"/>
          </g>
          <g id="_360Rot_rail" data-name=" 360Rot rail">
            <g>
              <path class="cls-28" d="M81.9,26.82A39.83,39.83,0,0,0,69.31,14.23"/>
              <path class="cls-28" d="M88,46.62a39.75,39.75,0,0,0-4.6-17.2"/>
              <path class="cls-28" d="M26.69,14.21A39.86,39.86,0,0,0,14.11,26.82"/>
              <path class="cls-28" d="M49.51,88.1a40.28,40.28,0,0,0,17.18-4.61"/>
              <path class="cls-28" d="M69.3,82A39.88,39.88,0,0,0,81.87,69.4"/>
              <path class="cls-28" d="M83.37,66.81A39.92,39.92,0,0,0,88,49.62"/>
              <path class="cls-28" d="M66.71,12.73A39.92,39.92,0,0,0,49.51,8.1"/>
              <path class="cls-28" d="M29.32,83.49A40.15,40.15,0,0,0,46.5,88.11"/>
              <path class="cls-28" d="M12.61,29.42A39.9,39.9,0,0,0,8,46.62"/>
              <path class="cls-28" d="M14.12,69.42A39.91,39.91,0,0,0,26.72,82"/>
              <path class="cls-28" d="M46.5,8.11a39.62,39.62,0,0,0-17.2,4.61"/>
              <path class="cls-28" d="M8,49.62a40,40,0,0,0,4.61,17.2"/>
            </g>
          </g>
        </g>
        <g id="Acc0">
          <g id="Bg_Th_Profile-7" data-name="Bg Th Profile-7">
            <path class="cls-12" d="M68.51,57.53H63.85c1.53,1,1.8,3,2.32,3.8a2.42,2.42,0,0,0,1.87,1h1a2.45,2.45,0,0,0,1.87-1c.52-.8.79-2.8,2.31-3.8Z"/>
            <rect class="cls-13" x="16" y="33.53" width="64" height="24" rx="2"/>
            <circle class="cls-13" cx="33.96" cy="50.03" r="12.5"/>
            <path class="cls-14" d="M73,43.24H67.9a.75.75,0,0,1,0-1.5H73a.75.75,0,0,1,0,1.5Z"/>
            <path class="cls-14" d="M79.25,43.24h-1.9a.75.75,0,0,1,0-1.5h1.9Z"/>
          </g>
          <g id="Rot360_Handle_0" data-name="Rot360 Handle 0">
            <circle id="RotationCenter0" class="cls-29" cx="48" cy="48.05" r="3"/>
            <circle id="Btn2_HandleAcc0" data-name="Btn2 HandleAcc0" class="cls-30" cx="48.01" cy="8.17" r="5"/>
          </g>
        </g>
        <g id="Acc1">
          <g id="ThymioAcc1">
            <rect class="cls-13" x="16" y="33.53" width="64" height="24" rx="2"/>
            <path class="cls-12" d="M78.3,57.52v4a1,1,0,0,1-.94,1H71.28a1,1,0,0,1-1-1v-4Z"/>
            <path class="cls-12" d="M25.84,57.53v4a1,1,0,0,1-1,1h-6a1,1,0,0,1-.95-1v-4Z"/>
            <path class="cls-12" d="M43.37,57.53c1.52,1,1.79,2.89,2.32,3.68a2.41,2.41,0,0,0,1.86,1h1a2.41,2.41,0,0,0,1.86-1c.52-.79.8-2.68,2.32-3.68Z"/>
            <line class="cls-23" x1="59.24" y1="45.26" x2="65.21" y2="45.24"/>
            <line class="cls-23" x1="36.81" y1="45.24" x2="30.83" y2="45.26"/>
            <line class="cls-31" x1="54.55" y1="45.25" x2="51.36" y2="45.26"/>
            <line class="cls-32" x1="41.49" y1="45.25" x2="46.67" y2="45.25"/>
          </g>
          <g id="Rot360_Handle_1" data-name="Rot360 Handle 1">
            <circle id="RotationCenter1" class="cls-29" cx="48" cy="48.05" r="3"/>
            <circle id="Btn2_HandleAcc1" data-name="Btn2 HandleAcc1" class="cls-30" cx="48" cy="8.17" r="5"/>
          </g>
        </g>
        <g id="Acc2">
          <g id="ThymioAcc2">
            <path class="cls-33" d="M48,24.1a32.87,32.87,0,0,0-23.3,9.58,2.36,2.36,0,0,0-.7,1.69V70a2,2,0,0,0,2,2H70a2,2,0,0,0,2-2V35.37a2.34,2.34,0,0,0-.68-1.69A32.92,32.92,0,0,0,48,24.1Z"/>
            <path class="cls-34" d="M48,24.1A32.87,32.87,0,0,0,24.39,34,1.48,1.48,0,0,0,24,35V70.5A1.48,1.48,0,0,0,25.48,72h45A1.5,1.5,0,0,0,72,70.5V35a1.5,1.5,0,0,0-.49-1A32.88,32.88,0,0,0,48,24.1Z"/>
            <g>
              <circle id="center-5" class="cls-6" cx="47.93" cy="37.21" r="2.54"/>
              <path id="up-5" class="cls-6" d="M49.69,42c.43,0,.6.3.39.66l-1.75,3.07a.41.41,0,0,1-.53.25.4.4,0,0,1-.24-.25l-1.78-3c-.22-.36-.05-.66.38-.66Z"/>
              <path id="down-5" class="cls-6" d="M49.69,32.48c.43,0,.6-.3.39-.67l-1.75-3.07a.41.41,0,0,0-.53-.25.4.4,0,0,0-.24.25l-1.78,3c-.22.37-.05.67.38.67Z"/>
              <path id="right-5" class="cls-6" d="M43.2,39c0,.42-.3.6-.67.39L39.46,37.6a.41.41,0,0,1,0-.78l3-1.78a.42.42,0,0,1,.68.38Z"/>
              <path id="left-5" class="cls-6" d="M52.65,39c0,.42.3.6.67.39l3.07-1.75a.41.41,0,0,0,.26-.52.4.4,0,0,0-.26-.26l-3-1.78a.42.42,0,0,0-.68.38Z"/>
            </g>
          </g>
          <g id="Rot360_Handle_2" data-name="Rot360 Handle 2">
            <circle id="RotationCenter2" class="cls-29" cx="48" cy="48.03" r="3"/>
            <circle id="Btn2_HandleAcc2" data-name="Btn2 HandleAcc2" class="cls-30" cx="48" cy="8.17" r="5"/>
          </g>
        </g>
      </g>
      <g id="Ev_ProxH_med" data-name="Ev ProxH med">
        <path id="ThymioTop_Bg" data-name="ThymioTop Bg" class="cls-13" d="M48.05,8.05a54.79,54.79,0,0,0-38.84,16,4,4,0,0,0-1.15,2.83L8,84.64A3.33,3.33,0,0,0,11.33,88L84.61,88a3.34,3.34,0,0,0,3.33-3.33h0L88,27a4,4,0,0,0-1.15-2.83A54.78,54.78,0,0,0,48.05,8.05Z"/>
        <g id="ProxSensors">
          <rect id="Btn3_Prox4" data-name="Btn3 Prox4" class="cls-35" x="72.56" y="21.37" width="11.42" height="11.42" transform="translate(7.22 69.63) rotate(-50)"/>
          <rect id="Btn3_Prox3" data-name="Btn3 Prox3" class="cls-36" x="58.41" y="13.25" width="11.59" height="11.59" transform="translate(26.25 74.22) rotate(-72)"/>
          <rect id="Btn3_Prox2" data-name="Btn3 Prox2" class="cls-37" x="42" y="10.05" width="12" height="12"/>
          <rect id="Btn3_Prox5" data-name="Btn3 Prox5" class="cls-37" x="24" y="74.04" width="12" height="12"/>
          <rect id="Btn3_Prox6" data-name="Btn3 Prox6" class="cls-37" x="58" y="74.04" width="12" height="12"/>
          <rect id="Btn3_Prox1" data-name="Btn3 Prox1" class="cls-36" x="25.74" y="13.25" width="11.59" height="11.58" transform="translate(-4.34 10.68) rotate(-18)"/>
          <rect id="Btn3_Prox0" data-name="Btn3 Prox0" class="cls-35" x="11.76" y="21.38" width="11.42" height="11.42" transform="translate(-13.32 17.57) rotate(-40)"/>
        </g>
        <g id="Obstacles">
          <line id="Obst_prox4" data-name="Obst prox4" class="cls-38" x1="90.18" y1="21.4" x2="81.17" y2="14.31"/>
          <line id="Obst_prox3" data-name="Obst prox3" class="cls-38" x1="74.13" y1="10.21" x2="62.91" y2="6.3"/>
          <line id="Obst_prox2" data-name="Obst prox2" class="cls-38" x1="41.87" y1="4.37" x2="53.87" y2="4.37"/>
          <line id="Obst_prox5" data-name="Obst prox5" class="cls-38" x1="24" y1="92.04" x2="36.42" y2="92.04"/>
          <line id="Obst_prox6" data-name="Obst prox6" class="cls-38" x1="57.58" y1="92.04" x2="70" y2="92.04"/>
          <line id="Obst_prox1" data-name="Obst prox1" class="cls-38" x1="21.6" y1="10.21" x2="32.83" y2="6.3"/>
          <line id="Obst_prox0" data-name="Obst prox0" class="cls-38" x1="5.92" y1="21.11" x2="14.19" y2="14.61"/>
        </g>
      </g>
      <g id="Ev_ProxH_Front_adv" data-name="Ev ProxH Front adv">
        <g id="Thymio_shape" data-name="Thymio shape">
          <path class="cls-33" d="M.12,44.87l3.64-3.63A3.58,3.58,0,0,1,6.3,40.17,49.37,49.37,0,0,1,41.17,54.73,49.34,49.34,0,0,1,55.66,89.62a3.56,3.56,0,0,1-1.07,2.53L50.8,96H2.12a2,2,0,0,1-2-2Z"/>
          <path class="cls-14" d="M51.86,96H49.71l4.35-4.31a2.85,2.85,0,0,0,.85-2A48.44,48.44,0,0,0,40.64,55.26,48.45,48.45,0,0,0,6.3,41h0a2.81,2.81,0,0,0-2,.85L.12,46V43.82l3.12-3.11A4.31,4.31,0,0,1,6.3,39.42h0A49.87,49.87,0,0,1,41.7,54.2,49.94,49.94,0,0,1,56.41,89.62a4.32,4.32,0,0,1-1.3,3.06Z"/>
        </g>
        <g>
          <rect id="Btn3_Prox4_adv" data-name="Btn3 Prox4 adv" class="cls-39" x="43.76" y="79.97" width="11.42" height="11.42" transform="translate(-10.07 6.67) rotate(-7)"/>
          <rect id="Btn3_Prox3_adv" data-name="Btn3 Prox3 adv" class="cls-40" x="39.71" y="66.16" width="11.57" height="11.57" transform="translate(-26.93 27.23) rotate(-26)"/>
          <rect id="Btn3_Prox2_adv" data-name="Btn3 Prox2 adv" class="cls-41" x="30.58" y="53.46" width="12" height="12" transform="translate(-31.33 43.28) rotate(-45)"/>
          <rect id="Btn3_Prox1_adv" data-name="Btn3 Prox1 adv" class="cls-40" x="18.32" y="44.76" width="11.57" height="11.57" transform="translate(-31.9 50.05) rotate(-64)"/>
          <rect id="Btn3_Prox0_adv" data-name="Btn3 Prox0 adv" class="cls-39" x="4.66" y="40.87" width="11.42" height="11.42" transform="translate(-37.13 51.19) rotate(-83)"/>
        </g>
        <g id="Slid_threshold" data-name="Slid threshold">
          <line id="value_threshold_off" data-name="value threshold off" class="cls-42" x1="84.08" y1="8.04" x2="16.08" y2="8.04"/>
          <g id="value_threshold" data-name="value threshold">
            <line id="value_threshold-2" data-name="value threshold-2" class="cls-43" x1="78.52" y1="8.04" x2="21.63" y2="8.04"/>
            <g id="steps">
              <line class="cls-44" x1="21.63" y1="3.98" x2="21.63" y2="2.98"/>
              <line class="cls-44" x1="40.59" y1="3.98" x2="40.59" y2="2.98"/>
              <line class="cls-44" x1="59.56" y1="3.98" x2="59.56" y2="2.98"/>
              <line class="cls-44" x1="78.52" y1="3.98" x2="78.52" y2="2.98"/>
            </g>
          </g>
          <polygon id="cursor_threshold" data-name="cursor threshold" class="cls-45" points="73.52 10.52 78.52 7.04 83.52 10.52 83.52 17.02 73.52 17.02 73.52 10.52"/>
        </g>
      </g>
      <g id="Ev_ProxH_Back_adv" data-name="Ev ProxH Back adv">
        <g id="Slid_threshold_back" data-name="Slid threshold back">
          <line id="value_threshold_back_off" data-name="value threshold back off" class="cls-42" x1="82" y1="82.09" x2="12" y2="82.09"/>
          <g id="value_threshold_back" data-name="value threshold back">
            <line id="value_thresholdBack" data-name="value thresholdBack" class="cls-43" x1="76.13" y1="82.09" x2="19.24" y2="82.09"/>
            <g id="crans">
              <line class="cls-44" x1="19.24" y1="78.02" x2="19.24" y2="77.02"/>
              <line class="cls-44" x1="38.2" y1="78.02" x2="38.2" y2="77.02"/>
              <line class="cls-44" x1="57.17" y1="78.02" x2="57.17" y2="77.02"/>
              <line class="cls-44" x1="76.13" y1="78.02" x2="76.13" y2="77.02"/>
            </g>
          </g>
          <polygon id="cursor_threshold_back" data-name="cursor threshold back" class="cls-45" points="14.29 84.56 19.29 81.07 24.29 84.56 24.29 91.07 14.29 91.07 14.29 84.56"/>
        </g>
        <g id="Thymio_shape_back" data-name="Thymio shape back">
          <path class="cls-13" d="M12,.09V29a3,3,0,0,0,3,3h0l66,.07a3,3,0,0,0,3-3V0"/>
        </g>
        <rect id="Btn3_Prox5_adv" data-name="Btn3 Prox5 adv" class="cls-37" x="26.08" y="17.58" width="12" height="12"/>
        <rect id="Btn3_Prox6_adv" data-name="Btn3 Prox6 adv" class="cls-37" x="57.95" y="17.58" width="12" height="12"/>
      </g>
      <g id="Ev_ProxGr_bas" data-name="Ev ProxGr bas">
        <g id="Bg_Th_Profile-8" data-name="Bg Th Profile-8">
          <path class="cls-12" d="M68.51,57.55H63.85c1.53,1,1.8,3,2.32,3.8a2.42,2.42,0,0,0,1.87,1h1a2.42,2.42,0,0,0,1.87-1c.52-.79.79-2.8,2.31-3.8Z"/>
          <rect class="cls-13" x="16" y="33.55" width="64" height="24" rx="2"/>
          <circle class="cls-13" cx="33.96" cy="50.05" r="12.5"/>
          <path class="cls-46" d="M73,43.26H67.9a.75.75,0,0,1,0-1.5H73a.75.75,0,0,1,0,1.5Z"/>
          <path class="cls-46" d="M79.25,43.26h-1.9a.75.75,0,0,1,0-1.5h1.9Z"/>
        </g>
        <rect id="btn2_ProxGd_detection" data-name="btn2 ProxGd detection" class="cls-47" x="8" y="64.04" width="80" height="12" rx="4"/>
      </g>
      <g id="Ev_ProxGr_med" data-name="Ev ProxGr med">
        <g id="ThymioTop_wheels" data-name="ThymioTop wheels">
          <path class="cls-33" d="M48,12.05A49.31,49.31,0,0,0,13.09,26.41a3.56,3.56,0,0,0-1,2.55L12,81a3,3,0,0,0,3,3L80.94,84a3,3,0,0,0,3-3V29a3.6,3.6,0,0,0-1-2.55A49.33,49.33,0,0,0,48,12.05Z"/>
          <rect class="cls-48" x="75.01" y="48.1" width="8.99" height="29.98" rx="2"/>
          <rect class="cls-48" x="12" y="48.1" width="8.99" height="29.98" rx="2"/>
          <path class="cls-34" d="M48,12.05A49.33,49.33,0,0,0,12.7,26.81a2.17,2.17,0,0,0-.64,1.58L12,81.69A2.27,2.27,0,0,0,14.25,84L81.69,84a2.25,2.25,0,0,0,2.25-2.25L84,28.47a2.27,2.27,0,0,0-.64-1.59A49.33,49.33,0,0,0,48,12.05Z"/>
        </g>
        <g id="ProxGround">
          <rect id="Btn3_ProxGd1" data-name="Btn3 ProxGd1" class="cls-49" x="53.05" y="18.98" width="12" height="12" transform="translate(24.2 78.8) rotate(-80)"/>
          <rect id="Btn3_ProxGd0" data-name="Btn3 ProxGd0" class="cls-49" x="30.96" y="18.99" width="12" height="12" transform="translate(-3.78 6.8) rotate(-10)"/>
        </g>
      </g>
      <g id="Ev_ProxGround_adv" data-name="Ev ProxGround adv">
        <path id="GradientStroke_bg" data-name="GradientStroke bg" class="cls-50" d="M68,4.05v44H4v-44H68m0-1H4a1,1,0,0,0-1,1v44a1,1,0,0,0,1,1H68a1,1,0,0,0,1-1v-44A1,1,0,0,0,68,3.05Z"/>
        <g>
          <rect id="Gradient_proxGd_0" data-name="Gradient proxGd 0" class="cls-51" x="4.02" y="4.05" width="31.98" height="44.16"/>
          <rect id="Gradient_proxGd_1" data-name="Gradient proxGd 1" class="cls-52" x="35.99" y="4.05" width="31.98" height="44.16"/>
        </g>
        <g id="ThymioTop_wheels-2" data-name="ThymioTop wheels-2">
          <path class="cls-33" d="M36,28.06A38.32,38.32,0,0,0,8.85,39.23a2.75,2.75,0,0,0-.81,2L8,81.65A2.35,2.35,0,0,0,10.33,84H61.62A2.33,2.33,0,0,0,64,81.71V41.26a2.75,2.75,0,0,0-.81-2A38.34,38.34,0,0,0,36,28.06Z"/>
          <rect class="cls-53" x="57" y="56.1" width="6.99" height="23.32" rx="2"/>
          <rect class="cls-53" x="8" y="56.1" width="6.99" height="23.32" rx="2"/>
          <path class="cls-34" d="M36,28.06A38.31,38.31,0,0,0,8.54,39.54,1.73,1.73,0,0,0,8,40.77V82.22A1.77,1.77,0,0,0,9.74,84H62.2A1.75,1.75,0,0,0,64,82.29V40.83a1.77,1.77,0,0,0-.5-1.24A38.41,38.41,0,0,0,36,28.06Z"/>
        </g>
        <g id="Slid_threshold_proxGd" data-name="Slid threshold proxGd">
          <g id="slider_threshold_proxGd" data-name="slider threshold proxGd">
            <line id="value_threshold_back_off-2" data-name="value threshold back off-2" class="cls-42" x1="82.05" y1="12.05" x2="82.05" y2="82.04"/>
            <g id="value_threshold_back-2" data-name="value threshold back-2">
              <line id="value_thresholdBack-2" data-name="value thresholdBack-2" class="cls-43" x1="82.05" y1="18.6" x2="82.05" y2="75.49"/>
              <g id="crans-2">
                <line class="cls-44" x1="77.99" y1="75.49" x2="76.99" y2="75.49"/>
                <line class="cls-44" x1="77.99" y1="47.05" x2="76.99" y2="47.05"/>
                <line class="cls-44" x1="77.99" y1="61.27" x2="76.99" y2="61.27"/>
                <line class="cls-44" x1="77.99" y1="32.83" x2="76.99" y2="32.83"/>
                <line class="cls-44" x1="77.99" y1="18.6" x2="76.99" y2="18.6"/>
              </g>
            </g>
          </g>
          <g id="Cursor_proxGd" data-name="Cursor proxGd">
            <polygon class="cls-54" points="84.49 51.55 81 47.2 84.49 42.87 91 42.87 91 51.55 84.49 51.55"/>
            <path class="cls-55" d="M91,52.55H84.49a1,1,0,0,1-.78-.37l-3.49-4.34a1,1,0,0,1,0-1.26l3.49-4.34a1,1,0,0,1,.78-.37H91a1,1,0,0,1,1,1v8.68A1,1,0,0,1,91,52.55Zm-6-2h5V43.87H85l-2.69,3.34Z"/>
          </g>
        </g>
        <rect id="Btn3_ProxGd1_adv" data-name="Btn3 ProxGd1 adv" class="cls-49" x="40.95" y="33" width="12" height="12" transform="translate(0.39 78.46) rotate(-80)"/>
        <rect id="Btn3_ProxGd0_adv" data-name="Btn3 ProxGd0 adv" class="cls-49" x="19.05" y="32.99" width="12" height="12" transform="translate(-6.39 4.94) rotate(-10)"/>
      </g>
      <g id="EvCounter">
        <path id="Bg_SelectedOperator" data-name="Bg SelectedOperator" class="cls-56" d="M78,48.05h0a10,10,0,0,1-10,10H28a10,10,0,0,1-10-10h0a10,10,0,0,1,10-10H68A10,10,0,0,1,78,48.05Z"/>
        <g id="List_operators" data-name="List operators">
          <g id="AboveValue">
            <path class="cls-57" d="M36,50.4l-6.76-3.21a.89.89,0,0,1-.45-.34.88.88,0,0,1-.13-.47v-.59a1,1,0,0,1,.13-.49,1.56,1.56,0,0,1,.45-.35L36,41.76a1,1,0,0,1,.42-.12.36.36,0,0,1,.29.11.34.34,0,0,1,.11.29v1.18a.71.71,0,0,1-.52.72l-4.8,2.14,4.8,2.16a.72.72,0,0,1,.52.72v1.18a.39.39,0,0,1-.38.4h0A.87.87,0,0,1,36,50.4Zm-7.2,3.88a.49.49,0,0,1-.14-.34V52.86a.48.48,0,0,1,.14-.35.47.47,0,0,1,.34-.13h7.2a.45.45,0,0,1,.48.48V54a.44.44,0,0,1-.13.34.46.46,0,0,1-.35.14h-7.2a.48.48,0,0,1-.35-.16Z"/>
          </g>
          <path id="AboveValue-2" class="cls-57" d="M36,52.34l-6.76-3.2a1,1,0,0,1-.45-.34.94.94,0,0,1-.13-.48v-.58a1,1,0,0,1,.13-.5,1.37,1.37,0,0,1,.45-.34L36,43.7a1,1,0,0,1,.42-.12.36.36,0,0,1,.29.11.34.34,0,0,1,.11.29v1.18a.71.71,0,0,1-.52.72L31.5,48l4.8,2.16a.72.72,0,0,1,.52.72v1.18a.39.39,0,0,1-.38.4h0A.87.87,0,0,1,36,52.34Z"/>
          <path id="StrictBelowValue" class="cls-57" d="M29.47,43.72,36.23,47a.82.82,0,0,1,.58.82v.58a.86.86,0,0,1-.13.49,1.12,1.12,0,0,1-.45.35l-6.76,3.2a1.45,1.45,0,0,1-.42.12.44.44,0,0,1-.29-.11.46.46,0,0,1-.11-.29V50.9a.75.75,0,0,1,.52-.73L34,48l-4.8-2.16a.74.74,0,0,1-.52-.72V44a.38.38,0,0,1,.12-.29.43.43,0,0,1,.28-.11A.83.83,0,0,1,29.47,43.72Z"/>
          <g id="BelowValue">
            <path class="cls-57" d="M28.47,50.43a.38.38,0,0,1-.12-.29V49a.73.73,0,0,1,.52-.72l4.8-2.16L28.87,44a.74.74,0,0,1-.52-.72V42a.38.38,0,0,1,.12-.29.38.38,0,0,1,.3-.11,1,1,0,0,1,.4.12L36,45a1.39,1.39,0,0,1,.44.36.72.72,0,0,1,.14.48v.58a.74.74,0,0,1-.14.47,1.24,1.24,0,0,1-.44.35l-6.78,3.2a.84.84,0,0,1-.4.14A.41.41,0,0,1,28.47,50.43Zm0,3.85a.49.49,0,0,1-.14-.34V52.86a.48.48,0,0,1,.14-.35.47.47,0,0,1,.34-.13H36a.41.41,0,0,1,.34.14.46.46,0,0,1,.14.34V54a.48.48,0,0,1-.48.48h-7.2a.48.48,0,0,1-.34-.16Z"/>
          </g>
          <g id="Equals">
            <path class="cls-57" d="M28.22,46.43a.49.49,0,0,1-.14-.34V45a.48.48,0,0,1,.14-.35.47.47,0,0,1,.34-.13h7.76a.41.41,0,0,1,.34.14.46.46,0,0,1,.14.34v1.12a.48.48,0,0,1-.48.48H28.56A.51.51,0,0,1,28.22,46.43Zm0,5a.49.49,0,0,1-.14-.34V50a.48.48,0,0,1,.14-.35.47.47,0,0,1,.34-.13h7.76a.41.41,0,0,1,.34.14.46.46,0,0,1,.14.34v1.12a.48.48,0,0,1-.48.48H28.56A.51.51,0,0,1,28.22,51.43Z"/>
          </g>
        </g>
        <g id="ComparatorChange">
          <polygon id="ComparatorDown" class="cls-45" points="26.73 65.11 38.73 65.11 32.73 74.11 26.73 65.11"/>
          <polygon id="ComparatorUp" class="cls-45" points="26.73 30.98 32.73 21.98 38.73 30.98 26.73 30.98"/>
        </g>
        <g id="ValueChange">
          <polygon id="ValueDown" class="cls-45" points="56.07 65.11 68.07 65.11 62.07 74.11 56.07 65.11"/>
          <polygon id="ValueUp" class="cls-45" points="56.07 30.98 62.07 21.98 68.07 30.98 56.07 30.98"/>
        </g>
        <rect id="ValueField" class="cls-29" x="48.07" y="42.18" width="28" height="12"/>
        <g id="Ev_CounterStates" data-name="Ev CounterStates">
          <path id="State7" class="cls-19" d="M28.63,13.61h0a4,4,0,0,0-5.23-2.17,3.7,3.7,0,0,0-.59.31A38,38,0,0,0,11.43,23.27a4,4,0,0,0,1.33,5.49,3.6,3.6,0,0,0,.55.29h0a4,4,0,0,0,4.89-1.54,29.83,29.83,0,0,1,8.93-9A4,4,0,0,0,28.63,13.61Z"/>
          <path id="State6" class="cls-19" d="M12,48a29.47,29.47,0,0,1,.67-6.29,4,4,0,0,0-2.38-4.52h0a4,4,0,0,0-5.24,2.14,3.7,3.7,0,0,0-.19.59,38.18,38.18,0,0,0,0,16.14,4,4,0,0,0,4.82,3,4.62,4.62,0,0,0,.6-.19h0a4,4,0,0,0,2.37-4.52A29.78,29.78,0,0,1,12,48Z"/>
          <path id="State5" class="cls-19" d="M13.27,67.12h0a4,4,0,0,0-2.21,5.21,4.65,4.65,0,0,0,.32.63,38.13,38.13,0,0,0,11.37,11.5,4,4,0,0,0,5.51-1.27,4.75,4.75,0,0,0,.31-.59h0a4,4,0,0,0-1.48-4.86,30.4,30.4,0,0,1-8.93-9A4,4,0,0,0,13.27,67.12Z"/>
          <path id="State4" class="cls-19" d="M48,84a29,29,0,0,1-6.69-.76,4,4,0,0,0-4.56,2.37h0a4,4,0,0,0,2.16,5.23,5.39,5.39,0,0,0,.68.22,38.09,38.09,0,0,0,16.12.15,4,4,0,0,0,3.17-4.69,4.25,4.25,0,0,0-.23-.77h0a4,4,0,0,0-4.51-2.38A29.49,29.49,0,0,1,48,84Z"/>
          <path id="State3" class="cls-19" d="M66.71,82.68h0a4,4,0,0,0,5.23,2.16,5.44,5.44,0,0,0,.54-.27A38.16,38.16,0,0,0,84.26,73,4,4,0,0,0,83,67.44a3.92,3.92,0,0,0-.58-.29h0a4,4,0,0,0-4.86,1.5,30.17,30.17,0,0,1-9.26,9.15A4,4,0,0,0,66.71,82.68Z"/>
          <path id="State2" class="cls-19" d="M84,48a30.24,30.24,0,0,1-.72,6.56,4,4,0,0,0,2.37,4.54h0A4,4,0,0,0,90.88,57a3.93,3.93,0,0,0,.19-.58,38.07,38.07,0,0,0,0-16.66,4,4,0,0,0-4.82-3,4.1,4.1,0,0,0-.59.2h0a4,4,0,0,0-2.37,4.54A29.32,29.32,0,0,1,84,48Z"/>
          <path id="State1" class="cls-19" d="M82.39,29h0a4,4,0,0,0,2.16-5.23,2.89,2.89,0,0,0-.3-.58A37.8,37.8,0,0,0,72.48,11.54,4,4,0,0,0,67,12.88a4.07,4.07,0,0,0-.28.55h0a4,4,0,0,0,1.55,4.89,30.15,30.15,0,0,1,9.27,9.17A4,4,0,0,0,82.39,29Z"/>
          <path id="State0" class="cls-19" d="M48,12.05a29,29,0,0,1,6.16.64,4,4,0,0,0,4.51-2.38h0a4,4,0,0,0-2.16-5.23,3.5,3.5,0,0,0-.78-.23A38.07,38.07,0,0,0,39.58,5a4,4,0,0,0-3.06,4.75,4.54,4.54,0,0,0,.21.69h0a4,4,0,0,0,4.56,2.37A29.1,29.1,0,0,1,48,12.05Z"/>
        </g>
        <g id="Saturate">
          <line id="SaturateLever" class="cls-58" x1="30.35" y1="6.01" x2="34.82" y2="16.57"/>
          <circle id="SaturatePivot" class="cls-59" cx="30.35" cy="6.01" r="2"/>
        </g>
      </g>
      <g id="Ev_TimersUp" data-name="Ev TimersUp">
        <g id="fx-4">
          <g id="fx_left" data-name="fx left">
            <path class="cls-27" d="M21.4,52.84a10.7,10.7,0,0,1-.19-9.49"/>
            <path class="cls-27" d="M17.87,55.4A16.72,16.72,0,0,1,16,47.79a16.25,16.25,0,0,1,1.58-7"/>
          </g>
          <g id="fx_right" data-name="fx right">
            <path class="cls-27" d="M74.6,43.35a10.68,10.68,0,0,1,.19,9.48"/>
            <path class="cls-27" d="M78.12,40.79a16.3,16.3,0,0,1,.3,14.61"/>
          </g>
        </g>
        <path id="ClockBody" class="cls-60" d="M28,48.09a20,20,0,1,1,20,20,20,20,0,0,1-20-20Z"/>
        <polygon id="ClockTop" class="cls-20" points="53 22.84 53 21.34 43 21.36 43 22.86 47.25 22.84 47.25 26.09 48.75 26.09 48.75 22.84 53 22.84"/>
        <g id="ClockHand">
          <line class="cls-27" x1="48" y1="47.95" x2="48" y2="33.19"/>
          <circle class="cls-2" cx="48" cy="48.09" r="2"/>
        </g>
      </g>
      <g id="ColorTop_basic" data-name="ColorTop basic">
        <g id="ColorPalette">
          <rect id="Btn2_Green" data-name="Btn2 Green" class="cls-61" x="12" y="8.11" width="17.96" height="17.96"/>
          <rect id="Btn2_Blue" data-name="Btn2 Blue" class="cls-62" x="29.96" y="8.11" width="17.96" height="17.96"/>
          <rect id="Btn2_Red" data-name="Btn2 Red" class="cls-63" x="47.93" y="8.11" width="17.96" height="17.96"/>
          <rect id="Btn2_Yellow" data-name="Btn2 Yellow" class="cls-64" x="12" y="26.08" width="17.96" height="17.96"/>
          <rect id="Btn2_Cyan" data-name="Btn2 Cyan" class="cls-65" x="47.93" y="26.08" width="17.96" height="17.96"/>
          <rect id="Btn2_Magenta" data-name="Btn2 Magenta" class="cls-66" x="29.96" y="26.08" width="17.96" height="17.96"/>
          <rect id="Btn2_White_Select" data-name="Btn2 White Select" class="cls-67" x="65.89" y="8.11" width="17.96" height="17.96"/>
          <g id="Btn2_NoColor" data-name="Btn2 NoColor">
            <rect class="cls-68" x="65.89" y="26.08" width="17.96" height="17.96"/>
            <polygon class="cls-69" points="68.04 43.3 66.63 43.3 66.63 41.88 81.69 26.82 83.1 26.82 83.1 28.23 68.04 43.3"/>
          </g>
        </g>
        <g id="Bg_Thymio_front_color" data-name="Bg Thymio front color">
          <rect class="cls-70" x="8" y="53.28" width="80" height="30" rx="2"/>
          <path class="cls-70" d="M85.88,83.26v5a1.22,1.22,0,0,1-1.18,1.27H77.1a1.24,1.24,0,0,1-1.2-1.26v-5Z"/>
          <path class="cls-70" d="M20.3,83.28v5a1.27,1.27,0,0,1-1.18,1.3H11.51a1.23,1.23,0,0,1-1.19-1.26v-5Z"/>
          <path class="cls-70" d="M42.21,83.28c1.9,1.23,2.24,3.61,2.9,4.6a3,3,0,0,0,2.33,1.2h1.18A3,3,0,0,0,51,87.88c.66-1,1-3.37,2.9-4.6Z"/>
          <g>
            <line class="cls-71" x1="61.95" y1="67.08" x2="69.39" y2="67.08"/>
            <line class="cls-71" x1="78.07" y1="67.08" x2="83.99" y2="67.08"/>
            <line class="cls-71" x1="34.03" y1="67.08" x2="26.6" y2="67.08"/>
            <line class="cls-71" x1="17.92" y1="67.08" x2="11.99" y2="67.08"/>
            <line class="cls-71" x1="43.49" y1="67.08" x2="52.34" y2="67.08"/>
          </g>
        </g>
        <path id="Gradient_Top_basic" data-name="Gradient Top basic" class="cls-29" d="M87.21,55.34v11H8.75v-11a1.3,1.3,0,0,1,1.3-1.3H85.93A1.29,1.29,0,0,1,87.21,55.34Z"/>
        <g id="SelectedColors">
          <rect id="Btn2_SelectedWhite" data-name="Btn2 SelectedWhite" class="cls-29" x="65.4" y="7.62" width="18.94" height="18.95"/>
          <rect id="Btn2_SelectedRed" data-name="Btn2 SelectedRed" class="cls-29" x="47.41" y="7.59" width="19" height="19"/>
          <rect id="Btn2_SelectedBlue" data-name="Btn2 SelectedBlue" class="cls-29" x="29.47" y="7.62" width="18.94" height="18.95"/>
          <rect id="Btn2_SelectedGreen" data-name="Btn2 SelectedGreen" class="cls-29" x="11.48" y="7.59" width="19" height="19"/>
          <rect id="Btn2_SelectedNone" data-name="Btn2 SelectedNone" class="cls-29" x="65.37" y="25.56" width="19" height="19"/>
          <rect id="Btn2_SelectedYel" data-name="Btn2 SelectedYel" class="cls-29" x="47.41" y="25.56" width="19" height="19"/>
          <rect id="Btn2_SelectedMagenta" data-name="Btn2 SelectedMagenta" class="cls-29" x="29.44" y="25.56" width="19" height="19"/>
          <rect id="Btn2_SelectedCyan" data-name="Btn2 SelectedCyan" class="cls-29" x="11.48" y="25.56" width="19" height="19"/>
        </g>
      </g>
      <g id="ColorBottom_basic" data-name="ColorBottom basic">
        <g id="ColorPalette-2">
          <rect id="Btn2_Green-2" data-name="Btn2 Green-2" class="cls-61" x="12" y="52.12" width="17.96" height="17.96"/>
          <rect id="Btn2_Blue-2" data-name="Btn2 Blue-2" class="cls-62" x="29.96" y="52.12" width="17.96" height="17.96"/>
          <rect id="Btn2_Red-2" data-name="Btn2 Red-2" class="cls-63" x="47.93" y="52.12" width="17.96" height="17.96"/>
          <rect id="Btn2_Yellow-2" data-name="Btn2 Yellow-2" class="cls-72" x="12" y="70.08" width="17.96" height="17.96"/>
          <rect id="Btn2_Cyan-2" data-name="Btn2 Cyan-2" class="cls-65" x="47.93" y="70.08" width="17.96" height="17.96"/>
          <rect id="Btn2_Magenta-2" data-name="Btn2 Magenta-2" class="cls-66" x="29.96" y="70.08" width="17.96" height="17.96"/>
          <g id="Btn2_NoColor-2" data-name="Btn2 NoColor-2">
            <rect class="cls-68" x="65.89" y="70.08" width="17.96" height="17.96"/>
            <polygon class="cls-69" points="68.05 87.3 66.63 87.3 66.63 85.89 81.69 70.83 83.11 70.83 83.11 72.23 68.05 87.3"/>
          </g>
          <rect id="Btn2_White_Select-2" data-name="Btn2 White Select-2" class="cls-67" x="65.89" y="52.12" width="17.96" height="17.96"/>
        </g>
        <g id="Bg_Thymio_front_color-2" data-name="Bg Thymio front color-2">
          <rect class="cls-70" x="8" y="8.05" width="80" height="30" rx="2"/>
          <path class="cls-70" d="M85.88,38v5a1.23,1.23,0,0,1-1.18,1.27H77.1a1.25,1.25,0,0,1-1.2-1.26v-5Z"/>
          <path class="cls-70" d="M20.3,38.05V43a1.27,1.27,0,0,1-1.18,1.3H11.51A1.23,1.23,0,0,1,10.32,43V38.09Z"/>
          <path class="cls-70" d="M42.21,38.05c1.9,1.25,2.24,3.61,2.9,4.6a3,3,0,0,0,2.33,1.2h1.18A3,3,0,0,0,51,42.65c.66-1,1-3.35,2.9-4.6Z"/>
          <g>
            <line class="cls-71" x1="61.95" y1="21.85" x2="69.39" y2="21.85"/>
            <line class="cls-71" x1="78.07" y1="21.85" x2="83.99" y2="21.85"/>
            <line class="cls-71" x1="34.03" y1="21.85" x2="26.6" y2="21.85"/>
            <line class="cls-71" x1="17.92" y1="21.85" x2="11.99" y2="21.85"/>
            <line class="cls-71" x1="43.49" y1="21.85" x2="52.34" y2="21.85"/>
          </g>
        </g>
        <path id="Gradient_Bottom_basic" data-name="Gradient Bottom basic" class="cls-29" d="M8.75,22.64h78.5V36.1a1.2,1.2,0,0,1-1.2,1.2H10a1.2,1.2,0,0,1-1.2-1.2h0V22.64Z"/>
        <g id="SelectedColors_bottom" data-name="SelectedColors bottom">
          <rect id="Btn2_SelectedWhite-2" data-name="Btn2 SelectedWhite-2" class="cls-29" x="65.96" y="52.11" width="17.96" height="17.97"/>
          <rect id="Btn2_SelectedRed-2" data-name="Btn2 SelectedRed-2" class="cls-29" x="48" y="52.11" width="17.96" height="17.97"/>
          <rect id="Btn2_SelectedBlue-2" data-name="Btn2 SelectedBlue-2" class="cls-29" x="30.04" y="52.11" width="17.96" height="17.97"/>
          <rect id="Btn2_SelectedGreen-2" data-name="Btn2 SelectedGreen-2" class="cls-29" x="12.07" y="52.11" width="17.96" height="17.97"/>
          <rect id="Btn2_SelectedNone-2" data-name="Btn2 SelectedNone-2" class="cls-29" x="65.96" y="70.08" width="17.96" height="17.97"/>
          <rect id="Btn2_SelectedYel-2" data-name="Btn2 SelectedYel-2" class="cls-29" x="48" y="70.08" width="17.96" height="17.97"/>
          <rect id="Btn2_SelectedMagenta-2" data-name="Btn2 SelectedMagenta-2" class="cls-29" x="30.04" y="70.08" width="17.96" height="17.97"/>
          <rect id="Btn2_SelectedCyan-2" data-name="Btn2 SelectedCyan-2" class="cls-29" x="12.07" y="70.08" width="17.96" height="17.97"/>
        </g>
      </g>
      <g id="Color_top_adv" data-name="Color top adv">
        <g id="Bg_Thymio_front_color_adv" data-name="Bg Thymio front color adv">
          <g id="Bg_Thymio_front_color-3" data-name="Bg Thymio front color-3">
            <rect class="cls-70" x="12" y="59.64" width="72" height="27" rx="2"/>
            <path class="cls-70" d="M82.09,86.62v4.49A1.11,1.11,0,0,1,81,92.25H74.19a1.13,1.13,0,0,1-1.08-1.14V86.67Z"/>
            <path class="cls-70" d="M23.07,86.62v4.46A1.14,1.14,0,0,1,22,92.26H15.16a1.1,1.1,0,0,1-1.07-1.13h0V86.68Z"/>
            <path class="cls-70" d="M42.79,86.64c1.71,1.12,2,3.25,2.61,4.14a2.72,2.72,0,0,0,2.1,1.08h1.06a2.66,2.66,0,0,0,2.1-1.08c.59-.9.89-3,2.6-4.14Z"/>
            <g>
              <line class="cls-71" x1="60.56" y1="72.06" x2="67.25" y2="72.06"/>
              <line class="cls-71" x1="75.06" y1="72.06" x2="80.39" y2="72.06"/>
              <line class="cls-71" x1="35.43" y1="72.06" x2="28.74" y2="72.06"/>
              <line class="cls-71" x1="20.92" y1="72.06" x2="15.59" y2="72.06"/>
              <line class="cls-71" x1="43.94" y1="72.06" x2="51.9" y2="72.06"/>
            </g>
          </g>
        </g>
        <path id="Gradient_top" data-name="Gradient top" class="cls-73" d="M13.94,60.39H82a1.2,1.2,0,0,1,1.2,1.2V71.3H12.74V61.59a1.2,1.2,0,0,1,1.2-1.2Z"/>
        <g id="Sliders_rgb" data-name="Sliders rgb">
          <g id="Slid_blue" data-name="Slid blue">
            <path id="Stroke_slid_blue" data-name="Stroke slid blue" class="cls-28" d="M20,46.05H76a2,2,0,0,1,2,2h0a2,2,0,0,1-2,2H20a2,2,0,0,1-2-2h0A2,2,0,0,1,20,46.05Z"/>
            <line id="Bg_slid_blue" data-name="Bg slid blue" class="cls-74" x1="20" y1="48.09" x2="76" y2="48.09"/>
            <line id="Slid_blue_value" data-name="Slid blue value" class="cls-75" x1="20" y1="48.09" x2="76" y2="48.09"/>
            <circle id="Cursor_blue" data-name="Cursor blue" class="cls-76" cx="77.29" cy="48.05" r="5"/>
          </g>
          <g id="Slid_green" data-name="Slid green">
            <path id="Stroke_slid_green" data-name="Stroke slid green" class="cls-28" d="M20,28.05H76a2,2,0,0,1,2,2h0a2,2,0,0,1-2,2H20a2,2,0,0,1-2-2h0A2,2,0,0,1,20,28.05Z"/>
            <line id="Bg_slid_green" data-name="Bg slid green" class="cls-74" x1="20" y1="30.05" x2="76" y2="30.05"/>
            <line id="Slid_green_value" data-name="Slid green value" class="cls-77" x1="20" y1="30.09" x2="76" y2="30.09"/>
            <circle id="Cursor_green" data-name="Cursor green" class="cls-78" cx="77.29" cy="30.09" r="5"/>
          </g>
          <g id="Slid_red" data-name="Slid red">
            <path id="Stroke_slid_red" data-name="Stroke slid red" class="cls-28" d="M20,10.05H76a2,2,0,0,1,2,2h0a2,2,0,0,1-2,2H20a2,2,0,0,1-2-2h0A2,2,0,0,1,20,10.05Z"/>
            <line id="Bg_slid_red" data-name="Bg slid red" class="cls-74" x1="20" y1="12.09" x2="76" y2="12.09"/>
            <line id="Slid_red_value" data-name="Slid red value" class="cls-79" x1="20" y1="12.09" x2="76" y2="12.09"/>
            <circle id="Cursor_red" data-name="Cursor red" class="cls-80" cx="77.29" cy="12.09" r="5"/>
          </g>
        </g>
      </g>
      <g id="Color_bot_adv" data-name="Color bot adv">
        <g id="Bg_Thymio_front_color-4" data-name="Bg Thymio front color-4">
          <rect class="cls-70" x="12" y="4.13" width="72" height="27" rx="2"/>
          <path class="cls-70" d="M82.09,31.13v4.48A1.1,1.1,0,0,1,81,36.74H74.19a1.12,1.12,0,0,1-1.08-1.13V31.17Z"/>
          <path class="cls-70" d="M23.07,31.13v4.46A1.14,1.14,0,0,1,22,36.75H15.16a1.1,1.1,0,0,1-1.07-1.11h0V31.17Z"/>
          <path class="cls-70" d="M42.79,31.13c1.71,1.12,2,3.25,2.61,4.15a2.72,2.72,0,0,0,2.1,1.08h1.06a2.76,2.76,0,0,0,2.1-1.09c.59-.89.89-3,2.6-4.14Z"/>
          <g>
            <line class="cls-71" x1="60.56" y1="16.56" x2="67.25" y2="16.56"/>
            <line class="cls-71" x1="75.06" y1="16.56" x2="80.39" y2="16.56"/>
            <line class="cls-71" x1="35.43" y1="16.56" x2="28.74" y2="16.56"/>
            <line class="cls-71" x1="20.92" y1="16.56" x2="15.59" y2="16.56"/>
            <line class="cls-71" x1="43.94" y1="16.56" x2="51.9" y2="16.56"/>
          </g>
        </g>
        <path id="Gradient_bottom" data-name="Gradient bottom" class="cls-81" d="M12.75,17.31h70.5V29.18a1.2,1.2,0,0,1-1.2,1.2H14a1.2,1.2,0,0,1-1.2-1.2h0V17.31Z"/>
        <g id="Sliders_rgb_bot" data-name="Sliders rgb bot">
          <g id="Slid_blue_bot" data-name="Slid blue bot">
            <path id="Stroke_slid_blue_bot" data-name="Stroke slid blue bot" class="cls-28" d="M17.85,83h56a2,2,0,0,1,2,2h0a2,2,0,0,1-2,2h-56a2,2,0,0,1-2-2h0A2,2,0,0,1,17.85,83Z"/>
            <line id="Bg_slid_blue_bot" data-name="Bg slid blue bot" class="cls-74" x1="17.85" y1="85.04" x2="73.85" y2="85.04"/>
            <line id="Slid_blue_value_bot" data-name="Slid blue value bot" class="cls-75" x1="17.85" y1="85.04" x2="73.85" y2="85.04"/>
            <circle id="Cursor_blue_bot" data-name="Cursor blue bot" class="cls-76" cx="75.15" cy="85.01" r="5"/>
          </g>
          <g id="Slid_green_bot" data-name="Slid green bot">
            <path id="Stroke_slid_green_bot" data-name="Stroke slid green bot" class="cls-28" d="M17.85,65h56a2,2,0,0,1,2,2h0a2,2,0,0,1-2,2h-56a2,2,0,0,1-2-2h0A2,2,0,0,1,17.85,65Z"/>
            <line id="Bg_slid_green_bot" data-name="Bg slid green bot" class="cls-74" x1="17.85" y1="67.01" x2="73.85" y2="67.01"/>
            <line id="Slid_green_value_bot" data-name="Slid green value bot" class="cls-77" x1="17.85" y1="67.04" x2="73.85" y2="67.04"/>
            <circle id="Cursor_green_bot" data-name="Cursor green bot" class="cls-78" cx="75.15" cy="67.04" r="5"/>
          </g>
          <g id="Slid_red_bot" data-name="Slid red bot">
            <path id="Stroke_slid_red_bot" data-name="Stroke slid red bot" class="cls-28" d="M17.85,47h56a2,2,0,0,1,2,2h0a2,2,0,0,1-2,2h-56a2,2,0,0,1-2-2h0A2,2,0,0,1,17.85,47Z"/>
            <line id="Bg_slid_red_bot" data-name="Bg slid red bot" class="cls-74" x1="17.85" y1="49.05" x2="73.85" y2="49.05"/>
            <line id="Slid_red_value_bot" data-name="Slid red value bot" class="cls-79" x1="17.85" y1="49.05" x2="73.85" y2="49.05"/>
            <circle id="Cursor_red_bot" data-name="Cursor red bot" class="cls-80" cx="75.15" cy="49.05" r="5"/>
          </g>
        </g>
      </g>
      <g id="Ac_Directions" data-name="Ac Directions">
        <g id="Ev_Bg_Thymio-5" data-name="Ev Bg Thymio-5">
          <path class="cls-8" d="M60.65,60.79H35.3A1.31,1.31,0,0,1,34,59.47V39.75a2,2,0,0,1,.59-1.44A18.79,18.79,0,0,1,48,32.8h0a18.8,18.8,0,0,1,13.39,5.53,2.05,2.05,0,0,1,.6,1.45V59.47a1.28,1.28,0,0,1-.38.93A1.36,1.36,0,0,1,60.65,60.79Z"/>
        </g>
        <g id="DirectionArrows">
          <polygon id="Btn2_FwdDir" data-name="Btn2 FwdDir" class="cls-5" points="44.12 25.64 44.12 16 40.4 16 48.12 2.65 55.84 16 52.12 16 52.12 25.64 44.12 25.64"/>
          <path id="Btn2_FwdRightDir" data-name="Btn2 FwdRightDir" class="cls-5" d="M60.05,27.34l.46-.68a27.53,27.53,0,0,1,6.87-7.2l-1.95-3.32L80.86,16,73.26,29.4l-1.78-3a20.07,20.07,0,0,0-4.92,5.66l-.65,1.13Z"/>
          <path id="Btn2_BwdRightDir" data-name="Btn2 BwdRightDir" class="cls-5" d="M65.43,80l1.95-3.31a28.21,28.21,0,0,1-6.87-7.21l-.46-.68,5.86-5.85L66.56,64a20.24,20.24,0,0,0,4.92,5.67l1.78-3,7.6,13.43Z"/>
          <polygon id="Btn2_BwdDir" data-name="Btn2 BwdDir" class="cls-5" points="40.4 80.08 44.12 80.08 44.12 70.44 52.12 70.44 52.12 80.08 55.84 80.08 48.12 93.44 40.4 80.08"/>
          <path id="Btn2_BwdLeftDir" data-name="Btn2 BwdLeftDir" class="cls-5" d="M23,66.65l1.78,3A20.07,20.07,0,0,0,29.7,64l.65-1.12,5.85,5.85-.45.68a28.21,28.21,0,0,1-6.87,7.21L30.81,80l-15.43.14Z"/>
          <path id="Btn2_FwdLeftDir" data-name="Btn2 FwdLeftDir" class="cls-5" d="M29.68,32.07a20.07,20.07,0,0,0-4.92-5.66l-1.78,3L15.38,16l15.43.14-1.95,3.36a27.85,27.85,0,0,1,6.87,7.2l.45.68L30.33,33.2Z"/>
          <rect id="Btn2_StopDir" data-name="Btn2 StopDir" class="cls-5" x="40.05" y="40.22" width="16" height="16"/>
          <path id="Btn2_LeftDir" data-name="Btn2 LeftDir" class="cls-5" d="M30.13,54.6l-13.82-8v4h-.57a4.16,4.16,0,0,1,0-8.32,4.1,4.1,0,0,1,2.75,1l5.26-6a12.15,12.15,0,1,0-8,21.3h.57v4Z"/>
          <path id="Btn2_RightDir" data-name="Btn2 RightDir" class="cls-5" d="M65.87,54.6l13.82-8v4h.57a4.16,4.16,0,1,0,0-8.32,4.1,4.1,0,0,0-2.75,1l-5.26-6a12.15,12.15,0,1,1,8,21.3H79.7v4Z"/>
        </g>
      </g>
      <g id="Ac_Wheels" data-name="Ac Wheels">
        <g id="Sliders">
          <g id="Slid_right" data-name="Slid right">
            <g id="sliderBg_R" data-name="sliderBg R">
              <line id="SliderR_range" data-name="SliderR range" class="cls-29" x1="80.05" y1="19.05" x2="80.05" y2="77.04"/>
              <line class="cls-82" x1="80.05" y1="12.08" x2="80.05" y2="84.03"/>
              <polygon class="cls-55" points="76.56 12.07 80.05 6.03 83.54 12.07 76.56 12.07"/>
              <polygon class="cls-55" points="76.56 84.03 80.05 90.08 83.54 84.03 76.56 84.03"/>
            </g>
            <g id="Cursor_right" data-name="Cursor right">
              <circle id="CursorRight" class="cls-30" cx="80.05" cy="48.05" r="6"/>
              <circle id="SameSpeed_R" data-name="SameSpeed R" class="cls-55" cx="80.05" cy="48.05" r="2"/>
            </g>
            <rect id="StopIndicator_R" data-name="StopIndicator R" class="cls-69" x="77.97" y="45.92" width="4.27" height="4.27"/>
          </g>
          <g id="Slid_left" data-name="Slid left">
            <g id="sliderBg_L" data-name="sliderBg L">
              <line id="SliderL_range" data-name="SliderL range" class="cls-29" x1="16.2" y1="19.05" x2="16.2" y2="77.04"/>
              <line class="cls-82" x1="16.2" y1="12.08" x2="16.2" y2="84.03"/>
              <polygon class="cls-55" points="12.73 12.07 16.22 6.03 19.71 12.07 12.73 12.07"/>
              <polygon class="cls-55" points="12.71 84.03 16.2 90.08 19.69 84.03 12.71 84.03"/>
            </g>
            <g id="Cursor_left" data-name="Cursor left">
              <circle id="CursorLeft" class="cls-30" cx="16.2" cy="48.05" r="6"/>
              <circle id="SameSpeed_L" data-name="SameSpeed L" class="cls-55" cx="16.2" cy="48.05" r="2"/>
            </g>
            <rect id="StopIndicator_L" data-name="StopIndicator L" class="cls-69" x="14.12" y="45.92" width="4.27" height="4.27"/>
          </g>
        </g>
        <g id="ThymioTop_wheels_mini" data-name="ThymioTop wheels mini">
          <path class="cls-13" d="M48,34.8a13,13,0,0,0-9.18,3.76,1,1,0,0,0-.29.72V52.73a1,1,0,0,0,1,1H56.46a1,1,0,0,0,1-1V39.3a1,1,0,0,0-.29-.72A12.93,12.93,0,0,0,48,34.8Z"/>
          <path class="cls-83" d="M39.26,43.28h1.6a1,1,0,0,1,1,1v5.87a1,1,0,0,1-1,1h-1.6Z"/>
          <path class="cls-83" d="M56.73,51.15H55.15a1,1,0,0,1-1-1V44.28a1,1,0,0,1,1-1h1.58Z"/>
        </g>
      </g>
      <g id="Ac_Music" data-name="Ac Music">
        <g id="Music_Slider" data-name="Music Slider">
          <line id="slid_tempo" data-name="slid tempo" class="cls-43" x1="84" y1="12.05" x2="32" y2="12.05"/>
          <circle id="cursor_tempo" data-name="cursor tempo" class="cls-30" cx="58" cy="12.05" r="5"/>
        </g>
        <g id="beat">
          <path class="cls-83" d="M23.11,10.07a.3.3,0,0,1,.08.21v.81a.34.34,0,0,1-.08.21.32.32,0,0,1-.21.08H19.21A.3.3,0,0,1,19,11.3a.34.34,0,0,1-.08-.21v-.81a.27.27,0,0,1,.25-.29H22.9A.28.28,0,0,1,23.11,10.07Z"/>
          <path class="cls-83" d="M23.11,12.8a.28.28,0,0,1,.08.2v.82a.32.32,0,0,1-.08.2.31.31,0,0,1-.21.09H19.21a.27.27,0,0,1-.29-.25V13a.28.28,0,0,1,.08-.2.25.25,0,0,1,.21-.08H22.9A.27.27,0,0,1,23.11,12.8Z"/>
          <path id="note_Bg" data-name="note Bg" class="cls-83" d="M16,6.78h0a.65.65,0,0,0-.66.63v6.28a2.62,2.62,0,0,0-2.22-.22,2.67,2.67,0,0,0,1.32,5.15,2.74,2.74,0,0,0,2.23-2.73V7.44A.67.67,0,0,0,16,6.77Z"/>
        </g>
        <path id="NoteIcon" class="cls-83" d="M53.84,6.78h-7.4a1.31,1.31,0,0,0-1.32,1.31v5.63a2.52,2.52,0,0,0-2.19-.21,2.63,2.63,0,0,0,1.3,5.07,2.7,2.7,0,0,0,2.21-2.69V9.41h7.07v4.31a2.52,2.52,0,0,0-2.19-.21,2.61,2.61,0,0,0,.42,5,2.75,2.75,0,0,0,.86,0,2.69,2.69,0,0,0,2.2-2.69V7.76A1,1,0,0,0,53.84,6.78Z"/>
        <g id="Notes_pentagram" data-name="Notes pentagram">
          <g id="zones_Bg" data-name="zones Bg">
            <rect class="cls-9" x="12" y="74.04" width="72" height="10"/>
            <rect class="cls-9" x="12" y="62.03" width="72" height="10"/>
            <rect class="cls-9" x="12" y="50.01" width="72" height="10"/>
            <rect class="cls-9" x="12" y="37.99" width="72" height="10"/>
            <rect class="cls-9" x="12" y="25.96" width="72" height="10"/>
          </g>
          <g id="notes">
            <circle id="Btn3_note1" data-name="Btn3 note1" class="cls-82" cx="17.59" cy="79.04" r="5"/>
            <circle id="Btn3_note2" data-name="Btn3 note2" class="cls-84" cx="29.2" cy="67.03" r="5"/>
            <circle id="Btn3_note3" data-name="Btn3 note3" class="cls-85" cx="40.81" cy="55.01" r="5"/>
            <circle id="Btn3_note4" data-name="Btn3 note4" class="cls-85" cx="52.42" cy="42.99" r="5"/>
            <circle id="Btn3_note5" data-name="Btn3 note5" class="cls-85" cx="64.03" cy="30.96" r="5"/>
            <circle id="Btn3_note6" data-name="Btn3 note6" class="cls-85" cx="75.64" cy="42.99" r="5"/>
          </g>
        </g>
      </g>
      <g id="Ac_SD_play" data-name="Ac SD play">
        <rect id="Bg_ClipNumber" data-name="Bg ClipNumber" class="cls-9" x="60" y="36.05" width="28" height="24" rx="1"/>
        <rect id="Text_ClipNumber" data-name="Text ClipNumber" class="cls-29" x="60" y="36.05" width="28" height="24" rx="1"/>
        <g id="ChangeClip">
          <polygon id="ClipDown" class="cls-45" points="68 64.05 80 64.05 74 73.05 68 64.05"/>
          <polygon id="ClipUp" class="cls-45" points="68 32.05 74 23.05 80 32.05 68 32.05"/>
        </g>
        <path class="cls-83" d="M36.31,23.38a2,2,0,0,1,1.44.6l9.68,10a2,2,0,0,1,.57,1.4V70.71a2,2,0,0,1-2,2H14a2,2,0,0,1-2-2V25.38a2,2,0,0,1,2-2H36.31m0-2H14a4,4,0,0,0-4,4V70.71a4,4,0,0,0,4,4H46a4,4,0,0,0,4-4V35.32a4,4,0,0,0-1.14-2.8l-9.68-9.93A3.94,3.94,0,0,0,36.31,21.38Z"/>
        <path class="cls-55" d="M24,44.05H18a2,2,0,0,0-2,2v8a2,2,0,0,0,2,2h6l6.29,6.29a1,1,0,0,0,1.41,0,1,1,0,0,0,.3-.72V38.46a1,1,0,0,0-1-1,1,1,0,0,0-.72.3Z"/>
        <path class="cls-86" d="M36.44,43.39a8,8,0,0,1,2.22,11.09,8.09,8.09,0,0,1-2.22,2.22"/>
        <path class="cls-86" d="M39,39.61a12.58,12.58,0,0,1,3.41,17.46A12.72,12.72,0,0,1,39,60.48"/>
      </g>
      <g id="Ac_SD_stop" data-name="Ac SD stop">
        <path class="cls-87" d="M28,16.05H55.91a3.94,3.94,0,0,1,2.87,1.21L70.86,29.65A4,4,0,0,1,72,32.44V76a4,4,0,0,1-4,4H28a4,4,0,0,1-4-4V20A4,4,0,0,1,28,16.05Z"/>
        <g>
          <path class="cls-55" d="M58.12,48l2.71-2.71a1.08,1.08,0,0,0,0-1.52h0a1.09,1.09,0,0,0-1.53,0l-2.7,2.7L53.89,43.8a1.06,1.06,0,0,0-1.51,0h0a1.09,1.09,0,0,0,0,1.53l2.7,2.7-2.71,2.7a1.09,1.09,0,0,0,0,1.53,1.13,1.13,0,0,0,1.53,0l2.7-2.7,2.71,2.71a1.08,1.08,0,1,0,1.52-1.54Z"/>
          <path class="cls-55" d="M32,44.4v7.29a1.8,1.8,0,0,0,1.78,1.81h5.33l5.86,6a1.77,1.77,0,0,0,2.5,0,1.75,1.75,0,0,0,.5-1.24V37.87a1.77,1.77,0,0,0-1.75-1.79,1.71,1.71,0,0,0-1.25.5l-5.86,6H33.78A1.8,1.8,0,0,0,32,44.4Z"/>
        </g>
      </g>
      <g id="AcCounter">
        <g id="List_count_values" data-name="List count values">
          <path id="Bg_SelectedOperator-2" data-name="Bg SelectedOperator-2" class="cls-88" d="M78,48.05h0a10,10,0,0,1-10,10H28a10,10,0,0,1-10-10h0a10,10,0,0,1,10-10H68A10,10,0,0,1,78,48.05Z"/>
        </g>
        <g id="OperatorChange">
          <polygon id="ComparatorDown-2" class="cls-45" points="26.73 65.11 38.73 65.11 32.73 74.11 26.73 65.11"/>
          <polygon id="ComparatorUp-2" class="cls-45" points="26.73 30.98 32.73 21.98 38.73 30.98 26.73 30.98"/>
        </g>
        <g id="ValueChange-2">
          <polygon id="ValueDown-2" class="cls-45" points="56.07 65.11 68.07 65.11 62.07 74.11 56.07 65.11"/>
          <polygon id="ValueUp-2" class="cls-45" points="56.07 30.98 62.07 21.98 68.07 30.98 56.07 30.98"/>
        </g>
        <rect id="ValueField-2" class="cls-29" x="48.07" y="42.18" width="28" height="12"/>
        <g id="AcCounterLeds">
          <path id="Led7" class="cls-9" d="M28.63,13.61h0a4,4,0,0,0-5.23-2.17,3.7,3.7,0,0,0-.59.31A38,38,0,0,0,11.43,23.27a4,4,0,0,0,1.33,5.49,3.6,3.6,0,0,0,.55.29h0a4,4,0,0,0,4.89-1.54,29.83,29.83,0,0,1,8.93-9A4,4,0,0,0,28.63,13.61Z"/>
          <path id="Led6" class="cls-9" d="M12,48a29.47,29.47,0,0,1,.67-6.29,4,4,0,0,0-2.38-4.52h0a4,4,0,0,0-5.24,2.14,3.7,3.7,0,0,0-.19.59,38.18,38.18,0,0,0,0,16.14,4,4,0,0,0,4.82,3,4.62,4.62,0,0,0,.6-.19h0a4,4,0,0,0,2.37-4.52A29.78,29.78,0,0,1,12,48Z"/>
          <path id="Led5" class="cls-9" d="M13.27,67.12h0a4,4,0,0,0-2.21,5.21,4.65,4.65,0,0,0,.32.63,38.13,38.13,0,0,0,11.37,11.5,4,4,0,0,0,5.51-1.27,4.75,4.75,0,0,0,.31-.59h0a4,4,0,0,0-1.48-4.86,30.4,30.4,0,0,1-8.93-9A4,4,0,0,0,13.27,67.12Z"/>
          <path id="Led4" class="cls-9" d="M48,84a29,29,0,0,1-6.69-.76,4,4,0,0,0-4.56,2.37h0a4,4,0,0,0,2.16,5.23,5.39,5.39,0,0,0,.68.22,38.09,38.09,0,0,0,16.12.15,4,4,0,0,0,3.17-4.69,4.25,4.25,0,0,0-.23-.77h0a4,4,0,0,0-4.51-2.38A29.49,29.49,0,0,1,48,84Z"/>
          <path id="Led3" class="cls-9" d="M66.71,82.68h0a4,4,0,0,0,5.23,2.16,5.44,5.44,0,0,0,.54-.27A38.16,38.16,0,0,0,84.26,73,4,4,0,0,0,83,67.44a3.92,3.92,0,0,0-.58-.29h0a4,4,0,0,0-4.86,1.5,30.17,30.17,0,0,1-9.26,9.15A4,4,0,0,0,66.71,82.68Z"/>
          <path id="Led2" class="cls-9" d="M84,48a30.24,30.24,0,0,1-.72,6.56,4,4,0,0,0,2.37,4.54h0A4,4,0,0,0,90.88,57a3.93,3.93,0,0,0,.19-.58,38.07,38.07,0,0,0,0-16.66,4,4,0,0,0-4.82-3,4.1,4.1,0,0,0-.59.2h0a4,4,0,0,0-2.37,4.54A29.32,29.32,0,0,1,84,48Z"/>
          <path id="Led1" class="cls-9" d="M82.39,29h0a4,4,0,0,0,2.16-5.23,2.89,2.89,0,0,0-.3-.58A37.8,37.8,0,0,0,72.48,11.54,4,4,0,0,0,67,12.88a4.07,4.07,0,0,0-.28.55h0a4,4,0,0,0,1.55,4.89,30.15,30.15,0,0,1,9.27,9.17A4,4,0,0,0,82.39,29Z"/>
          <path id="Led0" class="cls-9" d="M48,12.05a29,29,0,0,1,6.16.64,4,4,0,0,0,4.51-2.38h0a4,4,0,0,0-2.16-5.23,3.5,3.5,0,0,0-.78-.23A38.07,38.07,0,0,0,39.58,5a4,4,0,0,0-3.06,4.75,4.54,4.54,0,0,0,.21.69h0a4,4,0,0,0,4.56,2.37A29.1,29.1,0,0,1,48,12.05Z"/>
        </g>
        <g id="Btn_Saturate_On_hint" data-name="Btn Saturate On hint">
          <line id="SaturateLever-2" class="cls-42" x1="30.23" y1="6.01" x2="34.7" y2="16.57"/>
          <circle id="SaturatePivot-2" class="cls-42" cx="30.23" cy="6.01" r="2"/>
        </g>
        <g id="Btn_Saturate_Off_hint" data-name="Btn Saturate Off hint">
          <line id="SaturateLever-3" class="cls-42" x1="30.23" y1="6.01" x2="18.77" y2="6.01"/>
          <circle id="SaturatePivot-3" class="cls-42" cx="30.23" cy="6.01" r="2"/>
        </g>
        <g id="Btn_Saturate_On" data-name="Btn Saturate On">
          <line id="SaturateLever-4" class="cls-43" x1="30.23" y1="6.01" x2="34.7" y2="16.57"/>
          <circle id="SaturatePivot-4" class="cls-89" cx="30.23" cy="6.01" r="2"/>
        </g>
        <g id="Btn_Saturate_Off" data-name="Btn Saturate Off">
          <line id="SaturateLever-5" class="cls-43" x1="30.23" y1="6.01" x2="18.77" y2="6.01"/>
          <circle id="SaturatePivot-5" class="cls-89" cx="30.23" cy="6.01" r="2"/>
        </g>
        <g id="List_Operators-2" data-name="List Operators-2">
          <g id="Equals-2">
            <path class="cls-57" d="M28.22,46.43a.49.49,0,0,1-.14-.34V45a.48.48,0,0,1,.14-.35.47.47,0,0,1,.34-.13h7.76a.41.41,0,0,1,.34.14.46.46,0,0,1,.14.34v1.12a.48.48,0,0,1-.48.48H28.56A.51.51,0,0,1,28.22,46.43Zm0,5a.49.49,0,0,1-.14-.34V50a.48.48,0,0,1,.14-.35.47.47,0,0,1,.34-.13h7.76a.41.41,0,0,1,.34.14.46.46,0,0,1,.14.34v1.12a.48.48,0,0,1-.48.48H28.56A.51.51,0,0,1,28.22,51.43Z"/>
          </g>
          <path id="Plus" class="cls-57" d="M31.6,52.77a.42.42,0,0,1-.13-.31V49H28a.47.47,0,0,1-.3-.12.48.48,0,0,1-.13-.31v-1a.44.44,0,0,1,.13-.31.39.39,0,0,1,.3-.12h3.44V43.69a.37.37,0,0,1,.13-.31.39.39,0,0,1,.3-.12H33a.39.39,0,0,1,.32.12.4.4,0,0,1,.11.31V47.1h3.44a.4.4,0,0,1,.43.38v1.05a.4.4,0,0,1-.37.43H33.41v3.5a.41.41,0,0,1-.11.31.46.46,0,0,1-.32.13H31.9A.48.48,0,0,1,31.6,52.77Z"/>
          <path id="Minus" class="cls-57" d="M28.7,48.83a.47.47,0,0,1-.12-.32v-1a.42.42,0,0,1,.12-.31.5.5,0,0,1,.31-.12H35.9a.47.47,0,0,1,.32.12.51.51,0,0,1,.11.31v1a.52.52,0,0,1-.11.32.46.46,0,0,1-.32.13H29A.54.54,0,0,1,28.7,48.83Z"/>
          <path id="Multiply" class="cls-57" d="M28.53,50.8a.44.44,0,0,1,.13-.31L31.14,48l-2.43-2.43a.42.42,0,0,1-.12-.3.43.43,0,0,1,.12-.31l.69-.69a.39.39,0,0,1,.31-.12.39.39,0,0,1,.3.12l2.43,2.44,2.41-2.41a.41.41,0,0,1,.31-.14.41.41,0,0,1,.3.14l.76.75a.43.43,0,0,1,.14.32.37.37,0,0,1-.14.29l-2.4,2.41,2.43,2.43a.54.54,0,0,1,.13.32.46.46,0,0,1-.13.29l-.69.69a.39.39,0,0,1-.3.13.37.37,0,0,1-.31-.13l-2.43-2.43L30,51.87a.54.54,0,0,1-.3.13.44.44,0,0,1-.31-.13l-.77-.76A.44.44,0,0,1,28.53,50.8Z"/>
          <g id="Divide">
            <path class="cls-57" d="M28.54,48.86a.48.48,0,0,1-.13-.31v-1a.44.44,0,0,1,.13-.31.39.39,0,0,1,.31-.12h7a.39.39,0,0,1,.32.12.47.47,0,0,1,.11.31v1a.42.42,0,0,1-.39.43h-7A.48.48,0,0,1,28.54,48.86Zm2.75-3.12a.42.42,0,0,1-.12-.3V44.09a.48.48,0,0,1,.12-.33.41.41,0,0,1,.31-.12H33a.39.39,0,0,1,.32.12.43.43,0,0,1,.13.33v1.35a.39.39,0,0,1-.13.3.46.46,0,0,1-.32.13H31.6A.44.44,0,0,1,31.29,45.74Zm0,6.55a.42.42,0,0,1-.12-.3V50.64a.48.48,0,0,1,.12-.33.41.41,0,0,1,.31-.12H33a.39.39,0,0,1,.32.12.43.43,0,0,1,.13.33V52a.39.39,0,0,1-.13.3.46.46,0,0,1-.32.13H31.6A.5.5,0,0,1,31.29,52.29Z"/>
          </g>
        </g>
      </g>
      <g id="Ac_Timer" data-name="Ac Timer">
        <g id="Bg_Clock" data-name="Bg Clock">
          <rect id="Bg_TimeDisplay" data-name="Bg TimeDisplay" class="cls-9" x="20" y="42.04" width="56" height="20" rx="4"/>
          <path id="Clock" class="cls-83" d="M48.13,15.21a36,36,0,1,1-36,36,36,36,0,0,1,36-36m0-2a38,38,0,1,0,38,38A38,38,0,0,0,48.13,13.21Z"/>
          <polygon id="ClockTop-2" class="cls-83" points="53.78 6.96 42.22 6.96 42.22 8.96 47 8.96 47 12.04 49 12.04 49 8.96 53.78 8.96 53.78 6.96"/>
        </g>
        <g id="SecChange">
          <polygon id="SecDown" class="cls-45" points="26.2 67.84 38.2 67.84 32.2 75.84 26.2 67.84"/>
          <polygon id="SecUp" class="cls-45" points="26.2 35.85 32.2 27.84 38.2 35.85 26.2 35.85"/>
        </g>
        <g id="SecTenthChange">
          <polygon id="TSecDown" class="cls-45" points="60.12 67.77 72.12 67.77 66.12 75.77 60.12 67.77"/>
          <polygon id="TSecUp" class="cls-45" points="60.12 35.77 66.12 27.77 72.12 35.77 60.12 35.77"/>
        </g>
        <rect id="text_SecTenthDisplay" data-name="text SecTenthDisplay" class="cls-29" x="22.3" y="43.96" width="19.31" height="14.5"/>
        <rect id="text_SecDisplay" data-name="text SecDisplay" class="cls-29" x="58.83" y="43.96" width="14.58" height="14.5"/>
        <g id="S_Unit" data-name="S Unit">
          <path class="cls-20" d="M45.49,58a4.09,4.09,0,0,1-1.4-1,1.75,1.75,0,0,1-.45-1,.4.4,0,0,1,.14-.31.44.44,0,0,1,.29-.11h.83a.31.31,0,0,1,.19,0,1.07,1.07,0,0,1,.19.18,3.31,3.31,0,0,0,1,.86,2.94,2.94,0,0,0,1.51.32,3.09,3.09,0,0,0,1.71-.4,1.23,1.23,0,0,0,.64-1.14,1.11,1.11,0,0,0-.27-.79,2.66,2.66,0,0,0-.92-.54A15.34,15.34,0,0,0,47,53.63a4.69,4.69,0,0,1-2.43-1.09,2.45,2.45,0,0,1-.71-1.84,2.54,2.54,0,0,1,.43-1.41,3.19,3.19,0,0,1,1.3-1.11,4.76,4.76,0,0,1,2-.42,5.3,5.3,0,0,1,2.12.41,3.86,3.86,0,0,1,1.33,1,1.66,1.66,0,0,1,.45.93.4.4,0,0,1-.13.3.41.41,0,0,1-.31.12H50.4a.42.42,0,0,1-.4-.22c-.22-.25-.41-.45-.56-.59a2.32,2.32,0,0,0-.66-.35,3.63,3.63,0,0,0-1.09-.15,2.41,2.41,0,0,0-1.48.41,1.34,1.34,0,0,0-.52,1.07,1.08,1.08,0,0,0,.22.7,1.9,1.9,0,0,0,.83.54,11.4,11.4,0,0,0,1.82.5,5.75,5.75,0,0,1,2.66,1.13A2.48,2.48,0,0,1,52,55.44,2.62,2.62,0,0,1,51.51,57a3.3,3.3,0,0,1-1.44,1.09,6.32,6.32,0,0,1-2.28.39A5.66,5.66,0,0,1,45.49,58Z"/>
        </g>
      </g>
      <g id="LICENSE">
        <g>
          <g id="BY">
            <path id="path37" d="M37.48,80.62a.58.58,0,0,0-.57-.57H33.26a.57.57,0,0,0-.58.57v3.65h1V88.6h2.77V84.26h1V80.62Z"/>
            <circle id="circle39" cx="35.08" cy="78.32" r="1.25"/>
            <path id="path41" class="cls-90" d="M35.07,74a8.51,8.51,0,0,0-6.28,2.58,8.77,8.77,0,0,0-2.63,6.34,9,9,0,0,0,8.91,8.93,8.8,8.8,0,0,0,6.39-2.67A8.44,8.44,0,0,0,44,82.83,8.87,8.87,0,0,0,35.15,74Zm0,1.61a7.32,7.32,0,0,1,7.31,7.31A6.8,6.8,0,0,1,40.3,88a7.2,7.2,0,0,1-5.21,2.19A7.28,7.28,0,0,1,30,77.65a6.92,6.92,0,0,1,5.09-2.14Z"/>
          </g>
          <path id="NC" d="M57.48,74a8.85,8.85,0,0,1,8.94,8.77v.15a8.42,8.42,0,0,1-2.55,6.26,8.8,8.8,0,0,1-6.39,2.67,9,9,0,0,1-8.91-8.93,8.77,8.77,0,0,1,2.63-6.34A8.51,8.51,0,0,1,57.48,74Zm-6.9,6.53a7.36,7.36,0,0,0,4.65,9.31,7.29,7.29,0,0,0,8.7-3.37l-3.37-1.5a2.6,2.6,0,0,1-2.45,2V88.3h-1V86.87A4.3,4.3,0,0,1,54.4,85.8l1.2-1.24a2.67,2.67,0,0,0,2,.8c.53,0,1.11-.21,1.11-.89a.69.69,0,0,0-.24-.53l-.85-.37-1.06-.49-1.42-.62Zm6.92-4.92a6.88,6.88,0,0,0-5.14,2.14,7.6,7.6,0,0,0-1,1.19l3.41,1.52a2.46,2.46,0,0,1,2.3-1.58V77.42h1v1.37a3.86,3.86,0,0,1,2.24.82l-1.17,1.2a2.81,2.81,0,0,0-1.53-.52c-.44,0-1.07.13-1.07.7a.4.4,0,0,0,.08.23l1.14.51.77.34,1.44.64,4.57,2a7.76,7.76,0,0,0,.23-1.92,7.32,7.32,0,0,0-7.31-7.3Z"/>
          <g id="ND">
            <path id="path1334" d="M79.67,74a9,9,0,1,0,.23,0Zm0,1.53h.23a7.28,7.28,0,1,1-.23,0Z"/>
            <path id="rect1338" d="M76.77,80.72h6.57v1.61H76.77Zm0,2.92h6.57v1.61H76.77Z"/>
          </g>
          <g id="CC">
            <path id="path2554" class="cls-90" d="M12.66,73.9a8.55,8.55,0,0,0-6.27,2.59,9,9,0,0,0-2.64,6.33,8.77,8.77,0,0,0,2.62,6.3,8.81,8.81,0,0,0,6.29,2.64,9,9,0,0,0,6.39-2.66,8.63,8.63,0,0,0,2.55-6.27,8.87,8.87,0,0,0-8.79-8.94Zm0,1.61A7.27,7.27,0,0,1,20,82.7v.13A7,7,0,0,1,17.9,88a7.45,7.45,0,0,1-5.22,2.18A7.25,7.25,0,0,1,7.54,88a7.32,7.32,0,0,1-2.18-5.14,7.46,7.46,0,0,1,2.18-5.2,7,7,0,0,1,5.14-2.11Z"/>
            <path id="path2556" class="cls-90" d="M12.57,81.35a2.5,2.5,0,0,0-2.37-1.29,2.55,2.55,0,0,0-2.62,2.5,2.17,2.17,0,0,0,0,.26A2.53,2.53,0,0,0,9.85,85.6a2.67,2.67,0,0,0,.4,0,2.68,2.68,0,0,0,2.35-1.4l-1.11-.56a1.09,1.09,0,0,1-1.1.77c-.82,0-1.2-.69-1.2-1.59s.32-1.58,1.2-1.58a1.15,1.15,0,0,1,1,.72Z"/>
            <path id="path2558" class="cls-90" d="M17.72,81.35a2.48,2.48,0,0,0-2.36-1.29,2.55,2.55,0,0,0-2.62,2.5,2.17,2.17,0,0,0,0,.26A2.53,2.53,0,0,0,15,85.6a2.94,2.94,0,0,0,.42,0,2.65,2.65,0,0,0,2.34-1.4l-1.1-.56a1.09,1.09,0,0,1-1.1.77c-.82,0-1.2-.69-1.2-1.59s.32-1.58,1.2-1.58a1.15,1.15,0,0,1,1,.72Z"/>
          </g>
        </g>
      </g>
      <g id="Ev_Freq" data-name="Ev Freq">
        <g id="Clock-2" data-name="Clock">
          <path id="Bg_TimeDisplay-2" data-name="Bg TimeDisplay" class="cls-56" d="M57.22,44.88v12c0,2.21-1.47,4-3.28,4H14.52c-1.82,0-3.29-1.79-3.29-4v-12c0-2.21,1.47-4,3.29-4H53.94C55.75,40.88,57.22,42.67,57.22,44.88Z"/>
          <path id="Clock-3" data-name="Clock" class="cls-27" d="M34.23,22.29A28.59,28.59,0,1,0,62.81,50.88,28.59,28.59,0,0,0,34.23,22.29Z"/>
          <polygon id="ClockTop-2-2" data-name="ClockTop-2" class="cls-2" points="40.01 15.03 28.45 15.03 28.45 17.03 33.23 17.03 33.23 20.1 35.23 20.1 35.23 17.03 40.01 17.03 40.01 15.03"/>
        </g>
        <g id="Freq_change" data-name="Freq change">
          <polygon id="FreqDownDown" class="cls-45" points="28.23 66.88 40.23 66.88 34.23 74.88 28.23 66.88"/>
          <polygon id="FreqUp" class="cls-45" points="28.23 34.89 34.23 26.88 40.23 34.89 28.23 34.89"/>
        </g>
        <g id="wave">
          <g>
            <g id="MotionLinesL-2" data-name="MotionLinesL">
              <path class="cls-2" d="M64.24,33.72v-6a1,1,0,0,1,2,0v6a1,1,0,0,1-2,0Z"/>
              <path class="cls-2" d="M68.24,33.72a1.11,1.11,0,0,1,.14-.5l3-5.2a1,1,0,0,1,1.36-.36A1,1,0,0,1,73.11,29l-3,5.2a1,1,0,0,1-1.36.38A1,1,0,0,1,68.24,33.72Z"/>
            </g>
            <g id="MotionLinesR-2" data-name="MotionLinesR">
              <path class="cls-2" d="M64.24,73.73v-6a1,1,0,0,1,2,0v6a1,1,0,0,1-2,0Z"/>
              <path class="cls-2" d="M68.24,67.73a1,1,0,0,1,1-1,1,1,0,0,1,.87.51l3,5.2a1,1,0,0,1-.42,1.34,1,1,0,0,1-1.31-.34l-3-5.2A1.14,1.14,0,0,1,68.24,67.73Z"/>
            </g>
          </g>
          <g>
            <line class="cls-91" x1="65.24" y1="40.88" x2="69.47" y2="40.88"/>
            <line class="cls-91" x1="82.13" y1="40.88" x2="86.36" y2="40.88"/>
            <line class="cls-91" x1="73.69" y1="40.88" x2="77.91" y2="40.88"/>
            <line class="cls-91" x1="69.47" y1="60.88" x2="73.69" y2="60.88"/>
            <line class="cls-91" x1="77.91" y1="60.88" x2="82.13" y2="60.88"/>
            <line class="cls-91" x1="86.36" y1="60.88" x2="90.58" y2="60.88"/>
            <line class="cls-91" x1="69.47" y1="60.88" x2="69.47" y2="40.88"/>
            <line class="cls-91" x1="86.36" y1="60.88" x2="86.36" y2="40.88"/>
            <line class="cls-91" x1="73.69" y1="60.88" x2="73.69" y2="40.88"/>
            <line class="cls-91" x1="77.91" y1="60.88" x2="77.91" y2="40.88"/>
            <line class="cls-91" x1="82.13" y1="60.88" x2="82.13" y2="40.88"/>
          </g>
        </g>
      </g>
    </g>
  </g>
</svg>
