<svg xmlns="http://www.w3.org/2000/svg" xmlns:xlink="http://www.w3.org/1999/xlink" viewBox="0 0 96 96.09">
  <defs>
    <style>
      .cls-1 {
        fill: #fbebe7;
      }

      .cls-2 {
        fill: #e5f0ff;
      }

      .cls-18, .cls-21, .cls-25, .cls-26, .cls-27, .cls-28, .cls-3, .cls-30, .cls-31, .cls-32, .cls-34, .cls-36, .cls-37, .cls-38, .cls-42, .cls-47, .cls-50, .cls-52, .cls-6, .cls-68, .cls-69, .cls-71, .cls-73, .cls-76, .cls-8, .cls-80, .cls-81, .cls-82 {
        fill: none;
      }

      .cls-3 {
        stroke: #ffae9e;
      }

      .cls-13, .cls-18, .cls-22, .cls-26, .cls-27, .cls-3, .cls-30, .cls-32, .cls-34, .cls-36, .cls-42, .cls-47, .cls-64, .cls-65, .cls-68, .cls-8, .cls-80, .cls-81, .cls-82 {
        stroke-miterlimit: 10;
      }

      .cls-12, .cls-13, .cls-16, .cls-17, .cls-21, .cls-22, .cls-3, .cls-30, .cls-34, .cls-42, .cls-47, .cls-54, .cls-64, .cls-65, .cls-8 {
        stroke-width: 1.5px;
      }

      .cls-4, .cls-5 {
        fill: #b0bec5;
      }

      .cls-4, .cls-6 {
        stroke: #78909c;
      }

      .cls-11, .cls-12, .cls-18, .cls-21, .cls-22, .cls-25, .cls-26, .cls-27, .cls-30, .cls-31, .cls-32, .cls-35, .cls-36, .cls-37, .cls-38, .cls-39, .cls-4, .cls-41, .cls-42, .cls-47, .cls-50, .cls-52, .cls-53, .cls-55, .cls-56, .cls-57, .cls-58, .cls-59, .cls-6, .cls-60, .cls-61, .cls-62, .cls-65, .cls-66, .cls-68, .cls-69, .cls-71, .cls-73, .cls-80, .cls-83 {
        stroke-linecap: round;
      }

      .cls-11, .cls-12, .cls-16, .cls-17, .cls-21, .cls-25, .cls-29, .cls-35, .cls-37, .cls-38, .cls-39, .cls-4, .cls-41, .cls-43, .cls-50, .cls-52, .cls-53, .cls-54, .cls-55, .cls-56, .cls-57, .cls-58, .cls-59, .cls-6, .cls-60, .cls-61, .cls-62, .cls-66, .cls-69, .cls-70, .cls-71, .cls-72, .cls-73, .cls-74, .cls-76, .cls-78, .cls-79, .cls-83 {
        stroke-linejoin: round;
      }

      .cls-11, .cls-18, .cls-25, .cls-26, .cls-27, .cls-29, .cls-35, .cls-36, .cls-37, .cls-38, .cls-39, .cls-4, .cls-41, .cls-43, .cls-52, .cls-53, .cls-55, .cls-56, .cls-57, .cls-58, .cls-59, .cls-6, .cls-60, .cls-61, .cls-62, .cls-66, .cls-68, .cls-69, .cls-70, .cls-71, .cls-72, .cls-73, .cls-74, .cls-76, .cls-78, .cls-79, .cls-80, .cls-81, .cls-83 {
        stroke-width: 2px;
      }

      .cls-7 {
        fill: #ff6040;
      }

      .cls-8 {
        stroke: #80c0ff;
      }

      .cls-9 {
        fill: #9cf;
      }

      .cls-10, .cls-16 {
        fill: #ffbfb2;
      }

      .cls-11 {
        fill: #546e7a;
      }

      .cls-11, .cls-29, .cls-38, .cls-39, .cls-70, .cls-72, .cls-74, .cls-76, .cls-78, .cls-79, .cls-80, .cls-83 {
        stroke: #263238;
      }

      .cls-12, .cls-24 {
        fill: #eceff1;
      }

      .cls-12, .cls-13, .cls-22, .cls-30, .cls-34, .cls-64 {
        stroke: #455a64;
      }

      .cls-13, .cls-22, .cls-33, .cls-41, .cls-53, .cls-54, .cls-61, .cls-79, .cls-83 {
        fill: #fff;
      }

      .cls-14 {
        fill: #455a64;
      }

      .cls-15 {
        fill: #ff6738;
      }

      .cls-16, .cls-17, .cls-18, .cls-21, .cls-54 {
        stroke: #37474f;
      }

      .cls-17, .cls-19 {
        fill: #ffd0c7;
      }

      .cls-20 {
        fill: #37474f;
      }

      .cls-23 {
        fill: #d1d1d1;
      }

      .cls-25, .cls-26, .cls-50 {
        stroke: #ff6040;
      }

      .cls-27, .cls-35, .cls-43 {
        stroke: #607d8b;
      }

      .cls-29, .cls-39, .cls-48 {
        fill: #befaea;
      }

      .cls-31, .cls-32 {
        stroke: #d1d1d1;
      }

      .cls-31 {
        stroke-linejoin: bevel;
      }

      .cls-35, .cls-40, .cls-43, .cls-62 {
        fill: #90a4ae;
      }

      .cls-36 {
        stroke: #6215e6;
      }

      .cls-37, .cls-42, .cls-47, .cls-65 {
        stroke: #90a4ae;
      }

      .cls-41, .cls-73 {
        stroke: #ff3d00;
      }

      .cls-42 {
        stroke-dasharray: 1.99 2.98;
      }

      .cls-44 {
        fill: #ffae9e;
      }

      .cls-45 {
        fill: url(#linear-gradient);
      }

      .cls-46 {
        fill: url(#linear-gradient-2);
      }

      .cls-47 {
        stroke-dasharray: 2.08 3.12;
      }

      .cls-49 {
        fill: #263238;
      }

      .cls-51 {
        fill: #6215e6;
      }

      .cls-52, .cls-53 {
        stroke: #b0bec5;
      }

      .cls-55 {
        fill: #00ff50;
      }

      .cls-55, .cls-56, .cls-57, .cls-58, .cls-59, .cls-60, .cls-61, .cls-62, .cls-66 {
        stroke: #546e7a;
      }

      .cls-56 {
        fill: #1919ff;
      }

      .cls-57 {
        fill: red;
      }

      .cls-58 {
        fill: #00e5ff;
      }

      .cls-59 {
        fill: #ffea00;
      }

      .cls-60 {
        fill: #ff00fb;
      }

      .cls-63, .cls-74 {
        fill: #ff3d00;
      }

      .cls-64, .cls-65 {
        fill: #e7ebed;
      }

      .cls-66 {
        fill: #00eaff;
      }

      .cls-67 {
        fill: url(#radial-gradient);
      }

      .cls-68 {
        stroke: #fff;
      }

      .cls-69 {
        stroke: #2543f2;
      }

      .cls-70 {
        fill: #2543f2;
      }

      .cls-71 {
        stroke: #00e676;
      }

      .cls-72 {
        fill: #00e676;
      }

      .cls-75 {
        fill: url(#radial-gradient-2);
      }

      .cls-77 {
        fill: #338bff;
      }

      .cls-81, .cls-82 {
        stroke: #338bff;
      }

      .cls-84 {
        fill-rule: evenodd;
      }
    </style>
    <linearGradient id="linear-gradient" x1="20.12" y1="48.33" x2="19.91" y2="5.31" gradientUnits="userSpaceOnUse">
      <stop offset="0"/>
      <stop offset="0.06" stop-color="#252525"/>
      <stop offset="0.16" stop-color="#585858"/>
      <stop offset="0.26" stop-color="#848484"/>
      <stop offset="0.37" stop-color="#aaa"/>
      <stop offset="0.48" stop-color="#c9c9c9"/>
      <stop offset="0.59" stop-color="#e1e1e1"/>
      <stop offset="0.71" stop-color="#f2f2f2"/>
      <stop offset="0.84" stop-color="#fcfcfc"/>
      <stop offset="1" stop-color="#fff"/>
    </linearGradient>
    <linearGradient id="linear-gradient-2" x1="52.09" y1="48.33" x2="51.88" y2="5.31" xlink:href="#linear-gradient"/>
    <radialGradient id="radial-gradient" cx="47.99" cy="64.81" r="95.84" gradientTransform="translate(28.49 39.04) scale(0.41 0.41)" gradientUnits="userSpaceOnUse">
      <stop offset="0" stop-color="#fff"/>
      <stop offset="0.09" stop-color="#fefefe" stop-opacity="0.97"/>
      <stop offset="0.22" stop-color="#fafbfc" stop-opacity="0.9"/>
      <stop offset="0.37" stop-color="#f4f6f7" stop-opacity="0.78"/>
      <stop offset="0.53" stop-color="#ecf0f1" stop-opacity="0.61"/>
      <stop offset="0.72" stop-color="#e2e7ea" stop-opacity="0.4"/>
      <stop offset="0.91" stop-color="#d6dde1" stop-opacity="0.14"/>
      <stop offset="1" stop-color="#cfd8dc" stop-opacity="0"/>
    </radialGradient>
    <radialGradient id="radial-gradient-2" cx="48" cy="28.8" r="34.1" gradientTransform="translate(-6.79 -17.6) scale(1.14 1.44)" xlink:href="#radial-gradient"/>
  </defs>
  <title>NewBlocks</title>
  <g id="Layer_2" data-name="Layer 2">
    <g id="Event_bg">
      <rect id="Events_bg" class="cls-1" y="0.09" width="96" height="96" rx="4"/>
    </g>
    <g id="Act_bg">
      <rect id="Actions_bg" class="cls-2" y="0.09" width="96" height="96" rx="4" transform="translate(96.09 0.09) rotate(90)"/>
    </g>
    <g id="Ev_Buttons">
      <path id="Bg_Thymio" class="cls-3" d="M48.05,6.68A56.78,56.78,0,0,0,7.78,23.26a3.93,3.93,0,0,0-1.14,2.8L6.58,87.42a2,2,0,0,0,2,2l78.79.08a2,2,0,0,0,2-2l.06-61.36a3.94,3.94,0,0,0-1.13-2.8A56.78,56.78,0,0,0,48.05,6.68Z"/>
      <g id="ButtonsOff">
        <circle id="Btn2_Center" class="cls-4" cx="48" cy="48.09" r="8.75"/>
        <g id="Btn2_Forward">
          <path class="cls-5" d="M40.21,31.28c-.55,0-.78-.39-.5-.87L47.45,17a.53.53,0,0,1,1,0L56.2,30.41c.28.48,0,.87-.5.87Z"/>
          <path class="cls-6" d="M40.21,31.28c-.55,0-.78-.39-.5-.87L47.45,17a.53.53,0,0,1,1,0L56.2,30.41c.28.48,0,.87-.5.87Z"/>
        </g>
        <g id="Btn2_Backward">
          <path class="cls-5" d="M40.21,64.89c-.55,0-.78.4-.5.88l7.74,13.41a.53.53,0,0,0,1,0L56.2,65.77c.28-.48,0-.88-.5-.88Z"/>
          <path class="cls-6" d="M40.21,64.89c-.55,0-.78.4-.5.88l7.74,13.41a.53.53,0,0,0,1,0L56.2,65.77c.28-.48,0-.88-.5-.88Z"/>
        </g>
        <g id="Btn2_Right">
          <path class="cls-5" d="M64.94,40.45c0-.55.39-.78.87-.5L79,47.54a.53.53,0,0,1,0,1L65.81,56.14c-.48.27-.87,0-.87-.51Z"/>
          <path class="cls-6" d="M64.94,40.45c0-.55.39-.78.87-.5L79,47.54a.53.53,0,0,1,0,1L65.81,56.14c-.48.27-.87,0-.87-.51Z"/>
        </g>
        <g id="Btn2_Left">
          <path class="cls-5" d="M31.06,40.45c0-.55-.39-.78-.87-.5L17,47.54a.53.53,0,0,0,0,1l13.15,7.59c.48.27.87,0,.87-.51Z"/>
          <path class="cls-6" d="M31.06,40.45c0-.55-.39-.78-.87-.5L17,47.54a.53.53,0,0,0,0,1l13.15,7.59c.48.27.87,0,.87-.51Z"/>
        </g>
      </g>
    </g>
    <g id="Ev_Remote1">
      <g id="RemoteSignal">
        <path class="cls-7" d="M51.65,12.14a1,1,0,0,1-.71-.29,4.15,4.15,0,0,0-5.88,0,1,1,0,1,1-1.42-1.42,6.18,6.18,0,0,1,8.72,0,1,1,0,0,1,0,1.42A1,1,0,0,1,51.65,12.14Z"/>
        <path class="cls-7" d="M54,9.79a1,1,0,0,1-.71-.29,7.48,7.48,0,0,0-10.58,0,1,1,0,0,1-1.42-1.42,9.51,9.51,0,0,1,13.42,0,1,1,0,0,1,0,1.42A1,1,0,0,1,54,9.79Z"/>
      </g>
      <g id="Remote1_buttons">
        <path id="Btn2_Remote1_85" class="cls-4" d="M30,51.8a17.93,17.93,0,0,1,3-9.91,2,2,0,0,0-.24-2.52L25.57,32.2a2,2,0,0,0-3,.18,32,32,0,0,0,0,38.83,2,2,0,0,0,3,.19l7.17-7.17A2,2,0,0,0,33,61.7,17.87,17.87,0,0,1,30,51.8Z"/>
        <path id="Btn2_Remote1_81" class="cls-4" d="M48,69.8a17.87,17.87,0,0,1-9.9-3,2,2,0,0,0-2.53.24L28.4,74.23a2,2,0,0,0,.19,3,32,32,0,0,0,38.82,0,2,2,0,0,0,.19-3l-7.17-7.17a2,2,0,0,0-2.53-.24A17.87,17.87,0,0,1,48,69.8Z"/>
        <path id="Btn2_Remote1_86" class="cls-4" d="M66,51.8a17.87,17.87,0,0,1-3,9.9,2,2,0,0,0,.24,2.53l7.17,7.17a2,2,0,0,0,3-.19,32,32,0,0,0,0-38.83,2,2,0,0,0-3-.18l-7.17,7.17A2,2,0,0,0,63,41.89,17.93,17.93,0,0,1,66,51.8Z"/>
        <path id="Btn2_Remote1_80" class="cls-4" d="M48,33.8a17.87,17.87,0,0,1,9.9,3,2,2,0,0,0,2.53-.24l7.17-7.17a2,2,0,0,0-.19-3,32,32,0,0,0-38.82,0,2,2,0,0,0-.19,3l7.17,7.17a2,2,0,0,0,2.53.24A17.87,17.87,0,0,1,48,33.8Z"/>
        <circle id="Btn2_Remote1_87" class="cls-4" cx="48" cy="51.8" r="12"/>
      </g>
    </g>
    <g id="Ev_Remote2">
      <g id="Remote2_Buttons">
        <rect id="Btn2_Remote2_0" class="cls-4" x="40" y="72" width="16" height="12"/>
        <path id="Btn2_Remote2_17" class="cls-4" d="M22,72H32a0,0,0,0,1,0,0V84a0,0,0,0,1,0,0H22a6,6,0,0,1-6-6v0A6,6,0,0,1,22,72Z"/>
        <path id="Btn2_Remote2_16" class="cls-4" d="M64,72H74a6,6,0,0,1,6,6v0a6,6,0,0,1-6,6H64a0,0,0,0,1,0,0V72A0,0,0,0,1,64,72Z"/>
        <path id="Btn2_Remote2_9" class="cls-4" d="M64,54H74a6,6,0,0,1,6,6v0a6,6,0,0,1-6,6H64a0,0,0,0,1,0,0V54A0,0,0,0,1,64,54Z"/>
        <rect id="Btn2_Remote2_8" class="cls-4" x="40" y="54" width="16" height="12"/>
        <path id="Btn2_Remote2_7" class="cls-4" d="M22,54H32a0,0,0,0,1,0,0V66a0,0,0,0,1,0,0H22a6,6,0,0,1-6-6v0a6,6,0,0,1,6-6Z"/>
        <path id="Btn2_Remote2_6" class="cls-4" d="M64,36H74a6,6,0,0,1,6,6v0a6,6,0,0,1-6,6H64a0,0,0,0,1,0,0V36A0,0,0,0,1,64,36Z"/>
        <rect id="Btn2_Remote2_5" class="cls-4" x="40" y="36" width="16" height="12"/>
        <path id="Btn2_Remote2_4" class="cls-4" d="M22,36H32a0,0,0,0,1,0,0V48a0,0,0,0,1,0,0H22a6,6,0,0,1-6-6v0a6,6,0,0,1,6-6Z"/>
        <path id="Btn2_Remote2_3" class="cls-4" d="M64,18H74a6,6,0,0,1,6,6v0a6,6,0,0,1-6,6H64a0,0,0,0,1,0,0V18A0,0,0,0,1,64,18Z"/>
        <rect id="Btn2_Remote2_2" class="cls-4" x="40" y="18" width="16" height="12"/>
        <path id="Btn2_Remote2_1" class="cls-4" d="M22,18H32a0,0,0,0,1,0,0V30a0,0,0,0,1,0,0H22a6,6,0,0,1-6-6v0A6,6,0,0,1,22,18Z"/>
      </g>
      <g id="RemoteSignal-2" data-name="RemoteSignal">
        <path class="cls-7" d="M51.65,12.14a1,1,0,0,1-.71-.29,4.16,4.16,0,0,0-5.89,0,1,1,0,0,1-1.41,0,1,1,0,0,1,0-1.42,6.18,6.18,0,0,1,8.72,0,1,1,0,0,1,0,1.42A1,1,0,0,1,51.65,12.14Z"/>
        <path class="cls-7" d="M54,9.79a1,1,0,0,1-.71-.29,7.48,7.48,0,0,0-10.58,0,1,1,0,0,1-1.42-1.42,9.51,9.51,0,0,1,13.42,0,1,1,0,0,1,0,1.42A1,1,0,0,1,54,9.79Z"/>
      </g>
    </g>
    <g id="CircleLeds_bas">
      <g id="statesAct_Bg">
        <path id="Ev_Bg_Thymio" class="cls-8" d="M48.05,6.09A57.56,57.56,0,0,0,7.28,22.85a4.17,4.17,0,0,0-1.22,3L6,86.51A3.5,3.5,0,0,0,9.49,90l77,.08a3.5,3.5,0,0,0,3.5-3.5L90,25.91a4.21,4.21,0,0,0-1.21-3A57.55,57.55,0,0,0,48.05,6.09Z"/>
        <g>
          <circle id="center" class="cls-9" cx="48" cy="48.08" r="7.51"/>
          <g id="up">
            <path class="cls-9" d="M41.5,34.12c-.56,0-.78-.39-.51-.87L47.43,22c.28-.48.73-.49,1,0L55,33.18c.28.48.06.87-.5.87Z"/>
          </g>
          <g id="down">
            <path class="cls-9" d="M41.5,62c-.56,0-.78.39-.51.87l6.44,11.3a.53.53,0,0,0,1,0L55,63c.28-.48.06-.87-.5-.88Z"/>
          </g>
          <g id="right">
            <path class="cls-9" d="M62,41.58c0-.55.39-.78.87-.51l11.29,6.44c.49.28.49.73,0,1L62.91,55.08c-.48.28-.88.06-.88-.5Z"/>
          </g>
          <g id="left">
            <path class="cls-9" d="M34,41.58c0-.55-.39-.78-.87-.51L21.88,47.51c-.49.28-.49.73,0,1l11.22,6.56c.48.28.88.06.88-.5Z"/>
          </g>
        </g>
      </g>
      <g id="statesEv_Bg">
        <path id="Ev_Bg_Thymio-2" data-name="Ev_Bg_Thymio" class="cls-3" d="M48.05,6.09A57.56,57.56,0,0,0,7.28,22.85a4.17,4.17,0,0,0-1.22,3L6,86.51A3.5,3.5,0,0,0,9.49,90l77,.08a3.5,3.5,0,0,0,3.5-3.5L90,25.91a4.21,4.21,0,0,0-1.21-3A57.55,57.55,0,0,0,48.05,6.09Z"/>
        <g>
          <circle id="center-2" data-name="center" class="cls-10" cx="48" cy="48.09" r="7.51"/>
          <g id="up-2" data-name="up">
            <path class="cls-10" d="M41.5,34.13c-.56,0-.78-.39-.51-.87L47.43,22a.53.53,0,0,1,1,0L55,33.18c.28.48.06.88-.5.88Z"/>
          </g>
          <g id="down-2" data-name="down">
            <path class="cls-10" d="M41.5,62.05c-.56,0-.78.39-.51.87l6.44,11.29c.28.48.73.49,1,0L55,63c.28-.48.06-.87-.5-.87Z"/>
          </g>
          <g id="right-2" data-name="right">
            <path class="cls-10" d="M62,41.59c0-.56.39-.79.87-.51l11.29,6.44a.53.53,0,0,1,0,1L62.91,55.09c-.48.28-.88,0-.88-.5Z"/>
          </g>
          <g id="left-2" data-name="left">
            <path class="cls-10" d="M34,41.59c0-.56-.39-.79-.87-.51L21.88,47.52a.53.53,0,0,0,0,1l11.22,6.56c.48.28.88,0,.88-.5Z"/>
          </g>
        </g>
      </g>
      <g id="StatesOff">
        <path id="Btn2_State7" class="cls-11" d="M33.09,18.11h0a4,4,0,0,0-5.82-1.86A38.12,38.12,0,0,0,15.89,27.77a4,4,0,0,0,1.88,5.78h0A4,4,0,0,0,22.66,32,30.14,30.14,0,0,1,31.6,23,4,4,0,0,0,33.09,18.11Z"/>
        <path id="Btn2_State6" class="cls-11" d="M18,48.08a29.64,29.64,0,0,1,.67-6.29,4,4,0,0,0-2.38-4.52h0A4,4,0,0,0,10.86,40a38.08,38.08,0,0,0,0,16.14,4,4,0,0,0,5.42,2.77h0a4,4,0,0,0,2.37-4.52A30,30,0,0,1,18,48.08Z"/>
        <path id="Btn2_State5" class="cls-11" d="M17.8,62.64h0a4,4,0,0,0-1.88,5.78,38,38,0,0,0,11.37,11.5,4,4,0,0,0,5.82-1.86h0a4,4,0,0,0-1.49-4.85,30.27,30.27,0,0,1-8.93-9A4,4,0,0,0,17.8,62.64Z"/>
        <path id="Btn2_State4" class="cls-11" d="M48,78.08a30.08,30.08,0,0,1-6.69-.75,4,4,0,0,0-4.56,2.37h0a4,4,0,0,0,2.84,5.45,38.23,38.23,0,0,0,8.41.93,37.69,37.69,0,0,0,7.71-.79,4,4,0,0,0,2.94-5.46h0a4,4,0,0,0-4.51-2.38A30.23,30.23,0,0,1,48,78.08Z"/>
        <path id="Btn2_State3" class="cls-11" d="M62.39,78.4h0a4,4,0,0,0,5.77,1.89A38,38,0,0,0,79.94,68.67a4,4,0,0,0-1.86-5.81h0a4,4,0,0,0-4.86,1.49,30.05,30.05,0,0,1-9.26,9.15A4,4,0,0,0,62.39,78.4Z"/>
        <path id="Btn2_State2" class="cls-11" d="M78,48.08a30.18,30.18,0,0,1-.72,6.56,4,4,0,0,0,2.37,4.54h0a4,4,0,0,0,5.42-2.75,38.17,38.17,0,0,0,0-16.66A4,4,0,0,0,79.66,37h0a4,4,0,0,0-2.37,4.54A29.81,29.81,0,0,1,78,48.08Z"/>
        <path id="Btn2_State1" class="cls-11" d="M78.08,33.34h0A4,4,0,0,0,80,27.53,38.07,38.07,0,0,0,68.18,15.88a4,4,0,0,0-5.78,1.9h0A4,4,0,0,0,64,22.67a30.15,30.15,0,0,1,9.27,9.17A4,4,0,0,0,78.08,33.34Z"/>
        <path id="Btn2_State0" class="cls-11" d="M48,18.08a29.8,29.8,0,0,1,6.16.64,4,4,0,0,0,4.51-2.38h0a4,4,0,0,0-2.94-5.46,37.89,37.89,0,0,0-7.73-.8,38.32,38.32,0,0,0-8.42.94,4,4,0,0,0-2.85,5.44h0a4,4,0,0,0,4.56,2.37A30.11,30.11,0,0,1,48,18.08Z"/>
      </g>
    </g>
    <g id="CircleLeds_adv">
      <g id="statesAct_Bg_adv">
        <path id="Ev_Bg_Thymio-3" data-name="Ev_Bg_Thymio" class="cls-8" d="M48.05,6.09A57.56,57.56,0,0,0,7.28,22.85a4.17,4.17,0,0,0-1.22,3L6,86.51A3.5,3.5,0,0,0,9.49,90l77,.08a3.5,3.5,0,0,0,3.5-3.5L90,25.91a4.21,4.21,0,0,0-1.21-3A57.55,57.55,0,0,0,48.05,6.09Z"/>
        <g>
          <circle id="center-3" data-name="center" class="cls-9" cx="48" cy="48.08" r="7.51"/>
          <g id="up-3" data-name="up">
            <path class="cls-9" d="M41.5,34.12c-.56,0-.78-.39-.51-.87L47.43,22c.28-.48.73-.49,1,0L55,33.18c.28.48.06.87-.5.87Z"/>
          </g>
          <g id="down-3" data-name="down">
            <path class="cls-9" d="M41.5,62c-.56,0-.78.39-.51.87l6.44,11.3a.53.53,0,0,0,1,0L55,63c.28-.48.06-.87-.5-.88Z"/>
          </g>
          <g id="right-3" data-name="right">
            <path class="cls-9" d="M62,41.58c0-.55.39-.78.87-.51l11.29,6.44c.49.28.49.73,0,1L62.91,55.08c-.48.28-.88.06-.88-.5Z"/>
          </g>
          <g id="left-3" data-name="left">
            <path class="cls-9" d="M34,41.58c0-.55-.39-.78-.87-.51L21.88,47.51c-.49.28-.49.73,0,1l11.22,6.56c.48.28.88.06.88-.5Z"/>
          </g>
        </g>
      </g>
      <g id="statesEv_Bg_adv">
        <path id="Ev_Bg_Thymio-4" data-name="Ev_Bg_Thymio" class="cls-3" d="M48.05,6.09A57.56,57.56,0,0,0,7.28,22.85a4.17,4.17,0,0,0-1.22,3L6,86.51A3.5,3.5,0,0,0,9.49,90l77,.08a3.5,3.5,0,0,0,3.5-3.5L90,25.91a4.21,4.21,0,0,0-1.21-3A57.55,57.55,0,0,0,48.05,6.09Z"/>
        <g>
          <circle id="center-4" data-name="center" class="cls-10" cx="48" cy="48.09" r="7.51"/>
          <g id="up-4" data-name="up">
            <path class="cls-10" d="M41.5,34.13c-.56,0-.78-.39-.51-.87L47.43,22a.53.53,0,0,1,1,0L55,33.18c.28.48.06.88-.5.88Z"/>
          </g>
          <g id="down-4" data-name="down">
            <path class="cls-10" d="M41.5,62.05c-.56,0-.78.39-.51.87l6.44,11.29c.28.48.73.49,1,0L55,63c.28-.48.06-.87-.5-.87Z"/>
          </g>
          <g id="right-4" data-name="right">
            <path class="cls-10" d="M62,41.59c0-.56.39-.79.87-.51l11.29,6.44a.53.53,0,0,1,0,1L62.91,55.09c-.48.28-.88,0-.88-.5Z"/>
          </g>
          <g id="left-4" data-name="left">
            <path class="cls-10" d="M34,41.59c0-.56-.39-.79-.87-.51L21.88,47.52a.53.53,0,0,0,0,1l11.22,6.56c.48.28.88,0,.88-.5Z"/>
          </g>
        </g>
      </g>
      <g id="StatesOff_Adv">
        <path id="Btn3_State7_adv" class="cls-4" d="M33.09,18.11h0a4,4,0,0,0-5.82-1.86A38.12,38.12,0,0,0,15.89,27.77a4,4,0,0,0,1.88,5.78h0A4,4,0,0,0,22.66,32,30.14,30.14,0,0,1,31.6,23,4,4,0,0,0,33.09,18.11Z"/>
        <path id="Btn3_State6_adv" class="cls-4" d="M18,48.08a29.64,29.64,0,0,1,.67-6.29,4,4,0,0,0-2.38-4.52h0A4,4,0,0,0,10.86,40a38.08,38.08,0,0,0,0,16.14,4,4,0,0,0,5.42,2.77h0a4,4,0,0,0,2.37-4.52A30,30,0,0,1,18,48.08Z"/>
        <path id="Btn3_State5_adv" class="cls-4" d="M17.8,62.64h0a4,4,0,0,0-1.88,5.78,38,38,0,0,0,11.37,11.5,4,4,0,0,0,5.82-1.86h0a4,4,0,0,0-1.49-4.85,30.27,30.27,0,0,1-8.93-9A4,4,0,0,0,17.8,62.64Z"/>
        <path id="Btn3_State4_adv" class="cls-4" d="M48,78.08a30.08,30.08,0,0,1-6.69-.75,4,4,0,0,0-4.56,2.37h0a4,4,0,0,0,2.84,5.45,38.23,38.23,0,0,0,8.41.93,37.69,37.69,0,0,0,7.71-.79,4,4,0,0,0,2.94-5.46h0a4,4,0,0,0-4.51-2.38A30.23,30.23,0,0,1,48,78.08Z"/>
        <path id="Btn3_State3_adv" class="cls-4" d="M62.39,78.4h0a4,4,0,0,0,5.77,1.89A38,38,0,0,0,79.94,68.67a4,4,0,0,0-1.86-5.81h0a4,4,0,0,0-4.86,1.49,30.05,30.05,0,0,1-9.26,9.15A4,4,0,0,0,62.39,78.4Z"/>
        <path id="Btn3_State2_adv" class="cls-4" d="M78,48.08a30.18,30.18,0,0,1-.72,6.56,4,4,0,0,0,2.37,4.54h0a4,4,0,0,0,5.42-2.75,38.17,38.17,0,0,0,0-16.66A4,4,0,0,0,79.66,37h0a4,4,0,0,0-2.37,4.54A29.81,29.81,0,0,1,78,48.08Z"/>
        <path id="Btn3_State1_adv" class="cls-4" d="M78.08,33.34h0A4,4,0,0,0,80,27.53,38.07,38.07,0,0,0,68.18,15.88a4,4,0,0,0-5.78,1.9h0A4,4,0,0,0,64,22.67a30.15,30.15,0,0,1,9.27,9.17A4,4,0,0,0,78.08,33.34Z"/>
        <path id="Btn3_State0_adv" class="cls-4" d="M48,18.08a29.8,29.8,0,0,1,6.16.64,4,4,0,0,0,4.51-2.38h0a4,4,0,0,0-2.94-5.46,37.89,37.89,0,0,0-7.73-.8,38.32,38.32,0,0,0-8.42.94,4,4,0,0,0-2.85,5.44h0a4,4,0,0,0,4.56,2.37A30.11,30.11,0,0,1,48,18.08Z"/>
      </g>
    </g>
    <g id="Ev_Start">
      <g id="Bg_Th_Profile-3" data-name="Bg_Th_Profile">
        <path class="cls-12" d="M68.51,83.22H63.85c1.53,1,1.8,3,2.32,3.8A2.37,2.37,0,0,0,68,88H69a2.39,2.39,0,0,0,1.86-1c.53-.79.8-2.8,2.32-3.8Z"/>
        <rect class="cls-13" x="16" y="59.22" width="64" height="24" rx="2"/>
        <circle class="cls-13" cx="33.96" cy="75.72" r="12.5"/>
        <path class="cls-14" d="M73,68.93H67.9a.75.75,0,0,1,0-1.5H73a.75.75,0,1,1,0,1.5Z"/>
        <path class="cls-14" d="M79.25,68.93h-1.9a.75.75,0,0,1,0-1.5h1.9Z"/>
      </g>
      <g id="Play">
        <path class="cls-15" d="M60.8,29,37.85,14.85A2.52,2.52,0,0,0,34,17V45.24a2.52,2.52,0,0,0,3.85,2.15L60.8,33.27A2.53,2.53,0,0,0,60.8,29Z"/>
      </g>
    </g>
    <g id="Ev_Clap">
      <g id="Bg_ClapHands">
        <g id="fx">
          <path class="cls-7" d="M23,34.25H17a1,1,0,1,1,0-2h6a1,1,0,0,1,0,2Z"/>
          <path class="cls-7" d="M17.8,41.25a1,1,0,0,1-.5-1.87l5.2-3a1,1,0,1,1,1,1.73l-5.2,3A1,1,0,0,1,17.8,41.25Z"/>
        </g>
        <g id="fx-2" data-name="fx">
          <path class="cls-7" d="M57.15,13.94a1,1,0,0,1-1-1v-6a1,1,0,0,1,2,0v6A1,1,0,0,1,57.15,13.94Z"/>
          <path class="cls-7" d="M61.15,14.09a1,1,0,0,1-.87-1.5l3-5.2a1,1,0,0,1,1.73,1l-3,5.2A1,1,0,0,1,61.15,14.09Z"/>
        </g>
        <path id="HandBack" class="cls-16" d="M41.54,47.72,28.89,35.14a2.23,2.23,0,0,1,0-3.43A2.53,2.53,0,0,1,30.53,31a2.35,2.35,0,0,1,1.79.72l9.17,9.11a.53.53,0,1,0,.75-.75L33.08,31h0l-4.52-4.5A2.31,2.31,0,0,1,28.66,23,2.22,2.22,0,0,1,32,23L45.54,36.48a.54.54,0,0,0,.76,0,.55.55,0,0,0,0-.76L32.74,22.25l-1.4-1.39a2.37,2.37,0,0,1,0-3.44A2.48,2.48,0,0,1,33,16.69a2.32,2.32,0,0,1,1.79.73L37.41,20h0L49.83,32.39a.55.55,0,0,0,.76,0,.53.53,0,0,0,0-.75L38.17,19.28a2.3,2.3,0,0,1,.11-3.42,2.22,2.22,0,0,1,3.33,0L57.26,31.41s.36.65.89.51.36-.74.36-.75L54.7,23.91a3.3,3.3,0,0,1,1.42-4.53s1-.47,1.36.28l6.16,11.77h0a14.08,14.08,0,0,1-2.18,16.22s0,0,0,0A14.13,14.13,0,0,1,41.54,47.72Z"/>
        <g id="HandFront">
          <path id="HandFront-2" data-name="HandFront" class="cls-17" d="M45.08,47.25,32.44,34.67a2.24,2.24,0,0,1,0-3.44,2.53,2.53,0,0,1,1.64-.73,2.35,2.35,0,0,1,1.79.72L45,40.34a.53.53,0,0,0,.75,0,.54.54,0,0,0,0-.76l-9.16-9.11h0L32.1,26a2.33,2.33,0,0,1,.1-3.44,2.22,2.22,0,0,1,3.33,0L49.09,36a.53.53,0,0,0,.75-.75L36.29,21.77l-1.4-1.39a2.35,2.35,0,0,1,0-3.43,2.44,2.44,0,0,1,1.64-.73,2.32,2.32,0,0,1,1.79.72L41,19.56h0L53.38,31.91a.54.54,0,0,0,.76,0,.55.55,0,0,0,0-.76L41.71,18.81a2.32,2.32,0,0,1,.11-3.43,2.22,2.22,0,0,1,3.33,0L60.81,30.94s.56.61,1,.47.28-.7.27-.71l-3.8-7.27a3.28,3.28,0,0,1,1.42-4.52s1-.47,1.35.28L67.19,31h0A14.13,14.13,0,0,1,65,47.19a0,0,0,0,0,0,0A14.13,14.13,0,0,1,45.08,47.25Z"/>
          <path class="cls-10" d="M62.4,45.28c2.63-4.82-.39-10-2-12.12L60.33,33l-.54-.5L43,15.52h0a1.3,1.3,0,0,1,1.66.38L60.19,31.39c.24.24,1,.93,1.62.79a1.1,1.1,0,0,0,.85-.62,1.41,1.41,0,0,0,.13-1l-.06-.15-3.82-7.3A2.53,2.53,0,0,1,60,19.57l.13,0,.19,0,6.19,11.82a13.36,13.36,0,0,1-2.07,15.36,13,13,0,0,1-5.15,3.16A27.43,27.43,0,0,0,62.4,45.28Z"/>
          <path id="shadow2" class="cls-10" d="M52.62,33.06,36.75,17a1.4,1.4,0,0,1,1,.44L53,32.59a2,2,0,0,0,1.07.29C54.1,33.35,53.23,33.37,52.62,33.06Z"/>
        </g>
      </g>
      <g id="Bg_Th_Profile-4" data-name="Bg_Th_Profile">
        <path class="cls-12" d="M68.51,83.22H63.85c1.53,1,1.8,3,2.32,3.8A2.37,2.37,0,0,0,68,88H69a2.39,2.39,0,0,0,1.86-1c.53-.79.8-2.8,2.32-3.8Z"/>
        <rect class="cls-13" x="16" y="59.22" width="64" height="24" rx="2"/>
        <circle class="cls-13" cx="33.96" cy="75.72" r="12.5"/>
        <path class="cls-14" d="M73,68.93H67.9a.75.75,0,0,1,0-1.5H73a.75.75,0,1,1,0,1.5Z"/>
        <path class="cls-14" d="M79.25,68.93h-1.9a.75.75,0,0,1,0-1.5h1.9Z"/>
      </g>
    </g>
    <g id="Ev_Acc_Hit">
      <g id="Bg_Th_Profile-5" data-name="Bg_Th_Profile">
        <path class="cls-12" d="M68.51,65.09H63.85c1.53,1,1.8,3,2.32,3.8a2.37,2.37,0,0,0,1.87,1H69a2.39,2.39,0,0,0,1.87-1c.52-.79.79-2.8,2.31-3.8Z"/>
        <rect class="cls-13" x="16" y="41.09" width="64" height="24" rx="2"/>
        <circle class="cls-13" cx="33.96" cy="57.59" r="12.5"/>
        <path class="cls-14" d="M73,50.8H67.9a.75.75,0,0,1,0-1.5H73a.75.75,0,0,1,0,1.5Z"/>
        <path class="cls-14" d="M79.25,50.8h-1.9a.75.75,0,0,1,0-1.5h1.9Z"/>
      </g>
      <path class="cls-10" d="M41,25.62c.93.49,1.59,1.48,3.2,2.17,8.16,3.48,17.06,4.67,18.65,5.05,2.89.68,4.91-.68,5.14-2.61,0,0-1.25,1.47-5.6.6s-15.47-3.38-16.23-3.55a2.72,2.72,0,0,1-1.27-.46C44.5,26.6,41.71,25.09,41,25.62Z"/>
      <line id="Ground" class="cls-18" x1="8.07" y1="72.09" x2="88.07" y2="72.09"/>
      <g id="HandTap">
        <path class="cls-19" d="M66.29,27.36c-.43-.89-1.53-1.71-3.42-2-5-.87-14.81-4-20.28-6-4.12-1.55-11-18.95-11-18.95H11.94s8.74,13.57,11,16.46S26.74,24.37,31.82,28c4,2.88,9,4.37,15,7.63,4.34,2.33,8,1.2,8.09-1,0-1.72-1.07-3-5.09-4.4a31.32,31.32,0,0,1-6.56-3.26c7.21,1.84,17.69,4.5,19.55,4.94,2.89.68,5.77-.14,6-2.07S66.29,27.36,66.29,27.36Z"/>
        <path class="cls-10" d="M19.13.35H11.94s8.74,13.57,11,16.46S26.74,24.37,31.82,28c4,2.88,9,4.37,15,7.63,2.71,1.46,5.17,1.56,6.65.89L39.23,29.67a20.83,20.83,0,0,1-7.17-6C29.46,19.87,19.13.35,19.13.35Z"/>
        <path class="cls-20" d="M66.93,26.49A5.56,5.56,0,0,0,63,24.34a109.56,109.56,0,0,1-20-5.95C39.07,16.64,33.91,4,32.69.35h-2c0,.1,5.84,17.34,11.53,19.87,1.37.61,3,1.25,4.85,1.87a1,1,0,0,0-.52.65,1,1,0,0,0,.74,1.2l18.8,4.39s0,0,0,0h0s1.83.39,1.72,1.35a1.19,1.19,0,0,1-.55.81,5.75,5.75,0,0,1-4.22.4c-2.71-.64-16.17-3.55-17.72-3.88a42,42,0,0,1-3.77-2.46,1,1,0,1,0-1.17,1.63,35.78,35.78,0,0,0,9.1,4.94c4.14,1.48,4.46,2.51,4.43,3.43a1.13,1.13,0,0,1-.65.94c-1.09.63-3.36.64-6-.76s-4.9-2.44-7-3.38a46.54,46.54,0,0,1-7.92-4.19,22.94,22.94,0,0,1-6.51-7.74,25.92,25.92,0,0,0-2.12-3.24c-1.94-2.44-9-13.67-10.59-15.84H11c0,.2,9,14.21,11.25,17.09a25.34,25.34,0,0,1,2,3,24.88,24.88,0,0,0,7.07,8.35,48.12,48.12,0,0,0,8.25,4.38c2.17,1,4.4,2,6.87,3.32a10.89,10.89,0,0,0,5.07,1.41,5.63,5.63,0,0,0,2.84-.68,3.13,3.13,0,0,0,1.65-2.62,4.16,4.16,0,0,0-2.25-3.74c3.78.83,7.62,1.67,8.92,2a10.1,10.1,0,0,0,2.22.26,6.35,6.35,0,0,0,3.61-1,3.13,3.13,0,0,0,1.39-2.21C70,27.92,68.23,26.87,66.93,26.49Z"/>
      </g>
      <g id="MotionLinesL">
        <path class="cls-7" d="M23,36.09H17a1,1,0,0,1,0-2h6a1,1,0,0,1,0,2Z"/>
        <path class="cls-7" d="M23,32.09a1,1,0,0,1-.5-.14l-5.2-3a1,1,0,0,1-.36-1.36,1,1,0,0,1,1.36-.37l5.2,3a1,1,0,0,1-.5,1.87Z"/>
      </g>
      <g id="MotionLinesR">
        <path class="cls-7" d="M79,36.09H73a1,1,0,0,1,0-2h6a1,1,0,0,1,0,2Z"/>
        <path class="cls-7" d="M73,32.09a1,1,0,0,1-.5-1.87l5.2-3a1,1,0,0,1,1,1.73l-5.2,3A1,1,0,0,1,73,32.09Z"/>
      </g>
    </g>
    <g id="Ev_Acc_Fall">
      <g id="Hand">
        <path class="cls-17" d="M52.52,95.11v-.8S52.23,89.48,59.3,85c4-2.58,3.86-4.75,2.54-6.08-1.61-1.6-4.42.22-4.42.22s-3,1.77-6.51,4-7.18-1.41-7.18-1.41L30.54,70.33S28,67.92,26,69.74a2.69,2.69,0,0,0-.32,3.78S23.29,71.11,21.8,73a1.7,1.7,0,0,0-.31,2l-.13.14a2.91,2.91,0,0,0,.27,4l2.6,2.25c-2.12.9-.75,2.86-.75,2.86s5.29,4.39,7.61,6.37a20.33,20.33,0,0,1,3.57,3.52s.14.12.14.2v.83"/>
        <path class="cls-10" d="M24.11,82.23c-.54.32-.25,1.25-.05,1.46l7.31,6.12a1.6,1.6,0,0,0,0-1.33Z"/>
        <path class="cls-10" d="M32.54,87.51c-.12-.08-6.75-5.82-6.75-5.82l-3.72-3.22a2.29,2.29,0,0,1-.64-1.33l10.87,9.5A1.21,1.21,0,0,1,32.54,87.51Z"/>
        <path class="cls-10" d="M26.27,73.06a2,2,0,0,1-.44-1.88L38,82.27s.65,1,.27,1.32C38.15,83.68,26.27,73.06,26.27,73.06Z"/>
        <path class="cls-10" d="M34.6,85.62c-.12-.09-12.11-10.55-12.11-10.55a1,1,0,0,1-.26-1.37c.05-.06.13-.22.18-.29L34.3,83.92a1.67,1.67,0,0,1,.54,1.14C34.84,85.51,34.6,85.62,34.6,85.62Z"/>
        <path class="cls-10" d="M47.79,95.11c.55-5.81,5.83-9.27,8.67-11.12,4.68-3.06,4.85-4.58,4.85-4.58a1.82,1.82,0,0,1,.6,1.51c-.07.72-.66,1.89-3,3.4-6.42,4.12-7,8.54-7.08,9.8l0,1Z"/>
        <path class="cls-21" d="M34,86.09,22.18,75.81A1.93,1.93,0,0,1,21.8,73c1.52-1.87,3.86.52,3.86.52L37.63,84"/>
        <line class="cls-21" x1="21.63" y1="79.08" x2="32.01" y2="88.08"/>
      </g>
      <g id="fx-3" data-name="fx">
        <path class="cls-7" d="M41.51,16.92a1,1,0,0,1-1-1V4.8a1,1,0,1,1,2,0V15.92A1,1,0,0,1,41.51,16.92Z"/>
        <path class="cls-7" d="M20.67,27.36a1,1,0,0,1-1-1V14.27a1,1,0,1,1,2,0V26.36A1,1,0,0,1,20.67,27.36Z"/>
        <path class="cls-7" d="M35.52,14.1a1,1,0,0,1-1-1V7.46a1,1,0,0,1,2,0V13.1A1,1,0,0,1,35.52,14.1Z"/>
      </g>
      <g id="Bg_Th_Profile-6" data-name="Bg_Th_Profile">
        <path class="cls-12" d="M53.26,68.2l-2.88-2.88c.33,1.56-.75,3-.92,3.79A2.09,2.09,0,0,0,50,70.86l.59.58a2.09,2.09,0,0,0,1.75.56c.81-.17,2.23-1.24,3.78-.92L53.26,68.2Z"/>
        <rect class="cls-13" x="20" y="37.59" width="56" height="21" rx="2" transform="translate(48.06 -19.86) rotate(45)"/>
        <circle class="cls-13" cx="36.53" cy="42.19" r="10.94" transform="translate(-19.13 38.19) rotate(-45)"/>
        <line class="cls-22" x1="61.66" y1="58.03" x2="64.81" y2="61.17"/>
        <line class="cls-22" x1="67.51" y1="63.87" x2="69.08" y2="65.44"/>
      </g>
    </g>
    <g id="Ev_Accel_bas">
      <g id="Ground_accel">
        <path class="cls-7" d="M88,76.09H8a1,1,0,0,1,0-2H88a1,1,0,0,1,0,2Z"/>
      </g>
      <g id="ThymioUpsideDown">
        <path class="cls-12" d="M30.06,52.27h4.07c-1.33-.87-1.57-2.63-2-3.33a2.07,2.07,0,0,0-1.63-.84h-.83A2.1,2.1,0,0,0,28,49c-.46.69-.7,2.45-2,3.33h4.08Z"/>
        <rect class="cls-13" x="20" y="52.28" width="56" height="21" rx="2" transform="translate(96 125.55) rotate(180)"/>
        <circle class="cls-13" cx="60.28" cy="58.84" r="10.94"/>
        <line class="cls-22" x1="31.31" y1="65.41" x2="26.87" y2="65.41"/>
        <line class="cls-22" x1="23.05" y1="65.41" x2="20.82" y2="65.41"/>
      </g>
      <g id="ThymioSideDown">
        <rect class="cls-13" x="18.41" y="35.84" width="54.5" height="20.5" rx="2" transform="translate(-0.43 91.74) rotate(-90)"/>
        <path class="cls-12" d="M55.91,50.18c.87-1.33,2.52-1.56,3.22-2A2.07,2.07,0,0,0,60,46.53V45.7a2.11,2.11,0,0,0-.85-1.63c-.69-.45-2.34-.69-3.21-2Z"/>
        <g>
          <path class="cls-14" d="M45,37.24a.75.75,0,0,1-.74-.75l0-4.5a.74.74,0,1,1,1.48,0l0,4.5a.74.74,0,0,1-.73.76Z"/>
          <path class="cls-14" d="M45,61.24a.72.72,0,0,1-.74-.69l0-4.62a.72.72,0,0,1,.74-.69.73.73,0,0,1,.74.69l0,4.61a.7.7,0,0,1-.73.7Z"/>
        </g>
        <path class="cls-23" d="M45.27,51.26a.5.5,0,0,1-.5-.5v-3a.49.49,0,0,1,.5-.49.5.5,0,0,1,.5.49v3A.5.5,0,0,1,45.27,51.26Z"/>
        <path class="cls-23" d="M45.27,44.05a.49.49,0,0,1-.5-.49v-3a.49.49,0,0,1,.5-.49.5.5,0,0,1,.5.49v3A.5.5,0,0,1,45.27,44.05Z"/>
        <g>
          <path class="cls-24" d="M55.84,31.34v-8.5h2.75a1.25,1.25,0,0,1,1.25,1.25v6a1.25,1.25,0,0,1-1.25,1.25Z"/>
          <path class="cls-14" d="M58.59,23.59a.5.5,0,0,1,.5.5v6a.5.5,0,0,1-.5.5h-2v-7h2m0-1.5h-3.5v10h3.5a2,2,0,0,0,2-2v-6a2,2,0,0,0-2-2Z"/>
        </g>
        <g>
          <path class="cls-24" d="M55.84,69.34v-8.5h2.75a1.25,1.25,0,0,1,1.25,1.25v6a1.25,1.25,0,0,1-1.25,1.25Z"/>
          <path class="cls-14" d="M58.59,61.59a.5.5,0,0,1,.5.5v6a.5.5,0,0,1-.5.5h-2v-7h2m0-1.5h-3.5v10h3.5a2,2,0,0,0,2-2v-6a2,2,0,0,0-2-2Z"/>
        </g>
      </g>
    </g>
    <g id="Ev_Accel">
      <g id="Rot360Rail">
        <g id="Gravity_arrow">
          <polyline class="cls-25" points="13.03 83.05 8.99 87.09 4.95 83.05"/>
          <line class="cls-26" x1="8.99" y1="87.09" x2="8.99" y2="75.05"/>
        </g>
        <g id="_360Rot_rail" data-name="360Rot_rail">
          <g>
            <path class="cls-27" d="M81.9,26.86A39.93,39.93,0,0,0,69.31,14.27"/>
            <path class="cls-27" d="M88,46.66a39.76,39.76,0,0,0-4.6-17.2"/>
            <path class="cls-27" d="M26.69,14.25A40.06,40.06,0,0,0,14.11,26.86"/>
            <path class="cls-27" d="M49.51,88.14a40.07,40.07,0,0,0,17.18-4.61"/>
            <path class="cls-27" d="M69.3,82A39.87,39.87,0,0,0,81.87,69.45"/>
            <path class="cls-27" d="M83.37,66.85A39.91,39.91,0,0,0,88,49.66"/>
            <path class="cls-27" d="M66.71,12.77a40,40,0,0,0-17.2-4.63"/>
            <path class="cls-27" d="M29.32,83.53A40,40,0,0,0,46.5,88.15"/>
            <path class="cls-27" d="M12.61,29.46A40,40,0,0,0,8,46.66"/>
            <path class="cls-27" d="M14.12,69.46A39.8,39.8,0,0,0,26.72,82"/>
            <path class="cls-27" d="M46.5,8.15a39.78,39.78,0,0,0-17.2,4.61"/>
            <path class="cls-27" d="M8,49.66a40,40,0,0,0,4.61,17.2"/>
          </g>
        </g>
      </g>
      <g id="Acc0">
        <g id="Bg_Th_Profile-7" data-name="Bg_Th_Profile">
          <path class="cls-12" d="M68.51,57.57H63.85c1.53,1,1.8,3,2.32,3.8a2.37,2.37,0,0,0,1.87,1H69a2.42,2.42,0,0,0,1.87-1c.52-.79.79-2.8,2.31-3.8Z"/>
          <rect class="cls-13" x="16" y="33.57" width="64" height="24" rx="2"/>
          <circle class="cls-13" cx="33.96" cy="50.07" r="12.5"/>
          <path class="cls-14" d="M73,43.28H67.9a.75.75,0,0,1,0-1.5H73a.75.75,0,0,1,0,1.5Z"/>
          <path class="cls-14" d="M79.25,43.28h-1.9a.75.75,0,0,1,0-1.5h1.9Z"/>
        </g>
        <g id="Rot360_Handle_0">
          <circle id="RotationCenter0" class="cls-28" cx="48" cy="48.09" r="3"/>
          <circle id="Btn2_HandleAcc0" class="cls-29" cx="48.01" cy="8.21" r="5"/>
        </g>
      </g>
      <g id="Acc1">
        <g id="ThymioAcc1">
          <rect class="cls-13" x="16" y="33.57" width="64" height="24" rx="2"/>
          <path class="cls-12" d="M78.3,57.56v4a1,1,0,0,1-.94,1H71.28a1,1,0,0,1-1-1v-4Z"/>
          <path class="cls-12" d="M25.84,57.57v4a1,1,0,0,1-1,1H18.81a1,1,0,0,1-.95-1v-4Z"/>
          <path class="cls-12" d="M43.37,57.57c1.52,1,1.79,2.89,2.32,3.68a2.36,2.36,0,0,0,1.86,1h1a2.37,2.37,0,0,0,1.86-1c.52-.79.8-2.68,2.32-3.68Z"/>
          <line class="cls-30" x1="59.24" y1="45.3" x2="65.21" y2="45.28"/>
          <line class="cls-30" x1="36.81" y1="45.28" x2="30.83" y2="45.3"/>
          <line class="cls-31" x1="54.55" y1="45.29" x2="51.36" y2="45.3"/>
          <line class="cls-32" x1="41.49" y1="45.29" x2="46.67" y2="45.29"/>
        </g>
        <g id="Rot360_Handle_1">
          <circle id="RotationCenter1" class="cls-28" cx="48" cy="48.09" r="3"/>
          <circle id="Btn2_HandleAcc1" class="cls-29" cx="48" cy="8.21" r="5"/>
        </g>
      </g>
      <g id="Acc2">
        <g id="ThymioAcc2">
          <path class="cls-33" d="M48,24.14a32.91,32.91,0,0,0-23.3,9.58A2.37,2.37,0,0,0,24,35.41l0,34.67a2,2,0,0,0,2,2l44,0a2,2,0,0,0,2-2l0-34.67a2.36,2.36,0,0,0-.68-1.69A32.94,32.94,0,0,0,48,24.14Z"/>
          <path class="cls-34" d="M48,24.14A32.92,32.92,0,0,0,24.39,34,1.51,1.51,0,0,0,24,35l0,35.54a1.49,1.49,0,0,0,1.49,1.5l45,0a1.5,1.5,0,0,0,1.5-1.5l0-35.54A1.51,1.51,0,0,0,71.5,34,32.92,32.92,0,0,0,48,24.14Z"/>
          <g>
            <circle id="center-5" data-name="center" class="cls-5" cx="47.93" cy="37.25" r="2.54"/>
            <path id="up-5" data-name="up" class="cls-5" d="M49.69,42c.43,0,.6.3.39.67l-1.75,3.07a.41.41,0,0,1-.77,0l-1.78-3c-.22-.37-.05-.67.38-.67Z"/>
            <path id="down-5" data-name="down" class="cls-5" d="M49.69,32.52c.43,0,.6-.3.39-.67l-1.75-3.07a.41.41,0,0,0-.77,0l-1.78,3c-.22.37-.05.67.38.67Z"/>
            <path id="right-5" data-name="right" class="cls-5" d="M43.2,39c0,.42-.3.6-.67.39l-3.07-1.75c-.37-.21-.37-.56,0-.78l3-1.78c.37-.22.68,0,.68.38Z"/>
            <path id="left-5" data-name="left" class="cls-5" d="M52.65,39c0,.42.3.6.67.39l3.07-1.75a.41.41,0,0,0,0-.78l-3-1.78c-.37-.22-.68,0-.68.38Z"/>
          </g>
        </g>
        <g id="Rot360_Handle_2">
          <circle id="RotationCenter2" class="cls-28" cx="48" cy="48.07" r="3"/>
          <circle id="Btn2_HandleAcc2" class="cls-29" cx="48" cy="8.21" r="5"/>
        </g>
      </g>
    </g>
    <g id="Ev_ProxH_med">
      <path id="ThymioTop_Bg" class="cls-13" d="M48.05,8.09a54.84,54.84,0,0,0-38.84,16,4,4,0,0,0-1.15,2.83L8,84.68A3.33,3.33,0,0,0,11.33,88l73.28.08a3.33,3.33,0,0,0,3.33-3.33L88,27a4,4,0,0,0-1.15-2.83A54.81,54.81,0,0,0,48.05,8.09Z"/>
      <g id="ProxSensors">
        <rect id="Btn3_Prox4" class="cls-35" x="72.56" y="21.42" width="11.42" height="11.42" transform="translate(7.18 69.64) rotate(-50)"/>
        <rect id="Btn3_Prox3" class="cls-35" x="58.41" y="13.29" width="11.59" height="11.59" transform="translate(26.21 74.25) rotate(-72)"/>
        <rect id="Btn3_Prox2" class="cls-35" x="42" y="10.09" width="12" height="12"/>
        <rect id="Btn3_Prox5" class="cls-35" x="24" y="74.09" width="12" height="12"/>
        <rect id="Btn3_Prox6" class="cls-35" x="58" y="74.09" width="12" height="12"/>
        <rect id="Btn3_Prox1" class="cls-35" x="25.74" y="13.29" width="11.59" height="11.58" transform="translate(-4.35 10.68) rotate(-18)"/>
        <rect id="Btn3_Prox0" class="cls-35" x="11.76" y="21.42" width="11.42" height="11.42" transform="translate(-13.35 17.58) rotate(-40)"/>
      </g>
      <g id="Obstacles">
        <line id="Obst_prox4" class="cls-36" x1="90.18" y1="21.44" x2="81.17" y2="14.35"/>
        <line id="Obst_prox3" class="cls-36" x1="74.13" y1="10.25" x2="62.91" y2="6.34"/>
        <line id="Obst_prox2" class="cls-36" x1="41.87" y1="4.41" x2="53.87" y2="4.41"/>
        <line id="Obst_prox5" class="cls-36" x1="24" y1="92.09" x2="36.42" y2="92.09"/>
        <line id="Obst_prox6" class="cls-36" x1="57.58" y1="92.09" x2="70" y2="92.09"/>
        <line id="Obst_prox1" class="cls-36" x1="21.6" y1="10.25" x2="32.83" y2="6.34"/>
        <line id="Obst_prox0" class="cls-36" x1="5.92" y1="21.15" x2="14.19" y2="14.65"/>
      </g>
    </g>
    <g id="Ev_ProxH_Front_adv">
      <g id="Thymio_shape">
        <path class="cls-33" d="M.12,44.91l3.64-3.63A3.64,3.64,0,0,1,6.3,40.21,49.4,49.4,0,0,1,41.17,54.77a49.39,49.39,0,0,1,14.49,34.9,3.6,3.6,0,0,1-1.07,2.53L50.8,96H2.12a2,2,0,0,1-2-2Z"/>
        <path class="cls-14" d="M51.86,96H49.71l4.35-4.31a2.86,2.86,0,0,0,.85-2A48.44,48.44,0,0,0,40.64,55.3,48.49,48.49,0,0,0,6.3,41h0a2.86,2.86,0,0,0-2,.85L.12,46V43.86l3.12-3.11a4.36,4.36,0,0,1,3.06-1.29h0A49.92,49.92,0,0,1,41.7,54.24,49.94,49.94,0,0,1,56.41,89.67a4.33,4.33,0,0,1-1.3,3.06Z"/>
      </g>
      <g>
        <rect id="Btn3_Prox4_adv" class="cls-4" x="43.76" y="80.01" width="11.42" height="11.42" transform="translate(-10.08 6.67) rotate(-7)"/>
        <rect id="Btn3_Prox3_adv" class="cls-4" x="39.71" y="66.2" width="11.57" height="11.57" transform="translate(-26.95 27.23) rotate(-26)"/>
        <rect id="Btn3_Prox2_adv" class="cls-4" x="30.58" y="53.5" width="12" height="12" transform="translate(-31.36 43.3) rotate(-45)"/>
        <rect id="Btn3_Prox1_adv" class="cls-4" x="18.32" y="44.81" width="11.57" height="11.57" transform="translate(-31.94 50.08) rotate(-64)"/>
        <rect id="Btn3_Prox0_adv" class="cls-4" x="4.65" y="40.91" width="11.42" height="11.42" transform="translate(-37.17 51.23) rotate(-83)"/>
      </g>
      <g id="Slid_threshold">
        <line id="value_threshold_off" class="cls-37" x1="84.08" y1="8.08" x2="16.08" y2="8.08"/>
        <g id="value_threshold">
          <line id="value_threshold-2" data-name="value_threshold" class="cls-38" x1="78.52" y1="8.08" x2="21.63" y2="8.08"/>
          <g id="steps">
            <line class="cls-35" x1="21.63" y1="4.02" x2="21.63" y2="3.02"/>
            <line class="cls-35" x1="40.59" y1="4.02" x2="40.59" y2="3.02"/>
            <line class="cls-35" x1="59.56" y1="4.02" x2="59.56" y2="3.02"/>
            <line class="cls-35" x1="78.52" y1="4.02" x2="78.52" y2="3.02"/>
          </g>
        </g>
        <polygon id="cursor_threshold" class="cls-39" points="73.52 10.56 78.52 7.08 83.52 10.56 83.52 17.07 73.52 17.07 73.52 10.56"/>
      </g>
    </g>
    <g id="Ev_ProxH_Back_adv">
      <g id="Slid_threshold_back">
        <line id="value_threshold_back_off" class="cls-37" x1="82" y1="82.09" x2="12" y2="82.09"/>
        <g id="value_threshold_back">
          <line id="value_thresholdBack" class="cls-38" x1="76.13" y1="82.09" x2="19.24" y2="82.09"/>
          <g id="crans">
            <line class="cls-35" x1="19.24" y1="78.02" x2="19.24" y2="77.02"/>
            <line class="cls-35" x1="38.2" y1="78.02" x2="38.2" y2="77.02"/>
            <line class="cls-35" x1="57.17" y1="78.02" x2="57.17" y2="77.02"/>
            <line class="cls-35" x1="76.13" y1="78.02" x2="76.13" y2="77.02"/>
          </g>
        </g>
        <polygon id="cursor_threshold_back" class="cls-39" points="14.29 84.56 19.29 81.07 24.29 84.56 24.29 91.07 14.29 91.07 14.29 84.56"/>
      </g>
      <g id="Thymio_shape_back">
        <path class="cls-13" d="M12,.09,12,29a3,3,0,0,0,3,3l66,.07a3,3,0,0,0,3-3L84,0"/>
      </g>
      <rect id="Btn3_Prox5_adv" class="cls-35" x="26.08" y="17.58" width="12" height="12"/>
      <rect id="Btn3_Prox6_adv" class="cls-35" x="57.95" y="17.58" width="12" height="12"/>
    </g>
    <g id="Ev_ProxGr_bas">
      <g id="Bg_Th_Profile-8" data-name="Bg_Th_Profile">
        <path class="cls-12" d="M68.51,57.59H63.85c1.53,1,1.8,3,2.32,3.8a2.37,2.37,0,0,0,1.87,1H69a2.39,2.39,0,0,0,1.87-1c.52-.79.79-2.8,2.31-3.8Z"/>
        <rect class="cls-13" x="16" y="33.59" width="64" height="24" rx="2"/>
        <circle class="cls-13" cx="33.96" cy="50.09" r="12.5"/>
        <path class="cls-40" d="M73,43.3H67.9a.75.75,0,0,1,0-1.5H73a.75.75,0,0,1,0,1.5Z"/>
        <path class="cls-40" d="M79.25,43.3h-1.9a.75.75,0,0,1,0-1.5h1.9Z"/>
      </g>
      <rect id="btn2_ProxGd_detection" class="cls-41" x="8" y="64.09" width="80" height="12" rx="4"/>
    </g>
    <g id="Ev_ProxGr_med">
      <g id="ThymioTop_wheels">
        <path class="cls-33" d="M48,12.09A49.34,49.34,0,0,0,13.09,26.45a3.59,3.59,0,0,0-1,2.55L12,81a3,3,0,0,0,3,3l65.94.07a3,3,0,0,0,3-3l0-52a3.61,3.61,0,0,0-1-2.55A49.38,49.38,0,0,0,48,12.09Z"/>
        <rect class="cls-42" x="75.01" y="48.14" width="8.99" height="29.98" rx="2"/>
        <rect class="cls-42" x="12" y="48.14" width="8.99" height="29.98" rx="2"/>
        <path class="cls-34" d="M48,12.09A49.35,49.35,0,0,0,12.7,26.85a2.22,2.22,0,0,0-.64,1.58L12,81.74A2.26,2.26,0,0,0,14.25,84l67.44.07a2.25,2.25,0,0,0,2.25-2.25L84,28.51a2.25,2.25,0,0,0-.64-1.59A49.34,49.34,0,0,0,48,12.09Z"/>
      </g>
      <g id="ProxGround">
        <rect id="Btn3_ProxGd1" class="cls-43" x="53.05" y="19.03" width="12" height="12" transform="translate(24.15 78.83) rotate(-80)"/>
        <rect id="Btn3_ProxGd0" class="cls-43" x="30.95" y="19.03" width="12" height="12" transform="translate(-3.78 6.8) rotate(-10)"/>
      </g>
    </g>
    <g id="Ev_ProxGround_adv">
      <path id="GradientStroke_bg" class="cls-44" d="M68,4.09v44H4v-44H68m0-1H4a1,1,0,0,0-1,1v44a1,1,0,0,0,1,1H68a1,1,0,0,0,1-1v-44a1,1,0,0,0-1-1Z"/>
      <g>
        <rect id="Gradient_proxGd_0" class="cls-45" x="4.02" y="4.09" width="31.98" height="44.16"/>
        <rect id="Gradient_proxGd_1" class="cls-46" x="35.99" y="4.09" width="31.98" height="44.16"/>
      </g>
      <g id="ThymioTop_wheels-2" data-name="ThymioTop_wheels">
        <path class="cls-33" d="M36,28.1A38.37,38.37,0,0,0,8.85,39.27a2.77,2.77,0,0,0-.81,2L8,81.69A2.34,2.34,0,0,0,10.33,84l51.29,0A2.33,2.33,0,0,0,64,81.75L64,41.3a2.77,2.77,0,0,0-.81-2A38.41,38.41,0,0,0,36,28.1Z"/>
        <rect class="cls-47" x="57" y="56.14" width="6.99" height="23.32" rx="2"/>
        <rect class="cls-47" x="8" y="56.14" width="6.99" height="23.32" rx="2"/>
        <path class="cls-34" d="M36,28.1A38.33,38.33,0,0,0,8.54,39.58,1.75,1.75,0,0,0,8,40.81L8,82.27A1.76,1.76,0,0,0,9.74,84l52.46,0A1.75,1.75,0,0,0,64,82.33l0-41.46a1.79,1.79,0,0,0-.5-1.24A38.43,38.43,0,0,0,36,28.1Z"/>
      </g>
      <g id="Slid_threshold_proxGd">
        <g id="slider_threshold_proxGd">
          <line id="value_threshold_back_off-2" data-name="value_threshold_back_off" class="cls-37" x1="82.05" y1="12.09" x2="82.05" y2="82.09"/>
          <g id="value_threshold_back-2" data-name="value_threshold_back">
            <line id="value_thresholdBack-2" data-name="value_thresholdBack" class="cls-38" x1="82.05" y1="18.64" x2="82.05" y2="75.53"/>
            <g id="crans-2" data-name="crans">
              <line class="cls-35" x1="77.99" y1="75.53" x2="76.99" y2="75.53"/>
              <line class="cls-35" x1="77.99" y1="47.09" x2="76.99" y2="47.09"/>
              <line class="cls-35" x1="77.99" y1="61.31" x2="76.99" y2="61.31"/>
              <line class="cls-35" x1="77.99" y1="32.87" x2="76.99" y2="32.87"/>
              <line class="cls-35" x1="77.99" y1="18.64" x2="76.99" y2="18.64"/>
            </g>
          </g>
        </g>
        <g id="Cursor_proxGd">
          <polygon class="cls-48" points="84.49 51.59 81 47.25 84.49 42.91 91 42.91 91 51.59 84.49 51.59"/>
          <path class="cls-49" d="M91,52.59H84.49a1,1,0,0,1-.78-.37l-3.49-4.34a1,1,0,0,1,0-1.26l3.49-4.34a1,1,0,0,1,.78-.37H91a1,1,0,0,1,1,1v8.68A1,1,0,0,1,91,52.59Zm-6-2h5V43.91H85l-2.69,3.34Z"/>
        </g>
      </g>
      <rect id="Btn3_ProxGd1_adv" class="cls-43" x="40.95" y="33.04" width="12" height="12" transform="translate(0.35 78.5) rotate(-80)"/>
      <rect id="Btn3_ProxGd0_adv" class="cls-43" x="19.05" y="33.04" width="12" height="12" transform="translate(-6.4 4.94) rotate(-10)"/>
    </g>
    <g id="EvCounter">
      <rect id="Bg_SelectedOperator" class="cls-50" x="38" y="18.09" width="20" height="60" rx="10" transform="translate(96.09 0.09) rotate(90)"/>
      <g id="List_operators">
        <g id="AboveValue">
          <path class="cls-51" d="M36,50.44l-6.76-3.2a1,1,0,0,1-.45-.34.9.9,0,0,1-.13-.48v-.58a.91.91,0,0,1,.13-.49,1.33,1.33,0,0,1,.45-.35L36,41.8a1.24,1.24,0,0,1,.42-.12.4.4,0,0,1,.29.11.38.38,0,0,1,.11.29v1.18a.71.71,0,0,1-.52.72l-4.8,2.14,4.8,2.16a.73.73,0,0,1,.52.72v1.18a.39.39,0,0,1-.4.4A.8.8,0,0,1,36,50.44Zm-7.2,3.88a.46.46,0,0,1-.14-.34V52.9a.48.48,0,0,1,.14-.35.53.53,0,0,1,.34-.13h7.2a.48.48,0,0,1,.35.13.48.48,0,0,1,.13.35V54a.45.45,0,0,1-.13.34.42.42,0,0,1-.35.14h-7.2A.45.45,0,0,1,28.79,54.32Z"/>
        </g>
        <path id="AboveValue-2" data-name="AboveValue" class="cls-51" d="M36,52.38l-6.76-3.2a1,1,0,0,1-.45-.34.9.9,0,0,1-.13-.48v-.58a.91.91,0,0,1,.13-.49,1.33,1.33,0,0,1,.45-.35L36,43.74a1.24,1.24,0,0,1,.42-.12.4.4,0,0,1,.29.11.38.38,0,0,1,.11.29V45.2a.71.71,0,0,1-.52.72l-4.8,2.14,4.8,2.16a.73.73,0,0,1,.52.72v1.18a.39.39,0,0,1-.4.4A.8.8,0,0,1,36,52.38Z"/>
        <path id="StrictBelowValue" class="cls-51" d="M29.47,43.76,36.23,47a1,1,0,0,1,.45.34.86.86,0,0,1,.13.48v.58a.81.81,0,0,1-.13.49,1,1,0,0,1-.45.35l-6.76,3.2a1.14,1.14,0,0,1-.42.12.38.38,0,0,1-.29-.11.4.4,0,0,1-.11-.29V50.94a.74.74,0,0,1,.52-.72L34,48.08l-4.8-2.16a.73.73,0,0,1-.52-.72V44a.38.38,0,0,1,.12-.29.43.43,0,0,1,.28-.11A.9.9,0,0,1,29.47,43.76Z"/>
        <g id="BelowValue">
          <path class="cls-51" d="M28.47,50.47a.37.37,0,0,1-.12-.29V49a.74.74,0,0,1,.52-.72l4.8-2.16L28.87,44a.73.73,0,0,1-.52-.72V42.08a.38.38,0,0,1,.12-.29.44.44,0,0,1,.3-.11,1.17,1.17,0,0,1,.4.12L36,45a1.54,1.54,0,0,1,.44.36.72.72,0,0,1,.14.48v.58a.71.71,0,0,1-.14.47,1.15,1.15,0,0,1-.44.35l-6.78,3.2a.77.77,0,0,1-.4.14A.4.4,0,0,1,28.47,50.47Zm0,3.85a.46.46,0,0,1-.14-.34V52.9a.48.48,0,0,1,.14-.35.53.53,0,0,1,.34-.13h7.22a.46.46,0,0,1,.34.14.45.45,0,0,1,.14.34V54a.48.48,0,0,1-.48.48H28.83A.45.45,0,0,1,28.49,54.32Z"/>
        </g>
        <g id="Equals">
          <path class="cls-51" d="M28.22,46.47a.46.46,0,0,1-.14-.34V45a.48.48,0,0,1,.14-.35.53.53,0,0,1,.34-.13h7.76a.46.46,0,0,1,.34.14.45.45,0,0,1,.14.34v1.12a.48.48,0,0,1-.48.48H28.56A.45.45,0,0,1,28.22,46.47Zm0,5a.46.46,0,0,1-.14-.34V50a.48.48,0,0,1,.14-.35.53.53,0,0,1,.34-.13h7.76a.46.46,0,0,1,.34.14.45.45,0,0,1,.14.34v1.12a.48.48,0,0,1-.48.48H28.56A.45.45,0,0,1,28.22,51.47Z"/>
        </g>
      </g>
      <g id="ComparatorChange">
        <polygon id="ComparatorDown" class="cls-39" points="26.73 65.16 38.73 65.16 32.73 74.16 26.73 65.16"/>
        <polygon id="ComparatorUp" class="cls-39" points="26.73 31.03 32.73 22.03 38.73 31.03 26.73 31.03"/>
      </g>
      <g id="ValueChange">
        <polygon id="ValueDown" class="cls-39" points="56.07 65.16 68.07 65.16 62.07 74.16 56.07 65.16"/>
        <polygon id="ValueUp" class="cls-39" points="56.07 31.03 62.07 22.03 68.07 31.03 56.07 31.03"/>
      </g>
      <rect id="ValueField" class="cls-28" x="48.07" y="42.22" width="28" height="12"/>
      <g id="Ev_CounterStatesOff">
        <path id="Btn2_State0-2" data-name="Btn2_State0" class="cls-19" d="M38.41,10.79a2.68,2.68,0,0,1-2.36-4,2.72,2.72,0,0,1,1.68-1.34,38.21,38.21,0,0,1,20.06,0,2.73,2.73,0,0,1,1.67,1.34,2.63,2.63,0,0,1,.19,2.11,2.67,2.67,0,0,1-2.55,1.85,2.8,2.8,0,0,1-.7-.09,32.76,32.76,0,0,0-17.28,0A2.82,2.82,0,0,1,38.41,10.79Z"/>
        <path id="Btn2_State1-2" data-name="Btn2_State1" class="cls-19" d="M82.68,29.12a2.67,2.67,0,0,1-2.32-1.35A32.9,32.9,0,0,0,68.13,15.55a2.69,2.69,0,0,1,1.36-5,2.78,2.78,0,0,1,1.35.36A38.28,38.28,0,0,1,85,25.07a2.71,2.71,0,0,1-1.12,3.76A2.74,2.74,0,0,1,82.68,29.12Z"/>
        <path id="Btn2_State2-2" data-name="Btn2_State2" class="cls-19" d="M87.8,60.18a2.7,2.7,0,0,1-2.59-3.39,32.76,32.76,0,0,0,0-17.28,2.7,2.7,0,0,1,2.59-3.39,2.71,2.71,0,0,1,2.61,2,37.93,37.93,0,0,1,0,20.06A2.71,2.71,0,0,1,87.8,60.18Z"/>
        <path id="Btn2_State3-2" data-name="Btn2_State3" class="cls-19" d="M69.43,85.8a2.69,2.69,0,0,1-1.35-5A32.87,32.87,0,0,0,80.3,68.56a2.67,2.67,0,0,1,2.32-1.35,2.74,2.74,0,0,1,1.22.29A2.72,2.72,0,0,1,85,71.26,38.28,38.28,0,0,1,70.78,85.44,2.68,2.68,0,0,1,69.43,85.8Z"/>
        <path id="Btn2_State4-2" data-name="Btn2_State4" class="cls-19" d="M47.76,92.15a38.12,38.12,0,0,1-10-1.34,2.75,2.75,0,0,1-1.68-1.34,2.69,2.69,0,0,1,2.36-4,2.83,2.83,0,0,1,.71.1,32.76,32.76,0,0,0,17.28,0,2.82,2.82,0,0,1,.7-.1,2.7,2.7,0,0,1,2.37,4,2.78,2.78,0,0,1-1.68,1.34A38.18,38.18,0,0,1,47.76,92.15Z"/>
        <path id="Btn2_State5-2" data-name="Btn2_State5" class="cls-19" d="M26,85.75a2.74,2.74,0,0,1-1.34-.36A38.28,38.28,0,0,1,10.52,71.21a2.73,2.73,0,0,1-.25-2.13,2.7,2.7,0,0,1,1.37-1.63,2.66,2.66,0,0,1,1.21-.29,2.7,2.7,0,0,1,2.33,1.35A32.87,32.87,0,0,0,27.4,80.73a2.69,2.69,0,0,1-1.36,5Z"/>
        <path id="Btn2_State6-2" data-name="Btn2_State6" class="cls-19" d="M7.71,60.18a2.7,2.7,0,0,1-2.6-2,37.93,37.93,0,0,1,0-20.06,2.7,2.7,0,0,1,2.6-2,2.71,2.71,0,0,1,2.6,3.39,32.76,32.76,0,0,0,0,17.28,2.71,2.71,0,0,1-2.6,3.39Z"/>
        <path id="Btn2_State7-2" data-name="Btn2_State7" class="cls-19" d="M12.82,29.1a2.74,2.74,0,0,1-1.22-.29,2.63,2.63,0,0,1-1.36-1.63,2.71,2.71,0,0,1,.25-2.12A38.26,38.26,0,0,1,24.66,10.88a2.7,2.7,0,0,1,2.71,4.66A32.72,32.72,0,0,0,15.15,27.76,2.69,2.69,0,0,1,12.82,29.1Z"/>
      </g>
      <g id="Saturate">
        <line id="SaturateLever" class="cls-52" x1="30.35" y1="6.05" x2="34.82" y2="16.61"/>
        <circle id="SaturatePivot" class="cls-53" cx="30.35" cy="6.05" r="2"/>
      </g>
    </g>
    <g id="Ev_TimersUp">
      <g id="fx-4" data-name="fx">
        <g id="fx_left">
          <path class="cls-26" d="M21.4,52.88a10.67,10.67,0,0,1-.19-9.49"/>
          <path class="cls-26" d="M17.87,55.44A16.59,16.59,0,0,1,16,47.83a16.38,16.38,0,0,1,1.58-7"/>
        </g>
        <g id="fx_right">
          <path class="cls-26" d="M74.6,43.39a10.67,10.67,0,0,1,.19,9.49"/>
          <path class="cls-26" d="M78.12,40.83a16.32,16.32,0,0,1,.3,14.61"/>
        </g>
      </g>
      <path id="ClockBody" class="cls-54" d="M28,48.13a20,20,0,1,1,20,20A20,20,0,0,1,28,48.13Z"/>
      <polygon id="ClockTop" class="cls-20" points="53 22.89 53 21.39 43 21.4 43 22.9 47.25 22.89 47.25 26.13 48.75 26.13 48.75 22.89 53 22.89"/>
      <g id="ClockHand">
        <line class="cls-26" x1="48" y1="47.99" x2="48" y2="33.23"/>
        <circle class="cls-7" cx="48" cy="48.13" r="2"/>
      </g>
    </g>
    <g id="ColorTop_basic">
      <g id="ColorPalette">
        <rect id="Btn2_Green" class="cls-55" x="12" y="8.15" width="17.96" height="17.96"/>
        <rect id="Btn2_Blue" class="cls-56" x="29.96" y="8.15" width="17.96" height="17.96"/>
        <rect id="Btn2_Red" class="cls-57" x="47.93" y="8.15" width="17.96" height="17.96"/>
        <rect id="Btn2_Yellow" class="cls-58" x="12" y="26.12" width="17.96" height="17.96"/>
        <rect id="Btn2_Cyan" class="cls-59" x="47.93" y="26.12" width="17.96" height="17.96"/>
        <rect id="Btn2_Magenta" class="cls-60" x="29.96" y="26.12" width="17.96" height="17.96"/>
        <rect id="Btn2_White_Select" class="cls-61" x="65.89" y="8.15" width="17.96" height="17.96"/>
        <g id="Btn2_NoColor">
          <rect class="cls-62" x="65.89" y="26.12" width="17.96" height="17.96"/>
          <polygon class="cls-63" points="68.04 43.34 66.63 43.34 66.63 41.92 81.69 26.87 83.1 26.86 83.1 28.28 68.04 43.34"/>
        </g>
      </g>
      <g id="Bg_Thymio_front_color">
        <rect class="cls-64" x="8" y="53.32" width="80" height="30" rx="2"/>
        <path class="cls-64" d="M85.88,83.31v5a1.23,1.23,0,0,1-1.18,1.27H77.1a1.24,1.24,0,0,1-1.2-1.26V83.36Z"/>
        <path class="cls-64" d="M20.3,83.32v5a1.26,1.26,0,0,1-1.18,1.3H11.51a1.23,1.23,0,0,1-1.19-1.26v-5Z"/>
        <path class="cls-64" d="M42.21,83.32c1.9,1.24,2.24,3.61,2.9,4.6a3,3,0,0,0,2.33,1.21h1.18A3,3,0,0,0,51,87.92c.66-1,1-3.36,2.9-4.6Z"/>
        <g>
          <line class="cls-65" x1="61.95" y1="67.12" x2="69.39" y2="67.12"/>
          <line class="cls-65" x1="78.07" y1="67.12" x2="83.99" y2="67.12"/>
          <line class="cls-65" x1="34.03" y1="67.12" x2="26.6" y2="67.12"/>
          <line class="cls-65" x1="17.92" y1="67.12" x2="11.99" y2="67.12"/>
          <line class="cls-65" x1="43.49" y1="67.12" x2="52.34" y2="67.12"/>
        </g>
      </g>
      <path id="Gradient_Top_basic" class="cls-28" d="M43.15,21h11a0,0,0,0,1,0,0V99.46a0,0,0,0,1,0,0h-11a1.3,1.3,0,0,1-1.3-1.3V22.28A1.3,1.3,0,0,1,43.15,21Z" transform="translate(108.21 12.23) rotate(90)"/>
      <g id="SelectedColors">
        <rect id="Btn2_SelectedWhite" class="cls-28" x="65.4" y="7.66" width="18.94" height="18.95"/>
        <rect id="Btn2_SelectedRed" class="cls-28" x="47.41" y="7.63" width="19" height="19"/>
        <rect id="Btn2_SelectedBlue" class="cls-28" x="29.47" y="7.66" width="18.94" height="18.95"/>
        <rect id="Btn2_SelectedGreen" class="cls-28" x="11.48" y="7.63" width="19" height="19"/>
        <rect id="Btn2_SelectedNone" class="cls-28" x="65.37" y="25.6" width="19" height="19"/>
        <rect id="Btn2_SelectedYel" class="cls-28" x="47.41" y="25.6" width="19" height="19"/>
        <rect id="Btn2_SelectedMagenta" class="cls-28" x="29.44" y="25.6" width="19" height="19"/>
        <rect id="Btn2_SelectedCyan" class="cls-28" x="11.48" y="25.6" width="19" height="19"/>
      </g>
    </g>
    <g id="ColorBottom_basic">
      <g id="ColorPalette-2" data-name="ColorPalette">
        <rect id="Btn2_Green-2" data-name="Btn2_Green" class="cls-55" x="12" y="52.16" width="17.96" height="17.96"/>
        <rect id="Btn2_Blue-2" data-name="Btn2_Blue" class="cls-56" x="29.96" y="52.16" width="17.96" height="17.96"/>
        <rect id="Btn2_Red-2" data-name="Btn2_Red" class="cls-57" x="47.93" y="52.16" width="17.96" height="17.96"/>
        <rect id="Btn2_Yellow-2" data-name="Btn2_Yellow" class="cls-66" x="12" y="70.12" width="17.96" height="17.96"/>
        <rect id="Btn2_Cyan-2" data-name="Btn2_Cyan" class="cls-59" x="47.93" y="70.12" width="17.96" height="17.96"/>
        <rect id="Btn2_Magenta-2" data-name="Btn2_Magenta" class="cls-60" x="29.96" y="70.12" width="17.96" height="17.96"/>
        <g id="Btn2_NoColor-2" data-name="Btn2_NoColor">
          <rect class="cls-62" x="65.89" y="70.12" width="17.96" height="17.96"/>
          <polygon class="cls-63" points="68.05 87.34 66.63 87.34 66.63 85.93 81.69 70.87 83.11 70.87 83.11 72.28 68.05 87.34"/>
        </g>
        <rect id="Btn2_White_Select-2" data-name="Btn2_White_Select" class="cls-61" x="65.89" y="52.16" width="17.96" height="17.96"/>
      </g>
      <g id="Bg_Thymio_front_color-2" data-name="Bg_Thymio_front_color">
        <rect class="cls-64" x="8" y="8.09" width="80" height="30" rx="2"/>
        <path class="cls-64" d="M85.88,38.08v5a1.23,1.23,0,0,1-1.18,1.27H77.1a1.24,1.24,0,0,1-1.2-1.26V38.13Z"/>
        <path class="cls-64" d="M20.3,38.09V43a1.26,1.26,0,0,1-1.18,1.3H11.51a1.23,1.23,0,0,1-1.19-1.26V38.13Z"/>
        <path class="cls-64" d="M42.21,38.09c1.9,1.25,2.24,3.61,2.9,4.6a3,3,0,0,0,2.33,1.21h1.18A3,3,0,0,0,51,42.69c.66-1,1-3.35,2.9-4.6Z"/>
        <g>
          <line class="cls-65" x1="61.95" y1="21.89" x2="69.39" y2="21.89"/>
          <line class="cls-65" x1="78.07" y1="21.89" x2="83.99" y2="21.89"/>
          <line class="cls-65" x1="34.03" y1="21.89" x2="26.6" y2="21.89"/>
          <line class="cls-65" x1="17.92" y1="21.89" x2="11.99" y2="21.89"/>
          <line class="cls-65" x1="43.49" y1="21.89" x2="52.34" y2="21.89"/>
        </g>
      </g>
      <path id="Gradient_Bottom_basic" class="cls-28" d="M8.75,22.68H87.25a0,0,0,0,1,0,0V36.14a1.2,1.2,0,0,1-1.2,1.2H10a1.2,1.2,0,0,1-1.2-1.2V22.68A0,0,0,0,1,8.75,22.68Z"/>
      <g id="SelectedColors_bottom">
        <rect id="Btn2_SelectedWhite-2" data-name="Btn2_SelectedWhite" class="cls-28" x="65.96" y="52.15" width="17.96" height="17.97"/>
        <rect id="Btn2_SelectedRed-2" data-name="Btn2_SelectedRed" class="cls-28" x="48" y="52.15" width="17.96" height="17.97"/>
        <rect id="Btn2_SelectedBlue-2" data-name="Btn2_SelectedBlue" class="cls-28" x="30.04" y="52.15" width="17.96" height="17.97"/>
        <rect id="Btn2_SelectedGreen-2" data-name="Btn2_SelectedGreen" class="cls-28" x="12.07" y="52.15" width="17.96" height="17.97"/>
        <rect id="Btn2_SelectedNone-2" data-name="Btn2_SelectedNone" class="cls-28" x="65.96" y="70.12" width="17.96" height="17.97"/>
        <rect id="Btn2_SelectedYel-2" data-name="Btn2_SelectedYel" class="cls-28" x="48" y="70.12" width="17.96" height="17.97"/>
        <rect id="Btn2_SelectedMagenta-2" data-name="Btn2_SelectedMagenta" class="cls-28" x="30.04" y="70.12" width="17.96" height="17.97"/>
        <rect id="Btn2_SelectedCyan-2" data-name="Btn2_SelectedCyan" class="cls-28" x="12.07" y="70.12" width="17.96" height="17.97"/>
      </g>
    </g>
    <g id="Color_top_adv">
      <g id="Bg_Thymio_front_color_adv">
        <g id="Bg_Thymio_front_color-3" data-name="Bg_Thymio_front_color">
          <rect class="cls-64" x="12" y="59.68" width="72" height="27" rx="2"/>
          <path class="cls-64" d="M82.09,86.67v4.48A1.11,1.11,0,0,1,81,92.3H74.19a1.12,1.12,0,0,1-1.08-1.14V86.71Z"/>
          <path class="cls-64" d="M23.07,86.67v4.46A1.13,1.13,0,0,1,22,92.3H15.16a1.1,1.1,0,0,1-1.07-1.13V86.72Z"/>
          <path class="cls-64" d="M42.79,86.68c1.71,1.12,2,3.25,2.61,4.14a2.7,2.7,0,0,0,2.1,1.09h1.06a2.69,2.69,0,0,0,2.1-1.08c.59-.9.89-3,2.6-4.14Z"/>
          <g>
            <line class="cls-65" x1="60.56" y1="72.1" x2="67.25" y2="72.1"/>
            <line class="cls-65" x1="75.06" y1="72.1" x2="80.39" y2="72.1"/>
            <line class="cls-65" x1="35.43" y1="72.1" x2="28.74" y2="72.1"/>
            <line class="cls-65" x1="20.92" y1="72.1" x2="15.59" y2="72.1"/>
            <line class="cls-65" x1="43.94" y1="72.1" x2="51.9" y2="72.1"/>
          </g>
        </g>
      </g>
      <path id="Gradient_top" class="cls-67" d="M13.94,60.43H82a1.2,1.2,0,0,1,1.2,1.2v9.71a0,0,0,0,1,0,0H12.74a0,0,0,0,1,0,0V61.63A1.2,1.2,0,0,1,13.94,60.43Z"/>
      <g id="Sliders_rgb">
        <g id="Slid_blue">
          <rect id="Stroke_slid_blue" class="cls-27" x="18" y="46.09" width="60" height="4" rx="2"/>
          <line id="Bg_slid_blue" class="cls-68" x1="20" y1="48.13" x2="76" y2="48.13"/>
          <line id="Slid_blue_value" class="cls-69" x1="20" y1="48.13" x2="76" y2="48.13"/>
          <circle id="Cursor_blue" class="cls-70" cx="77.29" cy="48.09" r="5"/>
        </g>
        <g id="Slid_green">
          <rect id="Stroke_slid_green" class="cls-27" x="18" y="28.09" width="60" height="4" rx="2"/>
          <line id="Bg_slid_green" class="cls-68" x1="20" y1="30.09" x2="76" y2="30.09"/>
          <line id="Slid_green_value" class="cls-71" x1="20" y1="30.13" x2="76" y2="30.13"/>
          <circle id="Cursor_green" class="cls-72" cx="77.29" cy="30.13" r="5"/>
        </g>
        <g id="Slid_red">
          <rect id="Stroke_slid_red" class="cls-27" x="18" y="10.09" width="60" height="4" rx="2"/>
          <line id="Bg_slid_red" class="cls-68" x1="20" y1="12.13" x2="76" y2="12.13"/>
          <line id="Slid_red_value" class="cls-73" x1="20" y1="12.13" x2="76" y2="12.13"/>
          <circle id="Cursor_red" class="cls-74" cx="77.29" cy="12.13" r="5"/>
        </g>
      </g>
    </g>
    <g id="Color_bot_adv">
      <g id="Bg_Thymio_front_color-4" data-name="Bg_Thymio_front_color">
        <rect class="cls-64" x="12" y="4.17" width="72" height="27" rx="2"/>
        <path class="cls-64" d="M82.09,31.17v4.48A1.1,1.1,0,0,1,81,36.79H74.19a1.11,1.11,0,0,1-1.08-1.13V31.21Z"/>
        <path class="cls-64" d="M23.07,31.17v4.46A1.13,1.13,0,0,1,22,36.79H15.16a1.09,1.09,0,0,1-1.07-1.12V31.21Z"/>
        <path class="cls-64" d="M42.79,31.17c1.71,1.12,2,3.25,2.61,4.15a2.68,2.68,0,0,0,2.1,1.08h1.06a2.72,2.72,0,0,0,2.1-1.09c.59-.89.89-3,2.6-4.14Z"/>
        <g>
          <line class="cls-65" x1="60.56" y1="16.6" x2="67.25" y2="16.6"/>
          <line class="cls-65" x1="75.06" y1="16.6" x2="80.39" y2="16.6"/>
          <line class="cls-65" x1="35.43" y1="16.6" x2="28.74" y2="16.6"/>
          <line class="cls-65" x1="20.92" y1="16.6" x2="15.59" y2="16.6"/>
          <line class="cls-65" x1="43.94" y1="16.6" x2="51.9" y2="16.6"/>
        </g>
      </g>
      <path id="Gradient_bottom" class="cls-75" d="M12.75,17.35h70.5a0,0,0,0,1,0,0V29.22a1.2,1.2,0,0,1-1.2,1.2H13.95a1.2,1.2,0,0,1-1.2-1.2V17.35A0,0,0,0,1,12.75,17.35Z"/>
      <g id="Sliders_rgb_bot">
        <g id="Slid_blue_bot">
          <rect id="Stroke_slid_blue_bot" class="cls-27" x="15.85" y="83.05" width="60" height="4" rx="2"/>
          <line id="Bg_slid_blue_bot" class="cls-68" x1="17.85" y1="85.09" x2="73.85" y2="85.09"/>
          <line id="Slid_blue_value_bot" class="cls-69" x1="17.85" y1="85.09" x2="73.85" y2="85.09"/>
          <circle id="Cursor_blue_bot" class="cls-70" cx="75.15" cy="85.05" r="5"/>
        </g>
        <g id="Slid_green_bot">
          <rect id="Stroke_slid_green_bot" class="cls-27" x="15.85" y="65.05" width="60" height="4" rx="2"/>
          <line id="Bg_slid_green_bot" class="cls-68" x1="17.85" y1="67.05" x2="73.85" y2="67.05"/>
          <line id="Slid_green_value_bot" class="cls-71" x1="17.85" y1="67.09" x2="73.85" y2="67.09"/>
          <circle id="Cursor_green_bot" class="cls-72" cx="75.15" cy="67.09" r="5"/>
        </g>
        <g id="Slid_red_bot">
          <rect id="Stroke_slid_red_bot" class="cls-27" x="15.85" y="47.05" width="60" height="4" rx="2"/>
          <line id="Bg_slid_red_bot" class="cls-68" x1="17.85" y1="49.09" x2="73.85" y2="49.09"/>
          <line id="Slid_red_value_bot" class="cls-73" x1="17.85" y1="49.09" x2="73.85" y2="49.09"/>
          <circle id="Cursor_red_bot" class="cls-74" cx="75.15" cy="49.09" r="5"/>
        </g>
      </g>
    </g>
    <g id="Ac_Directions">
      <g id="Ev_Bg_Thymio-5" data-name="Ev_Bg_Thymio">
        <path class="cls-8" d="M60.65,60.83h0l-25.35,0A1.31,1.31,0,0,1,34,59.49l0-19.7a2,2,0,0,1,.59-1.44A18.84,18.84,0,0,1,48,32.84h0a18.83,18.83,0,0,1,13.39,5.53,2.05,2.05,0,0,1,.6,1.45l0,19.69a1.28,1.28,0,0,1-.38.93A1.31,1.31,0,0,1,60.65,60.83Z"/>
      </g>
      <g id="DirectionArrows">
        <polygon id="Btn2_FwdDir" class="cls-4" points="44.12 25.69 44.12 16.05 40.4 16.05 48.12 2.69 55.84 16.05 52.12 16.05 52.12 25.69 44.12 25.69"/>
        <path id="Btn2_FwdRightDir" class="cls-4" d="M60.05,27.38l.46-.68a27.69,27.69,0,0,1,6.87-7.2l-1.95-3.32L80.86,16l-7.6,13.44-1.78-3a20.16,20.16,0,0,0-4.92,5.66l-.65,1.13Z"/>
        <path id="Btn2_BwdRightDir" class="cls-4" d="M65.43,80l1.95-3.31a27.89,27.89,0,0,1-6.87-7.21l-.46-.68,5.86-5.85.65,1.12a20.2,20.2,0,0,0,4.92,5.67l1.78-3,7.6,13.43Z"/>
        <polygon id="Btn2_BwdDir" class="cls-4" points="40.4 80.12 44.12 80.12 44.12 70.48 52.12 70.48 52.12 80.12 55.84 80.12 48.12 93.48 40.4 80.12"/>
        <path id="Btn2_BwdLeftDir" class="cls-4" d="M23,66.7l1.78,3a20.2,20.2,0,0,0,4.92-5.67l.65-1.12,5.85,5.85-.45.68a28.22,28.22,0,0,1-6.87,7.21L30.81,80l-15.43.14Z"/>
        <path id="Btn2_FwdLeftDir" class="cls-4" d="M29.68,32.11a20.16,20.16,0,0,0-4.92-5.66l-1.78,3L15.38,16l15.43.14L28.86,19.5a28,28,0,0,1,6.87,7.2l.45.68-5.85,5.86Z"/>
        <rect id="Btn2_StopDir" class="cls-4" x="40.05" y="40.26" width="16" height="16"/>
        <path id="Btn2_LeftDir" class="cls-4" d="M30.13,54.64l-13.82-8v4h-.57a4.16,4.16,0,1,1,2.73-7.29l5.26-6a12.15,12.15,0,1,0-8,21.31h.57v4Z"/>
        <path id="Btn2_RightDir" class="cls-4" d="M65.87,54.64l13.82-8v4h.57a4.16,4.16,0,1,0-2.73-7.29l-5.26-6a12.15,12.15,0,1,1,8,21.31h-.57v4Z"/>
      </g>
    </g>
    <g id="Ac_Wheels">
      <g id="Sliders">
        <g id="Slid_right">
          <g id="sliderBg_R">
            <line id="SliderR_range" class="cls-28" x1="80.05" y1="19.09" x2="80.05" y2="77.09"/>
            <line class="cls-76" x1="80.05" y1="12.12" x2="80.05" y2="84.07"/>
            <polygon class="cls-49" points="76.56 12.12 80.05 6.07 83.54 12.12 76.56 12.12"/>
            <polygon class="cls-49" points="76.56 84.07 80.05 90.12 83.54 84.07 76.56 84.07"/>
          </g>
          <g id="Cursor_right">
            <circle id="CursorRight" class="cls-29" cx="80.05" cy="48.09" r="6"/>
            <circle id="SameSpeed_R" class="cls-49" cx="80.05" cy="48.09" r="2"/>
          </g>
          <rect id="StopIndicator_R" class="cls-63" x="77.97" y="45.96" width="4.27" height="4.27"/>
        </g>
        <g id="Slid_left">
          <g id="sliderBg_L">
            <line id="SliderL_range" class="cls-28" x1="16.2" y1="19.09" x2="16.2" y2="77.09"/>
            <line class="cls-76" x1="16.2" y1="12.12" x2="16.2" y2="84.07"/>
            <polygon class="cls-49" points="12.73 12.12 16.22 6.07 19.71 12.12 12.73 12.12"/>
            <polygon class="cls-49" points="12.71 84.07 16.2 90.12 19.69 84.07 12.71 84.07"/>
          </g>
          <g id="Cursor_left">
            <circle id="CursorLeft" class="cls-29" cx="16.2" cy="48.09" r="6"/>
            <circle id="SameSpeed_L" class="cls-49" cx="16.2" cy="48.09" r="2"/>
          </g>
          <rect id="StopIndicator_L" class="cls-63" x="14.12" y="45.96" width="4.27" height="4.27"/>
        </g>
      </g>
      <g id="ThymioTop_wheels_mini">
        <path class="cls-13" d="M48,34.84a13.06,13.06,0,0,0-9.18,3.76,1,1,0,0,0-.29.72V52.77a1,1,0,0,0,1,1l16.93,0a1,1,0,0,0,1-1V39.34a1,1,0,0,0-.29-.72A13,13,0,0,0,48,34.84Z"/>
        <path class="cls-77" d="M39.26,43.32h1.6a1,1,0,0,1,1,1v5.87a1,1,0,0,1-1,1h-1.6Z"/>
        <path class="cls-77" d="M56.73,51.19H55.15a1,1,0,0,1-1-1V44.32a1,1,0,0,1,1-1h1.58Z"/>
      </g>
    </g>
    <g id="Ac_Music">
      <g id="Music_Slider">
        <line id="slid_tempo" class="cls-38" x1="84" y1="12.09" x2="32" y2="12.09"/>
        <circle id="cursor_tempo" class="cls-29" cx="58" cy="12.09" r="5"/>
      </g>
      <g id="beat">
        <path class="cls-77" d="M23.11,10.11a.32.32,0,0,1,.08.21v.81a.32.32,0,0,1-.08.21.28.28,0,0,1-.21.08H19.21a.25.25,0,0,1-.21-.08.29.29,0,0,1-.08-.21v-.81a.27.27,0,0,1,.29-.29H22.9A.32.32,0,0,1,23.11,10.11Z"/>
        <path class="cls-77" d="M23.11,12.84a.3.3,0,0,1,.08.2v.82a.28.28,0,0,1-.08.2.29.29,0,0,1-.21.09H19.21a.27.27,0,0,1-.29-.29V13a.3.3,0,0,1,.08-.2.28.28,0,0,1,.21-.08H22.9A.28.28,0,0,1,23.11,12.84Z"/>
        <path id="note_Bg" class="cls-77" d="M16,6.82h0a.65.65,0,0,0-.66.66v6.25a2.65,2.65,0,0,0-2.22-.22,2.67,2.67,0,0,0,1.32,5.15,2.74,2.74,0,0,0,2.23-2.73V7.48A.66.66,0,0,0,16,6.82Z"/>
      </g>
      <path id="NoteIcon" class="cls-77" d="M53.84,6.82h-7.4a1.32,1.32,0,0,0-1.32,1.31v5.63a2.55,2.55,0,0,0-2.19-.21,2.63,2.63,0,0,0,1.3,5.07,2.69,2.69,0,0,0,2.21-2.69V9.45h7.07v4.31a2.55,2.55,0,0,0-2.19-.21,2.66,2.66,0,0,0-1.72,2,2.63,2.63,0,0,0,3,3.05,2.68,2.68,0,0,0,2.2-2.69V7.8A1,1,0,0,0,53.84,6.82Z"/>
      <g id="Notes_pentagram">
        <g id="zones_Bg">
          <rect class="cls-9" x="12" y="74.09" width="72" height="10"/>
          <rect class="cls-9" x="12" y="62.07" width="72" height="10"/>
          <rect class="cls-9" x="12" y="50.05" width="72" height="10"/>
          <rect class="cls-9" x="12" y="38.03" width="72" height="10"/>
          <rect class="cls-9" x="12" y="26" width="72" height="10"/>
        </g>
        <g id="notes">
          <circle id="Btn3_note1" class="cls-76" cx="17.59" cy="79.09" r="5"/>
          <circle id="Btn3_note2" class="cls-78" cx="29.2" cy="67.07" r="5"/>
          <circle id="Btn3_note3" class="cls-79" cx="40.81" cy="55.05" r="5"/>
          <circle id="Btn3_note4" class="cls-79" cx="52.42" cy="43.03" r="5"/>
          <circle id="Btn3_note5" class="cls-79" cx="64.03" cy="31" r="5"/>
          <circle id="Btn3_note6" class="cls-79" cx="75.64" cy="43.03" r="5"/>
        </g>
      </g>
    </g>
    <g id="Ac_SD_play">
      <rect id="Bg_ClipNumber" class="cls-9" x="62" y="34.09" width="24" height="28" rx="1" transform="translate(122.09 -25.91) rotate(90)"/>
      <rect id="Text_ClipNumber" class="cls-28" x="62" y="34.09" width="24" height="28" rx="1" transform="translate(122.09 -25.91) rotate(90)"/>
      <g>
        <polygon id="Down-6" data-name="Down" class="cls-39" points="68 64.09 80 64.09 74 73.09 68 64.09"/>
        <polygon id="Up-6" data-name="Up" class="cls-39" points="68 32.09 74 23.09 80 32.09 68 32.09"/>
      </g>
      <path class="cls-77" d="M36.31,23.42a2,2,0,0,1,1.44.6L47.43,34a2,2,0,0,1,.57,1.4V70.75a2,2,0,0,1-2,2H14a2,2,0,0,1-2-2V25.42a2,2,0,0,1,2-2H36.31m0-2H14a4,4,0,0,0-4,4V70.75a4,4,0,0,0,4,4H46a4,4,0,0,0,4-4V35.36a4,4,0,0,0-1.14-2.8l-9.68-9.93a4,4,0,0,0-2.87-1.21Z"/>
      <path class="cls-49" d="M24,44.09H18a2,2,0,0,0-2,2v8a2,2,0,0,0,2,2h6l6.29,6.29A1,1,0,0,0,32,61.67V38.5a1,1,0,0,0-1.71-.71Z"/>
      <path class="cls-80" d="M36.44,43.43a8,8,0,0,1,0,13.31"/>
      <path class="cls-80" d="M39,39.65a12.58,12.58,0,0,1,0,20.87"/>
    </g>
    <g id="Ac_SD_stop">
      <path class="cls-81" d="M28,16.09H55.91a4,4,0,0,1,2.87,1.21L70.86,29.69A4,4,0,0,1,72,32.48V76.09a4,4,0,0,1-4,4H28a4,4,0,0,1-4-4v-56A4,4,0,0,1,28,16.09Z"/>
      <g>
        <path class="cls-49" d="M58.12,48.08l2.71-2.71a1.07,1.07,0,0,0,0-1.52,1.09,1.09,0,0,0-1.53,0l-2.7,2.7-2.71-2.71a1.07,1.07,0,0,0-1.52,0,1.09,1.09,0,0,0,0,1.53l2.7,2.7-2.71,2.7a1.09,1.09,0,0,0,0,1.53,1.11,1.11,0,0,0,1.53,0l2.7-2.7,2.71,2.71a1.08,1.08,0,0,0,1.52,0,1.1,1.1,0,0,0,0-1.54Z"/>
        <path class="cls-49" d="M32,44.44v7.29a1.8,1.8,0,0,0,1.78,1.82h5.33l5.86,6a1.77,1.77,0,0,0,3-1.29V37.91a1.77,1.77,0,0,0-3-1.29l-5.86,6H33.78A1.81,1.81,0,0,0,32,44.44Z"/>
      </g>
    </g>
    <g id="AcCounter">
      <g id="List_count_values">
        <rect id="Bg_SelectedOperator-2" data-name="Bg_SelectedOperator" class="cls-82" x="38" y="18.09" width="20" height="60" rx="10" transform="translate(96.09 0.09) rotate(90)"/>
      </g>
      <g id="OperatorChange">
        <polygon id="ComparatorDown-2" data-name="ComparatorDown" class="cls-39" points="26.73 65.16 38.73 65.16 32.73 74.16 26.73 65.16"/>
        <polygon id="ComparatorUp-2" data-name="ComparatorUp" class="cls-39" points="26.73 31.03 32.73 22.03 38.73 31.03 26.73 31.03"/>
      </g>
      <g id="ValueChange-2" data-name="ValueChange">
        <polygon id="ValueDown-2" data-name="ValueDown" class="cls-39" points="56.07 65.16 68.07 65.16 62.07 74.16 56.07 65.16"/>
        <polygon id="ValueUp-2" data-name="ValueUp" class="cls-39" points="56.07 31.03 62.07 22.03 68.07 31.03 56.07 31.03"/>
      </g>
      <rect id="ValueField-2" data-name="ValueField" class="cls-28" x="48.07" y="42.22" width="28" height="12"/>
      <g id="Act_CounterStatesOff">
        <path id="Btn2_State0-3" data-name="Btn2_State0" class="cls-9" d="M38.41,10.79a2.68,2.68,0,0,1-2.36-4,2.72,2.72,0,0,1,1.68-1.34,38.21,38.21,0,0,1,20.06,0,2.73,2.73,0,0,1,1.67,1.34,2.63,2.63,0,0,1,.19,2.11,2.67,2.67,0,0,1-2.55,1.85,2.8,2.8,0,0,1-.7-.09,32.76,32.76,0,0,0-17.28,0A2.82,2.82,0,0,1,38.41,10.79Z"/>
        <path id="Btn2_State1-3" data-name="Btn2_State1" class="cls-9" d="M82.68,29.12a2.67,2.67,0,0,1-2.32-1.35A32.9,32.9,0,0,0,68.13,15.55a2.69,2.69,0,0,1,1.36-5,2.78,2.78,0,0,1,1.35.36A38.28,38.28,0,0,1,85,25.07a2.71,2.71,0,0,1-1.12,3.76A2.74,2.74,0,0,1,82.68,29.12Z"/>
        <path id="Btn2_State2-3" data-name="Btn2_State2" class="cls-9" d="M87.8,60.18a2.7,2.7,0,0,1-2.59-3.39,32.76,32.76,0,0,0,0-17.28,2.7,2.7,0,0,1,2.59-3.39,2.71,2.71,0,0,1,2.61,2,37.93,37.93,0,0,1,0,20.06A2.71,2.71,0,0,1,87.8,60.18Z"/>
        <path id="Btn2_State3-3" data-name="Btn2_State3" class="cls-9" d="M69.43,85.8a2.69,2.69,0,0,1-1.35-5A32.87,32.87,0,0,0,80.3,68.56a2.67,2.67,0,0,1,2.32-1.35,2.74,2.74,0,0,1,1.22.29A2.72,2.72,0,0,1,85,71.26,38.28,38.28,0,0,1,70.78,85.44,2.68,2.68,0,0,1,69.43,85.8Z"/>
        <path id="Btn2_State4-3" data-name="Btn2_State4" class="cls-9" d="M47.76,92.15a38.12,38.12,0,0,1-10-1.34,2.75,2.75,0,0,1-1.68-1.34,2.69,2.69,0,0,1,2.36-4,2.83,2.83,0,0,1,.71.1,32.76,32.76,0,0,0,17.28,0,2.82,2.82,0,0,1,.7-.1,2.7,2.7,0,0,1,2.37,4,2.78,2.78,0,0,1-1.68,1.34A38.18,38.18,0,0,1,47.76,92.15Z"/>
        <path id="Btn2_State5-3" data-name="Btn2_State5" class="cls-9" d="M26,85.75a2.74,2.74,0,0,1-1.34-.36A38.28,38.28,0,0,1,10.52,71.21a2.73,2.73,0,0,1-.25-2.13,2.7,2.7,0,0,1,1.37-1.63,2.66,2.66,0,0,1,1.21-.29,2.7,2.7,0,0,1,2.33,1.35A32.87,32.87,0,0,0,27.4,80.73a2.69,2.69,0,0,1-1.36,5Z"/>
        <path id="Btn2_State6-3" data-name="Btn2_State6" class="cls-9" d="M7.71,60.18a2.7,2.7,0,0,1-2.6-2,37.93,37.93,0,0,1,0-20.06,2.7,2.7,0,0,1,2.6-2,2.71,2.71,0,0,1,2.6,3.39,32.76,32.76,0,0,0,0,17.28,2.71,2.71,0,0,1-2.6,3.39Z"/>
        <path id="Btn2_State7-3" data-name="Btn2_State7" class="cls-9" d="M12.82,29.1a2.74,2.74,0,0,1-1.22-.29,2.63,2.63,0,0,1-1.36-1.63,2.71,2.71,0,0,1,.25-2.12A38.26,38.26,0,0,1,24.66,10.88a2.7,2.7,0,0,1,2.71,4.66A32.72,32.72,0,0,0,15.15,27.76,2.69,2.69,0,0,1,12.82,29.1Z"/>
      </g>
      <g id="Btn_Saturate_On_hint">
        <line id="SaturateLever-2" data-name="SaturateLever" class="cls-37" x1="30.23" y1="6.05" x2="34.7" y2="16.61"/>
        <circle id="SaturatePivot-2" data-name="SaturatePivot" class="cls-37" cx="30.23" cy="6.05" r="2"/>
      </g>
      <g id="Btn_Saturate_Off_hint">
        <line id="SaturateLever-3" data-name="SaturateLever" class="cls-37" x1="30.23" y1="6.05" x2="18.77" y2="6.05"/>
        <circle id="SaturatePivot-3" data-name="SaturatePivot" class="cls-37" cx="30.23" cy="6.05" r="2"/>
      </g>
      <g id="Btn_Saturate_On">
        <line id="SaturateLever-4" data-name="SaturateLever" class="cls-38" x1="30.23" y1="6.05" x2="34.7" y2="16.61"/>
        <circle id="SaturatePivot-4" data-name="SaturatePivot" class="cls-83" cx="30.23" cy="6.05" r="2"/>
      </g>
      <g id="Btn_Saturate_Off">
        <line id="SaturateLever-5" data-name="SaturateLever" class="cls-38" x1="30.23" y1="6.05" x2="18.77" y2="6.05"/>
        <circle id="SaturatePivot-5" data-name="SaturatePivot" class="cls-83" cx="30.23" cy="6.05" r="2"/>
      </g>
      <g id="List_Operators-2" data-name="List_Operators">
        <g id="Equals-2" data-name="Equals">
          <path class="cls-51" d="M28.22,46.47a.46.46,0,0,1-.14-.34V45a.48.48,0,0,1,.14-.35.53.53,0,0,1,.34-.13h7.76a.46.46,0,0,1,.34.14.45.45,0,0,1,.14.34v1.12a.48.48,0,0,1-.48.48H28.56A.45.45,0,0,1,28.22,46.47Zm0,5a.46.46,0,0,1-.14-.34V50a.48.48,0,0,1,.14-.35.53.53,0,0,1,.34-.13h7.76a.46.46,0,0,1,.34.14.45.45,0,0,1,.14.34v1.12a.48.48,0,0,1-.48.48H28.56A.45.45,0,0,1,28.22,51.47Z"/>
        </g>
        <path id="Plus" class="cls-51" d="M31.6,52.81a.4.4,0,0,1-.13-.31V49H28a.41.41,0,0,1-.3-.12.42.42,0,0,1-.13-.31v-1a.42.42,0,0,1,.13-.31.41.41,0,0,1,.3-.12h3.44v-3.4a.39.39,0,0,1,.13-.32.41.41,0,0,1,.3-.12H33a.44.44,0,0,1,.32.12.42.42,0,0,1,.11.32v3.4h3.44a.41.41,0,0,1,.43.43v1a.4.4,0,0,1-.43.43H33.41V52.5a.42.42,0,0,1-.11.31.44.44,0,0,1-.32.13H31.9A.42.42,0,0,1,31.6,52.81Z"/>
        <path id="Minus" class="cls-51" d="M28.7,48.87a.43.43,0,0,1-.12-.31v-1a.41.41,0,0,1,.12-.31.45.45,0,0,1,.31-.12H35.9a.44.44,0,0,1,.32.12.45.45,0,0,1,.11.31v1a.47.47,0,0,1-.11.31.44.44,0,0,1-.32.13H29A.46.46,0,0,1,28.7,48.87Z"/>
        <path id="Multiply" class="cls-51" d="M28.53,50.84a.46.46,0,0,1,.13-.31l2.48-2.48-2.43-2.43a.41.41,0,0,1-.12-.3.45.45,0,0,1,.12-.31l.69-.69a.43.43,0,0,1,.31-.12.42.42,0,0,1,.3.12l2.43,2.44,2.41-2.41a.38.38,0,0,1,.31-.13.41.41,0,0,1,.3.13l.76.76a.42.42,0,0,1,.14.31.39.39,0,0,1-.14.3l-2.4,2.41,2.43,2.43a.51.51,0,0,1,.13.31.48.48,0,0,1-.13.3l-.69.69a.42.42,0,0,1-.3.13.39.39,0,0,1-.31-.13l-2.43-2.43L30,51.91a.45.45,0,0,1-.3.13.38.38,0,0,1-.31-.13l-.77-.76A.46.46,0,0,1,28.53,50.84Z"/>
        <g id="Divide">
          <path class="cls-51" d="M28.54,48.9a.46.46,0,0,1-.13-.31v-1a.42.42,0,0,1,.13-.31.43.43,0,0,1,.31-.12h7a.44.44,0,0,1,.32.12.45.45,0,0,1,.11.31v1a.41.41,0,0,1-.43.43h-7A.43.43,0,0,1,28.54,48.9Zm2.75-3.12a.41.41,0,0,1-.12-.3V44.13a.48.48,0,0,1,.12-.33.45.45,0,0,1,.31-.12H33a.44.44,0,0,1,.32.12.44.44,0,0,1,.13.33v1.35a.38.38,0,0,1-.13.3.41.41,0,0,1-.32.13H31.6A.42.42,0,0,1,31.29,45.78Zm0,6.55a.41.41,0,0,1-.12-.3V50.68a.48.48,0,0,1,.12-.33.45.45,0,0,1,.31-.12H33a.44.44,0,0,1,.32.12.44.44,0,0,1,.13.33V52a.38.38,0,0,1-.13.3.41.41,0,0,1-.32.13H31.6A.42.42,0,0,1,31.29,52.33Z"/>
        </g>
      </g>
    </g>
    <g id="Ac_Timer">
      <g id="Bg_Clock">
        <rect id="Bg_TimeDisplay" class="cls-9" x="38" y="24.07" width="20" height="56" rx="4" transform="translate(100.07 4.08) rotate(90)"/>
        <path id="Clock" class="cls-77" d="M48.13,15.25a36,36,0,1,1-36,36,36,36,0,0,1,36-36m0-2a38,38,0,1,0,38,38,38,38,0,0,0-38-38Z"/>
        <polygon id="ClockTop-2" data-name="ClockTop" class="cls-77" points="53.78 7.01 42.22 7.01 42.22 9.01 47 9.01 47 12.08 49 12.08 49 9.01 53.78 9.01 53.78 7.01"/>
      </g>
      <g id="SecChange">
        <polygon id="SecDown" class="cls-39" points="26.2 67.89 38.2 67.89 32.2 75.89 26.2 67.89"/>
        <polygon id="SecUp" class="cls-39" points="26.2 35.9 32.2 27.89 38.2 35.9 26.2 35.9"/>
      </g>
      <g id="SecTenthChange">
        <polygon id="TSecDown" class="cls-39" points="60.12 67.81 72.12 67.81 66.12 75.81 60.12 67.81"/>
        <polygon id="TSecUp" class="cls-39" points="60.12 35.81 66.12 27.81 72.12 35.81 60.12 35.81"/>
      </g>
      <rect id="text_SecTenthDisplay" class="cls-28" x="22.3" y="44" width="19.31" height="14.5"/>
      <rect id="text_SecDisplay" class="cls-28" x="58.83" y="44" width="14.58" height="14.5"/>
      <g id="S_Unit">
        <path class="cls-20" d="M45.49,58.06a4,4,0,0,1-1.4-1,1.7,1.7,0,0,1-.45-.95.4.4,0,0,1,.14-.31.48.48,0,0,1,.29-.11h.83a.45.45,0,0,1,.19,0,1,1,0,0,1,.19.18,3.48,3.48,0,0,0,1,.87,3.08,3.08,0,0,0,1.51.32,3.18,3.18,0,0,0,1.71-.4,1.25,1.25,0,0,0,.64-1.14,1.11,1.11,0,0,0-.27-.79,2.5,2.5,0,0,0-.92-.54,14.74,14.74,0,0,0-1.91-.51,4.83,4.83,0,0,1-2.43-1.09,2.46,2.46,0,0,1-.71-1.84,2.58,2.58,0,0,1,.43-1.41,3.19,3.19,0,0,1,1.3-1.11,4.58,4.58,0,0,1,2-.42,5,5,0,0,1,2.12.41,3.73,3.73,0,0,1,1.33,1,1.63,1.63,0,0,1,.45.93.42.42,0,0,1-.13.3.45.45,0,0,1-.31.12H50.4a.43.43,0,0,1-.4-.22c-.22-.25-.41-.45-.56-.59a2,2,0,0,0-.66-.35,3.37,3.37,0,0,0-1.09-.15,2.35,2.35,0,0,0-1.48.41,1.31,1.31,0,0,0-.52,1.07,1.15,1.15,0,0,0,.22.7,1.94,1.94,0,0,0,.83.54,12.41,12.41,0,0,0,1.82.5,5.67,5.67,0,0,1,2.66,1.13A2.46,2.46,0,0,1,52,55.48,2.59,2.59,0,0,1,51.51,57a3.21,3.21,0,0,1-1.44,1.09,6,6,0,0,1-2.28.39A5.42,5.42,0,0,1,45.49,58.06Z"/>
      </g>
    </g>
    <g id="LICENSE">
      <g>
        <g id="BY">
          <path id="path37" d="M37.48,80.66a.58.58,0,0,0-.57-.57H33.26a.58.58,0,0,0-.58.57v3.65h1v4.33h2.77V84.31h1V80.66Z"/>
          <circle id="circle39" cx="35.08" cy="78.36" r="1.25"/>
          <path id="path41" class="cls-84" d="M35.07,74a8.51,8.51,0,0,0-6.28,2.59,8.73,8.73,0,0,0-2.63,6.33,9,9,0,0,0,8.91,8.93,8.81,8.81,0,0,0,6.39-2.66A8.46,8.46,0,0,0,44,82.87,8.86,8.86,0,0,0,35.07,74Zm0,1.61a7.32,7.32,0,0,1,7.31,7.31A6.79,6.79,0,0,1,40.3,88a7.17,7.17,0,0,1-5.21,2.19A7.27,7.27,0,0,1,30,77.7,6.9,6.9,0,0,1,35.09,75.56Z"/>
        </g>
        <path id="NC" d="M57.48,74a8.86,8.86,0,0,1,8.94,8.92,8.46,8.46,0,0,1-2.55,6.27,8.81,8.81,0,0,1-6.39,2.66,9,9,0,0,1-8.91-8.93,8.73,8.73,0,0,1,2.63-6.33A8.51,8.51,0,0,1,57.48,74Zm-6.9,6.53a7.36,7.36,0,0,0,6.92,9.69,7.64,7.64,0,0,0,6.43-3.75l-3.37-1.5a2.59,2.59,0,0,1-2.45,2v1.37h-1V86.91a4.23,4.23,0,0,1-2.71-1.07L55.6,84.6a2.69,2.69,0,0,0,2,.81c.53,0,1.11-.21,1.11-.89a.67.67,0,0,0-.24-.53l-.85-.38-1.06-.48-1.42-.62Zm6.92-4.92a6.92,6.92,0,0,0-5.14,2.14,7.88,7.88,0,0,0-1,1.2l3.41,1.52a2.44,2.44,0,0,1,2.3-1.58V77.46h1v1.38a3.76,3.76,0,0,1,2.24.82l-1.17,1.2a2.71,2.71,0,0,0-1.53-.52c-.44,0-1.07.13-1.07.69a.38.38,0,0,0,.08.23l1.14.51.77.34,1.44.64,4.57,2a7.81,7.81,0,0,0,.23-1.91,7.32,7.32,0,0,0-7.31-7.31Z"/>
        <g id="ND">
          <path id="path1334" d="M79.67,74a9,9,0,1,0,.23,0Zm0,1.53h.23a7.28,7.28,0,1,1-.23,0Z"/>
          <path id="rect1338" d="M76.77,80.76h6.57v1.61H76.77Zm0,2.92h6.57v1.61H76.77Z"/>
        </g>
        <g id="CC">
          <path id="path2554" class="cls-84" d="M12.66,73.94a8.6,8.6,0,0,0-6.27,2.59,9,9,0,0,0-2.64,6.34,8.77,8.77,0,0,0,2.62,6.3,8.84,8.84,0,0,0,6.29,2.64,9.06,9.06,0,0,0,6.39-2.67,8.59,8.59,0,0,0,2.55-6.27,8.86,8.86,0,0,0-8.94-8.93Zm0,1.61A7.27,7.27,0,0,1,20,82.87,7,7,0,0,1,17.9,88a7.43,7.43,0,0,1-5.22,2.18A7.21,7.21,0,0,1,7.54,88a7.29,7.29,0,0,1-2.18-5.14,7.42,7.42,0,0,1,2.18-5.19A7.05,7.05,0,0,1,12.68,75.55Z"/>
          <path id="path2556" class="cls-84" d="M12.57,81.39A2.51,2.51,0,0,0,10.2,80.1a2.56,2.56,0,0,0-2.61,2.77,2.53,2.53,0,0,0,2.66,2.78,2.7,2.7,0,0,0,2.35-1.4l-1.11-.56a1.09,1.09,0,0,1-1.1.77c-.82,0-1.2-.69-1.2-1.59s.32-1.58,1.2-1.58a1.14,1.14,0,0,1,1,.72Z"/>
          <path id="path2558" class="cls-84" d="M17.72,81.39a2.5,2.5,0,0,0-2.36-1.29,2.56,2.56,0,0,0-2.61,2.77,2.52,2.52,0,0,0,2.66,2.78,2.67,2.67,0,0,0,2.34-1.4l-1.1-.56a1.09,1.09,0,0,1-1.1.77c-.82,0-1.2-.69-1.2-1.59s.32-1.58,1.2-1.58a1.14,1.14,0,0,1,1,.72Z"/>
        </g>
      </g>
    </g>
  </g>
</svg>
