<?xml version="1.0" encoding="utf-8"?>
<!-- Generator: Adobe Illustrator 21.0.0, SVG Export Plug-In . SVG Version: 6.00 Build 0)  -->
<svg version="1.1" id="Ebene_1" xmlns="http://www.w3.org/2000/svg" xmlns:xlink="http://www.w3.org/1999/xlink" x="0px" y="0px"
	 viewBox="0 0 283.5 87.9" style="enable-background:new 0 0 283.5 87.9;" xml:space="preserve">
<style type="text/css">
	.st0{fill:#5D6E7F;}
</style>
<path class="st0" d="M21.1,71.3v5.4h7.3v1.6h-7.3v6.3H29v1.6h-9.6V69.7H29v1.6H21.1z M46.3,81.3v0.6c0,1.6-1,4.3-4.8,4.3h-5.4V69.7
	h5.3c4.3,0,4.6,3.2,4.6,4.2v0.3c0,0.6-0.1,2.4-1.9,3.4C46,78.5,46.3,80.3,46.3,81.3z M44.3,73.9c0-1.8-1-2.7-3-2.7h-3.5v5.6h3.7
	c1.3,0,2.8-0.3,2.8-2.7V73.9z M37.8,84.5h3.6c1.2,0,3.1-0.4,3.1-2.8v-0.5c0-2.3-1.6-2.8-3-2.8h-3.8V84.5z M63.4,71.3v-1.6h-9.6v16.4
	h9.6v-1.6h-7.9v-6.3h7.3v-1.6h-7.3v-5.4H63.4z M81,86.1h-2l-3.6-7h-3.2v7h-1.7V69.7h5.3c4.7,0,4.8,3.8,4.8,4.3v0.8
	c0,1.6-0.9,3.6-3.4,4.2L81,86.1z M75.7,71.3h-3.5v6.3h3.6c0.9,0,3.1-0.3,3.1-2.8v-0.7C78.9,71.7,76.9,71.3,75.7,71.3z M86.7,69.7
	v1.6h4.5v14.8h1.7V71.3h4.5v-1.6H86.7z M120.7,86.1h-2l-3.6-7h-3.2v7h-1.7V69.7h5.3c4.7,0,4.8,3.8,4.8,4.3v0.8
	c0,1.6-0.9,3.6-3.4,4.2L120.7,86.1z M115.4,71.3h-3.5v6.3h3.6c0.9,0,3.1-0.3,3.1-2.8v-0.7C118.6,71.7,116.6,71.3,115.4,71.3z
	 M135.8,69.7V82c0,2.6-2.5,2.8-3.3,2.8c-0.8,0-3.3-0.2-3.3-2.8V69.7h-1.7V82c0,1.5,1.1,4.4,5.1,4.4c4,0,5-2.7,5-4.3V69.7H135.8z
	 M154.8,71.3v-1.6h-9.6v16.4h1.7v-7.9h7.3v-1.6h-7.3v-5.4H154.8z M174,77.9c-1.3-0.7-2.5-1.2-3.6-1.7l-0.5-0.2
	c-1.1-0.5-1.7-1.3-1.7-2.2c0-1.6,1.3-2.6,3.2-2.6c2.1,0,3.4,1,3.4,2.7V74h1.7v-0.2c0-2.5-2.1-4.3-5.1-4.3c-2.8,0-4.9,1.7-4.9,4.1
	c0,1.5,0.9,2.8,2.4,3.6c0.6,0.3,1.1,0.5,1.7,0.8c0.8,0.4,1.7,0.8,2.6,1.3c1.3,0.6,1.8,1.5,1.8,2.7c0,1.7-1.5,2.8-3.7,2.8
	c-2.1,0-3.4-1.1-3.4-2.8v-0.2h-1.7V82c0,2.5,2.2,4.4,5.2,4.4c3.1,0,5.4-1.9,5.4-4.4C176.7,80.2,175.7,78.8,174,77.9z M180.5,69.7
	v1.6h4.5v14.8h1.7V71.3h4.5v-1.6H180.5z M197.1,69.7v16.4h1.7V69.7H197.1z M216.3,71.3v-1.6h-9.6v16.4h1.7v-7.9h7.3v-1.6h-7.3v-5.4
	H216.3z M220.7,69.7v1.6h4.5v14.8h1.7V71.3h4.5v-1.6H220.7z M245.2,69.7V82c0,2.6-2.5,2.8-3.3,2.8c-0.8,0-3.3-0.2-3.3-2.8V69.7h-1.7
	V82c0,1.5,1.1,4.4,5.1,4.4c4,0,5-2.7,5-4.3V69.7H245.2z M263,69.7v13.7l-6.4-13.7h-2.1v16.4h1.7V72.6l6.3,13.5h2.2V69.7H263z
	 M132.5,69.4c-0.8,0-1.4,0.6-1.4,1.4s0.6,1.4,1.4,1.4c0.8,0,1.4-0.6,1.4-1.4S133.3,69.4,132.5,69.4z M11.8,74.1v-0.2
	c0-1.5-1.1-4.3-5-4.3c-4.1,0-5.1,3.1-5.1,4.3V82c0,1.2,0.9,4.4,5,4.4c4.2,0,5.1-3.1,5.1-4.3v-4.8H6.8l-0.2,1.6H10V82
	c0,2.6-2.5,2.8-3.3,2.8c-0.8,0-3.3-0.2-3.3-2.8v-8.1c0-2.5,2.3-2.7,3.3-2.7c1,0,3.3,0.3,3.3,2.7v0.2H11.8z M282.4,74.1v-0.2
	c0-1.5-1.1-4.3-5-4.3c-4.1,0-5.1,3.1-5.1,4.3V82c0,1.2,0.9,4.4,5,4.4c4.2,0,5.1-3.1,5.1-4.3v-4.8h-4.9l-0.2,1.6h3.4V82
	c0,2.6-2.5,2.8-3.3,2.8c-0.8,0-3.3-0.2-3.3-2.8v-8.1c0-2.5,2.3-2.7,3.3-2.7c1,0,3.3,0.3,3.3,2.7v0.2H282.4z M11.9,51.2
	c1.7,0,2.8,1,2.8,2.6c0,0.1,0,0.4,0,0.5c-0.1,1.5-1.2,2.4-2.8,2.4H7.4v-5.5H11.9z M1.6,61.9h10.8c5.2,0,8.1-3.2,8.1-7.6
	c0-0.2,0-0.6,0-0.8c-0.2-2.6-1.8-4.2-3.2-5c1.1-0.7,2.7-2.5,2.8-4.9c0-0.1,0-0.3,0-0.4c0-4-2.4-7.4-8.2-7.4H1.6V61.9z M11.6,40.9
	c1.6,0,2.7,0.8,2.7,2.3c0,0,0,0.2,0,0.2c0,1.6-0.9,2.5-2.6,2.5H7.4v-5H11.6z M43.7,61.9v-5.2H32.2v-5.6h10.1v-5.2H32.2v-5h11.5v-5.2
	H26.4v26.2H43.7z M80,35.7h-6.1l-3.6,15.2l-4.4-15.2h-4.3l-4.4,15.2l-3.6-15.2h-6.1l6.9,26.2h5l4.4-14.2L68,61.9h5L80,35.7z
	 M101.8,61.9v-5.2H90.3v-5.6h10.1v-5.2H90.3v-5h11.5v-5.2H84.5v26.2H101.8z M150.7,61.9v-5.2h-11.5v-5.6h10.1v-5.2h-10.1v-5h11.5
	v-5.2h-17.3v26.2H150.7z M176.3,61.9V35.7h-5.8v14.5L162,35.7h-5.3v26.2h5.8V47.4l8.4,14.4H176.3z M120.5,47l-0.4,4.5h2.4V54
	c0,2.5-1.4,3.6-4.5,3.6c-1.3,0-2.9-0.7-3.5-1.4c-0.7-0.9-1.3-1.9-1.3-7.3c0-5.4,0.7-6.4,1.3-7.3c0.6-0.8,2.2-1.4,3.5-1.4
	c2.4,0,3.7,1.5,3.8,3.1l5.9-0.7c-0.6-5.1-5.4-7.4-10-7.4c-3.2,0-6.1,1.1-8,3c-2.7,2.7-2.7,6.4-2.7,10.2l0,0.5l0,0.5
	c0,3.9,0,7.5,2.7,10.2c1.9,1.9,4.8,3,8,3c4.9,0,10.2-1.9,10.3-8.4l0-7.2H120.5z M26.9,1.7l-3.6,15.2L18.9,1.8h-4.3L10.2,17L6.6,1.7
	H0.5l6.9,26.2h5l4.4-14.2l4.3,14.2h5L33,1.7H26.9z M37.7,27.9h5.8V1.7h-5.8V27.9z M94.7,1.7v26.2H112v-5.2h-11.5v-5.6h10.1V12h-10.1
	v-5H112V1.7H94.7z M132.1,1.7v14.5l-8.4-14.5h-5.3v26.2h5.8V13.5l8.4,14.4h5.3V1.7H132.1z M202.2,1.7V12h-7.5V1.7h-5.8v26.2h5.8
	V17.2h7.5v10.8h5.8V1.7H202.2z M220.7,18.3h5.1l-2.5-8.2L220.7,18.3z M225.8,1.7l9,26.2h-6l-1.4-4.7h-8.2l-1.5,4.7h-6.1l9-26.2
	H225.8z M238.6,1.7v26.2h5.8V17.3h10.1v-5.2h-10.1V6.9h11.5V1.7H238.6z M259.7,1.7v5.2h6.5v21h5.8v-21h6.5V1.7H259.7z M175.8,23.5
	c-1.3,0-2.2-0.7-2.8-1.4c-0.6-0.8-1.2-1.8-1.3-6.4c0-0.3,0-0.5,0-0.8c0-5.3,0.7-6.4,1.3-7.2c0.6-0.7,1.5-1.4,2.8-1.4
	c2.4,0,3.3,1.5,3.4,3.1l5.9-0.7c-0.5-5.1-5-7.4-9.5-7.4c-3.2,0-5.4,1.1-7.3,3c-2.7,2.7-2.7,6.3-2.7,10.2l0,1.1c0,3.8,0,7.3,2.7,10
	c1.9,1.9,4.1,3,7.3,3c4.8,0,9.2-2.4,9.7-7.6l-6-0.5C179.2,22.1,178.2,23.5,175.8,23.5 M159,14.2c-1.2-1-2.9-1.8-5.1-2.2
	c-0.1,0-1.2-0.2-1.3-0.3c-0.2-0.1-1.7-0.4-1.8-0.5c-0.8-0.2-1.3-0.6-1.5-1C149,9.8,148.9,9.3,149,9c0.1-1.2,1.2-2.3,3.3-2.4
	c0.1,0,0.3,0,0.5,0c1.4,0,3.1,0.2,4.4,1.6l3.6-3.4c-1.7-2.2-4.5-3.3-8.2-3.3c-5.7,0-9.2,3.3-9.2,7.9c0,2.3,0.8,4.2,2.3,5.4
	c1.5,1.2,3.3,2,5.3,2.4c0.1,0.1,1.3,0.3,1.3,0.3c0.1,0.1,1.6,0.3,1.7,0.4c0.7,0.2,1.2,0.5,1.5,0.9c0.2,0.3,0.3,0.6,0.4,1
	c0,0.2,0,0.4,0,0.6c-0.1,1.5-1.3,2.4-3.7,2.5c-0.5,0-0.9,0-1.4,0c-1.7-0.1-3.4-0.7-4.4-1.8c0,0,0,0-0.1,0l-3.6,3.4
	c2,2.5,5.1,3.7,9,3.7c5.4,0,9.8-2.9,9.8-8C161.6,17.6,160.8,15.6,159,14.2 M87.2,14.2c-1.2-1-2.9-1.8-5.1-2.2
	c-0.1,0-1.2-0.2-1.3-0.3c-0.2-0.1-1.7-0.4-1.8-0.5c-0.8-0.2-1.3-0.6-1.5-1c-0.3-0.4-0.4-0.9-0.3-1.2c0.1-1.2,1.2-2.3,3.3-2.4
	c0.1,0,0.3,0,0.5,0c1.4,0,3.1,0.2,4.4,1.6l3.6-3.4c-1.7-2.2-4.5-3.3-8.2-3.3c-5.7,0-9.2,3.3-9.2,7.9c0,2.3,0.8,4.2,2.3,5.4
	c1.5,1.2,3.3,2,5.3,2.4c0.1,0.1,1.3,0.3,1.3,0.3c0.1,0.1,1.6,0.3,1.7,0.4c0.7,0.2,1.2,0.5,1.5,0.9c0.2,0.3,0.3,0.6,0.4,1
	c0,0.2,0,0.4,0,0.6c-0.1,1.5-1.3,2.4-3.7,2.5c-0.5,0-0.9,0-1.4,0c-1.7-0.1-3.4-0.7-4.4-1.8c0,0,0,0-0.1,0L71,24.5
	c2,2.5,5.1,3.7,9,3.7c5.4,0,9.8-2.9,9.8-8C89.8,17.6,89,15.6,87.2,14.2 M64.7,14.2c-1.2-1-2.9-1.8-5.1-2.2c-0.1,0-1.2-0.2-1.3-0.3
	c-0.2-0.1-1.7-0.4-1.8-0.5c-0.8-0.2-1.3-0.6-1.5-1c-0.3-0.4-0.4-0.9-0.3-1.2c0.1-1.2,1.2-2.3,3.3-2.4c0.1,0,0.3,0,0.5,0
	c1.4,0,3.1,0.2,4.4,1.6l3.6-3.4c-1.7-2.2-4.5-3.3-8.2-3.3c-5.7,0-9.2,3.3-9.2,7.9c0,2.3,0.8,4.2,2.3,5.4c1.5,1.2,3.3,2,5.3,2.4
	c0.1,0.1,1.3,0.3,1.3,0.3c0.1,0.1,1.6,0.3,1.7,0.4c0.7,0.2,1.2,0.5,1.5,0.9c0.2,0.3,0.3,0.6,0.4,1c0,0.2,0,0.4,0,0.6
	c-0.1,1.5-1.3,2.4-3.7,2.5c-0.5,0-0.9,0-1.4,0c-1.7-0.1-3.4-0.7-4.4-1.8c0,0,0,0-0.1,0l-3.6,3.4c2,2.5,5.1,3.7,9,3.7
	c5.4,0,9.8-2.9,9.8-8C67.3,17.6,66.5,15.6,64.7,14.2 M277.3,25.4c0,1.6,1.3,2.9,2.9,2.9c1.6,0,2.9-1.3,2.9-2.9
	c0-1.6-1.3-2.9-2.9-2.9C278.5,22.6,277.3,23.9,277.3,25.4"/>
</svg>
