<svg xmlns="http://www.w3.org/2000/svg" viewBox="0 0 48 48.01">
  <defs>
    <style>
      .cls-1, .cls-14, .cls-15, .cls-5, .cls-6 {
        fill: none;
      }

      .cls-2 {
        fill: #6200ea;
      }

      .cls-3 {
        fill: #455a64;
      }

      .cls-4, .cls-7 {
        fill: #d9c3ff;
      }

      .cls-14, .cls-5, .cls-7, .cls-8 {
        stroke: #6200ea;
      }

      .cls-5, .cls-6 {
        stroke-linecap: round;
      }

      .cls-5, .cls-6, .cls-7 {
        stroke-linejoin: round;
      }

      .cls-14, .cls-15, .cls-5, .cls-6, .cls-7, .cls-8, .cls-9 {
        stroke-width: 2px;
      }

      .cls-15, .cls-6, .cls-9 {
        stroke: #455a64;
      }

      .cls-6 {
        opacity: 0.5;
      }

      .cls-10, .cls-8 {
        fill: #fff;
      }

      .cls-14, .cls-15, .cls-8, .cls-9 {
        stroke-miterlimit: 10;
      }

      .cls-13, .cls-9 {
        fill: #84edcf;
      }

      .cls-11 {
        fill: #ff5252;
      }

      .cls-12 {
        fill: #ffeb3b;
      }

      .cls-16 {
        fill: #b0bec5;
      }

      .cls-17 {
        fill: #263238;
      }

      .cls-18 {
        fill: #ffd600;
      }

      .cls-19 {
        fill: #ff1744;
      }

      .cls-20 {
        fill-rule: evenodd;
      }
    </style>
  </defs>
  <title>IconsAsset 241</title>
  <g id="Layer_2" data-name="Layer 2">
    <g id="ic_about">
      <g id="about_highlight">
        <rect id="frame" class="cls-1" y="0.01" width="48" height="48"/>
        <rect id="frame-2" data-name="frame" class="cls-1" y="0.01" width="48" height="48" transform="translate(48 48.02) rotate(180)"/>
        <circle class="cls-2" cx="24" cy="20.01" r="1"/>
        <rect class="cls-2" x="23" y="23.01" width="2" height="9" rx="1" transform="translate(48.01 55.02) rotate(180)"/>
        <path class="cls-2" d="M34.5,15H15.84L10,9.18V21.79h0V32.51A3.5,3.5,0,0,0,13.5,36h21a3.5,3.5,0,0,0,3.5-3.5v-14A3.5,3.5,0,0,0,34.5,15ZM36,32.51A1.5,1.5,0,0,1,34.5,34h-21a1.51,1.51,0,0,1-1.5-1.5V21.73h0V14l3,3H34.5A1.51,1.51,0,0,1,36,18.51Z"/>
      </g>
      <g id="about_default">
        <rect id="frame-3" data-name="frame" class="cls-1" y="0.01" width="48" height="48"/>
        <circle class="cls-3" cx="24" cy="20.01" r="1"/>
        <rect class="cls-3" x="23" y="23.01" width="2" height="9" rx="1" transform="translate(48.01 55.02) rotate(180)"/>
        <rect id="frame-4" data-name="frame" class="cls-1" y="0.01" width="48" height="48" transform="translate(48 48.01) rotate(180)"/>
        <path class="cls-3" d="M34.5,15H15.84L10,9.18V21.79h0V32.51A3.5,3.5,0,0,0,13.5,36h21a3.5,3.5,0,0,0,3.5-3.5v-14A3.5,3.5,0,0,0,34.5,15ZM36,32.51A1.5,1.5,0,0,1,34.5,34h-21a1.51,1.51,0,0,1-1.5-1.5V21.73h0V14l3,3H34.5A1.51,1.51,0,0,1,36,18.51Z"/>
      </g>
    </g>
    <g id="ic_new">
      <g id="new2_highlight">
        <rect id="frame-5" data-name="frame" class="cls-1" y="0.01" width="48" height="48"/>
        <path class="cls-2" d="M34,10H22.83a2,2,0,0,0-1.41.58L20,12l-6,6-1.41,1.41a2,2,0,0,0-.54,1,1.84,1.84,0,0,0-.05.41V36a2,2,0,0,0,2,2H34a2,2,0,0,0,2-2V12A2,2,0,0,0,34,10ZM22,12.84V20H14.83ZM34,36H14V22h8a2,2,0,0,0,2-2V12H34Z"/>
        <polygon class="cls-4" points="14.83 20.01 22 20.01 22 12.84 14.83 20.01"/>
      </g>
      <g id="new2_default">
        <rect id="frame-6" data-name="frame" class="cls-1" y="0.01" width="48" height="48"/>
        <path class="cls-3" d="M34,10H22.83a2,2,0,0,0-1.41.58L20,12l-6,6-1.41,1.41a2,2,0,0,0-.54,1,1.84,1.84,0,0,0-.05.41V36a2,2,0,0,0,2,2H34a2,2,0,0,0,2-2V12A2,2,0,0,0,34,10ZM22,12.84V20H14.83ZM34,36H14V22h8a2,2,0,0,0,2-2V12H34Z"/>
      </g>
    </g>
    <g id="ic_download">
      <g id="download_highlight">
        <path class="cls-2" d="M31.78,23.23a1,1,0,0,0-1.41,0L25,28.6V11a1,1,0,1,0-2,0V28.59l-5.36-5.36a1,1,0,0,0-1.42,0,1,1,0,0,0,0,1.41l7.07,7.07a1,1,0,0,0,1.42,0l7.07-7.07A1,1,0,0,0,31.78,23.23Z"/>
        <rect class="cls-2" x="14" y="34.01" width="20" height="2" rx="1"/>
        <rect id="frame-7" data-name="frame" class="cls-1" y="0.01" width="48" height="48"/>
      </g>
      <g id="download_default">
        <path class="cls-3" d="M31.78,23.23a1,1,0,0,0-1.41,0L25,28.6V11a1,1,0,1,0-2,0V28.59l-5.36-5.36a1,1,0,0,0-1.42,0,1,1,0,0,0,0,1.41l7.07,7.07a1,1,0,0,0,1.42,0l7.07-7.07A1,1,0,0,0,31.78,23.23Z"/>
        <rect class="cls-3" x="14" y="34.01" width="20" height="2" rx="1"/>
        <rect id="frame-8" data-name="frame" class="cls-1" y="0.01" width="48" height="48"/>
      </g>
    </g>
    <g id="ic_open">
      <g id="open_highlight">
        <path class="cls-2" d="M16.22,24.79a1,1,0,0,0,1.41,0L23,19.42V37a1,1,0,0,0,2,0V19.42l5.36,5.37a1,1,0,0,0,1.42-1.42L24.71,16.3a1,1,0,0,0-1.42,0l-7.07,7.07A1,1,0,0,0,16.22,24.79Z"/>
        <rect class="cls-2" x="14" y="12.01" width="20" height="2" rx="1" transform="translate(48 26.01) rotate(180)"/>
        <rect id="frame-9" data-name="frame" class="cls-1" y="0.01" width="48" height="48"/>
      </g>
      <g id="open_default">
        <path class="cls-3" d="M16.22,24.79a1,1,0,0,0,1.41,0L23,19.42V37a1,1,0,0,0,2,0V19.42l5.36,5.37a1,1,0,0,0,1.42-1.42L24.71,16.3a1,1,0,0,0-1.42,0l-7.07,7.07A1,1,0,0,0,16.22,24.79Z"/>
        <rect class="cls-3" x="14" y="12.01" width="20" height="2" rx="1" transform="translate(48 26.01) rotate(180)"/>
        <rect id="frame-10" data-name="frame" class="cls-1" y="0.01" width="48" height="48"/>
      </g>
    </g>
    <g id="ic_uisettings">
      <g id="uiSettings_highlight">
        <rect id="frame-11" data-name="frame" class="cls-1" y="0.01" width="48" height="48"/>
        <g>
          <path class="cls-2" d="M30.85,30H27.16a1.46,1.46,0,0,1-1.45-1.21l-.27-1.85a8.06,8.06,0,0,1-.8-.45l-1.79.7A1.47,1.47,0,0,1,21,26.55l-1.83-3.09a1.45,1.45,0,0,1,.31-1.84l1.57-1.2c0-.14,0-.28,0-.42s0-.29,0-.42l-1.52-1.16a1.45,1.45,0,0,1-.38-1.86l1.86-3.14a1.51,1.51,0,0,1,1.77-.63l1.83.72a6,6,0,0,1,.79-.44l.27-1.84A1.48,1.48,0,0,1,27.16,10h3.69a1.44,1.44,0,0,1,1.44,1.29l.26,1.76a5.88,5.88,0,0,1,.8.46l1.79-.71a1.48,1.48,0,0,1,1.81.64l1.84,3.09a1.47,1.47,0,0,1-.32,1.85l-1.55,1.18c0,.14,0,.28,0,.44a3,3,0,0,1,0,.42l1.53,1.16.05,0a1.46,1.46,0,0,1,.33,1.82L37,26.57a1.5,1.5,0,0,1-1.77.63l-1.84-.71c-.24.15-.5.3-.77.44l-.28,1.84A1.48,1.48,0,0,1,30.85,30Zm-3.23-2H30.4l.28-1.9a1,1,0,0,1,.6-.78,5.65,5.65,0,0,0,1.32-.75,1,1,0,0,1,1-.14l1.89.74,1.36-2.3-1.57-1.19a1,1,0,0,1-.39-.93,6.49,6.49,0,0,0,.06-.75,4.58,4.58,0,0,0,0-.7,1,1,0,0,1,.37-1l1.56-1.19-1.36-2.3-1.87.73a1,1,0,0,1-1-.13,5.22,5.22,0,0,0-1.33-.74,1,1,0,0,1-.63-.79L30.38,12H27.62l-.28,1.9a1,1,0,0,1-.61.77,6.62,6.62,0,0,0-1.35.76,1,1,0,0,1-1,.13l-1.87-.73-1.36,2.3,1.56,1.19a1,1,0,0,1,.39.92,4.77,4.77,0,0,0-.05.76,4.57,4.57,0,0,0,.05.75,1,1,0,0,1-.39.92l-1.56,1.2,1.36,2.3,1.87-.74a1,1,0,0,1,1,.13,5.22,5.22,0,0,0,1.32.75,1,1,0,0,1,.64.79Zm-4.86-2.47v0ZM35.22,14.44v0Zm-4.91-2.92a.13.13,0,0,0,0,.06ZM29,24a4,4,0,1,1,4-4A4,4,0,0,1,29,24Zm0-6a2,2,0,1,0,2,2A2,2,0,0,0,29,18Z"/>
          <path class="cls-2" d="M38,28a1,1,0,0,0-1,1V34.5a.53.53,0,0,1-.55.5H11.56a.54.54,0,0,1-.56-.5V18h6a1,1,0,0,0,0-2H11V14.5a.53.53,0,0,1,.56-.5H17a1,1,0,0,0,0-2H11.56A2.53,2.53,0,0,0,9,14.5v20A2.53,2.53,0,0,0,11.56,37H36.45A2.53,2.53,0,0,0,39,34.5V29A1,1,0,0,0,38,28Z"/>
        </g>
      </g>
      <g id="uiSettings_default">
        <rect id="frame-12" data-name="frame" class="cls-1" width="48" height="48"/>
        <g>
          <path class="cls-3" d="M30.85,30H27.16a1.46,1.46,0,0,1-1.45-1.21l-.27-1.85a8.06,8.06,0,0,1-.8-.45l-1.79.7A1.47,1.47,0,0,1,21,26.55l-1.83-3.09a1.45,1.45,0,0,1,.31-1.84l1.57-1.2c0-.14,0-.28,0-.42s0-.29,0-.42l-1.52-1.16a1.45,1.45,0,0,1-.38-1.86l1.86-3.14a1.51,1.51,0,0,1,1.77-.63l1.83.72a6,6,0,0,1,.79-.44l.27-1.84A1.48,1.48,0,0,1,27.16,10h3.69a1.44,1.44,0,0,1,1.44,1.29l.26,1.76a5.88,5.88,0,0,1,.8.46l1.79-.71a1.48,1.48,0,0,1,1.81.64l1.84,3.09a1.47,1.47,0,0,1-.32,1.85l-1.55,1.18c0,.14,0,.28,0,.44a3,3,0,0,1,0,.42l1.53,1.16.05,0a1.46,1.46,0,0,1,.33,1.82L37,26.57a1.5,1.5,0,0,1-1.77.63l-1.84-.71c-.24.15-.5.3-.77.44l-.28,1.84A1.48,1.48,0,0,1,30.85,30Zm-3.23-2H30.4l.28-1.9a1,1,0,0,1,.6-.78,5.65,5.65,0,0,0,1.32-.75,1,1,0,0,1,1-.14l1.89.74,1.36-2.3-1.57-1.19a1,1,0,0,1-.39-.93,6.49,6.49,0,0,0,.06-.75,4.58,4.58,0,0,0,0-.7,1,1,0,0,1,.37-1l1.56-1.19-1.36-2.3-1.87.73a1,1,0,0,1-1-.13,5.22,5.22,0,0,0-1.33-.74,1,1,0,0,1-.63-.79L30.38,12H27.62l-.28,1.9a1,1,0,0,1-.61.77,6.62,6.62,0,0,0-1.35.76,1,1,0,0,1-1,.13l-1.87-.73-1.36,2.3,1.56,1.19a1,1,0,0,1,.39.92,4.77,4.77,0,0,0-.05.76,4.57,4.57,0,0,0,.05.75,1,1,0,0,1-.39.92l-1.56,1.2,1.36,2.3,1.87-.74a1,1,0,0,1,1,.13,5.22,5.22,0,0,0,1.32.75,1,1,0,0,1,.64.79Zm-4.86-2.47v0ZM35.22,14.44v0Zm-4.91-2.92a.13.13,0,0,0,0,.06ZM29,24a4,4,0,1,1,4-4A4,4,0,0,1,29,24Zm0-6a2,2,0,1,0,2,2A2,2,0,0,0,29,18Z"/>
          <path class="cls-3" d="M38,28a1,1,0,0,0-1,1V34.5a.53.53,0,0,1-.55.5H11.56a.54.54,0,0,1-.56-.5V18h6a1,1,0,0,0,0-2H11V14.5a.53.53,0,0,1,.56-.5H17a1,1,0,0,0,0-2H11.56A2.53,2.53,0,0,0,9,14.5v20A2.53,2.53,0,0,0,11.56,37H36.45A2.53,2.53,0,0,0,39,34.5V29A1,1,0,0,0,38,28Z"/>
        </g>
      </g>
    </g>
    <g id="ic_clearSettings">
      <g id="clearSettings_highlight">
        <rect id="frame-13" data-name="frame" class="cls-1" y="0.01" width="48" height="48"/>
        <g>
          <path class="cls-2" d="M13.46,30.3,12.11,28l2.57-2a1,1,0,0,0,.39-.93A8.51,8.51,0,0,1,15,24a8.66,8.66,0,0,1,.07-1.15,1,1,0,0,0-.39-.92l-2.57-2,2.37-4,3.05,1.2a1,1,0,0,0,1-.13,9.8,9.8,0,0,1,2.06-1.15,1,1,0,0,0,.6-.78L21.61,12h4.76l.46,3.12a1,1,0,0,0,.64.79l.25.12,1.49-1.5c-.16-.08-.32-.19-.49-.26l-.41-2.81A1.63,1.63,0,0,0,26.67,10H21.33a1.69,1.69,0,0,0-1.65,1.4l-.43,2.89a11.09,11.09,0,0,0-1.49.83L14.92,14a1.7,1.7,0,0,0-2,.71l-2.68,4.52a1.64,1.64,0,0,0,.42,2.12L13,23.19c0,.27,0,.54,0,.82s0,.55,0,.82L10.6,26.68a1.66,1.66,0,0,0-.37,2.1l1.77,3Z"/>
          <path class="cls-2" d="M23.72,20l1.82-1.83A6,6,0,0,0,18,24a6.09,6.09,0,0,0,.21,1.54L20,23.73A4,4,0,0,1,23.72,20Z"/>
          <path class="cls-2" d="M37.36,26.64,35,24.83A7.08,7.08,0,0,0,35,24a7.39,7.39,0,0,0,0-.84l2.41-1.84a1.66,1.66,0,0,0,.37-2.1l-2.66-4.47a1.12,1.12,0,0,0-.19-.24L36,13.4A1,1,0,0,0,36,12a1,1,0,0,0-1.42,0l-2.47,2.48h0l-4.65,4.65h0L26,20.57h0L20.57,26h0l-1.45,1.45h0L14.49,32.1h0L12,34.61A1,1,0,1,0,13.4,36l2.35-2.35,2-.79a10.37,10.37,0,0,0,1.5.85l.43,2.9A1.67,1.67,0,0,0,21.33,38h5.34a1.7,1.7,0,0,0,1.66-1.4l.42-2.89a12,12,0,0,0,1.48-.83L33.09,34a1.72,1.72,0,0,0,2-.72l2.68-4.52A1.68,1.68,0,0,0,37.36,26.64ZM28,24a4,4,0,0,1-4,4,4,4,0,0,1-2-.56L27.44,22A4,4,0,0,1,28,24Zm5.53,8-3.08-1.2a1,1,0,0,0-1,.15,9.23,9.23,0,0,1-2,1.14,1,1,0,0,0-.6.77L26.39,36H21.61l-.46-3.13a1,1,0,0,0-.64-.79,8.21,8.21,0,0,1-2-1.13h0l2.05-2.06a6,6,0,0,0,8.35-8.35l4.5-4.5.12,0,2.37,4-2.57,2a1,1,0,0,0-.38,1A5.77,5.77,0,0,1,33,24a9.58,9.58,0,0,1-.1,1.15,1,1,0,0,0,.39.92l2.59,2Z"/>
        </g>
      </g>
      <g id="clearSettings_default">
        <rect id="frame-14" data-name="frame" class="cls-1" y="0.01" width="48" height="48"/>
        <g>
          <path class="cls-3" d="M13.46,30.3,12.11,28l2.57-2a1,1,0,0,0,.39-.93A8.51,8.51,0,0,1,15,24a8.66,8.66,0,0,1,.07-1.15,1,1,0,0,0-.39-.92l-2.57-2,2.37-4,3.05,1.2a1,1,0,0,0,1-.13,9.8,9.8,0,0,1,2.06-1.15,1,1,0,0,0,.6-.78L21.61,12h4.76l.46,3.12a1,1,0,0,0,.64.79l.25.12,1.49-1.5c-.16-.08-.32-.19-.49-.26l-.41-2.81A1.63,1.63,0,0,0,26.67,10H21.33a1.69,1.69,0,0,0-1.65,1.4l-.43,2.89a11.09,11.09,0,0,0-1.49.83L14.92,14a1.7,1.7,0,0,0-2,.71l-2.68,4.52a1.64,1.64,0,0,0,.42,2.12L13,23.19c0,.27,0,.54,0,.82s0,.55,0,.82L10.6,26.68a1.66,1.66,0,0,0-.37,2.1l1.77,3Z"/>
          <path class="cls-3" d="M23.72,20l1.82-1.83A6,6,0,0,0,18,24a6.09,6.09,0,0,0,.21,1.54L20,23.73A4,4,0,0,1,23.72,20Z"/>
          <path class="cls-3" d="M37.36,26.64,35,24.83A7.08,7.08,0,0,0,35,24a7.39,7.39,0,0,0,0-.84l2.41-1.84a1.66,1.66,0,0,0,.37-2.1l-2.66-4.47a1.12,1.12,0,0,0-.19-.24L36,13.4A1,1,0,0,0,36,12a1,1,0,0,0-1.42,0l-2.47,2.48h0l-4.65,4.65h0L26,20.57h0L20.57,26h0l-1.45,1.45h0L14.49,32.1h0L12,34.61A1,1,0,1,0,13.4,36l2.35-2.35,2-.79a10.37,10.37,0,0,0,1.5.85l.43,2.9A1.67,1.67,0,0,0,21.33,38h5.34a1.7,1.7,0,0,0,1.66-1.4l.42-2.89a12,12,0,0,0,1.48-.83L33.09,34a1.72,1.72,0,0,0,2-.72l2.68-4.52A1.68,1.68,0,0,0,37.36,26.64ZM28,24a4,4,0,0,1-4,4,4,4,0,0,1-2-.56L27.44,22A4,4,0,0,1,28,24Zm5.53,8-3.08-1.2a1,1,0,0,0-1,.15,9.23,9.23,0,0,1-2,1.14,1,1,0,0,0-.6.77L26.39,36H21.61l-.46-3.13a1,1,0,0,0-.64-.79,8.21,8.21,0,0,1-2-1.13h0l2.05-2.06a6,6,0,0,0,8.35-8.35l4.5-4.5.12,0,2.37,4-2.57,2a1,1,0,0,0-.38,1A5.77,5.77,0,0,1,33,24a9.58,9.58,0,0,1-.1,1.15,1,1,0,0,0,.39.92l2.59,2Z"/>
        </g>
      </g>
      <path class="cls-1" d="M24,28a4,4,0,0,0,2-7.44L20.56,26A4,4,0,0,0,24,28Z"/>
    </g>
    <g id="ic_TextMode">
      <g id="textMode_highlight">
        <rect class="cls-4" x="11.01" y="17" width="26" height="17"/>
        <rect id="frame-15" data-name="frame" class="cls-1" y="0.01" width="48" height="48"/>
        <path class="cls-2" d="M28.63,28.8l-3.4-3.41,3.4-3.4a1,1,0,0,0,0-1.41,1,1,0,0,0-1.42,0L24,23.78l-3.21-3.2a1,1,0,0,0-1.41,0,1,1,0,0,0,0,1.41l3.4,3.41-3.4,3.4a1,1,0,0,0,0,1.41,1,1,0,0,0,.71.29,1,1,0,0,0,.7-.29L24,27l3.21,3.21a1,1,0,0,0,1.41-1.41Z"/>
        <path class="cls-2" d="M36,11H12a3,3,0,0,0-3,3V33a3,3,0,0,0,3,3H36a3,3,0,0,0,3-3V14A3,3,0,0,0,36,11ZM12,13H36a1,1,0,0,1,1,1v1H11V14A1,1,0,0,1,12,13ZM36,34H12a1,1,0,0,1-1-1V17H37V33A1,1,0,0,1,36,34Z"/>
      </g>
      <g id="textMode_default">
        <rect id="frame-16" data-name="frame" class="cls-1" y="0.01" width="48" height="48"/>
        <path class="cls-3" d="M20.61,30.5a1,1,0,0,1-.7-.29L15.79,26.1a1,1,0,0,1-.29-.71,1.05,1.05,0,0,1,.29-.71l4.11-4.1a1,1,0,0,1,1.41,0,1,1,0,0,1,0,1.41l-3.39,3.4,3.4,3.41a1,1,0,0,1,0,1.41A1,1,0,0,1,20.61,30.5Z"/>
        <path class="cls-3" d="M27.4,30.5a1,1,0,0,1-.71-.29,1,1,0,0,1,0-1.41l3.4-3.4L26.68,22a1,1,0,0,1,0-1.41,1,1,0,0,1,1.42,0l4.11,4.11a1,1,0,0,1,.29.71,1,1,0,0,1-.29.7L28.1,30.21A1,1,0,0,1,27.4,30.5Z"/>
        <path class="cls-3" d="M36,11H12a3,3,0,0,0-3,3V33a3,3,0,0,0,3,3H36a3,3,0,0,0,3-3V14A3,3,0,0,0,36,11ZM12,13H36a1,1,0,0,1,1,1v1H11V14A1,1,0,0,1,12,13ZM36,34H12a1,1,0,0,1-1-1V17H37V33A1,1,0,0,1,36,34Z"/>
      </g>
    </g>
    <g id="ic_basicMode">
      <g id="basicMode_default">
        <polyline class="cls-5" points="38 26.41 24 34.81 10 26.41"/>
        <rect id="frame-17" data-name="frame" class="cls-1" y="0.01" width="48" height="48"/>
        <polygon class="cls-6" points="10 20.41 24 12.01 38 20.41 24 28.81 10 20.41"/>
      </g>
    </g>
    <g id="ic_mediumMode">
      <g id="mediumMode_default">
        <polyline class="cls-5" points="10 26.41 24 34.81 38 26.41"/>
        <rect id="frame-18" data-name="frame" class="cls-1" y="0.01" width="48" height="48"/>
        <polygon class="cls-7" points="24 28.81 10 20.41 24 12.01 38 20.41 24 28.81"/>
      </g>
    </g>
    <g id="ic_Help">
      <g id="help_highlight">
        <g id="help">
          <path class="cls-2" d="M25.17,15.19a5,5,0,0,0-4.28,1A4.89,4.89,0,0,0,19,20a1,1,0,0,0,2,0,2.9,2.9,0,0,1,1.13-2.31A3,3,0,1,1,25,22.88a3.13,3.13,0,0,0-2,3V28a1,1,0,0,0,2,0V25.85a1.13,1.13,0,0,1,.68-1.08,5,5,0,0,0,3.19-5.88A5,5,0,0,0,25.17,15.19Z"/>
          <path class="cls-2" d="M24,11A13,13,0,1,1,11,24,13,13,0,0,1,24,11m0-2A15,15,0,1,0,39,24,15,15,0,0,0,24,9Z"/>
          <rect class="cls-2" x="23" y="31.03" width="2" height="2" rx="0.4"/>
        </g>
        <rect id="frame-19" data-name="frame" class="cls-1" y="0.01" width="48" height="48"/>
      </g>
      <g id="help_default">
        <g id="help-2" data-name="help">
          <path class="cls-3" d="M25.17,15.19a5,5,0,0,0-4.28,1A4.89,4.89,0,0,0,19,20a1,1,0,0,0,2,0,2.9,2.9,0,0,1,1.13-2.31A3,3,0,1,1,25,22.88a3.13,3.13,0,0,0-2,3V28a1,1,0,0,0,2,0V25.85a1.13,1.13,0,0,1,.68-1.08,5,5,0,0,0,3.19-5.88A5,5,0,0,0,25.17,15.19Z"/>
          <path class="cls-3" d="M24,11A13,13,0,1,1,11,24,13,13,0,0,1,24,11m0-2A15,15,0,1,0,39,24,15,15,0,0,0,24,9Z"/>
          <rect class="cls-3" x="23" y="31.03" width="2" height="2" rx="0.4"/>
        </g>
        <rect id="frame-20" data-name="frame" class="cls-1" y="0.01" width="48" height="48"/>
      </g>
    </g>
    <g id="ic_play">
      <g id="play_highlight">
        <circle class="cls-8" cx="24" cy="24.01" r="20.5"/>
        <path class="cls-2" d="M19,34a1.93,1.93,0,0,1-1-.26A2,2,0,0,1,17,32V16a2,2,0,0,1,1-1.75,2,2,0,0,1,2,0l13,8A2,2,0,0,1,34,24a2,2,0,0,1-1,1.7l-13,8A2,2,0,0,1,19,34Zm0-18V32h0l13-8Z"/>
        <rect id="frame-21" data-name="frame" class="cls-1" y="0.01" width="48" height="48"/>
      </g>
      <g id="play_default">
        <circle class="cls-9" cx="24" cy="24.01" r="20.5"/>
        <path class="cls-3" d="M19,34a1.93,1.93,0,0,1-1-.26A2,2,0,0,1,17,32V16a2,2,0,0,1,1-1.75,2,2,0,0,1,2,0l13,8A2,2,0,0,1,34,24a2,2,0,0,1-1,1.7l-13,8A2,2,0,0,1,19,34Zm0-18V32h0l13-8Z"/>
        <rect id="frame-22" data-name="frame" class="cls-1" y="0.01" width="48" height="48"/>
        <polygon class="cls-10" points="31.95 24 19.05 16.06 19.05 31.94 31.95 24"/>
      </g>
    </g>
    <g id="ic_Stop">
      <g id="stop_highlight">
        <rect id="frame-23" data-name="frame" class="cls-1" y="0.01" width="48" height="48"/>
        <g>
          <rect class="cls-11" x="16" y="16.01" width="16" height="16"/>
          <path class="cls-2" d="M31.65,34H16.35A2.35,2.35,0,0,1,14,31.66V16.36A2.35,2.35,0,0,1,16.35,14h15.3A2.35,2.35,0,0,1,34,16.36v15.3A2.36,2.36,0,0,1,31.65,34ZM16,16h0V32H32V16Z"/>
        </g>
      </g>
      <g id="stop_default">
        <rect id="frame-24" data-name="frame" class="cls-1" y="0.01" width="48" height="48"/>
        <g>
          <rect class="cls-11" x="16" y="16.01" width="16" height="16"/>
          <path class="cls-3" d="M31.65,34H16.35A2.35,2.35,0,0,1,14,31.66V16.36A2.35,2.35,0,0,1,16.35,14h15.3A2.35,2.35,0,0,1,34,16.36v15.3A2.36,2.36,0,0,1,31.65,34ZM16,16h0V32H32V16Z"/>
        </g>
      </g>
    </g>
    <g id="ic_reloadProgram">
      <g id="reload_highlight">
        <path class="cls-2" d="M19,34a2,2,0,0,1-2-2V16a2,2,0,0,1,1-1.75,2,2,0,0,1,2,0l13,8a2,2,0,0,1,0,3.41l-13,8A2.06,2.06,0,0,1,19,34Zm0-18V32h0l13-8Z"/>
        <rect id="frame-25" data-name="frame" class="cls-1" y="0.01" width="48" height="48"/>
        <polygon class="cls-12" points="32 24.01 19 16.01 19 32.01 32 24.01"/>
        <path class="cls-2" d="M35.62,17a1,1,0,0,0,1,1h8a1,1,0,0,0,1-1V9a1,1,0,0,0-2,0v5.85a21.49,21.49,0,1,0,2,9,1,1,0,1,0-2,0A19.51,19.51,0,1,1,42,16H36.62A1,1,0,0,0,35.62,17Z"/>
      </g>
      <g id="reload_default">
        <path class="cls-3" d="M19,34a2,2,0,0,1-2-2V16a2,2,0,0,1,1-1.75,2,2,0,0,1,2,0l13,8a2,2,0,0,1,0,3.41l-13,8A2.06,2.06,0,0,1,19,34Zm0-18V32h0l13-8Z"/>
        <rect id="frame-26" data-name="frame" class="cls-1" y="0.01" width="48" height="48"/>
        <polygon class="cls-13" points="32 24.01 19 16.01 19 32.01 32 24.01"/>
        <path class="cls-3" d="M35.62,17a1,1,0,0,0,1,1h8a1,1,0,0,0,1-1V9a1,1,0,0,0-2,0v5.85a21.49,21.49,0,1,0,2,9,1,1,0,1,0-2,0A19.51,19.51,0,1,1,42,16H36.62A1,1,0,0,0,35.62,17Z"/>
      </g>
    </g>
    <g id="ic_pause">
      <g id="pause_highlight">
        <rect id="frame-27" data-name="frame" class="cls-1" y="0.01" width="48" height="48"/>
        <g id="pause">
          <rect class="cls-2" x="26" y="16.14" width="4" height="16" rx="2"/>
          <rect class="cls-2" x="18" y="16.14" width="4" height="16" rx="2"/>
        </g>
        <circle class="cls-14" cx="24" cy="24.01" r="16"/>
      </g>
      <g id="pause_default">
        <rect id="frame-28" data-name="frame" class="cls-1" y="0.01" width="48" height="48"/>
        <g id="pause-2" data-name="pause">
          <circle class="cls-15" cx="24" cy="24.01" r="16"/>
          <rect class="cls-3" x="26" y="16.14" width="4" height="16" rx="2"/>
          <rect class="cls-3" x="18" y="16.14" width="4" height="16" rx="2"/>
        </g>
      </g>
    </g>
    <g id="ic_connect">
      <g id="robotConnect_default">
        <path class="cls-3" d="M36,22H12a2,2,0,0,0-2,2v9a2,2,0,0,0,2,2h2a6.29,6.29,0,0,0,1.54,1.71l.06.05c.19.14.38.26.58.38l.06,0a6.1,6.1,0,0,0,1.37.57l.19.05a4.86,4.86,0,0,0,.55.11l.21,0a5.73,5.73,0,0,0,1.51,0l.21,0a5.35,5.35,0,0,0,.55-.11l.19-.05a6.1,6.1,0,0,0,1.37-.57l.06,0c.2-.12.39-.24.58-.38l.06-.05A6.29,6.29,0,0,0,24.65,35H36a2,2,0,0,0,2-2V24A2,2,0,0,0,36,22ZM22.89,34l-.16.23a4.16,4.16,0,0,1-.32.39l-.13.14a3.84,3.84,0,0,1-.54.44l-.12.09a5.07,5.07,0,0,1-.61.32l-.05,0a4.91,4.91,0,0,1-.71.22l-.15,0a4.78,4.78,0,0,1-.77.08,4.78,4.78,0,0,1-.76-.08l-.16,0a5.19,5.19,0,0,1-.7-.22l-.05,0a4.42,4.42,0,0,1-.61-.32l-.12-.09a3.34,3.34,0,0,1-.54-.44l-.13-.14a4.16,4.16,0,0,1-.32-.39L15.78,34a4.19,4.19,0,0,1-.67-2.26,4.23,4.23,0,0,1,8.45,0A4.19,4.19,0,0,1,22.89,34ZM36,33H25.44a7.12,7.12,0,0,0,.12-1.23,6.23,6.23,0,0,0-12.45,0A7.12,7.12,0,0,0,13.23,33H12V24H36Z"/>
        <rect id="frame-29" data-name="frame" class="cls-1" y="0.01" width="48" height="48"/>
        <polyline class="cls-5" points="28.5 10.94 22.5 16.94 22.5 16.94 19.5 13.94"/>
      </g>
    </g>
    <g id="ic_code_running">
      <g id="running_default">
        <rect id="frame-30" data-name="frame" class="cls-1" y="0.01" width="48" height="48"/>
        <g id="running">
          <path class="cls-3" d="M36,23H12a2,2,0,0,0-2,2v9a2,2,0,0,0,2,2h2a6.29,6.29,0,0,0,1.54,1.71l.06.05a5.25,5.25,0,0,0,.58.38l.06,0a6.13,6.13,0,0,0,1.37.58l.19,0,.55.11.21,0a5.73,5.73,0,0,0,1.51,0l.21,0,.55-.11.19,0a6.13,6.13,0,0,0,1.37-.58l.06,0a5.25,5.25,0,0,0,.58-.38l.06,0A6.48,6.48,0,0,0,24.65,36H36a2,2,0,0,0,2-2V25A2,2,0,0,0,36,23ZM22.89,35a1.88,1.88,0,0,1-.16.23,4.16,4.16,0,0,1-.32.39.86.86,0,0,1-.13.14,4.77,4.77,0,0,1-.54.45l-.12.08c-.2.12-.4.23-.61.33l-.05,0a3.26,3.26,0,0,1-.71.22l-.15,0a3.7,3.7,0,0,1-1.53,0l-.16,0a3.35,3.35,0,0,1-.7-.22l-.05,0a5.92,5.92,0,0,1-.61-.33l-.12-.08a4,4,0,0,1-.54-.45.86.86,0,0,1-.13-.14,4.16,4.16,0,0,1-.32-.39,1.88,1.88,0,0,1-.16-.23,4.13,4.13,0,0,1-.67-2.25,4.23,4.23,0,1,1,8.45,0A4.13,4.13,0,0,1,22.89,35ZM36,34H25.44a7.1,7.1,0,0,0,.12-1.22,6.23,6.23,0,1,0-12.45,0A7.1,7.1,0,0,0,13.23,34H12V25H36Z"/>
          <g>
            <path class="cls-2" d="M28,6a1,1,0,0,0-1,.9A7,7,0,0,0,16.56,13a1,1,0,1,0,2,0,5,5,0,0,1,5-5,5.12,5.12,0,0,1,1.7.31A1,1,0,0,0,25,9a1,1,0,0,0,1,1h2a1,1,0,0,0,1-1V7A1,1,0,0,0,28,6Z"/>
            <path class="cls-2" d="M29.56,12a1,1,0,0,0-1,1,5,5,0,0,1-6.72,4.71,1,1,0,0,0,.28-.7,1,1,0,0,0-1-1h-2a1,1,0,0,0-1,1v2a1,1,0,0,0,1,1,1,1,0,0,0,1-.9A7,7,0,0,0,30.56,13,1,1,0,0,0,29.56,12Z"/>
          </g>
        </g>
      </g>
    </g>
    <g id="ic_disconnect">
      <g id="disconnect_highlight">
        <path class="cls-2" d="M20.11,17.71a1,1,0,0,0,1.42,0L24,15.24l2.48,2.47a1,1,0,1,0,1.41-1.41l-2.47-2.48,2.47-2.47a1,1,0,1,0-1.41-1.41L24,12.41,21.53,9.94a1,1,0,0,0-1.42,0,1,1,0,0,0,0,1.41l2.48,2.47L20.11,16.3A1,1,0,0,0,20.11,17.71Z"/>
        <path class="cls-2" d="M36,22H12a2,2,0,0,0-2,2v9a2,2,0,0,0,2,2h2a6.29,6.29,0,0,0,1.54,1.71l.06.05c.19.14.38.26.58.38l.06,0a6.1,6.1,0,0,0,1.37.57l.19.05a4.86,4.86,0,0,0,.55.11l.21,0a5.73,5.73,0,0,0,1.51,0l.21,0a5.35,5.35,0,0,0,.55-.11l.19-.05a6.1,6.1,0,0,0,1.37-.57l.06,0c.2-.12.39-.24.58-.38l.06-.05A6.29,6.29,0,0,0,24.65,35H36a2,2,0,0,0,2-2V24A2,2,0,0,0,36,22ZM22.89,34l-.16.23a4.16,4.16,0,0,1-.32.39l-.13.14a3.84,3.84,0,0,1-.54.44l-.12.09a5.07,5.07,0,0,1-.61.32l-.05,0a4.91,4.91,0,0,1-.71.22l-.15,0a4.78,4.78,0,0,1-.77.08,4.78,4.78,0,0,1-.76-.08l-.16,0a5.19,5.19,0,0,1-.7-.22l-.05,0a4.42,4.42,0,0,1-.61-.32l-.12-.09a3.34,3.34,0,0,1-.54-.44l-.13-.14a4.16,4.16,0,0,1-.32-.39L15.78,34a4.19,4.19,0,0,1-.67-2.26,4.23,4.23,0,0,1,8.45,0A4.19,4.19,0,0,1,22.89,34ZM36,33H25.44a7.12,7.12,0,0,0,.12-1.23,6.23,6.23,0,0,0-12.45,0A7.12,7.12,0,0,0,13.23,33H12V24H36Z"/>
        <rect id="frame-31" data-name="frame" class="cls-1" y="0.01" width="48" height="48"/>
      </g>
      <g id="disconnect_default">
        <path class="cls-16" d="M20.11,17.71a1,1,0,0,0,1.42,0L24,15.24l2.48,2.47a1,1,0,1,0,1.41-1.41l-2.47-2.48,2.47-2.47a1,1,0,1,0-1.41-1.41L24,12.41,21.53,9.94a1,1,0,0,0-1.42,0,1,1,0,0,0,0,1.41l2.48,2.47L20.11,16.3A1,1,0,0,0,20.11,17.71Z"/>
        <path class="cls-3" d="M36,22H12a2,2,0,0,0-2,2v9a2,2,0,0,0,2,2h2a6.29,6.29,0,0,0,1.54,1.71l.06.05c.19.14.38.26.58.38l.06,0a6.1,6.1,0,0,0,1.37.57l.19.05a4.86,4.86,0,0,0,.55.11l.21,0a5.73,5.73,0,0,0,1.51,0l.21,0a5.35,5.35,0,0,0,.55-.11l.19-.05a6.1,6.1,0,0,0,1.37-.57l.06,0c.2-.12.39-.24.58-.38l.06-.05A6.29,6.29,0,0,0,24.65,35H36a2,2,0,0,0,2-2V24A2,2,0,0,0,36,22ZM22.89,34l-.16.23a4.16,4.16,0,0,1-.32.39l-.13.14a3.84,3.84,0,0,1-.54.44l-.12.09a5.07,5.07,0,0,1-.61.32l-.05,0a4.91,4.91,0,0,1-.71.22l-.15,0a4.78,4.78,0,0,1-.77.08,4.78,4.78,0,0,1-.76-.08l-.16,0a5.19,5.19,0,0,1-.7-.22l-.05,0a4.42,4.42,0,0,1-.61-.32l-.12-.09a3.34,3.34,0,0,1-.54-.44l-.13-.14a4.16,4.16,0,0,1-.32-.39L15.78,34a4.19,4.19,0,0,1-.67-2.26,4.23,4.23,0,0,1,8.45,0A4.19,4.19,0,0,1,22.89,34ZM36,33H25.44a7.12,7.12,0,0,0,.12-1.23,6.23,6.23,0,0,0-12.45,0A7.12,7.12,0,0,0,13.23,33H12V24H36Z"/>
        <rect id="frame-32" data-name="frame" class="cls-1" y="0.01" width="48" height="48"/>
      </g>
    </g>
    <g id="ic_UI_disable">
      <g id="disable_highlight">
        <path class="cls-2" d="M13.27,30.49l1.41-1.41a14.72,14.72,0,0,1-3.49-4.32,1.63,1.63,0,0,1,0-1.52A14.44,14.44,0,0,1,27.74,16l1.6-1.6a16.26,16.26,0,0,0-5.34-.9A16.51,16.51,0,0,0,9.42,22.3a3.65,3.65,0,0,0,0,3.4A16.56,16.56,0,0,0,13.27,30.49Z"/>
        <path class="cls-2" d="M38.58,22.3a16.49,16.49,0,0,0-5.46-6L36,13.4A1,1,0,0,0,34.6,12l-3.26,3.27h0l-1.49,1.5h0L28.18,18.4h0l-1.43,1.44h0l-6.91,6.91h0L18.4,28.18h0l-2.08,2.09h0l-1.44,1.44h0L12,34.6A1,1,0,0,0,12,36a1,1,0,0,0,.7.29A1,1,0,0,0,13.4,36l3.27-3.28a16.47,16.47,0,0,0,21.91-7A3.65,3.65,0,0,0,38.58,22.3ZM29,24a5,5,0,0,1-5,5,4.92,4.92,0,0,1-2.74-.83l6.9-6.9A4.92,4.92,0,0,1,29,24Zm7.82.76a14.48,14.48,0,0,1-18.64,6.48l1.66-1.65a7,7,0,0,0,9.76-9.77l2.09-2.08a14.46,14.46,0,0,1,5.13,5.5A1.63,1.63,0,0,1,36.81,24.76Z"/>
        <path class="cls-2" d="M24,19a5.05,5.05,0,0,1,.68.07l1.66-1.65A6.74,6.74,0,0,0,24,17a7,7,0,0,0-7,7,6.73,6.73,0,0,0,.41,2.34l1.65-1.66A4.91,4.91,0,0,1,24,19Z"/>
        <rect id="frame-33" data-name="frame" class="cls-1" y="0.01" width="48" height="48"/>
      </g>
      <g id="disable_default">
        <g id="disable_Path">
          <path class="cls-3" d="M13.27,30.49l1.41-1.41a14.72,14.72,0,0,1-3.49-4.32,1.63,1.63,0,0,1,0-1.52A14.44,14.44,0,0,1,27.74,16l1.6-1.6a16.26,16.26,0,0,0-5.34-.9A16.51,16.51,0,0,0,9.42,22.3a3.65,3.65,0,0,0,0,3.4A16.56,16.56,0,0,0,13.27,30.49Z"/>
          <path class="cls-3" d="M38.58,22.3a16.49,16.49,0,0,0-5.46-6L36,13.4A1,1,0,0,0,34.6,12l-3.26,3.27h0l-1.49,1.5h0L28.18,18.4h0l-1.43,1.44h0l-6.91,6.91h0L18.4,28.18h0l-2.08,2.09h0l-1.44,1.44h0L12,34.6A1,1,0,0,0,12,36a1,1,0,0,0,.7.29A1,1,0,0,0,13.4,36l3.27-3.28a16.47,16.47,0,0,0,21.91-7A3.65,3.65,0,0,0,38.58,22.3ZM29,24a5,5,0,0,1-5,5,4.92,4.92,0,0,1-2.74-.83l6.9-6.9A4.92,4.92,0,0,1,29,24Zm7.82.76a14.48,14.48,0,0,1-18.64,6.48l1.66-1.65a7,7,0,0,0,9.76-9.77l2.09-2.08a14.46,14.46,0,0,1,5.13,5.5A1.63,1.63,0,0,1,36.81,24.76Z"/>
          <path class="cls-3" d="M24,19a5.05,5.05,0,0,1,.68.07l1.66-1.65A6.74,6.74,0,0,0,24,17a7,7,0,0,0-7,7,6.73,6.73,0,0,0,.41,2.34l1.65-1.66A4.91,4.91,0,0,1,24,19Z"/>
        </g>
        <rect id="frame-34" data-name="frame" class="cls-1" y="0.01" width="48" height="48"/>
      </g>
    </g>
    <g id="ic_simulator">
      <g id="simulator_highlight">
        <rect id="frame-35" data-name="frame" class="cls-1" y="0.01" width="48" height="48"/>
        <path class="cls-2" d="M21,22.09l6.08,3.41L21,28.91Zm-.84-2.59A1.15,1.15,0,0,0,19,20.64v9.72a1.14,1.14,0,0,0,1.16,1.14,1.18,1.18,0,0,0,.57-.15l8.69-4.86a1.13,1.13,0,0,0,0-2l-8.69-4.86a1.18,1.18,0,0,0-.57-.15Z"/>
        <path class="cls-2" d="M36,11H12a3,3,0,0,0-3,3V33a3,3,0,0,0,3,3H36a3,3,0,0,0,3-3V14A3,3,0,0,0,36,11ZM12,13H36a1,1,0,0,1,1,1v1H11V14A1,1,0,0,1,12,13ZM36,34H12a1,1,0,0,1-1-1V17H37V33A1,1,0,0,1,36,34Z"/>
        <polygon class="cls-4" points="21 28.91 21 22.09 27.09 25.5 21 28.91"/>
      </g>
    </g>
    <g id="ic_simulatedThymio">
      <g id="simulatedThymio_highlight">
        <path class="cls-17" d="M37,19a1,1,0,0,0,1-1V17a1,1,0,0,0-1-1H36a1,1,0,0,0-1,1H13a1,1,0,0,0-1-1H11a1,1,0,0,0-1,1v1a1,1,0,0,0,1,1v8a1,1,0,0,0-1,1v1a1,1,0,0,0,1,1h1a1,1,0,0,0,1-1h1.81a6.74,6.74,0,0,0,.42.62l0,0a5.91,5.91,0,0,0,1.05,1.07l.06,0c.17.13.35.25.54.37l.11.06a6,6,0,0,0,1.32.57l.19,0a4.28,4.28,0,0,0,.54.12l.2,0a5.5,5.5,0,0,0,1.48,0l.2,0a4.28,4.28,0,0,0,.54-.12l.19,0A6,6,0,0,0,23,31.2l.11-.06c.19-.12.37-.24.54-.37l.06,0a5.91,5.91,0,0,0,1.05-1.07l0,0a6.74,6.74,0,0,0,.42-.62H35a1,1,0,0,0,1,1h1a1,1,0,0,0,1-1V28a1,1,0,0,0-1-1ZM11,18V17h1v1Zm1,11H11V28h1Zm11.38-.89a1.7,1.7,0,0,1-.15.22,2.37,2.37,0,0,1-.32.39l-.17.18a4.23,4.23,0,0,1-.41.33,1.7,1.7,0,0,1-.22.15,3.62,3.62,0,0,1-.43.24l-.18.08a4.18,4.18,0,0,1-.6.19l-.2,0a3.54,3.54,0,0,1-1.4,0l-.2,0a4.18,4.18,0,0,1-.6-.19l-.18-.08a3.62,3.62,0,0,1-.43-.24,1.7,1.7,0,0,1-.22-.15,4.23,4.23,0,0,1-.41-.33l-.17-.18a2.37,2.37,0,0,1-.32-.39,1.7,1.7,0,0,1-.15-.22A3.9,3.9,0,0,1,16,26a4,4,0,0,1,8,0A3.9,3.9,0,0,1,23.38,28.12ZM35,28H25.65a6,6,0,1,0-11.3,0H13a1,1,0,0,0-1-1V19a1,1,0,0,0,1-1H35a1,1,0,0,0,1,1v8A1,1,0,0,0,35,28Zm2,0v1H36V28ZM36,18V17h1v1Z"/>
        <rect id="frame-36" data-name="frame" class="cls-1" y="0.01" width="48" height="48"/>
      </g>
      <g id="simulatedThymio_default">
        <path class="cls-3" d="M37,19a1,1,0,0,0,1-1V17a1,1,0,0,0-1-1H36a1,1,0,0,0-1,1H13a1,1,0,0,0-1-1H11a1,1,0,0,0-1,1v1a1,1,0,0,0,1,1v8a1,1,0,0,0-1,1v1a1,1,0,0,0,1,1h1a1,1,0,0,0,1-1h1.81a6.74,6.74,0,0,0,.42.62l0,0a5.91,5.91,0,0,0,1.05,1.07l.06,0c.17.13.35.25.54.37l.11.06a6,6,0,0,0,1.32.57l.19,0a4.28,4.28,0,0,0,.54.12l.2,0a5.5,5.5,0,0,0,1.48,0l.2,0a4.28,4.28,0,0,0,.54-.12l.19,0A6,6,0,0,0,23,31.2l.11-.06c.19-.12.37-.24.54-.37l.06,0a5.91,5.91,0,0,0,1.05-1.07l0,0a6.74,6.74,0,0,0,.42-.62H35a1,1,0,0,0,1,1h1a1,1,0,0,0,1-1V28a1,1,0,0,0-1-1ZM11,18V17h1v1Zm1,11H11V28h1Zm11.38-.89a1.7,1.7,0,0,1-.15.22,2.37,2.37,0,0,1-.32.39l-.17.18a4.23,4.23,0,0,1-.41.33,1.7,1.7,0,0,1-.22.15,3.62,3.62,0,0,1-.43.24l-.18.08a4.18,4.18,0,0,1-.6.19l-.2,0a3.54,3.54,0,0,1-1.4,0l-.2,0a4.18,4.18,0,0,1-.6-.19l-.18-.08a3.62,3.62,0,0,1-.43-.24,1.7,1.7,0,0,1-.22-.15,4.23,4.23,0,0,1-.41-.33l-.17-.18a2.37,2.37,0,0,1-.32-.39,1.7,1.7,0,0,1-.15-.22A3.9,3.9,0,0,1,16,26a4,4,0,0,1,8,0A3.9,3.9,0,0,1,23.38,28.12ZM35,28H25.65a6,6,0,1,0-11.3,0H13a1,1,0,0,0-1-1V19a1,1,0,0,0,1-1H35a1,1,0,0,0,1,1v8A1,1,0,0,0,35,28Zm2,0v1H36V28ZM36,18V17h1v1Z"/>
        <rect id="frame-37" data-name="frame" class="cls-1" y="0.01" width="48" height="48"/>
      </g>
    </g>
    <g id="ic_duplicate">
      <g id="duplicate_highlight">
        <g id="duplicate">
          <path class="cls-2" d="M24.21,35H19.57a1,1,0,0,0,0,2h4.64a1,1,0,0,0,0-2Z"/>
          <path class="cls-2" d="M36,27.84a1,1,0,0,0-1,1v4.63a1,1,0,0,0,2,0V28.84A1,1,0,0,0,36,27.84Z"/>
          <path class="cls-2" d="M33.47,35H28.84a1,1,0,1,0,0,2h4.63a1,1,0,0,0,0-2Z"/>
          <path class="cls-2" d="M36,18.57a1,1,0,0,0-1,1v4.64a1,1,0,0,0,2,0V19.57A1,1,0,0,0,36,18.57Z"/>
          <path class="cls-2" d="M19,32.51V31H29a2,2,0,0,0,2-2V19h1.5a1,1,0,0,0,0-2H31V13a2,2,0,0,0-2-2H13a2,2,0,0,0-2,2V29a2,2,0,0,0,2,2h4v1.5a1,1,0,0,0,2,0ZM13,13H29v5h0V29H13Z"/>
        </g>
        <path class="cls-2" d="M25,20H22V17a1,1,0,0,0-2,0v3H17a1,1,0,0,0,0,2h3v3a1,1,0,1,0,2,0V22h3a1,1,0,0,0,0-2Z"/>
        <rect id="frame-38" data-name="frame" class="cls-1" y="0.01" width="48" height="48"/>
      </g>
      <g id="duplicate_default">
        <g id="duplicate-2" data-name="duplicate">
          <path class="cls-3" d="M24.21,35H19.57a1,1,0,0,0,0,2h4.64a1,1,0,0,0,0-2Z"/>
          <path class="cls-3" d="M36,27.84a1,1,0,0,0-1,1v4.63a1,1,0,0,0,2,0V28.84A1,1,0,0,0,36,27.84Z"/>
          <path class="cls-3" d="M33.47,35H28.84a1,1,0,1,0,0,2h4.63a1,1,0,0,0,0-2Z"/>
          <path class="cls-3" d="M36,18.57a1,1,0,0,0-1,1v4.64a1,1,0,0,0,2,0V19.57A1,1,0,0,0,36,18.57Z"/>
          <path class="cls-3" d="M19,32.51V31H29a2,2,0,0,0,2-2V19h1.5a1,1,0,0,0,0-2H31V13a2,2,0,0,0-2-2H13a2,2,0,0,0-2,2V29a2,2,0,0,0,2,2h4v1.5a1,1,0,0,0,2,0ZM13,13H29v5h0V29H13Z"/>
        </g>
        <rect id="frame-39" data-name="frame" class="cls-1" y="0.01" width="48" height="48"/>
      </g>
    </g>
    <g id="ic_deactivate">
      <g id="deactivate_highlight">
        <path class="cls-2" d="M24,9A15,15,0,1,0,39,24,15,15,0,0,0,24,9Zm0,2a13,13,0,0,1,8.47,3.15L14.16,32.43A13,13,0,0,1,24,11Zm0,26a13,13,0,0,1-8.43-3.13l18.31-18.3A13,13,0,0,1,24,37Z"/>
        <rect id="frame-40" data-name="frame" class="cls-1" y="0.01" width="48" height="48"/>
      </g>
      <g id="deactivate_default">
        <path class="cls-3" d="M24,9A15,15,0,1,0,39,24,15,15,0,0,0,24,9Zm0,2a13,13,0,0,1,8.47,3.15L14.16,32.43A13,13,0,0,1,24,11Zm0,26a13,13,0,0,1-8.43-3.13l18.31-18.3A13,13,0,0,1,24,37Z"/>
        <rect id="frame-41" data-name="frame" class="cls-1" y="0.01" width="48" height="48"/>
      </g>
    </g>
    <g id="ic_delete">
      <g id="delete_default">
        <path id="trash_path" class="cls-3" d="M32.17,15H16a2,2,0,0,0-2,2.17L15.4,37.12a2,2,0,0,0,2,1.89H30.77a2,2,0,0,0,2-1.89l1.39-19.94a2.06,2.06,0,0,0-.54-1.54A2,2,0,0,0,32.17,15Zm0,2-1.4,20L17.39,37,16,17H32.17Z"/>
        <path id="clap_path" class="cls-3" d="M15,12H33a1,1,0,0,0,0-2H15a1,1,0,0,0,0,2Z"/>
        <rect id="frame-42" data-name="frame" class="cls-1" y="0.01" width="48" height="48"/>
      </g>
      <g id="delete_highlight">
        <path id="trash_path-2" data-name="trash_path" class="cls-2" d="M32.17,15H16a2,2,0,0,0-2,2.17L15.4,37.12a2,2,0,0,0,2,1.89H30.77a2,2,0,0,0,2-1.89l1.39-19.94a2.06,2.06,0,0,0-.54-1.54A2,2,0,0,0,32.17,15Zm0,2-1.4,20L17.39,37,16,17H32.17Z"/>
        <path id="clap_path-2" data-name="clap_path" class="cls-2" d="M32.73,11.81,15,9a1,1,0,0,1-.83-1.14A1,1,0,0,1,15.27,7L33.05,9.83a1,1,0,1,1-.32,2Z"/>
        <rect id="frame-43" data-name="frame" class="cls-1" y="0.01" width="48" height="48"/>
      </g>
    </g>
    <g id="ic_lockCode">
      <g id="locked_highlight">
        <rect id="frame-44" data-name="frame" class="cls-1" y="0.01" width="48" height="48"/>
        <path id="pathLocked" class="cls-2" d="M34,17H30.9V15.2A7.09,7.09,0,0,0,24.21,8a6.9,6.9,0,0,0-7.11,6.9V17H14a2,2,0,0,0-2,2V35a2,2,0,0,0,2,2H34a2,2,0,0,0,2-2V19A2,2,0,0,0,34,17Zm-14.9-2.1a4.9,4.9,0,0,1,9.8,0V17H19.1ZM34,35H14V19H34Z"/>
      </g>
      <g id="locked_default">
        <rect id="frame-45" data-name="frame" class="cls-1" y="0.01" width="48" height="48"/>
        <path id="pathLocked-2" data-name="pathLocked" class="cls-3" d="M34,17H30.9V15.2A7.09,7.09,0,0,0,24.21,8a6.9,6.9,0,0,0-7.11,6.9V17H14a2,2,0,0,0-2,2V35a2,2,0,0,0,2,2H34a2,2,0,0,0,2-2V19A2,2,0,0,0,34,17Zm-14.9-2.1a4.9,4.9,0,0,1,9.8,0V17H19.1ZM34,35H14V19H34Z"/>
      </g>
    </g>
    <g id="ic_unlockCode">
      <g id="unlocked_highlight">
        <rect id="frame-46" data-name="frame" class="cls-1" y="0.01" width="48" height="48"/>
        <path class="cls-2" d="M34,17H30.9V15.2a7.12,7.12,0,0,0-6-7.14,7,7,0,0,0-7.68,5.81,1,1,0,0,0,2,.29,4.93,4.93,0,0,1,5.91-4,5,5,0,0,1,3.82,5V17H14a2,2,0,0,0-2,2V35a2,2,0,0,0,2,2H34a2,2,0,0,0,2-2V19A2,2,0,0,0,34,17Zm0,18H14V19H34Z"/>
      </g>
    </g>
    <g id="ic_undo">
      <g id="undo_highlight">
        <path id="undo_arrow" class="cls-2" d="M24,22H13.41l5.37-5.37a1,1,0,0,0,0-1.41,1,1,0,0,0-1.42,0L10.29,22.3a1,1,0,0,0,0,1.41l7.07,7.08a1,1,0,0,0,1.42-1.42L13.41,24H24c8,0,12,3,12,9a1,1,0,0,0,2,0C38,28,35.57,22,24,22Z"/>
        <rect id="frame-47" data-name="frame" class="cls-1" y="0.01" width="48" height="48"/>
      </g>
      <g id="undo_default">
        <path id="undo_arrow-2" data-name="undo_arrow" class="cls-3" d="M24,22H13.41l5.37-5.37a1,1,0,0,0,0-1.41,1,1,0,0,0-1.42,0L10.29,22.3a1,1,0,0,0,0,1.41l7.07,7.08a1,1,0,0,0,1.42-1.42L13.41,24H24c8,0,12,3,12,9a1,1,0,0,0,2,0C38,28,35.57,22,24,22Z"/>
        <rect id="frame-48" data-name="frame" class="cls-1" y="0.01" width="48" height="48"/>
      </g>
    </g>
    <g id="ic_redo">
      <g id="redo_highlight">
        <path id="arrow" class="cls-2" d="M24,22H34.59l-5.37-5.37a1,1,0,0,1,0-1.41,1,1,0,0,1,1.42,0l7.07,7.07a1,1,0,0,1,0,1.41l-7.07,7.08a1,1,0,0,1-1.42-1.42L34.59,24H24c-8,0-12,3-12,9a1,1,0,0,1-2,0C10,28,12.43,22,24,22Z"/>
        <rect id="frame-49" data-name="frame" class="cls-1" y="0.01" width="48" height="48"/>
      </g>
      <g id="redo_default">
        <path id="arrow-2" data-name="arrow" class="cls-3" d="M24,22H34.59l-5.37-5.37a1,1,0,0,1,0-1.41,1,1,0,0,1,1.42,0l7.07,7.07a1,1,0,0,1,0,1.41l-7.07,7.08a1,1,0,0,1-1.42-1.42L34.59,24H24c-8,0-12,3-12,9a1,1,0,0,1-2,0C10,28,12.43,22,24,22Z"/>
        <rect id="frame-50" data-name="frame" class="cls-1" y="0.01" width="48" height="48"/>
      </g>
    </g>
    <g id="Warning">
      <g>
        <path class="cls-18" d="M24,13.12,35.6,34H12.4L24,13.12m0-3.06a1,1,0,0,0-.87.51l-13.31,24A1,1,0,0,0,10.7,36H37.3a1,1,0,0,0,.88-1.49l-13.3-24a1,1,0,0,0-.88-.51Z"/>
        <circle class="cls-18" cx="24" cy="30.99" r="1"/>
        <rect class="cls-18" x="22.99" y="18.03" width="2" height="10" rx="1"/>
      </g>
    </g>
    <g id="Error">
      <g>
        <circle class="cls-19" cx="24" cy="30.44" r="1"/>
        <rect class="cls-19" x="22.99" y="17.48" width="2" height="10" rx="1"/>
        <path class="cls-19" d="M24,12A12,12,0,1,1,12,24,12,12,0,0,1,24,12m0-2A14,14,0,1,0,38,24,14,14,0,0,0,24,10Z"/>
      </g>
    </g>
    <g id="valid">
      <path id="ValidPath" class="cls-2" d="M19.93,32.07a1,1,0,0,1-.7-.3l-6-6a1,1,0,1,1,1.41-1.41l5.29,5.29L33.36,16.23a1,1,0,0,1,1.41,1.41L20.64,31.77A1,1,0,0,1,19.93,32.07Z"/>
      <rect id="frame-51" data-name="frame" class="cls-1" y="0.01" width="48" height="48"/>
    </g>
    <g id="Close">
      <g id="Close_highlight">
        <path class="cls-2" d="M25.42,24l7.07-7.07a1,1,0,1,0-1.42-1.42L24,22.58l-7.07-7.07a1,1,0,0,0-1.41,0,1,1,0,0,0,0,1.42L22.59,24l-7.07,7.07a1,1,0,0,0,1.41,1.41L24,25.41l7.07,7.07a1,1,0,0,0,1.42,0,1,1,0,0,0,0-1.41Z"/>
        <rect id="frame-52" data-name="frame" class="cls-1" y="0.01" width="48" height="48"/>
      </g>
      <g id="Close_default">
        <path class="cls-3" d="M25.42,24l7.07-7.07a1,1,0,1,0-1.42-1.42L24,22.58l-7.07-7.07a1,1,0,0,0-1.41,0,1,1,0,0,0,0,1.42L22.59,24l-7.07,7.07a1,1,0,0,0,1.41,1.41L24,25.41l7.07,7.07a1,1,0,0,0,1.42,0,1,1,0,0,0,0-1.41Z"/>
        <rect id="frame-53" data-name="frame" class="cls-1" y="0.01" width="48" height="48"/>
      </g>
    </g>
    <g id="ic_then">
      <path id="Arrow-3" data-name="Arrow" class="cls-3" d="M25.12,18.28a.68.68,0,0,0,0,.95l3.58,3.58H17a.67.67,0,0,0,0,1.34H28.7l-3.58,3.58a.68.68,0,0,0,0,.95.66.66,0,0,0,.94,0L30.79,24a.68.68,0,0,0,0-.94l-4.73-4.73A.66.66,0,0,0,25.12,18.28Z"/>
    </g>
    <g id="ScrollArrows">
      <g id="ScrollDown">
        <rect id="frame-54" data-name="frame" class="cls-1" y="16.51" width="48" height="15"/>
        <polyline class="cls-5" points="18 21.13 24 27.13 30 21.13"/>
      </g>
      <g id="ScrollUp">
        <rect id="frame-55" data-name="frame" class="cls-1" y="16.51" width="48" height="15"/>
        <polyline class="cls-5" points="30 27.13 24 21.13 18 27.13"/>
      </g>
    </g>
    <g id="CC-BY-NC-ND">
      <g>
        <g id="BY">
          <path id="path37" d="M30.27,43.32a.18.18,0,0,0-.18-.18H29a.18.18,0,0,0-.18.18v1.13h.32v1.34H30V44.45h.31V43.32Z"/>
          <circle id="circle39" cx="29.53" cy="42.61" r="0.39"/>
          <path id="path41" class="cls-20" d="M29.52,41.24a2.65,2.65,0,0,0-1.94.8,2.71,2.71,0,0,0-.82,2,2.78,2.78,0,0,0,2.76,2.76,2.7,2.7,0,0,0,2-.82A2.61,2.61,0,0,0,32.29,44a2.66,2.66,0,0,0-.8-2A2.7,2.7,0,0,0,29.52,41.24Zm0,.5a2.17,2.17,0,0,1,1.6.66A2.2,2.2,0,0,1,31.79,44a2.09,2.09,0,0,1-.65,1.58,2.25,2.25,0,0,1-3.21,0A2.17,2.17,0,0,1,27.26,44a2.22,2.22,0,0,1,.68-1.61A2.14,2.14,0,0,1,29.53,41.74Z"/>
        </g>
        <path id="NC" d="M36.47,41.24A2.75,2.75,0,0,1,39.24,44,2.65,2.65,0,0,1,38.45,46a2.73,2.73,0,0,1-2,.82A2.77,2.77,0,0,1,33.71,44a2.74,2.74,0,0,1,.81-2A2.66,2.66,0,0,1,36.47,41.24Zm-2.14,2a2.36,2.36,0,0,0-.12.75,2.17,2.17,0,0,0,.67,1.59,2.2,2.2,0,0,0,1.6.67,2.24,2.24,0,0,0,1.61-.68,2.43,2.43,0,0,0,.38-.48l-1-.47a.81.81,0,0,1-.76.62v.42h-.31v-.42a1.31,1.31,0,0,1-.84-.33l.38-.39a.79.79,0,0,0,.61.25c.17,0,.35-.06.35-.27a.2.2,0,0,0-.08-.17l-.26-.12-.33-.14-.44-.2Zm2.15-1.52a2.17,2.17,0,0,0-1.6.66,2.63,2.63,0,0,0-.3.38l1.05.47a.76.76,0,0,1,.72-.49v-.43h.31v.43a1.22,1.22,0,0,1,.7.25l-.37.37a.86.86,0,0,0-.47-.16c-.14,0-.33,0-.33.22a.19.19,0,0,0,0,.07l.36.15.24.11.44.2,1.42.63a2.27,2.27,0,0,0,.07-.59,2.27,2.27,0,0,0-2.26-2.27Z"/>
        <g id="ND">
          <path id="path1334" d="M43.35,41.24a2.8,2.8,0,1,0,.07,0Zm0,.48h.08a2.25,2.25,0,1,1-.08,0Z"/>
          <path id="rect1338" d="M42.45,43.35h2v.5h-2Zm0,.91h2v.5h-2Z"/>
        </g>
        <g id="CC">
          <path id="path2554" class="cls-20" d="M22.58,41.24a2.66,2.66,0,0,0-1.94.8,2.8,2.8,0,0,0-.82,2,2.78,2.78,0,0,0,2.76,2.77,2.81,2.81,0,0,0,2-.83A2.65,2.65,0,0,0,25.35,44a2.69,2.69,0,0,0-.8-2A2.73,2.73,0,0,0,22.58,41.24Zm0,.5A2.25,2.25,0,0,1,24.85,44a2.13,2.13,0,0,1-.65,1.58,2.25,2.25,0,0,1-3.21,0A2.25,2.25,0,0,1,20.32,44,2.3,2.3,0,0,1,21,42.4,2.21,2.21,0,0,1,22.59,41.74Z"/>
          <path id="path2556" class="cls-20" d="M22.55,43.55a.76.76,0,0,0-.73-.4A.8.8,0,0,0,21,44a.78.78,0,0,0,.82.86.84.84,0,0,0,.73-.44l-.34-.17a.35.35,0,0,1-.34.24c-.26,0-.37-.21-.37-.49s.09-.49.37-.49a.34.34,0,0,1,.3.22Z"/>
          <path id="path2558" class="cls-20" d="M24.15,43.55a.77.77,0,0,0-.73-.4.8.8,0,0,0-.81.86.78.78,0,0,0,.82.86.85.85,0,0,0,.73-.44l-.34-.17a.35.35,0,0,1-.35.24c-.25,0-.37-.21-.37-.49s.1-.49.37-.49a.34.34,0,0,1,.31.22Z"/>
        </g>
      </g>
    </g>
  </g>
</svg>
