<svg xmlns="http://www.w3.org/2000/svg" xmlns:xlink="http://www.w3.org/1999/xlink" width="48.03" height="48.01" viewBox="0 0 48.03 48.01">
  <defs>
    <style>
      .cls-1, .cls-16, .cls-18, .cls-26, .cls-4, .cls-42, .cls-55, .cls-56 {
        fill: #fff;
      }

      .cls-1 {
        stroke: #b388ff;
        stroke-width: 0.5px;
      }

      .cls-1, .cls-12, .cls-18, .cls-19, .cls-38, .cls-42, .cls-43, .cls-44, .cls-46, .cls-5, .cls-50, .cls-51, .cls-52, .cls-53 {
        stroke-miterlimit: 10;
      }

      .cls-12, .cls-13, .cls-14, .cls-17, .cls-2, .cls-24, .cls-25, .cls-31, .cls-34, .cls-38, .cls-43, .cls-44, .cls-45, .cls-46, .cls-48, .cls-49, .cls-5, .cls-50, .cls-51, .cls-52, .cls-53, .cls-54 {
        fill: none;
      }

      .cls-3 {
        fill: #90a4ae;
      }

      .cls-5 {
        stroke: #000;
        stroke-width: 0.02px;
      }

      .cls-28, .cls-6 {
        fill: #6200ea;
      }

      .cls-29, .cls-7 {
        fill: #455a64;
      }

      .cls-8 {
        fill: url(#linear-gradient);
      }

      .cls-9 {
        fill: url(#linear-gradient-2);
      }

      .cls-10 {
        fill: url(#linear-gradient-3);
      }

      .cls-11, .cls-15 {
        fill: #d9c3ff;
      }

      .cls-12, .cls-14, .cls-16, .cls-17, .cls-19, .cls-24, .cls-26, .cls-29, .cls-41, .cls-42, .cls-43, .cls-54, .cls-55, .cls-56 {
        stroke: #455a64;
      }

      .cls-12, .cls-13, .cls-14, .cls-15, .cls-18, .cls-19, .cls-24, .cls-25, .cls-26, .cls-27, .cls-28, .cls-29, .cls-31, .cls-32, .cls-33, .cls-34 {
        stroke-width: 2px;
      }

      .cls-13, .cls-15, .cls-18, .cls-27, .cls-28 {
        stroke: #6200ea;
      }

      .cls-13, .cls-14, .cls-24, .cls-25, .cls-27, .cls-28, .cls-33, .cls-34, .cls-38, .cls-41, .cls-43, .cls-44, .cls-54 {
        stroke-linecap: round;
      }

      .cls-13, .cls-14, .cls-15, .cls-16, .cls-17, .cls-24, .cls-25, .cls-26, .cls-27, .cls-31, .cls-32, .cls-33, .cls-34, .cls-35, .cls-36, .cls-41, .cls-45, .cls-48, .cls-49, .cls-54, .cls-55, .cls-56 {
        stroke-linejoin: round;
      }

      .cls-14 {
        opacity: 0.5;
        isolation: isolate;
      }

      .cls-16, .cls-17 {
        stroke-width: 1.98px;
      }

      .cls-19, .cls-22 {
        fill: #84edcf;
      }

      .cls-20 {
        fill: #ff5252;
      }

      .cls-21 {
        fill: #ffeb3b;
      }

      .cls-23, .cls-33 {
        fill: #b0bec5;
      }

      .cls-25, .cls-38, .cls-46, .cls-49, .cls-52, .cls-53 {
        stroke: #b0bec5;
      }

      .cls-27, .cls-41 {
        fill: #eceff1;
      }

      .cls-28, .cls-29 {
        stroke-linejoin: bevel;
      }

      .cls-30, .cls-32 {
        fill: #ff6040;
      }

      .cls-31, .cls-32, .cls-45, .cls-48, .cls-50, .cls-51 {
        stroke: #263238;
      }

      .cls-33, .cls-34 {
        stroke: #78909c;
      }

      .cls-35, .cls-37 {
        fill: #ffbfb2;
      }

      .cls-35, .cls-36 {
        stroke: #37474f;
      }

      .cls-35, .cls-36, .cls-38, .cls-41, .cls-42, .cls-43, .cls-44, .cls-54, .cls-55 {
        stroke-width: 1.5px;
      }

      .cls-36, .cls-39 {
        fill: #ffd0c7;
      }

      .cls-40 {
        fill: #37474f;
      }

      .cls-44 {
        stroke: #ff6040;
      }

      .cls-45, .cls-46, .cls-51, .cls-53 {
        stroke-linecap: square;
      }

      .cls-45, .cls-46 {
        stroke-width: 4px;
      }

      .cls-47 {
        fill: #6e17e6;
      }

      .cls-48, .cls-49 {
        stroke-width: 3px;
      }

      .cls-57 {
        fill: #ffc400;
      }

      .cls-58 {
        fill: #ff1744;
      }

      .cls-59 {
        fill-rule: evenodd;
      }
    </style>
    <linearGradient id="linear-gradient" x1="9.67" y1="36.49" x2="36.71" y2="36.32" gradientTransform="matrix(1, 0, 0, -1, 0, 50)" gradientUnits="userSpaceOnUse">
      <stop offset="0" stop-color="#ff6e40"/>
      <stop offset="0.25" stop-color="#fcccbe"/>
      <stop offset="0.75" stop-color="#a4c6ff"/>
      <stop offset="1" stop-color="#37f"/>
    </linearGradient>
    <linearGradient id="linear-gradient-2" x1="9.66" y1="35.14" x2="36.7" y2="34.98" xlink:href="#linear-gradient"/>
    <linearGradient id="linear-gradient-3" x1="9.67" y1="37.43" x2="36.71" y2="37.27" xlink:href="#linear-gradient"/>
  </defs>
  <g id="Layer_2" data-name="Layer 2">
    <g id="VPL_3.0_Icons" data-name="VPL 3.0 Icons">
      <g id="Pressed_bg" data-name="Pressed bg">
        <circle id="whiteCircle" class="cls-1" cx="24" cy="24" r="22"/>
        <rect id="frame" class="cls-2" width="48" height="48"/>
      </g>
      <g id="Circle_bg" data-name="Circle bg">
        <g id="Circle">
          <path class="cls-3" d="M24,3A21,21,0,1,1,3,24,21,21,0,0,1,24,3m0-1A22,22,0,1,0,46,24,22,22,0,0,0,24,2Z"/>
        </g>
        <rect id="frame-2" class="cls-2" y="0.01" width="48" height="48"/>
      </g>
      <g id="Selected_bg" data-name="Selected bg">
        <circle class="cls-4" cx="24" cy="24" r="22"/>
        <rect id="frame-3" class="cls-2" y="0.01" width="48" height="48"/>
      </g>
      <g id="Guides">
        <g>
          <line class="cls-5" x1="24" y1="6" x2="24" y2="42"/>
          <line class="cls-5" x1="42" y1="24" x2="6" y2="24"/>
          <line class="cls-5" x1="42" y1="18" x2="6" y2="18"/>
          <line class="cls-5" x1="42" y1="30" x2="6" y2="30"/>
          <line class="cls-5" x1="30" y1="42" x2="30" y2="6"/>
          <line class="cls-5" x1="18" y1="42" x2="18" y2="6"/>
          <line class="cls-5" x1="41.82" y1="6.19" x2="6.19" y2="41.81"/>
          <line class="cls-5" x1="6.19" y1="6.19" x2="41.82" y2="41.81"/>
          <path class="cls-5" d="M24,16.5A7.5,7.5,0,1,0,31.5,24,7.5,7.5,0,0,0,24,16.5Z"/>
          <path class="cls-5" d="M34.89,10H13.11A3.11,3.11,0,0,0,10,13.11V34.89A3.11,3.11,0,0,0,13.11,38H34.89A3.11,3.11,0,0,0,38,34.89h0V13.11A3.11,3.11,0,0,0,34.89,10Z"/>
          <path class="cls-5" d="M36,12H12a3,3,0,0,0-3,3V33a3,3,0,0,0,3,3H36a3,3,0,0,0,3-3V15A3,3,0,0,0,36,12Z"/>
          <path class="cls-5" d="M36,36V12a3,3,0,0,0-3-3H15a3,3,0,0,0-3,3V36a3,3,0,0,0,3,3H33A3,3,0,0,0,36,36Z"/>
          <path d="M42,6V42H6V6H42m0,0H6V42H42Z"/>
          <line class="cls-5" x1="42" y1="9" x2="6" y2="9"/>
          <line class="cls-5" x1="42" y1="39" x2="6" y2="39"/>
          <line class="cls-5" x1="9" y1="6.24" x2="9" y2="42"/>
          <line class="cls-5" x1="39.01" y1="6" x2="39.01" y2="41.77"/>
          <rect class="cls-2" x="6" y="6" width="36" height="36"/>
          <circle class="cls-5" cx="24" cy="24" r="15"/>
        </g>
      </g>
      <g id="ic_about" data-name="ic about">
        <g id="about_highlight" data-name="about highlight">
          <rect id="frame-4" class="cls-2" width="48" height="48"/>
          <rect id="frame-5" class="cls-2" y="0.01" width="48" height="48"/>
          <circle class="cls-6" cx="24" cy="20" r="1"/>
          <path class="cls-6" d="M24,32h0a1,1,0,0,1-1-1V24a1,1,0,0,1,1-1h0a1,1,0,0,1,1,1v7A1,1,0,0,1,24,32Z"/>
          <path class="cls-6" d="M34.5,15H15.84L10,9.17V21.79h0V32.5A3.5,3.5,0,0,0,13.5,36h21A3.49,3.49,0,0,0,38,32.52v-14A3.5,3.5,0,0,0,34.5,15ZM36,32.5A1.5,1.5,0,0,1,34.5,34h-21A1.5,1.5,0,0,1,12,32.5V21.72h0V14l3,3H34.5A1.5,1.5,0,0,1,36,18.5Z"/>
        </g>
        <g id="about_default" data-name="about default">
          <rect id="frame-6" class="cls-2" width="48" height="48"/>
          <circle class="cls-7" cx="24" cy="20" r="1"/>
          <path class="cls-7" d="M24,32h0a1,1,0,0,1-1-1V24a1,1,0,0,1,1-1h0a1,1,0,0,1,1,1v7A1,1,0,0,1,24,32Z"/>
          <rect id="frame-7" class="cls-2" width="48" height="48"/>
          <path class="cls-7" d="M34.5,15H15.84L10,9.17V21.79h0V32.5A3.5,3.5,0,0,0,13.5,36h21A3.49,3.49,0,0,0,38,32.52v-14A3.5,3.5,0,0,0,34.5,15ZM36,32.5A1.5,1.5,0,0,1,34.5,34h-21A1.5,1.5,0,0,1,12,32.5V21.72h0V14l3,3H34.5A1.5,1.5,0,0,1,36,18.5Z"/>
        </g>
      </g>
      <g id="ic_logo" data-name="ic logo">
        <g>
          <path class="cls-8" d="M11.57,16.57a.5.5,0,0,1-.16-.22L9.15,10.78v-.11a.27.27,0,0,1,.08-.19.24.24,0,0,1,.18-.07h1a.32.32,0,0,1,.33.23l1.58,4.18,1.58-4.18a.36.36,0,0,1,.11-.16.27.27,0,0,1,.21-.07h1a.24.24,0,0,1,.18.07.26.26,0,0,1,.07.19.21.21,0,0,1,0,.11l-2.24,5.57a.45.45,0,0,1-.43.3h-.92A.39.39,0,0,1,11.57,16.57Z"/>
          <path class="cls-9" d="M21.45,19.18a.27.27,0,0,1-.09-.21V11a.27.27,0,0,1,.09-.21.3.3,0,0,1,.2-.08h1a.31.31,0,0,1,.22.09A.22.22,0,0,1,23,11v.48a2.2,2.2,0,0,1,1.91-.89,2.34,2.34,0,0,1,1.86.76,3.28,3.28,0,0,1,.7,2v.86a3.3,3.3,0,0,1-.69,2,2.32,2.32,0,0,1-1.87.77A2.15,2.15,0,0,1,23,16.25V19a.27.27,0,0,1-.07.21.32.32,0,0,1-.21.08H21.65A.24.24,0,0,1,21.45,19.18Zm4.28-5a2.16,2.16,0,0,0,0-.36,2.16,2.16,0,0,0,0-.36c-.05-1.05-.51-1.58-1.37-1.58a1.2,1.2,0,0,0-1,.44A1.87,1.87,0,0,0,23,13.44v.93a1.65,1.65,0,0,0,.38,1,1.23,1.23,0,0,0,1,.42c.84,0,1.3-.51,1.35-1.57Z"/>
          <path class="cls-10" d="M35.1,16.9a.32.32,0,0,1-.08-.21V8.75a.27.27,0,0,1,.29-.29h1a.32.32,0,0,1,.21.08.27.27,0,0,1,.07.21v7.94a.31.31,0,0,1-.07.21.32.32,0,0,1-.21.08h-1A.32.32,0,0,1,35.1,16.9Z"/>
        </g>
        <path class="cls-6" d="M35.32,19.48h-24a2,2,0,0,0-2,2v9a2,2,0,0,0,2,2h2a6,6,0,0,0,1.54,1.72h.06a5.72,5.72,0,0,0,.57.39h.07a6.13,6.13,0,0,0,1.37.58h.19l.55.11h.21a5.46,5.46,0,0,0,1.51,0h.21l.54-.11h.2a6.05,6.05,0,0,0,1.36-.58h.07c.2-.12.39-.25.58-.39h.06A6.36,6.36,0,0,0,24,32.48H35.32a2,2,0,0,0,2-2v-9A2,2,0,0,0,35.32,19.48Zm-13.11,12-.16.23a4.16,4.16,0,0,1-.32.39l-.13.14a5.85,5.85,0,0,1-.54.45l-.13.08a3.51,3.51,0,0,1-.6.33h0a3.64,3.64,0,0,1-.71.22h-.15a3.94,3.94,0,0,1-.77.08,3.84,3.84,0,0,1-.76-.08h-.16a3.64,3.64,0,0,1-.71-.22H17a3.51,3.51,0,0,1-.6-.33l-.13-.08a5.85,5.85,0,0,1-.54-.45l-.12-.13a4,4,0,0,1-.32-.4c-.06-.07-.11-.15-.17-.23a4.22,4.22,0,1,1,7.12,0Zm13.11-1H24.75a6.22,6.22,0,1,0-12.2,0H11.32v-9h24Z"/>
      </g>
      <g id="ic_new" data-name="ic new">
        <g id="new2_highlight" data-name="new2 highlight">
          <rect id="frame-8" class="cls-2" width="48" height="48"/>
          <path class="cls-6" d="M34,10H22.88a2,2,0,0,0-1.42.59L20.05,12l-6,6-1.41,1.42a2,2,0,0,0-.54,1,1.41,1.41,0,0,0,0,.41V36a2,2,0,0,0,2,2H34a2,2,0,0,0,2-2V12A2,2,0,0,0,34,10ZM22,12.83V20H14.89ZM34,36H14V22h8a2,2,0,0,0,2-2V12H34Z"/>
          <polygon class="cls-11" points="14.89 20.02 22.05 20.02 22.05 12.85 14.89 20.02"/>
        </g>
        <g id="new2_default" data-name="new2 default">
          <rect id="frame-9" class="cls-2" width="48" height="48"/>
          <path class="cls-7" d="M34,10H22.88a2,2,0,0,0-1.42.59L20.05,12l-6,6-1.41,1.42a2,2,0,0,0-.54,1,1.41,1.41,0,0,0,0,.41V36a2,2,0,0,0,2,2H34a2,2,0,0,0,2-2V12A2,2,0,0,0,34,10ZM22,12.83V20H14.89ZM34,36H14V22h8a2,2,0,0,0,2-2V12H34Z"/>
        </g>
      </g>
      <g id="ic_download" data-name="ic download">
        <g id="download_highlight" data-name="download highlight">
          <path class="cls-6" d="M31.82,23.24a1,1,0,0,0-1.41,0L25.05,28.6V11a1,1,0,1,0-2,0V28.6l-5.36-5.36a1,1,0,0,0-1.41,0h0a1,1,0,0,0,0,1.41l7.07,7.07a1,1,0,0,0,1.42,0l7.06-7.07a1,1,0,0,0,0-1.41Z"/>
          <path class="cls-6" d="M15.05,34H33a1,1,0,0,1,1,1h0a1,1,0,0,1-1,1h-18a1,1,0,0,1-1-1h0A1,1,0,0,1,15.05,34Z"/>
          <rect id="frame-10" class="cls-2" width="48" height="48"/>
        </g>
        <g id="download_default" data-name="download default">
          <path class="cls-7" d="M31.82,23.24a1,1,0,0,0-1.41,0L25.05,28.6V11a1,1,0,1,0-2,0V28.6l-5.36-5.36a1,1,0,0,0-1.41,0h0a1,1,0,0,0,0,1.41l7.07,7.07a1,1,0,0,0,1.42,0l7.06-7.07a1,1,0,0,0,0-1.41Z"/>
          <path class="cls-7" d="M15.05,34H33a1,1,0,0,1,1,1h0a1,1,0,0,1-1,1h-18a1,1,0,0,1-1-1h0A1,1,0,0,1,15.05,34Z"/>
          <rect id="frame-11" class="cls-2" width="48" height="48"/>
        </g>
      </g>
      <g id="ic_download_html" data-name="ic download html">
        <g id="make_html_default" data-name="make html default">
          <rect id="frame-12" class="cls-2" width="48" height="48"/>
          <g>
            <path class="cls-7" d="M17.36,27.37a1,1,0,0,0,0,1.41l5.93,5.93a1,1,0,0,0,1.42,0l5.93-5.93a1,1,0,0,0-1.41-1.41L25,31.59V21a1,1,0,0,0-2,0V31.59l-4.22-4.22a1,1,0,0,0-1.41,0Z"/>
            <path class="cls-7" d="M30,37H18a1,1,0,0,0,0,2H30a1,1,0,0,0,0-2Z"/>
          </g>
          <path class="cls-7" d="M37,8H11a1,1,0,0,0-1,1v8a1,1,0,0,0,1,1H37a1,1,0,0,0,1-1V9A1,1,0,0,0,37,8ZM18,15.4a.2.2,0,0,1-.06.15.19.19,0,0,1-.15,0H16.68a.19.19,0,0,1-.15,0,.2.2,0,0,1-.06-.15v-2H14.54v2a.2.2,0,0,1-.06.15.19.19,0,0,1-.15,0H13.21a.19.19,0,0,1-.15,0A.2.2,0,0,1,13,15.4V10.21a.21.21,0,0,1,.21-.21h1.12a.21.21,0,0,1,.21.21h0v1.9h1.93v-1.9a.21.21,0,0,1,.21-.21h1.11a.21.21,0,0,1,.21.21Zm5.76-4.29a.2.2,0,0,1-.06.14.2.2,0,0,1-.15.06h-1.4V15.4a.2.2,0,0,1-.06.15.2.2,0,0,1-.15,0H20.83a.2.2,0,0,1-.15,0,.2.2,0,0,1-.06-.15V11.31H19.21a.2.2,0,0,1-.15-.06.2.2,0,0,1-.06-.14v-.9a.21.21,0,0,1,.21-.21h4.34a.21.21,0,0,1,.21.21Zm6.8,4.29a.2.2,0,0,1-.06.15.19.19,0,0,1-.15,0h-1a.22.22,0,0,1-.2-.2V12.49l-.87,1.59a.31.31,0,0,1-.28.18h-.43a.36.36,0,0,1-.28-.18l-.85-1.59V15.4a.2.2,0,0,1-.06.15.19.19,0,0,1-.15,0h-1a.2.2,0,0,1-.15,0A.19.19,0,0,1,25,15.4V10.21a.21.21,0,0,1,.21-.21h.9a.31.31,0,0,1,.29.18l1.38,2.46,1.38-2.46a.32.32,0,0,1,.29-.18h.9a.21.21,0,0,1,.21.21Zm4.57,0a.2.2,0,0,1-.06.15.19.19,0,0,1-.15,0H32.2a.2.2,0,0,1-.14-.06A.15.15,0,0,1,32,15.4V10.2a.21.21,0,0,1,.2-.2h1.12a.2.2,0,0,1,.15.06.24.24,0,0,1,.05.14v4.15h1.4a.21.21,0,0,1,.21.21Z"/>
        </g>
      </g>
      <g id="ic_open" data-name="ic open">
        <g id="open_highlight" data-name="open highlight">
          <path class="cls-6" d="M16.27,24.79a1,1,0,0,0,1.41,0l5.37-5.36V37a1,1,0,0,0,2,0V19.43l5.36,5.36a1,1,0,1,0,1.52-1.3l-.11-.11-7.07-7.07a1,1,0,0,0-1.41,0l-7.07,7.07A1,1,0,0,0,16.27,24.79Z"/>
          <path class="cls-6" d="M33,14h-18a1,1,0,0,1-1-1h0a1,1,0,0,1,1-1H33a1,1,0,0,1,1,1h0A1,1,0,0,1,33,14Z"/>
          <rect id="frame-13" class="cls-2" width="48" height="48"/>
        </g>
        <g id="open_default" data-name="open default">
          <path class="cls-7" d="M16.27,24.79a1,1,0,0,0,1.41,0l5.37-5.36V37a1,1,0,0,0,2,0V19.43l5.36,5.36a1,1,0,1,0,1.52-1.3l-.11-.11-7.07-7.07a1,1,0,0,0-1.41,0l-7.07,7.07A1,1,0,0,0,16.27,24.79Z"/>
          <path class="cls-7" d="M33,14h-18a1,1,0,0,1-1-1h0a1,1,0,0,1,1-1H33a1,1,0,0,1,1,1h0A1,1,0,0,1,33,14Z"/>
          <rect id="frame-14" class="cls-2" width="48" height="48"/>
        </g>
      </g>
      <g id="ic_uisettings" data-name="ic uisettings">
        <g id="uiSettings_highlight" data-name="uiSettings highlight">
          <rect id="frame-15" class="cls-2" width="48" height="48"/>
          <g>
            <path class="cls-6" d="M30.9,30H27.2a1.44,1.44,0,0,1-1.44-1.2L25.48,27a7.67,7.67,0,0,1-.79-.45l-1.79.7a1.48,1.48,0,0,1-1.81-.64l-1.84-3.09a1.47,1.47,0,0,1,.32-1.84l1.57-1.2v-.84l-1.52-1.16a1.45,1.45,0,0,1-.38-1.86l1.86-3.13a1.5,1.5,0,0,1,1.77-.63l1.82.71c.25-.15.51-.3.79-.44l.27-1.83A1.49,1.49,0,0,1,27.2,10h3.7a1.43,1.43,0,0,1,1.43,1.3l.27,1.76a7.67,7.67,0,0,1,.79.45l1.79-.7a1.48,1.48,0,0,1,1.81.64l1.83,3.09a1.44,1.44,0,0,1-.31,1.84L37,19.58v.85l1.53,1.16h0a1.46,1.46,0,0,1,.33,1.82L37,26.58a1.5,1.5,0,0,1-1.77.63l-1.84-.71a8.35,8.35,0,0,1-.77.43l-.27,1.84A1.48,1.48,0,0,1,30.9,30Zm-3.24-2h2.78l.28-1.89a1,1,0,0,1,.6-.78,5.56,5.56,0,0,0,1.32-.75,1,1,0,0,1,1-.14l1.89.73,1.36-2.29-1.58-1.19a1,1,0,0,1-.38-.92A6.68,6.68,0,0,0,35,20a4.09,4.09,0,0,0,0-.7,1,1,0,0,1,.37-1l1.56-1.19-1.36-2.3-1.87.74a1,1,0,0,1-1-.13,5.56,5.56,0,0,0-1.32-.75,1,1,0,0,1-.64-.79L30.42,12H27.66l-.28,1.9a1,1,0,0,1-.6.78,6.48,6.48,0,0,0-1.36.76,1,1,0,0,1-1,.13l-1.87-.74-1.36,2.3,1.56,1.19a1,1,0,0,1,.38.92,4.82,4.82,0,0,0,0,.76,4.69,4.69,0,0,0,0,.75,1,1,0,0,1-.38.92l-1.56,1.2,1.36,2.29,1.87-.73a1,1,0,0,1,1,.13,5.56,5.56,0,0,0,1.32.75,1,1,0,0,1,.64.79Zm2.69-16.46a0,0,0,0,0,0,.05ZM29.05,24a4,4,0,1,1,4-4A4,4,0,0,1,29.05,24Zm0-6a2,2,0,1,0,2,2A2,2,0,0,0,29.05,18Z"/>
            <path class="cls-6" d="M38,28a1,1,0,0,0-1,1v5.5a.53.53,0,0,1-.56.5H11.61a.52.52,0,0,1-.55-.49h0V18h6a1,1,0,1,0,0-2h-6V14.5a.53.53,0,0,1,.55-.5h5.44a1,1,0,0,0,0-2H11.61a2.52,2.52,0,0,0-2.55,2.49h0v20A2.52,2.52,0,0,0,11.6,37H36.48A2.54,2.54,0,0,0,39,34.5V29A1,1,0,0,0,38,28Z"/>
          </g>
        </g>
        <g id="uiSettings_default" data-name="uiSettings default">
          <rect id="frame-16" class="cls-2" width="48" height="48"/>
          <g>
            <path class="cls-7" d="M30.85,30H27.16a1.46,1.46,0,0,1-1.45-1.2L25.44,27a6.3,6.3,0,0,1-.8-.45l-1.79.7A1.47,1.47,0,0,1,21,26.56l-1.83-3.09a1.44,1.44,0,0,1,.31-1.84l1.57-1.2v-.84l-1.52-1.16a1.44,1.44,0,0,1-.37-1.86L21,13.44a1.5,1.5,0,0,1,1.77-.63l1.83.71c.24-.15.51-.3.78-.44l.28-1.83A1.48,1.48,0,0,1,27.16,10h3.69a1.45,1.45,0,0,1,1.44,1.3l.26,1.76a6.18,6.18,0,0,1,.79.45l1.79-.7a1.48,1.48,0,0,1,1.81.64l1.84,3.09a1.44,1.44,0,0,1-.32,1.84l-1.55,1.19v.85l1.52,1.16h0a1.46,1.46,0,0,1,.33,1.82L37,26.58a1.49,1.49,0,0,1-1.76.63L33.4,26.5a7.37,7.37,0,0,1-.78.43l-.27,1.84A1.5,1.5,0,0,1,30.85,30Zm-3.24-2h2.78l.28-1.89a1,1,0,0,1,.6-.78,5.82,5.82,0,0,0,1.33-.75,1,1,0,0,1,1-.14l1.89.73,1.36-2.29-1.57-1.19a1,1,0,0,1-.39-.92c0-.25,0-.51.06-.76a3.3,3.3,0,0,0-.05-.7,1,1,0,0,1,.37-1l1.57-1.19-1.37-2.3-1.86.74a1,1,0,0,1-1-.13,5.56,5.56,0,0,0-1.32-.75,1,1,0,0,1-.64-.79L30.37,12H27.61l-.28,1.9a1,1,0,0,1-.6.78,6.48,6.48,0,0,0-1.36.76,1,1,0,0,1-1,.13l-1.87-.74-1.36,2.3,1.56,1.19a1,1,0,0,1,.39.92A4.85,4.85,0,0,0,23,20a4.73,4.73,0,0,0,.05.75,1,1,0,0,1-.39.92l-1.56,1.2,1.36,2.29,1.87-.73a1,1,0,0,1,1,.13,5.62,5.62,0,0,0,1.33.75,1,1,0,0,1,.63.79ZM30.3,11.54v0ZM29,24a4,4,0,1,1,4-4A4,4,0,0,1,29,24Zm0-6a2,2,0,1,0,2,2A2,2,0,0,0,29,18Z"/>
            <path class="cls-7" d="M38,28a1,1,0,0,0-1,1v5.5a.53.53,0,0,1-.55.5H11.56a.53.53,0,0,1-.55-.5V18h6a1,1,0,1,0,0-2H11V14.5a.53.53,0,0,1,.55-.5H17a1,1,0,0,0,0-2H11.56A2.53,2.53,0,0,0,9,14.5H9v20A2.53,2.53,0,0,0,11.56,37H36.44A2.52,2.52,0,0,0,39,34.52V29A1,1,0,0,0,38,28Z"/>
          </g>
        </g>
      </g>
      <g id="ic_customize" data-name="ic customize">
        <g id="customize">
          <rect class="cls-2" width="48" height="48"/>
          <path class="cls-12" d="M37.74,27.7l-3.07-2.32A12.83,12.83,0,0,0,34.78,24a7.83,7.83,0,0,0-.11-1.37l3-2.32a.71.71,0,0,0,.17-.9L35,14.57a.75.75,0,0,0-.89-.31l-3.56,1.4a9.67,9.67,0,0,0-2.45-1.37l-.54-3.7a.69.69,0,0,0-.69-.59H21.13a.75.75,0,0,0-.72.59l-.54,3.7a10.84,10.84,0,0,0-2.44,1.37l-3.57-1.4a.75.75,0,0,0-.89.31L10.1,19.41a.68.68,0,0,0,.17.9l3.05,2.32a10.55,10.55,0,0,0,0,2.75L10.27,27.7a.72.72,0,0,0-.17.9L13,33.44a.75.75,0,0,0,.89.31l3.57-1.4a9.93,9.93,0,0,0,2.44,1.37l.54,3.7a.72.72,0,0,0,.72.58h5.75a.73.73,0,0,0,.72-.58l.54-3.7a10.7,10.7,0,0,0,2.42-1.37l3.59,1.4a.75.75,0,0,0,.89-.31l2.87-4.84A.71.71,0,0,0,37.74,27.7ZM24,29a5,5,0,1,1,5-5A5,5,0,0,1,24,29Z"/>
        </g>
      </g>
      <g id="ic_uiSettingsDone" data-name="ic uiSettingsDone">
        <g id="settingsDone_highlight" data-name="settingsDone highlight">
          <rect id="frame-17" class="cls-2" width="48" height="48"/>
          <g>
            <path class="cls-6" d="M32.68,38a1,1,0,0,1-.7-.29L27.3,33a1,1,0,0,1,1.41-1.42h0l3.92,4,7.62-8.7a1,1,0,0,1,1.56,1.25l-.06.07-8.32,9.5a1,1,0,0,1-.71.34Z"/>
            <path class="cls-6" d="M20.31,33H15.8a1.56,1.56,0,0,1-1.55-1.29l-.35-2.37a8.69,8.69,0,0,1-1.15-.65l-2.3.9a1.59,1.59,0,0,1-1.93-.69L6.27,25.13a1.57,1.57,0,0,1,.34-2l2-1.53V20.36L6.66,18.91a1.55,1.55,0,0,1-.4-2L8.53,13.1a1.61,1.61,0,0,1,1.89-.68l2.33.92a9.92,9.92,0,0,1,1.15-.64l.34-2.36A1.6,1.6,0,0,1,15.8,9h4.51a1.54,1.54,0,0,1,1.54,1.38l.34,2.29a8,8,0,0,1,1.14.65l2.3-.9a1.56,1.56,0,0,1,1.94.68l2.24,3.78a1.57,1.57,0,0,1-.34,2l-2,1.51V21c0,.21,0,.41,0,.62l2,1.48h0a1.56,1.56,0,0,1,.36,1.95l-2.27,3.83a1.61,1.61,0,0,1-1.89.67l-2.35-.91a8.34,8.34,0,0,1-1.13.63l-.35,2.36A1.58,1.58,0,0,1,20.31,33Zm-4.15-2h3.78l.37-2.51a1,1,0,0,1,.6-.77,7.07,7.07,0,0,0,1.67-.95,1,1,0,0,1,1-.14l2.48,1,1.87-3.14-2.09-1.58a1,1,0,0,1-.39-.92,7.45,7.45,0,0,0,.09-.95,4.4,4.4,0,0,0-.08-.89,1,1,0,0,1,.38-1l2.06-1.58L26,14.43l-2.46,1a1,1,0,0,1-1-.14,6.7,6.7,0,0,0-1.67-.94,1,1,0,0,1-.64-.79L19.92,11H16.16l-.37,2.51a1,1,0,0,1-.6.78,8.59,8.59,0,0,0-1.7,1,1,1,0,0,1-1,.14l-2.46-1L8.2,17.57l2.07,1.58a1,1,0,0,1,.38.92,7.55,7.55,0,0,0,0,1.9,1,1,0,0,1-.38.92L8.2,24.46l1.87,3.15,2.45-1a1,1,0,0,1,1,.13,6.7,6.7,0,0,0,1.67.94,1,1,0,0,1,.63.79Zm1.89-5.32A4.67,4.67,0,1,1,22.72,21a4.67,4.67,0,0,1-4.67,4.68Zm0-7.33A2.67,2.67,0,1,0,20.72,21v0A2.67,2.67,0,0,0,18.05,18.35Z"/>
          </g>
        </g>
        <g id="settingsDone_default" data-name="settingsDone default">
          <rect id="frame-18" class="cls-2" width="48" height="48"/>
          <g>
            <path class="cls-7" d="M32.68,38a1,1,0,0,1-.7-.29L27.3,33a1,1,0,0,1,1.41-1.42h0l3.92,4,7.62-8.7a1,1,0,0,1,1.56,1.25l-.06.07-8.32,9.5a1,1,0,0,1-.71.34Z"/>
            <path class="cls-7" d="M20.31,33H15.8a1.56,1.56,0,0,1-1.55-1.29l-.35-2.37a8.69,8.69,0,0,1-1.15-.65l-2.3.9a1.59,1.59,0,0,1-1.93-.69L6.27,25.13a1.57,1.57,0,0,1,.34-2l2-1.53V20.36L6.66,18.91a1.55,1.55,0,0,1-.4-2L8.53,13.1a1.61,1.61,0,0,1,1.89-.68l2.33.92a9.92,9.92,0,0,1,1.15-.64l.34-2.36A1.6,1.6,0,0,1,15.8,9h4.51a1.54,1.54,0,0,1,1.54,1.38l.34,2.29a8,8,0,0,1,1.14.65l2.3-.9a1.56,1.56,0,0,1,1.94.68l2.24,3.78a1.57,1.57,0,0,1-.34,2l-2,1.51V21c0,.21,0,.41,0,.62l2,1.48h0a1.56,1.56,0,0,1,.36,1.95l-2.27,3.83a1.61,1.61,0,0,1-1.89.67l-2.35-.91a8.34,8.34,0,0,1-1.13.63l-.35,2.36A1.58,1.58,0,0,1,20.31,33Zm-4.15-2h3.78l.37-2.51a1,1,0,0,1,.6-.77,7.07,7.07,0,0,0,1.67-.95,1,1,0,0,1,1-.14l2.48,1,1.87-3.14-2.09-1.58a1,1,0,0,1-.39-.92,7.45,7.45,0,0,0,.09-.95,4.4,4.4,0,0,0-.08-.89,1,1,0,0,1,.38-1l2.06-1.58L26,14.43l-2.46,1a1,1,0,0,1-1-.14,6.7,6.7,0,0,0-1.67-.94,1,1,0,0,1-.64-.79L19.92,11H16.16l-.37,2.51a1,1,0,0,1-.6.78,8.59,8.59,0,0,0-1.7,1,1,1,0,0,1-1,.14l-2.46-1L8.2,17.57l2.07,1.58a1,1,0,0,1,.38.92,7.55,7.55,0,0,0,0,1.9,1,1,0,0,1-.38.92L8.2,24.46l1.87,3.15,2.45-1a1,1,0,0,1,1,.13,6.7,6.7,0,0,0,1.67.94,1,1,0,0,1,.63.79Zm1.89-5.32A4.67,4.67,0,1,1,22.72,21a4.67,4.67,0,0,1-4.67,4.68Zm0-7.33A2.67,2.67,0,1,0,20.72,21v0A2.67,2.67,0,0,0,18.05,18.35Z"/>
          </g>
        </g>
      </g>
      <g id="ic_saveSettings" data-name="ic saveSettings">
        <g id="saveSettings_highlight" data-name="saveSettings highlight">
          <rect id="frame-19" class="cls-2" width="48" height="48"/>
          <g>
            <path class="cls-6" d="M20.31,33H15.8a1.56,1.56,0,0,1-1.55-1.29l-.35-2.37a8.69,8.69,0,0,1-1.15-.65l-2.3.9a1.59,1.59,0,0,1-1.93-.69L6.27,25.13a1.57,1.57,0,0,1,.34-2l2-1.53V20.36L6.66,18.91a1.55,1.55,0,0,1-.4-2L8.53,13.1a1.61,1.61,0,0,1,1.89-.68l2.33.92a9.92,9.92,0,0,1,1.15-.64l.34-2.36A1.6,1.6,0,0,1,15.8,9h4.51a1.54,1.54,0,0,1,1.54,1.38l.34,2.29a8,8,0,0,1,1.14.65l2.3-.9a1.56,1.56,0,0,1,1.94.68l2.24,3.78a1.57,1.57,0,0,1-.34,2l-2,1.51V21c0,.21,0,.41,0,.62l2,1.48h0a1.56,1.56,0,0,1,.36,1.95l-2.27,3.83a1.61,1.61,0,0,1-1.89.67l-2.35-.91a8.34,8.34,0,0,1-1.13.63l-.35,2.36A1.58,1.58,0,0,1,20.31,33Zm-4.15-2h3.78l.37-2.51a1,1,0,0,1,.6-.77,7.07,7.07,0,0,0,1.67-.95,1,1,0,0,1,1-.14l2.48,1,1.87-3.14-2.09-1.58a1,1,0,0,1-.39-.92,7.45,7.45,0,0,0,.09-.95,4.4,4.4,0,0,0-.08-.89,1,1,0,0,1,.38-1l2.06-1.58L26,14.43l-2.46,1a1,1,0,0,1-1-.14,6.7,6.7,0,0,0-1.67-.94,1,1,0,0,1-.64-.79L19.92,11H16.16l-.37,2.51a1,1,0,0,1-.6.78,8.59,8.59,0,0,0-1.7,1,1,1,0,0,1-1,.14l-2.46-1L8.2,17.57l2.07,1.58a1,1,0,0,1,.38.92,7.55,7.55,0,0,0,0,1.9,1,1,0,0,1-.38.92L8.2,24.46l1.87,3.15,2.45-1a1,1,0,0,1,1,.13,6.7,6.7,0,0,0,1.67.94,1,1,0,0,1,.63.79Zm1.89-5.32A4.67,4.67,0,1,1,22.72,21a4.67,4.67,0,0,1-4.67,4.68Zm0-7.33A2.67,2.67,0,1,0,20.72,21v0A2.67,2.67,0,0,0,18.05,18.35Z"/>
            <path class="cls-6" d="M41.74,31.37a1,1,0,0,0-1.41,0L36.11,35.6V22a1,1,0,0,0-2,0V35.59l-4.22-4.22a1,1,0,0,0-1.42,1.41h0l5.92,5.92a1,1,0,0,0,1.41,0h0l5.92-5.92a1,1,0,0,0,0-1.41Z"/>
          </g>
        </g>
        <g id="saveSettings_default" data-name="saveSettings default">
          <rect id="frame-20" class="cls-2" width="48" height="48"/>
          <g>
            <path class="cls-7" d="M20.31,33H15.8a1.56,1.56,0,0,1-1.55-1.29l-.35-2.37a8.69,8.69,0,0,1-1.15-.65l-2.3.9a1.59,1.59,0,0,1-1.93-.69L6.27,25.13a1.57,1.57,0,0,1,.34-2l2-1.53V20.36L6.66,18.91a1.55,1.55,0,0,1-.4-2L8.53,13.1a1.61,1.61,0,0,1,1.89-.68l2.33.92a9.92,9.92,0,0,1,1.15-.64l.34-2.36A1.6,1.6,0,0,1,15.8,9h4.51a1.54,1.54,0,0,1,1.54,1.38l.34,2.29a8,8,0,0,1,1.14.65l2.3-.9a1.56,1.56,0,0,1,1.94.68l2.24,3.78a1.57,1.57,0,0,1-.34,2l-2,1.51V21c0,.21,0,.41,0,.62l2,1.48h0a1.56,1.56,0,0,1,.36,1.95l-2.27,3.83a1.61,1.61,0,0,1-1.89.67l-2.35-.91a8.34,8.34,0,0,1-1.13.63l-.35,2.36A1.58,1.58,0,0,1,20.31,33Zm-4.15-2h3.78l.37-2.51a1,1,0,0,1,.6-.77,7.07,7.07,0,0,0,1.67-.95,1,1,0,0,1,1-.14l2.48,1,1.87-3.14-2.09-1.58a1,1,0,0,1-.39-.92,7.45,7.45,0,0,0,.09-.95,4.4,4.4,0,0,0-.08-.89,1,1,0,0,1,.38-1l2.06-1.58L26,14.43l-2.46,1a1,1,0,0,1-1-.14,6.7,6.7,0,0,0-1.67-.94,1,1,0,0,1-.64-.79L19.92,11H16.16l-.37,2.51a1,1,0,0,1-.6.78,8.59,8.59,0,0,0-1.7,1,1,1,0,0,1-1,.14l-2.46-1L8.2,17.57l2.07,1.58a1,1,0,0,1,.38.92,7.55,7.55,0,0,0,0,1.9,1,1,0,0,1-.38.92L8.2,24.46l1.87,3.15,2.45-1a1,1,0,0,1,1,.13,6.7,6.7,0,0,0,1.67.94,1,1,0,0,1,.63.79Zm1.89-5.32A4.67,4.67,0,1,1,22.72,21a4.67,4.67,0,0,1-4.67,4.68Zm0-7.33A2.67,2.67,0,1,0,20.72,21v0A2.67,2.67,0,0,0,18.05,18.35Z"/>
            <path class="cls-7" d="M41.74,31.37a1,1,0,0,0-1.41,0L36.11,35.6V22a1,1,0,0,0-2,0V35.59l-4.22-4.22a1,1,0,0,0-1.42,1.41h0l5.92,5.92a1,1,0,0,0,1.41,0h0l5.92-5.92a1,1,0,0,0,0-1.41Z"/>
          </g>
        </g>
      </g>
      <g id="ic_clearSettings" data-name="ic clearSettings">
        <g id="clearSettings_highlight" data-name="clearSettings highlight">
          <rect id="frame-21" class="cls-2" width="48" height="48"/>
          <g>
            <path class="cls-6" d="M20.26,33H15.74a1.56,1.56,0,0,1-1.55-1.29l-.35-2.37a9.86,9.86,0,0,1-1.14-.65l-2.3.9a1.6,1.6,0,0,1-1.94-.69L6.21,25.12a1.57,1.57,0,0,1,.34-2l2-1.53V20.35l-2-1.49a1.55,1.55,0,0,1-.4-2L8.42,13a1.63,1.63,0,0,1,1.9-.68l2.33.92a10.68,10.68,0,0,1,1.14-.64l.35-2.36A1.58,1.58,0,0,1,15.74,9h4.52a1.54,1.54,0,0,1,1.54,1.38l.34,2.29a8.69,8.69,0,0,1,1.15.65l2.29-.9a1.56,1.56,0,0,1,1.94.68l2.25,3.78a1.57,1.57,0,0,1-.35,2l-2,1.52v1.26l2,1.48h0a1.57,1.57,0,0,1,.35,2L27.55,29a1.59,1.59,0,0,1-1.89.67l-2.35-.91a8.34,8.34,0,0,1-1.13.63l-.35,2.37A1.58,1.58,0,0,1,20.26,33Zm-4.15-2h3.78l.37-2.51a1,1,0,0,1,.6-.77,7.73,7.73,0,0,0,1.68-.95,1,1,0,0,1,1-.14l2.49,1,1.86-3.15L25.8,22.91a1,1,0,0,1-.38-.93A7.45,7.45,0,0,0,25.5,21a4.4,4.4,0,0,0-.07-.89,1,1,0,0,1,.37-1l2.07-1.58L26,14.41l-2.45,1a1,1,0,0,1-1-.13,7.07,7.07,0,0,0-1.67-.95,1,1,0,0,1-.64-.78L19.87,11H16.11l-.37,2.51a1,1,0,0,1-.6.78,8.14,8.14,0,0,0-1.71,1,1,1,0,0,1-1,.13l-2.46-1L8.14,17.55l2.07,1.58a1,1,0,0,1,.39.92,7.55,7.55,0,0,0,0,1.9,1,1,0,0,1-.39.93L8.14,24.45,10,27.6l2.46-1a1,1,0,0,1,1,.13,6.7,6.7,0,0,0,1.67.94,1,1,0,0,1,.64.79Zm3.68-20.39v0ZM18,25.67A4.67,4.67,0,1,1,22.67,21h0A4.68,4.68,0,0,1,18,25.67Zm0-7.33A2.67,2.67,0,1,0,20.67,21h0A2.67,2.67,0,0,0,18,18.34Z"/>
            <path class="cls-6" d="M40.07,27.68a6.66,6.66,0,0,0-2.53-1.57l1.7-.92-.94-1.76-4.11,2.21A1,1,0,0,0,33.78,27h0L36,31.1l1.77-.94L36.54,27.9a4.61,4.61,0,0,1,3.33,5.6,4.69,4.69,0,0,1-1.22,2.14,4.63,4.63,0,0,1-6.55-6.55,1,1,0,1,0-1.3-1.52.57.57,0,0,0-.11.11,6.63,6.63,0,1,0,9.38,0Z"/>
          </g>
        </g>
        <g id="clearSettings_default" data-name="clearSettings default">
          <rect id="frame-22" class="cls-2" width="48" height="48"/>
          <g>
            <path class="cls-7" d="M20.26,33H15.74a1.56,1.56,0,0,1-1.55-1.29l-.35-2.37a9.86,9.86,0,0,1-1.14-.65l-2.3.9a1.6,1.6,0,0,1-1.94-.69L6.21,25.12a1.57,1.57,0,0,1,.34-2l2-1.53V20.35l-2-1.49a1.55,1.55,0,0,1-.4-2L8.42,13a1.63,1.63,0,0,1,1.9-.68l2.33.92a10.68,10.68,0,0,1,1.14-.64l.35-2.36A1.58,1.58,0,0,1,15.74,9h4.52a1.54,1.54,0,0,1,1.54,1.38l.34,2.29a8.69,8.69,0,0,1,1.15.65l2.29-.9a1.56,1.56,0,0,1,1.94.68l2.25,3.78a1.57,1.57,0,0,1-.35,2l-2,1.52v1.26l2,1.48h0a1.57,1.57,0,0,1,.35,2L27.55,29a1.59,1.59,0,0,1-1.89.67l-2.35-.91a8.34,8.34,0,0,1-1.13.63l-.35,2.37A1.58,1.58,0,0,1,20.26,33Zm-4.15-2h3.78l.37-2.51a1,1,0,0,1,.6-.77,7.73,7.73,0,0,0,1.68-.95,1,1,0,0,1,1-.14l2.49,1,1.86-3.15L25.8,22.91a1,1,0,0,1-.38-.93A7.45,7.45,0,0,0,25.5,21a4.4,4.4,0,0,0-.07-.89,1,1,0,0,1,.37-1l2.07-1.58L26,14.41l-2.45,1a1,1,0,0,1-1-.13,7.07,7.07,0,0,0-1.67-.95,1,1,0,0,1-.64-.78L19.87,11H16.11l-.37,2.51a1,1,0,0,1-.6.78,8.14,8.14,0,0,0-1.71,1,1,1,0,0,1-1,.13l-2.46-1L8.14,17.55l2.07,1.58a1,1,0,0,1,.39.92,7.55,7.55,0,0,0,0,1.9,1,1,0,0,1-.39.93L8.14,24.45,10,27.6l2.46-1a1,1,0,0,1,1,.13,6.7,6.7,0,0,0,1.67.94,1,1,0,0,1,.64.79Zm3.68-20.39v0ZM18,25.67A4.67,4.67,0,1,1,22.67,21h0A4.68,4.68,0,0,1,18,25.67Zm0-7.33A2.67,2.67,0,1,0,20.67,21h0A2.67,2.67,0,0,0,18,18.34Z"/>
            <path class="cls-7" d="M40.07,27.68a6.66,6.66,0,0,0-2.53-1.57l1.7-.92-.94-1.76-4.11,2.21A1,1,0,0,0,33.78,27h0L36,31.1l1.77-.94L36.54,27.9a4.61,4.61,0,0,1,3.33,5.6,4.69,4.69,0,0,1-1.22,2.14,4.63,4.63,0,0,1-6.55-6.55,1,1,0,1,0-1.3-1.52.57.57,0,0,0-.11.11,6.63,6.63,0,1,0,9.38,0Z"/>
          </g>
        </g>
      </g>
      <g id="ic_TextMode" data-name="ic TextMode">
        <g id="textMode_highlight" data-name="textMode highlight">
          <rect class="cls-11" x="11" y="17" width="26" height="17"/>
          <rect id="frame-23" class="cls-2" width="48" height="48"/>
          <path class="cls-6" d="M36,11H12a3,3,0,0,0-3,3V33a3,3,0,0,0,3,3H36a3,3,0,0,0,3-3V14A3,3,0,0,0,36,11ZM12,13H36a1,1,0,0,1,1,1v1H11V14A1,1,0,0,1,12,13ZM36,34H12a1,1,0,0,1-1-1V17H37V33A1,1,0,0,1,36,34Z"/>
          <path class="cls-6" d="M15.75,20h16.5a.76.76,0,0,1,.75.75h0a.76.76,0,0,1-.75.75H15.75a.76.76,0,0,1-.75-.75h0A.76.76,0,0,1,15.75,20Z"/>
          <path class="cls-6" d="M22.75,23.5h9.5a.76.76,0,0,1,.75.75h0a.76.76,0,0,1-.75.75h-9.5a.76.76,0,0,1-.75-.75h0A.76.76,0,0,1,22.75,23.5Z"/>
          <path class="cls-6" d="M22.75,27h9.5a.76.76,0,0,1,.75.75h0a.76.76,0,0,1-.75.75h-9.5a.76.76,0,0,1-.75-.75h0A.76.76,0,0,1,22.75,27Z"/>
          <path class="cls-6" d="M15.75,30.5H26a.76.76,0,0,1,.75.75h0A.76.76,0,0,1,26,32H15.75a.76.76,0,0,1-.75-.75h0A.76.76,0,0,1,15.75,30.5Z"/>
        </g>
        <g id="textMode_default" data-name="textMode default">
          <rect id="frame-24" class="cls-2" width="48" height="48"/>
          <path class="cls-7" d="M36,11H12a3,3,0,0,0-3,3V33a3,3,0,0,0,3,3H36a3,3,0,0,0,3-3V14A3,3,0,0,0,36,11ZM12,13H36a1,1,0,0,1,1,1v1H11V14A1,1,0,0,1,12,13ZM36,34H12a1,1,0,0,1-1-1V17H37V33A1,1,0,0,1,36,34Z"/>
          <path class="cls-7" d="M15.75,20h16.5a.76.76,0,0,1,.75.75h0a.76.76,0,0,1-.75.75H15.75a.76.76,0,0,1-.75-.75h0A.76.76,0,0,1,15.75,20Z"/>
          <path class="cls-7" d="M22.75,23.5h9.5a.76.76,0,0,1,.75.75h0a.76.76,0,0,1-.75.75h-9.5a.76.76,0,0,1-.75-.75h0A.76.76,0,0,1,22.75,23.5Z"/>
          <path class="cls-7" d="M22.75,27h9.5a.76.76,0,0,1,.75.75h0a.76.76,0,0,1-.75.75h-9.5a.76.76,0,0,1-.75-.75h0A.76.76,0,0,1,22.75,27Z"/>
          <path class="cls-7" d="M15.75,30.5H26a.76.76,0,0,1,.75.75h0A.76.76,0,0,1,26,32H15.75a.76.76,0,0,1-.75-.75h0A.76.76,0,0,1,15.75,30.5Z"/>
        </g>
      </g>
      <g id="ic_vplMode" data-name="ic vplMode">
        <g id="vpl_highlight" data-name="vpl highlight">
          <rect id="frame-25" class="cls-2" width="48" height="48"/>
          <path class="cls-6" d="M36,11H12a3,3,0,0,0-3,3V33a3,3,0,0,0,3,3H36a3,3,0,0,0,3-3V14A3,3,0,0,0,36,11ZM12,13H36a1,1,0,0,1,1,1v1H11V14A1,1,0,0,1,12,13ZM36,34H12a1,1,0,0,1-1-1V17H37V33A1,1,0,0,1,36,34Z"/>
          <rect class="cls-6" x="15.97" y="18.99" width="16" height="5"/>
          <rect class="cls-6" x="15.97" y="26.99" width="16" height="5"/>
          <rect id="frame-26" class="cls-2" x="0.01" width="47.97" height="47.97"/>
        </g>
        <g id="vpl_default" data-name="vpl default">
          <g id="textMode_default-2" data-name="textMode default-2">
            <rect id="frame-27" class="cls-2" width="48" height="48"/>
            <path class="cls-7" d="M36,11H12a3,3,0,0,0-3,3V33a3,3,0,0,0,3,3H36a3,3,0,0,0,3-3V14A3,3,0,0,0,36,11ZM12,13H36a1,1,0,0,1,1,1v1H11V14A1,1,0,0,1,12,13ZM36,34H12a1,1,0,0,1-1-1V17H37V33A1,1,0,0,1,36,34Z"/>
          </g>
          <rect class="cls-7" x="15.97" y="18.99" width="16" height="5"/>
          <rect class="cls-7" x="15.97" y="26.99" width="16" height="5"/>
          <rect id="frame-28" class="cls-2" width="48" height="48"/>
        </g>
      </g>
      <g id="ic_basicMode" data-name="ic basicMode">
        <g id="basicMode_default" data-name="basicMode default">
          <polyline class="cls-13" points="38.04 26.41 24.05 34.81 10.05 26.41"/>
          <rect id="frame-29" class="cls-2" width="48" height="48"/>
          <polygon class="cls-14" points="10.05 20.42 24.05 12.02 38.04 20.42 24.05 28.81 10.05 20.42"/>
        </g>
      </g>
      <g id="ic_mediumMode" data-name="ic mediumMode">
        <g id="mediumMode_default" data-name="mediumMode default">
          <polyline class="cls-13" points="10.05 26.41 24.05 34.81 38.04 26.41"/>
          <rect id="frame-30" class="cls-2" width="48" height="48"/>
          <polygon class="cls-15" points="24.05 28.81 10.05 20.42 24.05 12.02 38.04 20.42 24.05 28.81"/>
        </g>
      </g>
      <g id="ic_submit3" data-name="ic submit3">
        <g id="submit3_default" data-name="submit3 default">
          <path class="cls-16" d="M18.35,12.15a8.42,8.42,0,0,1,5.2-7.47A8.1,8.1,0,0,1,33.63,7.75,9.1,9.1,0,0,1,32,19.65,8.2,8.2,0,0,1,19.53,17.3,9.84,9.84,0,0,1,18.35,12.15Z"/>
          <path class="cls-16" d="M44.55,41.14s-34.51.35-34.5-.08c.27-9.61,1.86-12.08,4-13.91a14.08,14.08,0,0,1,6-3.63c.54-.17,1.09-.3,1.64-.47a.6.6,0,0,1,.63.13l4.46,3.53a1.88,1.88,0,0,0,.23-.16c1.4-1.1,2.81-2.2,4.2-3.32a.81.81,0,0,1,.79-.17,13,13,0,0,1,7.28,4.27C44.31,32.9,44.55,41.14,44.55,41.14Z"/>
          <polygon class="cls-16" points="2.77 29.5 14.12 19.29 28.56 35.1 17.21 45.31 2.77 29.5"/>
          <line class="cls-17" x1="36.27" y1="34.57" x2="43.74" y2="14.35"/>
        </g>
      </g>
      <g id="ic_submit2" data-name="ic submit2">
        <g id="submit2_default" data-name="submit2 default">
          <rect class="cls-16" x="7.97" y="6.02" width="13.66" height="19.07" transform="translate(9.52 36.36) rotate(-122.19)"/>
          <path class="cls-16" d="M45.64,41.77H25.27c0-1.63,0-3.23,0-4.82a1.43,1.43,0,0,0-.69-1.33A28.5,28.5,0,0,1,14.51,21.25,8.12,8.12,0,0,1,14.09,19a2.2,2.2,0,0,1,1.75-2.42A2.58,2.58,0,0,1,18.91,18a57.36,57.36,0,0,0,4,6.43,14.61,14.61,0,0,0,9.47,5.86c2,.3,4,.4,6,.65a14.67,14.67,0,0,1,2.46.58c2.94.9,4.12,3.17,4.46,6C45.53,38.89,45.55,40.3,45.64,41.77Z"/>
          <path class="cls-16" d="M28.73,21.56a6.14,6.14,0,0,1,6.1-6.2,6.29,6.29,0,0,1,6.42,6.33,6.41,6.41,0,0,1-6.31,6.21A6.28,6.28,0,0,1,28.73,21.56Z"/>
        </g>
      </g>
      <g id="ic_submit2b" data-name="ic submit2b">
        <g id="submit2b_default" data-name="submit2b default">
          <rect class="cls-16" x="7.97" y="6.02" width="13.66" height="19.07" transform="translate(9.52 36.36) rotate(-122.19)"/>
          <path class="cls-16" d="M45.64,41.77H25.27c0-1.63,0-3.23,0-4.82a1.43,1.43,0,0,0-.69-1.33A28.5,28.5,0,0,1,14.51,21.25,8.12,8.12,0,0,1,14.09,19a2.2,2.2,0,0,1,1.75-2.42A2.58,2.58,0,0,1,18.91,18a57.36,57.36,0,0,0,4,6.43,14.61,14.61,0,0,0,9.47,5.86c2,.3,4,.4,6,.65a14.67,14.67,0,0,1,2.46.58c2.94.9,4.12,3.17,4.46,6C45.53,38.89,45.55,40.3,45.64,41.77Z"/>
          <path class="cls-16" d="M28.73,21.56a6.14,6.14,0,0,1,6.1-6.2,6.29,6.29,0,0,1,6.42,6.33,6.41,6.41,0,0,1-6.31,6.21A6.28,6.28,0,0,1,28.73,21.56Z"/>
          <rect class="cls-16" x="6.73" y="37.84" width="14.88" height="3.86"/>
        </g>
      </g>
      <g id="ic_submit" data-name="ic submit">
        <path class="cls-7" d="M14,32a1,1,0,0,1-.7-.29,1,1,0,0,1,0-1.41l4-4a1,1,0,0,1,1.41,1.41l-4,4A1,1,0,0,1,14,32Z"/>
        <path class="cls-7" d="M14,38a1,1,0,0,1-.7-.29,1,1,0,0,1,0-1.41l7-7a1,1,0,0,1,1.41,1.41l-7,7A1,1,0,0,1,14,38Z"/>
        <path class="cls-7" d="M37.71,10.3a1,1,0,0,0-1-.25l-26,8a1,1,0,0,0-.66,1.25,1,1,0,0,0,.51.6l11.7,5.85,5.85,11.7A1,1,0,0,0,29,38h.08a1,1,0,0,0,.88-.7l8-26A1,1,0,0,0,37.71,10.3Zm-24,8.92,19.77-6.08L22.81,23.79Zm15.1,15.1L24.22,25.2,34.86,14.56Z"/>
        <rect class="cls-2" width="48" height="48"/>
      </g>
      <g id="ic_Help" data-name="ic Help">
        <g id="help_highlight" data-name="help highlight">
          <g id="help">
            <path class="cls-6" d="M25.21,15.21a5,5,0,0,0-4.28.95A4.93,4.93,0,0,0,19.05,20a1,1,0,0,0,2,0,2.93,2.93,0,0,1,1.13-2.31,3,3,0,1,1,2.88,5.17,3.15,3.15,0,0,0-2,3V28a1,1,0,0,0,2,0V25.86a1.12,1.12,0,0,1,.68-1.08,5,5,0,0,0,3.18-5.87A5,5,0,0,0,25.21,15.21Z"/>
            <path class="cls-6" d="M24.05,11a13,13,0,1,1-13,13,13,13,0,0,1,13-13m0-2A15,15,0,1,0,39,24.05V24A15,15,0,0,0,24,9Z"/>
            <rect class="cls-6" x="23.05" y="31.03" width="2" height="2" rx="0.4"/>
          </g>
          <rect id="frame-31" class="cls-2" width="48" height="48"/>
        </g>
        <g id="help_default" data-name="help default">
          <g id="help-2">
            <path class="cls-7" d="M25.21,15.21a5,5,0,0,0-4.28.95A4.93,4.93,0,0,0,19.05,20a1,1,0,0,0,2,0,2.93,2.93,0,0,1,1.13-2.31,3,3,0,1,1,2.88,5.17,3.15,3.15,0,0,0-2,3V28a1,1,0,0,0,2,0V25.86a1.12,1.12,0,0,1,.68-1.08,5,5,0,0,0,3.18-5.87A5,5,0,0,0,25.21,15.21Z"/>
            <path class="cls-7" d="M24.05,11a13,13,0,1,1-13,13,13,13,0,0,1,13-13m0-2A15,15,0,1,0,39,24.05V24A15,15,0,0,0,24,9Z"/>
            <rect class="cls-7" x="23.05" y="31.03" width="2" height="2" rx="0.4"/>
          </g>
          <rect id="frame-32" class="cls-2" width="48" height="48"/>
        </g>
      </g>
      <g id="ic_Statement" data-name="ic Help">
        <g id="statement_default" data-name="statement default">
          <g id="statement-2">
            <rect class="cls-12" x="13" y="11" width="22" height="26" rx="2" ry="2"/>
            <circle class="cls-7" cx="17" cy="28" r="1.5"/>
            <circle class="cls-7" cx="17" cy="20" r="1.5"/>
            <line class="cls-24" x1="21" y1="16" x2="31" y2="16"/>
          </g>
          <rect id="frame-32-statement" class="cls-2" width="48" height="48"/>
        </g>
      </g>
      <g id="ic_NextProgram" data-name="ic Help">
        <g id="nextprogram_default" data-name="statement default">
          <g id="statement-2">
            <rect class="cls-12" x="13" y="11" width="22" height="26" rx="2" ry="2"/>
            <circle class="cls-7" cx="17" cy="28" r="1.5"/>
            <circle class="cls-7" cx="17" cy="20" r="1.5"/>
            <line class="cls-24" x1="21" y1="16" x2="31" y2="16"/>
            <polyline class="cls-13" points="38 5 43 10 38 15"/>
          </g>
          <rect id="frame-32-statement" class="cls-2" width="48" height="48"/>
        </g>
      </g>
      <g id="ic_play" data-name="ic play">
        <g id="play_highlight" data-name="play highlight">
          <circle class="cls-18" cx="24.05" cy="24.02" r="20.49"/>
          <path class="cls-6" d="M19.05,34a2,2,0,0,1-2-2V16a2,2,0,0,1,2-2,2,2,0,0,1,1.05.3l13,8a2,2,0,0,1-.05,3.4l-13,8A2,2,0,0,1,19.05,34Zm0-18V32h0l13-8Z"/>
          <rect id="frame-33" class="cls-2" width="48" height="48"/>
        </g>
        <g id="play_default" data-name="play default">
          <circle class="cls-19" cx="24.05" cy="24.02" r="20.49"/>
          <path class="cls-7" d="M19.05,34a2,2,0,0,1-2-2V16a2,2,0,0,1,2-2,2,2,0,0,1,1.05.3l13,8a2,2,0,0,1-.05,3.4l-13,8A2,2,0,0,1,19.05,34Zm0-18V32h0l13-8Z"/>
          <rect id="frame-34" class="cls-2" width="48" height="48"/>
          <polygon class="cls-4" points="32 24.01 19.1 16.07 19.1 31.94 32 24.01"/>
        </g>
      </g>
      <g id="ic_Stop" data-name="ic Stop">
        <g id="stop_highlight" data-name="stop highlight">
          <rect id="frame-35" class="cls-2" width="48" height="48"/>
          <g>
            <rect class="cls-20" x="16.05" y="16.02" width="15.99" height="15.99"/>
            <path class="cls-6" d="M31.69,34H16.4a2.35,2.35,0,0,1-2.35-2.35h0V16.37A2.36,2.36,0,0,1,16.4,14H31.69A2.36,2.36,0,0,1,34,16.37V31.66A2.35,2.35,0,0,1,31.69,34ZM16.05,16h0V32H32V16Z"/>
          </g>
        </g>
        <g id="stop_default" data-name="stop default">
          <rect id="frame-36" class="cls-2" width="48" height="48"/>
          <g>
            <rect class="cls-20" x="16.05" y="16.02" width="15.99" height="15.99"/>
            <path class="cls-7" d="M31.69,34H16.4a2.35,2.35,0,0,1-2.35-2.35h0V16.37A2.36,2.36,0,0,1,16.4,14H31.69A2.36,2.36,0,0,1,34,16.37V31.66A2.35,2.35,0,0,1,31.69,34ZM16.05,16h0V32H32V16Z"/>
          </g>
        </g>
      </g>
      <g id="ic_reloadProgram" data-name="ic reloadProgram">
        <g id="reload_highlight" data-name="reload highlight">
          <path class="cls-6" d="M19.05,34a2,2,0,0,1-2-2V16a2,2,0,0,1,2-2,2,2,0,0,1,1.05.3l13,8a2,2,0,0,1,0,3.41l-13,8A2.05,2.05,0,0,1,19.05,34Zm0-18V32h0l13-8Z"/>
          <rect id="frame-37" class="cls-2" width="48" height="48"/>
          <polygon class="cls-21" points="32.04 24.02 19.05 16.02 19.05 32.01 32.04 24.02"/>
          <path class="cls-6" d="M35.66,17a1,1,0,0,0,1,1h8a1,1,0,0,0,1-1V9a1,1,0,0,0-2,0v5.85a21.47,21.47,0,1,0,2,9,1,1,0,1,0-2,0A19.49,19.49,0,1,1,42,16H36.66A1,1,0,0,0,35.66,17Z"/>
        </g>
        <g id="reload_default" data-name="reload default">
          <path class="cls-7" d="M19.05,34a2,2,0,0,1-2-2V16a2,2,0,0,1,2-2,2,2,0,0,1,1.05.3l13,8a2,2,0,0,1,0,3.41l-13,8A2.05,2.05,0,0,1,19.05,34Zm0-18V32h0l13-8Z"/>
          <rect id="frame-38" class="cls-2" width="48" height="48"/>
          <polygon class="cls-22" points="32.04 24.02 19.05 16.02 19.05 32.01 32.04 24.02"/>
          <path class="cls-7" d="M35.66,17a1,1,0,0,0,1,1h8a1,1,0,0,0,1-1V9a1,1,0,0,0-2,0v5.85a21.47,21.47,0,1,0,2,9,1,1,0,1,0-2,0A19.49,19.49,0,1,1,42,16H36.66A1,1,0,0,0,35.66,17Z"/>
        </g>
      </g>
      <g id="ic_pause" data-name="ic pause">
        <g id="pause_highlight" data-name="pause highlight">
          <rect id="frame-39" class="cls-2" width="48" height="48"/>
          <path class="cls-7" d="M24,41A17,17,0,1,1,41,24,17,17,0,0,1,24,41ZM24,9A15,15,0,1,0,39,24,15,15,0,0,0,24,9Z"/>
          <g>
            <rect class="cls-7" x="18.05" y="16" width="2.95" height="16" rx="1"/>
            <path class="cls-7" d="M26,19.08l6,4.84-6,4.83V19.08M25,16a1,1,0,0,0-1,1V30.83a1,1,0,0,0,1.58.82l7.66-6.21a1.93,1.93,0,0,0,.29-2.71,2,2,0,0,0-.29-.29L25.6,16.18A1,1,0,0,0,25,16Z"/>
          </g>
        </g>
        <g id="pause_default" data-name="pause default">
          <rect id="frame-40" class="cls-2" width="48" height="48"/>
          <g id="pause">
            <circle class="cls-12" cx="24" cy="24" r="16"/>
            <rect class="cls-7" x="26" y="16" width="3" height="16" rx="1"/>
            <rect class="cls-7" x="19" y="16" width="3" height="16" rx="1"/>
          </g>
        </g>
      </g>
      <g id="ic_fastFwd" data-name="ic fastFwd">
        <g id="_5speed_default" data-name=" 5speed default">
          <path class="cls-6" d="M24.08,37.93a.25.25,0,0,1-.08-.18.37.37,0,0,1,.07-.2l2-2.63-1.82-2.47a.32.32,0,0,1-.07-.19.28.28,0,0,1,.26-.26h1a.22.22,0,0,1,.19.06.93.93,0,0,1,.14.14L27,33.92l1.28-1.72.08-.1a.28.28,0,0,1,.24-.1h1a.21.21,0,0,1,.17.08.22.22,0,0,1,.07.17.31.31,0,0,1-.07.2L28,34.93l2,2.62a.31.31,0,0,1,.07.2.24.24,0,0,1-.23.25H28.69a.35.35,0,0,1-.31-.18L27,36l-1.4,1.82a.35.35,0,0,1-.31.18h-1A.23.23,0,0,1,24.08,37.93Z"/>
          <path class="cls-6" d="M17,37.67a2.65,2.65,0,0,1-1.1-.89,2.19,2.19,0,0,1-.39-1.19h0a.17.17,0,0,1,.08-.16.22.22,0,0,1,.17-.07H16.9a.33.33,0,0,1,.35.24,1.43,1.43,0,0,0,.56.78,1.62,1.62,0,0,0,.91.25,1.52,1.52,0,0,0,1.11-.41,1.39,1.39,0,0,0,.44-1.12,1.28,1.28,0,0,0-.44-1,1.56,1.56,0,0,0-1.11-.41,1.65,1.65,0,0,0-.58.1,2,2,0,0,0-.45.26l-.11.08-.15.08H16.16a.26.26,0,0,1-.19-.07.27.27,0,0,1-.08-.19l.41-4.09a.33.33,0,0,1,.12-.25.36.36,0,0,1,.24-.09h4.51a.32.32,0,0,1,.21.08.24.24,0,0,1,.08.21v.82a.28.28,0,0,1-.08.2.24.24,0,0,1-.21.08H17.71l-.2,2a2.66,2.66,0,0,1,.64-.3,3.31,3.31,0,0,1,.94-.11,3.27,3.27,0,0,1,1.44.33,2.71,2.71,0,0,1,1.07,1,2.58,2.58,0,0,1,.4,1.43,2.62,2.62,0,0,1-1.56,2.53,3.81,3.81,0,0,1-1.73.35A4.09,4.09,0,0,1,17,37.67Z"/>
          <rect class="cls-2" width="48" height="48"/>
          <path id="SpeedUp_" data-name="SpeedUp " class="cls-7" d="M15,26a.94.94,0,0,0,.56-.18L21,22v3a1,1,0,0,0,1,1,.94.94,0,0,0,.56-.18l10-7a1,1,0,0,0,.28-1.39.93.93,0,0,0-.28-.28l-10-7A1,1,0,0,0,21,11v3l-5.43-3.8A1,1,0,0,0,15,10a1,1,0,0,0-1,1V25A1,1,0,0,0,15,26Zm8-13,7.24,5L23,23.06Zm-7,7.34V13l5,3.49v3.13l-5,3.49Z"/>
        </g>
        <g id="_2speed_default" data-name=" 2speed default">
          <path class="cls-6" d="M15.93,37.91a.32.32,0,0,1-.08-.21v-.62a.68.68,0,0,1,.3-.56L18,34.66c.57-.45,1-.82,1.31-1.1a4.35,4.35,0,0,0,.69-.79,1.34,1.34,0,0,0,0-1.59,1.14,1.14,0,0,0-.91-.33,1.23,1.23,0,0,0-.94.36,1.58,1.58,0,0,0-.43.91.28.28,0,0,1-.14.21.34.34,0,0,1-.22.07H16.23a.24.24,0,0,1-.25-.23v0a2.71,2.71,0,0,1,.39-1.33,2.66,2.66,0,0,1,1.05-1A3.23,3.23,0,0,1,19,29.45a3.66,3.66,0,0,1,1.63.33,2.41,2.41,0,0,1,1,.9,2.57,2.57,0,0,1-.08,2.78,6.64,6.64,0,0,1-1.4,1.4l-1.66,1.69h3.39a.28.28,0,0,1,.3.26v.9a.28.28,0,0,1-.27.29H16.14A.33.33,0,0,1,15.93,37.91Z"/>
          <path class="cls-6" d="M24.08,37.92a.25.25,0,0,1-.08-.18.37.37,0,0,1,.07-.2l2-2.62-1.82-2.47a.32.32,0,0,1-.07-.19.28.28,0,0,1,.26-.26h1a.31.31,0,0,1,.19.06.86.86,0,0,1,.13.14L27,33.92l1.28-1.72.09-.1a.25.25,0,0,1,.23-.1h1a.21.21,0,0,1,.17.08.22.22,0,0,1,.07.17.31.31,0,0,1-.07.2l-1.84,2.48,2,2.61a.31.31,0,0,1,.07.2.24.24,0,0,1-.23.25H28.68a.37.37,0,0,1-.31-.18L27,36l-1.4,1.82a.37.37,0,0,1-.31.18h-1A.24.24,0,0,1,24.08,37.92Z"/>
          <rect class="cls-2" width="48" height="48"/>
          <path id="SpeedUp_2" data-name="SpeedUp 2" class="cls-7" d="M15,26a.94.94,0,0,0,.56-.18L21,22v3a1,1,0,0,0,1,1,.94.94,0,0,0,.56-.18l10-7a1,1,0,0,0,.28-1.39.93.93,0,0,0-.28-.28l-10-7A1,1,0,0,0,21,11v3l-5.43-3.8A1,1,0,0,0,15,10a1,1,0,0,0-1,1V25A1,1,0,0,0,15,26Zm8-13,7.24,5L23,23.06Zm-7,7.34V13l5,3.49v3.13l-5,3.49Z"/>
        </g>
        <g id="_0_5speed_default" data-name=" 0 5speed default">
          <path class="cls-6" d="M30.08,37.92a.25.25,0,0,1-.08-.18.37.37,0,0,1,.07-.2l2-2.62-1.82-2.47a.32.32,0,0,1-.07-.19.28.28,0,0,1,.26-.26h1a.31.31,0,0,1,.19.06.86.86,0,0,1,.13.14L33,33.92l1.28-1.72.09-.1a.25.25,0,0,1,.23-.1h1a.21.21,0,0,1,.17.08.22.22,0,0,1,.07.17.31.31,0,0,1-.07.2l-1.84,2.48,2,2.61a.31.31,0,0,1,.07.2.24.24,0,0,1-.23.25H34.68a.37.37,0,0,1-.31-.18L33,36l-1.4,1.82a.37.37,0,0,1-.31.18h-1A.24.24,0,0,1,30.08,37.92Z"/>
          <g>
            <path class="cls-6" d="M10.87,37.1A3.69,3.69,0,0,1,10,34.77V32.54a3.59,3.59,0,0,1,.87-2.3,3,3,0,0,1,2.39-.89,3,3,0,0,1,2.38.89,3.48,3.48,0,0,1,.87,2.3v2.23a3.68,3.68,0,0,1-.86,2.33,3,3,0,0,1-2.39.89A3,3,0,0,1,10.87,37.1Zm3.51-1a2.42,2.42,0,0,0,.4-1.38V32.65a2.36,2.36,0,0,0-.4-1.37,1.36,1.36,0,0,0-1.11-.5,1.38,1.38,0,0,0-1.12.5,2.36,2.36,0,0,0-.4,1.37v2.07a2.42,2.42,0,0,0,.4,1.38,1.31,1.31,0,0,0,1.12.49A1.29,1.29,0,0,0,14.38,36.1Z"/>
            <path class="cls-6" d="M18.1,37.91a.29.29,0,0,1-.1-.23V36.33a.29.29,0,0,1,.1-.23.27.27,0,0,1,.22-.1h1.36a.29.29,0,0,1,.23.1.32.32,0,0,1,.09.23v1.35a.4.4,0,0,1-.08.23.34.34,0,0,1-.24.09H18.32A.31.31,0,0,1,18.1,37.91Z"/>
            <path class="cls-6" d="M23,37.67a2.65,2.65,0,0,1-1.1-.89,2.28,2.28,0,0,1-.39-1.19h0a.17.17,0,0,1,.08-.16.22.22,0,0,1,.17-.07H22.9a.33.33,0,0,1,.35.24,1.43,1.43,0,0,0,.56.78,1.62,1.62,0,0,0,.91.25,1.56,1.56,0,0,0,1.11-.41,1.43,1.43,0,0,0,.44-1.12,1.35,1.35,0,0,0-.45-1.1,1.62,1.62,0,0,0-1.11-.4,1.65,1.65,0,0,0-.58.1,2,2,0,0,0-.45.26l-.11.07a.38.38,0,0,1-.15.09.29.29,0,0,1-.13,0H22.16a.26.26,0,0,1-.19-.07.27.27,0,0,1-.08-.19l.41-4.09a.33.33,0,0,1,.12-.25.36.36,0,0,1,.24-.09h4.51a.32.32,0,0,1,.21.08.24.24,0,0,1,.08.21v.82a.28.28,0,0,1-.08.2.32.32,0,0,1-.21.08H23.71l-.2,2a2.66,2.66,0,0,1,.64-.3,3.31,3.31,0,0,1,.94-.11,3.27,3.27,0,0,1,1.44.33,2.52,2.52,0,0,1,1.07,1,2.58,2.58,0,0,1,.4,1.43,2.75,2.75,0,0,1-.41,1.53,2.65,2.65,0,0,1-1.15,1,3.81,3.81,0,0,1-1.73.35A4.06,4.06,0,0,1,23,37.67Z"/>
          </g>
          <rect class="cls-2" width="48" height="48"/>
          <path id="SpeedUp_3" data-name="SpeedUp 3" class="cls-7" d="M15,26a.94.94,0,0,0,.56-.18L21,22v3a1,1,0,0,0,1,1,.94.94,0,0,0,.56-.18l10-7a1,1,0,0,0,.28-1.39.93.93,0,0,0-.28-.28l-10-7A1,1,0,0,0,21,11v3l-5.43-3.8A1,1,0,0,0,15,10a1,1,0,0,0-1,1V25A1,1,0,0,0,15,26Zm8-13,7.24,5L23,23.06Zm-7,7.34V13l5,3.49v3.13l-5,3.49Z"/>
        </g>
        <g id="_1speed_default" data-name=" 1speed default">
          <path class="cls-6" d="M24.09,37.92a.25.25,0,0,1-.08-.18.37.37,0,0,1,.07-.2l2-2.62-1.82-2.47a.32.32,0,0,1-.07-.19.28.28,0,0,1,.26-.26h1a.31.31,0,0,1,.19.06.86.86,0,0,1,.13.14L27,33.92l1.28-1.72.09-.1a.25.25,0,0,1,.23-.1h1a.24.24,0,0,1,.24.24h0a.36.36,0,0,1-.06.2L28,34.93l2,2.61a.31.31,0,0,1,.07.2.24.24,0,0,1-.23.25H28.69a.37.37,0,0,1-.31-.18L27,36l-1.4,1.82a.37.37,0,0,1-.31.18h-1A.22.22,0,0,1,24.09,37.92Z"/>
          <path class="cls-6" d="M20.39,37.92a.3.3,0,0,1-.08-.2v-6.2l-1.81,1.4a.28.28,0,0,1-.18.06.27.27,0,0,1-.23-.12l-.52-.68a.25.25,0,0,1-.06-.16.27.27,0,0,1,.14-.24l2.68-2.09a.56.56,0,0,1,.31-.09h1.08a.25.25,0,0,1,.2.09.3.3,0,0,1,.08.2v7.83a.27.27,0,0,1-.28.28H20.6A.32.32,0,0,1,20.39,37.92Z"/>
          <rect class="cls-2" width="48" height="48"/>
          <path id="SpeedUp_4" data-name="SpeedUp 4" class="cls-7" d="M15,26a.94.94,0,0,0,.56-.18L21,22v3a1,1,0,0,0,1,1,.94.94,0,0,0,.56-.18l10-7a1,1,0,0,0,.28-1.39.93.93,0,0,0-.28-.28l-10-7A1,1,0,0,0,21,11v3l-5.43-3.8A1,1,0,0,0,15,10a1,1,0,0,0-1,1V25A1,1,0,0,0,15,26Zm8-13,7.24,5L23,23.06Zm-7,7.34V13l5,3.49v3.13l-5,3.49Z"/>
        </g>
      </g>
      <g id="ic_restartSim" data-name="ic restartSim">
        <g id="restart_highlight" data-name="restart highlight">
          <rect class="cls-7" x="16" y="12" width="2" height="12"/>
          <rect class="cls-2" width="48" height="48"/>
          <path class="cls-6" d="M27.5,17H21.42l3.29-3.29a1,1,0,0,0-1.41-1.42h0l-5,5a.87.87,0,0,0-.22.32A1,1,0,0,0,18,18a1,1,0,0,0,.08.39.87.87,0,0,0,.22.32l5,5A1,1,0,0,0,24,24a1,1,0,0,0,.71-1.7L21.42,19H27.5a6.5,6.5,0,0,1,0,13H16a1,1,0,0,0,0,2H27.5a8.5,8.5,0,0,0,0-17Z"/>
        </g>
        <g id="restart_default" data-name="restart default">
          <rect class="cls-7" x="16" y="12" width="2" height="12"/>
          <rect class="cls-2" width="48" height="48"/>
          <path class="cls-7" d="M27.5,17H21.42l3.29-3.29a1,1,0,0,0-1.41-1.42h0l-5,5a.87.87,0,0,0-.22.32A1,1,0,0,0,18,18a1,1,0,0,0,.08.39.87.87,0,0,0,.22.32l5,5A1,1,0,0,0,24,24a1,1,0,0,0,.71-1.7L21.42,19H27.5a6.5,6.5,0,0,1,0,13H16a1,1,0,0,0,0,2H27.5a8.5,8.5,0,0,0,0-17Z"/>
        </g>
      </g>
      <g id="ic_connect" data-name="ic connect">
        <g id="connectOn">
          <rect id="frame-41" class="cls-2" width="48" height="48"/>
          <path class="cls-6" d="M22,18h0a1,1,0,0,1-.71-.29l-3-3a1,1,0,0,1,1.41-1.42h0L22,15.59l5.3-5.29a1,1,0,0,1,1.52,1.3l-.11.11-6,6A1,1,0,0,1,22,18Z"/>
          <path class="cls-7" d="M36,24v9H23.47a2,2,0,0,0-1.49.67,4,4,0,0,1-5.65.3,2.83,2.83,0,0,1-.3-.3A2,2,0,0,0,14.54,33H12V24H36m0-2H12a2,2,0,0,0-2,2v9a2,2,0,0,0,2,2h2.54a6,6,0,0,0,8.47.46c.16-.15.32-.3.46-.46H36a2,2,0,0,0,2-2V24A2,2,0,0,0,36,22Z"/>
          <path class="cls-7" d="M19,27a4,4,0,1,1-4,4,4,4,0,0,1,4-4m0-2a6,6,0,1,0,6,6A6,6,0,0,0,19,25Z"/>
        </g>
        <g id="connectOff">
          <path class="cls-23" d="M20.3,17.72a.94.94,0,0,0,1.33,0l0,0L24,15.36l2.37,2.36a.94.94,0,0,0,1.33,0l0,0a1,1,0,0,0,0-1.35L25.37,14l2.37-2.36a1,1,0,0,0-1.35-1.36L24,12.65l-2.37-2.37a1,1,0,1,0-1.35,1.36L22.67,14,20.3,16.37A1,1,0,0,0,20.3,17.72Z"/>
          <rect id="frame-42" class="cls-2" width="48" height="48"/>
          <path class="cls-23" d="M36,24v9H23.47a2,2,0,0,0-1.49.67,4,4,0,0,1-5.65.3,2.83,2.83,0,0,1-.3-.3A2,2,0,0,0,14.54,33H12V24H36m0-2H12a2,2,0,0,0-2,2v9a2,2,0,0,0,2,2h2.54a6,6,0,0,0,8.47.46c.16-.15.32-.3.46-.46H36a2,2,0,0,0,2-2V24A2,2,0,0,0,36,22Z"/>
          <path class="cls-23" d="M19,27a4,4,0,1,1-4,4,4,4,0,0,1,4-4m0-2a6,6,0,1,0,6,6A6,6,0,0,0,19,25Z"/>
        </g>
        <g id="connectOn_monitoredOn" data-name="connectOn monitoredOn">
          <g>
            <path class="cls-7" d="M15,18H7a1,1,0,0,1-1-1V7A1,1,0,0,1,7,6h8a1,1,0,0,1,1,1V17A1,1,0,0,1,15,18ZM8,16h6V8H8Z"/>
            <rect class="cls-7" x="8.97" y="10" width="4" height="1"/>
            <rect class="cls-7" x="8.97" y="13" width="4" height="1"/>
          </g>
          <path class="cls-7" d="M42,7H28a2,2,0,0,0-2,2v6a2,2,0,0,0,2,2h2.38a5.84,5.84,0,0,0,.56.42h0a4.15,4.15,0,0,0,.6.29l.2.07.48.14a4.31,4.31,0,0,0,1.52,0l.48-.14.2-.07a4.15,4.15,0,0,0,.6-.29h0a3.28,3.28,0,0,0,.56-.42H42a2,2,0,0,0,2-2V9A2,2,0,0,0,42,7ZM31,14a2,2,0,1,1,3.4,1.43l-.1.07a1.93,1.93,0,0,1-2.6,0l-.1-.07A2,2,0,0,1,31,14Zm11,1H36.83A3.74,3.74,0,0,0,37,14a4,4,0,0,0-8,0,4.23,4.23,0,0,0,.14,1H28V9H42Z"/>
          <polyline class="cls-24" points="25.97 39 10.96 39 10.96 31"/>
          <polyline class="cls-24" points="36.98 31 36.98 39 23.97 39"/>
          <circle class="cls-7" cx="23.97" cy="39" r="3"/>
          <rect class="cls-2" width="48" height="48"/>
          <path class="cls-6" d="M10,28h0a1,1,0,0,1-.7-.29l-3-3a1,1,0,0,1,0-1.41h0a1,1,0,0,1,1.41,0l2.3,2.3,5.28-5.29a1,1,0,0,1,1.41,0h0a1,1,0,0,1,0,1.41l-6,6A1,1,0,0,1,10,28Z"/>
          <path class="cls-6" d="M34,28h0a1,1,0,0,1-.71-.29l-3-3a1,1,0,0,1,1.42-1.42L34,25.59l5.29-5.29a1,1,0,0,1,1.52,1.3l-.11.11-6,6A1,1,0,0,1,34,28Z"/>
        </g>
        <g id="connectOff_monitoredOn" data-name="connectOff monitoredOn">
          <g>
            <path class="cls-7" d="M15,18H7a1,1,0,0,1-1-1V7A1,1,0,0,1,7,6h8a1,1,0,0,1,1,1V17A1,1,0,0,1,15,18ZM8,16h6V8H8Z"/>
            <rect class="cls-7" x="8.97" y="10" width="4" height="1"/>
            <rect class="cls-7" x="8.97" y="13" width="4" height="1"/>
          </g>
          <path class="cls-23" d="M42,7H28a2,2,0,0,0-2,2v6a2,2,0,0,0,2,2h2.38a5.84,5.84,0,0,0,.56.42h0a4.15,4.15,0,0,0,.6.29l.2.07.48.14a4.31,4.31,0,0,0,1.52,0l.48-.14.2-.07a4.15,4.15,0,0,0,.6-.29h0a3.28,3.28,0,0,0,.56-.42H42a2,2,0,0,0,2-2V9A2,2,0,0,0,42,7ZM31,14a2,2,0,1,1,3.4,1.43l-.1.07a1.93,1.93,0,0,1-2.6,0l-.1-.07A2,2,0,0,1,31,14Zm11,1H36.83A3.74,3.74,0,0,0,37,14a4,4,0,0,0-8,0,4.23,4.23,0,0,0,.14,1H28V9H42Z"/>
          <polyline class="cls-24" points="25.97 39 10.96 39 10.96 31"/>
          <polyline class="cls-25" points="36.98 31 36.98 39 23.97 39"/>
          <circle class="cls-7" cx="23.97" cy="39" r="3"/>
          <rect class="cls-2" width="48" height="48"/>
          <path class="cls-23" d="M32.25,27.72a.94.94,0,0,0,1.33,0l0,0L36,25.36l2.37,2.36a.94.94,0,0,0,1.33,0l0,0a1,1,0,0,0,0-1.35L37.32,24l2.37-2.36a1,1,0,0,0-1.35-1.36L36,22.65l-2.4-2.37a1,1,0,1,0-1.35,1.36L34.62,24l-2.37,2.37A1,1,0,0,0,32.25,27.72Z"/>
          <path class="cls-6" d="M10,28h0a1,1,0,0,1-.7-.29l-3-3a1,1,0,0,1,0-1.41h0a1,1,0,0,1,1.41,0l2.3,2.3,5.28-5.29a1,1,0,0,1,1.41,0h0a1,1,0,0,1,0,1.41l-6,6A1,1,0,0,1,10,28Z"/>
        </g>
        <g id="connectOn_monitoredOff" data-name="connectOn monitoredOff">
          <g>
            <path class="cls-23" d="M15,18H7a1,1,0,0,1-1-1V7A1,1,0,0,1,7,6h8a1,1,0,0,1,1,1V17A1,1,0,0,1,15,18ZM8,16h6V8H8Z"/>
            <rect class="cls-23" x="8.97" y="10" width="4" height="1"/>
            <rect class="cls-23" x="8.97" y="13" width="4" height="1"/>
          </g>
          <path class="cls-7" d="M42,7H28a2,2,0,0,0-2,2v6a2,2,0,0,0,2,2h2.38a5.84,5.84,0,0,0,.56.42h0a4.15,4.15,0,0,0,.6.29l.2.07.48.14a4.31,4.31,0,0,0,1.52,0l.48-.14.2-.07a4.15,4.15,0,0,0,.6-.29h0a3.28,3.28,0,0,0,.56-.42H42a2,2,0,0,0,2-2V9A2,2,0,0,0,42,7ZM31,14a2,2,0,1,1,3.4,1.43l-.1.07a1.93,1.93,0,0,1-2.6,0l-.1-.07A2,2,0,0,1,31,14Zm11,1H36.83A3.74,3.74,0,0,0,37,14a4,4,0,0,0-8,0,4.23,4.23,0,0,0,.14,1H28V9H42Z"/>
          <polyline class="cls-25" points="25.97 39 10.96 39 10.96 31"/>
          <polyline class="cls-24" points="36.98 31 36.98 39 23.97 39"/>
          <circle class="cls-7" cx="23.97" cy="39" r="3"/>
          <rect class="cls-2" width="48" height="48"/>
          <path class="cls-23" d="M8.25,27.72a.94.94,0,0,0,1.33,0l0,0L12,25.36l2.37,2.36a.94.94,0,0,0,1.33,0l0,0a1,1,0,0,0,0-1.35L13.32,24l2.37-2.36a1,1,0,1,0-1.35-1.36L12,22.65,9.6,20.28a1,1,0,0,0-1.35,1.36L10.62,24,8.25,26.37A1,1,0,0,0,8.25,27.72Z"/>
          <path class="cls-6" d="M34,28h0a1,1,0,0,1-.71-.29l-3-3a1,1,0,0,1,1.42-1.42L34,25.59l5.29-5.29a1,1,0,0,1,1.52,1.3l-.11.11-6,6A1,1,0,0,1,34,28Z"/>
        </g>
        <g id="connectOff_monitoredOff" data-name="connectOff monitoredOff">
          <g>
            <path class="cls-23" d="M15,18H7a1,1,0,0,1-1-1V7A1,1,0,0,1,7,6h8a1,1,0,0,1,1,1V17A1,1,0,0,1,15,18ZM8,16h6V8H8Z"/>
            <rect class="cls-23" x="8.97" y="10" width="4" height="1"/>
            <rect class="cls-23" x="8.97" y="13" width="4" height="1"/>
          </g>
          <path class="cls-23" d="M42,7H28a2,2,0,0,0-2,2v6a2,2,0,0,0,2,2h2.38a5.84,5.84,0,0,0,.56.42h0a4.15,4.15,0,0,0,.6.29l.2.07.48.14a4.31,4.31,0,0,0,1.52,0l.48-.14.2-.07a4.15,4.15,0,0,0,.6-.29h0a3.28,3.28,0,0,0,.56-.42H42a2,2,0,0,0,2-2V9A2,2,0,0,0,42,7ZM31,14a2,2,0,1,1,3.4,1.43l-.1.07a1.93,1.93,0,0,1-2.6,0l-.1-.07A2,2,0,0,1,31,14Zm11,1H36.83A3.74,3.74,0,0,0,37,14a4,4,0,0,0-8,0,4.23,4.23,0,0,0,.14,1H28V9H42Z"/>
          <polyline class="cls-25" points="25.97 39 10.96 39 10.96 31"/>
          <polyline class="cls-25" points="36.98 31 36.98 39 23.97 39"/>
          <circle class="cls-7" cx="23.97" cy="39" r="3"/>
          <rect class="cls-2" width="48" height="48"/>
          <path class="cls-23" d="M8.25,27.72a.94.94,0,0,0,1.33,0l0,0L12,25.36l2.37,2.36a.94.94,0,0,0,1.33,0l0,0a1,1,0,0,0,0-1.35L13.32,24l2.37-2.36a1,1,0,1,0-1.35-1.36L12,22.65,9.6,20.28a1,1,0,0,0-1.35,1.36L10.62,24,8.25,26.37A1,1,0,0,0,8.25,27.72Z"/>
          <path class="cls-23" d="M32.25,27.72a.94.94,0,0,0,1.33,0l0,0L36,25.36l2.37,2.36a.94.94,0,0,0,1.33,0l0,0a1,1,0,0,0,0-1.35L37.32,24l2.37-2.36a1,1,0,0,0-1.35-1.36L36,22.65l-2.4-2.37a1,1,0,1,0-1.35,1.36L34.62,24l-2.37,2.37A1,1,0,0,0,32.25,27.72Z"/>
        </g>
      </g>
      <g id="ic_flash_check" data-name="ic flash check">
        <g id="flash_check" data-name="flash check">
          <rect id="frame-43" class="cls-2" width="48" height="48"/>
          <g id="flashing">
            <path class="cls-7" d="M36,23H12a2,2,0,0,0-2,2v9a2,2,0,0,0,2,2h2a6.65,6.65,0,0,0,1.54,1.72h.06a4.45,4.45,0,0,0,.58.38h.06a6.13,6.13,0,0,0,1.37.58h.19l.55.11h.21a5.46,5.46,0,0,0,1.51,0h.21l.54-.11H21a6.05,6.05,0,0,0,1.36-.58h.07a4.45,4.45,0,0,0,.58-.38h.06A6.43,6.43,0,0,0,24.7,36H36a2,2,0,0,0,2-2V25A2,2,0,0,0,36,23ZM22.94,35l-.16.24c-.1.13-.21.26-.32.38a.86.86,0,0,1-.13.14,5.85,5.85,0,0,1-.54.45l-.12.08c-.2.12-.4.23-.61.33h0a3.64,3.64,0,0,1-.71.22H20.2a3.59,3.59,0,0,1-1.53,0h-.16a3.35,3.35,0,0,1-.7-.22h0c-.21-.1-.41-.21-.61-.33l-.15,0a5.85,5.85,0,0,1-.54-.45l-.13-.13c-.11-.13-.22-.26-.32-.4L15.83,35a4.09,4.09,0,0,1-.67-2.25,4.22,4.22,0,1,1,8.44,0A4.27,4.27,0,0,1,22.94,35ZM36,34H25.48a6.24,6.24,0,1,0-12.31-1.72,4.17,4.17,0,0,0,0,.5A6.23,6.23,0,0,0,13.29,34H12.06V25H36Z"/>
            <g id="check">
              <path class="cls-6" d="M32.68,26.46a1.06,1.06,0,0,0-1.41.51l-.49,1L27.55,15.87a1.07,1.07,0,1,0-2.06.55l3.32,12.46L28,28.42a1.06,1.06,0,0,0-1.06,1.84L30,32,30,32l0,0h.05l.1,0a1.06,1.06,0,0,0,.31,0,1.24,1.24,0,0,0,.27,0h0s0,0,.08,0L31,32a.18.18,0,0,0,.07,0l.07-.05.09-.08a.86.86,0,0,0,.07-.1.71.71,0,0,0,.07-.09h0a0,0,0,0,0,0,0l0,0,1.73-3.65A1.07,1.07,0,0,0,32.68,26.46Z"/>
              <path class="cls-6" d="M26.49,12a1.06,1.06,0,0,0-1.5-1.5l-8.08,8L16,15.13a1.06,1.06,0,0,0-2.05.56l1.43,5.2s0,0,0,.06a.83.83,0,0,0,.07.13.6.6,0,0,0,.14.21.25.25,0,0,0,0,.07l.05,0a1.14,1.14,0,0,0,.23.15l.1.06a1.16,1.16,0,0,0,.37.07.9.9,0,0,0,.28,0s0,0,.06,0l.19-.09a1,1,0,0,0,.17-.12s0,0,.05,0Z"/>
            </g>
          </g>
        </g>
      </g>
      <g id="ic_flash" data-name="ic flash">
        <g id="flash_default" data-name="flash default">
          <rect id="frame-43-2" data-name="frame-43" class="cls-2" width="48" height="48"/>
          <g id="flashing-2" data-name="flashing">
            <path class="cls-7" d="M36,23H12a2,2,0,0,0-2,2v9a2,2,0,0,0,2,2h2a6.65,6.65,0,0,0,1.54,1.72h.06a4.45,4.45,0,0,0,.58.38h.06a6.13,6.13,0,0,0,1.37.58h.19l.55.11h.21a5.46,5.46,0,0,0,1.51,0h.21l.54-.11H21a6.05,6.05,0,0,0,1.36-.58h.07a4.45,4.45,0,0,0,.58-.38h.06A6.43,6.43,0,0,0,24.7,36H36a2,2,0,0,0,2-2V25A2,2,0,0,0,36,23ZM22.94,35l-.16.24c-.1.13-.21.26-.32.38a.86.86,0,0,1-.13.14,5.85,5.85,0,0,1-.54.45l-.12.08c-.2.12-.4.23-.61.33h0a3.64,3.64,0,0,1-.71.22H20.2a3.59,3.59,0,0,1-1.53,0h-.16a3.35,3.35,0,0,1-.7-.22h0c-.21-.1-.41-.21-.61-.33l-.15,0a5.85,5.85,0,0,1-.54-.45l-.13-.13c-.11-.13-.22-.26-.32-.4L15.83,35a4.09,4.09,0,0,1-.67-2.25,4.22,4.22,0,1,1,8.44,0A4.27,4.27,0,0,1,22.94,35ZM36,34H25.48a6.24,6.24,0,1,0-12.31-1.72,4.17,4.17,0,0,0,0,.5A6.23,6.23,0,0,0,13.29,34H12.06V25H36Z"/>
            <path id="flash" class="cls-7" d="M32.68,26.52a1.07,1.07,0,0,0-1.41.52l-.44.93L27.49,15.85s0,0,0,0a1.11,1.11,0,0,0-.09-.19c0-.06-.07-.13-.11-.18s0,0,0,0a.54.54,0,0,0-.12-.09L27,15.17a1.39,1.39,0,0,0-.19-.06l-.2,0a.74.74,0,0,0-.21,0H26.2l-.05,0-.18.09a1.18,1.18,0,0,0-.19.11l0,0L22.89,18,20.77,9.81a1.06,1.06,0,1,0-2,.57l2.58,9.82s0,0,0,0a.61.61,0,0,0,.05.12,1.76,1.76,0,0,0,.14.23l0,.05.06,0a.81.81,0,0,0,.24.17l.1.05a1,1,0,0,0,.38.08,1,1,0,0,0,.29,0l0,0a.81.81,0,0,0,.21-.1.78.78,0,0,0,.15-.1l0,0,2.82-2.59,3,10.86L28,28.43a1.06,1.06,0,1,0-1.05,1.85L30,32l.05,0,0,0h.05l.09,0a1.12,1.12,0,0,0,.31,0,1.15,1.15,0,0,0,.26,0h0l.09,0,.17-.07.07-.05.07-.05.09-.08.08-.11,0-.06,0,0h0l0,0s0,0,0,0l1.69-3.63A1.07,1.07,0,0,0,32.68,26.52Z"/>
          </g>
        </g>
      </g>
      <g id="ic_code_running" data-name="ic code running">
        <g id="running_default" data-name="running default">
          <rect id="frame-43-3" data-name="frame-43" class="cls-2" width="48" height="48"/>
          <g id="running">
            <path class="cls-7" d="M36,23H12a2,2,0,0,0-2,2v9a2,2,0,0,0,2,2h2a6.65,6.65,0,0,0,1.54,1.72h.06a4.45,4.45,0,0,0,.58.38h.06a6.13,6.13,0,0,0,1.37.58h.19l.55.11h.21a5.46,5.46,0,0,0,1.51,0h.21l.54-.11H21a6.05,6.05,0,0,0,1.36-.58h.07a4.45,4.45,0,0,0,.58-.38h.06A6.43,6.43,0,0,0,24.7,36H36a2,2,0,0,0,2-2V25A2,2,0,0,0,36,23ZM22.94,35l-.16.24c-.1.13-.21.26-.32.38a.86.86,0,0,1-.13.14,5.85,5.85,0,0,1-.54.45l-.12.08c-.2.12-.4.23-.61.33h0a3.64,3.64,0,0,1-.71.22H20.2a3.59,3.59,0,0,1-1.53,0h-.16a3.35,3.35,0,0,1-.7-.22h0c-.21-.1-.41-.21-.61-.33l-.15,0a5.85,5.85,0,0,1-.54-.45l-.13-.13c-.11-.13-.22-.26-.32-.4L15.83,35a4.09,4.09,0,0,1-.67-2.25,4.22,4.22,0,1,1,8.44,0A4.27,4.27,0,0,1,22.94,35ZM36,34H25.48a6.24,6.24,0,1,0-12.31-1.72,4.17,4.17,0,0,0,0,.5A6.23,6.23,0,0,0,13.29,34H12.06V25H36Z"/>
            <g>
              <path class="cls-6" d="M28.05,6a1,1,0,0,0-1,.9A7,7,0,0,0,16.61,13a1,1,0,0,0,2,0,5,5,0,0,1,6.71-4.71A1,1,0,0,0,26,10h2a1,1,0,0,0,1-1V7A1,1,0,0,0,28.05,6Z"/>
              <path class="cls-6" d="M29.6,12a1,1,0,0,0-1,1,5,5,0,0,1-5,5,4.92,4.92,0,0,1-1.7-.31,1,1,0,0,0,.29-.69,1,1,0,0,0-1-1h-2a1,1,0,0,0-1,1v2a1,1,0,0,0,2,.1A7,7,0,0,0,30.63,13a1,1,0,0,0-1-1Z"/>
            </g>
          </g>
        </g>
      </g>
      <g id="ic_readonly" data-name="ic readonly">
        <g id="readonly_highlight" data-name="readonly highlight">
          <g>
            <polygon class="cls-26" points="32.97 17.81 30.16 15 18.78 26.36 21.61 29.19 32.97 17.81"/>
            <polygon class="cls-26" points="16.64 31.33 21.65 29.15 18.82 26.32 16.64 31.33"/>
          </g>
          <path class="cls-6" d="M9,23.94A15,15,0,1,0,24.06,9H24A15,15,0,0,0,9,23.94Zm2,0a12.93,12.93,0,0,1,3.15-8.45l18.3,18.29A13,13,0,0,1,11,23.94Zm26,0a13,13,0,0,1-3.12,8.43l-18.3-18.3A13,13,0,0,1,37,23.94Z"/>
          <rect id="frame-44" class="cls-2" width="47.97" height="47.97"/>
        </g>
      </g>
      <g id="ic_simulator" data-name="ic simulator">
        <g id="simulator_highlight" data-name="simulator highlight">
          <rect id="frame-45" class="cls-2" width="48" height="48"/>
          <path class="cls-6" d="M32,20.11H16a2,2,0,0,0-2,2v6a2,2,0,0,0,2,2h1.82a4.54,4.54,0,0,0,.39.48l.22.21a3.6,3.6,0,0,0,.47.39l.19.12a3.15,3.15,0,0,0,.51.28l.18.08a3.55,3.55,0,0,0,.7.22h.17a4,4,0,0,0,1.6,0h.16a3.35,3.35,0,0,0,.7-.22l.18-.08a3.15,3.15,0,0,0,.51-.28.76.76,0,0,0,.19-.12,4.54,4.54,0,0,0,.48-.39l.21-.21a4.54,4.54,0,0,0,.39-.48H32a2,2,0,0,0,2-2v-6A2,2,0,0,0,32,20.11Zm-8.13,9.12h0a2.62,2.62,0,0,1-.45.49l-.09.08a4.27,4.27,0,0,1-.44.3l-.14.07a2.53,2.53,0,0,1-.48.19h-.14a3,3,0,0,1-.66.08h0a2.82,2.82,0,0,1-.65-.08h-.15a2.53,2.53,0,0,1-.48-.19L20,30.12a3.52,3.52,0,0,1-.45-.3l-.09-.08a3,3,0,0,1-.45-.49h0a2.92,2.92,0,0,1-.52-1.67,2.95,2.95,0,1,1,5.89-.34,1.93,1.93,0,0,1,0,.34A3,3,0,0,1,23.87,29.23Zm8.63-1.12a.5.5,0,0,1-.5.5H25.75a4.65,4.65,0,0,0,.14-1.05A4.45,4.45,0,1,0,17,27.14a2.94,2.94,0,0,0,0,.42,4.65,4.65,0,0,0,.14,1.05H16a.5.5,0,0,1-.5-.5v-6a.52.52,0,0,1,.5-.5H32a.5.5,0,0,1,.5.5Z"/>
          <path class="cls-6" d="M36,11H12a3,3,0,0,0-3,3V33a3,3,0,0,0,3,3H36a3,3,0,0,0,3-3V14A3,3,0,0,0,36,11ZM12,13H36a1,1,0,0,1,1,1v1H11V14A1,1,0,0,1,12,13ZM36,34H12a1,1,0,0,1-1-1V17H37V33A1,1,0,0,1,36,34Z"/>
        </g>
        <g id="simulator_default" data-name="simulator default">
          <rect id="frame-46" class="cls-2" width="48" height="48"/>
          <path class="cls-7" d="M32,20.11H16a2,2,0,0,0-2,2v6a2,2,0,0,0,2,2h1.82a4.54,4.54,0,0,0,.39.48l.22.21a3.6,3.6,0,0,0,.47.39l.19.12a3.15,3.15,0,0,0,.51.28l.18.08a3.55,3.55,0,0,0,.7.22h.17a4,4,0,0,0,1.6,0h.16a3.35,3.35,0,0,0,.7-.22l.18-.08a3.15,3.15,0,0,0,.51-.28.76.76,0,0,0,.19-.12,4.54,4.54,0,0,0,.48-.39l.21-.21a4.54,4.54,0,0,0,.39-.48H32a2,2,0,0,0,2-2v-6A2,2,0,0,0,32,20.11Zm-8.13,9.12h0a2.62,2.62,0,0,1-.45.49l-.09.08a4.27,4.27,0,0,1-.44.3l-.14.07a2.53,2.53,0,0,1-.48.19h-.14a3,3,0,0,1-.66.08h0a2.82,2.82,0,0,1-.65-.08h-.15a2.53,2.53,0,0,1-.48-.19L20,30.12a3.52,3.52,0,0,1-.45-.3l-.09-.08a3,3,0,0,1-.45-.49h0a2.92,2.92,0,0,1-.52-1.67,2.95,2.95,0,1,1,5.89-.34,1.93,1.93,0,0,1,0,.34A3,3,0,0,1,23.87,29.23Zm8.63-1.12a.5.5,0,0,1-.5.5H25.75a4.65,4.65,0,0,0,.14-1.05A4.45,4.45,0,1,0,17,27.14a2.94,2.94,0,0,0,0,.42,4.65,4.65,0,0,0,.14,1.05H16a.5.5,0,0,1-.5-.5v-6a.52.52,0,0,1,.5-.5H32a.5.5,0,0,1,.5.5Z"/>
          <path class="cls-7" d="M36,11H12a3,3,0,0,0-3,3V33a3,3,0,0,0,3,3H36a3,3,0,0,0,3-3V14A3,3,0,0,0,36,11ZM12,13H36a1,1,0,0,1,1,1v1H11V14A1,1,0,0,1,12,13ZM36,34H12a1,1,0,0,1-1-1V17H37V33A1,1,0,0,1,36,34Z"/>
        </g>
      </g>
      <g id="ic_simPen" data-name="ic simPen">
        <g id="pen_highlight" data-name="pen highlight">
          <rect class="cls-6" x="4.97" y="41" width="38" height="1"/>
          <g>
            <path class="cls-23" d="M39,26H9a1,1,0,0,0-1,1V37a1,1,0,0,0,1,1H9v2.57c0,.24.27.43.6.43h3.8c.33,0,.6-.21.6-.45V38H34v2.57c0,.24.27.43.6.43h3.8c.33,0,.6-.21.6-.45V38a1,1,0,0,0,1-1V27A1,1,0,0,0,39,26Z"/>
            <g>
              <polygon class="cls-27" points="25.96 14.94 21.98 14.94 21.97 33.92 25.97 33.92 25.96 14.94"/>
              <polygon class="cls-28" points="23.97 41 25.97 33.87 21.97 33.87 23.97 41"/>
            </g>
            <rect class="cls-2" width="47.97" height="48"/>
          </g>
        </g>
        <g id="pen_default" data-name="pen default">
          <path class="cls-23" d="M39,26H9a1,1,0,0,0-1,1V37a1,1,0,0,0,1,1H9v2.57c0,.24.27.43.6.43h3.8c.33,0,.6-.21.6-.45V38H34v2.57c0,.24.27.43.6.43h3.8c.33,0,.6-.21.6-.45V38a1,1,0,0,0,1-1V27A1,1,0,0,0,39,26Z"/>
          <rect class="cls-7" x="4.97" y="41" width="38" height="1"/>
          <g>
            <polygon class="cls-26" points="25.96 6.94 21.98 6.94 21.97 25.92 25.97 25.92 25.96 6.94"/>
            <polygon class="cls-29" points="23.97 33 25.97 25.87 21.97 25.87 23.97 33"/>
          </g>
          <rect class="cls-2" width="47.97" height="48"/>
        </g>
      </g>
      <g id="ic_simEvents" data-name="ic simEvents">
        <g id="sim_forward_highlight" data-name="sim forward highlight">
          <g id="Btn2_Forward" data-name="Btn2 Forward">
            <path class="cls-30" d="M11.51,35c-.55,0-.77-.39-.49-.86L23.49,13.37a.54.54,0,0,1,.73-.27.51.51,0,0,1,.27.27L37,34.14c.28.47.06.86-.49.86Z"/>
            <path class="cls-31" d="M11.51,35c-.55,0-.77-.39-.49-.86L23.49,13.37a.54.54,0,0,1,.73-.27.51.51,0,0,1,.27.27L37,34.14c.28.47.06.86-.49.86Z"/>
          </g>
          <rect class="cls-2" width="48" height="48"/>
        </g>
        <g id="sim_backward_highlight" data-name="sim backward highlight">
          <g id="Btn2_Forward-2" data-name="Btn2 Forward-2">
            <path class="cls-30" d="M36.5,12.5c.55,0,.77.39.49.87L24.52,34.14a.56.56,0,0,1-.75.25.55.55,0,0,1-.25-.25L11,13.37c-.28-.48-.06-.87.49-.87Z"/>
            <path class="cls-31" d="M36.5,12.5c.55,0,.77.39.49.87L24.52,34.14a.56.56,0,0,1-.75.25.55.55,0,0,1-.25-.25L11,13.37c-.28-.48-.06-.87.49-.87Z"/>
          </g>
          <rect class="cls-2" width="48" height="48"/>
        </g>
        <g id="sim_right_highlight" data-name="sim right highlight">
          <g id="Btn2_Forward-3" data-name="Btn2 Forward-3">
            <path class="cls-30" d="M15,11c0-.55.39-.77.87-.49L36.64,23a.54.54,0,0,1,.27.73.51.51,0,0,1-.27.27L15.87,36.48c-.48.29-.87.07-.87-.49Z"/>
            <path class="cls-31" d="M15,11c0-.55.39-.77.87-.49L36.64,23a.54.54,0,0,1,.27.73.51.51,0,0,1-.27.27L15.87,36.48c-.48.29-.87.07-.87-.49Z"/>
          </g>
          <rect class="cls-2" width="48" height="48"/>
        </g>
        <g id="sim_left_highlight" data-name="sim left highlight">
          <g id="Btn2_Forward-4" data-name="Btn2 Forward-4">
            <path class="cls-30" d="M33,11c0-.55-.39-.77-.86-.49L11.37,23a.54.54,0,0,0-.27.73.51.51,0,0,0,.27.27L32.14,36.48c.47.29.86.07.86-.49Z"/>
            <path class="cls-31" d="M33,11c0-.55-.39-.77-.86-.49L11.37,23a.54.54,0,0,0-.27.73.51.51,0,0,0,.27.27L32.14,36.48c.47.29.86.07.86-.49Z"/>
          </g>
          <rect class="cls-2" width="48" height="48"/>
        </g>
        <g id="sim_center_highlight" data-name="sim center highlight">
          <rect class="cls-2" width="48" height="48"/>
          <circle id="Btn2_Center" data-name="Btn2 Center" class="cls-32" cx="24" cy="24" r="13.2"/>
        </g>
        <g id="sim_center_default" data-name="sim center default">
          <rect class="cls-2" width="48" height="48"/>
          <circle id="Btn2_Center-2" data-name="Btn2 Center-2" class="cls-33" cx="24" cy="24" r="13.2"/>
        </g>
        <g id="sim_forward_default" data-name="sim forward default">
          <g id="Btn2_Forward-5" data-name="Btn2 Forward-5">
            <path class="cls-23" d="M11.51,35c-.55,0-.77-.39-.49-.86L23.49,13.37a.54.54,0,0,1,.73-.27.51.51,0,0,1,.27.27L37,34.14c.28.47.06.86-.49.86Z"/>
            <path class="cls-34" d="M11.51,35c-.55,0-.77-.39-.49-.86L23.49,13.37a.54.54,0,0,1,.73-.27.51.51,0,0,1,.27.27L37,34.14c.28.47.06.86-.49.86Z"/>
          </g>
          <rect class="cls-2" width="48" height="48"/>
        </g>
        <g id="sim_backward_default" data-name="sim backward default">
          <g id="Btn2_Forward-6" data-name="Btn2 Forward-6">
            <path class="cls-23" d="M36.5,12.5c.55,0,.77.39.49.87L24.52,34.14a.56.56,0,0,1-.75.25.55.55,0,0,1-.25-.25L11,13.37c-.28-.48-.06-.87.49-.87Z"/>
            <path class="cls-34" d="M36.5,12.5c.55,0,.77.39.49.87L24.52,34.14a.56.56,0,0,1-.75.25.55.55,0,0,1-.25-.25L11,13.37c-.28-.48-.06-.87.49-.87Z"/>
          </g>
          <rect class="cls-2" width="48" height="48"/>
        </g>
        <g id="sim_right_default" data-name="sim right default">
          <g id="Btn2_Forward-7" data-name="Btn2 Forward-7">
            <path class="cls-23" d="M15,11c0-.55.39-.77.87-.49L36.64,23a.54.54,0,0,1,.27.73.51.51,0,0,1-.27.27L15.87,36.48c-.48.29-.87.07-.87-.49Z"/>
            <path class="cls-34" d="M15,11c0-.55.39-.77.87-.49L36.64,23a.54.54,0,0,1,.27.73.51.51,0,0,1-.27.27L15.87,36.48c-.48.29-.87.07-.87-.49Z"/>
          </g>
          <rect class="cls-2" width="48" height="48"/>
        </g>
        <g id="sim_left_default" data-name="sim left default">
          <g id="Btn2_Forward-8" data-name="Btn2 Forward-8">
            <path class="cls-23" d="M33,11c0-.55-.39-.77-.86-.49L11.37,23a.54.54,0,0,0-.27.73.51.51,0,0,0,.27.27L32.14,36.48c.47.29.86.07.86-.49Z"/>
            <path class="cls-34" d="M33,11c0-.55-.39-.77-.86-.49L11.37,23a.54.54,0,0,0-.27.73.51.51,0,0,0,.27.27L32.14,36.48c.47.29.86.07.86-.49Z"/>
          </g>
          <rect class="cls-2" width="48" height="48"/>
        </g>
        <g id="sim_clap_default" data-name="sim clap default">
          <path id="HandBack" class="cls-35" d="M21.49,36.1l-8.76-8.78a1.57,1.57,0,0,1-.19-2.21,1.7,1.7,0,0,1,.19-.19,1.74,1.74,0,0,1,1.14-.51,1.65,1.65,0,0,1,1.24.51l6.35,6.36a.37.37,0,0,0,.52,0,.37.37,0,0,0,0-.52h0l-6.34-6.36h0L12.5,21.25a1.63,1.63,0,0,1,0-2.3.94.94,0,0,1,.1-.1,1.54,1.54,0,0,1,2.17-.14,1.85,1.85,0,0,1,.14.14l9.39,9.4a.36.36,0,0,0,.51,0h0a.39.39,0,0,0,0-.53l-9.39-9.4-1-1A1.66,1.66,0,0,1,14.35,15s0,0,.05-.05a1.73,1.73,0,0,1,1.14-.5,1.6,1.6,0,0,1,1.24.5l1.82,1.83h0l8.6,8.61a.37.37,0,0,0,.52,0,.37.37,0,0,0,0-.52h0l-8.6-8.62a1.62,1.62,0,0,1,0-2.29l.11-.1a1.54,1.54,0,0,1,2.17-.14,1.85,1.85,0,0,1,.14.14l10.89,10.9s.24.45.61.35.25-.51.25-.52l-2.64-5.07a2.32,2.32,0,0,1,.94-3.13l.06,0s.66-.32.93.2l4.28,8.21h0A9.92,9.92,0,0,1,35.3,36.06h0a9.76,9.76,0,0,1-13.79.06Z"/>
          <g id="HandFront">
            <path id="HandFront-2" class="cls-36" d="M24,35.77,15.19,27A1.57,1.57,0,0,1,15,24.79a1.7,1.7,0,0,1,.19-.19,1.74,1.74,0,0,1,1.14-.51,1.65,1.65,0,0,1,1.24.51L23.92,31a.37.37,0,0,0,.52,0,.37.37,0,0,0,0-.52h0l-6.35-6.36h0L15,20.92a1.64,1.64,0,0,1,0-2.31l.1-.09a1.52,1.52,0,0,1,2.16-.14.93.93,0,0,1,.14.14l9.39,9.4a.37.37,0,0,0,.52,0h0a.39.39,0,0,0,0-.53L17.86,18l-1-1a1.66,1.66,0,0,1-.05-2.35l.05-.05A1.74,1.74,0,0,1,18,14.11a1.68,1.68,0,0,1,1.25.51l1.82,1.83h0l8.6,8.61a.37.37,0,0,0,.52,0,.39.39,0,0,0,0-.53l-8.6-8.62a1.62,1.62,0,0,1,0-2.29l.11-.1a1.54,1.54,0,0,1,2.17-.14l.14.14L34.84,24.39s.39.42.68.33.19-.49.19-.5l-2.64-5.07A2.3,2.3,0,0,1,34,16l.08,0s.66-.32.93.2l4.28,8.21h0a9.9,9.9,0,0,1-1.52,11.32h0A9.76,9.76,0,0,1,24,35.77Z"/>
            <path class="cls-37" d="M35.94,34.39c1.83-3.36-.26-7-1.36-8.45l-.07-.09-.37-.35L22.64,13.79a.92.92,0,0,1,1.16.27L34.42,24.7c.16.17.71.65,1.12.56a.79.79,0,0,0,.58-.44.91.91,0,0,0,.09-.72V24l-2.65-5.08a1.78,1.78,0,0,1,.69-2.41l.08,0h.22l4.28,8.24a9.4,9.4,0,0,1-1.42,10.73A10.54,10.54,0,0,1,34,37.27,14.69,14.69,0,0,0,35.94,34.39Z"/>
            <path id="shadow2" class="cls-37" d="M29.07,26.05l-11-11.2a1,1,0,0,1,.7.3L29.32,25.72a1.47,1.47,0,0,0,.74.2C30.09,26.25,29.49,26.26,29.07,26.05Z"/>
          </g>
          <g id="fx">
            <line class="cls-38" x1="8" y1="26" x2="4" y2="26"/>
            <line class="cls-38" x1="8" y1="23" x2="4.54" y2="21"/>
            <line class="cls-38" x1="34" y1="12.5" x2="34" y2="8.5"/>
            <line class="cls-38" x1="37" y1="12.5" x2="39" y2="9.04"/>
          </g>
          <rect class="cls-2" width="48" height="48"/>
        </g>
        <g id="sim_tap_default" data-name="sim tap default">
          <path class="cls-39" d="M33.88,16.54a2.71,2.71,0,0,0-2.09-1.24,89.85,89.85,0,0,1-12.42-3.69C16.85,10.66,12.67,0,12.67,0H.6S6,8.31,7.37,10.08s2.3,4.63,5.41,6.85c2.47,1.76,5.48,2.67,9.19,4.67,2.65,1.43,4.92.74,5-.63,0-1-.65-1.81-3.12-2.7a19.18,19.18,0,0,1-4-2c4.41,1.12,10.83,2.76,12,3,1.77.42,3.53-.08,3.67-1.26S33.88,16.54,33.88,16.54Z"/>
          <path class="cls-37" d="M5,0H.6S6,8.31,7.37,10.08s2.3,4.63,5.41,6.85c2.47,1.76,5.48,2.67,9.19,4.67a4.8,4.8,0,0,0,4.07.54L17.31,18a12.77,12.77,0,0,1-4.38-3.68C11.33,12,5,0,5,0Z"/>
          <path class="cls-40" d="M34.28,16a3.43,3.43,0,0,0-2.39-1.32A65.53,65.53,0,0,1,19.62,11c-2.41-1-5.57-8.78-6.31-11H12.06c0,.06,3.58,10.62,7.06,12.17.85.37,1.87.76,3,1.15a.59.59,0,0,0-.32.39.62.62,0,0,0,.46.74l11.51,2.69h0s1.13.24,1.06.83a.67.67,0,0,1-.34.49,3.5,3.5,0,0,1-2.58.25c-1.66-.39-9.9-2.17-10.85-2.38a26.83,26.83,0,0,1-2.31-1.5.62.62,0,0,0-.86.14.61.61,0,0,0,.15.85h0a21.52,21.52,0,0,0,5.56,3c2.54.91,2.74,1.54,2.72,2.1a.67.67,0,0,1-.4.57A4,4,0,0,1,22.27,21c-1.55-.83-3-1.49-4.28-2.07a28.8,28.8,0,0,1-4.85-2.56,14,14,0,0,1-4-4.74,17.56,17.56,0,0,0-1.3-2C6.66,8.21,2.33,1.33,1.36,0H0C0,.13,5.49,8.71,6.89,10.46A17.29,17.29,0,0,1,8.1,12.31a15,15,0,0,0,4.32,5.11,28.48,28.48,0,0,0,5.06,2.68c1.32.6,2.69,1.22,4.2,2a6.74,6.74,0,0,0,3.1.86,3.4,3.4,0,0,0,1.74-.42,1.87,1.87,0,0,0,1-1.6,2.56,2.56,0,0,0-1.37-2.29c2.31.51,4.66,1,5.46,1.21A5.6,5.6,0,0,0,33,20a3.87,3.87,0,0,0,2.22-.6A1.88,1.88,0,0,0,36,18.11C36.18,16.88,35.07,16.24,34.28,16Z"/>
          <g id="Bg_Th_Profile" data-name="Bg Th Profile">
            <path class="cls-41" d="M35.54,41.51H32.92c.86.56,1,1.69,1.3,2.13a1.36,1.36,0,0,0,1.05.55h.53a1.29,1.29,0,0,0,1.05-.54c.3-.44.45-1.58,1.31-2.14Z"/>
            <rect class="cls-42" x="6" y="28" width="36" height="13.5" rx="2"/>
            <circle class="cls-42" cx="16.11" cy="37.28" r="7.03"/>
            <line class="cls-43" x1="35.16" y1="33.05" x2="38.16" y2="33.04"/>
            <line class="cls-43" x1="40.71" y1="33.05" x2="41.78" y2="33.04"/>
          </g>
          <g id="fx-2">
            <line class="cls-38" x1="11" y1="24" x2="7" y2="24"/>
            <line class="cls-38" x1="11" y1="21" x2="7.54" y2="19"/>
            <line class="cls-38" x1="38" y1="24" x2="42" y2="24"/>
            <line class="cls-38" x1="38" y1="21" x2="41.47" y2="19"/>
          </g>
          <rect class="cls-2" width="48" height="48"/>
        </g>
        <g id="sim_clap_highlight" data-name="sim clap highlight">
          <path id="HandBack-2" class="cls-35" d="M21.49,36.1l-8.76-8.78a1.57,1.57,0,0,1-.19-2.21,1.7,1.7,0,0,1,.19-.19,1.74,1.74,0,0,1,1.14-.51,1.65,1.65,0,0,1,1.24.51l6.35,6.36a.37.37,0,0,0,.52,0,.37.37,0,0,0,0-.52h0l-6.34-6.36h0L12.5,21.25a1.63,1.63,0,0,1,0-2.3.94.94,0,0,1,.1-.1,1.54,1.54,0,0,1,2.17-.14,1.85,1.85,0,0,1,.14.14l9.39,9.4a.36.36,0,0,0,.51,0h0a.39.39,0,0,0,0-.53l-9.39-9.4-1-1A1.66,1.66,0,0,1,14.35,15s0,0,.05-.05a1.73,1.73,0,0,1,1.14-.5,1.6,1.6,0,0,1,1.24.5l1.82,1.83h0l8.6,8.61a.37.37,0,0,0,.52,0,.37.37,0,0,0,0-.52h0l-8.6-8.62a1.62,1.62,0,0,1,0-2.29l.11-.1a1.54,1.54,0,0,1,2.17-.14,1.85,1.85,0,0,1,.14.14l10.89,10.9s.24.45.61.35.25-.51.25-.52l-2.64-5.07a2.32,2.32,0,0,1,.94-3.13l.06,0s.66-.32.93.2l4.28,8.21h0A9.92,9.92,0,0,1,35.3,36.06h0a9.76,9.76,0,0,1-13.79.06Z"/>
          <g id="HandFront-3">
            <path id="HandFront-4" class="cls-36" d="M24,35.77,15.19,27A1.57,1.57,0,0,1,15,24.79a1.7,1.7,0,0,1,.19-.19,1.74,1.74,0,0,1,1.14-.51,1.65,1.65,0,0,1,1.24.51L23.92,31a.37.37,0,0,0,.52,0,.37.37,0,0,0,0-.52h0l-6.35-6.36h0L15,20.92a1.64,1.64,0,0,1,0-2.31l.1-.09a1.52,1.52,0,0,1,2.16-.14.93.93,0,0,1,.14.14l9.39,9.4a.37.37,0,0,0,.52,0h0a.39.39,0,0,0,0-.53L17.86,18l-1-1a1.66,1.66,0,0,1-.05-2.35l.05-.05A1.74,1.74,0,0,1,18,14.11a1.68,1.68,0,0,1,1.25.51l1.82,1.83h0l8.6,8.61a.37.37,0,0,0,.52,0,.39.39,0,0,0,0-.53l-8.6-8.62a1.62,1.62,0,0,1,0-2.29l.11-.1a1.54,1.54,0,0,1,2.17-.14l.14.14L34.84,24.39s.39.42.68.33.19-.49.19-.5l-2.64-5.07A2.3,2.3,0,0,1,34,16l.08,0s.66-.32.93.2l4.28,8.21h0a9.9,9.9,0,0,1-1.52,11.32h0A9.76,9.76,0,0,1,24,35.77Z"/>
            <path class="cls-37" d="M35.94,34.39c1.83-3.36-.26-7-1.36-8.45l-.07-.09-.37-.35L22.64,13.79a.92.92,0,0,1,1.16.27L34.42,24.7c.16.17.71.65,1.12.56a.79.79,0,0,0,.58-.44.91.91,0,0,0,.09-.72V24l-2.65-5.08a1.78,1.78,0,0,1,.69-2.41l.08,0h.22l4.28,8.24a9.4,9.4,0,0,1-1.42,10.73A10.54,10.54,0,0,1,34,37.27,14.69,14.69,0,0,0,35.94,34.39Z"/>
            <path id="shadow2-2" class="cls-37" d="M29.07,26.05l-11-11.2a1,1,0,0,1,.7.3L29.32,25.72a1.47,1.47,0,0,0,.74.2C30.09,26.25,29.49,26.26,29.07,26.05Z"/>
          </g>
          <g id="fx-3">
            <line class="cls-44" x1="8" y1="26" x2="4" y2="26"/>
            <line class="cls-44" x1="8" y1="23" x2="4.54" y2="21"/>
            <line class="cls-44" x1="34" y1="12.5" x2="34" y2="8.5"/>
            <line class="cls-44" x1="37" y1="12.5" x2="39" y2="9.04"/>
          </g>
          <rect class="cls-2" width="48" height="48"/>
        </g>
        <g id="sim_tap_highlight" data-name="sim tap highlight">
          <path class="cls-39" d="M33.88,16.54a2.71,2.71,0,0,0-2.09-1.24,89.85,89.85,0,0,1-12.42-3.69C16.85,10.66,12.67,0,12.67,0H.6S6,8.31,7.37,10.08s2.3,4.63,5.41,6.85c2.47,1.76,5.48,2.67,9.19,4.67,2.65,1.43,4.92.74,5-.63,0-1-.65-1.81-3.12-2.7a19.18,19.18,0,0,1-4-2c4.41,1.12,10.83,2.76,12,3,1.77.42,3.53-.08,3.67-1.26S33.88,16.54,33.88,16.54Z"/>
          <path class="cls-37" d="M5,0H.6S6,8.31,7.37,10.08s2.3,4.63,5.41,6.85c2.47,1.76,5.48,2.67,9.19,4.67a4.8,4.8,0,0,0,4.07.54L17.31,18a12.77,12.77,0,0,1-4.38-3.68C11.33,12,5,0,5,0Z"/>
          <path class="cls-40" d="M34.28,16a3.43,3.43,0,0,0-2.39-1.32A65.53,65.53,0,0,1,19.62,11c-2.41-1-5.57-8.78-6.31-11H12.06c0,.06,3.58,10.62,7.06,12.17.85.37,1.87.76,3,1.15a.59.59,0,0,0-.32.39.62.62,0,0,0,.46.74l11.51,2.69h0s1.13.24,1.06.83a.67.67,0,0,1-.34.49,3.5,3.5,0,0,1-2.58.25c-1.66-.39-9.9-2.17-10.85-2.38a26.83,26.83,0,0,1-2.31-1.5.62.62,0,0,0-.86.14.61.61,0,0,0,.15.85h0a21.52,21.52,0,0,0,5.56,3c2.54.91,2.74,1.54,2.72,2.1a.67.67,0,0,1-.4.57A4,4,0,0,1,22.27,21c-1.55-.83-3-1.49-4.28-2.07a28.8,28.8,0,0,1-4.85-2.56,14,14,0,0,1-4-4.74,17.56,17.56,0,0,0-1.3-2C6.66,8.21,2.33,1.33,1.36,0H0C0,.13,5.49,8.71,6.89,10.46A17.29,17.29,0,0,1,8.1,12.31a15,15,0,0,0,4.32,5.11,28.48,28.48,0,0,0,5.06,2.68c1.32.6,2.69,1.22,4.2,2a6.74,6.74,0,0,0,3.1.86,3.4,3.4,0,0,0,1.74-.42,1.87,1.87,0,0,0,1-1.6,2.56,2.56,0,0,0-1.37-2.29c2.31.51,4.66,1,5.46,1.21A5.6,5.6,0,0,0,33,20a3.87,3.87,0,0,0,2.22-.6A1.88,1.88,0,0,0,36,18.11C36.18,16.88,35.07,16.24,34.28,16Z"/>
          <g id="Bg_Th_Profile-2" data-name="Bg Th Profile-2">
            <path class="cls-41" d="M35.54,41.51H32.92c.86.56,1,1.69,1.3,2.13a1.36,1.36,0,0,0,1.05.55h.53a1.29,1.29,0,0,0,1.05-.54c.3-.44.45-1.58,1.31-2.14Z"/>
            <rect class="cls-42" x="6" y="28" width="36" height="13.5" rx="2"/>
            <circle class="cls-42" cx="16.11" cy="37.28" r="7.03"/>
            <line class="cls-43" x1="35.16" y1="33.05" x2="38.16" y2="33.04"/>
            <line class="cls-43" x1="40.71" y1="33.05" x2="41.78" y2="33.04"/>
          </g>
          <g id="fx-4">
            <line class="cls-44" x1="11" y1="24" x2="7" y2="24"/>
            <line class="cls-44" x1="11" y1="21" x2="7.54" y2="19"/>
            <line class="cls-44" x1="38" y1="24" x2="42" y2="24"/>
            <line class="cls-44" x1="38" y1="21" x2="41.47" y2="19"/>
          </g>
          <rect class="cls-2" width="48" height="48"/>
        </g>
      </g>
      <g id="ic_mapGround" data-name="ic mapGround">
        <g id="mapGround_highlight" data-name="mapGround highlight">
          <g>
            <rect class="cls-4" x="6.97" y="10" width="34" height="28" rx="1"/>
            <path class="cls-6" d="M40,11V37H8V11H40m0-2H8a2,2,0,0,0-2,2V37a2,2,0,0,0,2,2H40a2,2,0,0,0,2-2V11A2,2,0,0,0,40,9Z"/>
          </g>
          <path class="cls-45" d="M14,30h3a7.42,7.42,0,0,0,7.29-6l.18-1a7.42,7.42,0,0,1,7.29-6H34"/>
          <rect class="cls-2" width="47.97" height="48"/>
        </g>
        <g id="mapGround_default" data-name="mapGround default">
          <g>
            <rect class="cls-4" x="6.97" y="10" width="34" height="28" rx="1"/>
            <path class="cls-7" d="M40,11V37H8V11H40m0-2H8a2,2,0,0,0-2,2V37a2,2,0,0,0,2,2H40a2,2,0,0,0,2-2V11A2,2,0,0,0,40,9Z"/>
          </g>
          <path class="cls-46" d="M14,30h3a7.42,7.42,0,0,0,7.29-6l.18-1a7.42,7.42,0,0,1,7.29-6H34"/>
          <rect class="cls-2" width="47.97" height="48"/>
        </g>
      </g>
      <g id="ic_mapObstacles" data-name="ic mapObstacles">
        <g id="mapObstacles_highlight" data-name="mapObstacles highlight">
          <g>
            <rect class="cls-4" x="7" y="10" width="34" height="28" rx="1"/>
            <path class="cls-47" d="M40,11V37H8V11H40m0-2H8a2,2,0,0,0-2,2V37a2,2,0,0,0,2,2H40a2,2,0,0,0,2-2V11A2,2,0,0,0,40,9Z"/>
          </g>
          <rect class="cls-2" width="48" height="48"/>
          <line class="cls-48" x1="8" y1="20" x2="25" y2="20"/>
          <line class="cls-48" x1="40" y1="28" x2="25" y2="28"/>
          <line class="cls-48" x1="17" y1="37" x2="17" y2="27"/>
        </g>
        <g id="mapObstacles_default" data-name="mapObstacles default">
          <g>
            <rect class="cls-4" x="7" y="10" width="34" height="28" rx="1"/>
            <path class="cls-7" d="M40,11V37H8V11H40m0-2H8a2,2,0,0,0-2,2V37a2,2,0,0,0,2,2H40a2,2,0,0,0,2-2V11A2,2,0,0,0,40,9Z"/>
          </g>
          <rect class="cls-2" width="48" height="48"/>
          <line class="cls-49" x1="8" y1="20" x2="25" y2="20"/>
          <line class="cls-49" x1="40" y1="28" x2="25" y2="28"/>
          <line class="cls-49" x1="17" y1="37" x2="17" y2="27"/>
        </g>
      </g>
      <g id="ic_mapLevels" data-name="ic mapLevels">
        <g id="mapLevels_highlight" data-name="mapLevels highlight">
          <g>
            <rect class="cls-4" x="7" y="10" width="34" height="28" rx="1"/>
            <path class="cls-6" d="M40,11V37H8V11H40m0-2H8a2,2,0,0,0-2,2V37a2,2,0,0,0,2,2H40a2,2,0,0,0,2-2V11A2,2,0,0,0,40,9Z"/>
          </g>
          <rect class="cls-2" width="48" height="48"/>
          <g>
            <path class="cls-50" d="M8,27s5.48,0,7,2c2.7,3.6,6.3,1.71,8.1,4.41A6.74,6.74,0,0,1,24,37"/>
            <path class="cls-50" d="M8,30s4,0,5,1c2,2,3,2,5,3,1.27.64,1,3,1,3"/>
            <path class="cls-50" d="M8,32.37a3.48,3.48,0,0,1,2.23.78c1.17,1.32,2.57,1.71,3.17,2.31A2.43,2.43,0,0,1,14,37"/>
          </g>
          <g>
            <path class="cls-51" d="M26.87,13C32.93,13,37,15.65,37,19.59,37,22.54,33,27,26.87,27,21.32,27,21,24.13,21,20,21,14.53,22.78,13,26.87,13Z"/>
            <path class="cls-51" d="M34.45,19.45c0-3.34-3.2-4.45-6.39-4.45S24,16.67,24,20s.86,5,4.06,5S34.45,21.67,34.45,19.45Z"/>
            <path class="cls-51" d="M28.53,17c2.7,0,3.07,1.16,3.07,2.4,0,1.43-2.18,3.6-3.07,3.6C27.48,23,27,23,27,20.6,27,18.81,27.53,17,28.53,17Z"/>
          </g>
        </g>
        <g id="mapLevels_default" data-name="mapLevels default">
          <g>
            <rect class="cls-4" x="7" y="10" width="34" height="28" rx="1"/>
            <path class="cls-7" d="M40,11V37H8V11H40m0-2H8a2,2,0,0,0-2,2V37a2,2,0,0,0,2,2H40a2,2,0,0,0,2-2V11A2,2,0,0,0,40,9Z"/>
          </g>
          <rect class="cls-2" width="48" height="48"/>
          <g>
            <path class="cls-52" d="M8,27s5.48,0,7,2c2.7,3.6,6.3,1.71,8.1,4.41A6.74,6.74,0,0,1,24,37"/>
            <path class="cls-52" d="M8,30s4,0,5,1c2,2,3,2,5,3,1.27.64,1,3,1,3"/>
            <path class="cls-52" d="M8,32.37a3.48,3.48,0,0,1,2.23.78c1.17,1.32,2.57,1.71,3.17,2.31A2.43,2.43,0,0,1,14,37"/>
          </g>
          <g>
            <path class="cls-53" d="M26.87,13C32.93,13,37,15.65,37,19.59,37,22.54,33,27,26.87,27,21.32,27,21,24.13,21,20,21,14.53,22.78,13,26.87,13Z"/>
            <path class="cls-53" d="M34.45,19.45c0-3.34-3.2-4.45-6.39-4.45S24,16.67,24,20s.86,5,4.06,5S34.45,21.67,34.45,19.45Z"/>
            <path class="cls-53" d="M28.53,17c2.7,0,3.07,1.16,3.07,2.4,0,1.43-2.18,3.6-3.07,3.6C27.48,23,27,23,27,20.6,27,18.81,27.53,17,28.53,17Z"/>
          </g>
        </g>
      </g>
      <g id="ic_simClear" data-name="ic simClear">
        <g id="simClear_default" data-name="simClear default">
          <g>
            <rect class="cls-4" x="7" y="10" width="34" height="28" rx="1"/>
            <path class="cls-7" d="M40,11V37H8V11H40m0-2H8a2,2,0,0,0-2,2V37a2,2,0,0,0,2,2H40a2,2,0,0,0,2-2V11A2,2,0,0,0,40,9Z"/>
          </g>
          <rect class="cls-2" width="48" height="48"/>
          <line class="cls-54" x1="15" y1="34" x2="24.6" y2="34"/>
          <line class="cls-54" x1="20" y1="31" x2="26" y2="31"/>
          <line class="cls-54" x1="24.6" y1="28" x2="27" y2="28"/>
          <path class="cls-55" d="M36.14,26.17c-1.14-2.17-3.92-1.66-5.22.45s0,4.77-3.92,7.38h7.83C37.44,34,37.44,28.78,36.14,26.17Z"/>
          <path class="cls-56" d="M32.22,28.78s0,3.92-2.61,5.22"/>
          <path class="cls-56" d="M34.83,28.78s0,3.92-2.61,5.22"/>
          <path class="cls-7" d="M33,14h1a1,1,0,0,1,1,1V25H32V15A1,1,0,0,1,33,14Z"/>
        </g>
      </g>
      <g id="ic_duplicate" data-name="ic duplicate">
        <g id="duplicate_default" data-name="duplicate default">
          <path class="cls-7" d="M22,18a1,1,0,0,0-1,1v2H19a1,1,0,0,0,0,2h2v2a1,1,0,0,0,2,0V23h2a1,1,0,0,0,0-2H23V19A1,1,0,0,0,22,18Z"/>
          <rect id="frame-47" class="cls-2" width="48" height="48"/>
          <path class="cls-7" d="M33,16V28H11V16H33m0-2H11a2,2,0,0,0-2,2V28a2,2,0,0,0,2,2H33a2,2,0,0,0,2-2V16A2,2,0,0,0,33,14Z"/>
          <path class="cls-7" d="M37,20V32H13a2,2,0,0,0,2,2H37a2,2,0,0,0,2-2V20a2,2,0,0,0-2-2Z"/>
        </g>
      </g>
      <g id="ic_deactivate" data-name="ic deactivate">
        <g id="deactivate_highlight" data-name="deactivate highlight">
          <path class="cls-6" d="M24.05,9A15,15,0,1,0,39,24.05V24A15,15,0,0,0,24.05,9Zm0,2a13,13,0,0,1,8.46,3.15l-18.3,18.3A13,13,0,0,1,24.05,11Zm0,26a13,13,0,0,1-8.43-3.12l18.3-18.3A13,13,0,0,1,24.05,37Z"/>
          <rect id="frame-48" class="cls-2" width="48" height="48"/>
        </g>
        <g id="deactivate_default" data-name="deactivate default">
          <path class="cls-7" d="M24.05,9A15,15,0,1,0,39,24.05V24A15,15,0,0,0,24.05,9Zm0,2a13,13,0,0,1,8.46,3.15l-18.3,18.3A13,13,0,0,1,24.05,11Zm0,26a13,13,0,0,1-8.43-3.12l18.3-18.3A13,13,0,0,1,24.05,37Z"/>
          <rect id="frame-49" class="cls-2" width="48" height="48"/>
        </g>
      </g>
      <g id="ic_delete" data-name="ic delete">
        <g id="delete_highlight" data-name="delete highlight">
          <path id="trash_path" data-name="trash path" class="cls-6" d="M32.21,15H16.05a2,2,0,0,0-1.45.64,2.05,2.05,0,0,0-.54,1.53L15.45,37.1a2,2,0,0,0,2,1.89H30.81a2,2,0,0,0,2-1.89L34.2,17.19a2.05,2.05,0,0,0-.54-1.53A2,2,0,0,0,32.21,15Zm0,2-1.4,20H17.45l-1.4-20Z"/>
          <path id="clap_path" data-name="clap path" class="cls-6" d="M32.77,12.8,15,10a1,1,0,0,1,.31-2l17.77,2.84A1,1,0,0,1,33.92,12v0A1,1,0,0,1,32.77,12.8Z"/>
          <rect id="frame-50" class="cls-2" width="48" height="48"/>
        </g>
        <g id="delete_default" data-name="delete default">
          <path id="trash_path-2" data-name="trash path-2" class="cls-7" d="M32.21,15H16.05a2,2,0,0,0-1.45.64,2.05,2.05,0,0,0-.54,1.53L15.45,37.1a2,2,0,0,0,2,1.89H30.81a2,2,0,0,0,2-1.89L34.2,17.19a2.05,2.05,0,0,0-.54-1.53A2,2,0,0,0,32.21,15Zm0,2-1.4,20H17.45l-1.4-20Z"/>
          <path id="clap_path-2" data-name="clap path-2" class="cls-7" d="M15.05,13H33a1,1,0,0,0,0-2H15a1,1,0,0,0,0,2Z"/>
          <rect id="frame-51" class="cls-2" width="48" height="48"/>
        </g>
      </g>
      <g id="ic_lockElement" data-name="ic lockElement">
        <g id="lock_highlight" data-name="lock highlight">
          <rect id="frame-52" class="cls-2" width="48" height="48"/>
          <path class="cls-6" d="M34,12a2,2,0,0,1,2,2V34a2,2,0,0,1-2,2H14a2,2,0,0,1-2-2V14a2,2,0,0,1,2-2H34m0-2H14a4,4,0,0,0-4,4V34a4,4,0,0,0,4,4H34a4,4,0,0,0,4-4V14A4,4,0,0,0,34,10Z"/>
          <path class="cls-6" d="M30,20H29V19a5,5,0,0,0-10,0v1H18a1,1,0,0,0-1,1V31a1,1,0,0,0,1,1H30a1,1,0,0,0,1-1V21A1,1,0,0,0,30,20Zm-9-1a3,3,0,0,1,6,0v1H21Zm8,11H19V22H29Z"/>
        </g>
        <g id="lock_default" data-name="lock default">
          <rect id="frame-53" class="cls-2" width="48" height="48"/>
          <path class="cls-7" d="M30,20H29V19a5,5,0,0,0-10,0v1H18a1,1,0,0,0-1,1V31a1,1,0,0,0,1,1H30a1,1,0,0,0,1-1V21A1,1,0,0,0,30,20Zm-9-1a3,3,0,0,1,6,0v1H21Zm8,11H19V22H29Z"/>
          <path class="cls-7" d="M34,12a2,2,0,0,1,2,2V34a2,2,0,0,1-2,2H14a2,2,0,0,1-2-2V14a2,2,0,0,1,2-2H34m0-2H14a4,4,0,0,0-4,4V34a4,4,0,0,0,4,4H34a4,4,0,0,0,4-4V14A4,4,0,0,0,34,10Z"/>
        </g>
      </g>
      <g id="ic_lockCode" data-name="ic lockCode">
        <g id="locked_highlight" data-name="locked highlight">
          <rect id="frame-54" class="cls-2" width="48" height="48"/>
          <path class="cls-6" d="M36,9a7,7,0,0,0-7,6.91V18H14a1,1,0,0,0-1,1V37a1,1,0,0,0,1,1H34a1,1,0,0,0,1-1V19a1,1,0,0,0-1-1H31V15.91a5,5,0,0,1,9.94,0v4h2v-4A7,7,0,0,0,36,9ZM33,20V36H15V20Z"/>
        </g>
        <g id="locked_default" data-name="locked default">
          <rect id="frame-55" class="cls-2" width="48" height="48"/>
          <path class="cls-7" d="M34,18H31V15.91a7,7,0,1,0-14,0V18H14a1,1,0,0,0-1,1V37a1,1,0,0,0,1,1H34a1,1,0,0,0,1-1V19A1,1,0,0,0,34,18ZM19,15.91a5,5,0,1,1,10,0V18H19ZM33,36H15V20H33Z"/>
        </g>
      </g>
      <g id="ic_unlockCode" data-name="ic unlockCode">
        <g id="unlocked_highlight" data-name="unlocked highlight">
          <rect id="frame-56" class="cls-2" width="48" height="48"/>
          <path class="cls-6" d="M34,17H30.9V15.2a7.11,7.11,0,0,0-6-7.14,7,7,0,0,0-7.68,5.8,1,1,0,1,0,2,.3,4.94,4.94,0,0,1,5.7-4l.22,0a5,5,0,0,1,3.81,5V17H14a2,2,0,0,0-2,2V35a2,2,0,0,0,2,2H34a2,2,0,0,0,2-2V19A2,2,0,0,0,34,17Zm0,18H14V19H34Z"/>
        </g>
      </g>
      <g id="ic_undo" data-name="ic undo">
        <g id="undo_highlight" data-name="undo highlight">
          <path id="undo_arrow" data-name="undo arrow" class="cls-6" d="M24.05,22H13.47l5.36-5.37a1,1,0,0,0-1.41-1.42h0l-7.06,7.07a1,1,0,0,0,0,1.41l7.06,7.07a1,1,0,0,0,1.41,0h0a1,1,0,0,0,0-1.41L13.47,24H24.05q12,0,12,9a1,1,0,0,0,2,0C38,28,35.61,22,24.05,22Z"/>
          <rect id="frame-57" class="cls-2" width="48" height="48"/>
        </g>
        <g id="undo_default" data-name="undo default">
          <path id="undo_arrow-2" data-name="undo arrow-2" class="cls-7" d="M24.05,22H13.47l5.36-5.37a1,1,0,0,0-1.41-1.42h0l-7.06,7.07a1,1,0,0,0,0,1.41l7.06,7.07a1,1,0,0,0,1.41,0h0a1,1,0,0,0,0-1.41L13.47,24H24.05q12,0,12,9a1,1,0,0,0,2,0C38,28,35.61,22,24.05,22Z"/>
          <rect id="frame-58" class="cls-2" width="48" height="48"/>
        </g>
      </g>
      <g id="ic_redo" data-name="ic redo">
        <g id="redo_highlight" data-name="redo highlight">
          <path id="arrow" class="cls-6" d="M24.05,22H34.63l-5.36-5.37a1,1,0,0,1,1.41-1.41l7.07,7.07a1,1,0,0,1,0,1.41l-7.07,7.07a1,1,0,0,1-1.41-1.41L34.63,24H24.05q-12,0-12,9a1,1,0,0,1-2,0C10.05,28,12.48,22,24.05,22Z"/>
          <rect id="frame-59" class="cls-2" width="48" height="48"/>
        </g>
        <g id="redo_default" data-name="redo default">
          <path id="arrow-2" class="cls-7" d="M24.05,22H34.63l-5.36-5.37a1,1,0,0,1,1.41-1.41l7.07,7.07a1,1,0,0,1,0,1.41l-7.07,7.07a1,1,0,0,1-1.41-1.41L34.63,24H24.05q-12,0-12,9a1,1,0,0,1-2,0C10.05,28,12.48,22,24.05,22Z"/>
          <rect id="frame-60" class="cls-2" width="48" height="48"/>
        </g>
      </g>
      <g id="Warning">
        <g>
          <path class="cls-57" d="M24,13.11,35.6,34H12.4L24,13.11m0-3.06a1,1,0,0,0-.87.52l-13.3,24a1,1,0,0,0,.47,1.33,1,1,0,0,0,.4.1H37.3a1,1,0,0,0,.88-1.48l-13.3-24A1,1,0,0,0,24,10Z"/>
          <circle class="cls-57" cx="24.01" cy="30.99" r="1"/>
          <path class="cls-57" d="M24,18h0a1,1,0,0,1,1,1v8a1,1,0,0,1-1,1h0a1,1,0,0,1-1-1V19A1,1,0,0,1,24,18Z"/>
        </g>
      </g>
      <g id="Error">
        <g>
          <circle class="cls-58" cx="24.01" cy="30.44" r="1"/>
          <path class="cls-58" d="M24,17.48h0a1,1,0,0,1,1,1v8a1,1,0,0,1-1,1h0a1,1,0,0,1-1-1v-8A1,1,0,0,1,24,17.48Z"/>
          <path class="cls-58" d="M24,12A12,12,0,1,1,12,24,12,12,0,0,1,24,12m0-2A14,14,0,1,0,38,24,14,14,0,0,0,24,10Z"/>
        </g>
      </g>
      <g id="valid">
        <rect id="frame-61" class="cls-2" x="0.06" y="0.03" width="47.97" height="47.97"/>
      </g>
      <g id="Close">
        <g id="Close_highlight" data-name="Close highlight">
          <rect id="frame-62" class="cls-2" width="48" height="48"/>
          <path class="cls-6" d="M24,8A10,10,0,1,1,14,18,10,10,0,0,1,24,8m0-2A12,12,0,1,0,36,18,12,12,0,0,0,24,6Z"/>
          <path class="cls-6" d="M19.09,23a1,1,0,0,1,0-1.41L22.62,18l-3.56-3.57A1,1,0,0,1,20.47,13L24,16.61l3.54-3.54a1,1,0,0,1,1.44,0,1,1,0,0,1,0,1.43h0L25.45,18,29,21.53A1,1,0,0,1,27.59,23h0L24,19.44,20.5,23A1,1,0,0,1,19.09,23Z"/>
        </g>
        <g id="Close_default" data-name="Close default">
          <rect id="frame-63" class="cls-2" width="48" height="48"/>
          <path class="cls-7" d="M24,8A10,10,0,1,1,14,18,10,10,0,0,1,24,8m0-2A12,12,0,1,0,36,18,12,12,0,0,0,24,6Z"/>
          <path class="cls-7" d="M19.09,23a1,1,0,0,1,0-1.41L22.62,18l-3.56-3.57A1,1,0,0,1,20.47,13L24,16.61l3.54-3.54a1,1,0,0,1,1.44,0,1,1,0,0,1,0,1.43h0L25.45,18,29,21.53A1,1,0,0,1,27.59,23h0L24,19.44,20.5,23A1,1,0,0,1,19.09,23Z"/>
        </g>
      </g>
      <g id="ic_then" data-name="ic then">
        <path id="Arrow-3" class="cls-7" d="M25.12,18.28a.66.66,0,0,0,0,.93h0l3.59,3.59H17a.67.67,0,0,0-.75.58.68.68,0,0,0,.59.75H28.71l-3.59,3.59a.66.66,0,0,0,0,.93h0a.68.68,0,0,0,.95,0L30.79,24a.66.66,0,0,0,0-.93l0,0-4.72-4.72A.69.69,0,0,0,25.12,18.28Z"/>
      </g>
      <g id="ScrollArrows">
        <g id="ScrollDown">
          <rect id="frame-64" class="cls-2" y="16.5" width="48" height="15"/>
          <polyline class="cls-13" points="18 21.13 24 27.13 30 21.13"/>
        </g>
        <g id="ScrollUp">
          <rect id="frame-65" class="cls-2" y="16.5" width="48" height="15"/>
          <polyline class="cls-13" points="30 27.13 24 21.13 18 27.13"/>
        </g>
      </g>
      <g id="CC-BY-NC-ND">
        <g>
          <g id="BY">
            <path id="path37" d="M30.27,43.32a.18.18,0,0,0-.17-.18H29a.18.18,0,0,0-.17.18v1.13h.31v1.34H30V44.45h.31V43.32Z"/>
            <circle id="circle39" cx="29.53" cy="42.6" r="0.39"/>
            <path id="path41" class="cls-59" d="M29.53,41.24a2.63,2.63,0,0,0-2,.8,2.72,2.72,0,0,0-.82,2,2.81,2.81,0,0,0,2.77,2.77,2.78,2.78,0,0,0,2-4.73A2.62,2.62,0,0,0,29.53,41.24Zm0,.5a2.19,2.19,0,0,1,1.6.66,2.27,2.27,0,0,1-1.62,3.86A2.29,2.29,0,0,1,27.26,44a2.25,2.25,0,0,1,.68-1.6A2.17,2.17,0,0,1,29.53,41.74Z"/>
          </g>
          <path id="NC" d="M36.47,41.24a2.73,2.73,0,0,1,2.77,2.69V44a2.62,2.62,0,0,1-.79,2,2.77,2.77,0,0,1-4.74-2,2.69,2.69,0,0,1,.82-2A2.61,2.61,0,0,1,36.47,41.24Zm-2.14,2a2.34,2.34,0,0,0-.12.74,2.12,2.12,0,0,0,.67,1.59,2.16,2.16,0,0,0,1.6.67,2.34,2.34,0,0,0,2-1.16l-1-.46a.79.79,0,0,1-.77.61v.43H36.4v-.43a1.3,1.3,0,0,1-.84-.33l.38-.38a.81.81,0,0,0,.62.25c.16,0,.34-.06.34-.28a.21.21,0,0,0-.08-.16l-.26-.12-.33-.15-.44-.19Zm2.15-1.52a2.15,2.15,0,0,0-1.59.66,2.76,2.76,0,0,0-.31.37l1.05.47a.77.77,0,0,1,.72-.49v-.42h.31v.42a1.18,1.18,0,0,1,.7.26l-.36.37a.84.84,0,0,0-.48-.16c-.13,0-.33,0-.33.21a.09.09,0,0,0,0,.07l.35.16.24.11.44.19,1.42.64a2.46,2.46,0,0,0,.07-.6,2.25,2.25,0,0,0-2.24-2.26h0Z"/>
          <g id="ND">
            <path id="path1334" d="M43.35,41.24a2.8,2.8,0,1,0,.07,0Zm0,.47h.07a2.26,2.26,0,1,1-.07,0Z"/>
            <path id="rect1338" d="M42.45,43.35h2v.5h-2Zm0,.9h2v.5h-2Z"/>
          </g>
          <g id="CC">
            <path id="path2554" class="cls-59" d="M22.58,41.23a2.64,2.64,0,0,0-1.94.81,2.79,2.79,0,0,0,1.94,4.77,2.82,2.82,0,0,0,2-.82,2.78,2.78,0,0,0-2-4.72Zm0,.5A2.25,2.25,0,0,1,24.85,44v0a2.19,2.19,0,0,1-.64,1.59,2.29,2.29,0,0,1-1.62.67,2.27,2.27,0,0,1-1.65-3.81l.06-.06a2.17,2.17,0,0,1,1.59-.66Z"/>
            <path id="path2556" class="cls-59" d="M22.55,43.54a.79.79,0,0,0-.73-.4.8.8,0,0,0-.82.78V44a.79.79,0,0,0,.72.86h.11a.81.81,0,0,0,.72-.43l-.34-.18a.33.33,0,0,1-.34.24c-.26,0-.37-.21-.37-.49s.1-.49.37-.49a.36.36,0,0,1,.31.23Z"/>
            <path id="path2558" class="cls-59" d="M24.15,43.54a.79.79,0,0,0-.73-.4.8.8,0,0,0-.81.79V44a.79.79,0,0,0,.69.86h.13a.83.83,0,0,0,.73-.43l-.34-.18a.34.34,0,0,1-.34.24c-.26,0-.37-.21-.37-.49s.09-.49.37-.49a.33.33,0,0,1,.3.23Z"/>
          </g>
        </g>
      </g>
    </g>
  </g>
</svg>
