<!-- Icons under CC-BY-ND-NC license-->
<svg xmlns="http://www.w3.org/2000/svg" xmlns:xlink="http://www.w3.org/1999/xlink" viewBox="0 0 48 48.01">
  <defs>
    <style>
      .cls-1 {
        fill: url(#radial-gradient);
      }

      .cls-10, .cls-2 {
        fill: #fff;
      }

      .cls-15, .cls-16, .cls-3, .cls-7, .cls-8, .cls-9 {
        fill: none;
      }

      .cls-4 {
        fill: #90a4ae;
      }

      .cls-5 {
        fill: #6200ea;
      }

      .cls-6 {
        fill: #455a64;
      }

      .cls-10, .cls-15, .cls-7, .cls-9 {
        stroke: #6200ea;
      }

      .cls-7, .cls-8 {
        stroke-linecap: round;
      }

      .cls-7, .cls-8, .cls-9 {
        stroke-linejoin: round;
      }

      .cls-10, .cls-11, .cls-15, .cls-16, .cls-7, .cls-8, .cls-9 {
        stroke-width: 2px;
      }

      .cls-11, .cls-16, .cls-8 {
        stroke: #455a64;
      }

      .cls-8 {
        opacity: 0.5;
      }

      .cls-10, .cls-11, .cls-15, .cls-16 {
        stroke-miterlimit: 10;
      }

      .cls-11, .cls-14 {
        fill: #84edcf;
      }

      .cls-12 {
        fill: #ff5252;
      }

      .cls-13 {
        fill: #ffeb3b;
      }

      .cls-17 {
        fill: #b0bec5;
      }

      .cls-18 {
        fill: #ffd600;
      }

      .cls-19 {
        fill: #ff1744;
      }

      .cls-20 {
        fill-rule: evenodd;
      }
    </style>
    <radialGradient id="radial-gradient" cx="24" cy="24.01" r="24" gradientUnits="userSpaceOnUse">
      <stop offset="0.6" stop-color="#6200ea"/>
      <stop offset="1" stop-color="#6200ea" stop-opacity="0"/>
    </radialGradient>
  </defs>
  <title>icons_Asset 104</title>
  <g id="Layer_2" data-name="Layer 2">
    <g id="Pressed_bg">
      <circle id="shadow" class="cls-1" cx="24" cy="24.01" r="24"/>
      <circle id="whiteCircle" class="cls-2" cx="24" cy="24.01" r="22"/>
      <rect id="frame" class="cls-3" y="0.01" width="48" height="48"/>
    </g>
    <g id="Circle_bg">
      <g id="Circle">
        <path class="cls-4" d="M24,3A21,21,0,1,1,3,24,21,21,0,0,1,24,3m0-1A22,22,0,1,0,46,24,22,22,0,0,0,24,2Z"/>
      </g>
      <rect id="frame-2" data-name="frame" class="cls-3" y="0.01" width="48" height="48"/>
    </g>
    <g id="Selected_bg">
      <circle class="cls-2" cx="24" cy="24.01" r="22"/>
      <rect id="frame-3" data-name="frame" class="cls-3" y="0.01" width="48" height="48"/>
    </g>
    <g id="ic_about">
      <g id="about_highlight">
        <rect id="frame-4" data-name="frame" class="cls-3" y="0.01" width="48" height="48"/>
        <circle class="cls-5" cx="24" cy="18.58" r="1"/>
        <rect class="cls-5" x="23" y="21.54" width="2" height="10" rx="1" transform="translate(48.01 53.07) rotate(-180)"/>
        <rect id="frame-5" data-name="frame" class="cls-3" y="0.01" width="48" height="48" transform="translate(48 48.02) rotate(180)"/>
        <path class="cls-5" d="M34.5,13.32H16.15L11.7,8.88A1,1,0,0,0,10,9.59v23.1a3.5,3.5,0,0,0,3.5,3.5h21a3.5,3.5,0,0,0,3.5-3.5V16.82A3.5,3.5,0,0,0,34.5,13.32ZM36,32.69a1.51,1.51,0,0,1-1.5,1.5h-21a1.51,1.51,0,0,1-1.5-1.5V12l3.33,3.31H34.5A1.51,1.51,0,0,1,36,16.83Z"/>
      </g>
      <g id="about_default">
        <rect id="frame-6" data-name="frame" class="cls-3" y="0.01" width="48" height="48"/>
        <circle class="cls-6" cx="24" cy="18.58" r="1"/>
        <rect class="cls-6" x="23" y="21.54" width="2" height="10" rx="1" transform="translate(48.01 53.07) rotate(-180)"/>
        <rect id="frame-7" data-name="frame" class="cls-3" y="0.01" width="48" height="48" transform="translate(48 48.02) rotate(180)"/>
        <path class="cls-6" d="M34.5,13.32H16.15L11.7,8.88A1,1,0,0,0,10,9.59v23.1a3.5,3.5,0,0,0,3.5,3.5h21a3.5,3.5,0,0,0,3.5-3.5V16.82A3.5,3.5,0,0,0,34.5,13.32ZM36,32.69a1.51,1.51,0,0,1-1.5,1.5h-21a1.51,1.51,0,0,1-1.5-1.5V12l3.33,3.31H34.5A1.51,1.51,0,0,1,36,16.83Z"/>
      </g>
    </g>
    <g id="ic_new">
      <g id="new2_highlight">
        <rect id="frame-8" data-name="frame" class="cls-3" y="0.01" width="48" height="48"/>
        <path class="cls-5" d="M34,10H22.83a2,2,0,0,0-1.41.58L20,12l-6,6-1.41,1.41a2,2,0,0,0-.54,1,1.84,1.84,0,0,0-.05.41V36a2,2,0,0,0,2,2H34a2,2,0,0,0,2-2V12A2,2,0,0,0,34,10ZM22,12.84V20H14.83ZM34,36H14V22h8a2,2,0,0,0,2-2V12H34Z"/>
      </g>
      <g id="new2_default">
        <rect id="frame-9" data-name="frame" class="cls-3" y="0.01" width="48" height="48"/>
        <path class="cls-6" d="M34,10H22.83a2,2,0,0,0-1.41.58L20,12l-6,6-1.41,1.41a2,2,0,0,0-.54,1,1.84,1.84,0,0,0-.05.41V36a2,2,0,0,0,2,2H34a2,2,0,0,0,2-2V12A2,2,0,0,0,34,10ZM22,12.84V20H14.83ZM34,36H14V22h8a2,2,0,0,0,2-2V12H34Z"/>
      </g>
    </g>
    <g id="ic_download">
      <g id="download_highlight">
        <path class="cls-5" d="M31.78,23.23a1,1,0,0,0-1.41,0L25,28.6V11a1,1,0,1,0-2,0V28.59l-5.36-5.36a1,1,0,0,0-1.42,0,1,1,0,0,0,0,1.41l7.07,7.07a1,1,0,0,0,1.42,0l7.07-7.07A1,1,0,0,0,31.78,23.23Z"/>
        <rect class="cls-5" x="14" y="34.01" width="20" height="2" rx="1"/>
        <rect id="frame-10" data-name="frame" class="cls-3" y="0.01" width="48" height="48"/>
      </g>
      <g id="download_default">
        <path class="cls-6" d="M31.78,23.23a1,1,0,0,0-1.41,0L25,28.6V11a1,1,0,1,0-2,0V28.59l-5.36-5.36a1,1,0,0,0-1.42,0,1,1,0,0,0,0,1.41l7.07,7.07a1,1,0,0,0,1.42,0l7.07-7.07A1,1,0,0,0,31.78,23.23Z"/>
        <rect class="cls-6" x="14" y="34.01" width="20" height="2" rx="1"/>
        <rect id="frame-11" data-name="frame" class="cls-3" y="0.01" width="48" height="48"/>
      </g>
    </g>
    <g id="ic_open">
      <g id="open_highlight">
        <path class="cls-5" d="M16.22,24.79a1,1,0,0,0,1.41,0L23,19.42V37a1,1,0,0,0,2,0V19.42l5.36,5.37a1,1,0,0,0,1.42-1.42L24.71,16.3a1,1,0,0,0-1.42,0l-7.07,7.07A1,1,0,0,0,16.22,24.79Z"/>
        <rect class="cls-5" x="14" y="12.01" width="20" height="2" rx="1" transform="translate(48 26.01) rotate(180)"/>
        <rect id="frame-12" data-name="frame" class="cls-3" y="0.01" width="48" height="48"/>
      </g>
      <g id="open_default">
        <path class="cls-6" d="M16.22,24.79a1,1,0,0,0,1.41,0L23,19.42V37a1,1,0,0,0,2,0V19.42l5.36,5.37a1,1,0,0,0,1.42-1.42L24.71,16.3a1,1,0,0,0-1.42,0l-7.07,7.07A1,1,0,0,0,16.22,24.79Z"/>
        <rect class="cls-6" x="14" y="12.01" width="20" height="2" rx="1" transform="translate(48 26.01) rotate(180)"/>
        <rect id="frame-13" data-name="frame" class="cls-3" y="0.01" width="48" height="48"/>
      </g>
    </g>
    <g id="ic_uisettings">
      <g id="uiSettings_highlight">
        <g id="icon_UI_settings">
          <path class="cls-5" d="M27.59,16.63a4.88,4.88,0,1,0,4.88,4.88A4.87,4.87,0,0,0,27.59,16.63Zm0,7.75a2.88,2.88,0,1,1,2.88-2.87A2.88,2.88,0,0,1,27.59,24.38Z"/>
          <path class="cls-5" d="M36.39,22.5a6.5,6.5,0,0,0,.08-1,6.74,6.74,0,0,0-.08-1l1.21-.91a1,1,0,0,0,.27-1.3L35.5,14.21a1,1,0,0,0-1.25-.42l-1.41.6a9.3,9.3,0,0,0-1.71-1L31,11.89A1,1,0,0,0,30,11H25.23a1,1,0,0,0-1,.88l-.19,1.5a8.91,8.91,0,0,0-1.7,1l-1.41-.6a1,1,0,0,0-1.26.42L17.32,18.3a1,1,0,0,0,.26,1.3l1.21.91a8.4,8.4,0,0,0-.07,1,8.09,8.09,0,0,0,.07,1l-1.21.91a1,1,0,0,0-.26,1.3l2.36,4.09a1,1,0,0,0,1.26.42l1.41-.6a8.91,8.91,0,0,0,1.7,1l.19,1.51a1,1,0,0,0,1,.88H30a1,1,0,0,0,1-.88l.18-1.51a9.3,9.3,0,0,0,1.71-1l1.41.6a1,1,0,0,0,1.25-.42l2.37-4.09a1,1,0,0,0-.27-1.3Zm-2.06-2.26,0,.15a6.58,6.58,0,0,1,.12,1.12,6.58,6.58,0,0,1-.12,1.11l0,.15a1,1,0,0,0,.38,1l1,.74L34.22,27l-1.15-.48a1,1,0,0,0-1,.15l-.12.09A6.55,6.55,0,0,1,30,27.92l-.14,0a1,1,0,0,0-.64.82L29.07,30H26.12L26,28.79a1,1,0,0,0-.64-.81l-.14-.06a6.55,6.55,0,0,1-1.93-1.13l-.12-.09a1,1,0,0,0-1-.15L21,27l-1.48-2.55,1-.74a1,1,0,0,0,.39-1l0-.14a6.71,6.71,0,0,1-.11-1.12,6.52,6.52,0,0,1,.11-1.12l0-.15a1,1,0,0,0-.39-1l-1-.74L21,16l1.14.48a1,1,0,0,0,1-.14l.11-.1a7.22,7.22,0,0,1,1.94-1.13l.14-.05a1,1,0,0,0,.64-.82L26.12,13h2.95l.15,1.21a1,1,0,0,0,.63.82l.15.05a7,7,0,0,1,1.93,1.13l.12.1a1,1,0,0,0,1,.14L34.22,16l1.47,2.55-1,.74A1,1,0,0,0,34.33,20.24Z"/>
          <path class="cls-5" d="M36,30a1,1,0,0,0-1,1v3H11V14h7a1,1,0,0,0,0-2H10a1,1,0,0,0-1,1V35a1,1,0,0,0,1,1H36a1,1,0,0,0,1-1V31A1,1,0,0,0,36,30Z"/>
        </g>
        <rect id="frame-14" data-name="frame" class="cls-3" y="0.01" width="48" height="48"/>
      </g>
      <g id="uiSettings_default">
        <g id="icon_UI_settings-2" data-name="icon_UI_settings">
          <path class="cls-6" d="M27.59,16.63a4.88,4.88,0,1,0,4.88,4.88A4.87,4.87,0,0,0,27.59,16.63Zm0,7.75a2.88,2.88,0,1,1,2.88-2.87A2.88,2.88,0,0,1,27.59,24.38Z"/>
          <path class="cls-6" d="M36.39,22.5a6.5,6.5,0,0,0,.08-1,6.74,6.74,0,0,0-.08-1l1.21-.91a1,1,0,0,0,.27-1.3L35.5,14.21a1,1,0,0,0-1.25-.42l-1.41.6a9.3,9.3,0,0,0-1.71-1L31,11.89A1,1,0,0,0,30,11H25.23a1,1,0,0,0-1,.88l-.19,1.5a8.91,8.91,0,0,0-1.7,1l-1.41-.6a1,1,0,0,0-1.26.42L17.32,18.3a1,1,0,0,0,.26,1.3l1.21.91a8.4,8.4,0,0,0-.07,1,8.09,8.09,0,0,0,.07,1l-1.21.91a1,1,0,0,0-.26,1.3l2.36,4.09a1,1,0,0,0,1.26.42l1.41-.6a8.91,8.91,0,0,0,1.7,1l.19,1.51a1,1,0,0,0,1,.88H30a1,1,0,0,0,1-.88l.18-1.51a9.3,9.3,0,0,0,1.71-1l1.41.6a1,1,0,0,0,1.25-.42l2.37-4.09a1,1,0,0,0-.27-1.3Zm-2.06-2.26,0,.15a6.58,6.58,0,0,1,.12,1.12,6.58,6.58,0,0,1-.12,1.11l0,.15a1,1,0,0,0,.38,1l1,.74L34.22,27l-1.15-.48a1,1,0,0,0-1,.15l-.12.09A6.55,6.55,0,0,1,30,27.92l-.14,0a1,1,0,0,0-.64.82L29.07,30H26.12L26,28.79a1,1,0,0,0-.64-.81l-.14-.06a6.55,6.55,0,0,1-1.93-1.13l-.12-.09a1,1,0,0,0-1-.15L21,27l-1.48-2.55,1-.74a1,1,0,0,0,.39-1l0-.14a6.71,6.71,0,0,1-.11-1.12,6.52,6.52,0,0,1,.11-1.12l0-.15a1,1,0,0,0-.39-1l-1-.74L21,16l1.14.48a1,1,0,0,0,1-.14l.11-.1a7.22,7.22,0,0,1,1.94-1.13l.14-.05a1,1,0,0,0,.64-.82L26.12,13h2.95l.15,1.21a1,1,0,0,0,.63.82l.15.05a7,7,0,0,1,1.93,1.13l.12.1a1,1,0,0,0,1,.14L34.22,16l1.47,2.55-1,.74A1,1,0,0,0,34.33,20.24Z"/>
          <path class="cls-6" d="M36,30a1,1,0,0,0-1,1v3H11V14h7a1,1,0,0,0,0-2H10a1,1,0,0,0-1,1V35a1,1,0,0,0,1,1H36a1,1,0,0,0,1-1V31A1,1,0,0,0,36,30Z"/>
        </g>
        <rect id="frame-15" data-name="frame" class="cls-3" y="0.01" width="48" height="48"/>
      </g>
    </g>
    <g id="ic_clearSettings">
      <g id="clearSettings_highlight">
        <rect id="frame-16" data-name="frame" class="cls-3" y="0.01" width="48" height="48"/>
        <g id="icon_clear_settings">
          <path class="cls-5" d="M14.41,29.75l-1.1-1.9,1.44-1.09a1,1,0,0,0,.39-1l0-.19A9.05,9.05,0,0,1,15,24.13a9,9,0,0,1,.15-1.47l0-.19a1,1,0,0,0-.39-1l-1.44-1.08,2.13-3.69,1.68.72a1,1,0,0,0,1-.15l.15-.12a9.15,9.15,0,0,1,2.54-1.49l.19-.06a1,1,0,0,0,.64-.82L21.87,13h4.26l.21,1.79a1,1,0,0,0,.64.82l1.21.46.73-1.86L28.26,14,28,11.9A1,1,0,0,0,27,11H21a1,1,0,0,0-1,.88L19.74,14a10.75,10.75,0,0,0-2.39,1.4l-1.94-.83a1,1,0,0,0-1.26.42l-3,5.21a1,1,0,0,0,.27,1.3l1.67,1.26a8.9,8.9,0,0,0,0,2.79L11.4,26.78a1,1,0,0,0-.27,1.3l1.54,2.67Z"/>
          <path class="cls-5" d="M34.93,25.53a8.9,8.9,0,0,0,0-2.79l1.67-1.26a1,1,0,0,0,.27-1.3l-2.75-4.75,1.9-1.9a1,1,0,0,0,0-1.42,1,1,0,0,0-1.41,0L31.71,15h0L14.85,31.87h0L12,34.73a1,1,0,0,0,1.41,1.42l2.74-2.74,1.21-.52a10.75,10.75,0,0,0,2.39,1.4L20,36.37a1,1,0,0,0,1,.88h6a1,1,0,0,0,1-.88l.25-2.08a10.75,10.75,0,0,0,2.39-1.4l1.94.83a1,1,0,0,0,1.26-.42l3-5.22a1,1,0,0,0-.27-1.3ZM27.59,22a4.11,4.11,0,0,1,.63,2.17A4.22,4.22,0,0,1,24,28.35a4.17,4.17,0,0,1-2.18-.62Zm5.27.51,0,.19A8.83,8.83,0,0,1,33,24.13a9.05,9.05,0,0,1-.15,1.48l0,.19a1,1,0,0,0,.39,1l1.44,1.09-2.13,3.68-1.68-.71a1,1,0,0,0-1,.15l-.15.12a8.87,8.87,0,0,1-2.54,1.48l-.19.07a1,1,0,0,0-.64.82l-.21,1.79H21.87l-.21-1.79a1,1,0,0,0-.64-.82l-.19-.07a8.85,8.85,0,0,1-2.44-1.41l2-2A6.2,6.2,0,0,0,29,20.51l3.62-3.62,2,3.53L33.25,21.5A1,1,0,0,0,32.86,22.47Z"/>
          <path class="cls-5" d="M17.78,24.13A6.27,6.27,0,0,0,18,25.82l1.77-1.77a4.22,4.22,0,0,1,4.13-4.13l1.77-1.77a6.23,6.23,0,0,0-7.91,6Z"/>
        </g>
      </g>
      <g id="clearSettings_default">
        <rect id="frame-17" data-name="frame" class="cls-3" y="0.01" width="48" height="48"/>
        <g id="icon_clear_settings-2" data-name="icon_clear_settings">
          <path class="cls-6" d="M14.41,29.75l-1.1-1.9,1.44-1.09a1,1,0,0,0,.39-1l0-.19A9.05,9.05,0,0,1,15,24.13a9,9,0,0,1,.15-1.47l0-.19a1,1,0,0,0-.39-1l-1.44-1.08,2.13-3.69,1.68.72a1,1,0,0,0,1-.15l.15-.12a9.15,9.15,0,0,1,2.54-1.49l.19-.06a1,1,0,0,0,.64-.82L21.87,13h4.26l.21,1.79a1,1,0,0,0,.64.82l1.21.46.73-1.86L28.26,14,28,11.9A1,1,0,0,0,27,11H21a1,1,0,0,0-1,.88L19.74,14a10.75,10.75,0,0,0-2.39,1.4l-1.94-.83a1,1,0,0,0-1.26.42l-3,5.21a1,1,0,0,0,.27,1.3l1.67,1.26a8.9,8.9,0,0,0,0,2.79L11.4,26.78a1,1,0,0,0-.27,1.3l1.54,2.67Z"/>
          <path class="cls-6" d="M34.93,25.53a8.9,8.9,0,0,0,0-2.79l1.67-1.26a1,1,0,0,0,.27-1.3l-2.75-4.75,1.9-1.9a1,1,0,0,0,0-1.42,1,1,0,0,0-1.41,0L31.71,15h0L14.85,31.87h0L12,34.73a1,1,0,0,0,1.41,1.42l2.74-2.74,1.21-.52a10.75,10.75,0,0,0,2.39,1.4L20,36.37a1,1,0,0,0,1,.88h6a1,1,0,0,0,1-.88l.25-2.08a10.75,10.75,0,0,0,2.39-1.4l1.94.83a1,1,0,0,0,1.26-.42l3-5.22a1,1,0,0,0-.27-1.3ZM27.59,22a4.11,4.11,0,0,1,.63,2.17A4.22,4.22,0,0,1,24,28.35a4.17,4.17,0,0,1-2.18-.62Zm5.27.51,0,.19A8.83,8.83,0,0,1,33,24.13a9.05,9.05,0,0,1-.15,1.48l0,.19a1,1,0,0,0,.39,1l1.44,1.09-2.13,3.68-1.68-.71a1,1,0,0,0-1,.15l-.15.12a8.87,8.87,0,0,1-2.54,1.48l-.19.07a1,1,0,0,0-.64.82l-.21,1.79H21.87l-.21-1.79a1,1,0,0,0-.64-.82l-.19-.07a8.85,8.85,0,0,1-2.44-1.41l2-2A6.2,6.2,0,0,0,29,20.51l3.62-3.62,2,3.53L33.25,21.5A1,1,0,0,0,32.86,22.47Z"/>
          <path class="cls-6" d="M17.78,24.13A6.27,6.27,0,0,0,18,25.82l1.77-1.77a4.22,4.22,0,0,1,4.13-4.13l1.77-1.77a6.23,6.23,0,0,0-7.91,6Z"/>
        </g>
      </g>
    </g>
    <g id="ic_TextMode">
      <g id="textMode_highlight">
        <rect id="frame-18" data-name="frame" class="cls-3" y="0.01" width="48" height="48"/>
        <path class="cls-5" d="M37,11H11a2,2,0,0,0-2,2V34a2,2,0,0,0,2,2H37a2,2,0,0,0,2-2V13A2,2,0,0,0,37,11Zm0,23H11V15H37Z"/>
        <path class="cls-5" d="M28.63,27.4,25.23,24l3.4-3.4a1,1,0,1,0-1.42-1.42L24,22.39,20.8,19.18a1,1,0,1,0-1.41,1.42l3.4,3.4-3.4,3.4a1,1,0,0,0,.71,1.71,1,1,0,0,0,.7-.3L24,25.61l3.21,3.2a1,1,0,0,0,1.41,0A1,1,0,0,0,28.63,27.4Z"/>
      </g>
      <g id="textMode_default">
        <rect id="frame-19" data-name="frame" class="cls-3" y="0.01" width="48" height="48"/>
        <path class="cls-6" d="M37,11H11a2,2,0,0,0-2,2V34a2,2,0,0,0,2,2H37a2,2,0,0,0,2-2V13A2,2,0,0,0,37,11Zm0,23H11V15H37Z"/>
        <path class="cls-6" d="M20.61,29.11a1,1,0,0,1-.7-.3L15.79,24.7a1,1,0,0,1-.29-.7,1,1,0,0,1,.29-.71l4.11-4.11a1,1,0,0,1,1.41,1.42L17.92,24l3.4,3.4a1,1,0,0,1-.71,1.71Z"/>
        <path class="cls-6" d="M27.4,29.11a1,1,0,0,1-.71-.3,1,1,0,0,1,0-1.41l3.4-3.4-3.41-3.4a1,1,0,0,1,1.42-1.42l4.11,4.12a1,1,0,0,1,.29.7,1,1,0,0,1-.29.71l-4.11,4.1A1,1,0,0,1,27.4,29.11Z"/>
      </g>
    </g>
    <g id="ic_basicMode">
      <g id="basicMode_default">
        <polyline class="cls-7" points="38 26.41 24 34.81 10 26.41"/>
        <rect id="frame-20" data-name="frame" class="cls-3" y="0.01" width="48" height="48"/>
        <polygon class="cls-8" points="10 20.41 24 12.01 38 20.41 24 28.81 10 20.41"/>
      </g>
    </g>
    <g id="ic_mediumMode">
      <g id="mediumMode_default">
        <polyline class="cls-7" points="10 26.41 24 34.81 38 26.41"/>
        <rect id="frame-21" data-name="frame" class="cls-3" y="0.01" width="48" height="48"/>
        <polygon class="cls-9" points="24 28.81 10 20.41 24 12.01 38 20.41 24 28.81"/>
      </g>
    </g>
    <g id="ic_Help">
      <g id="help_highlight">
        <g id="help">
          <path class="cls-5" d="M25.17,15.19a5,5,0,0,0-4.28,1A4.89,4.89,0,0,0,19,20a1,1,0,0,0,2,0,2.9,2.9,0,0,1,1.13-2.31A3,3,0,1,1,25,22.88a3.13,3.13,0,0,0-2,3V28a1,1,0,0,0,2,0V25.85a1.13,1.13,0,0,1,.68-1.08,5,5,0,0,0,3.19-5.88A5,5,0,0,0,25.17,15.19Z"/>
          <path class="cls-5" d="M24,11A13,13,0,1,1,11,24,13,13,0,0,1,24,11m0-2A15,15,0,1,0,39,24,15,15,0,0,0,24,9Z"/>
          <rect class="cls-5" x="23" y="31.03" width="2" height="2" rx="0.4"/>
        </g>
        <rect id="frame-22" data-name="frame" class="cls-3" y="0.01" width="48" height="48"/>
      </g>
      <g id="help_default">
        <g id="help-2" data-name="help">
          <path class="cls-6" d="M25.17,15.19a5,5,0,0,0-4.28,1A4.89,4.89,0,0,0,19,20a1,1,0,0,0,2,0,2.9,2.9,0,0,1,1.13-2.31A3,3,0,1,1,25,22.88a3.13,3.13,0,0,0-2,3V28a1,1,0,0,0,2,0V25.85a1.13,1.13,0,0,1,.68-1.08,5,5,0,0,0,3.19-5.88A5,5,0,0,0,25.17,15.19Z"/>
          <path class="cls-6" d="M24,11A13,13,0,1,1,11,24,13,13,0,0,1,24,11m0-2A15,15,0,1,0,39,24,15,15,0,0,0,24,9Z"/>
          <rect class="cls-6" x="23" y="31.03" width="2" height="2" rx="0.4"/>
        </g>
        <rect id="frame-23" data-name="frame" class="cls-3" y="0.01" width="48" height="48"/>
      </g>
    </g>
    <g id="ic_play">
      <g id="play_highlight">
        <circle class="cls-10" cx="24" cy="24.01" r="20.5"/>
        <path class="cls-5" d="M19,34a1.93,1.93,0,0,1-1-.26A2,2,0,0,1,17,32V16a2,2,0,0,1,1-1.75,2,2,0,0,1,2,0l13,8A2,2,0,0,1,34,24a2,2,0,0,1-1,1.7l-13,8A2,2,0,0,1,19,34Zm0-18V32h0l13-8Z"/>
        <rect id="frame-24" data-name="frame" class="cls-3" width="48" height="48"/>
      </g>
      <g id="play_default">
        <circle class="cls-11" cx="24" cy="24.01" r="20.5"/>
        <path class="cls-6" d="M19,34a1.93,1.93,0,0,1-1-.26A2,2,0,0,1,17,32V16a2,2,0,0,1,1-1.75,2,2,0,0,1,2,0l13,8A2,2,0,0,1,34,24a2,2,0,0,1-1,1.7l-13,8A2,2,0,0,1,19,34Zm0-18V32h0l13-8Z"/>
        <rect id="frame-25" data-name="frame" class="cls-3" width="48" height="48"/>
        <polygon class="cls-2" points="31.95 24 19.05 16.06 19.05 31.94 31.95 24"/>
      </g>
    </g>
    <g id="ic_Stop">
      <g id="stop_highlight">
        <rect id="frame-26" data-name="frame" class="cls-3" y="0.01" width="48" height="48"/>
        <g>
          <rect class="cls-12" x="16" y="16.01" width="16" height="16"/>
          <path class="cls-5" d="M31.65,34H16.35A2.35,2.35,0,0,1,14,31.66V16.36A2.35,2.35,0,0,1,16.35,14h15.3A2.35,2.35,0,0,1,34,16.36v15.3A2.36,2.36,0,0,1,31.65,34ZM16,16h0V32H32V16Z"/>
        </g>
      </g>
      <g id="stop_default">
        <rect id="frame-27" data-name="frame" class="cls-3" y="0.01" width="48" height="48"/>
        <g>
          <rect class="cls-12" x="16" y="16.01" width="16" height="16"/>
          <path class="cls-6" d="M31.65,34H16.35A2.35,2.35,0,0,1,14,31.66V16.36A2.35,2.35,0,0,1,16.35,14h15.3A2.35,2.35,0,0,1,34,16.36v15.3A2.36,2.36,0,0,1,31.65,34ZM16,16h0V32H32V16Z"/>
        </g>
      </g>
    </g>
    <g id="ic_reloadProgram">
      <g id="reload_highlight">
        <path class="cls-5" d="M19,34a2,2,0,0,1-2-2V16a2,2,0,0,1,1-1.75,2,2,0,0,1,2,0l13,8a2,2,0,0,1,0,3.41l-13,8A2.06,2.06,0,0,1,19,34Zm0-18V32h0l13-8Z"/>
        <rect id="frame-28" data-name="frame" class="cls-3" y="0.01" width="48" height="48"/>
        <polygon class="cls-13" points="32 24.01 19 16.01 19 32.01 32 24.01"/>
        <path class="cls-5" d="M35.62,17a1,1,0,0,0,1,1h8a1,1,0,0,0,1-1V9a1,1,0,0,0-2,0v5.85a21.49,21.49,0,1,0,2,9,1,1,0,1,0-2,0A19.51,19.51,0,1,1,42,16H36.62A1,1,0,0,0,35.62,17Z"/>
      </g>
      <g id="reload_default">
        <path class="cls-6" d="M19,34a2,2,0,0,1-2-2V16a2,2,0,0,1,1-1.75,2,2,0,0,1,2,0l13,8a2,2,0,0,1,0,3.41l-13,8A2.06,2.06,0,0,1,19,34Zm0-18V32h0l13-8Z"/>
        <rect id="frame-29" data-name="frame" class="cls-3" y="0.01" width="48" height="48"/>
        <polygon class="cls-14" points="32 24.01 19 16.01 19 32.01 32 24.01"/>
        <path class="cls-6" d="M35.62,17a1,1,0,0,0,1,1h8a1,1,0,0,0,1-1V9a1,1,0,0,0-2,0v5.85a21.49,21.49,0,1,0,2,9,1,1,0,1,0-2,0A19.51,19.51,0,1,1,42,16H36.62A1,1,0,0,0,35.62,17Z"/>
      </g>
    </g>
    <g id="ic_pause">
      <g id="pause_highlight">
        <rect id="frame-30" data-name="frame" class="cls-3" y="0.01" width="48" height="48"/>
        <g id="pause">
          <rect class="cls-5" x="26" y="16.14" width="4" height="16" rx="2"/>
          <rect class="cls-5" x="18" y="16.14" width="4" height="16" rx="2"/>
        </g>
        <circle class="cls-15" cx="24" cy="24.01" r="16"/>
      </g>
      <g id="pause_default">
        <rect id="frame-31" data-name="frame" class="cls-3" y="0.01" width="48" height="48"/>
        <g id="pause-2" data-name="pause">
          <circle class="cls-16" cx="24" cy="24.01" r="16"/>
          <rect class="cls-6" x="26" y="16.14" width="4" height="16" rx="2"/>
          <rect class="cls-6" x="18" y="16.14" width="4" height="16" rx="2"/>
        </g>
      </g>
    </g>
    <g id="ic_connect">
      <g id="robotConnect_default">
        <path class="cls-6" d="M36,23H12a2,2,0,0,0-2,2v9a2,2,0,0,0,2,2h2a6.29,6.29,0,0,0,1.54,1.71l.06.05a5.25,5.25,0,0,0,.58.38l.06,0a6.13,6.13,0,0,0,1.37.58l.19,0,.55.11.21,0a5.73,5.73,0,0,0,1.51,0l.21,0,.55-.11.19,0a6.13,6.13,0,0,0,1.37-.58l.06,0a5.25,5.25,0,0,0,.58-.38l.06,0A6.48,6.48,0,0,0,24.65,36H36a2,2,0,0,0,2-2V25A2,2,0,0,0,36,23ZM22.89,35a1.88,1.88,0,0,1-.16.23,4.16,4.16,0,0,1-.32.39.86.86,0,0,1-.13.14,4.77,4.77,0,0,1-.54.45l-.12.08c-.2.12-.4.23-.61.33l-.05,0a3.26,3.26,0,0,1-.71.22l-.15,0a3.7,3.7,0,0,1-1.53,0l-.16,0a3.35,3.35,0,0,1-.7-.22l-.05,0a5.92,5.92,0,0,1-.61-.33l-.12-.08a4,4,0,0,1-.54-.45.86.86,0,0,1-.13-.14,4.16,4.16,0,0,1-.32-.39,1.88,1.88,0,0,1-.16-.23,4.13,4.13,0,0,1-.67-2.25,4.23,4.23,0,1,1,8.45,0A4.13,4.13,0,0,1,22.89,35ZM36,34H25.44a7.1,7.1,0,0,0,.12-1.22,6.23,6.23,0,1,0-12.45,0A7.1,7.1,0,0,0,13.23,34H12V25H36Z"/>
        <path class="cls-5" d="M33.5,12a2.49,2.49,0,0,0-2.3,1.53H16.81a2.52,2.52,0,1,0,0,2H31.23A2.5,2.5,0,1,0,33.5,12Z"/>
        <rect id="frame-32" data-name="frame" class="cls-3" y="0.01" width="48" height="48"/>
      </g>
    </g>
    <g id="ic_code_running">
      <rect id="frame-33" data-name="frame" class="cls-3" width="48" height="48"/>
      <g id="running_default">
        <path class="cls-6" d="M36,23H12a2,2,0,0,0-2,2v9a2,2,0,0,0,2,2h2a6.29,6.29,0,0,0,1.54,1.71l.06.05a5.25,5.25,0,0,0,.58.38l.06,0a6.13,6.13,0,0,0,1.37.58l.19,0,.55.11.21,0a5.73,5.73,0,0,0,1.51,0l.21,0,.55-.11.19,0a6.13,6.13,0,0,0,1.37-.58l.06,0a5.25,5.25,0,0,0,.58-.38l.06,0A6.48,6.48,0,0,0,24.65,36H36a2,2,0,0,0,2-2V25A2,2,0,0,0,36,23ZM22.89,35a1.88,1.88,0,0,1-.16.23,4.16,4.16,0,0,1-.32.39.86.86,0,0,1-.13.14,4.77,4.77,0,0,1-.54.45l-.12.08c-.2.12-.4.23-.61.33l-.05,0a3.26,3.26,0,0,1-.71.22l-.15,0a3.7,3.7,0,0,1-1.53,0l-.16,0a3.35,3.35,0,0,1-.7-.22l-.05,0a5.92,5.92,0,0,1-.61-.33l-.12-.08a4,4,0,0,1-.54-.45.86.86,0,0,1-.13-.14,4.16,4.16,0,0,1-.32-.39,1.88,1.88,0,0,1-.16-.23,4.13,4.13,0,0,1-.67-2.25,4.23,4.23,0,1,1,8.45,0A4.13,4.13,0,0,1,22.89,35ZM36,34H25.44a7.1,7.1,0,0,0,.12-1.22,6.23,6.23,0,1,0-12.45,0A7.1,7.1,0,0,0,13.23,34H12V25H36Z"/>
        <g>
          <path class="cls-5" d="M28,6a1,1,0,0,0-1,.9A7,7,0,0,0,16.56,13a1,1,0,1,0,2,0,5,5,0,0,1,5-5,5.12,5.12,0,0,1,1.7.31A1,1,0,0,0,25,9a1,1,0,0,0,1,1h2a1,1,0,0,0,1-1V7A1,1,0,0,0,28,6Z"/>
          <path class="cls-5" d="M29.56,12a1,1,0,0,0-1,1,5,5,0,0,1-6.72,4.71,1,1,0,0,0,.28-.7,1,1,0,0,0-1-1h-2a1,1,0,0,0-1,1v2a1,1,0,0,0,1,1,1,1,0,0,0,1-.9A7,7,0,0,0,30.56,13,1,1,0,0,0,29.56,12Z"/>
        </g>
      </g>
    </g>
    <g id="ic_disconnect">
      <g id="disconnect_highlight">
        <path class="cls-5" d="M20.11,17.08a1,1,0,0,0,1.42,0L24,14.6l2.48,2.48a1,1,0,0,0,1.41,0,1,1,0,0,0,0-1.42l-2.47-2.47,2.47-2.48A1,1,0,1,0,26.48,9.3L24,11.78,21.53,9.3a1,1,0,0,0-1.42,0,1,1,0,0,0,0,1.41l2.48,2.48-2.48,2.47A1,1,0,0,0,20.11,17.08Z"/>
        <path class="cls-5" d="M36,21H12a2,2,0,0,0-2,2v9a2,2,0,0,0,2,2h2a6.29,6.29,0,0,0,1.54,1.71l.06.05c.19.14.38.26.58.38l.06,0a6.63,6.63,0,0,0,1.37.58l.19,0a3.35,3.35,0,0,0,.55.11l.21,0a5.73,5.73,0,0,0,1.51,0l.21,0a3.57,3.57,0,0,0,.55-.11l.19-.05a6.1,6.1,0,0,0,1.37-.57l.06,0c.2-.12.39-.24.58-.38l.06-.05A6.29,6.29,0,0,0,24.65,34H36a2,2,0,0,0,2-2V23A2,2,0,0,0,36,21ZM22.89,33a1.88,1.88,0,0,1-.16.23,4.16,4.16,0,0,1-.32.39l-.13.14a3.84,3.84,0,0,1-.54.44l-.12.09c-.2.12-.4.23-.61.33l-.05,0a4.91,4.91,0,0,1-.71.22l-.15,0a3.7,3.7,0,0,1-1.53,0l-.16,0a5.19,5.19,0,0,1-.7-.22l-.05,0a5.92,5.92,0,0,1-.61-.33l-.12-.09a3.34,3.34,0,0,1-.54-.44l-.13-.14a4.16,4.16,0,0,1-.32-.39,1.88,1.88,0,0,1-.16-.23,4.14,4.14,0,0,1-.67-2.26,4.23,4.23,0,0,1,8.45,0A4.17,4.17,0,0,1,22.89,33ZM36,32H25.44a7.12,7.12,0,0,0,.12-1.23,6.23,6.23,0,0,0-12.45,0A7.12,7.12,0,0,0,13.23,32H12V23H36Z"/>
        <rect id="frame-34" data-name="frame" class="cls-3" y="0.01" width="48" height="48"/>
      </g>
      <g id="disconnect_default">
        <path class="cls-17" d="M20.11,17.08a1,1,0,0,0,1.42,0L24,14.6l2.48,2.48a1,1,0,0,0,1.41,0,1,1,0,0,0,0-1.42l-2.47-2.47,2.47-2.48A1,1,0,1,0,26.48,9.3L24,11.78,21.53,9.3a1,1,0,0,0-1.42,0,1,1,0,0,0,0,1.41l2.48,2.48-2.48,2.47A1,1,0,0,0,20.11,17.08Z"/>
        <path class="cls-6" d="M36,21H12a2,2,0,0,0-2,2v9a2,2,0,0,0,2,2h2a6.29,6.29,0,0,0,1.54,1.71l.06.05c.19.14.38.26.58.38l.06,0a6.63,6.63,0,0,0,1.37.58l.19,0a3.35,3.35,0,0,0,.55.11l.21,0a5.73,5.73,0,0,0,1.51,0l.21,0a3.57,3.57,0,0,0,.55-.11l.19-.05a6.1,6.1,0,0,0,1.37-.57l.06,0c.2-.12.39-.24.58-.38l.06-.05A6.29,6.29,0,0,0,24.65,34H36a2,2,0,0,0,2-2V23A2,2,0,0,0,36,21ZM22.89,33a1.88,1.88,0,0,1-.16.23,4.16,4.16,0,0,1-.32.39l-.13.14a3.84,3.84,0,0,1-.54.44l-.12.09c-.2.12-.4.23-.61.33l-.05,0a4.91,4.91,0,0,1-.71.22l-.15,0a3.7,3.7,0,0,1-1.53,0l-.16,0a5.19,5.19,0,0,1-.7-.22l-.05,0a5.92,5.92,0,0,1-.61-.33l-.12-.09a3.34,3.34,0,0,1-.54-.44l-.13-.14a4.16,4.16,0,0,1-.32-.39,1.88,1.88,0,0,1-.16-.23,4.14,4.14,0,0,1-.67-2.26,4.23,4.23,0,0,1,8.45,0A4.17,4.17,0,0,1,22.89,33ZM36,32H25.44a7.12,7.12,0,0,0,.12-1.23,6.23,6.23,0,0,0-12.45,0A7.12,7.12,0,0,0,13.23,32H12V23H36Z"/>
        <rect id="frame-35" data-name="frame" class="cls-3" y="0.01" width="48" height="48"/>
      </g>
    </g>
    <g id="ic_UI_disable">
      <g id="disable_highlight">
        <path class="cls-5" d="M13.27,30.49l1.41-1.41a14.72,14.72,0,0,1-3.49-4.32,1.63,1.63,0,0,1,0-1.52A14.44,14.44,0,0,1,27.74,16l1.6-1.6a16.26,16.26,0,0,0-5.34-.9A16.51,16.51,0,0,0,9.42,22.3a3.65,3.65,0,0,0,0,3.4A16.56,16.56,0,0,0,13.27,30.49Z"/>
        <path class="cls-5" d="M38.58,22.3a16.49,16.49,0,0,0-5.46-6L36,13.4A1,1,0,0,0,34.6,12l-3.26,3.27h0l-1.49,1.5h0L28.18,18.4h0l-1.43,1.44h0l-6.91,6.91h0L18.4,28.18h0l-2.08,2.09h0l-1.44,1.44h0L12,34.6A1,1,0,0,0,12,36a1,1,0,0,0,.7.29A1,1,0,0,0,13.4,36l3.27-3.28a16.47,16.47,0,0,0,21.91-7A3.65,3.65,0,0,0,38.58,22.3ZM29,24a5,5,0,0,1-5,5,4.92,4.92,0,0,1-2.74-.83l6.9-6.9A4.92,4.92,0,0,1,29,24Zm7.82.76a14.48,14.48,0,0,1-18.64,6.48l1.66-1.65a7,7,0,0,0,9.76-9.77l2.09-2.08a14.46,14.46,0,0,1,5.13,5.5A1.63,1.63,0,0,1,36.81,24.76Z"/>
        <path class="cls-5" d="M24,19a5.05,5.05,0,0,1,.68.07l1.66-1.65A6.74,6.74,0,0,0,24,17a7,7,0,0,0-7,7,6.73,6.73,0,0,0,.41,2.34l1.65-1.66A4.91,4.91,0,0,1,24,19Z"/>
        <rect id="frame-36" data-name="frame" class="cls-3" y="0.01" width="48" height="48"/>
      </g>
      <g id="disable_default">
        <g id="disable_Path">
          <path class="cls-6" d="M13.27,30.49l1.41-1.41a14.72,14.72,0,0,1-3.49-4.32,1.63,1.63,0,0,1,0-1.52A14.44,14.44,0,0,1,27.74,16l1.6-1.6a16.26,16.26,0,0,0-5.34-.9A16.51,16.51,0,0,0,9.42,22.3a3.65,3.65,0,0,0,0,3.4A16.56,16.56,0,0,0,13.27,30.49Z"/>
          <path class="cls-6" d="M38.58,22.3a16.49,16.49,0,0,0-5.46-6L36,13.4A1,1,0,0,0,34.6,12l-3.26,3.27h0l-1.49,1.5h0L28.18,18.4h0l-1.43,1.44h0l-6.91,6.91h0L18.4,28.18h0l-2.08,2.09h0l-1.44,1.44h0L12,34.6A1,1,0,0,0,12,36a1,1,0,0,0,.7.29A1,1,0,0,0,13.4,36l3.27-3.28a16.47,16.47,0,0,0,21.91-7A3.65,3.65,0,0,0,38.58,22.3ZM29,24a5,5,0,0,1-5,5,4.92,4.92,0,0,1-2.74-.83l6.9-6.9A4.92,4.92,0,0,1,29,24Zm7.82.76a14.48,14.48,0,0,1-18.64,6.48l1.66-1.65a7,7,0,0,0,9.76-9.77l2.09-2.08a14.46,14.46,0,0,1,5.13,5.5A1.63,1.63,0,0,1,36.81,24.76Z"/>
          <path class="cls-6" d="M24,19a5.05,5.05,0,0,1,.68.07l1.66-1.65A6.74,6.74,0,0,0,24,17a7,7,0,0,0-7,7,6.73,6.73,0,0,0,.41,2.34l1.65-1.66A4.91,4.91,0,0,1,24,19Z"/>
        </g>
        <rect id="frame-37" data-name="frame" class="cls-3" y="0.01" width="48" height="48"/>
      </g>
    </g>
    <g id="ic_simulator">
      <g id="simulator_highlight">
        <rect id="frame-38" data-name="frame" class="cls-3" y="0.01" width="48" height="48"/>
        <path class="cls-5" d="M21,20.6,27.08,24,21,27.42V20.6M20.16,18A1.14,1.14,0,0,0,19,19.15v9.72A1.15,1.15,0,0,0,20.16,30a1.18,1.18,0,0,0,.57-.15L29.42,25a1.12,1.12,0,0,0,0-2l-8.69-4.86a1.08,1.08,0,0,0-.57-.15Z"/>
        <path class="cls-5" d="M37,11H11a2,2,0,0,0-2,2V34a2,2,0,0,0,2,2H37a2,2,0,0,0,2-2V13A2,2,0,0,0,37,11Zm0,23H11V15H37Z"/>
      </g>
      <g id="simulator_default">
        <rect id="frame-39" data-name="frame" class="cls-3" y="0.01" width="48" height="48"/>
        <path class="cls-6" d="M21,20.6,27.08,24,21,27.42V20.6M20.16,18A1.14,1.14,0,0,0,19,19.15v9.72A1.15,1.15,0,0,0,20.16,30a1.18,1.18,0,0,0,.57-.15L29.42,25a1.12,1.12,0,0,0,0-2l-8.69-4.86a1.08,1.08,0,0,0-.57-.15Z"/>
        <path class="cls-6" d="M37,11H11a2,2,0,0,0-2,2V34a2,2,0,0,0,2,2H37a2,2,0,0,0,2-2V13A2,2,0,0,0,37,11Zm0,23H11V15H37Z"/>
      </g>
    </g>
    <g id="ic_duplicate">
      <g id="duplicate_highlight">
        <g id="duplicate">
          <path class="cls-5" d="M24.21,35H19.57a1,1,0,0,0,0,2h4.64a1,1,0,0,0,0-2Z"/>
          <path class="cls-5" d="M36,27.84a1,1,0,0,0-1,1v4.63a1,1,0,0,0,2,0V28.84A1,1,0,0,0,36,27.84Z"/>
          <path class="cls-5" d="M33.47,35H28.84a1,1,0,1,0,0,2h4.63a1,1,0,0,0,0-2Z"/>
          <path class="cls-5" d="M36,18.57a1,1,0,0,0-1,1v4.64a1,1,0,0,0,2,0V19.57A1,1,0,0,0,36,18.57Z"/>
          <path class="cls-5" d="M19,32.51V31H29a2,2,0,0,0,2-2V19h1.5a1,1,0,0,0,0-2H31V13a2,2,0,0,0-2-2H13a2,2,0,0,0-2,2V29a2,2,0,0,0,2,2h4v1.5a1,1,0,0,0,2,0ZM13,13H29v5h0V29H13Z"/>
        </g>
        <path class="cls-5" d="M25,20H22V17a1,1,0,0,0-2,0v3H17a1,1,0,0,0,0,2h3v3a1,1,0,1,0,2,0V22h3a1,1,0,0,0,0-2Z"/>
        <rect id="frame-40" data-name="frame" class="cls-3" y="0.01" width="48" height="48"/>
      </g>
      <g id="duplicate_default">
        <g id="duplicate-2" data-name="duplicate">
          <path class="cls-6" d="M24.21,35H19.57a1,1,0,0,0,0,2h4.64a1,1,0,0,0,0-2Z"/>
          <path class="cls-6" d="M36,27.84a1,1,0,0,0-1,1v4.63a1,1,0,0,0,2,0V28.84A1,1,0,0,0,36,27.84Z"/>
          <path class="cls-6" d="M33.47,35H28.84a1,1,0,1,0,0,2h4.63a1,1,0,0,0,0-2Z"/>
          <path class="cls-6" d="M36,18.57a1,1,0,0,0-1,1v4.64a1,1,0,0,0,2,0V19.57A1,1,0,0,0,36,18.57Z"/>
          <path class="cls-6" d="M19,32.51V31H29a2,2,0,0,0,2-2V19h1.5a1,1,0,0,0,0-2H31V13a2,2,0,0,0-2-2H13a2,2,0,0,0-2,2V29a2,2,0,0,0,2,2h4v1.5a1,1,0,0,0,2,0ZM13,13H29v5h0V29H13Z"/>
        </g>
        <rect id="frame-41" data-name="frame" class="cls-3" y="0.01" width="48" height="48"/>
      </g>
    </g>
    <g id="ic_deactivate">
      <g id="deactivate_highlight">
        <path class="cls-5" d="M24,9A15,15,0,1,0,39,24,15,15,0,0,0,24,9Zm0,2a13,13,0,0,1,8.47,3.15L14.16,32.43A13,13,0,0,1,24,11Zm0,26a13,13,0,0,1-8.43-3.13l18.31-18.3A13,13,0,0,1,24,37Z"/>
        <rect id="frame-42" data-name="frame" class="cls-3" y="0.01" width="48" height="48"/>
      </g>
      <g id="deactivate_default">
        <path class="cls-6" d="M24,9A15,15,0,1,0,39,24,15,15,0,0,0,24,9Zm0,2a13,13,0,0,1,8.47,3.15L14.16,32.43A13,13,0,0,1,24,11Zm0,26a13,13,0,0,1-8.43-3.13l18.31-18.3A13,13,0,0,1,24,37Z"/>
        <rect id="frame-43" data-name="frame" class="cls-3" y="0.01" width="48" height="48"/>
      </g>
    </g>
    <g id="ic_delete">
      <g id="delete_default">
        <path id="trash_path" class="cls-6" d="M32.17,15H16a2,2,0,0,0-2,2.17L15.4,37.12a2,2,0,0,0,2,1.89H30.77a2,2,0,0,0,2-1.89l1.39-19.94a2.06,2.06,0,0,0-.54-1.54A2,2,0,0,0,32.17,15Zm0,2-1.4,20L17.39,37,16,17H32.17Z"/>
        <path id="clap_path" class="cls-6" d="M15,12H33a1,1,0,0,0,0-2H15a1,1,0,0,0,0,2Z"/>
        <rect id="frame-44" data-name="frame" class="cls-3" y="0.01" width="48" height="48"/>
      </g>
      <g id="delete_highlight">
        <path id="trash_path-2" data-name="trash_path" class="cls-5" d="M32.17,15H16a2,2,0,0,0-2,2.17L15.4,37.12a2,2,0,0,0,2,1.89H30.77a2,2,0,0,0,2-1.89l1.39-19.94a2.06,2.06,0,0,0-.54-1.54A2,2,0,0,0,32.17,15Zm0,2-1.4,20L17.39,37,16,17H32.17Z"/>
        <path id="clap_path-2" data-name="clap_path" class="cls-5" d="M32.73,11.81,15,9a1,1,0,0,1-.83-1.14A1,1,0,0,1,15.27,7L33.05,9.83a1,1,0,1,1-.32,2Z"/>
        <rect id="frame-45" data-name="frame" class="cls-3" y="0.01" width="48" height="48"/>
      </g>
    </g>
    <g id="ic_lockCode">
      <g id="locked_highlight">
        <rect id="frame-46" data-name="frame" class="cls-3" y="0.01" width="48" height="48"/>
        <path id="pathLocked" class="cls-5" d="M34,17H30.9V15.2A7.09,7.09,0,0,0,24.21,8a6.9,6.9,0,0,0-7.11,6.9V17H14a2,2,0,0,0-2,2V35a2,2,0,0,0,2,2H34a2,2,0,0,0,2-2V19A2,2,0,0,0,34,17Zm-14.9-2.1a4.9,4.9,0,0,1,9.8,0V17H19.1ZM34,35H14V19H34Z"/>
      </g>
      <g id="locked_default">
        <rect id="frame-47" data-name="frame" class="cls-3" y="0.01" width="48" height="48"/>
        <path id="pathLocked-2" data-name="pathLocked" class="cls-6" d="M34,17H30.9V15.2A7.09,7.09,0,0,0,24.21,8a6.9,6.9,0,0,0-7.11,6.9V17H14a2,2,0,0,0-2,2V35a2,2,0,0,0,2,2H34a2,2,0,0,0,2-2V19A2,2,0,0,0,34,17Zm-14.9-2.1a4.9,4.9,0,0,1,9.8,0V17H19.1ZM34,35H14V19H34Z"/>
      </g>
    </g>
    <g id="ic_unlockCode">
      <g id="unlocked_highlight">
        <rect id="frame-48" data-name="frame" class="cls-3" y="0.01" width="48" height="48"/>
        <path id="ic_unlock" class="cls-5" d="M34.94,17h-4.1V15.2a7.12,7.12,0,0,0-6-7.14,6.94,6.94,0,0,0-7.68,5.81,1,1,0,0,0,1,1.14h0a1,1,0,0,0,1-.85,4.94,4.94,0,0,1,5.92-4,5,5,0,0,1,3.82,5V17H12.94a1,1,0,0,0-1,1V36a1,1,0,0,0,1,1h22a1,1,0,0,0,1-1V18A1,1,0,0,0,34.94,17Zm-1,18h-20V19h20Z"/>
      </g>
      <g id="unlocked_default">
        <rect id="frame-49" data-name="frame" class="cls-3" y="0.01" width="48" height="48"/>
        <path id="ic_unlock-2" data-name="ic_unlock" class="cls-6" d="M34.94,17h-4.1V15.2a7.12,7.12,0,0,0-6-7.14,6.94,6.94,0,0,0-7.68,5.81,1,1,0,0,0,1,1.14h0a1,1,0,0,0,1-.85,4.94,4.94,0,0,1,5.92-4,5,5,0,0,1,3.82,5V17H12.94a1,1,0,0,0-1,1V36a1,1,0,0,0,1,1h22a1,1,0,0,0,1-1V18A1,1,0,0,0,34.94,17Zm-1,18h-20V19h20Z"/>
      </g>
    </g>
    <g id="ic_undo">
      <g id="undo_highlight">
        <path id="undo_arrow" class="cls-5" d="M24,22H13.41l5.37-5.37a1,1,0,0,0,0-1.41,1,1,0,0,0-1.42,0L10.29,22.3a1,1,0,0,0,0,1.41l7.07,7.08a1,1,0,0,0,1.42-1.42L13.41,24H24c8,0,12,3,12,9a1,1,0,0,0,2,0C38,28,35.57,22,24,22Z"/>
        <rect id="frame-50" data-name="frame" class="cls-3" y="0.01" width="48" height="48"/>
      </g>
      <g id="undo_default">
        <path id="undo_arrow-2" data-name="undo_arrow" class="cls-6" d="M24,22H13.41l5.37-5.37a1,1,0,0,0,0-1.41,1,1,0,0,0-1.42,0L10.29,22.3a1,1,0,0,0,0,1.41l7.07,7.08a1,1,0,0,0,1.42-1.42L13.41,24H24c8,0,12,3,12,9a1,1,0,0,0,2,0C38,28,35.57,22,24,22Z"/>
        <rect id="frame-51" data-name="frame" class="cls-3" y="0.01" width="48" height="48"/>
      </g>
    </g>
    <g id="ic_redo">
      <g id="redo_highlight">
        <path id="arrow" class="cls-5" d="M24,22H34.59l-5.37-5.37a1,1,0,0,1,0-1.41,1,1,0,0,1,1.42,0l7.07,7.07a1,1,0,0,1,0,1.41l-7.07,7.08a1,1,0,0,1-1.42-1.42L34.59,24H24c-8,0-12,3-12,9a1,1,0,0,1-2,0C10,28,12.43,22,24,22Z"/>
        <rect id="frame-52" data-name="frame" class="cls-3" y="0.01" width="48" height="48"/>
      </g>
      <g id="redo_default">
        <path id="arrow-2" data-name="arrow" class="cls-6" d="M24,22H34.59l-5.37-5.37a1,1,0,0,1,0-1.41,1,1,0,0,1,1.42,0l7.07,7.07a1,1,0,0,1,0,1.41l-7.07,7.08a1,1,0,0,1-1.42-1.42L34.59,24H24c-8,0-12,3-12,9a1,1,0,0,1-2,0C10,28,12.43,22,24,22Z"/>
        <rect id="frame-53" data-name="frame" class="cls-3" y="0.01" width="48" height="48"/>
      </g>
    </g>
    <g id="Warning">
      <g>
        <path class="cls-18" d="M24,13.12,35.6,34H12.4L24,13.12m0-3.06a1,1,0,0,0-.87.51l-13.31,24A1,1,0,0,0,10.7,36H37.3a1,1,0,0,0,.88-1.49l-13.3-24a1,1,0,0,0-.88-.51Z"/>
        <circle class="cls-18" cx="24" cy="30.99" r="1"/>
        <rect class="cls-18" x="22.99" y="18.03" width="2" height="10" rx="1"/>
      </g>
    </g>
    <g id="Error">
      <g>
        <circle class="cls-19" cx="24" cy="30.44" r="1"/>
        <rect class="cls-19" x="22.99" y="17.48" width="2" height="10" rx="1"/>
        <path class="cls-19" d="M24,12A12,12,0,1,1,12,24,12,12,0,0,1,24,12m0-2A14,14,0,1,0,38,24,14,14,0,0,0,24,10Z"/>
      </g>
    </g>
    <g id="valid">
      <path id="ValidPath" class="cls-5" d="M19.93,32.07a1,1,0,0,1-.7-.3l-6-6a1,1,0,1,1,1.41-1.41l5.29,5.29L33.36,16.23a1,1,0,0,1,1.41,1.41L20.64,31.77A1,1,0,0,1,19.93,32.07Z"/>
    </g>
    <g id="Close">
      <g id="Close_highlight">
        <path class="cls-5" d="M25.42,24l7.07-7.07a1,1,0,1,0-1.42-1.42L24,22.58l-7.07-7.07a1,1,0,0,0-1.41,0,1,1,0,0,0,0,1.42L22.59,24l-7.07,7.07a1,1,0,0,0,1.41,1.41L24,25.41l7.07,7.07a1,1,0,0,0,1.42,0,1,1,0,0,0,0-1.41Z"/>
        <rect id="frame-54" data-name="frame" class="cls-3" y="0.01" width="48" height="48"/>
      </g>
      <g id="Close_default">
        <path class="cls-6" d="M25.42,24l7.07-7.07a1,1,0,1,0-1.42-1.42L24,22.58l-7.07-7.07a1,1,0,0,0-1.41,0,1,1,0,0,0,0,1.42L22.59,24l-7.07,7.07a1,1,0,0,0,1.41,1.41L24,25.41l7.07,7.07a1,1,0,0,0,1.42,0,1,1,0,0,0,0-1.41Z"/>
        <rect id="frame-55" data-name="frame" class="cls-3" y="0.01" width="48" height="48"/>
      </g>
    </g>
    <g id="ic_then">
      <path id="Arrow-3" data-name="Arrow" class="cls-6" d="M25.12,18.28a.68.68,0,0,0,0,.95l3.58,3.58H17a.67.67,0,0,0,0,1.34H28.7l-3.58,3.58a.68.68,0,0,0,0,.95.66.66,0,0,0,.94,0L30.79,24a.68.68,0,0,0,0-.94l-4.73-4.73A.66.66,0,0,0,25.12,18.28Z"/>
    </g>
    <g id="ScrollArrows">
      <g id="ScrollDown">
        <rect id="frame-56" data-name="frame" class="cls-3" y="16.51" width="48" height="15"/>
        <polyline class="cls-7" points="18 21.13 24 27.13 30 21.13"/>
      </g>
      <g id="ScrollUp">
        <rect id="frame-57" data-name="frame" class="cls-3" y="16.51" width="48" height="15"/>
        <polyline class="cls-7" points="30 27.13 24 21.13 18 27.13"/>
      </g>
    </g>
    <g id="CC-BY-NC-ND">
      <g>
        <g id="BY">
          <path id="path37" d="M30.27,43.32a.18.18,0,0,0-.18-.18H29a.18.18,0,0,0-.18.18v1.13h.32v1.34H30V44.45h.31V43.32Z"/>
          <circle id="circle39" cx="29.53" cy="42.61" r="0.39"/>
          <path id="path41" class="cls-20" d="M29.52,41.24a2.65,2.65,0,0,0-1.94.8,2.71,2.71,0,0,0-.82,2,2.78,2.78,0,0,0,2.76,2.76,2.7,2.7,0,0,0,2-.82A2.61,2.61,0,0,0,32.29,44a2.66,2.66,0,0,0-.8-2A2.7,2.7,0,0,0,29.52,41.24Zm0,.5a2.17,2.17,0,0,1,1.6.66A2.2,2.2,0,0,1,31.79,44a2.09,2.09,0,0,1-.65,1.58,2.25,2.25,0,0,1-3.21,0A2.17,2.17,0,0,1,27.26,44a2.22,2.22,0,0,1,.68-1.61A2.14,2.14,0,0,1,29.53,41.74Z"/>
        </g>
        <path id="NC" d="M36.47,41.24A2.75,2.75,0,0,1,39.24,44,2.65,2.65,0,0,1,38.45,46a2.73,2.73,0,0,1-2,.82A2.77,2.77,0,0,1,33.71,44a2.74,2.74,0,0,1,.81-2A2.66,2.66,0,0,1,36.47,41.24Zm-2.14,2a2.36,2.36,0,0,0-.12.75,2.17,2.17,0,0,0,.67,1.59,2.2,2.2,0,0,0,1.6.67,2.24,2.24,0,0,0,1.61-.68,2.43,2.43,0,0,0,.38-.48l-1-.47a.81.81,0,0,1-.76.62v.42h-.31v-.42a1.31,1.31,0,0,1-.84-.33l.38-.39a.79.79,0,0,0,.61.25c.17,0,.35-.06.35-.27a.2.2,0,0,0-.08-.17l-.26-.12-.33-.14-.44-.2Zm2.15-1.52a2.17,2.17,0,0,0-1.6.66,2.63,2.63,0,0,0-.3.38l1.05.47a.76.76,0,0,1,.72-.49v-.43h.31v.43a1.22,1.22,0,0,1,.7.25l-.37.37a.86.86,0,0,0-.47-.16c-.14,0-.33,0-.33.22a.19.19,0,0,0,0,.07l.36.15.24.11.44.2,1.42.63a2.27,2.27,0,0,0,.07-.59,2.27,2.27,0,0,0-2.26-2.27Z"/>
        <g id="ND">
          <path id="path1334" d="M43.35,41.24a2.8,2.8,0,1,0,.07,0Zm0,.48h.08a2.25,2.25,0,1,1-.08,0Z"/>
          <path id="rect1338" d="M42.45,43.35h2v.5h-2Zm0,.91h2v.5h-2Z"/>
        </g>
        <g id="CC">
          <path id="path2554" class="cls-20" d="M22.58,41.24a2.66,2.66,0,0,0-1.94.8,2.8,2.8,0,0,0-.82,2,2.78,2.78,0,0,0,2.76,2.77,2.81,2.81,0,0,0,2-.83A2.65,2.65,0,0,0,25.35,44a2.69,2.69,0,0,0-.8-2A2.73,2.73,0,0,0,22.58,41.24Zm0,.5A2.25,2.25,0,0,1,24.85,44a2.13,2.13,0,0,1-.65,1.58,2.25,2.25,0,0,1-3.21,0A2.25,2.25,0,0,1,20.32,44,2.3,2.3,0,0,1,21,42.4,2.21,2.21,0,0,1,22.59,41.74Z"/>
          <path id="path2556" class="cls-20" d="M22.55,43.55a.76.76,0,0,0-.73-.4A.8.8,0,0,0,21,44a.78.78,0,0,0,.82.86.84.84,0,0,0,.73-.44l-.34-.17a.35.35,0,0,1-.34.24c-.26,0-.37-.21-.37-.49s.09-.49.37-.49a.34.34,0,0,1,.3.22Z"/>
          <path id="path2558" class="cls-20" d="M24.15,43.55a.77.77,0,0,0-.73-.4.8.8,0,0,0-.81.86.78.78,0,0,0,.82.86.85.85,0,0,0,.73-.44l-.34-.17a.35.35,0,0,1-.35.24c-.25,0-.37-.21-.37-.49s.1-.49.37-.49a.34.34,0,0,1,.31.22Z"/>
        </g>
      </g>
    </g>
  </g>
</svg>

