<svg xmlns="http://www.w3.org/2000/svg" viewBox="0 0 48.06 48">
  <defs>
    <style>
      .cls-1, .cls-10, .cls-12 {
        fill: #fff;
      }

      .cls-1 {
        stroke: #b388ff;
        stroke-width: 0.5px;
      }

      .cls-1, .cls-10, .cls-11, .cls-16, .cls-9 {
        stroke-miterlimit: 10;
      }

      .cls-16, .cls-2, .cls-6, .cls-7, .cls-9 {
        fill: none;
      }

      .cls-3 {
        fill: #6200ea;
      }

      .cls-4 {
        fill: #455a64;
      }

      .cls-5, .cls-8 {
        fill: #d9c3ff;
      }

      .cls-10, .cls-6, .cls-8, .cls-9 {
        stroke: #6200ea;
      }

      .cls-6, .cls-7 {
        stroke-linecap: round;
      }

      .cls-6, .cls-7, .cls-8 {
        stroke-linejoin: round;
      }

      .cls-10, .cls-11, .cls-16, .cls-6, .cls-7, .cls-8, .cls-9 {
        stroke-width: 2px;
      }

      .cls-11, .cls-16, .cls-7 {
        stroke: #455a64;
      }

      .cls-7 {
        opacity: 0.5;
      }

      .cls-11, .cls-15 {
        fill: #84edcf;
      }

      .cls-13 {
        fill: #ff5252;
      }

      .cls-14 {
        fill: #ffeb3b;
      }

      .cls-17 {
        fill: #b0bec5;
      }

      .cls-18 {
        fill: #263238;
      }

      .cls-19 {
        fill: #ffc400;
      }

      .cls-20 {
        fill: #ff1744;
      }

      .cls-21 {
        fill-rule: evenodd;
      }
    </style>
  </defs>
  <title>IconsAsset 248</title>
  <g id="Layer_2" data-name="Layer 2">
    <g id="Pressed_bg">
      <circle id="whiteCircle" class="cls-1" cx="24.03" cy="24" r="22"/>
      <rect id="frame" class="cls-2" x="0.09" y="0.03" width="47.97" height="47.97"/>
    </g>
    <g id="ic_about">
      <g id="about_highlight">
        <rect id="frame-2" data-name="frame" class="cls-2" x="0.09" y="0.03" width="47.97" height="47.97"/>
        <rect id="frame-3" data-name="frame" class="cls-2" x="0.09" y="0.03" width="47.97" height="47.97" transform="translate(48.15 48.03) rotate(180)"/>
        <circle class="cls-3" cx="24.03" cy="20" r="1"/>
        <rect class="cls-3" x="23.03" y="23" width="2" height="9" rx="1" transform="translate(48.07 55) rotate(180)"/>
        <path class="cls-3" d="M34.53,15H15.87L10,9.17V21.79h0V32.5a3.5,3.5,0,0,0,3.5,3.5h21A3.5,3.5,0,0,0,38,32.5v-14A3.5,3.5,0,0,0,34.53,15ZM36,32.5a1.5,1.5,0,0,1-1.5,1.5h-21A1.51,1.51,0,0,1,12,32.5V21.72h0V14l3,3H34.53A1.5,1.5,0,0,1,36,18.5Z"/>
      </g>
      <g id="about_default">
        <rect id="frame-4" data-name="frame" class="cls-2" x="0.09" y="0.03" width="47.97" height="47.97"/>
        <circle class="cls-4" cx="24.03" cy="20" r="1"/>
        <rect class="cls-4" x="23.03" y="23" width="2" height="9" rx="1" transform="translate(48.07 55) rotate(180)"/>
        <rect id="frame-5" data-name="frame" class="cls-2" x="0.09" y="0.03" width="47.97" height="47.97" transform="translate(48.15 48.02) rotate(180)"/>
        <path class="cls-4" d="M34.53,15H15.87L10,9.17V21.79h0V32.5a3.5,3.5,0,0,0,3.5,3.5h21A3.5,3.5,0,0,0,38,32.5v-14A3.5,3.5,0,0,0,34.53,15ZM36,32.5a1.5,1.5,0,0,1-1.5,1.5h-21A1.51,1.51,0,0,1,12,32.5V21.72h0V14l3,3H34.53A1.5,1.5,0,0,1,36,18.5Z"/>
      </g>
    </g>
    <g id="ic_new">
      <g id="new2_highlight">
        <rect id="frame-6" data-name="frame" class="cls-2" x="0.09" y="0.03" width="47.97" height="47.97"/>
        <path class="cls-3" d="M34.07,10H22.9a2,2,0,0,0-1.41.59L20.08,12l-6,6-1.41,1.41a2.09,2.09,0,0,0-.59,1.42V36a2,2,0,0,0,2,2h20a2,2,0,0,0,2-2V12A2,2,0,0,0,34.07,10Zm-12,2.83V20H14.91ZM34.07,36h-20V22h8a2,2,0,0,0,2-2V12h10Z"/>
        <polygon class="cls-5" points="14.91 20.01 22.08 20.01 22.08 12.85 14.91 20.01"/>
      </g>
      <g id="new2_default">
        <rect id="frame-7" data-name="frame" class="cls-2" x="0.09" y="0.03" width="47.97" height="47.97"/>
        <path class="cls-4" d="M34.07,10H22.9a2,2,0,0,0-1.41.59L20.08,12l-6,6-1.41,1.41a2.09,2.09,0,0,0-.59,1.42V36a2,2,0,0,0,2,2h20a2,2,0,0,0,2-2V12A2,2,0,0,0,34.07,10Zm-12,2.83V20H14.91ZM34.07,36h-20V22h8a2,2,0,0,0,2-2V12h10Z"/>
      </g>
    </g>
    <g id="ic_download">
      <g id="download_highlight">
        <path class="cls-3" d="M31.85,23.24a1,1,0,0,0-1.41,0L25.07,28.6V11a1,1,0,0,0-2,0V28.6l-5.36-5.36a1,1,0,0,0-1.41,1.41l7.07,7.07a1,1,0,0,0,1.41,0l7.07-7.07A1,1,0,0,0,31.85,23.24Z"/>
        <rect class="cls-3" x="14.08" y="34.01" width="19.99" height="2" rx="1"/>
        <rect id="frame-8" data-name="frame" class="cls-2" x="0.09" y="0.03" width="47.97" height="47.97"/>
      </g>
      <g id="download_default">
        <path class="cls-4" d="M31.85,23.24a1,1,0,0,0-1.41,0L25.07,28.6V11a1,1,0,0,0-2,0V28.6l-5.36-5.36a1,1,0,0,0-1.41,1.41l7.07,7.07a1,1,0,0,0,1.41,0l7.07-7.07A1,1,0,0,0,31.85,23.24Z"/>
        <rect class="cls-4" x="14.08" y="34.01" width="19.99" height="2" rx="1"/>
        <rect id="frame-9" data-name="frame" class="cls-2" x="0.09" y="0.03" width="47.97" height="47.97"/>
      </g>
    </g>
    <g id="ic_download_html" data-name="ic_download html">
      <g id="make_html_highlight">
        <rect id="frame-10" data-name="frame" class="cls-2" x="0.09" y="0.03" width="47.97" height="47.97"/>
        <g>
          <path class="cls-3" d="M12.15,37.94a.2.2,0,0,1-.07-.16V31.85a.21.21,0,0,1,.06-.16.19.19,0,0,1,.16-.07h.84a.24.24,0,0,1,.23.23v2.34H16V31.85a.21.21,0,0,1,.06-.16.2.2,0,0,1,.16-.07h.85a.17.17,0,0,1,.15.07.21.21,0,0,1,.06.16v5.93a.23.23,0,0,1-.06.16.19.19,0,0,1-.15.06h-.85a.21.21,0,0,1-.22-.22V35.35H13.37v2.43a.2.2,0,0,1-.07.16.21.21,0,0,1-.16.06H12.3A.2.2,0,0,1,12.15,37.94Z"/>
          <path class="cls-3" d="M20.2,37.94a.23.23,0,0,1-.06-.16v-5H18.45a.2.2,0,0,1-.15-.06.21.21,0,0,1-.07-.17v-.68a.21.21,0,0,1,.06-.16.2.2,0,0,1,.16-.07h4.66a.24.24,0,0,1,.23.23v.68a.21.21,0,0,1-.07.17.21.21,0,0,1-.16.06H21.43v5a.23.23,0,0,1-.06.16.21.21,0,0,1-.16.06h-.85A.23.23,0,0,1,20.2,37.94Z"/>
          <path class="cls-3" d="M24.32,37.94a.23.23,0,0,1-.06-.16V31.85a.21.21,0,0,1,.06-.16.19.19,0,0,1,.16-.07h.73a.31.31,0,0,1,.28.18l1.76,3.26L29,31.8a.29.29,0,0,1,.27-.18H30a.2.2,0,0,1,.16.07.22.22,0,0,1,.07.16v5.93a.22.22,0,0,1-.07.16A.23.23,0,0,1,30,38h-.79a.2.2,0,0,1-.15-.06.23.23,0,0,1-.06-.16V33.87l-1.27,2.4a.33.33,0,0,1-.3.2h-.38a.35.35,0,0,1-.31-.2l-1.27-2.4v3.91a.23.23,0,0,1-.06.16.21.21,0,0,1-.16.06h-.78A.21.21,0,0,1,24.32,37.94Z"/>
          <path class="cls-3" d="M31.72,37.94a.23.23,0,0,1-.06-.16V31.84a.23.23,0,0,1,.06-.16.21.21,0,0,1,.16-.06h.85a.21.21,0,0,1,.16.06.23.23,0,0,1,.06.16v5.07h2.89a.22.22,0,0,1,.23.22v.65a.2.2,0,0,1-.07.16.21.21,0,0,1-.16.06h-4A.21.21,0,0,1,31.72,37.94Z"/>
        </g>
        <path class="cls-3" d="M36.07,30V12a2,2,0,0,0-2-2H22.9a2,2,0,0,0-1.41.58L20.08,12l-6,6-1.41,1.41a2,2,0,0,0-.54,1,1.84,1.84,0,0,0-.05.41V30m10-17.18V20H14.91ZM14.08,30V22h8a2,2,0,0,0,2-2V12h10V30"/>
      </g>
      <g id="make_html_default">
        <rect id="frame-11" data-name="frame" class="cls-2" x="0.09" y="0.03" width="47.97" height="47.97"/>
        <g>
          <path class="cls-4" d="M12.15,37.94a.2.2,0,0,1-.07-.16V31.85a.21.21,0,0,1,.06-.16.19.19,0,0,1,.16-.07h.84a.24.24,0,0,1,.23.23v2.34H16V31.85a.21.21,0,0,1,.06-.16.2.2,0,0,1,.16-.07h.85a.17.17,0,0,1,.15.07.21.21,0,0,1,.06.16v5.93a.23.23,0,0,1-.06.16.19.19,0,0,1-.15.06h-.85a.21.21,0,0,1-.22-.22V35.35H13.37v2.43a.2.2,0,0,1-.07.16.21.21,0,0,1-.16.06H12.3A.2.2,0,0,1,12.15,37.94Z"/>
          <path class="cls-4" d="M20.2,37.94a.23.23,0,0,1-.06-.16v-5H18.45a.2.2,0,0,1-.15-.06.21.21,0,0,1-.07-.17v-.68a.21.21,0,0,1,.06-.16.2.2,0,0,1,.16-.07h4.66a.24.24,0,0,1,.23.23v.68a.21.21,0,0,1-.07.17.21.21,0,0,1-.16.06H21.43v5a.23.23,0,0,1-.06.16.21.21,0,0,1-.16.06h-.85A.23.23,0,0,1,20.2,37.94Z"/>
          <path class="cls-4" d="M24.32,37.94a.23.23,0,0,1-.06-.16V31.85a.21.21,0,0,1,.06-.16.19.19,0,0,1,.16-.07h.73a.31.31,0,0,1,.28.18l1.76,3.26L29,31.8a.29.29,0,0,1,.27-.18H30a.2.2,0,0,1,.16.07.22.22,0,0,1,.07.16v5.93a.22.22,0,0,1-.07.16A.23.23,0,0,1,30,38h-.79a.2.2,0,0,1-.15-.06.23.23,0,0,1-.06-.16V33.87l-1.27,2.4a.33.33,0,0,1-.3.2h-.38a.35.35,0,0,1-.31-.2l-1.27-2.4v3.91a.23.23,0,0,1-.06.16.21.21,0,0,1-.16.06h-.78A.21.21,0,0,1,24.32,37.94Z"/>
          <path class="cls-4" d="M31.72,37.94a.23.23,0,0,1-.06-.16V31.84a.23.23,0,0,1,.06-.16.21.21,0,0,1,.16-.06h.85a.21.21,0,0,1,.16.06.23.23,0,0,1,.06.16v5.07h2.89a.22.22,0,0,1,.23.22v.65a.2.2,0,0,1-.07.16.21.21,0,0,1-.16.06h-4A.21.21,0,0,1,31.72,37.94Z"/>
        </g>
        <path class="cls-4" d="M36.07,30V12a2,2,0,0,0-2-2H22.9a2,2,0,0,0-1.41.58L20.08,12l-6,6-1.41,1.41a2,2,0,0,0-.54,1,1.84,1.84,0,0,0-.05.41V30m10-17.18V20H14.91ZM14.08,30V22h8a2,2,0,0,0,2-2V12h10V30"/>
      </g>
    </g>
    <g id="ic_open">
      <g id="open_highlight">
        <path class="cls-3" d="M16.3,24.79a1,1,0,0,0,1.41,0l5.37-5.36V37a1,1,0,0,0,2,0V19.43l5.36,5.36a1,1,0,0,0,1.42,0,1,1,0,0,0,0-1.41l-7.07-7.07a1,1,0,0,0-1.41,0L16.3,23.38A1,1,0,0,0,16.3,24.79Z"/>
        <rect class="cls-3" x="14.08" y="12.02" width="19.99" height="2" rx="1" transform="translate(48.15 26.04) rotate(180)"/>
        <rect id="frame-12" data-name="frame" class="cls-2" x="0.09" y="0.03" width="47.97" height="47.97"/>
      </g>
      <g id="open_default">
        <path class="cls-4" d="M16.3,24.79a1,1,0,0,0,1.41,0l5.37-5.36V37a1,1,0,0,0,2,0V19.43l5.36,5.36a1,1,0,0,0,1.42,0,1,1,0,0,0,0-1.41l-7.07-7.07a1,1,0,0,0-1.41,0L16.3,23.38A1,1,0,0,0,16.3,24.79Z"/>
        <rect class="cls-4" x="14.08" y="12.02" width="19.99" height="2" rx="1" transform="translate(48.15 26.04) rotate(180)"/>
        <rect id="frame-13" data-name="frame" class="cls-2" x="0.09" y="0.03" width="47.97" height="47.97"/>
      </g>
    </g>
    <g id="ic_uisettings">
      <g id="uiSettings_highlight">
        <rect id="frame-14" data-name="frame" class="cls-2" x="0.09" y="0.03" width="47.97" height="47.97"/>
        <g>
          <path class="cls-3" d="M30.92,30H27.23a1.46,1.46,0,0,1-1.45-1.21l-.27-1.85a7,7,0,0,1-.79-.45l-1.79.71a1.48,1.48,0,0,1-1.81-.64l-1.84-3.09a1.45,1.45,0,0,1,.32-1.84l1.57-1.2c0-.14,0-.28,0-.42s0-.29,0-.43l-1.52-1.15a1.45,1.45,0,0,1-.38-1.86l1.86-3.14a1.49,1.49,0,0,1,1.76-.63l1.83.72a8.5,8.5,0,0,1,.79-.44l.27-1.84A1.48,1.48,0,0,1,27.23,10h3.69a1.44,1.44,0,0,1,1.44,1.29l.26,1.77a7.07,7.07,0,0,1,.8.45l1.79-.7a1.47,1.47,0,0,1,1.81.63l1.83,3.1a1.46,1.46,0,0,1-.31,1.84L37,19.57c0,.14,0,.28,0,.44s0,.28,0,.42l1.52,1.15,0,0a1.46,1.46,0,0,1,.34,1.82L37,26.58a1.51,1.51,0,0,1-1.77.63l-1.84-.72a7.21,7.21,0,0,1-.78.44l-.27,1.84A1.48,1.48,0,0,1,30.92,30Zm-3.23-2h2.78l.28-1.9a1,1,0,0,1,.6-.77,6.47,6.47,0,0,0,1.32-.75,1,1,0,0,1,1-.14l1.89.73,1.36-2.3-1.58-1.19a1,1,0,0,1-.39-.92A4.87,4.87,0,0,0,35,20a3.51,3.51,0,0,0-.06-.7,1,1,0,0,1,.38-1l1.56-1.19-1.36-2.3-1.87.73a1,1,0,0,1-1-.13,5.54,5.54,0,0,0-1.33-.74,1,1,0,0,1-.63-.79L30.45,12H27.69l-.28,1.9a1,1,0,0,1-.6.77,6.71,6.71,0,0,0-1.36.76,1,1,0,0,1-1,.13l-1.86-.73-1.36,2.3,1.56,1.19a1,1,0,0,1,.38.92,5.73,5.73,0,0,0,0,1.51,1,1,0,0,1-.38.92l-1.56,1.19,1.36,2.3,1.86-.73a1,1,0,0,1,1,.13,5.34,5.34,0,0,0,1.32.74,1,1,0,0,1,.64.79Zm-4.85-2.46v0ZM35.29,14.45v0Zm-4.91-2.92a.13.13,0,0,0,0,.06ZM29.08,24a4,4,0,1,1,4-4A4,4,0,0,1,29.08,24Zm0-6a2,2,0,1,0,2,2A2,2,0,0,0,29.08,18Z"/>
          <path class="cls-3" d="M38.07,28a1,1,0,0,0-1,1V34.5a.54.54,0,0,1-.56.5H11.64a.54.54,0,0,1-.56-.5V18h6a1,1,0,0,0,0-2h-6v-1.5a.53.53,0,0,1,.56-.5h5.44a1,1,0,0,0,0-2H11.64a2.53,2.53,0,0,0-2.56,2.5v20A2.53,2.53,0,0,0,11.64,37H36.51a2.53,2.53,0,0,0,2.56-2.5V29A1,1,0,0,0,38.07,28Z"/>
        </g>
      </g>
      <g id="uiSettings_default">
        <rect id="frame-15" data-name="frame" class="cls-2" x="0.09" y="0.02" width="47.97" height="47.97"/>
        <g>
          <path class="cls-4" d="M30.92,30H27.23a1.46,1.46,0,0,1-1.45-1.21l-.27-1.85a7,7,0,0,1-.79-.45l-1.79.71a1.48,1.48,0,0,1-1.81-.64l-1.84-3.09a1.45,1.45,0,0,1,.32-1.84l1.57-1.2c0-.14,0-.28,0-.42s0-.29,0-.43l-1.52-1.15a1.45,1.45,0,0,1-.38-1.86l1.86-3.14a1.49,1.49,0,0,1,1.76-.63l1.83.72a8.5,8.5,0,0,1,.79-.44l.27-1.84A1.48,1.48,0,0,1,27.23,10h3.69a1.44,1.44,0,0,1,1.44,1.29l.26,1.77a7.07,7.07,0,0,1,.8.45l1.79-.7a1.47,1.47,0,0,1,1.81.63l1.83,3.1a1.46,1.46,0,0,1-.31,1.84L37,19.57c0,.14,0,.28,0,.44s0,.28,0,.42l1.52,1.15,0,0a1.46,1.46,0,0,1,.34,1.82L37,26.58a1.51,1.51,0,0,1-1.77.63l-1.84-.72a7.21,7.21,0,0,1-.78.44l-.27,1.84A1.48,1.48,0,0,1,30.92,30Zm-3.23-2h2.78l.28-1.9a1,1,0,0,1,.6-.77,6.47,6.47,0,0,0,1.32-.75,1,1,0,0,1,1-.14l1.89.73,1.36-2.3-1.58-1.19a1,1,0,0,1-.39-.92A4.87,4.87,0,0,0,35,20a3.51,3.51,0,0,0-.06-.7,1,1,0,0,1,.38-1l1.56-1.19-1.36-2.3-1.87.73a1,1,0,0,1-1-.13,5.54,5.54,0,0,0-1.33-.74,1,1,0,0,1-.63-.79L30.45,12H27.69l-.28,1.9a1,1,0,0,1-.6.77,6.71,6.71,0,0,0-1.36.76,1,1,0,0,1-1,.13l-1.86-.73-1.36,2.3,1.56,1.19a1,1,0,0,1,.38.92,5.73,5.73,0,0,0,0,1.51,1,1,0,0,1-.38.92l-1.56,1.19,1.36,2.3,1.86-.73a1,1,0,0,1,1,.13,5.34,5.34,0,0,0,1.32.74,1,1,0,0,1,.64.79Zm-4.85-2.46v0ZM35.29,14.45v0Zm-4.91-2.92a.13.13,0,0,0,0,.06ZM29.08,24a4,4,0,1,1,4-4A4,4,0,0,1,29.08,24Zm0-6a2,2,0,1,0,2,2A2,2,0,0,0,29.08,18Z"/>
          <path class="cls-4" d="M38.07,28a1,1,0,0,0-1,1V34.5a.54.54,0,0,1-.56.5H11.64a.54.54,0,0,1-.56-.5V18h6a1,1,0,0,0,0-2h-6v-1.5a.53.53,0,0,1,.56-.5h5.44a1,1,0,0,0,0-2H11.64a2.53,2.53,0,0,0-2.56,2.5v20A2.53,2.53,0,0,0,11.64,37H36.51a2.53,2.53,0,0,0,2.56-2.5V29A1,1,0,0,0,38.07,28Z"/>
        </g>
      </g>
    </g>
    <g id="ic_saveSettings">
      <g id="saveSettings_highlight">
        <rect id="frame-16" data-name="frame" class="cls-2" x="0.09" y="0.02" width="47.97" height="47.97"/>
        <g>
          <path class="cls-3" d="M20.34,33H15.83a1.56,1.56,0,0,1-1.55-1.3l-.35-2.37a7.81,7.81,0,0,1-1.15-.65l-2.3.91a1.6,1.6,0,0,1-1.93-.69L6.3,25.13a1.57,1.57,0,0,1,.34-2l2-1.53c0-.2,0-.41,0-.62s0-.41,0-.62L6.69,18.91a1.55,1.55,0,0,1-.4-2l2.27-3.83a1.6,1.6,0,0,1,1.89-.67l2.33.92a9.61,9.61,0,0,1,1.14-.64l.35-2.36A1.6,1.6,0,0,1,15.83,9h4.51a1.53,1.53,0,0,1,1.53,1.38l.34,2.28a8.84,8.84,0,0,1,1.15.65l2.3-.9a1.58,1.58,0,0,1,1.93.68l2.25,3.79a1.56,1.56,0,0,1-.34,2l-2,1.51c0,.2,0,.41,0,.63s0,.43,0,.63l2,1.48.05,0a1.56,1.56,0,0,1,.36,1.95l-2.27,3.82a1.61,1.61,0,0,1-1.9.68l-2.34-.92a9.28,9.28,0,0,1-1.13.64l-.35,2.36A1.58,1.58,0,0,1,20.34,33Zm-4.15-2H20l.37-2.51a1,1,0,0,1,.6-.78,7.41,7.41,0,0,0,1.67-.94,1,1,0,0,1,1-.15l2.48,1,1.86-3.14-2.08-1.57a1,1,0,0,1-.39-.93,7.77,7.77,0,0,0,.08-.95,4.66,4.66,0,0,0-.07-.89,1,1,0,0,1,.38-1l2.06-1.57-1.86-3.15-2.46,1a1,1,0,0,1-1-.13A6.89,6.89,0,0,0,21,14.32a1,1,0,0,1-.64-.79L20,11H16.19l-.37,2.51a1,1,0,0,1-.6.78,7.62,7.62,0,0,0-1.7.95,1,1,0,0,1-1,.13l-2.46-1L8.23,17.57l2.06,1.57a1,1,0,0,1,.39.92,7.57,7.57,0,0,0-.06,1,7.34,7.34,0,0,0,.06.95,1,1,0,0,1-.39.93L8.23,24.46l1.86,3.14,2.46-1a1,1,0,0,1,1,.13,6.76,6.76,0,0,0,1.68.94,1,1,0,0,1,.63.79ZM10.27,27.9h0ZM25.86,14.11v0Zm-6-3.48a.11.11,0,0,0,0,0ZM18.08,25.68A4.67,4.67,0,1,1,22.75,21,4.67,4.67,0,0,1,18.08,25.68Zm0-7.33A2.67,2.67,0,1,0,20.75,21,2.66,2.66,0,0,0,18.08,18.35Z"/>
          <path class="cls-3" d="M41.77,31.37a1,1,0,0,0-1.41,0l-4.22,4.22V22a1,1,0,0,0-2,0V35.59l-4.22-4.22a1,1,0,0,0-1.42,0,1,1,0,0,0,0,1.41l5.93,5.93a1,1,0,0,0,.71.29,1,1,0,0,0,.71-.29l5.92-5.93A1,1,0,0,0,41.77,31.37Z"/>
        </g>
      </g>
      <g id="saveSettings_default">
        <rect id="frame-17" data-name="frame" class="cls-2" x="0.09" y="0.02" width="47.97" height="47.97"/>
        <g>
          <path class="cls-4" d="M20.34,33H15.83a1.56,1.56,0,0,1-1.55-1.3l-.35-2.37a7.81,7.81,0,0,1-1.15-.65l-2.3.91a1.6,1.6,0,0,1-1.93-.69L6.3,25.13a1.57,1.57,0,0,1,.34-2l2-1.53c0-.2,0-.41,0-.62s0-.41,0-.62L6.69,18.91a1.55,1.55,0,0,1-.4-2l2.27-3.83a1.6,1.6,0,0,1,1.89-.67l2.33.92a9.61,9.61,0,0,1,1.14-.64l.35-2.36A1.6,1.6,0,0,1,15.83,9h4.51a1.53,1.53,0,0,1,1.53,1.38l.34,2.28a8.84,8.84,0,0,1,1.15.65l2.3-.9a1.58,1.58,0,0,1,1.93.68l2.25,3.79a1.56,1.56,0,0,1-.34,2l-2,1.51c0,.2,0,.41,0,.63s0,.43,0,.63l2,1.48.05,0a1.56,1.56,0,0,1,.36,1.95l-2.27,3.82a1.61,1.61,0,0,1-1.9.68l-2.34-.92a9.28,9.28,0,0,1-1.13.64l-.35,2.36A1.58,1.58,0,0,1,20.34,33Zm-4.15-2H20l.37-2.51a1,1,0,0,1,.6-.78,7.41,7.41,0,0,0,1.67-.94,1,1,0,0,1,1-.15l2.48,1,1.86-3.14-2.08-1.57a1,1,0,0,1-.39-.93,7.77,7.77,0,0,0,.08-.95,4.66,4.66,0,0,0-.07-.89,1,1,0,0,1,.38-1l2.06-1.57-1.86-3.15-2.46,1a1,1,0,0,1-1-.13A6.89,6.89,0,0,0,21,14.32a1,1,0,0,1-.64-.79L20,11H16.19l-.37,2.51a1,1,0,0,1-.6.78,7.62,7.62,0,0,0-1.7.95,1,1,0,0,1-1,.13l-2.46-1L8.23,17.57l2.06,1.57a1,1,0,0,1,.39.92,7.57,7.57,0,0,0-.06,1,7.34,7.34,0,0,0,.06.95,1,1,0,0,1-.39.93L8.23,24.46l1.86,3.14,2.46-1a1,1,0,0,1,1,.13,6.76,6.76,0,0,0,1.68.94,1,1,0,0,1,.63.79ZM10.27,27.9h0ZM25.86,14.11v0Zm-6-3.48a.11.11,0,0,0,0,0ZM18.08,25.68A4.67,4.67,0,1,1,22.75,21,4.67,4.67,0,0,1,18.08,25.68Zm0-7.33A2.67,2.67,0,1,0,20.75,21,2.66,2.66,0,0,0,18.08,18.35Z"/>
          <path class="cls-4" d="M41.77,31.37a1,1,0,0,0-1.41,0l-4.22,4.22V22a1,1,0,0,0-2,0V35.59l-4.22-4.22a1,1,0,0,0-1.42,0,1,1,0,0,0,0,1.41l5.93,5.93a1,1,0,0,0,.71.29,1,1,0,0,0,.71-.29l5.92-5.93A1,1,0,0,0,41.77,31.37Z"/>
        </g>
      </g>
    </g>
    <g id="ic_clearSettings">
      <g id="clearSettings_highlight">
        <rect id="frame-18" data-name="frame" class="cls-2" x="0.09" y="0.03" width="47.97" height="47.97"/>
        <g>
          <path class="cls-3" d="M20.29,33H15.77a1.57,1.57,0,0,1-1.55-1.3l-.35-2.36a8.93,8.93,0,0,1-1.15-.66l-2.29.91a1.61,1.61,0,0,1-1.94-.69L6.24,25.12a1.57,1.57,0,0,1,.34-2l2-1.53c0-.2,0-.41,0-.62s0-.42,0-.62L6.63,18.89a1.55,1.55,0,0,1-.4-2L8.5,13.07a1.6,1.6,0,0,1,1.89-.67l2.34.92a8.88,8.88,0,0,1,1.14-.64l.35-2.36A1.58,1.58,0,0,1,15.77,9h4.52a1.53,1.53,0,0,1,1.53,1.38l.34,2.28a7.89,7.89,0,0,1,1.15.66l2.3-.91a1.59,1.59,0,0,1,1.94.69l2.24,3.78a1.55,1.55,0,0,1-.34,2l-2,1.51a6.4,6.4,0,0,1,0,.64,6.06,6.06,0,0,1,0,.62l2,1.49.06,0a1.55,1.55,0,0,1,.35,1.94l-2.27,3.83a1.6,1.6,0,0,1-1.89.68l-2.35-.92a9.28,9.28,0,0,1-1.13.64l-.35,2.36A1.58,1.58,0,0,1,20.29,33Zm-4.15-2h3.78l.37-2.51a1,1,0,0,1,.6-.78,7.41,7.41,0,0,0,1.67-.94,1,1,0,0,1,1-.15l2.48,1,1.87-3.14L25.8,22.88a1,1,0,0,1-.39-.93A6.34,6.34,0,0,0,25.5,21a4.59,4.59,0,0,0-.08-.89,1,1,0,0,1,.38-1l2.07-1.58L26,14.41l-2.46,1a1,1,0,0,1-1-.13,6.76,6.76,0,0,0-1.68-.94,1,1,0,0,1-.63-.79L19.9,11H16.14l-.37,2.51a1,1,0,0,1-.6.78,8.12,8.12,0,0,0-1.71,1,1,1,0,0,1-1,.13l-2.46-1L8.17,17.55l2.07,1.58a1,1,0,0,1,.38.92,7.55,7.55,0,0,0,0,1.9,1,1,0,0,1-.38.92L8.17,24.45,10,27.59l2.45-1a1,1,0,0,1,1,.13,6.46,6.46,0,0,0,1.67.95,1,1,0,0,1,.64.79Zm-5.93-3.11h0ZM25.82,14.1h0Zm-6-3.49a.06.06,0,0,0,0,0ZM18,25.67A4.67,4.67,0,1,1,22.7,21,4.68,4.68,0,0,1,18,25.67Zm0-7.34A2.67,2.67,0,1,0,20.7,21,2.68,2.68,0,0,0,18,18.33Z"/>
          <path class="cls-3" d="M40.09,27.68a6.56,6.56,0,0,0-2.52-1.58l1.7-.91-1-1.76-4.11,2.2a1,1,0,0,0-.4,1.36L36,31.1l1.76-1L36.56,27.9a4.53,4.53,0,0,1,2.12,1.19,4.63,4.63,0,1,1-6.55,0,1,1,0,1,0-1.41-1.41,6.63,6.63,0,1,0,9.37,0Z"/>
        </g>
      </g>
      <g id="clearSettings_default">
        <rect id="frame-19" data-name="frame" class="cls-2" x="0.09" y="0.03" width="47.97" height="47.97"/>
        <g>
          <path class="cls-4" d="M20.29,33H15.77a1.57,1.57,0,0,1-1.55-1.3l-.35-2.36a8.93,8.93,0,0,1-1.15-.66l-2.29.91a1.61,1.61,0,0,1-1.94-.69L6.24,25.12a1.57,1.57,0,0,1,.34-2l2-1.53c0-.2,0-.41,0-.62s0-.42,0-.62L6.63,18.89a1.55,1.55,0,0,1-.4-2L8.5,13.07a1.6,1.6,0,0,1,1.89-.67l2.34.92a8.88,8.88,0,0,1,1.14-.64l.35-2.36A1.58,1.58,0,0,1,15.77,9h4.52a1.53,1.53,0,0,1,1.53,1.38l.34,2.28a7.89,7.89,0,0,1,1.15.66l2.3-.91a1.59,1.59,0,0,1,1.94.69l2.24,3.78a1.55,1.55,0,0,1-.34,2l-2,1.51a6.4,6.4,0,0,1,0,.64,6.06,6.06,0,0,1,0,.62l2,1.49.06,0a1.55,1.55,0,0,1,.35,1.94l-2.27,3.83a1.6,1.6,0,0,1-1.89.68l-2.35-.92a9.28,9.28,0,0,1-1.13.64l-.35,2.36A1.58,1.58,0,0,1,20.29,33Zm-4.15-2h3.78l.37-2.51a1,1,0,0,1,.6-.78,7.41,7.41,0,0,0,1.67-.94,1,1,0,0,1,1-.15l2.48,1,1.87-3.14L25.8,22.88a1,1,0,0,1-.39-.93A6.34,6.34,0,0,0,25.5,21a4.59,4.59,0,0,0-.08-.89,1,1,0,0,1,.38-1l2.07-1.58L26,14.41l-2.46,1a1,1,0,0,1-1-.13,6.76,6.76,0,0,0-1.68-.94,1,1,0,0,1-.63-.79L19.9,11H16.14l-.37,2.51a1,1,0,0,1-.6.78,8.12,8.12,0,0,0-1.71,1,1,1,0,0,1-1,.13l-2.46-1L8.17,17.55l2.07,1.58a1,1,0,0,1,.38.92,7.55,7.55,0,0,0,0,1.9,1,1,0,0,1-.38.92L8.17,24.45,10,27.59l2.45-1a1,1,0,0,1,1,.13,6.46,6.46,0,0,0,1.67.95,1,1,0,0,1,.64.79Zm-5.93-3.11h0ZM25.82,14.1h0Zm-6-3.49a.06.06,0,0,0,0,0ZM18,25.67A4.67,4.67,0,1,1,22.7,21,4.68,4.68,0,0,1,18,25.67Zm0-7.34A2.67,2.67,0,1,0,20.7,21,2.68,2.68,0,0,0,18,18.33Z"/>
          <path class="cls-4" d="M40.09,27.68a6.56,6.56,0,0,0-2.52-1.58l1.7-.91-1-1.76-4.11,2.2a1,1,0,0,0-.4,1.36L36,31.1l1.76-1L36.56,27.9a4.53,4.53,0,0,1,2.12,1.19,4.63,4.63,0,1,1-6.55,0,1,1,0,1,0-1.41-1.41,6.63,6.63,0,1,0,9.37,0Z"/>
        </g>
      </g>
    </g>
    <g id="ic_TextMode">
      <g id="textMode_highlight">
        <rect class="cls-5" x="11.09" y="17.01" width="25.98" height="16.99"/>
        <rect id="frame-20" data-name="frame" class="cls-2" x="0.09" y="0.03" width="47.97" height="47.97"/>
        <path class="cls-3" d="M28.7,28.8l-3.4-3.4L28.7,22a1,1,0,0,0,0-1.41,1,1,0,0,0-1.42,0l-3.2,3.2-3.2-3.2a1,1,0,0,0-1.42,0,1,1,0,0,0,0,1.41l3.4,3.4-3.39,3.4a1,1,0,0,0,0,1.41,1,1,0,0,0,1.41,0L24.09,27l3.2,3.2a1,1,0,0,0,1.41,0A1,1,0,0,0,28.7,28.8Z"/>
        <path class="cls-3" d="M36.07,11h-24a3,3,0,0,0-3,3V33a3,3,0,0,0,3,3h24a3,3,0,0,0,3-3V14A3,3,0,0,0,36.07,11Zm-24,2h24a1,1,0,0,1,1,1v1h-26V14A1,1,0,0,1,12.08,13Zm24,21h-24a1,1,0,0,1-1-1V17h26V33A1,1,0,0,1,36.07,34Z"/>
      </g>
      <g id="textMode_default">
        <rect id="frame-21" data-name="frame" class="cls-2" x="0.09" y="0.03" width="47.97" height="47.97"/>
        <path class="cls-4" d="M20.69,30.5a1,1,0,0,1-.71-.29L15.87,26.1a1,1,0,0,1-.29-.7,1,1,0,0,1,.29-.71L20,20.59A1,1,0,0,1,21.39,22L18,25.4l3.41,3.4a1,1,0,0,1,0,1.41A1,1,0,0,1,20.69,30.5Z"/>
        <path class="cls-4" d="M27.47,30.5a1,1,0,0,1-.71-.29,1,1,0,0,1,0-1.41l3.4-3.4L26.76,22a1,1,0,0,1,0-1.41,1,1,0,0,1,1.41,0l4.11,4.11a1,1,0,0,1,.29.7,1,1,0,0,1-.29.71l-4.11,4.1A1,1,0,0,1,27.47,30.5Z"/>
        <path class="cls-4" d="M36.07,11h-24a3,3,0,0,0-3,3V33a3,3,0,0,0,3,3h24a3,3,0,0,0,3-3V14A3,3,0,0,0,36.07,11Zm-24,2h24a1,1,0,0,1,1,1v1h-26V14A1,1,0,0,1,12.08,13Zm24,21h-24a1,1,0,0,1-1-1V17h26V33A1,1,0,0,1,36.07,34Z"/>
      </g>
    </g>
    <g id="ic_basicMode">
      <g id="basicMode_default">
        <polyline class="cls-6" points="38.07 26.41 24.07 34.81 10.08 26.41"/>
        <rect id="frame-22" data-name="frame" class="cls-2" x="0.09" y="0.03" width="47.97" height="47.97"/>
        <polygon class="cls-7" points="10.08 20.41 24.07 12.02 38.07 20.41 24.07 28.81 10.08 20.41"/>
      </g>
    </g>
    <g id="ic_mediumMode">
      <g id="mediumMode_default">
        <polyline class="cls-6" points="10.08 26.41 24.07 34.81 38.07 26.41"/>
        <rect id="frame-23" data-name="frame" class="cls-2" x="0.09" y="0.03" width="47.97" height="47.97"/>
        <polygon class="cls-8" points="24.07 28.81 10.08 20.41 24.07 12.02 38.07 20.41 24.07 28.81"/>
      </g>
    </g>
    <g id="ic_readonly">
      <g id="readonly_default">
        <g>
          <path class="cls-3" d="M33.07,18h-3V16a6,6,0,0,0-12,0v2h-3a1,1,0,0,0-1,1V33a1,1,0,0,0,1,1h18a1,1,0,0,0,1-1V19A1,1,0,0,0,33.07,18Zm-13-2a4,4,0,0,1,8,0v2h-8Zm12,16h-16V20h16Z"/>
          <circle class="cls-9" cx="24.07" cy="24.01" r="20.49"/>
        </g>
        <rect class="cls-2" x="0.09" y="0.03" width="47.97" height="47.97"/>
      </g>
    </g>
    <g id="ic_Help">
      <g id="help_highlight">
        <g id="help">
          <path class="cls-3" d="M25.24,15.2a5,5,0,0,0-4.28,1A4.88,4.88,0,0,0,19.08,20a1,1,0,0,0,2,0,2.9,2.9,0,0,1,1.13-2.31,3,3,0,1,1,2.87,5.17,3.11,3.11,0,0,0-2,3V28a1,1,0,1,0,2,0V25.86a1.15,1.15,0,0,1,.69-1.09,5,5,0,0,0,3.18-5.87A5,5,0,0,0,25.24,15.2Z"/>
          <path class="cls-3" d="M24.08,11a13,13,0,1,1-13,13,13,13,0,0,1,13-13m0-2a15,15,0,1,0,15,15,15,15,0,0,0-15-15Z"/>
          <rect class="cls-3" x="23.07" y="31.03" width="2" height="2" rx="0.4"/>
        </g>
        <rect id="frame-24" data-name="frame" class="cls-2" x="0.09" y="0.03" width="47.97" height="47.97"/>
      </g>
      <g id="help_default">
        <g id="help-2" data-name="help">
          <path class="cls-4" d="M25.24,15.2a5,5,0,0,0-4.28,1A4.88,4.88,0,0,0,19.08,20a1,1,0,0,0,2,0,2.9,2.9,0,0,1,1.13-2.31,3,3,0,1,1,2.87,5.17,3.11,3.11,0,0,0-2,3V28a1,1,0,1,0,2,0V25.86a1.15,1.15,0,0,1,.69-1.09,5,5,0,0,0,3.18-5.87A5,5,0,0,0,25.24,15.2Z"/>
          <path class="cls-4" d="M24.08,11a13,13,0,1,1-13,13,13,13,0,0,1,13-13m0-2a15,15,0,1,0,15,15,15,15,0,0,0-15-15Z"/>
          <rect class="cls-4" x="23.07" y="31.03" width="2" height="2" rx="0.4"/>
        </g>
        <rect id="frame-25" data-name="frame" class="cls-2" x="0.09" y="0.03" width="47.97" height="47.97"/>
      </g>
    </g>
    <g id="ic_play">
      <g id="play_highlight">
        <circle class="cls-10" cx="24.07" cy="24.01" r="20.49"/>
        <path class="cls-3" d="M19.08,34a2,2,0,0,1-2-2V16a2,2,0,0,1,3.05-1.7l13,8a2,2,0,0,1,0,3.41l-13,8A2,2,0,0,1,19.08,34Zm0-18V32h0l13-8Z"/>
        <rect id="frame-26" data-name="frame" class="cls-2" x="0.09" y="0.03" width="47.97" height="47.97"/>
      </g>
      <g id="play_default">
        <circle class="cls-11" cx="24.07" cy="24.01" r="20.49"/>
        <path class="cls-4" d="M19.08,34a2,2,0,0,1-2-2V16a2,2,0,0,1,3.05-1.7l13,8a2,2,0,0,1,0,3.41l-13,8A2,2,0,0,1,19.08,34Zm0-18V32h0l13-8Z"/>
        <rect id="frame-27" data-name="frame" class="cls-2" x="0.09" y="0.03" width="47.97" height="47.97"/>
        <polygon class="cls-12" points="32.02 24 19.13 16.07 19.13 31.94 32.02 24"/>
      </g>
    </g>
    <g id="ic_Stop">
      <g id="stop_highlight">
        <rect id="frame-28" data-name="frame" class="cls-2" x="0.09" y="0.03" width="47.97" height="47.97"/>
        <g>
          <rect class="cls-13" x="16.08" y="16.02" width="15.99" height="15.99"/>
          <path class="cls-3" d="M31.72,34H16.43a2.35,2.35,0,0,1-2.35-2.35V16.37A2.35,2.35,0,0,1,16.43,14H31.72a2.36,2.36,0,0,1,2.35,2.35V31.66A2.36,2.36,0,0,1,31.72,34ZM16.08,16h0V32h16V16Z"/>
        </g>
      </g>
      <g id="stop_default">
        <rect id="frame-29" data-name="frame" class="cls-2" x="0.09" y="0.03" width="47.97" height="47.97"/>
        <g>
          <rect class="cls-13" x="16.08" y="16.02" width="15.99" height="15.99"/>
          <path class="cls-4" d="M31.72,34H16.43a2.35,2.35,0,0,1-2.35-2.35V16.37A2.35,2.35,0,0,1,16.43,14H31.72a2.36,2.36,0,0,1,2.35,2.35V31.66A2.36,2.36,0,0,1,31.72,34ZM16.08,16h0V32h16V16Z"/>
        </g>
      </g>
    </g>
    <g id="ic_reloadProgram">
      <g id="reload_highlight">
        <path class="cls-3" d="M19.08,34a2,2,0,0,1-2-2V16a2,2,0,0,1,3-1.71l13,8a2,2,0,0,1,1,1.7,2,2,0,0,1-1,1.7l-13,8A2,2,0,0,1,19.08,34Zm0-18V32h0l13-8Z"/>
        <rect id="frame-30" data-name="frame" class="cls-2" x="0.09" y="0.03" width="47.97" height="47.97"/>
        <polygon class="cls-14" points="32.07 24.01 19.08 16.02 19.08 32.01 32.07 24.01"/>
        <path class="cls-3" d="M35.69,17a1,1,0,0,0,1,1h8a1,1,0,0,0,1-1V9a1,1,0,1,0-2,0v5.86a21.46,21.46,0,1,0,2,9,1,1,0,0,0-2,0A19.49,19.49,0,1,1,42,16H36.68A1,1,0,0,0,35.69,17Z"/>
      </g>
      <g id="reload_default">
        <path class="cls-4" d="M19.08,34a2,2,0,0,1-2-2V16a2,2,0,0,1,3-1.71l13,8a2,2,0,0,1,1,1.7,2,2,0,0,1-1,1.7l-13,8A2,2,0,0,1,19.08,34Zm0-18V32h0l13-8Z"/>
        <rect id="frame-31" data-name="frame" class="cls-2" x="0.09" y="0.03" width="47.97" height="47.97"/>
        <polygon class="cls-15" points="32.07 24.01 19.08 16.02 19.08 32.01 32.07 24.01"/>
        <path class="cls-4" d="M35.69,17a1,1,0,0,0,1,1h8a1,1,0,0,0,1-1V9a1,1,0,1,0-2,0v5.86a21.46,21.46,0,1,0,2,9,1,1,0,0,0-2,0A19.49,19.49,0,1,1,42,16H36.68A1,1,0,0,0,35.69,17Z"/>
      </g>
    </g>
    <g id="ic_pause">
      <g id="pause_highlight">
        <rect id="frame-32" data-name="frame" class="cls-2" x="0.09" y="0.03" width="47.97" height="47.97"/>
        <g id="pause">
          <rect class="cls-3" x="26.03" y="16.13" width="4" height="16" rx="2"/>
          <rect class="cls-3" x="18.03" y="16.13" width="4" height="16" rx="2"/>
        </g>
        <circle class="cls-9" cx="24.03" cy="24" r="16"/>
      </g>
      <g id="pause_default">
        <rect id="frame-33" data-name="frame" class="cls-2" x="0.09" y="0.03" width="47.97" height="47.97"/>
        <g id="pause-2" data-name="pause">
          <circle class="cls-16" cx="24.03" cy="24" r="16"/>
          <rect class="cls-4" x="26.03" y="16.13" width="4" height="16" rx="2"/>
          <rect class="cls-4" x="18.03" y="16.13" width="4" height="16" rx="2"/>
        </g>
      </g>
    </g>
    <g id="ic_connect">
      <g id="robotConnect_highlight">
        <path class="cls-3" d="M36.07,22h-24a2,2,0,0,0-2,2v9a2,2,0,0,0,2,2h2a6.29,6.29,0,0,0,1.54,1.71l.06.05c.19.13.38.26.58.38l.06,0a6.6,6.6,0,0,0,1.37.57l.19.05a4.86,4.86,0,0,0,.55.11l.21,0a5.73,5.73,0,0,0,1.51,0l.21,0a5.17,5.17,0,0,0,.54-.11l.2-.05a6.3,6.3,0,0,0,1.36-.57l.07,0c.2-.12.39-.25.57-.38l.06-.05A6.13,6.13,0,0,0,24.72,35H36.07a2,2,0,0,0,2-2V24A2,2,0,0,0,36.07,22ZM23,34c0,.08-.11.15-.17.23a3,3,0,0,1-.32.39l-.12.14a4.51,4.51,0,0,1-.54.44l-.13.08a3.51,3.51,0,0,1-.6.33l-.05,0a5.33,5.33,0,0,1-.71.22l-.15,0a4.9,4.9,0,0,1-.77.07,4.77,4.77,0,0,1-.76-.07l-.16,0a5.83,5.83,0,0,1-.71-.22l0,0a3.25,3.25,0,0,1-.61-.33L17,35.24a3.93,3.93,0,0,1-.55-.44l-.12-.14a4.16,4.16,0,0,1-.32-.39L15.86,34a4.21,4.21,0,1,1,7.77-2.26A4.27,4.27,0,0,1,23,34Zm13.1-1H25.51a6.22,6.22,0,1,0-12.32-1.23A7.12,7.12,0,0,0,13.31,33H12.08V24h24Z"/>
        <rect id="frame-34" data-name="frame" class="cls-2" x="0.09" y="0.02" width="47.97" height="47.97"/>
        <polyline class="cls-6" points="28.57 10.95 22.58 16.95 22.58 16.95 19.58 13.95"/>
      </g>
      <g id="robotConnect_default">
        <path class="cls-4" d="M36.07,22h-24a2,2,0,0,0-2,2v9a2,2,0,0,0,2,2h2a6.29,6.29,0,0,0,1.54,1.71l.06.05c.19.13.38.26.58.38l.06,0a6.6,6.6,0,0,0,1.37.57l.19.05a4.86,4.86,0,0,0,.55.11l.21,0a5.73,5.73,0,0,0,1.51,0l.21,0a5.17,5.17,0,0,0,.54-.11l.2-.05a6.3,6.3,0,0,0,1.36-.57l.07,0c.2-.12.39-.25.57-.38l.06-.05A6.13,6.13,0,0,0,24.72,35H36.07a2,2,0,0,0,2-2V24A2,2,0,0,0,36.07,22ZM23,34c0,.08-.11.15-.17.23a3,3,0,0,1-.32.39l-.12.14a4.51,4.51,0,0,1-.54.44l-.13.08a3.51,3.51,0,0,1-.6.33l-.05,0a5.33,5.33,0,0,1-.71.22l-.15,0a4.9,4.9,0,0,1-.77.07,4.77,4.77,0,0,1-.76-.07l-.16,0a5.83,5.83,0,0,1-.71-.22l0,0a3.25,3.25,0,0,1-.61-.33L17,35.24a3.93,3.93,0,0,1-.55-.44l-.12-.14a4.16,4.16,0,0,1-.32-.39L15.86,34a4.21,4.21,0,1,1,7.77-2.26A4.27,4.27,0,0,1,23,34Zm13.1-1H25.51a6.22,6.22,0,1,0-12.32-1.23A7.12,7.12,0,0,0,13.31,33H12.08V24h24Z"/>
        <rect id="frame-35" data-name="frame" class="cls-2" x="0.09" y="0.03" width="47.97" height="47.97"/>
        <polyline class="cls-6" points="28.57 10.95 22.58 16.95 22.58 16.95 19.58 13.95"/>
      </g>
    </g>
    <g id="ic_code_running">
      <g id="running_default">
        <rect id="frame-36" data-name="frame" class="cls-2" x="0.09" y="0.03" width="47.97" height="47.97"/>
        <g id="running">
          <path class="cls-4" d="M36.07,23h-24a2,2,0,0,0-2,2v9a2,2,0,0,0,2,2h2a6.29,6.29,0,0,0,1.54,1.71l.06.05c.19.14.38.26.58.38l.06,0a6.1,6.1,0,0,0,1.37.57l.19.05a4.86,4.86,0,0,0,.55.11l.21,0a5.73,5.73,0,0,0,1.51,0l.21,0a5.17,5.17,0,0,0,.54-.11l.2-.05a5.84,5.84,0,0,0,1.36-.57l.07,0a5.65,5.65,0,0,0,.57-.38l.06-.05A6.13,6.13,0,0,0,24.72,36H36.07a2,2,0,0,0,2-2V25A2,2,0,0,0,36.07,23ZM23,35a2,2,0,0,1-.17.23,3,3,0,0,1-.32.39l-.12.14a4.51,4.51,0,0,1-.54.44l-.13.09a5.76,5.76,0,0,1-.6.33l-.05,0a5.33,5.33,0,0,1-.71.22l-.15,0a3.94,3.94,0,0,1-.77.08,3.84,3.84,0,0,1-.76-.08l-.16,0a5.83,5.83,0,0,1-.71-.22l0,0a5,5,0,0,1-.61-.33L17,36.24a3.93,3.93,0,0,1-.55-.44l-.12-.14a4.16,4.16,0,0,1-.32-.39,1.88,1.88,0,0,1-.16-.23,4.13,4.13,0,0,1-.67-2.25A4.22,4.22,0,1,1,23,35Zm13.1-1H25.51a6.22,6.22,0,0,0-6.1-7.44,6.22,6.22,0,0,0-6.22,6.22A7,7,0,0,0,13.31,34H12.08V25h24Z"/>
          <g>
            <path class="cls-3" d="M28.07,6a1,1,0,0,0-1,.9A7,7,0,0,0,16.64,13a1,1,0,1,0,2,0,5,5,0,0,1,6.72-4.71,1,1,0,0,0-.28.7,1,1,0,0,0,1,1h2a1,1,0,0,0,1-1V7A1,1,0,0,0,28.07,6Z"/>
            <path class="cls-3" d="M29.63,12a1,1,0,0,0-1,1,5,5,0,0,1-5,5,5.12,5.12,0,0,1-1.7-.31,1,1,0,0,0,.29-.7,1,1,0,0,0-1-1h-2a1,1,0,0,0-1,1v2a1,1,0,0,0,1,1,1,1,0,0,0,1-.9A7,7,0,0,0,30.63,13,1,1,0,0,0,29.63,12Z"/>
          </g>
        </g>
      </g>
    </g>
    <g id="ic_disconnect">
      <g id="disconnect_highlight">
        <path class="cls-3" d="M20.19,17.72a1,1,0,0,0,1.41,0l2.48-2.47,2.47,2.47A1,1,0,1,0,28,16.31l-2.47-2.47L28,11.36A1,1,0,1,0,26.55,10l-2.47,2.47L21.6,10a1,1,0,0,0-1.41,1.41l2.47,2.48-2.47,2.47A1,1,0,0,0,20.19,17.72Z"/>
        <path class="cls-3" d="M36.07,22h-24a2,2,0,0,0-2,2v9a2,2,0,0,0,2,2h2a6.29,6.29,0,0,0,1.54,1.71l.06.05c.19.13.38.26.58.38l.06,0a6.6,6.6,0,0,0,1.37.57l.19.05a4.86,4.86,0,0,0,.55.11l.21,0a5.73,5.73,0,0,0,1.51,0l.21,0a5.17,5.17,0,0,0,.54-.11l.2-.05a6.3,6.3,0,0,0,1.36-.57l.07,0c.2-.12.39-.25.57-.38l.06-.05A6.13,6.13,0,0,0,24.72,35H36.07a2,2,0,0,0,2-2V24A2,2,0,0,0,36.07,22ZM23,34c0,.08-.11.15-.17.23a3,3,0,0,1-.32.39l-.12.14a4.51,4.51,0,0,1-.54.44l-.13.08a3.51,3.51,0,0,1-.6.33l-.05,0a5.33,5.33,0,0,1-.71.22l-.15,0a4.9,4.9,0,0,1-.77.07,4.77,4.77,0,0,1-.76-.07l-.16,0a5.83,5.83,0,0,1-.71-.22l0,0a3.25,3.25,0,0,1-.61-.33L17,35.24a3.93,3.93,0,0,1-.55-.44l-.12-.14a4.16,4.16,0,0,1-.32-.39L15.86,34a4.21,4.21,0,1,1,7.77-2.26A4.27,4.27,0,0,1,23,34Zm13.1-1H25.51a6.22,6.22,0,1,0-12.32-1.23A7.12,7.12,0,0,0,13.31,33H12.08V24h24Z"/>
        <rect id="frame-37" data-name="frame" class="cls-2" x="0.09" y="0.03" width="47.97" height="47.97"/>
      </g>
      <g id="disconnect_default">
        <path class="cls-17" d="M20.19,17.72a1,1,0,0,0,1.41,0l2.48-2.47,2.47,2.47A1,1,0,1,0,28,16.31l-2.47-2.47L28,11.36A1,1,0,1,0,26.55,10l-2.47,2.47L21.6,10a1,1,0,0,0-1.41,1.41l2.47,2.48-2.47,2.47A1,1,0,0,0,20.19,17.72Z"/>
        <path class="cls-4" d="M36.07,22h-24a2,2,0,0,0-2,2v9a2,2,0,0,0,2,2h2a6.29,6.29,0,0,0,1.54,1.71l.06.05c.19.13.38.26.58.38l.06,0a6.6,6.6,0,0,0,1.37.57l.19.05a4.86,4.86,0,0,0,.55.11l.21,0a5.73,5.73,0,0,0,1.51,0l.21,0a5.17,5.17,0,0,0,.54-.11l.2-.05a6.3,6.3,0,0,0,1.36-.57l.07,0c.2-.12.39-.25.57-.38l.06-.05A6.13,6.13,0,0,0,24.72,35H36.07a2,2,0,0,0,2-2V24A2,2,0,0,0,36.07,22ZM23,34c0,.08-.11.15-.17.23a3,3,0,0,1-.32.39l-.12.14a4.51,4.51,0,0,1-.54.44l-.13.08a3.51,3.51,0,0,1-.6.33l-.05,0a5.33,5.33,0,0,1-.71.22l-.15,0a4.9,4.9,0,0,1-.77.07,4.77,4.77,0,0,1-.76-.07l-.16,0a5.83,5.83,0,0,1-.71-.22l0,0a3.25,3.25,0,0,1-.61-.33L17,35.24a3.93,3.93,0,0,1-.55-.44l-.12-.14a4.16,4.16,0,0,1-.32-.39L15.86,34a4.21,4.21,0,1,1,7.77-2.26A4.27,4.27,0,0,1,23,34Zm13.1-1H25.51a6.22,6.22,0,1,0-12.32-1.23A7.12,7.12,0,0,0,13.31,33H12.08V24h24Z"/>
        <rect id="frame-38" data-name="frame" class="cls-2" x="0.09" y="0.03" width="47.97" height="47.97"/>
      </g>
    </g>
    <g id="ic_UI_enable">
      <path class="cls-18" d="M38.55,22.3a16.5,16.5,0,0,0-29.16,0,3.65,3.65,0,0,0,0,3.4,16.5,16.5,0,0,0,29.16,0A3.59,3.59,0,0,0,38.55,22.3Zm-1.76,2.46a14.5,14.5,0,0,1-25.63,0,1.63,1.63,0,0,1,0-1.52,14.51,14.51,0,0,1,25.63,0A1.63,1.63,0,0,1,36.79,24.76Z"/>
      <path class="cls-18" d="M24,17h0a7,7,0,0,0,0,14h0a7,7,0,1,0,0-14Zm0,12a5,5,0,1,1,5-5A5,5,0,0,1,24,29Z"/>
    </g>
    <g id="ic_UI_disable">
      <g id="disable_highlight">
        <path class="cls-3" d="M13.35,30.49l1.41-1.41a14.55,14.55,0,0,1-3.49-4.31,1.65,1.65,0,0,1,0-1.53A14.44,14.44,0,0,1,27.81,16l1.6-1.6a16.26,16.26,0,0,0-5.34-.89A16.5,16.5,0,0,0,9.5,22.31a3.63,3.63,0,0,0,0,3.39A16.73,16.73,0,0,0,13.35,30.49Z"/>
        <path class="cls-3" d="M38.65,22.31a16.57,16.57,0,0,0-5.46-6l2.9-2.9A1,1,0,0,0,34.67,12l-3.26,3.26h0l-1.49,1.5h0l-1.66,1.65h0l-1.43,1.43h0l-6.91,6.9h0l-1.43,1.44h0L16.4,30.27h0L15,31.71h0L12.07,34.6a1,1,0,0,0,0,1.41,1,1,0,0,0,1.41,0l3.27-3.27a16.46,16.46,0,0,0,21.9-7A3.63,3.63,0,0,0,38.65,22.31ZM29.07,24a5,5,0,0,1-7.74,4.16l6.9-6.9A5,5,0,0,1,29.07,24Zm7.81.77a14.47,14.47,0,0,1-18.63,6.48l1.65-1.66A6.92,6.92,0,0,0,24.07,31a7,7,0,0,0,7-7,6.91,6.91,0,0,0-1.4-4.17l2.09-2.08a14.43,14.43,0,0,1,5.13,5.49A1.65,1.65,0,0,1,36.88,24.77Z"/>
        <path class="cls-3" d="M24.07,19a5.2,5.2,0,0,1,.69.07l1.66-1.65A6.8,6.8,0,0,0,24.07,17a7,7,0,0,0-6.58,9.34l1.66-1.66a5.2,5.2,0,0,1-.07-.69A5,5,0,0,1,24.07,19Z"/>
        <rect id="frame-39" data-name="frame" class="cls-2" x="0.09" y="0.03" width="47.97" height="47.97"/>
      </g>
      <g id="disable_default">
        <g id="disable_Path">
          <path class="cls-4" d="M13.35,30.49l1.41-1.41a14.55,14.55,0,0,1-3.49-4.31,1.65,1.65,0,0,1,0-1.53A14.44,14.44,0,0,1,27.81,16l1.6-1.6a16.26,16.26,0,0,0-5.34-.89A16.5,16.5,0,0,0,9.5,22.31a3.63,3.63,0,0,0,0,3.39A16.73,16.73,0,0,0,13.35,30.49Z"/>
          <path class="cls-4" d="M38.65,22.31a16.57,16.57,0,0,0-5.46-6l2.9-2.9A1,1,0,0,0,34.67,12l-3.26,3.26h0l-1.49,1.5h0l-1.66,1.65h0l-1.43,1.43h0l-6.91,6.9h0l-1.43,1.44h0L16.4,30.27h0L15,31.71h0L12.07,34.6a1,1,0,0,0,0,1.41,1,1,0,0,0,1.41,0l3.27-3.27a16.46,16.46,0,0,0,21.9-7A3.63,3.63,0,0,0,38.65,22.31ZM29.07,24a5,5,0,0,1-7.74,4.16l6.9-6.9A5,5,0,0,1,29.07,24Zm7.81.77a14.47,14.47,0,0,1-18.63,6.48l1.65-1.66A6.92,6.92,0,0,0,24.07,31a7,7,0,0,0,7-7,6.91,6.91,0,0,0-1.4-4.17l2.09-2.08a14.43,14.43,0,0,1,5.13,5.49A1.65,1.65,0,0,1,36.88,24.77Z"/>
          <path class="cls-4" d="M24.07,19a5.2,5.2,0,0,1,.69.07l1.66-1.65A6.8,6.8,0,0,0,24.07,17a7,7,0,0,0-6.58,9.34l1.66-1.66a5.2,5.2,0,0,1-.07-.69A5,5,0,0,1,24.07,19Z"/>
        </g>
        <rect id="frame-40" data-name="frame" class="cls-2" x="0.09" y="0.03" width="47.97" height="47.97"/>
      </g>
    </g>
    <g id="ic_simulator">
      <g id="simulator_highlight">
        <rect id="frame-41" data-name="frame" class="cls-2" x="0.09" y="0.03" width="47.97" height="47.97"/>
        <path class="cls-3" d="M21.07,22.1l6.09,3.41-6.09,3.4Zm-.83-2.59a1.15,1.15,0,0,0-1.16,1.14v9.71a1.14,1.14,0,0,0,1.16,1.14,1.11,1.11,0,0,0,.57-.15l8.68-4.86a1.12,1.12,0,0,0,0-2l-8.68-4.86a1.21,1.21,0,0,0-.57-.15Z"/>
        <path class="cls-3" d="M36.07,11h-24a3,3,0,0,0-3,3V33a3,3,0,0,0,3,3h24a3,3,0,0,0,3-3V14A3,3,0,0,0,36.07,11Zm-24,2h24a1,1,0,0,1,1,1v1h-26V14A1,1,0,0,1,12.08,13Zm24,21h-24a1,1,0,0,1-1-1V17h26V33A1,1,0,0,1,36.07,34Z"/>
        <polygon class="cls-5" points="21.07 28.91 21.07 22.1 27.16 25.51 21.07 28.91"/>
      </g>
      <g id="simulator_default">
        <rect id="frame-42" data-name="frame" class="cls-2" width="47.97" height="47.97"/>
        <path class="cls-4" d="M21,22.57,27.07,26,21,29.39V22.57M20.15,20A1.16,1.16,0,0,0,19,21.12v9.72A1.16,1.16,0,0,0,20.15,32a1.12,1.12,0,0,0,.57-.16L29.4,27a1.14,1.14,0,0,0,0-2l-8.68-4.85a1.12,1.12,0,0,0-.57-.16Z"/>
        <path class="cls-4" d="M36,11.49H12a3,3,0,0,0-3,3v19a3,3,0,0,0,3,3H36a3,3,0,0,0,3-3v-19A3,3,0,0,0,36,11.49Zm-24,2H36a1,1,0,0,1,1,1v1H11v-1A1,1,0,0,1,12,13.49Zm24,21H12a1,1,0,0,1-1-1v-16H37v16A1,1,0,0,1,36,34.48Z"/>
      </g>
    </g>
    <g id="ic_duplicate">
      <g id="duplicate_highlight">
        <g id="duplicate">
          <path class="cls-3" d="M24.28,35H19.65a1,1,0,0,0,0,2h4.63a1,1,0,0,0,0-2Z"/>
          <path class="cls-3" d="M36.07,27.84a1,1,0,0,0-1,1v4.63a1,1,0,0,0,2,0V28.84A1,1,0,0,0,36.07,27.84Z"/>
          <path class="cls-3" d="M33.54,35H28.91a1,1,0,0,0,0,2h4.63a1,1,0,0,0,0-2Z"/>
          <path class="cls-3" d="M36.07,18.58a1,1,0,0,0-1,1v4.63a1,1,0,0,0,2,0V19.58A1,1,0,0,0,36.07,18.58Z"/>
          <path class="cls-3" d="M19.08,32.51V31h10a2,2,0,0,0,2-2V19h1.5a1,1,0,0,0,0-2h-1.5V13a2,2,0,0,0-2-2h-16a2,2,0,0,0-2,2V29a2,2,0,0,0,2,2h4v1.5a1,1,0,0,0,2,0ZM13.08,13h16v5h0V29h-16Z"/>
        </g>
        <path class="cls-3" d="M25.07,20h-3V17a1,1,0,1,0-2,0v3h-3a1,1,0,1,0,0,2h3v3a1,1,0,1,0,2,0V22h3a1,1,0,1,0,0-2Z"/>
        <rect id="frame-43" data-name="frame" class="cls-2" x="0.09" y="0.03" width="47.97" height="47.97"/>
      </g>
      <g id="duplicate_default">
        <g id="duplicate-2" data-name="duplicate">
          <path class="cls-4" d="M24.28,35H19.65a1,1,0,0,0,0,2h4.63a1,1,0,0,0,0-2Z"/>
          <path class="cls-4" d="M36.07,27.84a1,1,0,0,0-1,1v4.63a1,1,0,0,0,2,0V28.84A1,1,0,0,0,36.07,27.84Z"/>
          <path class="cls-4" d="M33.54,35H28.91a1,1,0,0,0,0,2h4.63a1,1,0,0,0,0-2Z"/>
          <path class="cls-4" d="M36.07,18.58a1,1,0,0,0-1,1v4.63a1,1,0,0,0,2,0V19.58A1,1,0,0,0,36.07,18.58Z"/>
          <path class="cls-4" d="M19.08,32.51V31h10a2,2,0,0,0,2-2V19h1.5a1,1,0,0,0,0-2h-1.5V13a2,2,0,0,0-2-2h-16a2,2,0,0,0-2,2V29a2,2,0,0,0,2,2h4v1.5a1,1,0,0,0,2,0ZM13.08,13h16v5h0V29h-16Z"/>
        </g>
        <rect id="frame-44" data-name="frame" class="cls-2" x="0.09" y="0.03" width="47.97" height="47.97"/>
      </g>
    </g>
    <g id="ic_deactivate">
      <g id="deactivate_highlight">
        <path class="cls-3" d="M24.08,9a15,15,0,1,0,15,15A15,15,0,0,0,24.08,9Zm0,2a12.93,12.93,0,0,1,8.46,3.15l-18.3,18.3A13,13,0,0,1,24.08,11Zm0,26a12.93,12.93,0,0,1-8.43-3.12L34,15.55A13,13,0,0,1,24.08,37Z"/>
        <rect id="frame-45" data-name="frame" class="cls-2" x="0.09" y="0.03" width="47.97" height="47.97"/>
      </g>
      <g id="deactivate_default">
        <path class="cls-4" d="M24.08,9a15,15,0,1,0,15,15A15,15,0,0,0,24.08,9Zm0,2a12.93,12.93,0,0,1,8.46,3.15l-18.3,18.3A13,13,0,0,1,24.08,11Zm0,26a12.93,12.93,0,0,1-8.43-3.12L34,15.55A13,13,0,0,1,24.08,37Z"/>
        <rect id="frame-46" data-name="frame" class="cls-2" x="0.09" y="0.03" width="47.97" height="47.97"/>
      </g>
    </g>
    <g id="ic_delete">
      <g id="delete_default">
        <path id="trash_path" class="cls-4" d="M32.24,15H16.08a2,2,0,0,0-1.45.63,2,2,0,0,0-.54,1.54l1.39,19.93a2,2,0,0,0,2,1.88H30.84a2,2,0,0,0,2-1.88l1.39-19.93a2.07,2.07,0,0,0-.54-1.54A2,2,0,0,0,32.24,15Zm0,2-1.4,20L17.47,37,16.08,17H32.24Z"/>
        <path id="clap_path" class="cls-4" d="M15.08,12h18a1,1,0,0,0,0-2h-18a1,1,0,0,0,0,2Z"/>
        <rect id="frame-47" data-name="frame" class="cls-2" x="0.09" y="0.03" width="47.97" height="47.97"/>
      </g>
      <g id="delete_highlight">
        <path id="trash_path-2" data-name="trash_path" class="cls-3" d="M32.24,15H16.08a2,2,0,0,0-1.45.63,2,2,0,0,0-.54,1.54l1.39,19.93a2,2,0,0,0,2,1.88H30.84a2,2,0,0,0,2-1.88l1.39-19.93a2.07,2.07,0,0,0-.54-1.54A2,2,0,0,0,32.24,15Zm0,2-1.4,20L17.47,37,16.08,17H32.24Z"/>
        <path id="clap_path-2" data-name="clap_path" class="cls-3" d="M32.8,11.82,15,9a1,1,0,0,1,.32-2L33.11,9.85a1,1,0,0,1-.31,2Z"/>
        <rect id="frame-48" data-name="frame" class="cls-2" x="0.09" y="0.03" width="47.97" height="47.97"/>
      </g>
    </g>
    <g id="ic_lockCode">
      <g id="locked_highlight">
        <rect id="frame-49" data-name="frame" class="cls-2" x="0.09" y="0.03" width="47.97" height="47.97"/>
        <path id="pathLocked" class="cls-3" d="M34,17h-3.1V15.19A7.1,7.1,0,0,0,24.24,8a6.9,6.9,0,0,0-7.11,6.9V17H14a2,2,0,0,0-2,2V35a2,2,0,0,0,2,2H34a2,2,0,0,0,2-2V19A2,2,0,0,0,34,17Zm-14.9-2.1a4.9,4.9,0,1,1,9.8,0V17h-9.8ZM34,35H14V19H34Z"/>
      </g>
      <g id="locked_default">
        <rect id="frame-50" data-name="frame" class="cls-2" x="0.09" y="0.03" width="47.97" height="47.97"/>
        <path id="pathLocked-2" data-name="pathLocked" class="cls-4" d="M34,17h-3.1V15.19A7.1,7.1,0,0,0,24.24,8a6.9,6.9,0,0,0-7.11,6.9V17H14a2,2,0,0,0-2,2V35a2,2,0,0,0,2,2H34a2,2,0,0,0,2-2V19A2,2,0,0,0,34,17Zm-14.9-2.1a4.9,4.9,0,1,1,9.8,0V17h-9.8ZM34,35H14V19H34Z"/>
      </g>
    </g>
    <g id="ic_unlockCode">
      <g id="unlocked_highlight">
        <rect id="frame-51" data-name="frame" class="cls-2" x="0.09" y="0.03" width="47.97" height="47.97"/>
        <path class="cls-3" d="M34,17h-3.1V15.2a7.1,7.1,0,0,0-6-7.14,6.94,6.94,0,0,0-7.68,5.8,1,1,0,0,0,2,.29,4.93,4.93,0,0,1,5.91-4,5.06,5.06,0,0,1,3.82,5V17H14a2,2,0,0,0-2,2V35a2,2,0,0,0,2,2H34a2,2,0,0,0,2-2V19A2,2,0,0,0,34,17Zm0,18H14V19H34Z"/>
      </g>
    </g>
    <g id="ic_undo">
      <g id="undo_highlight">
        <path id="undo_arrow" class="cls-3" d="M24.07,22H13.49l5.37-5.36a1,1,0,0,0,0-1.41,1,1,0,0,0-1.42,0l-7.06,7.07a1,1,0,0,0,0,1.41l7.06,7.07a1,1,0,0,0,1.42-1.42L13.49,24H24.07c8,0,12,3,12,9a1,1,0,0,0,2,0C38.07,28,35.64,22,24.07,22Z"/>
        <rect id="frame-52" data-name="frame" class="cls-2" x="0.09" y="0.03" width="47.97" height="47.97"/>
      </g>
      <g id="undo_default">
        <path id="undo_arrow-2" data-name="undo_arrow" class="cls-4" d="M24.07,22H13.49l5.37-5.36a1,1,0,0,0,0-1.41,1,1,0,0,0-1.42,0l-7.06,7.07a1,1,0,0,0,0,1.41l7.06,7.07a1,1,0,0,0,1.42-1.42L13.49,24H24.07c8,0,12,3,12,9a1,1,0,0,0,2,0C38.07,28,35.64,22,24.07,22Z"/>
        <rect id="frame-53" data-name="frame" class="cls-2" x="0.09" y="0.03" width="47.97" height="47.97"/>
      </g>
    </g>
    <g id="ic_redo">
      <g id="redo_highlight">
        <path id="arrow" class="cls-3" d="M24.07,22H34.65l-5.36-5.36a1,1,0,0,1,0-1.41,1,1,0,0,1,1.42,0l7.06,7.07a1,1,0,0,1,0,1.41l-7.06,7.07a1,1,0,0,1-1.42-1.42L34.65,24H24.07c-7.95,0-12,3-12,9a1,1,0,0,1-2,0C10.08,28,12.51,22,24.07,22Z"/>
        <rect id="frame-54" data-name="frame" class="cls-2" x="0.09" y="0.03" width="47.97" height="47.97"/>
      </g>
      <g id="redo_default">
        <path id="arrow-2" data-name="arrow" class="cls-4" d="M24.07,22H34.65l-5.36-5.36a1,1,0,0,1,0-1.41,1,1,0,0,1,1.42,0l7.06,7.07a1,1,0,0,1,0,1.41l-7.06,7.07a1,1,0,0,1-1.42-1.42L34.65,24H24.07c-7.95,0-12,3-12,9a1,1,0,0,1-2,0C10.08,28,12.51,22,24.07,22Z"/>
        <rect id="frame-55" data-name="frame" class="cls-2" x="0.09" y="0.03" width="47.97" height="47.97"/>
      </g>
    </g>
    <g id="Warning">
      <g>
        <path class="cls-19" d="M24,13.11,35.63,34H12.43L24,13.11m0-3.06a1,1,0,0,0-.87.51L9.85,34.51A1,1,0,0,0,10.73,36h26.6a1,1,0,0,0,.88-1.49L24.91,10.56a1,1,0,0,0-.88-.51Z"/>
        <circle class="cls-19" cx="24.03" cy="30.98" r="1"/>
        <rect class="cls-19" x="23.02" y="18.02" width="2" height="10" rx="1"/>
      </g>
    </g>
    <g id="Error">
      <g>
        <circle class="cls-20" cx="24.03" cy="30.44" r="1"/>
        <rect class="cls-20" x="23.02" y="17.48" width="2" height="10" rx="1"/>
        <path class="cls-20" d="M24,12A12,12,0,1,1,12,24,12,12,0,0,1,24,12m0-2A14,14,0,1,0,38,24,14,14,0,0,0,24,10Z"/>
      </g>
    </g>
    <g id="valid">
      <path id="ValidPath" class="cls-3" d="M20,32.06a1,1,0,0,1-.7-.29l-6-6a1,1,0,0,1,0-1.42,1,1,0,0,1,1.41,0L20,29.64,33.39,16.22a1,1,0,1,1,1.41,1.41L20.67,31.77A1,1,0,0,1,20,32.06Z"/>
      <rect id="frame-56" data-name="frame" class="cls-2" x="0.09" y="0.03" width="47.97" height="47.97"/>
    </g>
    <g id="Close">
      <g id="Close_highlight">
        <path class="cls-3" d="M25.49,24l7.07-7.06a1,1,0,0,0-1.42-1.42l-7.06,7.07L17,15.52a1,1,0,1,0-1.41,1.42L22.66,24,15.6,31.07A1,1,0,1,0,17,32.49l7.07-7.07,7.06,7.07a1,1,0,0,0,1.42-1.42Z"/>
        <rect id="frame-57" data-name="frame" class="cls-2" x="0.09" y="0.03" width="47.97" height="47.97"/>
      </g>
      <g id="Close_default">
        <path class="cls-4" d="M25.49,24l7.07-7.06a1,1,0,0,0-1.42-1.42l-7.06,7.07L17,15.52a1,1,0,1,0-1.41,1.42L22.66,24,15.6,31.07A1,1,0,1,0,17,32.49l7.07-7.07,7.06,7.07a1,1,0,0,0,1.42-1.42Z"/>
        <rect id="frame-58" data-name="frame" class="cls-2" x="0.09" y="0.03" width="47.97" height="47.97"/>
      </g>
    </g>
    <g id="ic_then">
      <path id="Arrow-3" data-name="Arrow" class="cls-4" d="M25.15,18.27a.68.68,0,0,0,0,.95l3.58,3.58H17a.67.67,0,0,0,0,1.34H28.73l-3.58,3.58a.68.68,0,0,0,0,1,.66.66,0,0,0,.94,0l4.73-4.73a.68.68,0,0,0,0-.94l-4.73-4.73A.66.66,0,0,0,25.15,18.27Z"/>
    </g>
    <g id="ScrollArrows">
      <g id="ScrollDown">
        <rect id="frame-59" data-name="frame" class="cls-2" x="0.03" y="16.5" width="48" height="15"/>
        <polyline class="cls-6" points="18.03 21.13 24.03 27.13 30.03 21.13"/>
      </g>
      <g id="ScrollUp">
        <rect id="frame-60" data-name="frame" class="cls-2" x="0.03" y="16.5" width="48" height="15"/>
        <polyline class="cls-6" points="30.03 27.13 24.03 21.13 18.03 27.13"/>
      </g>
    </g>
    <g id="CC-BY-NC-ND">
      <g>
        <g id="BY">
          <path id="path37" d="M30.3,43.32a.18.18,0,0,0-.18-.18H29a.18.18,0,0,0-.18.18v1.13h.32v1.34H30V44.45h.31V43.32Z"/>
          <circle id="circle39" cx="29.56" cy="42.6" r="0.39"/>
          <path id="path41" class="cls-21" d="M29.55,41.23a2.62,2.62,0,0,0-1.94.81,2.67,2.67,0,0,0-.82,2,2.63,2.63,0,0,0,.82,2,2.66,2.66,0,0,0,1.94.82,2.71,2.71,0,0,0,2-.83A2.61,2.61,0,0,0,32.32,44a2.75,2.75,0,0,0-2.77-2.77Zm0,.5A2.27,2.27,0,0,1,31.82,44a2.07,2.07,0,0,1-.65,1.58,2.21,2.21,0,0,1-1.61.68A2.29,2.29,0,0,1,27.29,44,2.2,2.2,0,0,1,28,42.4,2.11,2.11,0,0,1,29.56,41.73Z"/>
        </g>
        <path id="NC" d="M36.5,41.23a2.77,2.77,0,0,1,2,4.71,2.74,2.74,0,0,1-2,.83,2.7,2.7,0,0,1-2-.82,2.66,2.66,0,0,1-.81-2,2.7,2.7,0,0,1,.81-2A2.63,2.63,0,0,1,36.5,41.23Zm-2.14,2a2.25,2.25,0,0,0-.12.74,2.29,2.29,0,0,0,2.27,2.26,2.24,2.24,0,0,0,1.61-.68,2.17,2.17,0,0,0,.38-.48l-1-.47a.79.79,0,0,1-.76.62v.43h-.31v-.43a1.26,1.26,0,0,1-.84-.33l.38-.38a.82.82,0,0,0,.61.25c.17,0,.35-.07.35-.28a.21.21,0,0,0-.08-.17l-.26-.11-.33-.15-.44-.19Zm2.15-1.53a2.14,2.14,0,0,0-1.6.67,2.11,2.11,0,0,0-.3.37l1,.47a.77.77,0,0,1,.72-.49v-.43h.31v.43a1.22,1.22,0,0,1,.7.25l-.37.38a.79.79,0,0,0-.47-.17c-.14,0-.33,0-.33.22a.14.14,0,0,0,0,.07l.36.16.24.1.44.2,1.42.63a2.22,2.22,0,0,0,.07-.59,2.29,2.29,0,0,0-2.26-2.27Z"/>
        <g id="ND">
          <path id="path1334" d="M43.38,41.23a2.8,2.8,0,1,0,.07,0Zm0,.48h.08a2.25,2.25,0,1,1-.08,0Z"/>
          <path id="rect1338" d="M42.48,43.35h2v.5h-2Zm0,.9h2v.5h-2Z"/>
        </g>
        <g id="CC">
          <path id="path2554" class="cls-21" d="M22.61,41.23a2.66,2.66,0,0,0-1.94.8,2.8,2.8,0,0,0-.82,2,2.78,2.78,0,0,0,2.76,2.77,2.81,2.81,0,0,0,2-.83A2.65,2.65,0,0,0,25.38,44a2.75,2.75,0,0,0-2.77-2.77Zm0,.5A2.25,2.25,0,0,1,24.88,44a2.16,2.16,0,0,1-.65,1.59,2.27,2.27,0,0,1-1.61.67A2.29,2.29,0,0,1,20.35,44,2.3,2.3,0,0,1,21,42.39,2.21,2.21,0,0,1,22.62,41.73Z"/>
          <path id="path2556" class="cls-21" d="M22.58,43.54a.76.76,0,0,0-.73-.4A.8.8,0,0,0,21,44a.78.78,0,0,0,.82.86.83.83,0,0,0,.73-.43l-.34-.18a.34.34,0,0,1-.34.24c-.26,0-.37-.21-.37-.49s.09-.49.37-.49a.34.34,0,0,1,.3.22Z"/>
          <path id="path2558" class="cls-21" d="M24.18,43.54a.77.77,0,0,0-.73-.4.8.8,0,0,0-.81.86.78.78,0,0,0,.82.86.84.84,0,0,0,.73-.43l-.34-.18a.34.34,0,0,1-.35.24c-.25,0-.37-.21-.37-.49s.1-.49.37-.49a.34.34,0,0,1,.31.22Z"/>
        </g>
      </g>
    </g>
  </g>
</svg>
