<svg xmlns="http://www.w3.org/2000/svg" viewBox="0 0 86.28 86.94">
  <defs>
    <style>
      .cls-1, .cls-2 {
        fill: none;
        stroke-linecap: round;
        stroke-width: 3px;
      }

      .cls-1 {
        stroke: #2985ff;
        stroke-linejoin: round;
      }

      .cls-2 {
        stroke: #ff4a41;
        stroke-miterlimit: 10;
      }

      .cls-3 {
        fill: #2985ff;
      }
    </style>
  </defs>
  <title>Logo_Asset 62</title>
  <g id="Layer_2" data-name="Layer 2">
    <g id="About">
      <path class="cls-1" d="M12.15,1.5H76.71a8.07,8.07,0,0,1,8.07,8.07V74.13"/>
      <path class="cls-2" d="M74.13,85.44H9.57A8.07,8.07,0,0,1,1.5,77.37V12.81"/>
      <g>
        <path class="cls-3" d="M25.31,54.27a1.64,1.64,0,0,1-.47-.67L18,36.64a.92.92,0,0,1,0-.33.8.8,0,0,1,.24-.57.77.77,0,0,1,.53-.23h3a1,1,0,0,1,1,.69L27.54,49,32.37,36.2a1,1,0,0,1,.31-.47.89.89,0,0,1,.64-.22h3a.75.75,0,0,1,.55.23.82.82,0,0,1,.22.57,1.22,1.22,0,0,1,0,.33l-6.83,17a1.36,1.36,0,0,1-1.32.91H26.15A1.31,1.31,0,0,1,25.31,54.27Z"/>
        <path class="cls-3" d="M40.74,61.22a.84.84,0,0,1-.26-.64V36.38a.87.87,0,0,1,.26-.64.9.9,0,0,1,.62-.23h2.92a.86.86,0,0,1,.66.26.82.82,0,0,1,.25.61v1.47A6.71,6.71,0,0,1,51,35.14a7,7,0,0,1,5.66,2.32,9.9,9.9,0,0,1,2.12,6.23c0,.3,0,.74,0,1.32s0,1,0,1.32a9.75,9.75,0,0,1-2.1,6.19A7,7,0,0,1,51,54.88a6.57,6.57,0,0,1-5.6-2.6v8.3a.9.9,0,0,1-.23.64.91.91,0,0,1-.64.23H41.36A.9.9,0,0,1,40.74,61.22Zm13-15.11a15.15,15.15,0,0,0,0-2.2q-.26-4.81-4.16-4.82a3.65,3.65,0,0,0-3.11,1.35,5.69,5.69,0,0,0-1.1,3.29c0,.29,0,.76,0,1.39s0,1.11,0,1.42a5,5,0,0,0,1.14,3.11,3.77,3.77,0,0,0,3.07,1.28Q53.52,50.93,53.78,46.11Z"/>
        <path class="cls-3" d="M63.17,54.25a.85.85,0,0,1-.25-.62V29.44a.88.88,0,0,1,.25-.64.89.89,0,0,1,.63-.23h3.07a.81.81,0,0,1,.87.87V53.63a.81.81,0,0,1-.24.62.78.78,0,0,1-.63.26H63.8A.84.84,0,0,1,63.17,54.25Z"/>
      </g>
    </g>
  </g>
</svg>
